<svg enable-background="new 0 0 125 99" viewBox="0 0 125 99" xmlns="http://www.w3.org/2000/svg"><g fill="#fff" fill-opacity=".85"><path d="m4.2 0c-2.4 2.4-5.7 9.5-3.4 12.5 2.6 3.5 7.3 6.6 7.3 11.4 0 1.3-1.1 2.7-1.6 3.9-.8 1.9-1.7 3.9-2.2 5.9-1.9 8.6-2.1 17.6 1.3 25.9 1.1 2.7 2.4 5.3 4.1 7.7.2.3 1.5 2.1 1.5 2.1h80.6s4.1-3.1 10.7-10.9c11-13 22.5-12.8 22.5-12.8l.1-2s-14-3.2-28.4 2.3c-14.8 5.7-21.9 15.7-42 20.1-18.1 3.9-35.5-2.5-41.7-21.3-1.4-4.3-1.7-8.5-1.7-13 0-.9.3-2.1.8-2.8 3.8-5 9.9 1.2 14.5 1.6 5.1.4 7.6-3.5 10.5-7.2-.3-.4-5-.3-6.6-.7-2.9-.8-10.5-4.8-13-3.8-2 .8-3.5 3.1-4.8 4.6-.1-.1-.2 0-.3-.1 1-2 2.5-4.5 2.5-6.8 0-1.3-1.6-2.7-2.3-3.5-1.9-2.5-3.9-4.7-5.7-7.1-.9-1.2-1.5-2.6-2-4-.2-.6-.2-1.5-.7-2z"/><path d="m30.5 85.1c2.7 2.7 29.1 23.3 61.4 8.3 32-14.9 32.9-46 32.8-46-1-.2-12.7 1.5-21.5 12.5-12.7 15.9-29.2 22.3-40.6 25.3-19 5.2-32-.2-32.1-.1z"/><path d="m12.4 71c12.6 14.7 34.7 19.5 51.8 9.3 4.1-2.5 8.3-5.4 11.2-9.3-.1-.1-.1-.2-.2-.2-10.4-.1-20.8-.1-31.2-.1s-20.9 0-31.3.1c-.2 0-.2.1-.3.2z"/></g></svg>