<svg fill="none" height="230" viewBox="0 0 1280 230" width="1280" xmlns="http://www.w3.org/2000/svg" xmlns:xlink="http://www.w3.org/1999/xlink"><clipPath id="a"><path d="m0 0h1280v230h-1280z"/></clipPath><g clip-path="url(#a)"><path d="m0 0h1280v230h-1280z" fill="#00a7ce"/><g fill="#fff"><path d="m556.225-319.376c-1.01-1.597-2.972-3.209-2.883-4.806.372-14.282-1.991-28.67 2.824-42.818 2.422-7.105 5.87-9.985 12.528-10 5.321 0 8.917 1.746 8.501 5.821-1.144 10.805 3.463 21.924-2.823 32.461-.387.642-.105 1.492 0 2.283.406 5.632.827 11.259 1.263 16.88 3.195-4.627 6.569-9.193 9.556-13.895 6.509-10.208 12.692-20.551 19.32-30.745.694-1.048 1.608-1.931 2.678-2.588 1.07-.656 2.27-1.07 3.515-1.212 1.246-.143 2.508-.01 3.697.389s2.277 1.054 3.188 1.919c.743.746-.327 2.806-1.025 4.104-6.108 11.507-12.35 22.969-18.488 34.461-.388.987-.643 2.021-.758 3.075 1.323-.329 3.255-.329 3.894-1.03 4.28-4.746 8.56-9.522 12.29-14.522 2.512-3.373 3.567-7.462 6.346-10.611 1.486-1.702 6.599-3.642 7.654-2.985 2.824 1.642 9.288 1.179 7.327 6.582-3.76 10.447-5.841 21.148-10.493 31.342-2.065 4.477-2.229 5.178 3.731 5.238 4.577 0 5.067 2.358 2.229 4.254-3.315 2.235-7.006 3.848-10.894 4.761-5.983 1.504-12.127 2.266-18.294 2.268-10.314-.328-16.705 1.418-14.699 10.582-11.413 18.283-20.806 37.311-34.91 54.639-13.39 16.223-24.581 33.581-36.47 50.55-.684.985.104 2.582.223 3.895 1.669-.649 3.259-1.485 4.741-2.492 7.341-6.477 14.861-12.88 21.594-19.671 3.448-3.433 7.951-3.686 11.963-2.746 3.671.866 8.516 2.507 3.701 7.298-5.692 5.686-10.091 12.119-15.099 18.208-1.41 1.391-2.712 2.887-3.894 4.478-.535.925 0 2.223.134 3.343 1.447-.349 2.868-.803 4.25-1.358 11.131-5.448 18.458-5.179 25.8 1.492.679.704 1.149 1.583 1.359 2.54.21.956.151 1.953-.17 2.878-3.077 6.776-9.66 11.074-18.979 11.402-10.299.373-18.621 2.821-25.547 8.776-3.106 2.672-7.624 4.373-11.384 6.642-.856.678-1.598 1.489-2.199 2.402.827.366 1.703.607 2.601.717 4.874-.209 10.403.492 14.46-1.045 8.189-3.119 13.375 1.119 19.617 3.134 1.011.329 2.2 2.224 1.828 2.672-1.039 1.15-2.45 1.896-3.983 2.104-12.127.911-24.269 1.985-36.44 2.254-7.431.164-10.805 1.88-10.745 7.835.163 18.8053 4.978 36.909 13.657 54.4306 5.247 10.6114 11.043 21.0736 16.571 31.6104.52.9851.996 1.985 1.486 2.985.52-.985 1.486-1.985 1.486-2.985-.445-5.2236-1.01-10.2234 9.408-8.8204.49.0746 1.486-3.567 2.824-5.164 1.902-2.1939 3.997-5.1938 6.791-5.8206 3.181-.7164 7.535 5.8654 6.748 8.9548-.738 2.8634-1.235 5.784-1.487 8.7309 0 .8507 1.041 1.7462 1.605 2.6268.431-1.0149.966-1.9999 1.308-2.9849.684-2.1044 1.085-4.2536 1.932-6.3132s2.244-4.4774 3.374-6.6415c3.761 1.3371 7.451 2.8664 11.057 4.5819 2.021 1.0895 3.225 3.0596 4.8 4.6416.867-2.2045 1.86-4.3573 2.973-6.4475.98-1.6268 2.095-3.6118 3.908-4.4774 2.232-.7331 4.629-.7953 6.896-.1791.906.2537 1.263 2.6865 1.085 4.0595-.238 1.7313-1.486 3.373-1.932 5.1043-1.486 5.7161-2.571 11.4621-4.028 17.1634-.802 3.1789-2.288 6.2534-2.972 9.4324-2.17 10.86514-4.102 21.74523-6.034 32.6403-.119.6268.52 1.3432.803 2.0148.713-.597 1.843-1.1044 2.095-1.7909 5.499-14.79041 24.983-20.05884 36.218-30.9389 2.066-1.7 4.561-2.7902 7.208-3.1491 2.131-.1565 4.245.4752 5.945 1.776 1.04.985.772 3.1193.312 4.5968-.298.95518-2.022 1.6417-3.047 2.47748-13.524 11.07412-27.013 22.16812-40.468 33.28202-.833.9483-1.488 2.0406-1.932 3.2238 1.724-.3881 3.507-.6418 5.142-1.1791 8.917-2.9849 17.834-5.9699 26.84-8.9548 2.14-.6865 4.934-1.582 6.807-1.0596 4.67 1.4996 9.263 3.233 13.761 5.1938-3.551 2.0596-6.717 4.9102-10.715 5.9699-10.091 2.7759-20.553 4.7609-30.852 7.0742-2.266.3039-4.493.8492-6.644 1.6268-13.583 6.4475-14.014 7.4624-8.292 22.7154 5.097 13.6113 4.161 26.7003-3.136 39.8641-9.437 16.984-21.416 32.506-39.265 45.162-1.055.746-1.976 1.612-2.972 2.433 1.801.447 3.628.786 5.469 1.014 2.497.18 5.083-.238 7.52.12 3.155.505 6.266 1.259 9.303 2.253.07 1.11-.275 2.206-.966 3.075-2.823 2.761-6.048 4.746-11.309 3.567s-23.868.642-28.029 2.597c-1.203.77-2.285 1.716-3.21 2.806 1.465.763 3.024 1.33 4.636 1.686 9.111.896 18.473.911 27.331 2.552 10.15 1.896 14.237 5.761 13.108 10.343-.327.835-.846 1.58-1.515 2.174s-1.469 1.02-2.334 1.244c-3.939.448-8.62 1.149-11.89 0-13.984-4.955-27.583-1.134-41.315.209-.879.177-1.732.463-2.541.851.832.82 1.486 2.014 2.541 2.388 8.501 2.835 17.18 5.387 25.651 8.298 4.609 1.607 9.111 3.506 13.48 5.686 1.486.731 4.978 1.895 1.085 4.03-1.962 1.074-3.196 3.537-5.172 3.835-2.774.344-5.588-.128-8.1-1.358-6.509-3.552-13.762-2.865-20.999-3.104-4.459-.149-6.673.776-5.811 4.358.996 4.119-1.278 4.955-6.51 5.059-14.326.299-25.487-5.208-36.084-11.238-2.288-1.313-1.307-5.97-1.842-9.089 3.076.462 6.182.821 9.214 1.403 1.783.343 3.403 1.298 5.187 1.492.847.09 2.734-.895 2.764-1.492.223-4.224-4.86-8.821-10.73-8.746-5.667.025-11.307.787-16.779 2.268-20.435 5.866-40.409 12.657-60.933 18.179-22.875 6-44.66 15.601-64.544 28.446-7.564 4.925-14.104 10.761-21.267 16.044-3.18 2.343-5.172 4-1.025 7.343 4.77 3.836 6.39 9.821 16.6 8.492 4.86-.641 5.618 2.791 1.278 5.97-1.085.791-2.066 2.269-3.21 2.343-19.32 1.164-37.748 9.836-57.96 3.149-5.098-1.686-11.25-1.388-16.66-2.671-3.27-.761-6.034-2.791-9.036-4.239 2.066-2.044 3.701-4.477 6.257-6.044 14.297-8.656 14.222-8.656 6.94-22.193-4.856-9.562-12.273-17.573-21.415-23.133-13.465-8.09-19.9-19.238-25.131-31.238-3.237-7.241-7.382-14.037-12.336-20.223-3.537-4.477-2.972-8.343-.921-12.551.936-1.896 6.925-2.881 1.486-5.717-2.824-1.492-3.7-3.805-9.556-2.522-21.089 4.582-39.368 13-57.737 21.551-4.801 2.224-9.705 4.329-14.535 6.522-1.662.914-3.574 1.262-5.449.993-1.8753-.269-3.6134-1.141-4.9542-2.485-3.8194-3.343.3567-4.806 2.6157-6.343 5.0525-3.448 10.6555-6.403 15.6935-9.865 7.223-4.955 10.864-13.059 22.07-14.477-.922-1.269-1.561-3.448-2.824-3.672-9.63-1.791-19.32-3.238-29.114-4.746-10.2097-1.492-20.5534-2.761-30.6296-4.746-5.3205-1.044-9.125-3.895-9.4371-8.79-.3121-4.896 3.537-5.702 7.9955-7.851 11.6813-5.611 22.1884-5.552 33.2012.567 1.813 1 4.711.881 7.104 1.269-.327-1.806.208-4.209-1.115-5.328-8.635-7.224-11.206-16.4173-14.8617-25.3721-4.7854-11.6413 5.2317-20.7901 21.1927-18.9246 6.376.7463 6.851-.6566 4.042-4.8803-3.581-5.358-5.944-11.1488-8.917-16.7605-.505-.9999-.579-2.9849-1.099-2.9849-13.4947-1.4029-9.586-5.6266-3.24-10.5517.282-.2239-1.486-2.8805-2.467-2.985-3.693-.4871-7.4298-.5272-11.1316-.1194-18.2928 2.7358-36.9115 2.3928-55.0921-1.0149-3.1655-.5969-7.8766-2.7909-8.1293-4.4774-.3121-2.3431 2.2887-5.8355 5.0232-7.2982 6.9553-3.7162 14.2523-7.38766 23.6152-6.46232 3.508.24624 7.0289.24624 10.5369 0 1.8287-.25724 3.6365-.64628 5.4096-1.16413-.557-1.35764-1.2179-2.66997-1.9766-3.9252-4.4585-6.25344-10.5072-11.50693-13.6727-18.74545-3.7005-8.4623-1.4862-16.4171-2.036-24.566-.3419-4.4774 6.5837-5.5669 12.1419-3.4028 7.7727 2.9849 3.2547 9.91 8.382 13.5964 1.0997.791 1.4861 2.1641 2.1846 3.2536.5051-.9757.8608-2.0222 1.0552-3.1044.104-4.6117 0-9.2085 0-13.8202.3609-11.1061 2.0423-22.1291 5.0084-32.8344 3.0763-12.1188 3.7451-25.5661-1.3376-38.2521-.9808-2.447-.6242-5.223-.639-7.865 0-11.94.3567-23.805-.1338-35.685-.5647-13.895-1.4861-27.805-3.2101-41.64-.3418-2.851-3.6114-6.492-6.9255-7.97-16.2735-7.238-23.7786-18.178-26.0822-32.013-.9957-6.672-3.4627-13.313-5.4542-19.984-1.3821-4.478 1.7537-11.313 4.7557-10.328 3.8755 1.406 7.276 3.884 9.8087 7.149 3.7154 4.88 6.2419 10.313 9.2142 15.477.771 1.401 1.8297 2.622 3.1061 3.581 2.7197 1.851 4.7111 2.045 5.9447-1.402 3.8491-9.925 8.5305-19.656 11.7555-29.596 1.0552-3.194 2.3927-7.179 5.692-6.537 3.7749.746 8.4708 4.358 9.2438 7.268 1.486 5.522.357 11.447.505 17.208 0 .866 1.056 1.732 1.635 2.597.749-.479 1.451-1.029 2.096-1.641 1.813-2.105 4.577-4.15 5.038-6.433 1.486-7.149 7.431-12.313 11.443-18.342 3.686-5.463 8.917-7.299 13.376-5.209 3.552 1.656 5.944 7.761 5.157 11.358-3.448 14.327-7.951 28.595-17.671 41.52-2.972 4.03-5.707 8.224-8.917 12.119-2.172 2.179-4.518 4.175-7.014 5.97-2.705-2.508-8.397-6.09-7.61-7.358 3.612-5.97-2.6895-9.761-3.5367-14.596-.966-5.448-1.9617-10.881-2.9723-16.313-.3166-1.039-.7451-2.04-1.2781-2.985-1.4861.985-3.76 1.821-4.1018 2.985-1.4862 5.328-2.5116 10.746-3.5965 16.148-.2229 1.135.3121 2.373-.0892 3.448-1.1592 2.985-2.6008 6.074-3.9383 9.104-3.6857-1.94-7.4308-3.851-11.0571-5.85-1.6199-.896-2.9723-2.075-4.5773-2.985-2.4076-1.254-4.9638-2.344-7.4309-3.508 1.0255 2.343 1.4862 4.925 3.1656 7 7.52 9.776 11.0422 11.671 31.2094 19.671 2.6602 1.03 6.3162 2.522 3.2844 6.999-2.363 3.493-.9809 8.597-.7133 12.955.1634 2.866 2.2738 5.776 1.8725 8.537-1.9469 13.208.8025 26.357.2824 39.565-.5499 13.806-.4459 27.641 0 41.446.2229 6.9849 1.8874 13.9548 2.8682 20.8947 1.026 7.3579 1.843 14.7457 3.062 22.0737 1.857 11.283 3.968 22.5362 5.944 33.8044.261.6972.616 1.3551 1.055 1.9551 1.13-.4289 2.179-1.0443 3.106-1.8208.909-1.1811 1.526-2.5623 1.799-4.0297 2.095-12.0143 4.027-24.0585 6.123-36.0878.234-1.4729.861-2.8549 1.813-3.9999 5.335-5.9699 8.843-5.8803 13.167.6567 2.37 3.3613 4.364 6.9751 5.945 10.7756 1.635 4.1016 2.638 8.4299 2.972 12.8353.283 5.0296-.193 9.5816 8.308 11.298 1.932.388 4.057 4.4774 3.656 6.537-1.338 7.1191-2.274 14.6411-6.153 21.01395-4.711 7.79069-12.335 14.52174-18.443 21.83485-1.055 1.2537-.877 3.1192-1.263 4.7013 2.065-.5672 4.859-.6567 6.093-1.7611 6.881-6.1938 13.108-12.80545 20.093-18.924569 12.35-10.805431 26.439-19.402131 46.829-17.999131 2.125.1492 4.116 1.5969 6.167 2.4327-.966 1.3581-1.486 3.1342-2.972 4.0147-14.341 8.65633-28.831 17.17832-43.336 25.6854-1.487.8507-3.686 1.0895-4.83 2.1044-7.907 7.0146-16.972 11.9397-29.858 11.9397-2.749 0-7.029 1.9253-7.832 3.7014-.802 1.776 1.873 4.5819 2.557 7.0146 5.944 21.0886 20.271 39.6549 30.481 59.46.669 1.3135 2.734 2.1935 4.161 3.2835.52-1.328 1.665-2.7015 1.486-3.985-1.055-7.6713-2.155-15.3575-3.745-22.984-.877-4.2237-4.131-8.4325-3.641-12.4473.282-2.3879 5.35-5.1489 9.051-6.3578 2.972-.9851 6.331-1.0746 7.906 3.761 4.637 14.2083 13.242 27.6106 14.862 42.5201.163 1.493 2.972 2.687 4.458 4.03.802-1.25 1.503-2.563 2.096-3.925 1.828-5.194 3.522-10.4475 5.276-15.6114 2.571-7.5967 8.679-12.8801 18.042-15.9695 9.362-3.0894 12.038-1.3283 15.367 5.9699 7.252 15.8351-1.635 29.969-6.317 44.595-.77 2.093-1.767 4.095-2.972 5.97-1.352 2.268-2.274 5.015-4.562 6.522-2.289 1.507-5.945 1.716-9.051 2.507-.476-2.149-1.888-4.477-1.278-6.417 2.303-7.284 5.796-14.358 7.832-21.671 1.778-7.165 3.089-14.4386 3.923-21.7751.134-.9402-1.783-2.0446-2.734-3.0745-1.055.9702-2.601 1.8059-3.077 2.8954-3.165 7.4623-6.568 14.9242-8.917 22.4912-1.798 5.672-1.947 11.642-3.254 17.432-.951 4.254-6.168 4.478-10.403 5.627-1.677.718-3.244 1.673-4.652 2.836 1.486.567 3.195 1.716 4.666 1.597 5.633-.448 6.807.985 7.818 5.462 1.634 7.328 10.001 11.776 17.967 15.253 13.866 6.045 28.416 10.522 44.704 4.806 1.962-.393 3.983-.393 5.945 0 2.972.343 5.944.955 8.917 1.492-2.423 1.851-4.459 4.105-7.431 5.448-2.933 1.304-6.084 2.043-9.289 2.179-7.014.328-14.074 0-21.103.149-3.329.075-6.643.672-9.972 1.045 2.08 1.627 4.206 3.209 6.212 4.895 9.977 8.338 19.924 16.706 29.842 25.103 4.102 3.478 8.189 5.642 13.524 1.254 13.465-11.119 27.033-22.148 40.439-33.312.997-1.124 1.738-2.453 2.169-3.895.165-.522.255-1.065.268-1.612-1.367 0-3.166-.448-3.968 0-.803.448-.387 2.358-1.248 2.985-5.128 3.388-9.973 7.388-15.917 9.552-3.76 1.373-9.289-.075-14.015-.239 3.077-2.403 5.588-5.865 9.333-7 11.057-3.343 11.771-12.939 19.796-17.984.104-.075-2.185-3.522-3.686-3.701-4.458-.523-9.05.074-13.524-.239-8.159-.567-16.348-1.209-24.343-2.433-2.215-.328-5.335-2.85-5.35-4.388-.015-1.537 3.462-4.477 5.172-4.402 8.664.492 11.502-2.254 13.598-8.582 1.278-3.836 7.891-7.06 15.144-3.642 1.694.791 4.637 0 7 0-.119-2.089.416-4.343-.461-6.208-3.641-7.672-7.891-15.164-11.562-22.8204-3.285-6.8504 2.838-15.7604 11.607-16.3276 2.273-.1492 5.781 2.388 7.074 4.3282s-.253 4.5819.386 6.7758c1.117 3.1231 2.458 6.1608 4.013 9.0891.624-3.0595 1.962-6.1489 1.724-9.1637-.544-4.3706-1.505-8.6787-2.869-12.8651-3.269-11.6711 4.949-21.9094 20.658-23.5064 8.159-.8208 9.259-3.4774 9.72-8.7757.862-10.0443-3.612-20.417 2.808-30.1479-6.063-10.92486-1.902-22.38702-2.868-33.5955-.267-2.9849-1.397-4.2684-5.172-3.7013-7.43 1.0895-14.742 2.7909-22.292 3.373-7.053.7573-14.173.6219-21.193-.403-7.52-1.388-8.471-6.3728-2.036-9.0891 6.459-2.47 13.144-4.2946 19.959-5.4475 5.945-1.194 12.187-1.6716 18.325-2.373 4.651-.5224 4.458-2.3134 2.051-4.4774-10.225-9.4623-17.834-20.626-30.913-28.2226-8.01-4.6565-16.124-9.2086-24.105-13.8949-1.285-.9353-2.457-2.0171-3.493-3.2238 1.947-1.0447 3.731-2.761 5.856-2.9849 13.45-1.791 23.585 4.2983 34.182 8.9548 2.095.9253 3.448 2.8059 5.439 3.9401 1.297.4178 2.651.6293 4.013.6269.178-1.3134 1.04-2.8656.445-3.9103-6.588-11.3428-13.32-22.6458-20.196-33.9088-4.459-7.194-4.102-9.671 2.422-13.432 4.458-2.597 15.694-1.896 20.45.85 9.244 5.358 8.456 14.253 13.256 21.179.695 1.254 1.239 2.586 1.62 3.969 1.538-1.383 3.002-2.847 4.384-4.387.446-.553.223-1.493 0-2.269-3.998-16.417-8.189-32.745-11.889-49.162-1.486-6.537-1.828-13.208-3.151-19.76-2.838-14.044-6.569-27.999-8.664-42.088-.713-4.88-3.597-4.985-7.431-4.253-5.821.982-11.535 2.526-17.061 4.611-9.437 3.851-19.32 2.015-28.98 1.881-3.418 0-6.747-3.701-10.121-5.701 2.415-1.951 4.93-3.775 7.535-5.463 10.061-5.97 22.53-6.746 34.182-9.163 4.458-.926 4.74-2.478 2.095-4.478-8.917-6.91-15.263-14.775-17.046-24.596-.58-3.194-2.215-6.313-2.556-9.507-.461-4.194.089-8.447-.194-12.656-.148-2.134-6.524-4.836-.98-5.97 4.176-.91 11.057-3.179 14.252 3.627 3.433 7.313 9.333 13.925 13.821 20.894.714 1.12-.327 2.881-.55 4.344l-4.265-2-3.195-1.493c-.253 1.045-1.174 2.403-.639 3.075 3.671 4.567 7.624 9.044 11.607 13.521.401.463 1.382.642 2.08.956.357-.657 1.011-1.314 1.011-1.97.089-5.761-.728-11.597.238-17.253 1.411-8.681 3.609-17.214 6.568-25.492.758-2.089 1.338-6.537 8.516-5.865 2.257.177 4.453.823 6.448 1.897 1.996 1.074 3.748 2.552 5.144 4.341 3.285 3.672-2.08 19.044-6.91 24.044-1.021 1.045-1.656 2.409-1.799 3.865-.193 5.373-.237 10.746 0 16.119 0 1.03 1.843 2.015 2.824 2.985 1.102-.877 2.099-1.878 2.972-2.985 3.85-6.074 7.847-12.104 11.206-18.342 2.497-4.657 7.342-6.642 12.93-6.164 6.286.537 11.309 4.149 11.889 8.955 1.1 9.357 1.397 18.7-10.24 25.536-8.813 5.179-14.861 12.969-25.918 16.253-1.754.507-3.419 4.641-2.571 6.373 7.029 14.372 5.751 29.64 8.917 44.401 3.596 16.82 8.352 33.506 11.755 50.355 1.293 6.373.208 13.03-.55 20.134-2.259-4.313-4.755-9.149-5.097-14.089-1.219-18.014-5.945-35.625-8.917-53.43-2.779-16.313-5.38-32.626-9.393-48.789-.267-1.075-1.991-1.94-2.972-2.896-.743 1.329-2.467 2.896-2.051 3.955 6.807 17.209 9.184 34.939 11.235 52.714.847 7.358.833 14.925 3.255 21.97 3.977 10.801 5.947 22.244 5.811 33.759-.208 6.881-.149 13.7906 0 20.6709.294 1.7438.819 3.4404 1.56 5.0446 1.487-1.8358 3.582-3.5372 4.266-5.5371 1.264-4.2123 2.316-8.4863 3.15-12.8054 2.973-1.075 5.945-2.06 8.769-3.268 8.322-3.597 13.895-1.344 15.441 5.671 3.314 14.9246-1.798 29.0284-6.94 43.1322-.355.8359-.751 1.6529-1.189 2.4477 1.352 0 3.18.4179 3.997-.0896 7.52-4.7759 14.669-9.9099 22.293-14.5068 3.895-2.1544 8.051-3.7948 12.365-4.8803 5.335-1.4925 11.369 1.6865 11.488 5.8206.327 11.7457-6.108 20.7005-18.265 27.9987-9.475 5.9472-19.835 10.3357-30.689 12.9994-4.459 1.0448-12.618.1941-13.51 1.9104-2.08 3.97-.802 8.9548-.802 13.5665 0 12.268129-.327 24.5512.104 36.8342.252 7.5668-1.694 14.9247-.609 22.7004 1.174 8.328-1.041 17.0291-2.69 25.4615-1.115 5.6117-4.073 10.9995-5.737 16.5515-.49 1.6716.58 3.5969.936 5.4028 2.423-.8507 6.138-1.2239 7.06-2.6566 5.246-8.0445 13.494-13.1935 24.387-15.9844 2.354-.6117 4.825-.6117 7.179 0 5.157 1.7014 0 3.6267-.714 4.9849-2.199 4.2834-4.458 8.9548-8.352 12.2532-8.308 7.1187-17.67 13.5217-26.587 20.2227-1.487 1.06-2.69 2.224-4.043 3.343 2.036 0 4.459.582 6.064 0 17.348-6.671 35.967-9.349 54.482-7.835 1.992.134 5.143 1 5.499 2 .235.904.199 1.857-.103 2.741-.301.883-.854 1.659-1.591 2.229-4.458 2.597-9.526 4.552-14.356 6.776-2.809 1.298-6.079 2.268-8.323 3.999-12.469 9.642-12.394 9.642-26.097 12.209-1.352.253-2.348 1.656-3.507 2.537 1.486.657 2.853 1.866 4.31 1.895 9.036.179 18.101-.134 27.107.239 2.512.09 4.905 1.94 7.357 2.985-2.051 1.254-3.849 3.089-6.183 3.672-12.32 3.074-23.644 6.387-37.6.716-8.218-3.343-20.806-1.284-31.209-.269-4.042.388-7.431 4.478-11.087 7.045-.312.209 0 1.492.223 1.492 1.408.394 2.885.47 4.325.224 4.562-1.895 6.732-2.612 6.747 2.91 0 12.448-7.728 22.955-13.762 33.715-10.046 17.91-21.787 35.312-32.695 52.983-.833 1.358-.55 3.134-.773 4.716 2.066-.686 4.919-.925 6.093-2.119 27.539-28.357 65.793-44.207 108.49-55.416 16.214-4.253 31.655-10.178 47.557-15.103 3.998-1.254 6.792-2.373 5.573-6.194-1.218-3.821-1.486-7.97-3.195-11.656-3.359-6.985-7.654-13.701-11.235-20.611-.816-1.721-1.011-3.673-.55-5.522.416-1.836 1.902-3.523 2.972-5.269 2.973 1.09 8.442-2.731 9.214 2.985.179 1.314 3.062 2.418 4.697 3.612.563-1.753.918-3.566 1.055-5.403-.387-8.25 1.683-16.428 5.945-23.491 2.05-3.508 3.997-6.104 9.288-5.284 5.291.821 6.346 4.075 5.945 7.761-1.041 10.806-2.155 21.611-2.973 32.432-.133 1.895 1.486 3.865 2.2 5.805 2.681-.463 5.313-1.177 7.862-2.134 6.791-3.343 13.167-7.179 20.018-10.447 2.644-1.043 5.495-1.447 8.323-1.179 5.291.388 7.891 2.059 3.819 6.283-.66.684-1.121 1.537-1.333 2.466-.212.928-.167 1.897.129 2.802 2.393 4.478 5.796.105 7.877-.388 11.889-2.791 19.246-10.581 25.978-17.656 8.144-8.536 13.078-18.834 20.078-28.073 3.879-5.0892 4.37-10.268 4.548-15.8797.416-12.686 0-25.178-6.064-37.3118-3.596-7.0743-6.42-8.1937-15.575-5.4027-18.645 5.7086-38.088 8.3447-57.574 7.8056-4.057-.1194-5.573-.0746-4.547-4.3879 2.972-12.7457 14.163-18.1782 28.876-20.8945 4.042-.7463 3.745-1.4925 1.115-3.0596-7.149-4.4028-13.911-9.2533-21.58-13.05908-18.339-9.104063-24.283-24.86452-12.766-37.86392 6.911-7.7907 18.548-8.1788 24.819-.1493 7.936 10.1637 15.902 20.31251 24.017 30.38668 3.641 4.47741.119 10.68612 5.944 14.62622l2.304 1.4925c1.07-1.0746 3.24-2.985 3.047-3.1342-7.743-6.10422-5.588-14.92472-10.775-22.0438-10.507-14.5366-21.743-28.8942-28.98-44.9084-4.533-10.0294-10.953-19.5066-14.089-30.0882-3.552-11.9397-6.524-23.8799-5.752-36.1329.238-3.746.298-6.776-6.791-6.074-2.689-.015-5.287-.976-7.342-2.716-5.306-4.791-11.458-4.478-18.622-3.344-6.687 1.118-13.463 1.617-20.241 1.493-7.074-.164-10.166-5.642-5.187-9.343 7.654-5.686 15.501-11.731 24.745-15.462 6.494-2.627 10.403-6.238 11.532-10.447 3.419-12.955 8.754-25.82 6.807-39.342-1.011-6.969-2.006-13.954-2.972-20.894-.714-4.881 4.874-4 6.91-3.149 5.826 2.432 9.512 6.238 8.338 11.939-.402 1.956 1.025 4.135 1.605 6.209 1.625-1.441 3.332-2.786 5.112-4.03 1.798-1.134 5.439-2.985 5.737-2.716 3.121 2.597 7.326 5.313 8.129 8.462 1.338 5.164.282 10.687.431 16.059 0 .985.951 1.956 1.486 2.985.505-1 .936-2.014 1.486-2.985 2.675-4.477 6.064-8.88 7.966-13.581 5.945-14.611 19.603-25.939 27.895-39.536 7.847-12.88 16.348-25.536 24.359-38.341.594-.94-.357-2.418.163-3.403 1.679-3.239 6.257-8.343 5.157-9.179-4.949-3.701-10.537.299-15.917 1.135-8.753 1.343-16.6 4.925-26.156 4.85-6.197 0-4.548-4.089-7.52-5.388 1.679-1.373 3.269-2.82 5.083-4.089 1.141-.682 2.364-1.214 3.641-1.582 2.556-.866 5.171-1.642 7.757-2.463-2.571-3.268-4.131-7.999-7.906-9.551-14.624-5.97-16.764-15.627-15.322-26.581.252-1.955 2.184-4.97 4.057-5.328 2.705-.523 7.252.164 8.917 1.686 6.138 5.552 11.295 11.746 17.091 17.522 2.603 2.218 5.348 4.262 8.218 6.119 1.135 2.009 2.061 4.129 2.764 6.328 1.264-.328 3.508-.493 3.642-1.015.951-3.403 1.486-6.88-5.648-5.97m-440.186 422.846 2.793.165c-1.192-.463-2.182-1.336-2.793-2.463-.268-.985-.55-1.9551-.818-2.9849l-1.976.4627c1.179 1.4316 2.123 3.0442 2.794 4.7762m60.308 20.775c.282.985.55 1.955.817 2.985l1.977-.463c-1.18-1.431-2.123-3.044-2.794-4.776-1.011-7.686-1.843-15.372-3.18-23.0137-.208-1.1939-2.646-2.1789-4.058-3.2535-.609 1.179-2.021 2.5372-1.679 3.5222 2.779 8 5.945 15.94 8.917 25.044m131.169 61.042c-9.229 10.133-18.414 20.282-27.732 30.371-1.202 1.364-2.671 2.464-4.315 3.232s-3.429 1.188-5.242 1.232c-1.812.045-3.615-.286-5.295-.971-1.68-.686-3.201-1.713-4.468-3.015-15.412-15.641-36.694-27.685-48.092-45.804-1.064-.762-2.352-1.14-3.656-1.074-1.011.97-2.363 2.671-1.873 3.462 2.601 4.179 6.866 7.925 8.456 12.283 3.998 10.925 11.34 19.954 22.293 27.566 5.055 3.42 9.763 7.329 14.059 11.671 7.015 7.358 10.403 15.895 12.35 24.88.386 1.835 2.972 3.417 4.562 5.104 1.412-1.075 3.746-2.015 4.117-3.284 6.064-20.506 22.53-37.401 33.29-56.266 1.59-2.852 2.147-6.169 1.575-9.387m-177.938-96.787c-3.426-3.6231-7.032-7.0701-10.804-10.3279-1.308-1.0597-2.571-5.2386-6.079-1.8954-.607.7487-1.009 1.6441-1.166 2.5971-.156.953-.061 1.9305.275 2.8355 5.127 13.9546 15.798 25.7897 25.517 37.9537 2.831 3.551 6.051 6.77 9.601 9.596 5.008 3.955 11.889 4.478 15.218.985 3.329-3.492-1.486-5.522-3.418-7.895-9.095-10.955-18.399-21.805-29.144-33.849zm438.745-91.04061c-.995 3.8655-2.125 7.731-2.972 11.62635-.193.95518.669 2.02976 1.055 3.05956 1.48-.7365 2.867-1.6485 4.132-2.71632.728-.79101.535-2.08945.758-3.16403 2.021-9.26823 2.125-19.11855 6.643-27.61065 3.537-6.6117-1.249-7.7161-5.529-10.1787-1.962-.8178-4.011-1.4038-6.108-1.7461-.549 1.3508-.875 2.7824-.966 4.2386.862 8.0742 1.947 16.1186 2.972 26.49129m-156.79-59.89279c-.34.2899-.697.559-1.07.8059-14.668 8.5817-22.471 24.969-45.922 23.6408-.357 0-1.115 1.1641-1.189 1.8208-.075.6567.505 1.9402.773 1.9402 6.732-.0896 14.698 1.3581 19.929-.8955 8.754-3.776 17.299-9.119 22.857-15.3874 2.839-3.2088 13.093-6.5071 4.622-11.9397m-289.475 76.0861 1.056-.806c3.477-2.65659 8.53-4.86543 10.135-8.05932 3.879-7.76084-10.403-.4328-9.957-6.25342 0-.61192-1.07-1.22384-1.189-1.89545-.817-4.55203-5.425-2.82077-7.832-2.10438-2.809.8507-2.675 2.64168-2.036 5.65646678.921 4.34308322 4.31 9.25329322 1.025 14.16350322-.55.8209 2.244 2.985 3.478 4.4774 2.311-1.0566 4.19-2.8801 5.32-5.1639m241.234 112.8603c-4.101 1.597-8.263 3.119-12.261 4.851-1.055.447-1.634 1.492-2.437 2.358 1.301.409 2.641.679 3.998.806 2.37.122 4.745-.114 7.044-.702 11.682-4.099 23.274-8.353 34.777-12.76 2.006-.761 3.358-2.508 5.008-3.806-2.69-.209-5.751-1.164-8.025-.508-8.992 2.597-17.745 5.702-28.104 9.761zm-21.103-48.3707c0-2.6566.892-5.5819-.283-7.8952-.98-1.9551-4.354-3.2088-6.687-4.761-.684 1.9701-2.14 3.9849-1.932 5.9699.609 5.7908 2.274 11.507 2.749 17.2977.505 6.0595 0 12.1633.208 18.2383 0 1.403 1.293 2.791 1.977 4.194 1.322-1.493 3.715-2.985 3.789-4.478.357-8.7308.179-17.4767.179-28.521m-269.8874-56.5198c6.4648 0 12.9296.0747 19.3944 0 1.0849 0 2.8534-.8954 2.9723-1.582.1189-.6865-.7133-2.761-1.3226-2.8058-12.4838-.9403-24.9973-1.7611-37.5257-2.3283-1.4861-.0746-3.3587 1.2537-4.6368 2.2537-.4561.3156-.824.7433-1.0685 1.2424-.2446.499-.3577 1.0527-.3285 1.6082.1932.7015 1.932 1.582 2.9723 1.6118 5.4543.1642 10.9382 0 19.4242 0m58.8073-40.2966c5.068-8.1489 2.497-16.8351 2.809-25.2974 0-1.0596-2.601-2.164-3.998-3.2386-.609 1.1641-1.828 2.3581-1.739 3.4923.654 8.522-1.486 16.5963-5.246 24.6109-1.174 2.5222-3.983 6.5967 2.125 8.1787.476.1343 2.973-4.2834 6.049-7.7459zm2.972 175.0664c10.651-4.219 21.312-8.437 31.983-12.656 1.296-.405 2.616-.729 3.953-.97-1.014-.583-2.105-1.02-3.24-1.299-15.188-1.641-26.974 3.448-37.035 11.433-3.463 2.731-2.735 4.746 4.339 3.492zm232.347-409.996c1.182-2.237 2.138-4.587 2.854-7.015.193-1-1.249-2.388-2.408-3.238-1.234.007-2.426.456-3.359 1.268-4.191 6.627-8.278 13.283-12.008 20.074-.535.955.951 2.582 1.486 3.895 1.487-.641 3.389-1 4.266-1.94 3.679-3.864 6.76-8.261 9.14-13.044m-40.677 339.7606c.506 5.8952.951 11.7905 1.561 17.6854.293 1.06.749 2.067 1.352 2.985.535-.925 1.486-1.835 1.486-2.761.119-10.2232.149-20.4466 0-30.67 0-1.1194-1.486-2.2387-2.333-3.3581-1.204.8358-3.344 1.6119-3.433 2.4924-.428 4.5921.031 9.224 1.352 13.6412m177.909 85.2205c-6.331.223-12.216 1.298-16.586 5.193 5.469.567 10.939 1.194 16.422 1.687 1.967.344 3.978.344 5.945 0 3.582-.985 6.955-2.448 10.403-3.702-3.314-.268-6.673-.373-9.898-.91-1.233-.209-2.154-1.492-6.241-2.209m21.103-140.5008-10.15 3.1491c.46.4776.966 1.4029 1.382 1.388 3.314-.1642 6.613-.4925 9.912-.8358.387 0 .758-.4776 1.041-.7761 5.276-5.7012 8.426-1.2388 12.558 1.2089 2.452 1.4925.416 7.1639 6.806 4.2834-1.183-2.4364-2.682-4.7048-4.458-6.746-1.635-1.8357-4.459-2.9849-6.123-4.8953-6.227-7.1041-6.569.806-10.998 3.2238m-188.46-116.3977c-2.11-8.4474-8.635-16.2525-6.153-25.3715.104-.403-1.293-1.06-2.006-1.582l-2.096-1.612c-.609.791-1.619 1.492-1.738 2.388-1.487 10.208 3.046 19.1032 11.993 26.1775zm-155.304 84.07079c4.146-2.40288 8.308-4.76097 12.395-7.22355.371-.23879.416-1.40294.178-1.49244-.788-.3284-2.11-.7313-2.631-.4478-8.441 4.56698-16.813 9.2036-25.116 13.90985-.475.26865-.46 1.02981-.683 1.49247.876.19402 2.05.77609 2.6.53729 3.983-1.80589 7.847-3.77596 13.257-6.85045m185.458-70.25046c.743 1.9103 1.486 3.8356 2.244 5.7609 1.264-.403 3.523-.6716 3.641-1.2089 1.249-5.6863 2.289-11.4174 2.973-17.1634 0-.7015-2.289-1.4925-3.522-2.3581-.788.7611-1.962 1.4924-2.259 2.2984-1.387 4.128-2.421 8.367-3.092 12.6711m-263.838 199.2898c4.012.313 6.554-2.135 3.73-3.612-5.157-2.717-11.6663-4.03-17.8339-5.448-1.4861-.343-3.6708 1.239-5.5285 1.94 1.5351 1.098 3.1907 2.014 4.9341 2.732 4.295 1.253 8.7683 2.179 14.6683 4.388m407.09-128.99454c.698.53728 1.382 1.104403 2.125 1.611842 1.382.940258 2.809 1.835758 4.221 2.746158.401-1.38799 1.709-3.178971 1.025-4.11923-2.693-3.9273-5.835-7.52383-9.363-10.71593-1.738-1.4925-5.35-1.7312-8.114-2.5372 1.1 1.8507 2.066 3.7461 3.359 5.50722 2.054 2.6579 4.31 5.15274 6.747 7.46234m-390.475-242.92966c2.007-3.895 4.147-7.76 5.945-11.73.106-.542.048-1.103-.166-1.611-.215-.508-.576-.94-1.038-1.24-1.243-.369-2.575-.301-3.775.194-2.392 5.612-4.458 11.298-6.672 16.969 1.988-.641 3.901-1.497 5.706-2.552m182.442 14.925c-2.973.761-6.049 1.492-9.066 2.313-2.66.687-7.921-1.955-7.133 2.746.163.881 5.766 2.12 8.382 1.657 4.77-.851 9.199-2.85 13.776-4.373-.981-.776-1.961-1.567-5.944-2.343m55.761 229.198496c.683 5.621634 1.357 11.248304 2.021 16.879804.327-5.6116.668-11.22335.995-16.835032.09-.758518.09-1.524958 0-2.283478-.624-3.35805-1.322-6.70118-1.991-10.04429-.342 3.32819-.669 6.65639-1.011 12.282996m202.119 27.640504c.106-2.6764.071-5.3567-.104-8.0295-.09-.8208-1.487-1.4924-2.245-2.3282-1.233.8059-3.611 1.7462-3.492 2.4327.762 4.3169 1.855 8.5682 3.269 12.7158.179.5373 2.512.6567 3.835.9701.214-2.0071-.23-4.0296-1.263-5.7609zm-484.0735-44.9084c-.6985-.5373-1.3375-1.4178-2.1104-1.4925-.4434.0153-.8784.1257-1.2757.324-.3974.1982-.7478.4796-1.0278.8253-.1181.3472-.1242.723-.0174 1.074.1067.351.3208.6593.6119.8811 4.5625 2.5372-.3567 10.86517 10.1504 9.68612-1.7689-3.94412-3.8878-7.72042-6.331-11.28302m284.9565 72.5339c.082-1.1427.082-2.2899 0-3.4326-.208-1.4925-.668-2.8507-1.01-4.2685-.714 1.0746-1.085 2.4178-2.17 3.164-5.469 3.7909-1.709 8.6414-2.734 12.9248-.134.5522.817 1.2388 1.263 1.8656.654-.826 1.199-1.7341 1.62-2.7014.633-2.6585 1.666-5.2048 3.061-7.5519m-25.636 81.7725c.374-.225.718-.496 1.025-.806.134-.194 0-.731-.104-.761-4.354-1.015-8.694-2.657-13.093-2.731-3.329-.075-6.732 1.85-10.121 2.895 2.973.478 5.945 1.134 8.917 1.343 3.419.239 6.896 0 13.376 0m-235.2301-124.3224c1.5901.8954 3.2841 3.761 4.9931.582.907-1.7014.164-4.14906-.683-5.96987-.312-.73131-3.7007-1.56709-4.4587-1.11935-2.1995 1.29845-6.331 2.86557.1338 6.56692m450.8129-47.2218c-.323-.3096-.688-.571-1.085-.7761-.253-.1044-.951.0001-.996.1045-1.486 3.6715-2.526 7.343 2.423 10.0891.679.2016 1.388.2824 2.095.2388-.23-3.3394-1.055-6.6101-2.437-9.6563zm2.972-131.3375c-2.358.172-4.69.603-6.955 1.284-1.13.477-1.278 2.283-1.858 3.492 1.308.328 3.151 1.239 3.834.881 1.195-.515 2.261-1.29 3.122-2.268s1.495-2.135 1.857-3.389zm-195.95 200.3792.98 7.6563c.684-2.5521 1.487-5.0893 1.992-7.6414.282-1.1166.282-2.2863 0-3.4029-.535-1.4773-1.186-2.9096-1.947-4.2833-.493 2.5339-.83 5.0958-1.011 7.6713m-31.67-263.7342c3.849.119 6.079-.478 1.903-3.089-2.973-1.851-6.198-3.403-9.304-5.075 1.962 2.328 3.924 4.672 7.431 8.164m128.152 91.041c.609-1.836 1.204-3.687 1.798-5.538-2.408.926-5.737 1.388-7.029 2.896-2.274 2.612-.327 4.104 5.231 2.642zm-271.418 248.705c.874 2.298 1.866 4.55 2.972 6.746.178.343 1.917.194 2.972.268-1.486-2.731 4.147-7.671-5.944-7.014zm310.608 85.22 7.936.85c0-.522.416-1.298.104-1.492-2.259-1.627-4.161-4.627-8.04.686m-13.554-342.088 4.057-.806c-.416-.493-.787-1.388-1.263-1.493-1.976-.214-3.969-.214-5.945 0-1.28.37-2.502.923-3.626 1.642 2.166.847 4.528 1.054 6.807.597m58.792-171.634c.127-.716.127-1.448 0-2.164-.37-1.304-1.042-2.5-1.961-3.493-1.201-.098-2.404.173-3.448.777-.074 1.313.287 2.614 1.025 3.701.595.925 1.917 1.492 4.459 1.179m-208.063 36.849c-.135 1.123-.105 2.259.089 3.373.223.746 1.248 1.358 1.902 2.015.524-.383.909-.928 1.096-1.551s.166-1.291-.059-1.901c-.226-.61-.643-1.129-1.19-1.479-.547-.349-1.192-.51-1.838-.457zm2.972 34.551c-.319-.297-.673-.552-1.055-.762-.32-.092-.66-.092-.981 0-.452 2.13-.745 4.29-.877 6.463 0 .627 1.278 1.254 1.962 1.88.312-1.029.713-2.044.922-3.074.095-1.521.095-3.046 0-4.567m25.636 210.7664c.022-1.5344-.037-3.0689-.178-4.5968-.891-.0597-1.785-.0597-2.676 0-.178 1.4924-.148 2.9849 2.854 4.5968zm-27.197 149.8736c-.505 2.403-1.115 4.806-1.486 7.224-.074.567.773 1.194 1.189 1.791.579-.791 1.56-1.493 1.679-2.373.257-2.319-.266-4.657-1.486-6.642m162.824 46.058-4.013.761h11.043c-2.321-.433-4.671-.688-7.03-.761zm-14.936-315.553c0-1.492 0-3.074-.163-4.597-.895-.074-1.795-.074-2.69 0-.179 1.493-.149 2.985 2.853 4.597zm-381.4831 137.0236c.3169.314.6773.5804 1.07.791.2527.1045.6837 0 1.0404-.1045-.8026-1.8357-1.4862-3.7013-2.4968-5.4923-.1338-.2537-1.3375-.1791-2.036-.2537.3791 1.8615 1.2114 3.5997 2.4224 5.0595zm455.3311 6.9101c-.127.7158-.127 1.4483 0 2.16409.501 1.1678 1.071 2.30414 1.709 3.40283.431-.94026 1.248-1.92529 1.159-2.85062-.039-.75493-.373-1.464-.929-1.9728-.557-.5087-1.291-.776-2.043-.7435m25.74-291.3597-3.998.746c.745.579 1.546 1.079 2.393 1.493 1.486-.896 6.465 2.402 1.605-2.224m-470.415 396.1757c.6-1.6181 1.096-3.2732 1.486-4.955.089-.5373-.758-1.179-1.174-1.7611-.691.6695-1.264 1.4517-1.694 2.3134-.298 1.0447 0 2.164 1.486 4.4027m378.332-263.7487 2.973-1.15c-1.011-.373-2.007-.761-2.973 1.15zm-126.651 193.4833c-.267-.9701-.535-1.9402-.787-2.9849-.654.1343-1.888.3581-1.873.4029.312 1.2238.743 2.4477 2.66 2.5074m-28.638-282.0767-1.219 1.373c.907 0 1.814-.149 1.219-1.373zm248.843-56.445-1.813-.911c.104.687.208 1.373 1.813.911zm24.121-4.597 1.813.925c-.179-.686-.268-1.388-1.888-.925z"/><path d="m1158.22 8.62423c-1.01-1.59694-2.97-3.20881-2.88-4.80575.37-14.28288-1.99-28.67038 2.83-42.81898 2.42-7.1041 5.87-9.9846 12.52-9.9995 5.32 0 8.92 1.7462 8.5 5.8206-1.14 10.8055 3.47 21.9244-2.82 32.4612-.39.6418-.1 1.4925 0 2.28351.41 5.63158.83 11.25819 1.26 16.87983 3.2-4.62666 6.57-9.193614 9.56-13.89489 6.51-10.20845 12.69-20.55135 19.32-30.74485.69-1.0484 1.61-1.9318 2.68-2.5883s2.27-1.0704 3.51-1.2125c1.25-.1422 2.51-.0093 3.7.3895 1.19.3987 2.28 1.0536 3.19 1.9188.74.7462-.33 2.8059-1.03 4.1043-6.1 11.5069-12.35 22.9691-18.48 34.461114-.39.986476-.65 2.020406-.76 3.074486 1.32-.32834 3.25-.32834 3.89-1.0298 4.28-4.74605 8.56-9.52195 12.29-14.5217 2.51-3.373 3.57-7.4624 6.35-10.6115 1.48-1.7014 6.6-3.6416 7.65-2.9849 2.83 1.6417 9.29 1.179 7.33 6.5818-3.76 10.44725-5.84 21.14826-10.49 31.3418-2.07 4.4774-2.23 5.1789 3.73 5.2386 4.57 0 5.06 2.3581 2.23 4.2535-3.32 2.2353-7.01 3.8484-10.9 4.761-5.98 1.5048-12.13 2.2667-18.29 2.2686-10.32-.3284-16.71 1.4178-14.7 10.5816-11.41 18.2827-20.81 37.3117-34.91 54.6392-13.39 16.223-24.58 33.581-36.47 50.55-.69.985.1 2.582.22 3.895 1.67-.649 3.26-1.485 4.74-2.492 7.34-6.477 14.86-12.88 21.6-19.671 3.44-3.433 7.95-3.686 11.96-2.746 3.67.866 8.52 2.507 3.7 7.298-5.69 5.686-10.09 12.119-15.1 18.208-1.41 1.391-2.71 2.887-3.89 4.478-.54.925 0 2.223.13 3.343 1.45-.349 2.87-.803 4.25-1.358 11.13-5.448 18.46-5.179 25.8 1.492.68.704 1.15 1.583 1.36 2.54.21.956.15 1.953-.17 2.878-3.08 6.776-9.66 11.074-18.98 11.402-10.3.373-18.62 2.821-25.55 8.776-3.1 2.672-7.62 4.373-11.38 6.642-.86.678-1.6 1.489-2.2 2.402.83.366 1.7.607 2.6.717 4.88-.209 10.41.492 14.46-1.045 8.19-3.119 13.38 1.119 19.62 3.134 1.01.329 2.2 2.224 1.83 2.672-1.04 1.15-2.45 1.896-3.99 2.104-12.12.911-24.26 1.985-36.44 2.254-7.43.164-10.8 1.88-10.74 7.835.16 18.805 4.98 36.909 13.66 54.431 5.24 10.611 11.04 21.073 16.57 31.61.52.985.99 1.985 1.48 2.985.52-.985 1.49-1.985 1.49-2.985-.45-5.224-1.01-10.223 9.41-8.82.49.074 1.48-3.567 2.82-5.164 1.9-2.194 4-5.194 6.79-5.821 3.18-.716 7.54 5.865 6.75 8.955-.74 2.863-1.23 5.784-1.49 8.731 0 .85 1.04 1.746 1.61 2.627.43-1.015.96-2 1.31-2.985.68-2.105 1.08-4.254 1.93-6.314.85-2.059 2.24-4.477 3.37-6.641 3.76 1.337 7.45 2.866 11.06 4.582 2.02 1.089 3.22 3.059 4.8 4.641.87-2.204 1.86-4.357 2.97-6.447.98-1.627 2.1-3.612 3.91-4.477 2.23-.734 4.63-.796 6.9-.18.9.254 1.26 2.687 1.08 4.06-.24 1.731-1.48 3.373-1.93 5.104-1.49 5.716-2.57 11.462-4.03 17.164-.8 3.179-2.29 6.253-2.97 9.432-2.17 10.865-4.1 21.745-6.03 32.64-.12.627.52 1.343.8 2.015.71-.597 1.84-1.104 2.09-1.791 5.5-14.79 24.99-20.059 36.22-30.939 2.07-1.7 4.56-2.79 7.21-3.149 2.13-.156 4.24.475 5.94 1.776 1.04.985.78 3.119.32 4.597-.3.955-2.03 1.642-3.05 2.477-13.52 11.075-27.01 22.169-40.47 33.283-.83.948-1.49 2.04-1.93 3.223 1.72-.388 3.51-.641 5.14-1.179 8.92-2.985 17.84-5.97 26.84-8.955 2.14-.686 4.94-1.582 6.81-1.059 4.67 1.499 9.26 3.233 13.76 5.194-3.55 2.059-6.72 4.91-10.72 5.969-10.09 2.776-20.55 4.761-30.85 7.075-2.26.304-4.49.849-6.64 1.627-13.58 6.447-14.02 7.462-8.29 22.715 5.09 13.611 4.16 26.7-3.14 39.864-9.44 16.984-21.42 32.506-39.26 45.162-1.06.746-1.98 1.612-2.98 2.433 1.8.447 3.63.786 5.47 1.014 2.5.18 5.09-.238 7.52.12 3.16.505 6.27 1.259 9.31 2.253.07 1.11-.28 2.206-.97 3.075-2.82 2.761-6.05 4.746-11.31 3.567s-23.87.642-28.03 2.597c-1.2.77-2.28 1.716-3.21 2.806 1.47.763 3.03 1.33 4.64 1.686 9.11.896 18.47.911 27.33 2.552 10.15 1.896 14.24 5.761 13.11 10.343-.33.835-.85 1.58-1.52 2.174s-1.47 1.02-2.33 1.244c-3.94.448-8.62 1.149-11.89 0-13.99-4.955-27.59-1.134-41.32.209-.88.177-1.73.463-2.54.851.83.82 1.49 2.014 2.54 2.388 8.5 2.835 17.18 5.387 25.65 8.298 4.61 1.607 9.11 3.506 13.48 5.686 1.49.731 4.98 1.895 1.09 4.03-1.96 1.074-3.2 3.537-5.17 3.835-2.78.344-5.59-.128-8.1-1.358-6.51-3.552-13.77-2.865-21-3.104-4.46-.149-6.68.776-5.81 4.358.99 4.119-1.28 4.955-6.51 5.059-14.33.299-25.49-5.208-36.09-11.238-2.29-1.313-1.3-5.97-1.84-9.089 3.08.462 6.18.821 9.21 1.403 1.79.343 3.41 1.298 5.19 1.492.85.09 2.74-.895 2.77-1.492.22-4.224-4.86-8.821-10.73-8.746-5.67.025-11.31.787-16.78 2.268-20.44 5.866-40.41 12.657-60.936 18.179-22.876 6-44.66 15.601-64.544 28.446-7.565 4.925-14.104 10.761-21.267 16.044-3.181 2.343-5.172 4-1.026 7.343 4.771 3.836 6.391 9.821 16.601 8.492 4.859-.641 5.617 2.791 1.278 5.97-1.085.791-2.066 2.269-3.21 2.343-19.32 1.164-37.749 9.836-57.961 3.149-5.097-1.686-11.25-1.388-16.66-2.671-3.269-.761-6.033-2.791-9.035-4.239 2.065-2.044 3.7-4.477 6.256-6.044 14.297-8.656 14.223-8.656 6.941-22.193-4.857-9.562-12.273-17.573-21.416-23.133-13.465-8.09-19.9-19.238-25.131-31.238-3.237-7.241-7.382-14.037-12.335-20.223-3.537-4.477-2.972-8.343-.922-12.551.937-1.896 6.926-2.881 1.487-5.717-2.824-1.492-3.701-3.805-9.556-2.522-21.089 4.582-39.369 13-57.738 21.551-4.8 2.224-9.705 4.329-14.535 6.522-1.661.914-3.573 1.262-5.448.993-1.876-.269-3.614-1.141-4.955-2.485-3.819-3.343.357-4.806 2.616-6.343 5.053-3.448 10.656-6.403 15.694-9.865 7.223-4.955 10.864-13.059 22.069-14.477-.921-1.269-1.56-3.448-2.823-3.672-9.631-1.791-19.32-3.238-29.114-4.746-10.21-1.492-20.554-2.761-30.63-4.746-5.321-1.044-9.125-3.895-9.437-8.79-.312-4.896 3.537-5.702 7.995-7.851 11.682-5.611 22.189-5.552 33.201.567 1.813 1 4.711.881 7.104 1.269-.327-1.806.208-4.209-1.115-5.328-8.634-7.224-11.205-16.417-14.861-25.372-4.786-11.641 5.231-20.79 21.193-18.925 6.375.747 6.851-.656 4.042-4.88-3.582-5.358-5.945-11.149-8.917-16.76-.505-1-.58-2.985-1.1-2.985-13.494-1.403-9.586-5.627-3.24-10.552.283-.224-1.486-2.881-2.467-2.985-3.692-.487-7.429-.527-11.131-.119-18.293 2.735-36.912 2.392-55.092-1.015-3.166-.597-7.877-2.791-8.129-4.478-.313-2.343 2.288-5.835 5.023-7.298 6.955-3.716 14.252-7.388 23.615-6.462 3.508.246 7.029.246 10.537 0 1.828-.258 3.636-.647 5.409-1.164-.557-1.358-1.217-2.67-1.976-3.926-4.459-6.253-10.507-11.507-13.673-18.745-3.7-8.462-1.486-16.417-2.036-24.566-.342-4.477 6.584-5.567 12.142-3.403 7.773 2.985 3.255 9.91 8.382 13.596 1.1.791 1.486 2.165 2.185 3.254.505-.976.86-2.022 1.055-3.104.104-4.612 0-9.209 0-13.821.361-11.106 2.042-22.129 5.008-32.834 3.077-12.119 3.745-25.566-1.337-38.252-.981-2.447-.625-5.223-.639-7.865 0-11.94.356-23.805-.134-35.685-.565-13.895-1.486-27.805-3.21-41.64-.342-2.851-3.612-6.492-6.926-7.97-16.273-7.238-23.778-18.178-26.082-32.0132-.996-6.6714-3.463-13.3129-5.454-19.9842-1.382-4.4774 1.754-11.3129 4.756-10.3279 3.875 1.4063 7.275 3.8847 9.808 7.1489 3.716 4.8804 6.242 10.313 9.214 15.477.771 1.4015 1.83 2.6224 3.107 3.5819 2.719 1.8506 4.711 2.0447 5.944-1.4029 3.849-9.925 8.531-19.6559 11.756-29.5957 1.055-3.1939 2.392-7.1788 5.692-6.537 3.775.7462 8.471 4.358 9.244 7.2683 1.486 5.5221.356 11.4472.505 17.2082 0 .8656 1.055 1.7312 1.635 2.5969.748-.4794 1.45-1.0291 2.095-1.6417 1.813-2.1044 4.578-4.1491 5.038-6.4326 1.486-7.1489 7.431-12.3129 11.444-18.3424 3.685-5.4625 8.917-7.2982 13.375-5.2087 3.552 1.6566 5.945 7.7608 5.157 11.3576-3.448 14.3277-7.951 28.5957-17.67 41.5205-2.973 4.0297-5.707 8.224-8.917 12.119-2.172 2.179-4.518 4.175-7.015 5.97-2.705-2.508-8.397-6.09-7.609-7.358 3.611-5.97-2.69-9.7609-3.537-14.5965-.966-5.4475-1.962-10.8801-2.972-16.3126-.317-1.0388-.746-2.0397-1.279-2.985-1.486.985-3.76 1.8208-4.101 2.985-1.487 5.3281-2.512 10.7457-3.597 16.1485-.223 1.1342.312 2.373-.089 3.4476-1.159 2.9849-2.601 6.0743-3.938 9.104-3.686-1.94-7.431-3.8505-11.057-5.8504-1.62-.8955-2.973-2.0746-4.578-2.985-2.407-1.2537-4.964-2.3432-7.431-3.5073 1.026 2.3432 1.487 4.9252 3.166 6.9997 7.52 9.776 11.042 11.671 31.209 19.671 2.661 1.03 6.316 2.522 3.285 6.999-2.363 3.493-.981 8.597-.714 12.955.164 2.866 2.274 5.776 1.873 8.537-1.947 13.208.802 26.357.282 39.565-.55 13.806-.446 27.641 0 41.446.223 6.985 1.888 13.955 2.869 20.895 1.025 7.358 1.842 14.745 3.061 22.073 1.858 11.283 3.968 22.537 5.945 33.805.261.697.616 1.355 1.055 1.955 1.129-.429 2.179-1.044 3.106-1.821.909-1.181 1.525-2.562 1.798-4.03 2.096-12.014 4.028-24.058 6.123-36.087.235-1.473.861-2.855 1.813-4 5.336-5.97 8.843-5.881 13.168.656 2.37 3.362 4.364 6.975 5.944 10.776 1.636 4.102 2.638 8.43 2.973 12.835.282 5.03-.193 9.582 8.307 11.298 1.932.388 4.058 4.478 3.656 6.537-1.337 7.119-2.273 14.641-6.152 21.014-4.711 7.791-12.336 14.522-18.444 21.835-1.055 1.254-.876 3.119-1.263 4.701 2.066-.567 4.86-.656 6.093-1.761 6.881-6.193 13.108-12.805 20.093-18.924 12.35-10.806 26.439-19.402 46.829-17.999 2.126.149 4.117 1.596 6.168 2.432-.966 1.358-1.486 3.134-2.972 4.015-14.342 8.656-28.832 17.178-43.337 25.685-1.486.851-3.686 1.09-4.83 2.105-7.906 7.014-16.972 11.94-29.857 11.94-2.749 0-7.03 1.925-7.832 3.701-.803 1.776 1.873 4.582 2.556 7.014 5.945 21.089 20.271 39.655 30.481 59.46.669 1.314 2.735 2.194 4.162 3.284.52-1.328 1.664-2.701 1.486-3.985-1.055-7.671-2.155-15.358-3.745-22.984-.877-4.224-4.132-8.433-3.641-12.447.282-2.388 5.35-5.149 9.05-6.358 2.973-.985 6.331-1.075 7.907 3.761 4.636 14.208 13.241 27.611 14.861 42.52.164 1.493 2.973 2.687 4.459 4.03.802-1.25 1.503-2.563 2.095-3.925 1.828-5.194 3.522-10.447 5.276-15.611 2.571-7.597 8.679-12.88 18.042-15.97 9.363-3.089 12.038-1.328 15.367 5.97 7.253 15.835-1.635 29.969-6.316 44.595-.771 2.093-1.767 4.095-2.972 5.97-1.353 2.268-2.274 5.015-4.563 6.522s-5.945 1.716-9.051 2.507c-.475-2.149-1.887-4.477-1.278-6.417 2.304-7.284 5.796-14.358 7.832-21.671 1.779-7.165 3.09-14.439 3.924-21.775.134-.94-1.784-2.045-2.735-3.075-1.055.971-2.601 1.806-3.076 2.896-3.166 7.462-6.569 14.924-8.917 22.491-1.798 5.672-1.947 11.642-3.255 17.432-.951 4.254-6.167 4.478-10.403 5.627-1.677.718-3.243 1.673-4.652 2.836 1.487.567 3.196 1.716 4.667 1.597 5.632-.448 6.807.985 7.817 5.462 1.635 7.328 10.002 11.776 17.968 15.253 13.866 6.045 28.415 10.522 44.704 4.806 1.962-.393 3.982-.393 5.944 0 2.973.343 5.945.955 8.917 1.492-2.422 1.851-4.458 4.105-7.431 5.448-2.933 1.304-6.083 2.043-9.288 2.179-7.015.328-14.074 0-21.104.149-3.329.075-6.643.672-9.972 1.045 2.081 1.627 4.206 3.209 6.212 4.895 9.978 8.338 19.925 16.706 29.843 25.103 4.101 3.478 8.188 5.642 13.524 1.254 13.464-11.119 27.033-22.148 40.438-33.312.998-1.124 1.738-2.453 2.17-3.895.165-.522.255-1.065.267-1.612-1.367 0-3.165-.448-3.968 0-.802.448-.386 2.358-1.248 2.985-5.127 3.388-9.972 7.388-15.917 9.552-3.76 1.373-9.288-.075-14.014-.239 3.076-2.403 5.588-5.865 9.333-7 11.057-3.343 11.77-12.939 19.796-17.984.104-.075-2.185-3.522-3.686-3.701-4.459-.523-9.051.074-13.524-.239-8.159-.567-16.348-1.209-24.344-2.433-2.214-.328-5.335-2.85-5.35-4.388-.015-1.537 3.463-4.477 5.172-4.402 8.664.492 11.503-2.254 13.598-8.582 1.279-3.836 7.892-7.06 15.144-3.642 1.695.791 4.637 0 7 0-.119-2.089.416-4.343-.46-6.208-3.642-7.672-7.892-15.164-11.563-22.82-3.284-6.851 2.839-15.761 11.607-16.328 2.274-.149 5.781 2.388 7.074 4.328s-.252 4.582.387 6.776c1.117 3.123 2.458 6.161 4.012 9.089.625-3.059 1.962-6.149 1.724-9.164-.544-4.37-1.504-8.678-2.868-12.865-3.27-11.671 4.949-21.909 20.658-23.506 8.159-.821 9.258-3.478 9.719-8.776.862-10.044-3.611-20.417 2.809-30.148-6.064-10.925-1.902-22.387-2.868-33.595-.268-2.985-1.397-4.269-5.172-3.701-7.431 1.089-14.743 2.79-22.293 3.372-7.053.758-14.173.622-21.192-.402-7.52-1.388-8.471-6.373-2.036-9.09 6.458-2.47 13.144-4.294 19.959-5.447 5.945-1.194 12.186-1.672 18.324-2.373 4.652-.522 4.459-2.313 2.051-4.478-10.225-9.462-17.834-20.625-30.912-28.222-8.01-4.657-16.125-9.209-24.106-13.895-1.284-.935-2.456-2.017-3.492-3.224 1.947-1.044 3.73-2.761 5.855-2.985 13.45-1.791 23.586 4.299 34.182 8.955 2.096.925 3.448 2.806 5.44 3.94 1.296.418 2.65.629 4.012.627.178-1.313 1.04-2.865.446-3.91-6.589-11.343-13.321-22.646-20.197-33.909-4.458-7.194-4.102-9.671 2.422-13.432 4.459-2.597 15.694-1.896 20.45.85 9.244 5.358 8.456 14.253 13.257 21.179.695 1.254 1.239 2.586 1.62 3.969 1.538-1.383 3.001-2.847 4.384-4.387.446-.553.223-1.493 0-2.269-3.998-16.417-8.189-32.745-11.89-49.162-1.486-6.537-1.828-13.208-3.15-19.76-2.839-14.044-6.569-27.999-8.665-42.088-.713-4.88-3.596-4.985-7.43-4.253-5.822.982-11.535 2.526-17.062 4.611-9.437 3.851-19.32 2.015-28.98 1.881-3.418 0-6.747-3.701-10.12-5.701 2.415-1.951 4.93-3.775 7.534-5.463 10.062-5.9696 22.531-6.7457 34.182-9.1635 4.459-.9253 4.741-2.4775 2.096-4.4774-8.917-6.9101-15.263-14.7754-17.047-24.5959-.579-3.1939-2.214-6.3131-2.556-9.507-.461-4.1939.089-8.4474-.193-12.6562-.149-2.1342-6.524-4.8356-.981-5.9698 4.176-.9104 11.057-3.179 14.252 3.6267 3.433 7.3131 9.333 13.9247 13.822 20.8945.713 1.1194-.327 2.8805-.55 4.3431l-4.265-1.9999-3.196-1.4925c-.252 1.0448-1.174 2.4029-.639 3.0745 3.671 4.567 7.624 9.0444 11.607 13.5218.401.4627 1.382.6418 2.081.9552.356-.6567 1.01-1.3134 1.01-1.9701.09-5.7609-.728-11.5965.238-17.2529 1.411-8.6805 3.61-17.2132 6.569-25.4914.758-2.0894 1.338-6.537 8.516-5.8654 2.257.1771 4.453.8231 6.448 1.897s3.747 2.5523 5.144 4.3415c3.284 3.6715-2.081 19.0439-6.911 24.0437-1.021 1.0448-1.655 2.4087-1.798 3.8655-.193 5.3729-.238 10.7458 0 16.1187 0 1.0298 1.843 2.0148 2.824 2.9849 1.101-.8768 2.099-1.8784 2.972-2.9849 3.849-6.0744 7.847-12.104 11.206-18.3425 2.496-4.6565 7.341-6.6415 12.929-6.1639 6.287.5373 11.31 4.1491 11.889 8.9548 1.1 9.3578 1.397 18.7007-10.239 25.5362-8.813 5.1789-14.862 12.9695-25.919 16.2532-1.754.507-3.418 4.641-2.571 6.373 7.03 14.372 5.752 29.64 8.917 44.401 3.597 16.82 8.352 33.506 11.756 50.355 1.293 6.373.208 13.03-.55 20.134-2.259-4.313-4.756-9.149-5.098-14.089-1.218-18.014-5.944-35.625-8.917-53.43-2.779-16.313-5.38-32.626-9.392-48.789-.268-1.075-1.992-1.94-2.973-2.896-.743 1.329-2.467 2.896-2.051 3.955 6.807 17.209 9.185 34.939 11.236 52.714.847 7.358.832 14.925 3.255 21.97 3.977 10.801 5.946 22.244 5.81 33.759-.208 6.881-.148 13.791 0 20.671.294 1.744.819 3.44 1.561 5.044 1.486-1.835 3.582-3.537 4.265-5.537 1.265-4.212 2.317-8.486 3.151-12.805 2.972-1.075 5.944-2.06 8.768-3.268 8.323-3.597 13.896-1.344 15.441 5.671 3.315 14.925-1.798 29.028-6.94 43.132-.354.836-.751 1.653-1.189 2.448 1.353 0 3.181.418 3.998-.09 7.52-4.776 14.668-9.91 22.29-14.506 3.9-2.155 8.05-3.795 12.37-4.881 5.33-1.492 11.37 1.687 11.49 5.821.32 11.746-6.11 20.7-18.27 27.999-9.47 5.947-19.835 10.335-30.689 12.999-4.458 1.045-12.617.194-13.509 1.91-2.081 3.97-.803 8.955-.803 13.567 0 12.268-.327 24.551.104 36.834.253 7.567-1.694 14.925-.609 22.7 1.174 8.328-1.04 17.029-2.69 25.462-1.115 5.612-4.072 10.999-5.737 16.551-.49 1.672.58 3.597.937 5.403 2.422-.851 6.138-1.224 7.059-2.656 5.246-8.045 13.494-13.194 24.388-15.985 2.354-.611 4.824-.611 7.178 0 5.161 1.702 0 3.627-.713 4.985-2.2 4.283-4.459 8.955-8.352 12.253-8.308 7.119-17.671 13.522-26.588 20.223-1.486 1.06-2.69 2.224-4.042 3.343 2.036 0 4.458.582 6.063 0 17.349-6.671 35.963-9.349 54.483-7.835 1.99.134 5.14 1 5.5 2 .23.904.2 1.857-.1 2.741-.31.883-.86 1.659-1.6 2.229-4.45 2.597-9.52 4.552-14.35 6.776-2.81 1.298-6.08 2.268-8.32 3.999-12.473 9.642-12.399 9.642-26.101 12.209-1.353.253-2.348 1.656-3.508 2.537 1.487.657 2.854 1.866 4.31 1.895 9.036.179 18.102-.134 27.109.239 2.51.09 4.9 1.94 7.36 2.985-2.06 1.254-3.85 3.089-6.19 3.672-12.317 3.074-23.642 6.387-37.597.716-8.218-3.343-20.806-1.284-31.209-.269-4.043.388-7.431 4.478-11.087 7.045-.312.209 0 1.492.223 1.492 1.407.394 2.884.47 4.324.224 4.563-1.895 6.733-2.612 6.748 2.91 0 12.448-7.728 22.955-13.762 33.715-10.047 17.91-21.787 35.312-32.696 52.983-.832 1.358-.55 3.134-.773 4.716 2.066-.686 4.92-.925 6.094-2.119 27.538-28.357 65.792-44.207 108.485-55.416 16.22-4.253 31.66-10.178 47.56-15.103 4-1.254 6.79-2.373 5.57-6.194-1.21-3.821-1.48-7.97-3.19-11.656-3.36-6.985-7.65-13.701-11.24-20.611-.81-1.721-1.01-3.673-.55-5.522.42-1.836 1.91-3.523 2.98-5.269 2.97 1.09 8.44-2.731 9.21 2.985.18 1.314 3.06 2.418 4.7 3.612.56-1.753.92-3.566 1.05-5.403-.38-8.25 1.69-16.428 5.95-23.491 2.05-3.508 3.99-6.104 9.29-5.284 5.29.821 6.34 4.075 5.94 7.761-1.04 10.806-2.15 21.611-2.97 32.432-.14 1.895 1.48 3.865 2.2 5.805 2.68-.463 5.31-1.177 7.86-2.134 6.79-3.343 13.17-7.179 20.02-10.447 2.64-1.043 5.49-1.447 8.32-1.179 5.29.388 7.89 2.059 3.82 6.283-.66.684-1.12 1.537-1.33 2.466-.22.928-.17 1.897.13 2.802 2.39 4.478 5.79.105 7.87-.388 11.89-2.791 19.25-10.581 25.98-17.656 8.14-8.536 13.08-18.834 20.08-28.073 3.88-5.089 4.37-10.268 4.55-15.88.41-12.686 0-25.178-6.07-37.311-3.59-7.075-6.42-8.194-15.57-5.403-18.65 5.708-38.09 8.344-57.58 7.805-4.05-.119-5.57-.074-4.54-4.387 2.97-12.746 14.16-18.179 28.87-20.895 4.04-.746 3.75-1.492 1.12-3.06-7.15-4.402-13.91-9.253-21.58-13.059-18.34-9.104-24.29-24.864-12.77-37.864 6.91-7.79 18.55-8.178 24.82-.149 7.94 10.164 15.9 20.313 24.02 30.387 3.64 4.477.12 10.686 5.94 14.626l2.31 1.492c1.07-1.074 3.24-2.984 3.04-3.134-7.74-6.104-5.59-14.924-10.77-22.043-10.51-14.537-21.75-28.895-28.98-44.909-4.54-10.029-10.96-19.506-14.09-30.088-3.55-11.94-6.53-23.88-5.75-36.133.23-3.746.29-6.776-6.79-6.074-2.69-.015-5.29-.976-7.35-2.716-5.3-4.791-11.45-4.478-18.62-3.344-6.69 1.118-13.46 1.617-20.24 1.493-7.07-.164-10.17-5.642-5.19-9.343 7.66-5.686 15.5-11.731 24.75-15.462 6.49-2.627 10.4-6.238 11.53-10.447 3.42-12.955 8.75-25.82 6.81-39.342-1.01-6.969-2.01-13.954-2.97-20.894-.72-4.8806 4.87-4 6.91-3.149 5.82 2.432 9.51 6.238 8.33 11.939-.4 1.956 1.03 4.135 1.61 6.209 1.62-1.441 3.33-2.786 5.11-4.03 1.8-1.134 5.44-2.985 5.74-2.716 3.12 2.597 7.32 5.313 8.13 8.462 1.33 5.164.28 10.687.43 16.059 0 .985.95 1.956 1.48 2.985.51-1 .94-2.014 1.49-2.985 2.67-4.477 6.06-8.88 7.97-13.581 5.94-14.611 19.6-25.9392 27.89-39.5356 7.85-12.88 16.35-25.5361 24.36-38.3415.59-.9403-.36-2.4178.16-3.4028 1.68-3.2387 6.26-8.3429 5.16-9.1787-4.95-3.7013-10.54.2985-15.92 1.1343-8.75 1.3432-16.6 4.9251-26.15 4.8505-6.2 0-4.55-4.0894-7.52-5.3878 1.68-1.3731 3.27-2.8208 5.08-4.0894 1.14-.6819 2.36-1.2136 3.64-1.582 2.56-.8656 5.17-1.6417 7.76-2.4626-2.57-3.2685-4.13-7.9996-7.91-9.5518-14.62-5.96987-16.76-15.6261403-15.32-26.5809.25-1.9551 2.18-4.9699 4.06-5.3281 2.7-.5223 7.25.1642 8.91 1.6865 6.14 5.552 11.3 11.74575 17.09 17.5216 2.61 2.21845 5.35 4.26257 8.22 6.11912 1.14 2.00878 2.06 4.12928 2.77 6.32808 1.26-.3284 3.5-.4925 3.64-1.0149.95-3.4028 1.48-6.88027-5.65-5.96986m-440.186 422.84586 2.794.165c-1.192-.463-2.183-1.336-2.794-2.463-.267-.985-.55-1.955-.817-2.985l-1.977.463c1.18 1.431 2.123 3.044 2.794 4.776m60.309 20.775c.282.985.549 1.955.817 2.985l1.977-.463c-1.18-1.431-2.124-3.044-2.794-4.776-1.011-7.686-1.843-15.372-3.181-23.014-.208-1.194-2.645-2.179-4.057-3.253-.609 1.179-2.021 2.537-1.679 3.522 2.779 8 5.944 15.94 8.917 25.044m131.168 61.042c-9.229 10.133-18.413 20.282-27.732 30.371-1.202 1.364-2.671 2.464-4.315 3.232s-3.428 1.188-5.241 1.232c-1.813.045-3.615-.286-5.295-.971-1.68-.686-3.201-1.713-4.469-3.015-15.411-15.641-36.693-27.685-48.092-45.804-1.063-.762-2.351-1.14-3.656-1.074-1.01.97-2.363 2.671-1.872 3.462 2.6 4.179 6.866 7.925 8.456 12.283 3.998 10.925 11.339 19.954 22.292 27.566 5.055 3.42 9.764 7.329 14.059 11.671 7.015 7.358 10.404 15.895 12.35 24.88.387 1.835 2.973 3.417 4.563 5.104 1.412-1.075 3.745-2.015 4.117-3.284 6.063-20.506 22.53-37.401 33.29-56.266 1.59-2.852 2.147-6.169 1.575-9.387m-177.938-96.787c-3.426-3.623-7.032-7.07-10.805-10.328-1.308-1.06-2.571-5.238-6.078-1.895-.608.748-1.01 1.644-1.166 2.597s-.062 1.93.274 2.835c5.127 13.955 15.798 25.79 25.518 37.954 2.83 3.551 6.051 6.77 9.6 9.596 5.009 3.955 11.89 4.478 15.219.985 3.329-3.492-1.487-5.522-3.419-7.895-9.095-10.955-18.398-21.805-29.143-33.849zm438.747-91.041c-1 3.866-2.13 7.731-2.97 11.627-.2.955.66 2.029 1.05 3.059 1.48-.736 2.87-1.648 4.13-2.716.73-.791.54-2.089.76-3.164 2.02-9.268 2.13-19.119 6.64-27.611 3.54-6.611-1.25-7.716-5.53-10.178-1.96-.818-4.01-1.404-6.1-1.747-.55 1.351-.88 2.783-.97 4.239.86 8.074 1.95 16.119 2.97 26.491m-156.79-59.892c-.34.289-.69.559-1.07.806-14.666 8.581-22.468 24.969-45.92 23.64-.356 0-1.114 1.164-1.189 1.821-.074.657.506 1.94.773 1.94 6.732-.089 14.698 1.358 19.93-.895 8.753-3.776 17.296-9.119 22.856-15.388 2.84-3.208 13.09-6.507 4.62-11.939m-289.472 76.086 1.055-.806c3.478-2.657 8.531-4.866 10.136-8.06 3.879-7.76-10.403-.432-9.958-6.253 0-.612-1.07-1.224-1.189-1.895-.817-4.552-5.424-2.821-7.832-2.105-2.809.851-2.675 2.642-2.036 5.657.922 4.343 4.31 9.253 1.026 14.163-.55.821 2.244 2.985 3.477 4.478 2.312-1.057 4.191-2.88 5.321-5.164m241.234 112.86c-4.102 1.597-8.263 3.119-12.261 4.851-1.055.447-1.635 1.492-2.437 2.358 1.3.409 2.64.679 3.997.806 2.37.122 4.745-.114 7.045-.702 11.681-4.099 23.273-8.353 34.776-12.76 2.006-.761 3.359-2.508 5.008-3.806-2.689-.209-5.751-1.164-8.025-.508-8.991 2.597-17.745 5.702-28.103 9.761zm-21.104-48.371c0-2.656.892-5.582-.282-7.895-.981-1.955-4.354-3.209-6.688-4.761-.683 1.97-2.14 3.985-1.932 5.97.61 5.791 2.274 11.507 2.75 17.298.505 6.059 0 12.163.208 18.238 0 1.403 1.293 2.791 1.976 4.194 1.323-1.493 3.716-2.985 3.79-4.478.357-8.731.178-17.477.178-28.521m-269.887-56.52c6.465 0 12.93.075 19.395 0 1.084 0 2.853-.895 2.972-1.582.119-.686-.714-2.761-1.323-2.806-12.484-.94-24.997-1.761-37.525-2.328-1.487-.074-3.359 1.254-4.637 2.254-.456.315-.824.743-1.069 1.242-.244.499-.357 1.053-.328 1.608.193.702 1.932 1.582 2.972 1.612 5.454.164 10.938 0 19.424 0m58.808-40.296c5.068-8.149 2.496-16.835 2.809-25.298 0-1.059-2.601-2.164-3.998-3.238-.61 1.164-1.828 2.358-1.739 3.492.654 8.522-1.486 16.596-5.246 24.611-1.174 2.522-3.983 6.596 2.125 8.178.476.135 2.972-4.283 6.049-7.745zm2.972 175.066c10.651-4.219 21.312-8.437 31.982-12.656 1.297-.405 2.617-.729 3.953-.97-1.014-.583-2.104-1.02-3.239-1.299-15.189-1.641-26.974 3.448-37.036 11.433-3.462 2.731-2.734 4.746 4.34 3.492zm232.347-409.996c1.182-2.2366 2.138-4.5865 2.853-7.0146.193-.9999-1.248-2.3879-2.407-3.2386-1.235.0067-2.426.4567-3.359 1.2686-4.191 6.6265-8.278 13.2829-12.008 20.0737-.535.9551.951 2.5819 1.486 3.8953 1.486-.6418 3.388-.9999 4.265-1.9402 3.679-3.8646 6.76-8.2616 9.14-13.0442m-40.676 339.761c.505 5.895.951 11.79 1.56 17.685.294 1.06.75 2.067 1.353 2.985.535-.925 1.486-1.835 1.486-2.761.119-10.223.148-20.447 0-30.67 0-1.119-1.486-2.239-2.333-3.358-1.204.836-3.344 1.612-3.434 2.492-.427 4.592.032 9.224 1.353 13.642m177.912 85.22c-6.33.223-12.22 1.298-16.59 5.193 5.47.567 10.94 1.194 16.42 1.687 1.97.344 3.98.344 5.95 0 3.58-.985 6.95-2.448 10.4-3.702-3.31-.268-6.67-.373-9.9-.91-1.23-.209-2.15-1.492-6.24-2.209m21.1-140.501-10.15 3.149c.46.478.97 1.403 1.39 1.388 3.31-.164 6.61-.492 9.91-.835.39 0 .76-.478 1.04-.777 5.28-5.701 8.43-1.238 12.56 1.209 2.45 1.493.41 7.164 6.8 4.284-1.18-2.437-2.68-4.705-4.45-6.746-1.64-1.836-4.46-2.985-6.13-4.896-6.22-7.104-6.57.806-11 3.224m-188.455-116.397c-2.111-8.448-8.635-16.253-6.153-25.372.104-.403-1.293-1.06-2.007-1.582l-2.095-1.612c-.609.791-1.62 1.492-1.739 2.388-1.486 10.208 3.047 19.103 11.994 26.178zm-155.305 84.07c4.147-2.403 8.308-4.761 12.395-7.223.372-.239.416-1.403.178-1.493-.787-.328-2.11-.731-2.63-.447-8.442 4.566-16.814 9.203-25.116 13.909-.476.269-.461 1.03-.684 1.493.877.194 2.051.776 2.601.537 3.983-1.806 7.847-3.776 13.256-6.85m185.459-70.251c.743 1.911 1.486 3.836 2.244 5.761 1.263-.403 3.522-.672 3.641-1.209 1.248-5.686 2.289-11.417 2.972-17.163 0-.702-2.288-1.493-3.522-2.358-.788.761-1.962 1.492-2.259 2.298-1.386 4.128-2.42 8.367-3.091 12.671m-263.839 199.29c4.013.313 6.554-2.135 3.731-3.612-5.157-2.717-11.667-4.03-17.834-5.448-1.487-.343-3.671 1.239-5.529 1.94 1.535 1.098 3.191 2.014 4.934 2.732 4.295 1.253 8.769 2.179 14.669 4.388m407.094-128.995c.69.538 1.38 1.105 2.12 1.612 1.38.941 2.81 1.836 4.22 2.746.4-1.388 1.71-3.179 1.03-4.119-2.7-3.927-5.84-7.524-9.37-10.716-1.73-1.492-5.35-1.731-8.11-2.537 1.1 1.851 2.07 3.746 3.36 5.507 2.05 2.658 4.31 5.153 6.75 7.463m-390.479-242.9295c2.006-3.8954 4.146-7.7609 5.945-11.7308.106-.5416.048-1.1026-.167-1.6107-.215-.5082-.576-.94-1.037-1.2399-1.244-.3691-2.576-.3006-3.775.194-2.393 5.6117-4.459 11.298-6.673 16.9694 1.988-.6414 3.902-1.4971 5.707-2.5522m182.441 14.9247c-2.972.7612-6.048 1.4925-9.065 2.313-2.661.687-7.922-1.9548-7.134 2.746.164.881 5.766 2.12 8.382 1.657 4.771-.851 9.199-2.85 13.777-4.373-.981-.776-1.962-1.5669-5.945-2.343m55.761 229.198c.684 5.622 1.357 11.249 2.021 16.88.327-5.611.669-11.223.996-16.835.089-.758.089-1.525 0-2.283-.624-3.358-1.323-6.701-1.992-10.045-.341 3.329-.668 6.657-1.01 12.283m202.117 27.641c.11-2.676.07-5.357-.1-8.029-.09-.821-1.49-1.493-2.25-2.329-1.23.806-3.61 1.746-3.49 2.433.76 4.317 1.86 8.568 3.27 12.716.18.537 2.51.657 3.83.97.22-2.007-.23-4.03-1.26-5.761zm-484.072-44.908c-.698-.538-1.338-1.418-2.11-1.493-.444.015-.879.126-1.276.324s-.748.48-1.028.825c-.118.348-.124.723-.017 1.074.106.351.32.66.612.881 4.562 2.538-.357 10.866 10.15 9.687-1.769-3.945-3.888-7.721-6.331-11.283m284.957 72.534c.082-1.143.082-2.29 0-3.433-.208-1.493-.669-2.851-1.011-4.269-.713 1.075-1.085 2.418-2.169 3.164-5.47 3.791-1.71 8.642-2.735 12.925-.134.552.817 1.239 1.263 1.866.655-.826 1.199-1.734 1.62-2.702.634-2.658 1.666-5.204 3.062-7.551m-25.637 81.772c.374-.225.719-.496 1.026-.806.134-.194 0-.731-.104-.761-4.355-1.015-8.694-2.657-13.093-2.731-3.329-.075-6.733 1.85-10.121 2.895 2.972.478 5.945 1.134 8.917 1.343 3.418.239 6.896 0 13.375 0m-235.23-124.322c1.591.895 3.285 3.761 4.994.582.907-1.702.163-4.149-.684-5.97-.312-.732-3.7-1.567-4.458-1.12-2.2 1.299-6.331 2.866.134 6.567m450.816-47.221c-.33-.31-.69-.571-1.09-.777-.25-.104-.95 0-.99.105-1.49 3.671-2.53 7.343 2.42 10.089.68.202 1.39.282 2.09.239-.23-3.34-1.05-6.61-2.43-9.656zm2.97-131.338c-2.36.172-4.69.603-6.96 1.284-1.13.477-1.27 2.283-1.85 3.492 1.3.328 3.15 1.239 3.83.881 1.19-.515 2.26-1.29 3.12-2.268s1.5-2.135 1.86-3.389zm-195.952 200.379.981 7.657c.684-2.553 1.486-5.09 1.991-7.642.283-1.116.283-2.286 0-3.403-.535-1.477-1.186-2.909-1.947-4.283-.492 2.534-.83 5.096-1.01 7.671m-31.67-263.7341c3.849.1194 6.078-.4775 1.902-3.0894-2.972-1.8506-6.197-3.4028-9.303-5.0744 1.961 2.3283 3.923 4.6715 7.43 8.1638m128.148 91.0411c.61-1.836 1.21-3.687 1.8-5.538-2.41.926-5.73 1.388-7.03 2.896-2.27 2.612-.32 4.104 5.23 2.642zm-271.414 248.705c.875 2.298 1.867 4.55 2.973 6.746.178.343 1.917.194 2.972.268-1.486-2.731 4.146-7.671-5.945-7.014zm310.604 85.22 7.94.85c0-.522.42-1.298.1-1.492-2.25-1.627-4.16-4.627-8.04.686m-13.55-342.088 4.06-.806c-.42-.493-.79-1.388-1.27-1.493-1.97-.214-3.96-.214-5.94 0-1.28.37-2.5.923-3.63 1.642 2.17.847 4.53 1.054 6.81.597m58.79-171.63412c.13-.71574.13-1.44833 0-2.16408-.37-1.30336-1.04-2.50015-1.96-3.49238-1.2-.09822-2.4.17243-3.45.77609-.07 1.31354.29 2.61472 1.03 3.70132.59.92533 1.92 1.49247 4.46 1.17905m-208.066 36.84902c-.134 1.1227-.104 2.2591.09 3.373.223.7463 1.248 1.3582 1.902 2.0149.524-.3832.908-.9278 1.096-1.5509.187-.6231.166-1.2905-.06-1.9006-.225-.6101-.643-1.1295-1.19-1.4791-.546-.3495-1.192-.5101-1.838-.4573zm2.973 34.5507c-.319-.2964-.674-.5521-1.055-.7612-.321-.092-.661-.092-.981 0-.453 2.1292-.746 4.2894-.877 6.4624 0 .6269 1.278 1.2537 1.962 1.8805.312-1.0298.713-2.0446.921-3.0744.096-1.5208.096-3.0462 0-4.567m25.636 210.7661c.023-1.534-.037-3.068-.178-4.596-.891-.06-1.784-.06-2.675 0-.178 1.492-.149 2.985 2.853 4.596zm-27.196 149.874c-.506 2.403-1.115 4.806-1.487 7.224-.074.567.773 1.194 1.189 1.791.58-.791 1.561-1.493 1.68-2.373.257-2.319-.267-4.657-1.486-6.642m162.827 46.058-4.02.761h11.05c-2.32-.433-4.67-.688-7.03-.761zm-14.94-315.553c0-1.492 0-3.074-.16-4.597-.9-.074-1.8-.074-2.69 0-.18 1.493-.15 2.985 2.85 4.597zm-381.483 137.024c.317.314.678.58 1.07.791.253.104.684 0 1.041-.105-.803-1.836-1.486-3.701-2.497-5.492-.134-.254-1.338-.179-2.036-.254.379 1.862 1.211 3.6 2.422 5.06zm455.333 6.91c-.13.715-.13 1.448 0 2.164.5 1.168 1.07 2.304 1.71 3.403.43-.941 1.25-1.926 1.16-2.851-.04-.755-.38-1.464-.93-1.973-.56-.509-1.29-.776-2.05-.743m25.74-291.3601-3.99.7462c.74.5787 1.54 1.0789 2.39 1.4925 1.49-.8955 6.46 2.4029 1.6-2.2238m-470.411 396.1762c.6-1.618 1.097-3.273 1.486-4.955.09-.538-.758-1.179-1.174-1.761-.69.669-1.263 1.451-1.694 2.313-.297 1.045 0 2.164 1.486 4.403m378.337-263.749 2.97-1.15c-1.01-.373-2.01-.761-2.97 1.15zm-126.655 193.483c-.268-.97-.535-1.94-.788-2.985-.654.135-1.887.359-1.872.403.312 1.224.743 2.448 2.66 2.508m-28.638-282.077-1.219 1.3731c.906 0 1.813-.1493 1.219-1.3731zm248.843-56.4452-1.81-.9104c.1.6866.2 1.3731 1.81.9104zm24.12-4.59677 1.81.92533c-.18-.68654-.26-1.388-1.88-.92533z"/></g></g></svg>