<svg fill="none" height="425" viewBox="0 0 425 425" width="425" xmlns="http://www.w3.org/2000/svg" xmlns:xlink="http://www.w3.org/1999/xlink"><clipPath id="a"><path d="m0 0h390.44v390.44h-390.44z" transform="matrix(.99578127 -.09175867 .09175867 .99578127 0 35.8262)"/></clipPath><g clip-path="url(#a)"><path d="m409.764 242.166c-11.897-6.555-23.946-9.26-38.137-4.862-9.448 2.921-16.333 8.995-24.555 13.305-7.856 4.115-16.369 8.521-21.964 14.908-12.553 14.334-27.458 25.324-44.254 34.293-1.414.746-3.219.836-4.843 1.216.265-1.38.192-2.915.845-4.084 5.626-10.143 10.778-20.597 17.309-30.161 7.532-11.05 16.263-21.349 24.597-31.864 7.833-9.869 10.787-19.411 3.274-31.164-2.771-4.314-6.219-9.128-4.896-16.779 2.748-16.204 12.208-28.588 20.7-41.561 7.53-11.482 17.168-21.687 25.095-32.951 3.541-5.011 6.596-11.203 6.887-16.9632.139-2.3246-7.72-4.9139-11.896-7.3802-1.009-.616-1.84-1.6259-2.915-2.0431-5.973-2.1236-11.567-4.9755-18.578-3.8671-6.118.9721-12.288 1.7102-18.341 2.9615-9.258 1.9088-15.767 6.716-17.851 16.3711-.629 2.924-3.394 5.76-5.81 7.971-2.7 2.46-6.106 4.184-9.236 6.153-4.85 3.051-7.212 8.601-4.959 12.378 4.421 7.367 4.598 15.296 5.191 22.978 1.316 17.286.997 34.584-11.766 49.137-.822.856-1.549 1.799-2.169 2.812-9.196 16.914-18.038 33.919-29.786 49.489-3.635 4.819-5.588 11.133-7.018 17.044-1.962 8.049-2.703 16.347-3.923 24.542-.247 1.734-.369 3.494-.529 5.258-1.442-1.639-4.306-3.456-4.103-4.923 1.476-9.992.363-20.069 3.609-30.116 5.437-16.775 15.261-32.137 16.726-50.334.554-6.74.638-12.334-3.156-17.571-6.957-9.554-11.658-19.809-11.86-31.672-.083-3.984.629-8.011.599-12.007-.112-12.797 1.758-25.692 7.968-36.744 9.523-16.8745 13.178-35.3123 19.52-53.019 1.503-4.1995.829-10.1787-3.942-10.1089-7.635.1024-11.218-5.0154-16.327-8.0276-4.497-2.8186-9.567-4.5897-14.836-5.1829-9.15-1.091-17.315 1.3336-25.746 2.4573-5.275.7018-10.287 4.246-15.102 7.0168-2.304 1.3374-2.109 2.953-.404 5.9553 6.251 10.8979 9.89 22.2061 8.726 35.6675-1.242 14.4545-6.302 27.3965-11.172 40.5835-4.592 12.436-7.733 25.371-6.992 38.079.487 8.208 1.561 16.354 2.651 24.514.512 3.729.995 7.463 1.447 11.202.856 6.957 1.521 13.931 1.695 20.981.19 8.813 4.544 17.389 5.782 26.237 1.558 11.153 1.996 22.487 2.612 33.758.428 7.014.489 14.046.182 21.066-.363 4.664-1.193 9.279-2.48 13.775-.381 1.453-2.287 2.523-3.49 3.805-.223-1.302-.317-2.623-.279-3.943.514-4.671 2.138-9.398 1.636-13.929-1.808-16.701-4.578-32.998-13.031-48.293-7.434-13.471-13.272-28.059-14.851-43.611-.557-5.466-.095-11.041-.068-16.576.053-10.678-1.39-21.595.588-31.972 2.355-12.454-1.752-22.347-8.045-32.116-2.348-3.637-5.975-6.485-8.218-10.154-7.162-11.608-9.043-25.1046-4.44-37.0875 5.824-15.0852 11.089-29.7259 12.262-45.9238.344-5.025 2.29-10.1668-2.108-13.0366-4.418-2.804-9.554-4.256-14.781-4.1784-1.531.0563-2.995.1758-4.45.3099-14.705 1.5708-28.027 7.8071-40.9645 14.717-1.6554.8769-4.0335 3.3307-3.6962 4.2397.7769 2.1785 2.9121 5.4263 4.6146 5.4774 4.2052.1107 8.4132.0007 12.6067-.3294 3.0564-.1814 6.1714-.4685 9.2474-.7674 2.423-.2232 4.752-1.5398 7.127-2.3597-1.812 1.924-3.299 4.8813-5.504 5.5468-5.409 1.6543-11.1367 2.4441-16.7829 3.1955-3.0357.4031-6.1714-.2789-9.1453.2109-1.0899.1775-2.6324 2.3616-2.6243 3.6169.0098 7.4429-.0302 14.929.785 22.2745 1.3365 11.8363-.959 23.6062-.5166 35.4942.523 14.762 1.3873 28.561 9.0676 41.546 4.0155 6.812 8.6996 13.794 10.3175 21.266 3.237 15.036 5.521 30.314 3.471 46.007-1.385 10.477-3.046 21.549-.929 31.602 2.219 10.653 8.794 20.396 13.323 30.613.444.992-.45 2.538-.724 3.819-1.182-.569-2.699-.868-3.474-1.768-4.989-5.789-9.248-12.247-14.7934-17.485-9.4563-9-20.7867-16.578-21.74-31.008-6.679-5.788-2.4377-13.199-2.83-19.875-.4128-6.897-1.0909-13.839 3.1644-20.265 2.5713-3.858-.02-6.802-3.4295-8.122-3.0263-1.162-6.6184-1.378-9.9483-1.333-11.2072.177-20.9276 4.818-29.8398 10.81-4.9725 3.394-10.0197 7.311-13.1964 12.104-1.4926 2.226 2.094 7.051 2.1965 10.748.3069 10.667 1.8009 21.711-.5136 31.941-3.053 13.305 4.6154 21.66 11.489 30.143 6.3962 7.887 14.9623 13.978 23.8313 19.773 13.6414 8.899 26.1321 19.399 38.9531 29.399 5.3977 4.218 11.1517 8.304 15.4667 13.447 10.007 11.977 19.43 24.286 32.775 33.382 3.665 2.506 5.621 7.396 8.157 11.331 2.348 3.636 4.146 7.555 6.608 11.096 5.038 7.242 16.947 9.427 24.066 4.479 8.215-5.72 15.788-12.567 24.604-17.193 14.336-7.486 27.759-15.55 36.99-29 2.157-3.172 4.85-5.942 7.957-8.185 10.598-7.464 21.168-15.05 32.383-21.57 5.322-3.095 10.113-6.958 18.542-5.361 9.977 1.901 21.402.586 31.444-2.073 11.855-3.142 22.905-9.2 34.816-14.659 7.011-5.37 13.905-9.334 17.739-16.992 4.543-9.057 10.859-17.299 15.562-26.286 3.528-6.736 5.834-14.053 8.321-21.248.416-1.233-.473-3.794-1.567-4.418zm-182.32-195.2478c1.795.3894 4.312.5197 5.141 1.6762 1.759 2.4194 4.622 4.5598-1.352 7.4296-12.506 6.0071-23.494 4.4767-34.457-2.2805 8.594-6.787 19.163-9.3021 30.668-6.8253zm-39.713 88.7388c-.245.508-.514 1.011-.76 1.504-.654-1.173.045-1.345.76-1.504zm-7.014 34.013c-1.199.657-1.377-.027-1.563-.704.522.245 1.05.474 1.563.704zm1.665 19.65c.569.785.959 1.686 1.142 2.638.061.437.066.879.014 1.317-.543-.05-1.549-.135-1.553-.173.087-1.233.247-2.496.397-3.782zm2.553 15.785-1.601-.707c1.239-.639 1.425.046 1.603.73zm-84.572-160.7323c-.5266.1783-1.0776.2732-1.6334.2815-1.7124-.0253-3.4177-.2297-5.088-.61-.8826-.1576-1.5375-1.3455-2.2789-2.0555.595-.4325 1.2291-.8083 1.8939-1.1223 11.0324-3.9911 22.0364-7.9564 33.1264-11.8294.148-.0433.299-.0778.451-.1033 1.19-.1713 2.656.3949 3.976.543 1.412 1.7423 1.693 3.1189 1.471 3.2087-10.594 4.0046-21.21 8.0112-31.918 11.6873zm-67.9488 180.1503c.2038-1.29-.0507-3.301.7063-3.756 2.4959-1.509 5.3852-3.502 8.049-3.439 4.7215.135-.028 2.114.1628 3.268-2.3012 2.038-3.5049 2.981-4.8748 3.454-1.3281.296-2.6829.454-4.0433.473zm7.356-20.713c5.8545-3.159 12.198-5.431 18.4235-7.816 1.0992-.409 2.733.48 4.1124.777-.5551 1.145-.8089 2.81-1.7486 3.367-4.1048 2.389-8.4394 4.453-12.6775 6.647-3.5455 1.29-4.8537 3.183-5.7896 3.03-4.2791-.669-6.8314 7.565-11.8144 2.175 3.1471-2.779 5.8776-6.244 9.4921-8.203zm348.4308 53.535c-3.48 2.171-14.65-.584-17.804-4.292 7.235-.274 12.087-.305 16.9-.017.64.034 1.399 1.513 1.692 2.449.031.351-.025.705-.163 1.029s-.352.61-.625.831zm-68.738-153.63c4.992-3.35 10.483-6.3603 4.579-13.0828-.139-.1722.746-1.7409 1.29-1.8373 4.369-.7725 9-2.3705 13.05-1.688 3.568.6267 7.839 3.2847 9.51 6.2515 2.449 4.3979-3.128 5.821-5.842 8.1286-7.075 5.499-14.26 5.56-21.173 6.574-.502-.024-.989-.176-1.417-.441-.427-.266-.781-.635-1.027-1.075-.077-.52-.023-1.052.157-1.546s.48-.936.873-1.284zm73.178 145.878c-7.031-3.768-14.109-2.553-21.407-1.465-.901.137-2.167-1.264-3.018-2.156-.229-.234.391-1.84.727-1.863 7.761-.815 15.512-1.653 23.308-2.086 1.218-.112 2.543 1.669 3.817 2.576 2.761 5.618-1.933 5.788-3.427 4.994z" fill="#00a7ce"/></g></svg>