<svg fill="none" height="24" viewBox="0 0 414 24" width="414" xmlns="http://www.w3.org/2000/svg"><g stroke="#008753" stroke-linecap="round" stroke-width="3"><path d="m2 14c136.625 0 273.553-2 410-2"/><path d="m398 12c-79.667 0-159.333 0-239 0-16.994 0-34.007.236-51 0-10.0528-.1396-24.2425.0145-33.8889-3-8.7753-2.74229-16.9374-3-26.1111-3"/><path d="m6 18h177.778c35.915 0 71.536-4 107.222-4 25.267 0 49.53-.5943 74.556-4.44444 3.924-.60377 34.434-3.5363 36.444-7.55556"/><path d="m408 18c-97.333 0-194.667 0-292 0-26.6409 0-51.666-8-78-8"/><path d="m22 18c119.369 0 238.64-2 358-2"/><path d="m246 10c-70.816 0-141.375 2-212 2"/><path d="m20 20c86.057 0 173.832 5.3486 259.556-2.4444 28.047-2.5498 56.257-3.5556 84.444-3.5556"/></g></svg>