<svg enable-background="new 0 0 457 200" viewBox="0 0 457 200" xmlns="http://www.w3.org/2000/svg"><path d="m6 31.7h142.2v135.7h-142.2z" fill="#221f20"/><path d="m132 117.5c5.4-26.6 10-52.9 11.6-77.5-10.8-4-22.6-6.3-34.9-6.3-21.6 0-41.6 6.9-57.8 18.4 31.7 19.5 57.4 42 81.1 65.4" fill="#a0d6f4"/><path d="m80.4 167.1h36.7c-10.8-9-21.2-18.3-31.1-27.7-2.1 9.4-4 18.6-5.6 27.7" fill="#a0d6f4"/><path d="m12.6 141.5c1 8.4 3.8 18.4 7.1 25.6h56.4c3.6-19 7.7-37.7 10-53.2-24.6 9.8-49.2 17.4-73.5 27.6" fill="#00aae9"/><path d="m148.2 140.7c-13.5 4.4-27.2 8.5-40.7 12.8 5.6 4.5 11.2 9.1 16.8 13.6h23.9z" fill="#52bdee"/><path d="m46.7 55.4c-21.7 17.4-35.5 43.7-35.5 73.1 0 3 .1 5.9.4 8.8 16.1-5.8 31.8-12.2 47.8-18.1 16.5-6.2 33.4-11.8 51.1-15.8-19.2-17.2-38.9-34-63.8-48" fill="#52bdee"/><path d="m129.6 139.7c6.3-1.4 12.5-3.1 18.6-4.9v-90.7c-2.2 14.8-3.7 29.2-6 44-2.5 16.3-6.1 33.2-12.6 51.6" fill="#00aae9"/><path d="m216.4 53.3h-.5c-20.7 0-28.6 15.2-28.6 30.4s7.9 30.4 28.6 30.4c15 0 23.6-7.2 24.8-18.9h32.1c-1.7 26.4-25 41.8-56.3 41.8-37.3 0-61.4-23.6-61.4-53.3s23.8-53 60.6-53.3h.4c31.2 0 54.5 15.5 56.2 41.9h-32.1c-1.2-11.6-9.4-18.6-23.8-19m144.1-19.9v22.9h-25.5v79.4h-32.1v-79.3h-28.2c-4.7-10-12.8-17.8-23.5-22.9h109.3zm89.3 0h-83.1v22.9h25.5v79.4h32.1v-79.3h25.5z" fill="#221f20"/><path clip-rule="evenodd" d="m276.4 169.9c-3.9-.2-7.5-1-10.9-2.6-3.3 2-7.2 2.9-11.8 2.9-3.6 0-6.5-.7-8.7-2.2s-3.3-3.3-3.3-5.5c0-3.8 3.5-6.4 10.4-7.8-1-1.4-1.5-2.8-1.5-4.3 0-1.4.5-2.8 1.6-4 1.8-2 4.2-3 7.3-3 2.4 0 4.3.6 5.8 1.8s2.3 2.8 2.3 4.7c0 3.4-2.6 5.8-7.8 7.1 1.8 2 3.8 3.8 6 5.4 1.7-1.2 3.1-3.2 4.3-6.2h5.1c-1.1 3.1-3 5.9-5.8 8.4 2.2.9 4.6 1.3 7 1.3zm-19.4-16c3.8-.4 5.7-1.8 5.7-4.1 0-.8-.3-1.4-1-1.9-.6-.5-1.5-.8-2.4-.8-1.1 0-2.1.3-2.8.9s-1.1 1.4-1.1 2.4.6 2.2 1.6 3.5m5.1 10.9c-2.6-2-4.9-4.3-7.1-6.8-5.5.7-8.2 2.3-8.2 4.6 0 1.1.7 2.1 2 2.8 1.4.7 3.2 1.1 5.5 1.1s4.9-.5 7.8-1.7" fill="#00aae9" fill-rule="evenodd"/><g fill="#221f20"><path d="m313.3 166.9h-4.2l-5.9-7.7h-10.9v7.7h-3.6v-20.2h17.1c2.3 0 4.1.6 5.3 1.7 1.3 1.1 1.9 2.7 1.9 4.6 0 1.7-.5 3.1-1.6 4.1-1 1-2.3 1.6-4 1.8zm-8-10.8c2.8 0 4.2-1 4.2-3.1 0-2.2-1.5-3.3-4.5-3.3h-12.6v6.4z"/><path d="m220.8 156.1c2.8 0 4.2-1 4.2-3.1 0-2.2-1.5-3.3-4.4-3.3h-12.7v6.4zm.6-9.4c2.2 0 4 .6 5.3 1.7s1.9 2.7 1.9 4.6-.7 3.5-2 4.6-3.3 1.6-5.9 1.6h-12.9v7.7h-7.9l-9.5-8.2-8.7 8.2h-26.3v-20.2h21.8v3h-18.2v5.2h12.7v3h-12.7v5.9h19.1v2.1l10-9.3-10.4-10h4.7l8.1 7.9 8.3-7.9h4.7l-10.6 10 11.4 9.9v-19.9h17.1z"/><path d="m338 166.9h-22.7v-20.2h21.8v3h-18.2v5.2h12.7v3h-12.7v5.9h19.1z"/><path d="m364.3 166.9h-4.4l-16.6-16.6v16.6h-3.5v-20.2h4.4l16.5 16.5v-16.5h3.6z"/><path d="m389.8 149.7h-10.3v17.2h-3.6v-17.2h-10.3v-3h24.2z"/><path d="m410 166.9h-3.9l-2.5-4.5h-14.6l-2.5 4.5h-3.9l11.4-20.2h4.5l11.1 19.7v-19.7h3.6v17.2h11.2l1.9-2.3c3.4 1.9 7 2.9 10.9 2.9 2.5 0 4.5-.3 5.9-1 1.3-.6 2-1.5 2-2.6 0-1.3-.9-2.1-2.6-2.6-.9-.2-3.4-.5-7.4-.7-3.6-.2-6.1-.7-7.5-1.4-1.7-.8-2.5-2.1-2.5-3.9s1-3.4 2.8-4.5c1.9-1.1 4.6-1.7 8.1-1.7 4.7 0 8.6 1 11.7 3l-2.2 2.3c-3.2-1.5-6.5-2.3-9.8-2.3-2.2 0-3.9.3-5.1.7-1.2.5-1.8 1.2-1.8 2s.6 1.6 1.9 2c.9.3 2.4.5 4.4.6 3 .2 5 .3 5.9.4 2.7.3 4.7 1 6 1.9s1.9 2.2 1.9 3.9c0 2.2-1 3.8-3.1 5-2 1.2-5 1.8-8.8 1.8-4.4 0-8-.7-10.9-2.2v1.7zm-8.2-7.6-5.5-9.8-5.5 9.8z"/></g></svg>