<svg clip-rule="evenodd" fill-rule="evenodd" stroke-linejoin="round" stroke-miterlimit="2" viewBox="0 0 233 99" xmlns="http://www.w3.org/2000/svg"><g transform="matrix(.907798 0 0 .58673 -546.149 169.562)"><path d="m601.736-288.994h255.766v167.5h-255.766z" fill="none"/><g fill="#af191a"><path d="m0-.779h.72c.836 0 1.446-.143 1.832-.427.387-.286.579-.733.579-1.344 0-.713-.18-1.221-.539-1.522-.361-.302-.965-.45-1.814-.45h-.778zm-3.637 7.509v-14.239h4.056c1.587 0 2.695.074 3.321.218.624.147 1.165.391 1.619.733.512.391.905.886 1.182 1.49.276.603.412 1.268.412 1.995 0 1.101-.269 1.997-.811 2.688-.543.691-1.331 1.15-2.367 1.377l3.879 5.738h-4.385l-3.269-5.575v5.575z" fill-rule="nonzero" transform="matrix(1.10157 0 0 1.70436 683.862398 -204.581038)"/><path d="m0 3.599h3.86l-1.448-4.698c-.047-.143-.108-.373-.184-.69-.079-.318-.18-.728-.302-1.227-.084.351-.168.686-.25 1.002-.08.319-.162.624-.247.915zm-5.437 5.32 4.912-14.239h4.863l4.921 14.239h-3.862l-.719-2.548h-5.514l-.739 2.548z" fill-rule="nonzero" transform="matrix(1.10157 0 0 1.70436 698.061635 -208.311882)"/><path d="m0 7.859h.652c1.523 0 2.636-.314 3.336-.938.701-.625 1.051-1.621 1.051-2.981 0-1.361-.35-2.361-1.051-2.997-.7-.635-1.813-.953-3.336-.953h-.652zm-3.841 3.19v-14.239h2.967c2.21 0 3.775.105 4.691.313.919.205 1.723.553 2.417 1.039.902.63 1.586 1.436 2.053 2.416.468.984.7 2.104.7 3.362 0 1.259-.232 2.377-.7 3.361-.467.98-1.151 1.786-2.053 2.416-.687.479-1.472.821-2.353 1.025-.882.206-2.25.307-4.104.307z" fill-rule="nonzero" transform="matrix(1.10157 0 0 1.70436 714.001353 -211.942168)"/><path d="m1108.55 675.641h3.92v14.239h-3.92z" transform="matrix(1.10157 0 0 1.70436 -494.465 -1368.914572)"/><path d="m0 3.599h3.862l-1.45-4.698c-.045-.143-.108-.373-.184-.69-.079-.318-.178-.728-.302-1.227-.084.351-.168.686-.248 1.002-.08.319-.164.624-.248.915zm-5.437 5.32 4.912-14.239h4.863l4.921 14.239h-3.86l-.721-2.548h-5.514l-.739 2.548z" fill-rule="nonzero" transform="matrix(1.10157 0 0 1.70436 738.599411 -208.311882)"/><path d="m0 14.239v-14.239h3.743l5.38 7.323c.105.15.274.45.511.9.237.452.497.987.783 1.61-.078-.59-.134-1.115-.171-1.577-.035-.459-.052-.869-.052-1.225v-7.031h3.724v14.239h-3.724l-5.38-7.354c-.11-.148-.284-.448-.519-.898-.238-.45-.496-.981-.773-1.591.077.596.134 1.125.169 1.585.037.461.052.869.052 1.227v7.031z" fill-rule="nonzero" transform="matrix(1.10157 0 0 1.70436 750.298084 -217.379077)"/><path d="m0 14.239v-10.874h-3.19v-3.365h10.262v3.365h-3.191v10.874z" fill-rule="nonzero" transform="matrix(1.10157 0 0 1.70436 771.249946 -217.379077)"/><path d="m0 14.239v-14.239h8.723v3.122h-4.94v2.47h4.66v3.055h-4.66v2.402h4.94v3.19z" fill-rule="nonzero" transform="matrix(1.10157 0 0 1.70436 781.131029 -217.379077)"/><path d="m0 14.239v-14.239h7.051v1.216h-5.759v4.455h5.544v1.214h-5.544v7.354z" fill-rule="nonzero" transform="matrix(1.10157 0 0 1.70436 793.854162 -217.379077)"/><path d="m0 15.395-4.999-11.429-1.08 10.876h-1.333l1.937-14.842 5.456 12.672 5.66-12.672 1.828 14.842h-1.331l-1.06-10.876z" fill-rule="nonzero" transform="matrix(1.10157 0 0 1.70436 811.99702 -218.362493)"/><path d="m0-.779h.72c.836 0 1.446-.143 1.832-.427.387-.286.579-.733.579-1.344 0-.713-.18-1.221-.539-1.522-.361-.302-.965-.45-1.814-.45h-.778zm-3.637 7.509v-14.239h4.056c1.587 0 2.695.074 3.321.218.624.147 1.165.391 1.619.733.512.391.905.886 1.182 1.49.276.603.412 1.268.412 1.995 0 1.101-.269 1.997-.811 2.688-.543.691-1.331 1.15-2.367 1.377l3.879 5.738h-4.385l-3.269-5.575v5.575z" fill-rule="nonzero" transform="matrix(1.10157 0 0 1.70436 683.862398 -204.581038)"/><path d="m0 3.599h3.86l-1.448-4.698c-.047-.143-.108-.373-.184-.69-.079-.318-.18-.728-.302-1.227-.084.351-.168.686-.25 1.002-.08.319-.162.624-.247.915zm-5.437 5.32 4.912-14.239h4.863l4.921 14.239h-3.862l-.719-2.548h-5.514l-.739 2.548z" fill-rule="nonzero" transform="matrix(1.10157 0 0 1.70436 698.061635 -208.311882)"/><path d="m0 7.859h.652c1.523 0 2.636-.314 3.336-.938.701-.625 1.051-1.621 1.051-2.981 0-1.361-.35-2.361-1.051-2.997-.7-.635-1.813-.953-3.336-.953h-.652zm-3.841 3.19v-14.239h2.967c2.21 0 3.775.105 4.691.313.919.205 1.723.553 2.417 1.039.902.63 1.586 1.436 2.053 2.416.468.984.7 2.104.7 3.362 0 1.259-.232 2.377-.7 3.361-.467.98-1.151 1.786-2.053 2.416-.687.479-1.472.821-2.353 1.025-.882.206-2.25.307-4.104.307z" fill-rule="nonzero" transform="matrix(1.10157 0 0 1.70436 714.001353 -211.942168)"/><path d="m1108.55 675.641h3.92v14.239h-3.92z" transform="matrix(1.10157 0 0 1.70436 -494.465 -1368.914572)"/><g fill-rule="nonzero"><path d="m0 3.599h3.862l-1.45-4.698c-.045-.143-.108-.373-.184-.69-.079-.318-.178-.728-.302-1.227-.084.351-.168.686-.248 1.002-.08.319-.164.624-.248.915zm-5.437 5.32 4.912-14.239h4.863l4.921 14.239h-3.86l-.721-2.548h-5.514l-.739 2.548z" transform="matrix(1.10157 0 0 1.70436 738.599411 -208.311882)"/><path d="m0 14.239v-14.239h3.743l5.38 7.323c.105.15.274.45.511.9.237.452.497.987.783 1.61-.078-.59-.134-1.115-.171-1.577-.035-.459-.052-.869-.052-1.225v-7.031h3.724v14.239h-3.724l-5.38-7.354c-.11-.148-.284-.448-.519-.898-.238-.45-.496-.981-.773-1.591.077.596.134 1.125.169 1.585.037.461.052.869.052 1.227v7.031z" transform="matrix(1.10157 0 0 1.70436 750.298084 -217.379077)"/><path d="m0 14.239v-10.874h-3.19v-3.365h10.262v3.365h-3.191v10.874z" transform="matrix(1.10157 0 0 1.70436 771.249946 -217.379077)"/><path d="m0 14.239v-14.239h8.723v3.122h-4.94v2.47h4.66v3.055h-4.66v2.402h4.94v3.19z" transform="matrix(1.10157 0 0 1.70436 781.131029 -217.379077)"/><path d="m0 14.239v-14.239h7.051v1.216h-5.759v4.455h5.544v1.214h-5.544v7.354z" transform="matrix(1.10157 0 0 1.70436 793.854162 -217.379077)"/><path d="m0 15.395-4.999-11.429-1.08 10.876h-1.333l1.937-14.842 5.456 12.672 5.66-12.672 1.828 14.842h-1.331l-1.06-10.876z" transform="matrix(1.10157 0 0 1.70436 811.99702 -218.362493)"/><path d="m0-1.453c-.344.255-.886.38-1.631.38h-.64v-3.33h.692c.756 0 1.293.133 1.614.402.319.266.48.718.48 1.353 0 .543-.173.94-.515 1.195m4.537 7.059-3.452-5.105c.923-.201 1.626-.609 2.107-1.223.482-.616.722-1.413.722-2.393 0-.646-.122-1.237-.368-1.774-.244-.536-.595-.977-1.05-1.324-.405-.304-.884-.522-1.441-.653-.556-.129-1.542-.193-2.955-.193h-3.607v12.665h3.236v-4.957l2.906 4.957z" transform="matrix(1.10157 0 0 1.70436 657.964487 -204.710569)"/><path d="m0 29.314v-1.416c7.302 0 13.239-5.942 13.239-13.24h1.419c0 8.08-6.577 14.656-14.658 14.656m0-2.948v-1.416c2.637 0 5.275-1.003 7.282-3.013 2.008-2.006 3.011-4.643 3.011-7.279h1.417c0 2.999-1.143 5.999-3.426 8.282-2.284 2.284-5.284 3.426-8.284 3.426m-8.521-11.708c0-4.701 3.823-8.521 8.521-8.521 4.699 0 8.521 3.82 8.521 8.521 0 4.698-3.822 8.519-8.521 8.519-4.698 0-8.521-3.821-8.521-8.519m-3.187 0c0-3 1.141-6 3.424-8.284 2.285-2.285 5.284-3.426 8.284-3.426v1.415c-2.637 0-5.273 1.003-7.281 3.013-2.008 2.006-3.011 4.645-3.011 7.282zm-2.948 0c0-8.083 6.574-14.659 14.656-14.659v1.418c-7.3 0-13.24 5.939-13.24 13.241zm14.656-16.074c-8.863 0-16.072 7.211-16.072 16.074 0 8.861 7.209 16.072 16.072 16.072s16.074-7.211 16.074-16.072c0-8.863-7.211-16.074-16.074-16.074" transform="matrix(1.10157 0 0 1.70436 656.719713 -230.224838)"/><path d="m0-1.453c-.344.255-.886.38-1.631.38h-.64v-3.33h.692c.756 0 1.293.133 1.614.402.319.266.48.718.48 1.353 0 .543-.173.94-.515 1.195m4.537 7.059-3.452-5.105c.923-.201 1.626-.609 2.107-1.223.482-.616.722-1.413.722-2.393 0-.646-.122-1.237-.368-1.774-.244-.536-.595-.977-1.05-1.324-.405-.304-.884-.522-1.441-.653-.556-.129-1.542-.193-2.955-.193h-3.607v12.665h3.236v-4.957l2.906 4.957z" transform="matrix(1.10157 0 0 1.70436 657.964487 -204.710569)"/><path d="m0 29.314v-1.416c7.302 0 13.239-5.942 13.239-13.24h1.419c0 8.08-6.577 14.656-14.658 14.656m0-2.948v-1.416c2.637 0 5.275-1.003 7.282-3.013 2.008-2.006 3.011-4.643 3.011-7.279h1.417c0 2.999-1.143 5.999-3.426 8.282-2.284 2.284-5.284 3.426-8.284 3.426m-8.521-11.708c0-4.701 3.823-8.521 8.521-8.521 4.699 0 8.521 3.82 8.521 8.521 0 4.698-3.822 8.519-8.521 8.519-4.698 0-8.521-3.821-8.521-8.519m-3.187 0c0-3 1.141-6 3.424-8.284 2.285-2.285 5.284-3.426 8.284-3.426v1.415c-2.637 0-5.273 1.003-7.281 3.013-2.008 2.006-3.011 4.645-3.011 7.282zm-2.948 0c0-8.083 6.574-14.659 14.656-14.659v1.418c-7.3 0-13.24 5.939-13.24 13.241zm14.656-16.074c-8.863 0-16.072 7.211-16.072 16.074 0 8.861 7.209 16.072 16.072 16.072s16.074-7.211 16.074-16.072c0-8.863-7.211-16.074-16.074-16.074" transform="matrix(1.10157 0 0 1.70436 656.719713 -230.224838)"/></g></g></g></svg>