<svg clip-rule="evenodd" fill-rule="evenodd" stroke-linejoin="round" stroke-miterlimit="2" viewBox="0 0 195 99" xmlns="http://www.w3.org/2000/svg"><g transform="matrix(.756827 0 0 .58673 -454.957 169.562)"><path d="m601.736-288.994h255.766v167.5h-255.766z" fill="none"/><g fill-rule="nonzero"><path d="m0-8.228c3.543 1.014 6.141 4.272 6.141 8.142 0 2.356-.962 4.487-2.514 6.023h7.501v-20.016c-.449-.057-.907-.086-1.373-.086-4.246 0-7.927 2.411-9.755 5.937" fill="#ec6d26" transform="matrix(1.32131 0 0 1.70436 669.34772124 -191.16261128)"/><path d="m0-3.735c0-1.821.446-3.535 1.23-5.047-.743-.213-1.525-.335-2.335-.335-3.812 0-7.035 2.517-8.101 5.979 1.897.951 3.2 2.907 3.2 5.171 0 1.247-.393 2.402-1.064 3.347v.001l5.159.001h6.767c-2.929-1.973-4.856-5.32-4.856-9.117" fill="#f9b51d" transform="matrix(1.32131 0 0 1.70436 667.72383125 -190.21669148)"/><path d="m-1.794-.069c1.885 1.103 3.345 2.93 3.929 5.212.96 3.748-.747 7.548-3.929 9.411-1.134-1.27-1.99-2.821-2.442-4.586-.942-3.679.093-7.399 2.442-10.037" fill="#ed7a43" transform="matrix(1.27999924285 -.42285001164 -.32781568969 -1.6510731846 676.41408712 -181.91645828)"/><path d="m0-2.911c0-.87.132-1.707.375-2.498-.78-.391-1.657-.615-2.588-.615-1.474 0-2.821.55-3.842 1.458l-.018.015.018 7.664h8.564l.001-.003c-1.55-1.536-2.51-3.666-2.51-6.021" fill="#0694a8" transform="matrix(1.32131 0 0 1.70436 655.06436014 -186.34779428)"/><path d="m-1.057-.048c.88.754 1.543 1.778 1.846 2.987.551 2.198-.238 4.412-1.846 5.796-.429-.706-.76-1.489-.971-2.332-.572-2.284-.159-4.583.971-6.451" fill="#fec531" transform="matrix(1.28167334262 -.41432650728 -.32120781838 -1.65323260872 659.72197789 -181.56536012)"/><path d="m0-5.128-8.259 8.355h-1.14l-8.307-8.355v16.806h-5.745v-28.484h1.567l12.96 12.77 13.102-12.77h1.519v28.484h-5.697z" fill="#003a47" transform="matrix(1.32131 0 0 1.70436 722.55291101 -200.87405456)"/><path d="m0-28.483h.997l14.669 28.483h-6.503l-1.854-3.893h-13.623l-1.804 3.893h-6.503zm.665 10.396h-.381l-4.319 9.304-.333.618h9.685l-.333-.618z" fill="#003a47" transform="matrix(1.32131 0 0 1.70436 753.2984734 -180.97053848)"/><path d="m0-28.483h12.866c7.215 0 11.678 3.56 11.678 9.779 0 4.225-2.09 7.121-5.365 8.688v.427l6.789 9.02v.569h-6.504l-6.313-8.688h-7.406v8.688h-5.745zm12.676 5.032h-6.931v9.921h7.072c3.609 0 5.792-1.612 5.792-4.937 0-3.276-2.231-4.984-5.933-4.984" fill="#003a47" transform="matrix(1.32131 0 0 1.70436 777.89201643 -180.97053848)"/><path d="m0-7.134h6.087v1.261h-2.319v5.873h-1.438v-5.873h-2.33z" fill="#003a47" transform="matrix(1.32131 0 0 1.70436 651.108358 -212.47052)"/><path d="m0 1.971h.119l.583-1.354 1.522-3.198h1.628l-3.674 7.133h-.261l-3.65-7.133h1.617l1.534 3.198z" fill="#003a47" transform="matrix(1.32131 0 0 1.70436 665.72336791 -220.22706236)"/></g></g></svg>