<svg fill="none" height="35" viewBox="0 0 39 35" width="39" xmlns="http://www.w3.org/2000/svg"><path d="m16.4019 28.866h-12.75704c-2.00467 0-3.64486-1.6237-3.64486-3.6083v-21.64945c0-1.98454 1.64019-3.60825 3.64486-3.60825h1.82243l3.64486 7.2165h5.46725l-3.6448-7.2165h3.6448l3.6449 7.2165h5.4673l-3.6449-7.2165h3.6449l3.6448 7.2165h5.4673l-3.6448-7.2165h7.2897v16.2371c-.9112-1.4433-2.1869-2.7062-3.6449-3.6082v-1.8042h-25.87847l-3.28037-6.31439v20.74739h11.29904c.3645 1.2629.729 2.5258 1.458 3.6083zm16.9486-1.9846c.7289-1.2628 1.2757-2.7061 1.2757-4.3299 0-4.5103-3.6449-8.1185-8.201-8.1185-4.556 0-8.2009 3.6082-8.2009 8.1185 0 4.5104 3.6449 8.1186 8.2009 8.1186 1.6402 0 3.0982-.3608 4.3739-1.2629l5.6495 5.5928 2.5514-2.5258zm-6.9253.1805c-2.5514 0-4.556-1.9846-4.556-4.5104 0-2.5257 2.0046-4.5103 4.556-4.5103s4.5561 1.9846 4.5561 4.5103c0 2.5258-2.0047 4.5104-4.5561 4.5104z" fill="#fff"/></svg>