<svg viewBox="0 0 185 100" xmlns="http://www.w3.org/2000/svg"><path d="m182.53 34.39c-2.44-14.02-44.55-18.39-94.07-9.77-20.79 3.62-39.57 8.96-54.19 14.97 2.24.05 3.91.56 4.92 1.57.79.79 1.19 1.88 1.19 3.23v1.39h-4.85v-1.23c0-1.02-.61-1.66-1.7-1.66-.91 0-1.48.41-1.66 1.22-.05.23-.07.61.02.97.52 2.12 7.73 3.44 8.51 7.36.1.5.24 1.58.02 3.13-.45 3.16-3.23 4.38-6.76 4.38-4.93 0-6.94-2.34-6.94-5.56v-1.52h5.21v1.9c0 1.07.78 1.66 1.84 1.66 1 0 1.59-.4 1.79-1.23.09-.38.13-.94-.04-1.36-.96-2.42-7.7-3.55-8.52-7.45-.19-.88-.2-1.63-.05-2.57.08-.51.24-.95.43-1.35-16.21 7.59-25.7 15.94-24.45 23.14 2.44 14.02 44.56 18.39 94.07 9.77 21.76-3.79 41.33-9.46 56.22-15.82-.22.01-.42.03-.65.03-3.39 0-6.41-1.27-6.73-4.73-.06-.63-.07-.89-.07-1.25v-7.96c0-.34.04-.95.08-1.26.4-3.35 3.05-4.73 6.72-4.73 2.84 0 6.32.81 6.7 4.73.05.49.05 1.02.04 1.19v.75h-4.9v-1.12s0-.45-.06-.71c-.08-.4-.42-1.33-1.82-1.33s-1.74.93-1.83 1.33c-.05.22-.08.53-.08.88v8.65c0 .3.01.53.04.71.02.14.27 1.33 1.88 1.33s1.84-1.19 1.86-1.33c.04-.23.05-.51.05-.71v-2.68h-1.93v-2.89h6.82v5.14c0 .35 0 .61-.07 1.25-.08.91-.37 1.68-.82 2.33 15.8-7.5 24.99-15.71 23.76-22.81zm-128.38 24.84-2.48-16.88h-.09l-2.55 16.88h-5.24l3.52-19.06h8.54l3.5 19.06zm25.18 0-.12-16.55h-.08l-3.08 16.55h-4.91l-3.07-16.55h-.09l-.11 16.55h-4.87l.42-19.06h7.83l2.28 14.16h.11l2.29-14.16h7.83l.42 19.06zm22.93-3.69c-.52 3.69-4.14 4.34-6.7 4.34-4.24 0-6.87-1.81-6.87-5.51v-1.51h5.14v1.88c0 1.02.72 1.64 1.83 1.64.99 0 1.57-.4 1.77-1.21.09-.38.13-.93-.03-1.35-.95-2.37-7.63-3.53-8.44-7.38-.19-.87-.2-1.61-.05-2.55.56-3.49 3.91-4.21 6.6-4.21 2.41 0 4.16.53 5.21 1.58.78.79 1.18 1.86 1.18 3.2v1.38h-4.81v-1.21c0-1.04-.64-1.64-1.68-1.64-.92 0-1.48.41-1.66 1.21-.04.17-.07.56.02.96.51 2.11 7.66 3.41 8.44 7.29.1.5.24 1.56.02 3.1zm17.81-1.73c0 .36-.03 1.07-.05 1.25-.29 3.14-2.54 4.74-6.66 4.74s-6.38-1.6-6.67-4.74c-.02-.18-.06-.9-.05-1.25v-13.64h4.92v14.07c0 .31.01.55.04.71.06.31.37 1.33 1.76 1.33s1.7-1.02 1.76-1.33c.03-.17.04-.41.04-.71v-14.07h4.9s0 13.64 0 13.64zm21.2 5.23h-6.85l-4.59-15.1h-.08l.26 15.1h-4.77v-18.87h7.13l4.25 14.5h.1l-.25-14.5h4.81v18.87z" fill="#224d9c"/></svg>