<svg enable-background="new 0 0 501.2 58.5" viewBox="0 0 501.2 58.5" xmlns="http://www.w3.org/2000/svg"><g fill="#fff"><path d="m357.8 15h-.8v22.7h9.2c1.5 0 2.8-.1 3.9-.4 1.2-.3 2.2-.7 3-1.2s1.6-1.2 2.3-2.1 1.3-2 1.7-3.3.7-2.8.7-4.5c0-2-.3-3.8-1-5.3-.7-1.6-1.7-2.9-3-3.9-1-.8-2.3-1.4-3.7-1.7-1-.2-2.4-.3-4.3-.3zm8 4c1.7 0 3 .1 3.7.4 1 .4 1.8 1 2.5 2.1s1.1 2.6 1.1 4.7c0 1.5-.2 2.8-.6 3.8s-.9 1.8-1.5 2.4c-.4.4-1 .7-1.8.9s-1.9.4-3.4.4h-4.2v-14.6z"/><path d="m357.8 37v-21.2h8c1.8 0 3.2.1 4.1.3 1.3.3 2.5.8 3.4 1.5 1.2.9 2.1 2.1 2.8 3.6.6 1.5.9 3.1.9 5 0 1.6-.2 3-.6 4.3s-.9 2.3-1.6 3.1-1.4 1.5-2.1 1.9-1.7.8-2.8 1.1c-1.1.2-2.3.4-3.7.4zm3.1-2.5h5c1.5 0 2.7-.1 3.6-.4s1.6-.6 2.1-1.1c.7-.7 1.3-1.6 1.7-2.7s.6-2.5.6-4.1c0-2.2-.4-3.9-1.2-5.1s-1.8-2-2.9-2.4c-.8-.3-2.1-.4-4-.4h-4.9z"/><path d="m406.1 15h-15v22.7h16.3v-4h-12v-5.7h10.7v-4h-10.7v-5h11.5v-4z"/><path d="m391.8 37v-21.2h14.3v2.5h-11.5v6.4h10.7v2.5h-10.7v7.2h12v2.6z"/><path d="m425.8 15h-3.6v22.7h14.8v-4h-10.4v-18.7z"/><path d="m423 37v-21.2h2.8v18.7h10.4v2.5z"/><path d="m462.3 15h-17.5v4h7v18.7h4.3v-18.7h7v-4z"/><path d="m452.5 37v-18.7h-7v-2.5h16.8v2.5h-7v18.7z"/><path d="m483.5 15h-3.6l-9.6 22.7h4.6s2-5.6 2.3-6.4h9.7c.3.8 2.4 6.4 2.4 6.4h4.8l-10.1-22.7zm-1.5 5.5c.4 1.1.7 2.2.7 2.2s1.3 3.4 1.8 4.8h-5c.5-1.4 2-5.2 2-5.2.1-.6.3-1.2.5-1.8z"/><path d="m471.4 37 9.1-21.2h3.1l9.4 21.2h-3.2l-2.4-6.4h-10.8l-2.3 6.4zm7-8.8h7.2l-2.2-5.9c-.7-1.8-1.2-3.3-1.5-4.4-.3 1.4-.7 2.8-1.2 4.1z"/></g><path d="m307.6 37 16.6-25.1v17.6z" fill="#da5040"/><path d="m324.2 32.8v7.7h-16.6z" fill="#da5040"/><g fill="#9b2138"><path d="m340.9 37-16.7-25.1v17.6z"/><path d="m324.2 32.8v7.7h16.6z"/><path clip-rule="evenodd" d="m343.4 37c.5 0 1-.5 1-1s-.5-1-1-1-1 .5-1 1 .4 1 1 1zm0-.2c-.5 0-.8-.4-.8-.8s.4-.8.8-.8.8.4.8.8-.4.8-.8.8zm.2-.8c.2 0 .3-.1.3-.3 0-.1 0-.2-.1-.3-.1 0-.2 0-.3 0h-.5v1.1h.2v-.5h.2l.2.5h.2zm-.5-.1v-.3h.3c.1 0 .3 0 .3.1s-.1.2-.2.2z" fill-rule="evenodd"/></g><g fill="#fff"><path d="m225.2 33.4c-.9 0-1.6.7-1.6 1.5s.7 1.5 1.6 1.5 1.6-.7 1.6-1.5-.8-1.5-1.6-1.5zm0 2.8c-.7 0-1.3-.5-1.3-1.3s.6-1.3 1.3-1.3 1.3.6 1.3 1.3-.6 1.3-1.3 1.3z"/><path d="m225.4 35.1c.3 0 .5-.2.5-.5s-.2-.5-.6-.5h-.7v1.8h.3v-.8h.3l.5.8h.3zm-.6-.3v-.5h.4c.2 0 .4 0 .4.3s-.2.3-.4.3h-.4z"/><path d="m39.9 18.4c.8 0 1.3.2 1.8.5.9.4 2 .9 3.3 1.6 0 0 2.2-1.5 2.3-1.6.7-.5 1.4-.1 1.7.3.8 1.5 2.3 4.7 3.1 7.6.1.4 0 .9-.6 1-.3.1-.8.2-1.4.2-.8.1-.8.7-.8 1.1v4.7c0 .7-.5 2.8-3 2.8-.2 0-5.8 0-5.8 0-2.2 0-3.9-1.8-3.9-3.8 0-1.3 0-10.2 0-11.2 0-1.9 1.7-3.3 3.3-3.2z"/><path d="m30.8 36.6h-18.7v2.1h22s.8-1.8.8-3.9c0-.1 0-14.1 0-14.1 0-1.1.5-3 2.7-3.5h.2c6.5-1.5 13.2-.1 16.9 1.5.7.3.8-.2.8-.4.1-3.2-2.3-6.8-6.8-7-3.6-.1-5.6 1.2-6.3 1.6-.1 0-.2 0-.2-.1-.7-.6-2.1-1.6-3.7-2.1-.2-.1-.3-.4 0-.4 3.4-.4 6.4 0 7.6.2.3.1.5-.1.4-.4-.1-.2-.2-.3-.3-.6-.3-.6-1.1-1.3-2.1-1.6-2.7-.8-7.2-1.4-11.3-1.4-4.6 0-9.4.9-10.6 1.2-.3.1-.7.2-.8.2-.3.1-.4.4-.3.5s.3.3.5.5c.1.2.2.5-.1.7l-8.5 7.6h5.9c.4 0 .7.3.7.8 0 .4-.3.8-.7.8h-7.6l-2.3 2.1h10c.4 0 .7.4.7.8 0 .3-.3.8-.7.8h-.1-11.5l-2.3 2.1h20c.4 0 .7.4.7.8s-.3.8-.7.8h-20v2.1h19.9c.5 0 .7.4.7.8s-.3.7-.7.7h-19.9v2.1h26c.4 0 .7.4.7.8 0 .3-.3.7-.7.7h-19v2.1h19.1c.4 0 .6.4.6.8s-.3.7-.7.7z"/><path d="m19.1 43.8v2.2h4.4c4 0 6.5-2.1 6.5-2.1h-10.9z"/><path d="m19.1 40.2v2.1h12.7c.6-.6 1.3-1.7 1.5-2.1z"/><path d="m223.9 27.4v-.1c-.1-1.6-.6-3.1-1.4-4.2-1.6-2.5-4.3-3.8-7.7-3.8-3.3 0-6.1 1.3-7.7 3.8-.8 1.1-1.3 2.6-1.4 4.2v.1c-.4 5.4 2.7 9.2 8.1 9.6h.9s.6 0 .9 0c5.6-.5 8.8-4.2 8.3-9.6zm-8.6 7c-.1 0-.3 0-.4 0s-.3 0-.4 0c-.8-.1-1.4-.3-2-.8-.2-.1-.3-.3-.5-.5-.8-.9-1.3-2.5-1.4-3.8-.2-2.9.3-7.2 3.9-7.5h.3s0 0 0 0h.3c3.6.3 4.2 4.6 3.9 7.5-.1 1.2-.5 2.8-1.4 3.8-.2.2-.3.3-.5.5-.4.5-1.1.8-1.8.8z"/><path d="m188.1 23.3c0-1.3.1-3.7.1-3.7h-4.4s.1 2.4.1 3.7v9.7c0 1.3-.1 3.6-.1 3.6h4.4s-.1-2.3-.1-3.6z"/><path d="m162.3 34c-.9 0-2.1 0-3.1 0 0-1.7-.1-3.4-.1-4.9v-.2h5.1v-2.4h-5.1c0-2.6.1-4.3.1-4.3h6.3v-2.5c-4.4 0-10.8 0-10.8 0s.1 2.3.1 3.7v9.6c0 1.2-.1 3.3-.1 3.7h11.3v-2.7c0-.1-2.2 0-3.7 0z"/><path d="m88.8 34c-.9 0-2.1 0-3.1 0 0-1.7-.1-3.4-.1-4.9v-.2h5.1v-2.4h-5.1c0-2.6.1-4.3.1-4.3h6.3v-2.5c-4.4 0-10.8 0-10.8 0s.1 2.3.1 3.7v9.6c0 1.2-.1 3.3-.1 3.7h11.2v-2.7c0-.1-2.2 0-3.6 0z"/><path d="m176.8 27.5 4.9-7.8h-3.4v.1c-1 1.8-2.3 3.9-2.8 4.7l-.2.3-2.8-5.1h-5.1l4.9 8.8-5.1 8.2h3.4c2.2-3.7 3.3-5.4 3.3-5.4l3 5.4h5.1z"/><path d="m201.9 34.3c-3.9 0-6.1-2.9-5.9-6.4.1-3.1 1.5-5.7 4.9-5.9 1.3-.1 2.4.1 4.2.6l-.2-2.6s-1.5-.5-3.7-.6c-2.8-.1-5.3.4-7.4 2.3-1.8 1.6-2.9 4.1-2.9 6.5 0 2.6 1.1 5 3.1 6.7 2.1 1.8 4.4 2.2 7.1 2.2 1.8 0 2.8-.1 4.5-.6l-.2-2.6c-.5 0-1.7.4-3.5.4z"/><path d="m145.2 17.1h4.9l.1 1.1c1.1 11.3 1.8 18.4 1.8 18.4h-5.1l-.5-7-.5-6.3-4.3 13.3c-1.1 0-2.7 0-2.7 0s-1.4-4.7-1.6-5.4l-2.5-8s-.4 4.4-.5 6.3c-.3 3.8-.6 7-.6 7h-3.8s1.6-15.9 1.7-16.9.3-2.7.3-2.7h5l4.2 11.4z"/><path d="m127.8 27.4v-.1c-.1-1.6-.6-3-1.4-4.2-1.6-2.5-4.3-3.8-7.6-3.7-3.3 0-6.1 1.3-7.6 3.7-.8 1.1-1.3 2.5-1.4 4.2v.1c-.4 5.4 2.7 9.1 8.1 9.6h.9s.6 0 .9 0c5.4-.5 8.5-4.2 8.1-9.6zm-8.6 7c-.1 0-.3 0-.4 0s-.3 0-.4 0c-.8-.1-1.4-.3-2-.8-.2-.1-.3-.3-.5-.5-.8-.9-1.3-2.5-1.4-3.8-.2-2.9.3-7.2 3.9-7.5h.3.3c3.6.3 4.2 4.5 3.9 7.5-.1 1.2-.5 2.8-1.4 3.8-.2.2-.3.3-.5.5-.4.5-1.1.8-1.8.8z"/><path d="m80.1 36.6c-.2-.3-1.1-2.5-1.7-4.2l-5.7-15.3h-4.5s-1.3 3.6-1.4 4.2l-4.2 11.9c-.5 1.5-1.3 3.5-1.3 3.5h3.7s1-3.3 1.2-3.9l.6-1.6h6.2l.9 2.5c.2.5.9 3 .9 3h5.3zm-12.5-8.3 2.1-6.3.1-.4 2.2 6.7z"/><path d="m110 36.6c-1.1-1.5-1.4-2.1-2.3-3.2l-3-4.7c1.5-.7 2.8-1.9 3.1-4.5.1-1.6-.7-2.9-1.2-3.4-.7-.6-1.4-.9-2.5-1-.8-.1-1.4-.1-1.9-.1h-7.2s.1 2.3.1 3.7v9.6c0 1.3-.1 3.7-.1 3.7h4.4s-.1-2.3-.1-3.7v-3.1h1.6l2.8 5.1c.4.7.9 1.5 1.1 1.7zm-7.8-9.5c-.7.3-2.1.2-2.9.2l.1-4.9h.4c1.3-.1 2.3.1 2.7.3.6.3 1 .8 1 1.8.1 1.5-.5 2.2-1.3 2.6z"/><path d="m259.1 10.7-.1-.1v-.1l.5.2v.1l-.2-.1-.3.6-.1-.1z"/><path d="m259.6 10.8.2.1-.1.5.4-.4.2.1-.3.6h-.1l.2-.6-.4.5-.1-.1.1-.6-.3.5h-.1z"/><path d="m261.1 16.3c2.4 2.5 4 5.8 4.3 9.5.6 8.2-5.6 15.3-13.8 15.8-3.8.3-7.4-1-10.2-3.2 2.9 2.7 6.9 4.2 11.1 4 8.2-.6 14.3-7.7 13.8-15.8-.3-4.2-2.2-7.8-5.2-10.3z"/><path d="m234.8 33.1c-.5.3-.6.7-.3 1.3.2.6.6.8.9.7s.4-.4.2-1l-.1-.3c-.1-.7-.1-.9-.1-1.2.1-.3.3-.5.5-.6.7-.3 1.3.1 1.7 1.1s.2 1.8-.6 2.1l-.2-.5c.6-.2.7-.8.4-1.5-.2-.6-.6-.9-1-.7-.3.1-.4.4-.3 1.1l.1.3v.2c.1.5.1.7.1.9-.1.3-.2.5-.5.6-.6.2-1.2-.1-1.6-1s-.2-1.6.5-1.9z"/><path d="m234.4 27.8 2.2-1.9.1.7-1.9 1.6.6.7 1.3-.1v.6l-3.8.1v-.6h1.5.2.2l-.1-.2-.2-.1-1.7-1.8v-.8z"/><path d="m236.1 21.9 1.5.5-.2.5-1.5-.5-2.6.8.2-.6 1.6-.5.2-.1c.1 0 .1 0 .3-.1-.1-.1-.2-.2-.3-.4l-1-1.4.2-.6z"/><path d="m238.7 14.8-.8 1 2.4 2-.6.7-2.4-2-.8 1-.6-.4 2.2-2.7z"/><path d="m243.9 11.2-2 1.1.4.7 1.8-1 .3.6-1.7 1 .4.8 2-1.1.4.6-2.8 1.6-1.9-3.3 2.7-1.6z"/><path d="m251.3 12.7-1 .1-.5-.8-1.5.2-.2.9-.9.2 1-4.2.8-.1zm-2.2-2c-.2-.4-.3-.5-.4-.8 0 .3-.1.5-.2.9l-.2.7 1.1-.2z"/><path d="m257.4 13.9-.8-.3.3-1.1c0-.1.1-.3.1-.6.1-.2.1-.4.2-.6 0-.1.1-.3.1-.5l.1-.3c-.2.4-.3.5-.5.8-.1.1-.2.2-.2.4l-1.1 1.5-.7-.2-.2-1.8c0-.1 0-.2 0-.4s0-.4 0-.6c0-.1 0-.3 0-.5l-.1.5c-.1.5-.2.7-.3 1.3l-.3 1.2-.9-.1 1-3.7 1.3.2.2 1.8c.1.4.1.8 0 1.3.1-.3.2-.4.4-.6.1-.2.2-.3.3-.4l1-1.4 1.2.4z"/><path d="m250.1 21.3c-.5.4-1.4 1.3-2.3 2.1l-1 1c-.8-.1-1.6-.2-2.5-.2-1.9 0-3.6.5-4.4 1.3-.3.3-.4.6-.4 1 0 .9 1.1 1.4 1.4 1.5 1.6.6 3.1.4 4.5-.6.8-.6 1.8-1.5 2.5-2.2.6.1 1.3.3 2 .5l.7.2c-.9.8-1.7 1.7-2.6 2.5l-.1.1c-1.1 1-2 1.7-3.1 2-.8.2-1.4 0-1.6-.1h-.1c.7.6 1.3.9 2.5.8 1.1-.1 2.3-.8 3.6-1.9l1.7-1.7 1.2-1.2 2.4.7s-1.5 1.5-1.5 1.5l-1.3 1.3c-1.3 1.3-2 1.9-2.8 2.5-1.3.9-2.4 1.4-3.3 1.4-.5 0-1.2 0-1.8-.3h-.1c.6.5 1.4 1.2 2.8 1.2 1.6 0 2.9-.8 5-2.7 1-.9 1.9-1.9 2.8-2.8l1.6-1.6c1 .2 2 .3 3 .3 1.5 0 2.8-.8 2.8-1.6 0-.6-.5-.9-.8-1.1-.2-.2-.9-.5-1.8-.5-1.1 0-2.3.5-3.5 1.5l-.8.7-.3-.1-2.2-.6c.6-.6 1.2-1.1 1.7-1.6 1.2-1.1 2.5-1.5 3.3-1.6.6 0 1.6 0 2 .3-1.1-.9-2-1-2.8-1s-2 .2-3.5 1.4c-.6.5-1.4 1.3-2.2 2.1l-1.1-.3-.3-.1-1.2-.4s.7-.6.7-.6c.8-.8 1.5-1.5 2.1-2 2.1-1.8 3.4-2 4.4-2s1.8.2 2.4.6c-1.2-1.1-2-1.4-3.5-1.4-1.1-.3-2.7.4-4.2 1.7zm-8.3 6.3c-.7 0-1-.3-1-.9 0-.1.1-1.7 3.9-1.9h1.7s-.4.4-.4.4l-.2.2c-1.1.9-2.6 2.3-4 2.2zm15.5-1.3c1.1-.7 2-1.1 2.6-1.1.3 0 .7.1.7.5s-.4.8-1.2 1.1c-.7.2-1.8.3-3 .2.4-.4.7-.6.9-.7z"/></g><path d="m130.3 45.4s7.7-6.3 27.2-6.3c14.7 0 23.5 4.7 40.7 4.7 15.5 0 25.8-5.3 25.8-5.3s-9.1 7.1-27.2 7.1-24-4.8-41.9-4.8-24.6 4.6-24.6 4.6z" fill="#ce3732"/><path d="m286.9 62.5v-68.4" fill="none" stroke="#bcbec0" stroke-miterlimit="10"/></svg>