<svg viewBox="0 0 200.22 58.5" xmlns="http://www.w3.org/2000/svg"><g fill="#033d75"><path d="m58.15 15h-.76v22.74h9.17c1.46 0 2.78-.13 3.91-.38 1.16-.26 2.18-.65 3.01-1.16.84-.51 1.62-1.22 2.32-2.1s1.28-2 1.72-3.32.66-2.84.66-4.52c0-1.98-.33-3.78-.97-5.33-.66-1.59-1.67-2.91-3-3.94-1.03-.8-2.28-1.36-3.73-1.66-1.01-.22-2.42-.32-4.3-.32h-8.03zm7.97 4.04c1.74 0 2.99.13 3.73.39.99.35 1.82 1.04 2.53 2.1s1.07 2.63 1.07 4.68c0 1.5-.19 2.79-.57 3.82-.36 1-.87 1.8-1.5 2.38-.43.39-1.03.71-1.79.93-.8.24-1.94.36-3.39.36h-4.21v-14.65h4.13z"/><path d="m58.15 36.97v-21.21h8.03c1.81 0 3.19.1 4.15.3 1.34.28 2.47.79 3.42 1.52 1.23.94 2.15 2.15 2.76 3.62s.91 3.15.91 5.04c0 1.61-.21 3.04-.62 4.28s-.94 2.27-1.59 3.09-1.35 1.46-2.12 1.93-1.7.82-2.78 1.06c-1.09.24-2.33.36-3.74.36h-8.42zm3.08-2.52h4.97c1.53 0 2.74-.13 3.61-.39s1.57-.63 2.09-1.1c.73-.66 1.3-1.56 1.71-2.68s.61-2.48.61-4.08c0-2.21-.4-3.91-1.2-5.1s-1.77-1.99-2.91-2.39c-.82-.29-2.15-.43-3.98-.43h-4.89v16.18z"/><path d="m106.45 15h-15.03v22.74h16.3v-4.04h-11.98v-5.7h10.69v-4.04h-10.69v-4.91h11.47v-4.04h-.76z"/><path d="m92.17 36.97v-21.21h14.27v2.52h-11.47v6.44h10.69v2.52h-10.69v7.22h11.98v2.52h-14.78z"/><path d="m126.15 15h-3.56v22.74h14.73v-4.04h-10.41v-18.7z"/><path d="m123.35 36.97v-21.21h2.8v18.69h10.41v2.52z"/><path d="m162.63 15h-17.55v4.04h7v18.69h4.32v-18.69h7v-4.04z"/><path d="m152.83 36.97v-18.69h-7v-2.52h16.79v2.52h-7v18.69h-2.8z"/><path d="m183.86 15h-3.63l-9.64 22.74h4.6s2-5.58 2.3-6.44h9.73c.32.84 2.42 6.44 2.42 6.44h4.84l-10.11-22.74s-.51 0-.51 0zm-1.56 5.47.74 2.18s1.29 3.42 1.82 4.82h-5.04c.54-1.43 1.95-5.17 1.95-5.17.22-.59.35-1.22.53-1.83z"/><path d="m171.69 36.97 9.06-21.21h3.1l9.5 21.21h-3.19l-2.42-6.44h-10.8l-2.3 6.44h-2.96zm7.02-8.73h7.24l-2.2-5.85c-.66-1.79-1.16-3.27-1.51-4.45-.29 1.39-.68 2.76-1.19 4.09l-2.34 6.2z"/></g><path d="m7.93 36.97 16.63-25.12v17.65z" fill="#da5040"/><path d="m24.56 32.79v7.72h-16.57z" fill="#da5040"/><g fill="#9b2138"><path d="m41.2 36.97-16.64-25.12v17.65z"/><path d="m24.56 32.79v7.72h16.58z"/><path d="m43.69 36.96c.55 0 .99-.45.99-1s-.45-1-.99-1-1 .45-1 1 .45 1 1 1zm0-.19c-.45 0-.81-.36-.81-.81s.36-.81.81-.81.81.36.81.81-.36.81-.81.81zm.23-.72c.19 0 .29-.1.29-.29 0-.11-.03-.22-.13-.28-.08-.05-.2-.05-.29-.05h-.52v1.07h.21v-.45h.21l.24.45h.25zm-.44-.16v-.31h.26c.11 0 .26 0 .26.14s-.09.16-.2.16h-.32z" fill-rule="evenodd"/></g></svg>