<svg viewBox="0 0 276 58.5" xmlns="http://www.w3.org/2000/svg"><g fill="#003160"><path d="m228 33.41c-.85 0-1.58.66-1.58 1.55s.72 1.55 1.58 1.55 1.57-.66 1.57-1.55-.72-1.55-1.57-1.55zm0 2.84c-.71 0-1.26-.55-1.26-1.3s.55-1.29 1.26-1.29 1.26.56 1.26 1.29-.55 1.3-1.26 1.3z"/><path d="m228.25 35.06c.26-.03.46-.17.46-.49 0-.35-.21-.51-.63-.51h-.68v1.79h.27v-.77h.31l.47.77h.3l-.51-.79zm-.58-.22v-.55h.37c.19 0 .39.04.39.26 0 .27-.2.29-.43.29z"/><path d="m42.73 18.37c.79 0 1.33.24 1.76.45.91.43 1.98.93 3.32 1.58 0 0 2.16-1.54 2.27-1.62.74-.5 1.44-.12 1.67.31.81 1.52 2.29 4.67 3.07 7.56.09.35-.02.88-.56 1.05-.31.09-.85.17-1.41.24-.78.1-.77.73-.77 1.11v4.74c.02.67-.49 2.85-3.01 2.85-.17 0-5.78 0-5.75 0-2.18 0-3.93-1.83-3.94-3.79v-11.25c0-1.94 1.75-3.25 3.34-3.23z"/><path d="m33.63 36.64h-18.72v2.08h21.96s.8-1.84.8-3.87v-14.11c0-1.11.45-2.99 2.74-3.49.06-.01.13-.03.19-.04 6.48-1.53 13.16-.14 16.93 1.49.68.33.83-.21.81-.44.08-3.17-2.33-6.78-6.76-7-3.6-.08-5.6 1.21-6.33 1.57-.06.03-.15.02-.23-.07-.66-.65-2.08-1.64-3.67-2.09-.24-.05-.26-.41 0-.43 3.41-.37 6.39.02 7.64.22.29.05.51-.12.39-.38-.09-.2-.16-.29-.31-.6-.3-.65-1.11-1.34-2.13-1.63-2.68-.75-7.25-1.39-11.31-1.41-4.58-.03-9.4.88-10.62 1.16-.29.06-.7.17-.78.18-.33.07-.41.39-.27.54.09.1.34.31.46.46.15.19.22.46-.07.74l-8.46 7.6h5.86c.38-.01.73.33.73.77 0 .39-.31.76-.71.76h-7.57l-2.3 2.09h9.9c.39 0 .69.39.68.76 0 .33-.29.75-.68.75h-11.59l-2.31 2.08h19.95c.39 0 .7.41.7.76 0 .41-.28.77-.68.77h-19.94v2.08h19.93c.46 0 .72.42.72.79 0 .35-.33.72-.73.72h-19.92v2.09h26.01c.43.01.71.38.7.79-.01.35-.3.72-.69.72h-19.03v2.09h19.1c.35 0 .65.43.65.78s-.31.74-.66.74h-.39v-.02z"/><path d="m21.9 43.82v2.13h4.41c3.95-.03 6.54-2.13 6.54-2.13h-10.96z"/><path d="m21.9 40.24v2.08h12.7c.59-.6 1.34-1.68 1.54-2.08z"/><path d="m226.74 27.38s0-.07 0-.12c-.07-1.61-.61-3.06-1.36-4.18-1.58-2.47-4.34-3.8-7.66-3.76-3.32-.04-6.08 1.29-7.66 3.76-.76 1.12-1.29 2.57-1.37 4.18v.12c-.45 5.42 2.71 9.16 8.09 9.6.32.03.64.04.95.04s.63 0 .95-.04c5.38-.43 8.54-4.18 8.09-9.6zm-8.62 7.05c-.14 0-.28.02-.42.02-.13 0-.27 0-.42-.02-.79-.07-1.41-.35-1.98-.79-.16-.14-.32-.29-.48-.46-.83-.93-1.28-2.53-1.38-3.78-.24-2.93.34-7.22 3.94-7.5h.62c3.6.29 4.19 4.57 3.95 7.5-.11 1.25-.51 2.81-1.38 3.78-.16.18-.32.33-.47.46-.57.44-1.25.73-1.98.79z"/><path d="m190.94 23.34c0-1.34.13-3.7.13-3.7h-4.42s.13 2.36.13 3.7v9.66c0 1.34-.13 3.62-.13 3.62h4.42s-.12-2.28-.12-3.62v-9.66z"/><path d="m165.17 34h-3.07c-.04-1.71-.06-3.35-.06-4.85v-.23-.04h5.1v-2.4h-5.09c0-2.58.06-4.28.06-4.28h6.33v-2.55c-4.42.02-10.81 0-10.81 0s.09 2.34.09 3.68v9.64c0 1.23-.08 3.31-.09 3.65h11.22v-2.69s-2.2.07-3.67.07z"/><path d="m91.58 34h-3.07c-.04-1.71-.06-3.35-.07-4.85v-.23-.04h5.1v-2.4h-5.09c.01-2.58.06-4.28.06-4.28h6.33v-2.55c-4.42.02-10.81 0-10.81 0s.09 2.34.09 3.68v9.64c0 1.23-.08 3.31-.09 3.65h11.22v-2.69s-2.2.07-3.67.07z"/><path d="m179.61 27.49 4.87-7.84h-3.38l-.02.07c-1.02 1.76-2.3 3.9-2.8 4.69l-.2.31-2.83-5.07h-5.07l4.89 8.78-5.1 8.19h3.36c2.17-3.71 3.29-5.42 3.29-5.42l3.02 5.42h5.05l-5.1-9.13z"/><path d="m204.71 34.32c-3.93 0-6.05-2.89-5.94-6.44.1-3.09 1.51-5.73 4.88-5.95 1.29-.09 2.35.14 4.16.62l-.18-2.65s-1.54-.49-3.74-.57c-2.8-.11-5.33.43-7.35 2.3-1.8 1.65-2.87 4.1-2.87 6.47 0 2.63 1.08 5.04 3.11 6.72 2.11 1.78 4.37 2.18 7.06 2.18 1.76 0 2.8-.12 4.51-.58l-.25-2.6c-.37.12-1.61.52-3.39.52z"/><path d="m148.02 17.1h4.92l.14 1.14c1.1 11.34 1.77 18.39 1.77 18.39h-5.12l-.51-7.03-.47-6.28-4.34 13.29h-2.74s-1.37-4.72-1.62-5.38l-2.48-7.98s-.38 4.44-.53 6.34c-.3 3.81-.57 7.03-.57 7.03h-3.82s1.56-15.88 1.68-16.85c.12-.99.31-2.68.31-2.68h5.02l4.16 11.43 4.2-11.43z"/><path d="m130.59 27.4s-.01-.08-.02-.11c-.07-1.62-.6-3.05-1.36-4.17-1.56-2.46-4.31-3.78-7.62-3.74-3.31-.04-6.06 1.28-7.63 3.74-.75 1.12-1.29 2.55-1.36 4.17 0 .03-.01.07-.01.11-.45 5.39 2.69 9.12 8.05 9.56.32.02.63.03.95.03s.62 0 .94-.03c5.35-.43 8.5-4.16 8.05-9.56zm-8.58 7.02c-.14.02-.28.02-.41.02-.14 0-.27 0-.42-.02-.79-.07-1.4-.35-1.97-.79-.16-.13-.32-.29-.47-.46-.82-.93-1.27-2.52-1.37-3.77-.24-2.91.34-7.18 3.93-7.46.09 0 .18-.01.27-.01h.08c.09 0 .18 0 .27.01 3.58.28 4.17 4.55 3.92 7.46-.1 1.25-.51 2.81-1.38 3.77-.16.17-.31.33-.47.46-.57.44-1.23.73-1.97.79z"/><path d="m82.97 36.62c-.15-.35-1.06-2.5-1.73-4.24l-5.74-15.28h-4.47s-1.27 3.58-1.45 4.17l-4.19 11.85c-.54 1.51-1.31 3.5-1.31 3.5h3.65s1.03-3.29 1.24-3.89l.56-1.64h6.32l.86 2.51c.18.47.93 2.99.94 3.02zm-12.51-8.31 2.12-6.32.13-.37 2.22 6.69h-4.48z"/><path d="m112.82 36.62c-1.06-1.52-1.45-2.14-2.26-3.25l-3.04-4.73c1.46-.72 2.84-1.94 3.05-4.47.13-1.59-.72-2.9-1.22-3.35-.73-.65-1.45-.92-2.46-1.04-.82-.11-1.4-.11-1.89-.14h-7.17s.08 2.34.08 3.69v9.6c0 1.35-.08 3.69-.08 3.69h4.41s-.13-2.34-.13-3.69l.03-3.08h1.64l2.79 5.11c.37.65.92 1.47 1.05 1.65h5.21-.01zm-7.8-9.47c-.66.34-2.14.25-2.88.2l.06-4.85.41-.03c1.35-.11 2.34.07 2.74.26.61.27.96.84.99 1.8.05 1.43-.49 2.19-1.33 2.62z"/></g><g fill="#14498b"><path d="m259.15 10.67-.18-.09.04-.1.51.23-.05.1-.19-.08-.24.54-.13-.06z"/><path d="m259.61 10.75.21.1-.09.56.39-.41.21.1-.31.64-.13-.06.26-.53-.43.44-.12-.06.08-.61-.26.53-.12-.06z"/><path d="m263.96 16.27v.02c2.41 2.44 4.01 5.73 4.27 9.43.57 8.18-5.59 15.27-13.77 15.84-3.84.27-7.45-.95-10.24-3.17v.02c2.89 2.71 6.87 4.25 11.14 3.95 8.18-.57 14.34-7.67 13.77-15.84-.29-4.13-2.24-7.75-5.17-10.25z"/><path d="m237.65 33.14c-.47.26-.58.66-.33 1.27.22.56.57.8.95.65.3-.12.35-.38.23-1.05l-.05-.26c-.12-.66-.14-.94-.06-1.23.08-.32.26-.53.54-.64.67-.27 1.31.14 1.68 1.09.41 1.02.19 1.79-.61 2.12l-.2-.5c.55-.24.69-.76.4-1.5-.24-.61-.63-.87-1.03-.71-.33.13-.4.43-.28 1.12l.05.29.04.25c.09.51.1.69.05.91-.07.27-.24.47-.52.58-.63.25-1.23-.12-1.58-.97-.37-.92-.17-1.61.54-1.92l.2.49h-.02z"/><path d="m237.23 27.79 2.25-1.9.02.7-1.91 1.58.62.68 1.34-.03.01.55-3.83.09-.01-.55 1.5-.04.21.01.2-.01-.13-.13-.13-.14-1.7-1.83-.01-.73z"/><path d="m238.92 21.86 1.48.52-.18.52-1.47-.52-2.65.8.22-.63 1.64-.46.2-.06c.08-.03.14-.03.28-.06-.13-.15-.16-.19-.29-.38l-1.01-1.37.21-.6 1.58 2.25h-.01z"/><path d="m241.51 14.83-.8.99 2.41 1.98-.58.71-2.42-1.98-.8.99-.55-.45 2.2-2.68z"/><path d="m246.68 11.21-1.93 1.13.41.7 1.77-1.04.33.57-1.77 1.04.48.81 1.97-1.15.35.61-2.76 1.61-1.93-3.3 2.72-1.59z"/><path d="m254.09 12.69-1 .06-.49-.83-1.54.25-.22.94-.95.25 1.01-4.18.94-.15 2.26 3.66zm-2.19-1.97c-.21-.35-.29-.51-.41-.78-.04.27-.07.48-.16.87l-.16.73 1.11-.18z"/><path d="m260.24 13.92-.81-.31.31-1.14c.03-.13.08-.32.15-.55.06-.24.12-.43.16-.56.05-.15.1-.31.15-.48l.09-.27c-.23.39-.32.52-.52.84-.09.14-.17.25-.24.35l-1.09 1.52-.7-.18-.22-1.83c-.02-.09-.03-.23-.04-.41 0-.24-.03-.42-.03-.55v-.46l-.09.46c-.11.5-.16.72-.32 1.32l-.32 1.23-.85-.13.96-3.74 1.29.25.18 1.77c.05.42.05.76.04 1.26.14-.28.2-.38.36-.63.11-.17.21-.32.29-.45l1.01-1.45 1.22.41-.99 3.73z"/><path d="m252.92 21.29c-.47.41-1.38 1.29-2.27 2.14l-1.01.96c-.82-.15-1.63-.22-2.47-.22-1.87 0-3.57.51-4.35 1.31-.3.31-.44.63-.44.98.02.9 1.05 1.36 1.37 1.47 1.65.62 3.05.44 4.5-.58.81-.56 1.78-1.47 2.53-2.2.59.14 1.26.31 1.98.52l.66.19c-.86.84-1.74 1.74-2.56 2.46l-.06.06c-1.14 1-1.96 1.73-3.15 1.99-.84.19-1.43.01-1.62-.11-.02 0-.05.04-.05.04.69.57 1.34.89 2.46.79 1.07-.09 2.3-.77 3.56-1.94l1.7-1.67 1.19-1.18 2.41.71s.04.01.04.01c-.02 0-1.49 1.45-1.49 1.45l-1.28 1.27c-1.31 1.27-2.03 1.93-2.79 2.48-1.27.9-2.35 1.37-3.31 1.43-.49.03-1.21 0-1.8-.35-.03 0-.06.03-.06.03.65.55 1.44 1.22 2.81 1.18 1.55-.04 2.91-.79 5.04-2.74.97-.89 1.94-1.89 2.79-2.77l1.58-1.6c1.04.23 1.97.33 3 .3 1.5-.03 2.78-.75 2.8-1.57.01-.61-.49-.93-.78-1.12-.25-.16-.92-.53-1.84-.53-1.12 0-2.3.5-3.49 1.47l-.79.7-.29-.08-2.2-.62c.65-.61 1.2-1.13 1.7-1.57 1.2-1.07 2.54-1.51 3.32-1.56.57-.04 1.56.01 1.97.3.02 0 .05-.04.05-.04-1.08-.93-2.02-1.05-2.8-1.05s-1.98.24-3.48 1.4c-.61.47-1.4 1.26-2.24 2.1l-1.11-.34-.27-.09-1.17-.35s.67-.63.67-.63c.79-.77 1.53-1.5 2.12-1.99 2.11-1.78 3.44-2.01 4.37-2.01 1.01 0 1.82.2 2.39.62.02 0 .04-.04.04-.04-1.19-1.07-2.04-1.42-3.51-1.43-1.29 0-2.84.71-4.35 2.03h-.02zm-8.3 6.33c-.69-.05-1.02-.33-1.02-.85 0-.07.05-1.74 3.88-1.94.44-.02.93-.04 1.67.05-.03 0-.44.37-.44.37l-.24.22c-.93.84-2.48 2.25-3.86 2.15zm15.53-1.36c1.1-.74 2.02-1.14 2.59-1.12.34.01.74.11.74.53s-.41.79-1.21 1.07c-.7.25-1.78.31-2.95.18.32-.29.59-.51.82-.67h.01z"/></g><path d="m133.11 45.4s7.72-6.31 27.22-6.31c14.69 0 23.5 4.69 40.68 4.69 15.46 0 25.77-5.31 25.77-5.31s-9.06 7.07-27.24 7.07-23.98-4.76-41.93-4.76-24.5 4.62-24.5 4.62z" fill="#ce3732"/></svg>