<svg viewBox="0 0 600.84 176.99" xmlns="http://www.w3.org/2000/svg" xmlns:xlink="http://www.w3.org/1999/xlink"><linearGradient id="a" gradientTransform="translate(-863.3 1344.76)" gradientUnits="userSpaceOnUse" x1="942.03" x2="1017.43" y1="-1216.91" y2="-1216.91"><stop offset="0" stop-color="#fff"/><stop offset="1" stop-color="#949598"/></linearGradient><linearGradient id="b" x1="989.27" x2="1025.77" xlink:href="#a" y1="-1262.73" y2="-1264.95"/><linearGradient id="c" x1="129.73" x2="91.91" xlink:href="#a" y1="37.44" y2="12.87"/><linearGradient id="d" gradientUnits="userSpaceOnUse" x1="34.93" x2="126.33" y1="56.05" y2="56.05"><stop offset="0" stop-color="#fff"/><stop offset=".07" stop-color="#e5e6e6"/><stop offset=".17" stop-color="#c8c8ca"/><stop offset=".28" stop-color="#b1b1b4"/><stop offset=".39" stop-color="#a0a1a4"/><stop offset=".52" stop-color="#97989a"/><stop offset=".69" stop-color="#949598"/></linearGradient><linearGradient id="e" gradientUnits="userSpaceOnUse" x1="12.02" x2="163.12" y1="78.96" y2="78.96"><stop offset="0" stop-color="#d62f8a"/><stop offset=".61" stop-color="#2f328d"/><stop offset="1" stop-color="#00aae9"/></linearGradient><linearGradient id="f" gradientUnits="userSpaceOnUse" x1="43.05" x2="159.53" y1="46.43" y2="46.43"><stop offset="0" stop-color="#00aae9"/><stop offset=".25" stop-color="#00aae9"/><stop offset=".6" stop-color="#00a259"/><stop offset=".91" stop-color="#fff249"/><stop offset="1" stop-color="#fff249"/></linearGradient><linearGradient id="g" gradientUnits="userSpaceOnUse" x1="8.14" x2="151.51" y1="122.02" y2="122.02"><stop offset="0" stop-color="#fff249"/><stop offset=".12" stop-color="#fff249"/><stop offset=".4" stop-color="#d83832"/><stop offset=".87" stop-color="#d62f8a"/><stop offset="1" stop-color="#d62f8a"/></linearGradient><g fill="#56565a"><path d="m586.98 107.01c2.35 0 4.23 1.91 4.23 4.32s-1.88 4.33-4.26 4.33-4.27-1.9-4.27-4.33 1.91-4.32 4.27-4.32h.02zm-.02.67c-1.9 0-3.45 1.63-3.45 3.65s1.55 3.66 3.47 3.66c1.92.02 3.45-1.61 3.45-3.64s-1.53-3.66-3.45-3.66h-.02zm-.8 6.16h-.77v-4.81c.4-.06.79-.12 1.36-.12.73 0 1.2.16 1.5.37.28.21.44.53.44 1 0 .62-.42 1-.94 1.16v.04c.43.07.71.45.81 1.16.12.76.23 1.04.31 1.2h-.8c-.12-.16-.24-.61-.33-1.23-.12-.61-.42-.84-1.03-.84h-.54v2.07zm0-2.67h.56c.64 0 1.17-.23 1.17-.83 0-.42-.31-.84-1.17-.84-.25 0-.42.02-.56.04v1.62z"/><path d="m450.71 79.37c-5.95 0-11.23 1.66-15.22 6.92-1.96-5.25-6.56-6.92-12.16-6.92s-10.7 2.15-14.42 6.7l-.21.18.76-5.82h-10.83c-3.07.12-5.55 2.37-6.08 5.32-1.92 12.82-4.28 25.59-6.67 38.34h11.1c2.99-.14 5.41-2.3 5.99-5.17.86-6.05 2.13-14.05 3.23-20.25.65-3.75 2.84-8.67 7.4-8.67 3.68 0 5.19 3.15 4.79 6.21-.21 1.66-4.68 28.01-4.68 28.01l10.69-.14c3.16-.15 5.7-2.55 6.09-5.65.92-6.13 2.16-14.39 3.26-20.47.65-3.57 3.03-7.96 7.31-7.96 3.85 0 5.07 3.42 4.67 6.57-.59 4.63-4.6 27.52-4.6 27.52h11.48c3.14-.15 5.67-2.53 6.09-5.59 2.05-12.52 4.61-25.34 4.86-27.31 1.09-8.58-5.06-11.82-12.85-11.82z"/><path d="m576.75 80.42h-18.29c-3.25 4.2-6.49 8.4-9.48 12.69l-4.16-12.69h-19.87l10.84 20.74-19.88 22.93h18.98l10.64-14.17 5.03 14.17h19.6c-3.93-7.62-7.86-15.14-11.43-22.93l18.03-20.74z"/><path d="m261.05 80.42c-2.83.11-5.17 2.04-5.93 4.66-.15-.01-6.74 39.21-6.74 39.21l12.44-.21c3.03-.14 5.46-2.36 6.01-5.26 1.66-12.79 6.12-38.37 6.12-38.37l-11.91-.03z"/><path d="m263.88 64.66v.06c-3.11.02-5.67 2.27-6.24 5.22l-.74 4.43h16.71l1.75-9.71h-11.49z"/><path d="m316.26 79.37c-5.94 0-11.01 1.88-15 7.14.02-.02 0-.26 0-.26l.76-5.82h-11.92c-3.07.12-5.55 2.37-6.07 5.32-1.92 12.82-6.15 38.34-6.15 38.34h12.08c3.16-.15 5.7-2.55 6.09-5.65.91-6.13 2.32-14.28 3.25-20.47.61-3.96 3.4-7.96 7.69-7.96 3.84 0 4.69 3.42 4.29 6.57-.58 4.63-4.3 27.52-4.3 27.52h11.2c3.13-.15 5.66-2.53 6.08-5.59 2.06-12.52 4.62-25.34 4.87-27.31 1.09-8.58-5.07-11.82-12.86-11.82z"/><path d="m238.08 110.42c-4.66 1.1-9.35 1.94-14.09 1.94-9.98 0-16.91-5.34-15.56-16.01 1.12-8.75 8.18-18.9 22.97-18.9 4.63 0 9.06 1.04 13.39 2.1l2.65-13.23c-5.06-.88-11.79-1.65-17.04-1.65-19.69 0-37.66 10.59-40.36 31.86-2.9 22.83 15.62 28.6 29.35 28.6 5.42 0 11-.52 16.44-1.31.26-1.59 1.19-7.05 2.26-13.4z"/><path d="m375.61 111.63c-4.64 1.26-9.52 2.48-14.16 2.48-5.78 0-11.16-2.45-10.29-9.26h30.1c.72-2.2 1.16-4.38 1.45-6.58 1.54-12.15-5.47-18.9-19.83-18.9-23.28 0-27.61 19.69-28.2 24.33-2.19 17.23 9.44 21.43 23.36 21.43 5.07 0 10.29-.61 15.4-1.65.74-3.95 1.45-7.89 2.17-11.85zm-13.61-23.05c4.72 0 6.72 2.94 5.99 8.65h-15.84c1.03-4.24 4.54-8.65 9.85-8.65z"/><path d="m510.53 111.63c-4.64 1.26-9.51 2.48-14.17 2.48-5.77 0-11.16-2.45-10.28-9.26h30.1c.72-2.2 1.17-4.38 1.44-6.58 1.55-12.15-5.47-18.9-19.82-18.9-23.28 0-27.62 19.69-28.21 24.33-2.18 17.23 9.44 21.43 23.36 21.43 5.07 0 10.29-.61 15.41-1.65.74-3.95 1.46-7.89 2.17-11.85zm-13.61-23.05c4.72 0 6.72 2.94 5.99 8.65h-15.83c1.03-4.24 4.54-8.65 9.85-8.65z"/></g><g fill-rule="evenodd"><path d="m80.33 114.13 21.55 19.28c27.61 6.94 47.18 4.71 52.37-5.31 1.2-2.4 1.72-4.81 1.59-7.23-16.99 7.65-42.15 5.41-75.51-6.73z" fill="url(#a)"/><path d="m160.36 68.1c-2.73 7.51-13.72 9.91-32.98 7.19l14.55 13.25c16.13.38 23.49-4.09 22.07-13.37-.19-2.52-1.38-4.89-3.63-7.07z" fill="url(#b)"/><path d="m133.01 32.4c-14.25-12.36-26.64-19.24-37.2-20.65-2.64 0-5.22 1.56-5.22 4.37 0 9.14 22.83 18.39 34.24 18.39 2.68.17 6.38-.46 8.17-2.1z" fill="url(#c)"/><path d="m126.33 87.57-19.01-16.96c-32.99-10.82-66.87-34.39-60.42-45.99-4.7-.63-8.62 2.29-11.73 8.85-4.26 15.19 47.78 48.08 91.15 54.1z" fill="url(#d)"/></g><path d="m163.85 75.02c2.69 11.64-.29 33.21-5.36 44.16-1.91 2.96-8.61 7.54-23.61 7.54-43.19 0-121.37-34.57-121.37-62.54 2.44-10.57 12.74-27.43 26.3-37.28-2.9 2.59-3.61 5.32-3.61 7.47 0 21.65 66.27 53.56 106.1 53.56 9.59 0 21.56-1.8 21.56-12.91z" fill="url(#e)"/><path d="m123.58 19.81c19.6 10.1 32.49 28.62 37.61 44.77.99 9.66-7.52 13.07-19.47 13.07-36.91 0-97.12-29.84-97.12-49.26.04-2.17 1.1-4.38 3.22-6.68 18.68-11.96 43.75-12.72 53.9-8.81-4.89-1.37-10.05-.17-10.05 3.45 0 5.23 18.75 17.12 34.47 17.12 1.45 0 7.08.09 7.08-3.74 0-3.11-4.83-7.15-9.63-9.92z" fill="url(#f)"/><path d="m10.81 73.69c-1.87 16.68 30.47 37.7 65.16 50.59 32.14 11.98 66.37 17 77.26 5.11-21.18 32.23-54.52 41.67-83.76 34.6-36.29-8.75-66.25-42.86-58.66-90.3z" fill="url(#g)"/><path d="m54.26 19.76c.49-.21.74-.14.57.18-.19.31-.92 1.16-1.41 1.4 0 0-4.39 2.17-4.59 2.17l.51-.93c.26-.46.88-1.03 1.36-1.23l3.55-1.59zm-.31 2.65.02.79c0 .53-.38 1.18-.85 1.42l-3.82 1.99c-.48.25-.87.19-.87-.13s.38-1.39.87-1.66c0 0 2.92-1.6 4.65-2.41zm-.44 4.13c.46-.26 1.03-.07 1.24.41 0 0-.01.04.13.41.15.37-.11.9-.57 1.16 0 0-3.96 2.22-4.69 2.67l-.55-1.11c-.23-.48-.05-1.09.41-1.35l4.03-2.2zm-.31 8.49c-.45.29-1.03.22-1.31-.17-.27-.38-.71-1.7-.25-1.98l3.87-2.36c.46-.27 1.05-.17 1.32.2.26.38.73 1.52.28 1.81l-3.91 2.51zm3.54 5.26-2.38-2.37c.19 0 4.55-3.18 4.55-3.18.43-.31 1.08-.25 1.43.16l.8.8c.39.35.37.9-.07 1.22 0 0-2.86 2.13-4.34 3.38zm6.45 4.09c-.4.35-1.09.39-1.51.05l-1.54-1.08c-.42-.34-.42-.9-.01-1.24l3.45-2.9c.41-.34 1.09-.34 1.5 0l1.28 1.05c.4.35.4.94 0 1.29l-3.16 2.82zm6.67 4.7c-.38.37-1.04.44-1.49.14l-1.96-1.27c-.43-.3-.49-.86-.12-1.24l3.16-2.98c.4-.36 1.06-.42 1.5-.12l2.53 1.73c-.48.6-3.63 3.75-3.63 3.75zm6.51-.92c.34-.4 1-.51 1.45-.23l1.96 1.17c.46.25.6.8.28 1.24l-2.45 3.35c-.29.45-.92.6-1.39.34l-3.27-1.83c.75-.92 3.43-4.04 3.43-4.04zm9.79 9.88c-.25.47-.84.67-1.32.45l-2.73-1.41c-.49-.23-.66-.79-.37-1.23l2.32-3.51c.29-.44.92-.61 1.39-.36 0 0 2.91 1.53 3.08 1.53l-2.36 4.52zm8.96 3.91c-.22.47-.81.71-1.3.5l-2.81-1.27c-.5-.2-.71-.76-.48-1.24l1.8-3.57c.23-.49.82-.71 1.32-.52l2.58 1.08c.5.21.72.79.51 1.27l-1.62 3.74zm5.98-2.17c.18-.51.73-.74 1.23-.51l2.46.86c.5.17.8.73.67 1.25l-1.08 3.85c-.15.51-.67.8-1.18.65l-2.89-.98c-.51-.17-.77-.73-.59-1.23l1.39-3.88zm28.87 6.47c.53.08.97.59.98 1.12l.21 5.29c-.39 0-3.19-.44-3.19-.44-.54-.07-.96-.59-.96-1.11v-4.36c0-.53.42-.9.96-.82l2 .33zm7.14.61c.54.04 1.04.51 1.13 1.04 0 0 .83 5.15.83 5.36l-2.78-.15c-.54-.03-1.02-.49-1.09-1.01l-.49-4.39c-.06-.53.32-.93.86-.9l1.54.06zm6.32-.06c.53-.04 1.08.36 1.21.88l1.12 4.42c.12.53-.22.98-.76 1.03l-1.33.1c-.53-.02-1.07-.42-1.17-.96 0 0-1.01-4.78-1.01-5.39l1.94-.1zm12.37 2.72c.18.5-.07 1.07-.55 1.27 0 0-.1 0-.48.18-.39.16-.85-.11-1.02-.63l-1.46-4.25c-.17-.5 0-1.05.34-1.23.36-.17 1.39-.1 1.58.41zm2.5-1.05c-.28.3-.68.15-.9-.34 0 0-2.06-4.7-2.06-4.9s.47-.72.47-.72c.37-.39.84-.33 1.06.17l1.76 3.94c.2.49-.06 1.53-.34 1.84zm-.59-7.23c-.18-.5-.29-1.15-.22-1.46.08-.31.51-.55.74-.07l1.57 3.57c.21.49.31 1.31.2 1.83-.1.59-.37.63-.57.12l-1.71-4zm-45.18 7.6c.51.16.97-.14 1.03-.67l.68-4.25c.08-.52-.27-1.06-.8-1.19l-2.47-.67c-.5-.15-1.02.16-1.14.69l-.86 4.06c-.12.52.21 1.08.73 1.24l2.84.8zm8.99 2.23c.53.1.99-.23 1.04-.76l.25-4.39c.03-.52-.37-1.05-.89-1.14l-2.33-.41c-.52-.11-1 .23-1.04.75l-.33 3.62-.09 1.15c0 .11.44.49.95.59l2.45.59zm29.22 1.18c.54-.1.84-.6.67-1.12l-1.42-4.45c-.15-.52-.62-.85-1.06-.73-.44.11-1.49.82-1.37 1.33l1.13 4.45c.13.52.64.85 1.13.74l.92-.2zm-1.57 49.38c.53-.06 1.1-.57 1.25-1.07l1.21-4.11c.14-.52-.17-.82-.69-.68l-1.48.49c-.52.13-1.07.66-1.21 1.16l-1.22 3.67c-.15.5.15.86.68.77l1.46-.24zm-26.62.34c.54.05 1.1-.32 1.26-.82l1.33-3.91c.16-.51-.16-.97-.68-1.03l-3.61-.53c-.52-.09-1.11.25-1.29.74l-1.28 3.9c-.17.51.14 1 .65 1.09l3.61.56zm-9.15-7.6c.53.12.81.63.64 1.13l-1.39 3.9c-.18.49-.73.82-1.25.7l-3.97-.8c-.53-.13-.81-.64-.64-1.15l1.37-4.07c.16-.51.72-.82 1.23-.71zm45.09 3.04c-.37.37-.55.27-.39-.24l1.21-3.88c.15-.52.57-1.26.92-1.65l.62-.62c.35-.41.43-.39.27.14l-1.2 3.67c-.19.53-.48 1.54-.82 1.94zm-1.77-3.3c.49-.19.76.06.61.56l-1.2 3.87c-.16.52-.7 1.11-1.19 1.31-.47.2-1.54.21-1.39-.3l1.23-3.89c.14-.51.68-1.05 1.19-1.21l.74-.34zm-17.29 8.88c-.54.02-.85-.38-.69-.9l1.24-3.86c.13-.52.69-.96 1.23-.99l2.4-.25c.53-.05.84.33.68.83l-1.39 4.09c-.16.51-.73.93-1.28.96zm-9.68-.31c-.53-.02-.82-.45-.65-.95l1.25-3.88c.15-.52.72-.9 1.25-.84l2.92.2c.52.06.85.51.71 1.03l-1.14 3.71c-.16.49-.73.89-1.26.88zm-34.55-6.78c-.51-.17-.77-.69-.59-1.19l1.45-3.81c.19-.49.76-.78 1.27-.62l4.26 1.23c.51.14.76.67.57 1.17l-1.48 3.91c-.18.49-.75.77-1.27.62zm-12.18-3.97c-.51-.18-.79-.74-.62-1.25l1.43-3.91c.19-.53.74-.77 1.23-.59l4.31 1.71c.49.19.75.72.57 1.23l-1.44 3.8c-.17.5-.73.76-1.23.6l-4.25-1.58zm-5.89-8.64c.49.21.74.8.56 1.3 0 0-1.64 4.21-1.64 4.62l-5.21-2.02c-.5-.2-.74-.76-.54-1.25l1.59-3.87c.19-.49.77-.74 1.26-.53zm-16.83-6.62c.19-.49.75-.7 1.23-.47l3.99 1.89c.48.25.69.85.48 1.34l-1.61 3.76c-.21.49-.78.69-1.26.46l-3.82-1.86c-.48-.22-.72-.81-.53-1.29l1.52-3.82zm-6.02-4.34c.46.27.68.88.48 1.38l-1.46 3.73c-.19.49-.75.69-1.21.43l-3.64-2c-.46-.27-.67-.89-.45-1.38l1.59-3.54c.22-.49.78-.7 1.25-.45l3.43 1.83zm-10.05-5.78c.46.28.64.93.41 1.43l-1.56 3.54c-.21.49-.76.63-1.18.33l-2.94-1.98c-.43-.3-.62-.97-.38-1.46l1.58-3.46c.22-.47.76-.63 1.2-.34l2.89 1.93zm-10-1.26c-.2.49-.75.62-1.17.31l-2.4-1.94c-.41-.35-.54-1.04-.31-1.51l1.62-3.49c.24-.45.78-.57 1.2-.24l2.32 1.73c.42.31.6.97.37 1.46l-1.63 3.69zm-5.85-11.33c.38.37.49 1.08.27 1.56l-1.77 3.78c-.21.48-.71.59-1.1.23l-1.74-1.87c-.34-.41-.43-1.15-.2-1.62l1.64-3.47c.24-.49.73-.57 1.1-.21zm-7.51-7.47c.24-.47.69-.51 1.01-.08l.86 1.34c.33.42.4 1.16.17 1.64l-1.77 3.76c-.21.49-.61.53-.91.08l-1.02-1.42c-.29-.45-.34-1.22-.13-1.7l1.78-3.62zm-3.44.95c-.22.49-.62.51-.88.04l-.27-.66c-.25-.48-.25-1.26-.02-1.74l1.73-3.76c.23-.49.6-.49.84-.03l.36.78c.25.47.26 1.24.04 1.72zm.13-11.48c.25-.48.4-.43.35.09l-.1 1.04c0 .53-.19 1.36-.4 1.84l-2.17 4.65c0-1.18.12-2.4.12-2.4.05-.52.28-1.34.52-1.83l1.69-3.4zm127.02 81.87c.34-.42.95-.91 1.38-1.07s1.11-.16.78.26l-2.72 3.69c-.34.41-1.01.92-1.51 1.14l-1.3.53c0-.19 3.36-4.56 3.36-4.56zm-5.79 4.69c-.31.42-.98.86-1.52.96l-1.41.31c-.51.1-.69-.18-.38-.62l2.81-3.76c.31-.41.99-.88 1.51-1l1.47-.33c.51-.12.7.12.38.56l-2.87 3.88zm-7.06 1.26c-.31.42-1.01.8-1.54.83l-2.2.1c-.55.02-.73-.31-.41-.74l2.43-3.54c.3-.44.99-.84 1.52-.91l2.41-.22c.53-.03.73.3.42.74l-2.64 3.74zm-34.38-2.55c-.51-.13-.74-.61-.47-1.08l2.04-3.82c.26-.47.88-.76 1.4-.64l3.82.96c.54.1.74.59.49 1.04l-2.02 3.66c-.25.45-.9.73-1.43.63l-3.83-.76zm-11.46-3.12c-.51-.14-.74-.66-.51-1.14l1.76-3.68c.22-.47.83-.76 1.34-.61l4.03 1.14c.51.14.75.53.53.85l-1.74 3.69c-.24.46-.43.91-.43.97 0 .04-.62.16-1.12 0l-3.87-1.24zm-17.23-12.28c.5.21.73.77.55 1.27l-1.48 3.7c-.19.51-.75.76-1.25.57l-3.94-1.62c-.48-.22-.72-.8-.54-1.31l1.31-3.72c.18-.49.73-.76 1.22-.54l4.13 1.64zm-12.25.02c-.16.52-.68.75-1.17.53l-3.58-1.72c-.48-.24-.75-.87-.62-1.39l1.08-3.86c.14-.5.66-.73 1.15-.5l3.76 1.74c.49.22.76.83.62 1.35l-1.23 3.86zm-10.21-10.79c.47.26.73.88.6 1.4l-1.08 4.06c-.13.52-.63.72-1.1.47l-3.25-1.82c-.46-.27-.74-.89-.62-1.43l1.16-4.98zm-9.85-5.97c.46.29.73.93.61 1.46l-.98 4.22c-.11.52-.56.72-1.01.42l-2.72-1.85c-.44-.3-.72-.98-.64-1.5l.79-4.31c.1-.52.53-.69.97-.39l2.98 1.94zm-8.74-6.25c.43.32.71 1.02.62 1.54l-.79 4.45c-.08.54-.47.68-.88.34l-2.2-1.85c-.42-.35-.7-1.07-.64-1.59l.67-4.26c.08-.54.5-.69.92-.37l2.31 1.74zm-6.43-5.29c0 .38-.66 5.35-.66 5.35-.08.53-.45.68-.85.3l-1.56-1.62c-.38-.37-.63-1.11-.57-1.64l.5-4.49c.07-.52.43-.64.8-.26l2.33 2.37zm-10.44-6.24c-.23-.48-.4-1.31-.33-1.84l.4-4.38c.05-.53.3-.59.56-.13.25.46.61 1.47.55 2.01l-.53 4.68c-.05.53-.27.62-.49.18-.21-.43-.16-.51-.16-.51zm2.72 4.52c-.3-.45-.52-1.23-.46-1.75l.56-4.45c.06-.53.38-.61.69-.19l.77 1.08c.35.39.59 1.15.53 1.69l-.44 4.77c-.03.54-.32.63-.66.22l-.99-1.36zm64.64 39.91c.51.19 1.08-.07 1.29-.57l1.75-3.7c.21-.49-.03-1.03-.53-1.2l-4.24-1.54c-.49-.2-1.05.04-1.24.55l-1.49 3.91c-.19.49.07 1.03.58 1.18l3.87 1.37zm33.73 8.13c.53.06 1.2-.27 1.49-.72l2.29-3.66c.26-.46.04-.88-.48-.96l-3.54-.53c-.53-.09-1.16.21-1.42.69l-2.22 3.84c-.26.45-.05.88.49.94l3.4.38zm9.87.8c.53.05 1.2-.29 1.49-.73l2.39-3.69c.31-.45.12-.84-.43-.85l-3.02-.09c-.54-.03-1.2.32-1.47.78l-2.36 3.58c-.3.44-.1.84.43.89zm-94-7.22c-.19 0-1.33-1.26-1.33-1.26-.35-.39-.87-1.1-1.12-1.56l-2.41-4.44c-.25-.45-.18-.52.17-.11l.85.76c.37.38.87 1.08 1.08 1.55 0 0 1.17 2.52 2.77 5.05zm4.45 3.5c.26.47.16.53-.24.18l-1.45-1.15c-.43-.3-.97-.96-1.18-1.45l-1.6-3.56c-.21-.48-.02-.65.42-.34l.98.65c.43.33.97.97 1.2 1.46l1.86 4.21zm4.15 3.35c-.45-.29-1.01-.93-1.24-1.41l-1.77-3.74c-.21-.49 0-.65.44-.38l1.73 1.16c.44.31.93.96 1.09 1.47l1.42 3.45c.21.49.05.62-.38.3l-1.28-.85zm6.41.02c.46.25.94.88 1.07 1.39l.6 2.67c.16.49-.08.7-.55.45l-1.62-.91c-.46-.26-1-.88-1.19-1.39l-.99-3.1c-.15-.52.11-.71.57-.45l2.11 1.33zm16.67 7.96c.49.2.76.79.6 1.3l-.51 1.66c-.14.51-.68.77-1.17.57l-1.95-.74c-.5-.21-.86-.81-.83-1.34l.24-2.01c.08-.5.56-.78 1.05-.57l2.58 1.13zm8.77 3.27c.51.15.69.65.39 1.09l-1.18 1.68c-.31.44-.98.64-1.48.46l-1.93-.68c-.5-.18-.73-.72-.5-1.19l.84-1.75c.23-.49.82-.72 1.32-.53zm4.56 2.56c.34-.43 1.03-.65 1.54-.51l2.66.73c.52.15.62.56.22.92l-1.71 1.46c-.4.34-1.15.53-1.67.41l-1.99-.62c-.51-.16-.65-.6-.28-1l1.24-1.39zm12.87 2.27c.53.1.59.4.15.7l-2.86 1.61c-.47.23-1.29.34-1.81.22l-1.66-.36c-.52-.13-.59-.46-.12-.75l2.03-1.46c.41-.33 1.18-.53 1.7-.45l2.58.48zm1.07 3.63c-.52-.07-.55-.32-.06-.53l3.23-1.7c.46-.24.9-.43.96-.43s.53.06 1.07.14l1.97.31c.53.08.55.33.07.53l-4.78 1.97c-.39 0-2.46-.29-2.46-.29zm10.39.61c-.5.18-1.35.31-1.89.27l-1.92-.1c-.54-.05-.56-.23-.05-.41l4.54-1.62c.47-.23 1.3-.41 1.84-.38l1.41.1c.53.02.58.25.11.51l-4.04 1.64zm8.26-2.09c.99 0 2.4-.11 2.4-.11.54-.04.56.06.06.26l-5.11 1.7c-.51.18-1.59.44-2.12.46h-.57c-.53.03-.57-.09-.07-.28zm-56.18-10.85c-.48-.21-.96-.84-1.08-1.35l-.33-2.44c-.03-.53.32-.76.79-.5l2.24 1.05c.47.25.83.88.81 1.43l.11 1.98c.01.53-.37.79-.86.57zm115.54-63.76c.03-1.18-.1-5.52-.1-5.52-.01-.57-.07-.92-.12-.55-.06.39-.27 1.92-.24 2.46l.14 3.21.1 1.05c0 .06.14-.34.22-.65zm-2.1-2.02c.23-.33.43-.17.48.37l.27 3.6c.03.53-.13 1.28-.34 1.66-.23.37-1.19.85-1.19.33l-.15-3.8c-.03-.54.73-1.84.94-2.16zm-9.03 10.44c.51-.1.94-.61.94-1.15v-3.98c0-.54-.43-.9-.94-.8l-1.26.23c-.53.1-.96.61-.96 1.16v3.98c0 .53.43.9.96.8l1.26-.25zm-6.94 1.08c.53-.03.99-.49 1.02-1.04l.12-3.99c.02-.53-.4-.93-.94-.89l-2.01.05c-.54.05-.98.52-1.01 1.05l-.11 3.99c-.03.53.39.96.92.96l2.01-.14zm-28.21-2.45c.52.12 1.03-.22 1.12-.75l.83-4.02c.09-.52-.25-1.02-.78-1.12l-3.41-.65c-.52-.1-1.06.25-1.19.77l-.92 3.84c-.13.53.21 1.04.73 1.14l3.63.79zm-11.04-2.65c.51.16 1.03-.12 1.14-.65l1.1-3.84c.14-.52-.16-1.05-.67-1.18l-3.67-1.08c-.5-.15-1.05.16-1.2.66l-1.11 3.72c-.13.52.18 1.08.68 1.24l3.72 1.13zm-76.36-55.86c-.39.37-.74.68-.78.7s.12-.31.38-.77c0 0 .36-.73.61-1.18.27-.46.8-1.11 1.2-1.47l2.08-1.7c.39-.35.55-.35.34-.04-.22.33-.92 1.68-1.32 2.04l-2.52 2.43zm1.95-.23c.39-.38.66-.32.61.12-.06.43-.22 1.88-.61 2.25l-2.96 2.79c-.37.37-.67.25-.67-.29v-.42c0-.54.3-1.29.67-1.66zm-2.06 10.78c0-.2-.61-1.67-.61-1.67-.21-.49-.08-1.21.29-1.6l2.62-2.74c.37-.38.87-.31 1.13.15 0 0 .71 1.31.71 1.52l-4.15 4.34zm4.21 4.42c-.36.39-.92.37-1.23-.07l-.83-1.21c-.31-.41-.28-1.09.09-1.47l2.81-2.94c.37-.38.92-.33 1.22.11l.86 1.18c.32.44.27 1.09-.1 1.48zm5.1 5.7c-.35.41-.93.43-1.31.06l-1.39-1.39c-.38-.38-.39-1.02-.04-1.43l2.66-3.08c.34-.41.95-.41 1.33-.04l2.08 2.09c-.19 0-3.32 3.79-3.32 3.79zm5.86-.28c.35-.41.97-.47 1.38-.13l1.86 1.52c.42.35.49.98.18 1.41l-2.42 3.36c-.31.43-.9.51-1.31.18l-2.82-2.34c0-.2 3.13-3.99 3.13-3.99zm9.06 11.87c-.29.45-.9.55-1.33.24l-2.55-1.86c-.44-.31-.54-.9-.25-1.34l2.27-3.34c.29-.44.9-.56 1.34-.26l2.51 1.7c.46.29.6.9.29 1.35l-2.29 3.51zm9.43 5.49c-.27.45-.87.64-1.34.38l-3.05-1.82c-.47-.27-.62-.86-.33-1.31l2.13-3.49c.28-.45.9-.6 1.36-.33l2.86 1.78c.47.27.63.87.36 1.33l-1.99 3.45zm11.84.27c.5.2.71.77.48 1.24l-1.94 3.78c-.21.48-.78.69-1.26.45l-3.59-1.7c-.49-.24-.67-.82-.43-1.29l1.92-3.72c.25-.49.84-.68 1.32-.46l3.5 1.69zm10.48 4.73c.48.21.72.78.54 1.28l-1.49 3.73c-.19.49-.74.74-1.24.53l-3.73-1.59c-.49-.23-.71-.81-.47-1.29l1.72-3.7c.22-.48.81-.71 1.3-.52l3.38 1.56zm11.02 4.02c.5.18.77.73.6 1.23l-1.31 3.71c-.18.49-.75.77-1.26.63l-3.87-1.21c-.52-.16-.78-.69-.6-1.19l1.51-3.92c.19-.49.75-.75 1.25-.55l3.69 1.31zm32.52 7.62c0 1.18-.48 4.96-.48 4.96-.06.54-.55.92-1.09.86l-3.2-.37c-.54-.07-.91-.55-.84-1.08l.71-4.01c.08-.53.58-.9 1.11-.83l3.77.46zm8.31.74c.53.04.94.49.9 1.03l-.24 3.99c-.06.53-.53.94-1.05.92 0 0-2.8-.15-3.6-.15l.52-4.97c.06-.53.52-.94 1.06-.9l2.4.09zm19.62 3.4c-.48.22-.87-.03-.87-.57l-.16-4.19c-.02-.53.34-1.08.8-1.21.46-.15 1.55-.11 1.57.42l.17 3.8c0 .54-.41 1.15-.88 1.38l-.62.38zm-52.02-58.95c-.21.49-.75.71-1.21.5-.45-.2-1.59-.94-1.31-1.4l1.08-1.9c.25-.46.78-.73 1.18-.59.41.13 1.3.97 1.09 1.46l-.84 1.94zm19.06 6.24c.54.1.8-.23.6-.72l-1.11-2.76c-.21-.47-.68-.95-1.04-1.02-.37-.07-1.25.16-1.08.66l.9 2.68c.16.49.67.96 1.11 1.03.43.06.63.13.63.13zm-4.9-.82c.5.1.83-.23.73-.76l-.6-2.47c-.13-.51-.53-1.03-.93-1.12-.38-.11-1.26.05-1.19.58l.3 2.43c.08.54 1.18 1.22 1.68 1.33zm-4.99-1.27c.48.17.87-.14.85-.67l-.03-2.38c0-.53-.36-1.07-.76-1.18-.41-.11-1.55.03-1.59.57l-.26 2.2c-.03.53 1.31 1.3 1.8 1.47zm-6.7-3.2c-.16.51.05 1.06.49 1.22.43.16 1.87.25 1.97-.25l.36-2.06c.13-.52-.11-1.08-.53-1.24-.42-.17-1.48-.09-1.66.42l-.64 1.92zm-28.01-20.62c0-.24.42-.46.95-.48l4-.05c.54 0 .98.16.98.36s-.43.57-.98.59l-3.98.17c-.52.04-.97-.34-.97-.6zm10.17-4.88c.5.12.6.25.23.31-.37.05-1.31.03-1.82-.06l-1.55-.27c-.53-.07-.53-.17.01-.22l.33-.03.93-.09c.11-.01 1.4.27 1.88.37zm-1.97 1.09c-.16.09-.73.12-1.26.07l-4.1-.43c.22-.13.32-.16.32-.16.5-.17 1.35-.26 1.9-.21l2.81.27c.53.06.5.36.33.46zm-1.86.56c.53.06.89.17.78.24-.08.08-.84.46-1.39.42l-3.58-.25c-.53-.04-.78-.26-.57-.48.22-.21.83-.36 1.36-.33l3.39.4zm-.98 1.27c.52.02.88.15.78.31-.11.15-.64.47-1.16.46l-3.8-.13c-.53.01-.87-.21-.75-.48l4.93-.15zm1.15 4.3-4.91.5c-.54.05-1.06-.1-1.18-.34-.12-.25.23-.69.75-.75 0 0 3.18-.29 4.97-.29 0 0 .26.62.37.88zm-.43 1.15c.52-.07 1.1.02 1.24.2.16.18.16.79-.37.88l-3.65.57c-.53.1-1.06.04-1.19-.13-.14-.16-.21-.94.32-1.02l3.65-.51zm-1.27 4.21c-.53.17-1.12.1-1.35-.14-.23-.25-.38-1.09.14-1.2l3.42-.79c.51-.11 1.06-.08 1.2.08s.22.91-.28 1.07l-3.14.98zm3.06 2.6c-.49.21-1.09.22-1.34.02-.26-.21-.78-1.06-.28-1.24l3.06-1.11c.5-.18 1.11-.17 1.36.01.26.18.64.9.14 1.11l-2.95 1.21zm3.88 2.45c-.45.27-.87.54-.92.61-.05.05-.44-.17-.87-.49l-.54-.35c-.44-.29-.41-.73.06-.97l2.79-1.36c.49-.23 1.19-.21 1.54.04.37.25.69.89.23 1.16l-2.29 1.37zm4.04 2.62c-.39.37-1.1.42-1.56.15l-.52-.44c-.46-.25-.49-.73-.06-1.06l2.11-1.45c.44-.31 1.14-.37 1.58-.13.43.24.83.92.43 1.27l-1.97 1.66zm4.7 2.28c-.33.43-.98.56-1.46.32 0 0-1.4-.77-1.6-.77l2.3-2.45c.38-.38 1.01-.54 1.42-.32.43.21 1.08 1 .76 1.44zm29.48 8.82s-1.58-.2-2.18-.2l-1.78-3.66c-.23-.48-.05-.87.42-.87s1.05.38 1.33.83c0 0 2.22 3.71 2.22 3.91zm3.76-.15c-.18 0-1.72.12-1.72.12 0-.2-2.51-3.92-2.51-3.92-.29-.44-.29-.81.03-.79.3 0 1.21.35 1.51.8zm2.62-.49c-.53.11-1.22-.14-1.53-.56l-2.3-2.98c-.33-.42-.42-.81-.21-.86.23-.06 1.15.06 1.47.48 0 0 2.95 3.78 3.15 3.78zm2.61-.89c-.48.19-1.13.02-1.47-.39l-2.5-2.87c-.34-.4-.49-.79-.31-.86.19-.08.88 0 1.26.39l3.36 3.48-.34.24zm-2.34-4.3c-.37-.37-.44-.87-.12-1.12l3.67 3.14c.39.36.59.8.44.99-.16.18-.78.21-1.16-.18l-2.82-2.83zm1.03-1.4c-.4-.36-.66-.75-.57-.88.08-.11.58-.1.99.25l3.59 2.94v.39c-.18.36-.65.35-1.03-.01l-2.98-2.68zm.59-1.35c-.43-.32-.75-.76-.74-.94.02-.19.18-.27.61.05l2.62 1.98c.42.31.8.8.84 1.09.03.28-.29.23-.69-.1zm-.3-1.73c-.45-.3-.92-.92-1.07-1.36l-.14-.37s3.59 2.54 3.75 2.77c.17.22.8 1.18.8 1.38 0-.2-3.34-2.42-3.34-2.42zm-1.19-2.17c-.44-.3-.89-.68-1-.83-.11-.16-.04-.45.41-.15l1.96 1.27c.43.3 1.02.93 1.29 1.38 0 0 .1.16.28.36-.19-.2-2.94-2.03-2.94-2.03z" fill="#fff" fill-rule="evenodd"/></svg>