<svg enable-background="new 0 0 7802.8 4700.9" viewBox="0 0 7802.8 4700.9" xmlns="http://www.w3.org/2000/svg"><path d="m3901.7 559.2c-1112 0-2013.8 901.5-2013.8 2013.2 0 1111.9 901.8 2013.8 2013.8 2013.8 1111.8 0 2013.2-901.8 2013.2-2013.8 0-1111.8-901.5-2013.3-2013.2-2013.2m0 3868.8c-1024.6 0-1855.5-831-1855.5-1855.6s830.9-1855.3 1855.5-1855.3 1855 830.8 1855 1855.2-830.5 1855.7-1855 1855.7" fill="#0a1e3f"/><path d="m3901.7 717.1c-1024.6 0-1855.5 830.8-1855.5 1855.1 0 1024.7 830.9 1855.8 1855.5 1855.8s1855-831 1855-1855.8c0-1024.3-830.5-1855.1-1855-1855.1m0 3610.6c-969.5 0-1755.3-785.6-1755.3-1755.5 0-969.1 785.9-1755 1755.3-1755 969.1 0 1754.8 785.9 1754.8 1755 0 969.9-785.7 1755.5-1754.8 1755.5" fill="#95b6e5"/><path d="m3901.7 817.2c-969.5 0-1755.3 785.9-1755.3 1755.4s785.9 1755.1 1755.3 1755.1c969.1 0 1754.8-785.6 1754.8-1755.1s-785.7-1755.4-1754.8-1755.4" fill="#0a1e3f"/><path d="m3619.5 3113.1h368.6c146 0 247.6-51.9 247.6-197.6 0-155.9-108.8-207.8-247.6-207.8h-368.6zm0-702.2h356c79.2 0 188.3-41.9 188.3-168.1 0-128.4-91.5-170.9-188.3-170.9h-356zm-460-695.1h826c304.5-4.8 638.4 74.2 638.4 442.6 0 158.2-94.2 287.1-232.8 356.4 188.3 54.5 304.3 217.5 304.3 418 0 420.5-308.9 549.2-687.4 549.2h-848.5z" fill="#fff"/><path d="m5888.5 4155.1c0 97-78.1 174.2-177.2 174.2-99.5 0-178.5-77.2-178.5-174.2 0-97.3 79.1-173.2 179.4-173.2 98.2-.1 176.3 75.8 176.3 173.2zm-311.4 0c0 76.8 58.3 138.3 135.1 138.3 75.2 1.1 132.1-61.4 132.1-137.4 0-77.1-57.1-139.4-134.3-139.4-74.6-.1-132.9 62.3-132.9 138.5zm106.8 89.7h-40.3v-173.3c15.8-2.1 38-5.2 66.4-5.2 32.9 0 47.6 5.2 59.2 13.7 10.7 7.4 18 20.1 18 36.9 0 21-16 34.9-36.1 41.3v2c17.1 5.3 25.3 18.9 30.8 42.2 5.3 26.4 9.6 36 12.5 42.3h-42c-5.2-6.4-8.5-21.2-13.6-42.3-3.4-17.8-13.9-26.4-36-26.4h-18.9zm1-97.1h19.1c22 0 40-7.5 40-25.5 0-15.9-11.6-26.3-36.9-26.3-10.7 0-18 .9-22.3 2.1z" fill="#0a1e3f"/></svg>