<svg viewBox="0 0 87.29 37.16" xmlns="http://www.w3.org/2000/svg"><path d="m79.94 25.4c-.23 0-.38-.16-.38-.38v-11.27h-3.83c-.23 0-.38-.16-.38-.38v-1.55c0-.23.16-.38.38-.38h10.19c.23 0 .38.16.38.38v1.55c0 .23-.16.38-.38.38h-3.83v11.27c0 .23-.16.38-.38.38h-1.76m-29.32-5.63-2.01-5.76-2.03 5.76zm4.46 5.17c.09.23-.05.46-.3.46h-1.82c-.26 0-.42-.12-.51-.37l-1.03-2.97h-5.64l-1.03 2.97c-.09.25-.24.37-.51.37h-1.71c-.23 0-.38-.23-.3-.46l4.74-13.17c.09-.25.24-.35.51-.35h2.34c.26 0 .44.1.52.35zm13.57-1.43c1.12 0 1.87-.54 2.48-1.47l-2.83-3.04c-1.08.61-1.78 1.22-1.78 2.45s.98 2.06 2.13 2.06m.79-10.24c-.91 0-1.43.58-1.43 1.35 0 .59.31 1.12 1.03 1.89 1.24-.72 1.77-1.15 1.77-1.92 0-.72-.45-1.31-1.36-1.31m7.74 11.63c.23.25.09.49-.19.49h-2.22c-.3 0-.45-.07-.65-.3l-1.33-1.47c-.89 1.19-2.13 2.08-4.19 2.08-2.55 0-4.56-1.54-4.56-4.17 0-2.03 1.08-3.11 2.73-4.02-.8-.93-1.17-1.9-1.17-2.76 0-2.17 1.52-3.65 3.81-3.65s3.78 1.38 3.78 3.42c0 1.75-1.26 2.72-2.59 3.46l1.96 2.11 1.1-1.92c.14-.23.3-.31.58-.31h1.7c.28 0 .44.19.26.49l-1.96 3.35 2.95 3.2m-17.44.49c.23 0 .39-.16.39-.38v-11.27h3.83c.23 0 .38-.16.38-.38v-1.55c0-.23-.16-.38-.38-.38h-10.19c-.23 0-.38.16-.38.38v1.55c0 .23.16.38.38.38h3.83v11.27c0 .23.16.38.38.38z" fill="#221f20"/><path d="m8.02 32.19c2.96 2.29 6.68 3.67 10.72 3.67 4.42 0 8.44-1.64 11.52-4.33.04-.03.02-.05-.02-.03-1.38.92-5.31 2.93-11.5 2.93-5.38 0-8.78-1.2-10.7-2.27-.04-.02-.05 0-.02.03m11.91.89c4.3 0 9.03-1.17 11.86-3.49.77-.63 1.51-1.47 2.17-2.61.38-.65.75-1.42 1.05-2.18.01-.04 0-.06-.04-.01-2.63 3.87-10.24 6.28-18.1 6.28-5.56 0-11.54-1.78-13.88-5.17-.02-.03-.05-.02-.03.02 2.18 4.63 8.8 7.17 16.97 7.17m-4.7-7.69c-8.95 0-13.17-4.17-13.93-7.01 0-.04-.04-.03-.04 0 0 .96.1 2.19.26 3.01.08.4.4 1.03.88 1.53 2.17 2.26 7.57 5.42 16.92 5.42 12.74 0 15.66-4.25 16.25-5.64.43-1 .65-2.8.65-4.32 0-.37 0-.66-.02-.95 0-.05-.03-.05-.04 0-.64 3.42-11.53 7.96-20.93 7.96m-12.28-14.5c-.51 1.02-1.08 2.73-1.25 3.62-.07.38-.04.56.09.85 1.07 2.27 6.5 5.92 19.15 5.92 7.72 0 13.71-1.9 14.69-5.36.18-.64.19-1.31-.04-2.22-.26-1.01-.74-2.19-1.14-3.02-.01-.03-.04-.02-.03 0 .15 4.54-12.51 7.46-18.89 7.46-6.92 0-12.69-2.76-12.69-6.24 0-.33.07-.67.16-1.02 0-.03-.02-.04-.03 0m27.34-5.57c.07.11.11.24.11.4 0 1.94-5.94 5.38-15.4 5.38-6.95 0-8.25-2.58-8.25-4.22 0-.59.22-1.19.72-1.79.03-.04 0-.05-.03-.02-.9.77-1.73 1.63-2.46 2.56-.35.44-.56.83-.56 1.06 0 3.4 8.52 5.86 16.49 5.86 8.49 0 12.28-2.77 12.28-5.21 0-.87-.34-1.38-1.2-2.36-.56-.64-1.09-1.16-1.66-1.68-.03-.02-.05 0-.03.02m-2.6-1.94c-2.62-1.57-5.66-2.46-8.94-2.46s-6.44.92-9.07 2.54c-.79.49-1.23.87-1.23 1.37 0 1.47 3.44 3.06 9.56 3.06s10.74-1.74 10.74-3.41c0-.4-.35-.68-1.05-1.1" fill="#4da7dd"/></svg>