<svg width="1280" height="230" viewBox="0 0 1280 230" fill="none" xmlns="http://www.w3.org/2000/svg">
<g clip-path="url(#clip0_398_1055)">
<rect width="1280" height="230" fill="#00A7CE"/>
<path d="M556.225 -319.376C555.215 -320.973 553.253 -322.585 553.342 -324.182C553.714 -338.464 551.351 -352.852 556.166 -367C558.588 -374.105 562.036 -376.985 568.694 -377C574.015 -377 577.611 -375.254 577.195 -371.179C576.051 -360.374 580.658 -349.255 574.372 -338.718C573.985 -338.076 574.267 -337.226 574.372 -336.435C574.778 -330.803 575.199 -325.176 575.635 -319.555C578.83 -324.182 582.204 -328.748 585.191 -333.45C591.7 -343.658 597.883 -354.001 604.511 -364.195C605.205 -365.243 606.119 -366.126 607.189 -366.783C608.259 -367.439 609.459 -367.853 610.704 -367.995C611.95 -368.138 613.212 -368.005 614.401 -367.606C615.59 -367.207 616.678 -366.552 617.589 -365.687C618.332 -364.941 617.262 -362.881 616.564 -361.583C610.456 -350.076 604.214 -338.614 598.076 -327.122C597.688 -326.135 597.433 -325.101 597.318 -324.047C598.641 -324.376 600.573 -324.376 601.212 -325.077C605.492 -329.823 609.772 -334.599 613.502 -339.599C616.014 -342.972 617.069 -347.061 619.848 -350.21C621.334 -351.912 626.447 -353.852 627.502 -353.195C630.326 -351.553 636.79 -352.016 634.829 -346.613C631.069 -336.166 628.988 -325.465 624.336 -315.271C622.271 -310.794 622.107 -310.093 628.067 -310.033C632.644 -310.033 633.134 -307.675 630.296 -305.779C626.981 -303.544 623.29 -301.931 619.402 -301.018C613.419 -299.514 607.275 -298.752 601.108 -298.75C590.794 -299.078 584.403 -297.332 586.409 -288.168C574.996 -269.885 565.603 -250.857 551.499 -233.529C538.109 -217.306 526.918 -199.948 515.029 -182.979C514.345 -181.994 515.133 -180.397 515.252 -179.084C516.921 -179.733 518.511 -180.569 519.993 -181.576C527.334 -188.053 534.854 -194.456 541.587 -201.247C545.035 -204.68 549.538 -204.933 553.55 -203.993C557.221 -203.127 562.066 -201.486 557.251 -196.695C551.559 -191.009 547.16 -184.576 542.152 -178.487C540.742 -177.096 539.44 -175.6 538.258 -174.009C537.723 -173.084 538.258 -171.786 538.392 -170.666C539.839 -171.015 541.26 -171.469 542.642 -172.024C553.773 -177.472 561.1 -177.203 568.442 -170.532C569.121 -169.828 569.591 -168.949 569.801 -167.992C570.011 -167.036 569.952 -166.039 569.631 -165.114C566.554 -158.338 559.971 -154.04 550.652 -153.712C540.353 -153.339 532.031 -150.891 525.105 -144.936C521.999 -142.264 517.481 -140.563 513.721 -138.294C512.865 -137.616 512.123 -136.805 511.522 -135.892C512.349 -135.526 513.225 -135.285 514.123 -135.175C518.997 -135.384 524.526 -134.683 528.583 -136.22C536.772 -139.339 541.958 -135.101 548.2 -133.086C549.211 -132.757 550.4 -130.862 550.028 -130.414C548.989 -129.264 547.578 -128.518 546.045 -128.31C533.918 -127.399 521.776 -126.325 509.605 -126.056C502.174 -125.892 498.8 -124.176 498.86 -118.221C499.023 -99.4157 503.838 -81.312 512.517 -63.7904C517.764 -53.179 523.56 -42.7168 529.088 -32.18C529.608 -31.1949 530.084 -30.195 530.574 -29.195C531.094 -30.18 532.06 -31.18 532.06 -32.18C531.615 -37.4036 531.05 -42.4034 541.468 -41.0004C541.958 -40.9258 542.954 -44.5674 544.292 -46.1644C546.194 -48.3583 548.289 -51.3582 551.083 -51.985C554.264 -52.7014 558.618 -46.1196 557.831 -43.0302C557.093 -40.1668 556.596 -37.2462 556.344 -34.2993C556.344 -33.4486 557.385 -32.5531 557.949 -31.6725C558.38 -32.6874 558.915 -33.6724 559.257 -34.6574C559.941 -36.7618 560.342 -38.911 561.189 -40.9706C562.036 -43.0302 563.433 -45.448 564.563 -47.6121C568.324 -46.275 572.014 -44.7457 575.62 -43.0302C577.641 -41.9407 578.845 -39.9706 580.42 -38.3886C581.287 -40.5931 582.28 -42.7459 583.393 -44.8361C584.373 -46.4629 585.488 -48.4479 587.301 -49.3135C589.533 -50.0466 591.93 -50.1088 594.197 -49.4926C595.103 -49.2389 595.46 -46.8061 595.282 -45.4331C595.044 -43.7018 593.796 -42.0601 593.35 -40.3288C591.864 -34.6127 590.779 -28.8667 589.322 -23.1654C588.52 -19.9865 587.034 -16.912 586.35 -13.733C584.18 -2.86786 582.248 8.01223 580.316 18.9073C580.197 19.5341 580.836 20.2505 581.119 20.9221C581.832 20.3251 582.962 19.8177 583.214 19.1312C588.713 4.34079 608.197 -0.92764 619.432 -11.8077C621.498 -13.5077 623.993 -14.5979 626.64 -14.9568C628.771 -15.1133 630.885 -14.4816 632.585 -13.1808C633.625 -12.1958 633.357 -10.0615 632.897 -8.584C632.599 -7.62882 630.875 -6.9423 629.85 -6.10652C616.326 4.9676 602.837 16.0616 589.382 27.1755C588.549 28.1238 587.894 29.2161 587.45 30.3993C589.174 30.0112 590.957 29.7575 592.592 29.2202C601.509 26.2353 610.426 23.2503 619.432 20.2654C621.572 19.5789 624.366 18.6834 626.239 19.2058C630.909 20.7054 635.502 22.4388 640 24.3996C636.449 26.4592 633.283 29.3098 629.285 30.3695C619.194 33.1454 608.732 35.1304 598.433 37.4437C596.167 37.7476 593.94 38.2929 591.789 39.0705C578.206 45.518 577.775 46.5329 583.497 61.7859C588.594 75.3972 587.658 88.4862 580.361 101.65C570.924 118.634 558.945 134.156 541.096 146.812C540.041 147.558 539.12 148.424 538.124 149.245C539.925 149.692 541.752 150.031 543.593 150.259C546.09 150.439 548.676 150.021 551.113 150.379C554.268 150.884 557.379 151.638 560.416 152.632C560.486 153.742 560.141 154.838 559.45 155.707C556.627 158.468 553.402 160.453 548.141 159.274C542.88 158.095 524.273 159.916 520.112 161.871C518.909 162.641 517.827 163.587 516.902 164.677C518.367 165.44 519.926 166.007 521.538 166.363C530.649 167.259 540.011 167.274 548.869 168.915C559.019 170.811 563.106 174.676 561.977 179.258C561.65 180.093 561.131 180.838 560.462 181.432C559.793 182.026 558.993 182.452 558.128 182.676C554.189 183.124 549.508 183.825 546.238 182.676C532.254 177.721 518.655 181.542 504.923 182.885C504.044 183.062 503.191 183.348 502.382 183.736C503.214 184.556 503.868 185.75 504.923 186.124C513.424 188.959 522.103 191.511 530.574 194.422C535.183 196.029 539.685 197.928 544.054 200.108C545.54 200.839 549.032 202.003 545.139 204.138C543.177 205.212 541.943 207.675 539.967 207.973C537.193 208.317 534.379 207.845 531.867 206.615C525.358 203.063 518.105 203.75 510.868 203.511C506.409 203.362 504.195 204.287 505.057 207.869C506.053 211.988 503.779 212.824 498.547 212.928C484.221 213.227 473.06 207.72 462.463 201.69C460.175 200.377 461.156 195.72 460.621 192.601C463.697 193.063 466.803 193.422 469.835 194.004C471.618 194.347 473.238 195.302 475.022 195.496C475.869 195.586 477.756 194.601 477.786 194.004C478.009 189.78 472.926 185.183 467.056 185.258C461.389 185.283 455.749 186.045 450.277 187.526C429.842 193.392 409.868 200.183 389.344 205.705C366.469 211.705 344.684 221.306 324.8 234.151C317.236 239.076 310.696 244.912 303.533 250.195C300.353 252.538 298.361 254.195 302.508 257.538C307.278 261.374 308.898 267.359 319.108 266.03C323.968 265.389 324.726 268.821 320.386 272C319.301 272.791 318.32 274.269 317.176 274.343C297.856 275.507 279.428 284.179 259.216 277.492C254.118 275.806 247.966 276.104 242.556 274.821C239.286 274.06 236.522 272.03 233.52 270.582C235.586 268.538 237.221 266.105 239.777 264.538C254.074 255.882 253.999 255.882 246.717 242.345C241.861 232.783 234.444 224.772 225.302 219.212C211.837 211.122 205.402 199.974 200.171 187.974C196.934 180.733 192.789 173.937 187.835 167.751C184.298 163.274 184.863 159.408 186.914 155.2C187.85 153.304 193.839 152.319 188.4 149.483C185.576 147.991 184.7 145.678 178.844 146.961C157.755 151.543 139.476 159.961 121.107 168.512C116.306 170.736 111.402 172.841 106.572 175.034C104.91 175.948 102.998 176.296 101.123 176.027C99.2477 175.758 97.5096 174.886 96.1688 173.542C92.3494 170.199 96.5255 168.736 98.7845 167.199C103.837 163.751 109.44 160.796 114.478 157.334C121.701 152.379 125.342 144.275 136.548 142.857C135.626 141.588 134.987 139.409 133.724 139.185C124.094 137.394 114.404 135.947 104.61 134.439C94.4003 132.947 84.0566 131.678 73.9804 129.693C68.6599 128.649 64.8554 125.798 64.5433 120.903C64.2312 116.007 68.0803 115.201 72.5388 113.052C84.2201 107.441 94.7272 107.5 105.74 113.619C107.553 114.619 110.451 114.5 112.844 114.888C112.517 113.082 113.052 110.679 111.729 109.56C103.094 102.336 100.523 93.1427 96.8673 84.1879C92.0819 72.5466 102.099 63.3978 118.06 65.2633C124.436 66.0096 124.911 64.6067 122.102 60.383C118.521 55.025 116.158 49.2342 113.185 43.6225C112.68 42.6226 112.606 40.6376 112.086 40.6376C98.5913 39.2347 102.5 35.011 108.846 30.0859C109.128 29.862 107.36 27.2054 106.379 27.1009C102.686 26.6138 98.9492 26.5737 95.2474 26.9815C76.9546 29.7173 58.3359 29.3743 40.1553 25.9666C36.9898 25.3697 32.2787 23.1757 32.026 21.4892C31.7139 19.1461 34.3147 15.6537 37.0492 14.191C44.0045 10.4748 51.3015 6.80334 60.6644 7.72868C64.1724 7.97492 67.6933 7.97492 71.2013 7.72868C73.03 7.47144 74.8378 7.0824 76.6109 6.56455C76.0539 5.20691 75.393 3.89458 74.6343 2.63935C70.1758 -3.61409 64.1271 -8.86758 60.9616 -16.1061C57.2611 -24.5684 59.4754 -32.5232 58.9256 -40.6721C58.5837 -45.1495 65.5093 -46.239 71.0675 -44.0749C78.8402 -41.09 74.3222 -34.1649 79.4495 -30.4785C80.5492 -29.6875 80.9356 -28.3144 81.6341 -27.2249C82.1392 -28.2006 82.4949 -29.2471 82.6893 -30.3293C82.7933 -34.941 82.6893 -39.5378 82.6893 -44.1495C83.0502 -55.2556 84.7316 -66.2786 87.6977 -76.9839C90.774 -89.1027 91.4428 -102.55 86.3601 -115.236C85.3793 -117.683 85.7359 -120.459 85.7211 -123.101C85.7211 -135.041 86.0778 -146.906 85.5873 -158.786C85.0226 -172.681 84.1012 -186.591 82.3772 -200.426C82.0354 -203.277 78.7658 -206.918 75.4517 -208.396C59.1782 -215.634 51.6731 -226.574 49.3695 -240.409C48.3738 -247.081 45.9068 -253.722 43.9153 -260.393C42.5332 -264.871 45.669 -271.706 48.671 -270.721C52.5465 -269.315 55.947 -266.837 58.4797 -263.572C62.1951 -258.692 64.7216 -253.259 67.6939 -248.095C68.4649 -246.694 69.5236 -245.473 70.8 -244.514C73.5197 -242.663 75.5111 -242.469 76.7447 -245.916C80.5938 -255.841 85.2752 -265.572 88.5002 -275.512C89.5554 -278.706 90.8929 -282.691 94.1922 -282.049C97.9671 -281.303 102.663 -277.691 103.436 -274.781C104.922 -269.259 103.793 -263.334 103.941 -257.573C103.941 -256.707 104.997 -255.841 105.576 -254.976C106.325 -255.455 107.027 -256.005 107.672 -256.617C109.485 -258.722 112.249 -260.767 112.71 -263.05C114.196 -270.199 120.141 -275.363 124.153 -281.392C127.839 -286.855 133.07 -288.691 137.529 -286.601C141.081 -284.945 143.473 -278.84 142.686 -275.243C139.238 -260.916 134.735 -246.648 125.015 -233.723C122.043 -229.693 119.308 -225.499 116.098 -221.604C113.926 -219.425 111.58 -217.429 109.084 -215.634C106.379 -218.142 100.687 -221.724 101.474 -222.992C105.086 -228.962 98.7845 -232.753 97.9373 -237.588C96.9713 -243.036 95.9756 -248.469 94.965 -253.901C94.6484 -254.94 94.2199 -255.941 93.6869 -256.886C92.2008 -255.901 89.9269 -255.065 89.5851 -253.901C88.0989 -248.573 87.0735 -243.155 85.9886 -237.753C85.7657 -236.618 86.3007 -235.38 85.8994 -234.305C84.7402 -231.32 83.2986 -228.231 81.9611 -225.201C78.2754 -227.141 74.5303 -229.052 70.904 -231.051C69.2841 -231.947 67.9317 -233.126 66.3267 -234.036C63.9191 -235.29 61.3629 -236.38 58.8958 -237.544C59.9213 -235.201 60.382 -232.619 62.0614 -230.544C69.5814 -220.768 73.1036 -218.873 93.2708 -210.873C95.931 -209.843 99.587 -208.351 96.5552 -203.874C94.1922 -200.381 95.5743 -195.277 95.8419 -190.919C96.0053 -188.053 98.1157 -185.143 97.7144 -182.382C95.7675 -169.174 98.5169 -156.025 97.9968 -142.817C97.4469 -129.011 97.5509 -115.176 97.9968 -101.371C98.2197 -94.3861 99.8842 -87.4162 100.865 -80.4763C101.891 -73.1184 102.708 -65.7306 103.927 -58.4026C105.784 -47.1196 107.895 -35.8664 109.871 -24.5982C110.132 -23.901 110.487 -23.2431 110.926 -22.6431C112.056 -23.072 113.105 -23.6874 114.032 -24.4639C114.941 -25.645 115.558 -27.0262 115.831 -28.4936C117.926 -40.5079 119.858 -52.5521 121.954 -64.5814C122.188 -66.0543 122.815 -67.4363 123.767 -68.5813C129.102 -74.5512 132.61 -74.4616 136.934 -67.9246C139.304 -64.5633 141.298 -60.9495 142.879 -57.149C144.514 -53.0474 145.517 -48.7191 145.851 -44.3137C146.134 -39.2841 145.658 -34.7321 154.159 -33.0157C156.091 -32.6277 158.216 -28.5383 157.815 -26.4787C156.477 -19.3596 155.541 -11.8376 151.662 -5.46475C146.951 2.32594 139.327 9.05699 133.219 16.3701C132.164 17.6238 132.342 19.4893 131.956 21.0714C134.021 20.5042 136.815 20.4147 138.049 19.3103C144.93 13.1165 151.157 6.50485 158.142 0.385731C170.492 -10.4197 184.581 -19.0164 204.971 -17.6134C207.096 -17.4642 209.087 -16.0165 211.138 -15.1807C210.172 -13.8226 209.652 -12.0465 208.166 -11.166C193.825 -2.50967 179.335 6.01232 164.83 14.5194C163.343 15.3701 161.144 15.6089 160 16.6238C152.093 23.6384 143.028 28.5635 130.142 28.5635C127.393 28.5635 123.113 30.4888 122.31 32.2649C121.508 34.0409 124.183 36.8468 124.867 39.2795C130.811 60.3681 145.138 78.9344 155.348 98.7395C156.017 100.053 158.082 100.933 159.509 102.023C160.029 100.695 161.174 99.3215 160.995 98.038C159.94 90.3667 158.84 82.6805 157.25 75.054C156.373 70.8303 153.119 66.6215 153.609 62.6067C153.891 60.2188 158.959 57.4578 162.66 56.2489C165.632 55.2638 168.991 55.1743 170.566 60.0099C175.203 74.2182 183.808 87.6205 185.428 102.53C185.591 104.023 188.4 105.217 189.886 106.56C190.688 105.31 191.389 103.997 191.982 102.635C193.81 97.441 195.504 92.1875 197.258 87.0236C199.829 79.4269 205.937 74.1435 215.3 71.0541C224.662 67.9647 227.338 69.7258 230.667 77.024C237.919 92.8591 229.032 106.993 224.35 121.619C223.58 123.712 222.583 125.714 221.378 127.589C220.026 129.857 219.104 132.604 216.816 134.111C214.527 135.618 210.871 135.827 207.765 136.618C207.289 134.469 205.877 132.141 206.487 130.201C208.79 122.917 212.283 115.843 214.319 108.53C216.097 101.365 217.408 94.0914 218.242 86.7549C218.376 85.8147 216.459 84.7103 215.508 83.6804C214.453 84.6506 212.907 85.4863 212.431 86.5758C209.266 94.0381 205.863 101.5 203.514 109.067C201.716 114.739 201.567 120.709 200.26 126.499C199.309 130.753 194.092 130.977 189.857 132.126C188.18 132.844 186.613 133.799 185.205 134.962C186.691 135.529 188.4 136.678 189.871 136.559C195.504 136.111 196.678 137.544 197.689 142.021C199.323 149.349 207.69 153.797 215.656 157.274C229.522 163.319 244.072 167.796 260.36 162.08C262.322 161.687 264.343 161.687 266.305 162.08C269.277 162.423 272.249 163.035 275.222 163.572C272.799 165.423 270.763 167.677 267.791 169.02C264.858 170.324 261.707 171.063 258.502 171.199C251.488 171.527 244.428 171.199 237.399 171.348C234.07 171.423 230.756 172.02 227.427 172.393C229.507 174.02 231.633 175.602 233.639 177.288C243.616 185.626 253.563 193.994 263.481 202.391C267.583 205.869 271.67 208.033 277.005 203.645C290.47 192.526 304.038 181.497 317.444 170.333C318.441 169.209 319.182 167.88 319.613 166.438C319.778 165.916 319.868 165.373 319.881 164.826C318.514 164.826 316.715 164.378 315.913 164.826C315.11 165.274 315.526 167.184 314.665 167.811C309.537 171.199 304.692 175.199 298.748 177.363C294.988 178.736 289.459 177.288 284.733 177.124C287.81 174.721 290.321 171.259 294.066 170.124C305.123 166.781 305.837 157.185 313.862 152.14C313.966 152.065 311.677 148.618 310.176 148.439C305.718 147.916 301.126 148.513 296.652 148.2C288.493 147.633 280.304 146.991 272.309 145.767C270.094 145.439 266.974 142.917 266.959 141.379C266.944 139.842 270.421 136.902 272.131 136.977C280.795 137.469 283.633 134.723 285.729 128.395C287.007 124.559 293.62 121.335 300.873 124.753C302.567 125.544 305.51 124.753 307.873 124.753C307.754 122.664 308.289 120.41 307.412 118.545C303.771 110.873 299.521 103.381 295.85 95.7246C292.565 88.8742 298.688 79.9642 307.457 79.397C309.73 79.2478 313.238 81.785 314.531 83.7252C315.824 85.6654 314.278 88.3071 314.917 90.501C316.034 93.6241 317.375 96.6618 318.93 99.5901C319.554 96.5306 320.892 93.4412 320.654 90.4264C320.11 86.0558 319.149 81.7477 317.785 77.5613C314.516 65.8902 322.734 55.6519 338.443 54.0549C346.602 53.2341 347.702 50.5775 348.163 45.2792C349.025 35.2349 344.551 24.8622 350.971 15.1313C344.908 4.20644 349.069 -7.25572 348.103 -18.4642C347.836 -21.4491 346.706 -22.7326 342.931 -22.1655C335.501 -21.076 328.189 -19.3746 320.639 -18.7925C313.586 -18.0352 306.466 -18.1706 299.446 -19.1955C291.926 -20.5835 290.975 -25.5683 297.41 -28.2846C303.869 -30.7546 310.554 -32.5792 317.369 -33.7321C323.314 -34.9261 329.556 -35.4037 335.694 -36.1051C340.345 -36.6275 340.152 -38.4185 337.745 -40.5825C327.52 -50.0448 319.911 -61.2085 306.832 -68.8051C298.822 -73.4616 290.708 -78.0137 282.727 -82.7C281.442 -83.6353 280.27 -84.7171 279.234 -85.9238C281.181 -86.9685 282.965 -88.6848 285.09 -88.9087C298.54 -90.6997 308.675 -84.6104 319.272 -79.9539C321.367 -79.0286 322.72 -77.148 324.711 -76.0138C326.008 -75.596 327.362 -75.3845 328.724 -75.3869C328.902 -76.7003 329.764 -78.2525 329.169 -79.2972C322.581 -90.64 315.849 -101.943 308.973 -113.206C304.514 -120.4 304.871 -122.877 311.395 -126.638C315.853 -129.235 327.089 -128.534 331.845 -125.788C341.089 -120.43 340.301 -111.535 345.101 -104.609C345.796 -103.355 346.34 -102.023 346.721 -100.64C348.259 -102.023 349.723 -103.487 351.105 -105.027C351.551 -105.58 351.328 -106.52 351.105 -107.296C347.107 -123.713 342.916 -140.041 339.216 -156.458C337.73 -162.995 337.388 -169.666 336.065 -176.218C333.227 -190.262 329.496 -204.217 327.401 -218.306C326.688 -223.186 323.804 -223.291 319.97 -222.559C314.149 -221.577 308.435 -220.033 302.909 -217.948C293.472 -214.097 283.589 -215.933 273.929 -216.067C270.511 -216.067 267.182 -219.768 263.808 -221.768C266.223 -223.719 268.738 -225.543 271.343 -227.231C281.404 -233.201 293.873 -233.977 305.525 -236.394C309.983 -237.32 310.265 -238.872 307.62 -240.872C298.703 -247.782 292.357 -255.647 290.574 -265.468C289.994 -268.662 288.359 -271.781 288.018 -274.975C287.557 -279.169 288.107 -283.422 287.824 -287.631C287.676 -289.765 281.3 -292.467 286.844 -293.601C291.02 -294.511 297.901 -296.78 301.096 -289.974C304.529 -282.661 310.429 -276.049 314.917 -269.08C315.631 -267.96 314.59 -266.199 314.367 -264.736L310.102 -266.736L306.907 -268.229C306.654 -267.184 305.733 -265.826 306.268 -265.154C309.939 -260.587 313.892 -256.11 317.875 -251.633C318.276 -251.17 319.257 -250.991 319.955 -250.677C320.312 -251.334 320.966 -251.991 320.966 -252.647C321.055 -258.408 320.238 -264.244 321.204 -269.9C322.615 -278.581 324.813 -287.114 327.772 -295.392C328.53 -297.481 329.11 -301.929 336.288 -301.257C338.545 -301.08 340.741 -300.434 342.736 -299.36C344.732 -298.286 346.484 -296.808 347.88 -295.019C351.165 -291.347 345.8 -275.975 340.97 -270.975C339.949 -269.93 339.314 -268.566 339.171 -267.11C338.978 -261.737 338.934 -256.364 339.171 -250.991C339.171 -249.961 341.014 -248.976 341.995 -248.006C343.097 -248.883 344.094 -249.884 344.967 -250.991C348.817 -257.065 352.814 -263.095 356.173 -269.333C358.67 -273.99 363.515 -275.975 369.103 -275.497C375.389 -274.96 380.412 -271.348 380.992 -266.542C382.092 -257.185 382.389 -247.842 370.752 -241.006C361.939 -235.827 355.891 -228.037 344.834 -224.753C343.08 -224.246 341.415 -220.112 342.263 -218.38C349.292 -204.008 348.014 -188.74 351.18 -173.979C354.776 -157.159 359.532 -140.473 362.935 -123.624C364.228 -117.251 363.143 -110.594 362.385 -103.49C360.126 -107.803 357.63 -112.639 357.288 -117.579C356.069 -135.593 351.343 -153.204 348.371 -171.009C345.592 -187.322 342.991 -203.635 338.978 -219.798C338.711 -220.873 336.987 -221.738 336.006 -222.694C335.263 -221.365 333.539 -219.798 333.955 -218.739C340.762 -201.53 343.139 -183.8 345.19 -166.025C346.037 -158.667 346.023 -151.1 348.445 -144.055C352.422 -133.254 354.392 -121.811 354.256 -110.296C354.048 -103.415 354.107 -96.5054 354.256 -89.6251C354.55 -87.8813 355.075 -86.1847 355.816 -84.5805C357.303 -86.4163 359.398 -88.1177 360.082 -90.1176C361.346 -94.3299 362.398 -98.6039 363.232 -102.923C366.205 -103.998 369.177 -104.983 372.001 -106.191C380.323 -109.788 385.896 -107.535 387.442 -100.52C390.756 -85.5954 385.644 -71.4916 380.502 -57.3878C380.147 -56.5519 379.751 -55.7349 379.313 -54.9401C380.665 -54.9401 382.493 -54.5222 383.31 -55.0297C390.83 -59.8056 397.979 -64.9396 405.603 -69.5365C409.498 -71.6909 413.654 -73.3313 417.968 -74.4168C423.303 -75.9093 429.337 -72.7303 429.456 -68.5962C429.783 -56.8505 423.348 -47.8957 411.191 -40.5975C401.716 -34.6503 391.356 -30.2618 380.502 -27.5981C376.043 -26.5533 367.884 -27.404 366.992 -25.6877C364.912 -21.7177 366.19 -16.7329 366.19 -12.1212C366.19 0.146929 365.863 12.43 366.294 24.713C366.546 32.2798 364.6 39.6377 365.685 47.4134C366.859 55.7414 364.644 64.4425 362.995 72.8749C361.88 78.4866 358.922 83.8744 357.258 89.4264C356.768 91.098 357.838 93.0233 358.194 94.8292C360.617 93.9785 364.332 93.6053 365.254 92.1726C370.5 84.1281 378.748 78.9791 389.641 76.1882C391.995 75.5765 394.466 75.5765 396.82 76.1882C401.977 77.8896 396.82 79.8149 396.106 81.1731C393.907 85.4565 391.648 90.1279 387.754 93.4263C379.446 100.545 370.084 106.948 361.167 113.649C359.68 114.709 358.477 115.873 357.124 116.992C359.16 116.992 361.583 117.574 363.188 116.992C380.536 110.321 399.155 107.643 417.67 109.157C419.662 109.291 422.813 110.157 423.169 111.157C423.404 112.061 423.368 113.014 423.066 113.898C422.765 114.781 422.212 115.557 421.475 116.127C417.017 118.724 411.949 120.679 407.119 122.903C404.31 124.201 401.04 125.171 398.796 126.902C386.327 136.544 386.402 136.544 372.699 139.111C371.347 139.364 370.351 140.767 369.192 141.648C370.678 142.305 372.045 143.514 373.502 143.543C382.538 143.722 391.603 143.409 400.609 143.782C403.121 143.872 405.514 145.722 407.966 146.767C405.915 148.021 404.117 149.856 401.783 150.439C389.463 153.513 378.139 156.826 364.183 151.155C355.965 147.812 343.377 149.871 332.974 150.886C328.932 151.274 325.543 155.364 321.887 157.931C321.575 158.14 321.887 159.423 322.11 159.423C323.518 159.817 324.995 159.893 326.435 159.647C330.997 157.752 333.167 157.035 333.182 162.557C333.182 175.005 325.454 185.512 319.42 196.272C309.374 214.182 297.633 231.584 286.725 249.255C285.892 250.613 286.175 252.389 285.952 253.971C288.018 253.285 290.871 253.046 292.045 251.852C319.584 223.495 357.838 207.645 400.535 196.436C416.749 192.183 432.19 186.258 448.092 181.333C452.09 180.079 454.884 178.96 453.665 175.139C452.447 171.318 452.179 167.169 450.47 163.483C447.111 156.498 442.816 149.782 439.235 142.872C438.419 141.151 438.224 139.199 438.685 137.35C439.101 135.514 440.587 133.827 441.657 132.081C444.63 133.171 450.099 129.35 450.871 135.066C451.05 136.38 453.933 137.484 455.568 138.678C456.131 136.925 456.486 135.112 456.623 133.275C456.236 125.025 458.306 116.847 462.568 109.784C464.618 106.276 466.565 103.68 471.856 104.5C477.147 105.321 478.202 108.575 477.801 112.261C476.76 123.067 475.646 133.872 474.828 144.693C474.695 146.588 476.314 148.558 477.028 150.498C479.709 150.035 482.341 149.321 484.89 148.364C491.681 145.021 498.057 141.185 504.908 137.917C507.552 136.874 510.403 136.47 513.231 136.738C518.522 137.126 521.122 138.797 517.05 143.021C516.39 143.705 515.929 144.558 515.717 145.487C515.505 146.415 515.55 147.384 515.846 148.289C518.239 152.767 521.642 148.394 523.723 147.901C535.612 145.11 542.969 137.32 549.701 130.245C557.845 121.709 562.779 111.411 569.779 102.172C573.658 97.0828 574.149 91.904 574.327 86.2923C574.743 73.6063 574.327 61.1143 568.263 48.9805C564.667 41.9062 561.843 40.7868 552.688 43.5778C534.043 49.2864 514.6 51.9225 495.114 51.3834C491.057 51.264 489.541 51.3088 490.567 46.9955C493.539 34.2498 504.73 28.8173 519.443 26.101C523.485 25.3547 523.188 24.6085 520.558 23.0414C513.409 18.6386 506.647 13.7881 498.978 9.98232C480.639 0.878257 474.695 -14.8822 486.212 -27.8816C493.123 -35.6723 504.76 -36.0604 511.031 -28.0309C518.967 -17.8672 526.933 -7.71839 535.048 2.35578C538.689 6.83319 535.167 13.0419 540.992 16.982L543.296 18.4745C544.366 17.3999 546.536 15.4895 546.343 15.3403C538.6 9.23608 540.755 0.41558 535.568 -6.7035C525.061 -21.2401 513.825 -35.5977 506.588 -51.6119C502.055 -61.6413 495.635 -71.1185 492.499 -81.7001C488.947 -93.6398 485.975 -105.58 486.747 -117.833C486.985 -121.579 487.045 -124.609 479.956 -123.907C477.267 -123.922 474.669 -124.883 472.614 -126.623C467.308 -131.414 461.156 -131.101 453.992 -129.967C447.305 -128.849 440.529 -128.35 433.751 -128.474C426.677 -128.638 423.585 -134.116 428.564 -137.817C436.218 -143.503 444.065 -149.548 453.309 -153.279C459.803 -155.906 463.712 -159.517 464.841 -163.726C468.26 -176.681 473.595 -189.546 471.648 -203.068C470.637 -210.037 469.642 -217.022 468.676 -223.962C467.962 -228.843 473.55 -227.962 475.586 -227.111C481.412 -224.679 485.098 -220.873 483.924 -215.172C483.522 -213.216 484.949 -211.037 485.529 -208.963C487.154 -210.404 488.861 -211.749 490.641 -212.993C492.439 -214.127 496.08 -215.978 496.378 -215.709C499.499 -213.112 503.704 -210.396 504.507 -207.247C505.845 -202.083 504.789 -196.56 504.938 -191.188C504.938 -190.203 505.889 -189.232 506.424 -188.203C506.929 -189.203 507.36 -190.217 507.91 -191.188C510.585 -195.665 513.974 -200.068 515.876 -204.769C521.821 -219.38 535.479 -230.708 543.771 -244.305C551.618 -257.185 560.119 -269.841 568.13 -282.646C568.724 -283.586 567.773 -285.064 568.293 -286.049C569.972 -289.288 574.55 -294.392 573.45 -295.228C568.501 -298.929 562.913 -294.929 557.533 -294.093C548.78 -292.75 540.933 -289.168 531.377 -289.243C525.18 -289.243 526.829 -293.332 523.857 -294.631C525.536 -296.004 527.126 -297.451 528.94 -298.72C530.081 -299.402 531.304 -299.934 532.581 -300.302C535.137 -301.168 537.752 -301.944 540.338 -302.765C537.767 -306.033 536.207 -310.764 532.432 -312.316C517.808 -318.286 515.668 -327.943 517.11 -338.897C517.362 -340.852 519.294 -343.867 521.167 -344.225C523.872 -344.748 528.419 -344.061 530.084 -342.539C536.222 -336.987 541.379 -330.793 547.175 -325.017C549.778 -322.799 552.523 -320.755 555.393 -318.898C556.528 -316.889 557.454 -314.769 558.157 -312.57C559.421 -312.898 561.665 -313.063 561.799 -313.585C562.75 -316.988 563.285 -320.465 556.151 -319.555M115.965 103.291L118.758 103.456C117.566 102.993 116.576 102.12 115.965 100.993C115.697 100.008 115.415 99.0379 115.147 98.0081L113.171 98.4708C114.35 99.9024 115.294 101.515 115.965 103.247M176.273 124.022C176.555 125.007 176.823 125.977 177.09 127.007L179.067 126.544C177.887 125.113 176.944 123.5 176.273 121.768C175.262 114.082 174.43 106.396 173.093 98.7543C172.885 97.5604 170.447 96.5754 169.035 95.5008C168.426 96.6798 167.014 98.038 167.356 99.023C170.135 107.023 173.301 114.963 176.273 124.067M307.442 185.109C298.213 195.242 289.028 205.391 279.71 215.48C278.508 216.844 277.039 217.944 275.395 218.712C273.751 219.48 271.966 219.9 270.153 219.944C268.341 219.989 266.538 219.658 264.858 218.973C263.178 218.287 261.657 217.26 260.39 215.958C244.978 200.317 223.696 188.273 212.298 170.154C211.234 169.392 209.946 169.014 208.642 169.08C207.631 170.05 206.279 171.751 206.769 172.542C209.37 176.721 213.635 180.467 215.225 184.825C219.223 195.75 226.565 204.779 237.518 212.391C242.573 215.811 247.281 219.72 251.577 224.062C258.592 231.42 261.98 239.957 263.927 248.942C264.313 250.777 266.899 252.359 268.489 254.046C269.901 252.971 272.235 252.031 272.606 250.762C278.67 230.256 295.136 213.361 305.896 194.496C307.486 191.644 308.043 188.327 307.471 185.109M129.533 88.322C126.107 84.6989 122.501 81.2519 118.729 77.9941C117.421 76.9344 116.158 72.7555 112.65 76.0987C112.043 76.8474 111.641 77.7428 111.484 78.6958C111.328 79.6488 111.423 80.6263 111.759 81.5313C116.886 95.4859 127.557 107.321 137.276 119.485C140.107 123.036 143.327 126.255 146.877 129.081C151.885 133.036 158.766 133.559 162.095 130.066C165.424 126.574 160.609 124.544 158.677 122.171C149.582 111.216 140.278 100.366 129.533 88.322ZM568.278 -2.71861C567.283 1.14689 566.153 5.01239 565.306 8.90774C565.113 9.86292 565.975 10.9375 566.361 11.9673C567.841 11.2308 569.228 10.3188 570.493 9.25098C571.221 8.45997 571.028 7.16153 571.251 6.08695C573.272 -3.18128 573.376 -13.0316 577.894 -21.5237C581.431 -28.1354 576.645 -29.2398 572.365 -31.7024C570.403 -32.5202 568.354 -33.1062 566.257 -33.4485C565.708 -32.0977 565.382 -30.6661 565.291 -29.2099C566.153 -21.1357 567.238 -13.0913 568.263 -2.71861M411.473 -62.6114C411.133 -62.3215 410.776 -62.0524 410.403 -61.8055C395.735 -53.2238 387.932 -36.8365 364.481 -38.1647C364.124 -38.1647 363.366 -37.0006 363.292 -36.3439C363.217 -35.6872 363.797 -34.4037 364.065 -34.4037C370.797 -34.4933 378.763 -33.0456 383.994 -35.2992C392.748 -39.0752 401.293 -44.4182 406.851 -50.6866C409.69 -53.8954 419.944 -57.1937 411.473 -62.6263M121.998 13.4598L123.054 12.6538C126.531 9.99721 131.584 7.78837 133.189 4.59448C137.068 -3.16636 122.786 4.16168 123.232 -1.65894C123.232 -2.27086 122.162 -2.88278 122.043 -3.55439C121.226 -8.10642 116.618 -6.37516 114.211 -5.65877C111.402 -4.80807 111.536 -3.01709 112.175 -0.00230322C113.096 4.34078 116.485 9.25099 113.2 14.1612C112.65 14.9821 115.444 17.1462 116.678 18.6386C118.989 17.582 120.868 15.7585 121.998 13.4747M363.232 126.335C359.131 127.932 354.969 129.454 350.971 131.186C349.916 131.633 349.337 132.678 348.534 133.544C349.835 133.953 351.175 134.223 352.532 134.35C354.902 134.472 357.277 134.236 359.576 133.648C371.258 129.549 382.85 125.295 394.353 120.888C396.359 120.127 397.711 118.38 399.361 117.082C396.671 116.873 393.61 115.918 391.336 116.574C382.344 119.171 373.591 122.276 363.232 126.335ZM342.129 77.9643C342.129 75.3077 343.021 72.3824 341.846 70.0691C340.866 68.114 337.492 66.8603 335.159 65.3081C334.475 67.2782 333.019 69.293 333.227 71.278C333.836 77.0688 335.501 82.785 335.976 88.5757C336.481 94.6352 335.976 100.739 336.184 106.814C336.184 108.217 337.477 109.605 338.161 111.008C339.483 109.515 341.876 108.023 341.95 106.53C342.307 97.7992 342.129 89.0533 342.129 78.009M72.2416 21.4892C78.7064 21.4892 85.1712 21.5639 91.636 21.4892C92.7209 21.4892 94.4894 20.5938 94.6083 19.9072C94.7272 19.2207 93.895 17.1462 93.2857 17.1014C80.8019 16.1611 68.2884 15.3403 55.76 14.7731C54.2739 14.6985 52.4013 16.0268 51.1232 17.0268C50.6671 17.3424 50.2992 17.7701 50.0547 18.2692C49.8101 18.7682 49.697 19.3219 49.7262 19.8774C49.9194 20.5789 51.6582 21.4594 52.6985 21.4892C58.1528 21.6534 63.6367 21.4892 72.1227 21.4892M130.93 -18.8074C135.998 -26.9563 133.427 -35.6425 133.739 -44.1048C133.739 -45.1644 131.138 -46.2688 129.741 -47.3434C129.132 -46.1793 127.913 -44.9853 128.002 -43.8511C128.656 -35.3291 126.516 -27.2548 122.756 -19.2402C121.582 -16.718 118.773 -12.6435 124.881 -11.0615C125.357 -10.9272 127.854 -15.3449 130.93 -18.8074ZM133.902 156.259C144.553 152.04 155.214 147.822 165.885 143.603C167.181 143.198 168.501 142.874 169.838 142.633C168.824 142.05 167.733 141.613 166.598 141.334C151.41 139.693 139.624 144.782 129.563 152.767C126.1 155.498 126.828 157.513 133.902 156.259ZM366.249 -253.737C367.431 -255.974 368.387 -258.324 369.103 -260.752C369.296 -261.752 367.854 -263.14 366.695 -263.99C365.461 -263.983 364.269 -263.534 363.336 -262.722C359.145 -256.095 355.058 -249.439 351.328 -242.648C350.793 -241.693 352.279 -240.066 352.814 -238.753C354.301 -239.394 356.203 -239.753 357.08 -240.693C360.759 -244.557 363.84 -248.954 366.22 -253.737M325.543 86.0236C326.049 91.9188 326.494 97.8141 327.104 103.709C327.397 104.769 327.853 105.776 328.456 106.694C328.991 105.769 329.942 104.859 329.942 103.933C330.061 93.7098 330.091 83.4864 329.942 73.263C329.942 72.1436 328.456 71.0243 327.609 69.9049C326.405 70.7407 324.265 71.5168 324.176 72.3973C323.748 76.9894 324.207 81.6213 325.528 86.0385M503.437 171.259C497.106 171.482 491.221 172.557 486.851 176.452C492.32 177.019 497.79 177.646 503.273 178.139C505.24 178.483 507.251 178.483 509.218 178.139C512.8 177.154 516.173 175.691 519.621 174.437C516.307 174.169 512.948 174.064 509.723 173.527C508.49 173.318 507.569 172.035 503.482 171.318M524.585 30.8172L514.435 33.9663C514.895 34.4439 515.401 35.3692 515.817 35.3543C519.131 35.1901 522.43 34.8618 525.729 34.5185C526.116 34.5185 526.487 34.0409 526.77 33.7424C532.046 28.0412 535.196 32.5036 539.328 34.9513C541.78 36.4438 539.744 42.1152 546.134 39.2347C544.951 36.7983 543.452 34.5299 541.676 32.4887C540.041 30.653 537.217 29.5038 535.553 27.5934C529.326 20.4893 528.984 28.3994 524.555 30.8172M336.095 -85.5805C333.985 -94.0279 327.46 -101.833 329.942 -110.952C330.046 -111.355 328.649 -112.012 327.936 -112.534L325.84 -114.146C325.231 -113.355 324.221 -112.654 324.102 -111.758C322.615 -101.55 327.148 -92.6548 336.095 -85.5805ZM180.791 -1.50971C184.937 -3.91259 189.099 -6.27068 193.186 -8.73326C193.557 -8.97205 193.602 -10.1362 193.364 -10.2257C192.576 -10.5541 191.254 -10.957 190.733 -10.6735C182.292 -6.10652 173.92 -1.4699 165.617 3.23635C165.142 3.505 165.157 4.26616 164.934 4.72882C165.81 4.92284 166.984 5.50491 167.534 5.26611C171.517 3.46022 175.381 1.49015 180.791 -1.58434M366.249 -71.8348C366.992 -69.9245 367.735 -67.9992 368.493 -66.0739C369.757 -66.4769 372.016 -66.7455 372.134 -67.2828C373.383 -72.9691 374.423 -78.7002 375.107 -84.4462C375.107 -85.1477 372.818 -85.9387 371.585 -86.8043C370.797 -86.0432 369.623 -85.3119 369.326 -84.5059C367.939 -80.3779 366.905 -76.1389 366.234 -71.8348M102.396 127.455C106.408 127.768 108.95 125.32 106.126 123.843C100.969 121.126 94.4597 119.813 88.2921 118.395C86.806 118.052 84.6213 119.634 82.7636 120.335C84.2987 121.433 85.9543 122.349 87.6977 123.067C91.9927 124.32 96.466 125.246 102.366 127.455M509.456 -1.53954C510.154 -1.00226 510.838 -0.435137 511.581 0.072302C512.963 1.01256 514.39 1.90806 515.802 2.81846C516.203 1.43047 517.511 -0.360511 516.827 -1.30077C514.134 -5.22807 510.992 -8.8246 507.464 -12.0167C505.726 -13.5092 502.114 -13.7479 499.35 -14.5539C500.45 -12.7032 501.416 -10.8078 502.709 -9.04668C504.763 -6.38878 507.019 -3.89394 509.456 -1.58434M118.981 -244.514C120.988 -248.409 123.128 -252.274 124.926 -256.244C125.032 -256.786 124.974 -257.347 124.76 -257.855C124.545 -258.363 124.184 -258.795 123.722 -259.095C122.479 -259.464 121.147 -259.396 119.947 -258.901C117.555 -253.289 115.489 -247.603 113.275 -241.932C115.263 -242.573 117.176 -243.429 118.981 -244.484M301.423 -229.559C298.45 -228.798 295.374 -228.067 292.357 -227.246C289.697 -226.559 284.436 -229.201 285.224 -224.5C285.387 -223.619 290.99 -222.38 293.606 -222.843C298.376 -223.694 302.805 -225.693 307.382 -227.216C306.401 -227.992 305.421 -228.783 301.438 -229.559M357.199 -0.360504C357.882 5.26113 358.556 10.8878 359.22 16.5193C359.547 10.9077 359.888 5.29595 360.215 -0.315732C360.305 -1.07425 360.305 -1.84069 360.215 -2.59921C359.591 -5.95726 358.893 -9.30039 358.224 -12.6435C357.882 -9.31531 357.555 -5.98711 357.213 -0.360504M559.332 27.28C559.438 24.6036 559.403 21.9233 559.228 19.2505C559.138 18.4297 557.741 17.7581 556.983 16.9223C555.75 17.7282 553.372 18.6685 553.491 19.355C554.253 23.6719 555.346 27.9232 556.76 32.0708C556.939 32.6081 559.272 32.7275 560.595 33.0409C560.809 31.0338 560.365 29.0113 559.332 27.28ZM75.2585 -17.6284C74.56 -18.1657 73.921 -19.0462 73.1481 -19.1209C72.7047 -19.1056 72.2697 -18.9952 71.8724 -18.7969C71.475 -18.5987 71.1246 -18.3173 70.8446 -17.9716C70.7265 -17.6244 70.7204 -17.2486 70.8272 -16.8976C70.9339 -16.5466 71.148 -16.2383 71.4391 -16.0165C76.0016 -13.4793 71.0824 -5.15133 81.5895 -6.33038C79.8206 -10.2745 77.7017 -14.0508 75.2585 -17.6134M360.215 54.9205C360.297 53.7778 360.297 52.6306 360.215 51.4879C360.007 49.9954 359.547 48.6372 359.205 47.2194C358.491 48.294 358.12 49.6372 357.035 50.3834C351.566 54.1743 355.326 59.0248 354.301 63.3082C354.167 63.8604 355.118 64.547 355.564 65.1738C356.218 64.3478 356.763 63.4397 357.184 62.4724C357.817 59.8139 358.85 57.2676 360.245 54.9205M334.609 136.693C334.983 136.468 335.327 136.197 335.634 135.887C335.768 135.693 335.634 135.156 335.53 135.126C331.176 134.111 326.836 132.469 322.437 132.395C319.108 132.32 315.705 134.245 312.316 135.29C315.289 135.768 318.261 136.424 321.233 136.633C324.652 136.872 328.129 136.633 334.609 136.633M99.3789 12.3106C100.969 13.206 102.663 16.0716 104.372 12.8926C105.279 11.1912 104.536 8.74354 103.689 6.92273C103.377 6.19142 99.9883 5.35564 99.2303 5.80338C97.0308 7.10183 92.8993 8.66895 99.3641 12.3703M550.177 -34.8515C549.854 -35.1611 549.489 -35.4225 549.092 -35.6276C548.839 -35.732 548.141 -35.6275 548.096 -35.5231C546.61 -31.8516 545.57 -28.1801 550.519 -25.434C551.198 -25.2324 551.907 -25.1516 552.614 -25.1952C552.384 -28.5346 551.559 -31.8053 550.177 -34.8515ZM553.149 -166.189C550.791 -166.017 548.459 -165.586 546.194 -164.905C545.064 -164.428 544.916 -162.622 544.336 -161.413C545.644 -161.085 547.487 -160.174 548.17 -160.532C549.365 -161.047 550.431 -161.822 551.292 -162.8C552.153 -163.778 552.787 -164.935 553.149 -166.189ZM357.199 34.1902L358.179 41.8465C358.863 39.2944 359.666 36.7572 360.171 34.2051C360.453 33.0885 360.453 31.9188 360.171 30.8022C359.636 29.3249 358.985 27.8926 358.224 26.5189C357.731 29.0528 357.394 31.6147 357.213 34.1902M325.543 -229.544C329.392 -229.425 331.622 -230.022 327.446 -232.633C324.473 -234.484 321.248 -236.036 318.142 -237.708C320.104 -235.38 322.066 -233.036 325.573 -229.544M453.725 -138.503C454.334 -140.339 454.929 -142.19 455.523 -144.041C453.115 -143.115 449.786 -142.653 448.494 -141.145C446.22 -138.533 448.167 -137.041 453.725 -138.503ZM182.307 110.202C183.181 112.5 184.173 114.752 185.279 116.948C185.457 117.291 187.196 117.142 188.251 117.216C186.765 114.485 192.398 109.545 182.307 110.202ZM492.915 195.422L500.851 196.272C500.851 195.75 501.267 194.974 500.955 194.78C498.696 193.153 496.794 190.153 492.915 195.466M479.361 -146.622L483.418 -147.428C483.002 -147.921 482.631 -148.816 482.155 -148.921C480.179 -149.135 478.186 -149.135 476.21 -148.921C474.93 -148.551 473.708 -147.998 472.584 -147.279C474.75 -146.432 477.112 -146.225 479.391 -146.682M538.183 -318.316C538.31 -319.032 538.31 -319.764 538.183 -320.48C537.813 -321.784 537.141 -322.98 536.222 -323.973C535.021 -324.071 533.818 -323.8 532.774 -323.196C532.7 -321.883 533.061 -320.582 533.799 -319.495C534.394 -318.57 535.716 -318.003 538.258 -318.316M330.195 -281.467C330.06 -280.344 330.09 -279.208 330.284 -278.094C330.507 -277.348 331.532 -276.736 332.186 -276.079C332.71 -276.462 333.095 -277.007 333.282 -277.63C333.469 -278.253 333.448 -278.921 333.223 -279.531C332.997 -280.141 332.58 -280.66 332.033 -281.01C331.486 -281.359 330.841 -281.52 330.195 -281.467ZM333.167 -246.916C332.848 -247.213 332.494 -247.468 332.112 -247.678C331.792 -247.77 331.452 -247.77 331.131 -247.678C330.679 -245.548 330.386 -243.388 330.254 -241.215C330.254 -240.588 331.532 -239.961 332.216 -239.335C332.528 -240.364 332.929 -241.379 333.138 -242.409C333.233 -243.93 333.233 -245.455 333.138 -246.976M358.774 -36.2096C358.796 -37.744 358.737 -39.2785 358.596 -40.8064C357.705 -40.8661 356.811 -40.8661 355.92 -40.8064C355.742 -39.314 355.772 -37.8215 358.774 -36.2096ZM331.577 113.664C331.072 116.067 330.462 118.47 330.091 120.888C330.017 121.455 330.864 122.082 331.28 122.679C331.859 121.888 332.84 121.186 332.959 120.306C333.216 117.987 332.693 115.649 331.473 113.664M494.297 159.722L490.284 160.483H501.327C499.006 160.05 496.656 159.795 494.297 159.722ZM479.361 -155.831C479.361 -157.323 479.361 -158.905 479.198 -160.428C478.303 -160.502 477.403 -160.502 476.508 -160.428C476.329 -158.935 476.359 -157.443 479.361 -155.831ZM97.8779 -18.8074C98.1948 -18.4934 98.5552 -18.227 98.9479 -18.0164C99.2006 -17.9119 99.6316 -18.0164 99.9883 -18.1209C99.1857 -19.9566 98.5021 -21.8222 97.4915 -23.6132C97.3577 -23.8669 96.154 -23.7923 95.4555 -23.8669C95.8346 -22.0054 96.6669 -20.2672 97.8779 -18.8074ZM553.209 -11.8973C553.082 -11.1815 553.082 -10.449 553.209 -9.73321C553.71 -8.56541 554.28 -7.42907 554.918 -6.33038C555.349 -7.27064 556.166 -8.25567 556.077 -9.181C556.038 -9.93593 555.704 -10.645 555.148 -11.1538C554.591 -11.6625 553.857 -11.9298 553.105 -11.8973M578.845 -303.257L574.847 -302.511C575.592 -301.932 576.393 -301.432 577.24 -301.018C578.726 -301.914 583.705 -298.616 578.845 -303.242M108.43 92.9337C109.03 91.3156 109.526 89.6605 109.916 87.9787C110.005 87.4414 109.158 86.7997 108.742 86.2176C108.051 86.8871 107.478 87.6693 107.048 88.531C106.75 89.5757 107.048 90.695 108.534 92.9337M486.866 -170.815L489.839 -171.965C488.828 -172.338 487.832 -172.726 486.866 -170.815ZM360.215 22.6683C359.948 21.6982 359.68 20.7281 359.428 19.6834C358.774 19.8177 357.54 20.0415 357.555 20.0863C357.867 21.3101 358.298 22.534 360.215 22.5937M331.577 -259.483L330.358 -258.11C331.265 -258.11 332.172 -258.259 331.577 -259.483ZM580.42 -315.928L578.607 -316.839C578.711 -316.152 578.815 -315.466 580.42 -315.928ZM604.541 -320.525L606.354 -319.6C606.175 -320.286 606.086 -320.988 604.466 -320.525H604.541Z" fill="white"/>
<path d="M1158.22 8.62423C1157.21 7.02729 1155.25 5.41542 1155.34 3.81848C1155.71 -10.4644 1153.35 -24.8519 1158.17 -39.0005C1160.59 -46.1046 1164.04 -48.9851 1170.69 -49C1176.01 -49 1179.61 -47.2538 1179.19 -43.1794C1178.05 -32.3739 1182.66 -21.255 1176.37 -10.7182C1175.98 -10.0764 1176.27 -9.2257 1176.37 -8.43469C1176.78 -2.80311 1177.2 2.8235 1177.63 8.44514C1180.83 3.81848 1184.2 -0.748474 1187.19 -5.44975C1193.7 -15.6582 1199.88 -26.0011 1206.51 -36.1946C1207.2 -37.243 1208.12 -38.1264 1209.19 -38.7829C1210.26 -39.4394 1211.46 -39.8533 1212.7 -39.9954C1213.95 -40.1376 1215.21 -40.0047 1216.4 -39.6059C1217.59 -39.2072 1218.68 -38.5523 1219.59 -37.6871C1220.33 -36.9409 1219.26 -34.8812 1218.56 -33.5828C1212.46 -22.0759 1206.21 -10.6137 1200.08 0.878314C1199.69 1.86479 1199.43 2.89872 1199.32 3.9528C1200.64 3.62446 1202.57 3.62446 1203.21 2.923C1207.49 -1.82305 1211.77 -6.59895 1215.5 -11.5987C1218.01 -14.9717 1219.07 -19.0611 1221.85 -22.2102C1223.33 -23.9116 1228.45 -25.8518 1229.5 -25.1951C1232.33 -23.5534 1238.79 -24.0161 1236.83 -18.6133C1233.07 -8.16605 1230.99 2.53496 1226.34 12.7285C1224.27 17.2059 1224.11 17.9074 1230.07 17.9671C1234.64 17.9671 1235.13 20.3252 1232.3 22.2206C1228.98 24.4559 1225.29 26.069 1221.4 26.9816C1215.42 28.4864 1209.27 29.2483 1203.11 29.2502C1192.79 28.9218 1186.4 30.668 1188.41 39.8318C1177 58.1145 1167.6 77.1435 1153.5 94.471C1140.11 110.694 1128.92 128.052 1117.03 145.021C1116.34 146.006 1117.13 147.603 1117.25 148.916C1118.92 148.267 1120.51 147.431 1121.99 146.424C1129.33 139.947 1136.85 133.544 1143.59 126.753C1147.03 123.32 1151.54 123.067 1155.55 124.007C1159.22 124.873 1164.07 126.514 1159.25 131.305C1153.56 136.991 1149.16 143.424 1144.15 149.513C1142.74 150.904 1141.44 152.4 1140.26 153.991C1139.72 154.916 1140.26 156.214 1140.39 157.334C1141.84 156.985 1143.26 156.531 1144.64 155.976C1155.77 150.528 1163.1 150.797 1170.44 157.468C1171.12 158.172 1171.59 159.051 1171.8 160.008C1172.01 160.964 1171.95 161.961 1171.63 162.886C1168.55 169.662 1161.97 173.96 1152.65 174.288C1142.35 174.661 1134.03 177.109 1127.1 183.064C1124 185.736 1119.48 187.437 1115.72 189.706C1114.86 190.384 1114.12 191.195 1113.52 192.108C1114.35 192.474 1115.22 192.715 1116.12 192.825C1121 192.616 1126.53 193.317 1130.58 191.78C1138.77 188.661 1143.96 192.899 1150.2 194.914C1151.21 195.243 1152.4 197.138 1152.03 197.586C1150.99 198.736 1149.58 199.482 1148.04 199.69C1135.92 200.601 1123.78 201.675 1111.6 201.944C1104.17 202.108 1100.8 203.824 1100.86 209.779C1101.02 228.584 1105.84 246.688 1114.52 264.21C1119.76 274.821 1125.56 285.283 1131.09 295.82C1131.61 296.805 1132.08 297.805 1132.57 298.805C1133.09 297.82 1134.06 296.82 1134.06 295.82C1133.61 290.596 1133.05 285.597 1143.47 287C1143.96 287.074 1144.95 283.433 1146.29 281.836C1148.19 279.642 1150.29 276.642 1153.08 276.015C1156.26 275.299 1160.62 281.88 1159.83 284.97C1159.09 287.833 1158.6 290.754 1158.34 293.701C1158.34 294.551 1159.38 295.447 1159.95 296.328C1160.38 295.313 1160.91 294.328 1161.26 293.343C1161.94 291.238 1162.34 289.089 1163.19 287.029C1164.04 284.97 1165.43 282.552 1166.56 280.388C1170.32 281.725 1174.01 283.254 1177.62 284.97C1179.64 286.059 1180.84 288.029 1182.42 289.611C1183.29 287.407 1184.28 285.254 1185.39 283.164C1186.37 281.537 1187.49 279.552 1189.3 278.687C1191.53 277.953 1193.93 277.891 1196.2 278.507C1197.1 278.761 1197.46 281.194 1197.28 282.567C1197.04 284.298 1195.8 285.94 1195.35 287.671C1193.86 293.387 1192.78 299.133 1191.32 304.835C1190.52 308.014 1189.03 311.088 1188.35 314.267C1186.18 325.132 1184.25 336.012 1182.32 346.907C1182.2 347.534 1182.84 348.25 1183.12 348.922C1183.83 348.325 1184.96 347.818 1185.21 347.131C1190.71 332.341 1210.2 327.072 1221.43 316.192C1223.5 314.492 1225.99 313.402 1228.64 313.043C1230.77 312.887 1232.88 313.518 1234.58 314.819C1235.62 315.804 1235.36 317.938 1234.9 319.416C1234.6 320.371 1232.87 321.058 1231.85 321.893C1218.33 332.968 1204.84 344.062 1191.38 355.176C1190.55 356.124 1189.89 357.216 1189.45 358.399C1191.17 358.011 1192.96 357.758 1194.59 357.22C1203.51 354.235 1212.43 351.25 1221.43 348.265C1223.57 347.579 1226.37 346.683 1228.24 347.206C1232.91 348.705 1237.5 350.439 1242 352.4C1238.45 354.459 1235.28 357.31 1231.28 358.369C1221.19 361.145 1210.73 363.13 1200.43 365.444C1198.17 365.748 1195.94 366.293 1193.79 367.071C1180.21 373.518 1179.77 374.533 1185.5 389.786C1190.59 403.397 1189.66 416.486 1182.36 429.65C1172.92 446.634 1160.94 462.156 1143.1 474.812C1142.04 475.558 1141.12 476.424 1140.12 477.245C1141.92 477.692 1143.75 478.031 1145.59 478.259C1148.09 478.439 1150.68 478.021 1153.11 478.379C1156.27 478.884 1159.38 479.638 1162.42 480.632C1162.49 481.742 1162.14 482.838 1161.45 483.707C1158.63 486.468 1155.4 488.453 1150.14 487.274C1144.88 486.095 1126.27 487.916 1122.11 489.871C1120.91 490.641 1119.83 491.587 1118.9 492.677C1120.37 493.44 1121.93 494.007 1123.54 494.363C1132.65 495.259 1142.01 495.274 1150.87 496.915C1161.02 498.811 1165.11 502.676 1163.98 507.258C1163.65 508.093 1163.13 508.838 1162.46 509.432C1161.79 510.026 1160.99 510.452 1160.13 510.676C1156.19 511.124 1151.51 511.825 1148.24 510.676C1134.25 505.721 1120.65 509.542 1106.92 510.885C1106.04 511.062 1105.19 511.348 1104.38 511.736C1105.21 512.556 1105.87 513.75 1106.92 514.124C1115.42 516.959 1124.1 519.511 1132.57 522.422C1137.18 524.029 1141.68 525.928 1146.05 528.108C1147.54 528.839 1151.03 530.003 1147.14 532.138C1145.18 533.212 1143.94 535.675 1141.97 535.973C1139.19 536.317 1136.38 535.845 1133.87 534.615C1127.36 531.063 1120.1 531.75 1112.87 531.511C1108.41 531.362 1106.19 532.287 1107.06 535.869C1108.05 539.988 1105.78 540.824 1100.55 540.928C1086.22 541.227 1075.06 535.72 1064.46 529.69C1062.17 528.377 1063.16 523.72 1062.62 520.601C1065.7 521.063 1068.8 521.422 1071.83 522.004C1073.62 522.347 1075.24 523.302 1077.02 523.496C1077.87 523.586 1079.76 522.601 1079.79 522.004C1080.01 517.78 1074.93 513.183 1069.06 513.258C1063.39 513.283 1057.75 514.045 1052.28 515.526C1031.84 521.392 1011.87 528.183 991.344 533.705C968.468 539.705 946.684 549.306 926.8 562.151C919.235 567.076 912.696 572.912 905.533 578.195C902.352 580.538 900.361 582.195 904.507 585.538C909.278 589.374 910.898 595.359 921.108 594.03C925.967 593.389 926.725 596.821 922.386 600C921.301 600.791 920.32 602.269 919.176 602.343C899.856 603.507 881.427 612.179 861.215 605.492C856.118 603.806 849.965 604.104 844.555 602.821C841.286 602.06 838.522 600.03 835.52 598.582C837.585 596.538 839.22 594.105 841.776 592.538C856.073 583.882 855.999 583.882 848.717 570.345C843.86 560.783 836.444 552.772 827.301 547.212C813.836 539.122 807.401 527.974 802.17 515.974C798.933 508.733 794.788 501.937 789.835 495.751C786.298 491.274 786.863 487.408 788.913 483.2C789.85 481.304 795.839 480.319 790.4 477.483C787.576 475.991 786.699 473.678 780.844 474.961C759.755 479.543 741.475 487.961 723.106 496.512C718.306 498.736 713.401 500.841 708.571 503.034C706.91 503.948 704.998 504.296 703.123 504.027C701.247 503.758 699.509 502.886 698.168 501.542C694.349 498.199 698.525 496.736 700.784 495.199C705.837 491.751 711.44 488.796 716.478 485.334C723.701 480.379 727.342 472.275 738.547 470.857C737.626 469.588 736.987 467.409 735.724 467.185C726.093 465.394 716.404 463.947 706.61 462.439C696.4 460.947 686.056 459.678 675.98 457.693C670.659 456.649 666.855 453.798 666.543 448.903C666.231 444.007 670.08 443.201 674.538 441.052C686.22 435.441 696.727 435.5 707.739 441.619C709.552 442.619 712.45 442.5 714.843 442.888C714.516 441.082 715.051 438.679 713.728 437.56C705.094 430.336 702.523 421.143 698.867 412.188C694.081 400.547 704.098 391.398 720.06 393.263C726.435 394.01 726.911 392.607 724.102 388.383C720.52 383.025 718.157 377.234 715.185 371.623C714.68 370.623 714.605 368.638 714.085 368.638C700.591 367.235 704.499 363.011 710.845 358.086C711.128 357.862 709.359 355.205 708.378 355.101C704.686 354.614 700.949 354.574 697.247 354.982C678.954 357.717 660.335 357.374 642.155 353.967C638.989 353.37 634.278 351.176 634.026 349.489C633.713 347.146 636.314 343.654 639.049 342.191C646.004 338.475 653.301 334.803 662.664 335.729C666.172 335.975 669.693 335.975 673.201 335.729C675.029 335.471 676.837 335.082 678.61 334.565C678.053 333.207 677.393 331.895 676.634 330.639C672.175 324.386 666.127 319.132 662.961 311.894C659.261 303.432 661.475 295.477 660.925 287.328C660.583 282.851 667.509 281.761 673.067 283.925C680.84 286.91 676.322 293.835 681.449 297.521C682.549 298.312 682.935 299.686 683.634 300.775C684.139 299.799 684.494 298.753 684.689 297.671C684.793 293.059 684.689 288.462 684.689 283.85C685.05 272.744 686.731 261.721 689.697 251.016C692.774 238.897 693.442 225.45 688.36 212.764C687.379 210.317 687.735 207.541 687.721 204.899C687.721 192.959 688.077 181.094 687.587 169.214C687.022 155.319 686.101 141.409 684.377 127.574C684.035 124.723 680.765 121.082 677.451 119.604C661.178 112.366 653.673 101.426 651.369 87.5908C650.373 80.9194 647.906 74.2779 645.915 67.6066C644.533 63.1292 647.669 56.2937 650.671 57.2787C654.546 58.685 657.946 61.1634 660.479 64.4276C664.195 69.308 666.721 74.7406 669.693 79.9046C670.464 81.3061 671.523 82.527 672.8 83.4865C675.519 85.3371 677.511 85.5312 678.744 82.0836C682.593 72.1586 687.275 62.4277 690.5 52.4879C691.555 49.294 692.892 45.3091 696.192 45.9509C699.967 46.6971 704.663 50.3089 705.436 53.2192C706.922 58.7413 705.792 64.6664 705.941 70.4274C705.941 71.293 706.996 72.1586 707.576 73.0243C708.324 72.5449 709.026 71.9952 709.671 71.3826C711.484 69.2782 714.249 67.2335 714.709 64.95C716.195 57.8011 722.14 52.6371 726.153 46.6076C729.838 41.1451 735.07 39.3094 739.528 41.3989C743.08 43.0555 745.473 49.1597 744.685 52.7565C741.237 67.0842 736.734 81.3522 727.015 94.277C724.042 98.3067 721.308 102.501 718.098 106.396C715.926 108.575 713.58 110.571 711.083 112.366C708.378 109.858 702.686 106.276 703.474 105.008C707.085 99.038 700.784 95.2471 699.937 90.4115C698.971 84.964 697.975 79.5314 696.965 74.0989C696.648 73.0601 696.219 72.0592 695.686 71.1139C694.2 72.0989 691.926 72.9347 691.585 74.0989C690.098 79.427 689.073 84.8446 687.988 90.2474C687.765 91.3816 688.3 92.6204 687.899 93.695C686.74 96.6799 685.298 99.7693 683.961 102.799C680.275 100.859 676.53 98.9485 672.904 96.9486C671.284 96.0531 669.931 94.874 668.326 93.9636C665.919 92.7099 663.362 91.6204 660.895 90.4563C661.921 92.7995 662.382 95.3815 664.061 97.456C671.581 107.232 675.103 109.127 695.27 117.127C697.931 118.157 701.586 119.649 698.555 124.126C696.192 127.619 697.574 132.723 697.841 137.081C698.005 139.947 700.115 142.857 699.714 145.618C697.767 158.826 700.516 171.975 699.996 185.183C699.446 198.989 699.55 212.824 699.996 226.629C700.219 233.614 701.884 240.584 702.865 247.524C703.89 254.882 704.707 262.269 705.926 269.597C707.784 280.88 709.894 292.134 711.871 303.402C712.132 304.099 712.487 304.757 712.926 305.357C714.055 304.928 715.105 304.313 716.032 303.536C716.941 302.355 717.557 300.974 717.83 299.506C719.926 287.492 721.858 275.448 723.953 263.419C724.188 261.946 724.814 260.564 725.766 259.419C731.102 253.449 734.609 253.538 738.934 260.075C741.304 263.437 743.298 267.05 744.878 270.851C746.514 274.953 747.516 279.281 747.851 283.686C748.133 288.716 747.658 293.268 756.158 294.984C758.09 295.372 760.216 299.462 759.814 301.521C758.477 308.64 757.541 316.162 753.662 322.535C748.951 330.326 741.326 337.057 735.218 344.37C734.163 345.624 734.342 347.489 733.955 349.071C736.021 348.504 738.815 348.415 740.048 347.31C746.929 341.117 753.156 334.505 760.141 328.386C772.491 317.58 786.58 308.984 806.97 310.387C809.096 310.536 811.087 311.983 813.138 312.819C812.172 314.177 811.652 315.953 810.166 316.834C795.824 325.49 781.334 334.012 766.829 342.519C765.343 343.37 763.143 343.609 761.999 344.624C754.093 351.638 745.027 356.564 732.142 356.564C729.393 356.564 725.112 358.489 724.31 360.265C723.507 362.041 726.183 364.847 726.866 367.279C732.811 388.368 747.137 406.934 757.347 426.739C758.016 428.053 760.082 428.933 761.509 430.023C762.029 428.695 763.173 427.322 762.995 426.038C761.94 418.367 760.84 410.68 759.25 403.054C758.373 398.83 755.118 394.621 755.609 390.607C755.891 388.219 760.959 385.458 764.659 384.249C767.632 383.264 770.99 383.174 772.566 388.01C777.202 402.218 785.807 415.621 787.427 430.53C787.591 432.023 790.4 433.217 791.886 434.56C792.688 433.31 793.389 431.997 793.981 430.635C795.809 425.441 797.503 420.188 799.257 415.024C801.828 407.427 807.936 402.144 817.299 399.054C826.662 395.965 829.337 397.726 832.666 405.024C839.919 420.859 831.031 434.993 826.35 449.619C825.579 451.712 824.583 453.714 823.378 455.589C822.025 457.857 821.104 460.604 818.815 462.111C816.526 463.618 812.87 463.827 809.764 464.618C809.289 462.469 807.877 460.141 808.486 458.201C810.79 450.917 814.282 443.843 816.318 436.53C818.097 429.365 819.408 422.091 820.242 414.755C820.376 413.815 818.458 412.71 817.507 411.68C816.452 412.651 814.906 413.486 814.431 414.576C811.265 422.038 807.862 429.5 805.514 437.067C803.716 442.739 803.567 448.709 802.259 454.499C801.308 458.753 796.092 458.977 791.856 460.126C790.179 460.844 788.613 461.799 787.204 462.962C788.691 463.529 790.4 464.678 791.871 464.559C797.503 464.111 798.678 465.544 799.688 470.021C801.323 477.349 809.69 481.797 817.656 485.274C831.522 491.319 846.071 495.796 862.36 490.08C864.322 489.687 866.342 489.687 868.304 490.08C871.277 490.423 874.249 491.035 877.221 491.572C874.799 493.423 872.763 495.677 869.79 497.02C866.857 498.324 863.707 499.063 860.502 499.199C853.487 499.527 846.428 499.199 839.398 499.348C836.069 499.423 832.755 500.02 829.426 500.393C831.507 502.02 833.632 503.602 835.638 505.288C845.616 513.626 855.563 521.994 865.481 530.391C869.582 533.869 873.669 536.033 879.005 531.645C892.469 520.526 906.038 509.497 919.443 498.333C920.441 497.209 921.181 495.88 921.613 494.438C921.778 493.916 921.868 493.373 921.88 492.826C920.513 492.826 918.715 492.378 917.912 492.826C917.11 493.274 917.526 495.184 916.664 495.811C911.537 499.199 906.692 503.199 900.747 505.363C896.987 506.736 891.459 505.288 886.733 505.124C889.809 502.721 892.321 499.259 896.066 498.124C907.123 494.781 907.836 485.185 915.862 480.14C915.966 480.065 913.677 476.618 912.176 476.439C907.717 475.916 903.125 476.513 898.652 476.2C890.493 475.633 882.304 474.991 874.308 473.767C872.094 473.439 868.973 470.917 868.958 469.379C868.943 467.842 872.421 464.902 874.13 464.977C882.794 465.469 885.633 462.723 887.728 456.395C889.007 452.559 895.62 449.335 902.872 452.753C904.567 453.544 907.509 452.753 909.872 452.753C909.753 450.664 910.288 448.41 909.412 446.545C905.77 438.873 901.52 431.381 897.849 423.725C894.565 416.874 900.688 407.964 909.456 407.397C911.73 407.248 915.237 409.785 916.53 411.725C917.823 413.665 916.278 416.307 916.917 418.501C918.034 421.624 919.375 424.662 920.929 427.59C921.554 424.531 922.891 421.441 922.653 418.426C922.109 414.056 921.149 409.748 919.785 405.561C916.515 393.89 924.734 383.652 940.443 382.055C948.602 381.234 949.701 378.577 950.162 373.279C951.024 363.235 946.551 352.862 952.971 343.131C946.907 332.206 951.069 320.744 950.103 309.536C949.835 306.551 948.706 305.267 944.931 305.835C937.5 306.924 930.188 308.625 922.638 309.207C915.585 309.965 908.465 309.829 901.446 308.805C893.926 307.417 892.975 302.432 899.41 299.715C905.868 297.245 912.554 295.421 919.369 294.268C925.314 293.074 931.555 292.596 937.693 291.895C942.345 291.373 942.152 289.582 939.744 287.417C929.519 277.955 921.91 266.792 908.832 259.195C900.822 254.538 892.707 249.986 884.726 245.3C883.442 244.365 882.27 243.283 881.234 242.076C883.181 241.032 884.964 239.315 887.089 239.091C900.539 237.3 910.675 243.39 921.271 248.046C923.367 248.971 924.719 250.852 926.711 251.986C928.007 252.404 929.361 252.615 930.723 252.613C930.901 251.3 931.763 249.748 931.169 248.703C924.58 237.36 917.848 226.057 910.972 214.794C906.514 207.6 906.87 205.123 913.394 201.362C917.853 198.765 929.088 199.466 933.844 202.212C943.088 207.57 942.3 216.465 947.101 223.391C947.796 224.645 948.34 225.977 948.721 227.36C950.259 225.977 951.722 224.513 953.105 222.973C953.551 222.42 953.328 221.48 953.105 220.704C949.107 204.287 944.916 187.959 941.215 171.542C939.729 165.005 939.387 158.334 938.065 151.782C935.226 137.738 931.496 123.783 929.4 109.694C928.687 104.814 925.804 104.709 921.97 105.441C916.148 106.423 910.435 107.967 904.908 110.052C895.471 113.903 885.588 112.067 875.928 111.933C872.51 111.933 869.181 108.232 865.808 106.232C868.223 104.281 870.738 102.457 873.342 100.769C883.404 94.7994 895.873 94.0233 907.524 91.6055C911.983 90.6802 912.265 89.128 909.62 87.1281C900.703 80.218 894.357 72.3527 892.573 62.5322C891.994 59.3383 890.359 56.2191 890.017 53.0252C889.556 48.8313 890.106 44.5778 889.824 40.369C889.675 38.2348 883.3 35.5334 888.843 34.3992C893.019 33.4888 899.9 31.2202 903.095 38.0259C906.528 45.339 912.428 51.9506 916.917 58.9204C917.63 60.0398 916.59 61.8009 916.367 63.2635L912.102 61.2636L908.906 59.7711C908.654 60.8159 907.732 62.174 908.267 62.8456C911.938 67.4126 915.891 71.89 919.874 76.3674C920.275 76.8301 921.256 77.0092 921.955 77.3226C922.311 76.6659 922.965 76.0092 922.965 75.3525C923.055 69.5916 922.237 63.756 923.203 58.0996C924.614 49.4191 926.813 40.8864 929.772 32.6082C930.53 30.5188 931.11 26.0712 938.288 26.7428C940.545 26.9199 942.741 27.5659 944.736 28.6398C946.731 29.7137 948.483 31.1921 949.88 32.9813C953.164 36.6528 947.799 52.0252 942.969 57.025C941.948 58.0698 941.314 59.4337 941.171 60.8905C940.978 66.2634 940.933 71.6363 941.171 77.0092C941.171 78.039 943.014 79.024 943.995 79.9941C945.096 79.1173 946.094 78.1157 946.967 77.0092C950.816 70.9348 954.814 64.9052 958.173 58.6667C960.669 54.0102 965.514 52.0252 971.102 52.5028C977.389 53.0401 982.412 56.6519 982.991 61.4576C984.091 70.8154 984.388 80.1583 972.752 86.9938C963.939 92.1727 957.89 99.9633 946.833 103.247C945.079 103.754 943.415 107.888 944.262 109.62C951.292 123.992 950.014 139.26 953.179 154.021C956.776 170.841 961.531 187.527 964.935 204.376C966.228 210.749 965.143 217.406 964.385 224.51C962.126 220.197 959.629 215.361 959.287 210.421C958.069 192.407 953.343 174.796 950.37 156.991C947.591 140.678 944.99 124.365 940.978 108.202C940.71 107.127 938.986 106.262 938.005 105.306C937.262 106.635 935.538 108.202 935.954 109.261C942.761 126.47 945.139 144.2 947.19 161.975C948.037 169.333 948.022 176.9 950.445 183.945C954.422 194.746 956.391 206.189 956.255 217.704C956.047 224.585 956.107 231.495 956.255 238.375C956.549 240.119 957.074 241.815 957.816 243.419C959.302 241.584 961.398 239.882 962.081 237.882C963.346 233.67 964.398 229.396 965.232 225.077C968.204 224.002 971.176 223.017 974 221.809C982.323 218.212 987.896 220.465 989.441 227.48C992.756 242.405 987.643 256.508 982.501 270.612C982.147 271.448 981.75 272.265 981.312 273.06C982.665 273.06 984.493 273.478 985.31 272.97C992.83 268.194 999.978 263.06 1007.6 258.464C1011.5 256.309 1015.65 254.669 1019.97 253.583C1025.3 252.091 1031.34 255.27 1031.46 259.404C1031.78 271.15 1025.35 280.104 1013.19 287.403C1003.72 293.35 993.355 297.738 982.501 300.402C978.043 301.447 969.884 300.596 968.992 302.312C966.911 306.282 968.189 311.267 968.189 315.879C968.189 328.147 967.862 340.43 968.293 352.713C968.546 360.28 966.599 367.638 967.684 375.413C968.858 383.741 966.644 392.442 964.994 400.875C963.879 406.487 960.922 411.874 959.257 417.426C958.767 419.098 959.837 421.023 960.194 422.829C962.616 421.978 966.332 421.605 967.253 420.173C972.499 412.128 980.747 406.979 991.641 404.188C993.995 403.577 996.465 403.577 998.819 404.188C1003.98 405.89 998.819 407.815 998.106 409.173C995.906 413.456 993.647 418.128 989.754 421.426C981.446 428.545 972.083 434.948 963.166 441.649C961.68 442.709 960.476 443.873 959.124 444.992C961.16 444.992 963.582 445.574 965.187 444.992C982.536 438.321 1001.15 435.643 1019.67 437.157C1021.66 437.291 1024.81 438.157 1025.17 439.157C1025.4 440.061 1025.37 441.014 1025.07 441.898C1024.76 442.781 1024.21 443.557 1023.47 444.127C1019.02 446.724 1013.95 448.679 1009.12 450.903C1006.31 452.201 1003.04 453.171 1000.8 454.902C988.327 464.544 988.401 464.544 974.699 467.111C973.346 467.364 972.351 468.767 971.191 469.648C972.678 470.305 974.045 471.514 975.501 471.543C984.537 471.722 993.603 471.409 1002.61 471.782C1005.12 471.872 1007.51 473.722 1009.97 474.767C1007.91 476.021 1006.12 477.856 1003.78 478.439C991.463 481.513 980.138 484.826 966.183 479.155C957.965 475.812 945.377 477.871 934.974 478.886C930.931 479.274 927.543 483.364 923.887 485.931C923.575 486.14 923.887 487.423 924.11 487.423C925.517 487.817 926.994 487.893 928.434 487.647C932.997 485.752 935.167 485.035 935.182 490.557C935.182 503.005 927.454 513.512 921.42 524.272C911.373 542.182 899.633 559.584 888.724 577.255C887.892 578.613 888.174 580.389 887.951 581.971C890.017 581.285 892.871 581.046 894.045 579.852C921.583 551.495 959.837 535.645 1002.53 524.436C1018.75 520.183 1034.19 514.258 1050.09 509.333C1054.09 508.079 1056.88 506.96 1055.66 503.139C1054.45 499.318 1054.18 495.169 1052.47 491.483C1049.11 484.498 1044.82 477.782 1041.23 470.872C1040.42 469.151 1040.22 467.199 1040.68 465.35C1041.1 463.514 1042.59 461.827 1043.66 460.081C1046.63 461.171 1052.1 457.35 1052.87 463.066C1053.05 464.38 1055.93 465.484 1057.57 466.678C1058.13 464.925 1058.49 463.112 1058.62 461.275C1058.24 453.025 1060.31 444.847 1064.57 437.784C1066.62 434.276 1068.56 431.68 1073.86 432.5C1079.15 433.321 1080.2 436.575 1079.8 440.261C1078.76 451.067 1077.65 461.872 1076.83 472.693C1076.69 474.588 1078.31 476.558 1079.03 478.498C1081.71 478.035 1084.34 477.321 1086.89 476.364C1093.68 473.021 1100.06 469.185 1106.91 465.917C1109.55 464.874 1112.4 464.47 1115.23 464.738C1120.52 465.126 1123.12 466.797 1119.05 471.021C1118.39 471.705 1117.93 472.558 1117.72 473.487C1117.5 474.415 1117.55 475.384 1117.85 476.289C1120.24 480.767 1123.64 476.394 1125.72 475.901C1137.61 473.11 1144.97 465.32 1151.7 458.245C1159.84 449.709 1164.78 439.411 1171.78 430.172C1175.66 425.083 1176.15 419.904 1176.33 414.292C1176.74 401.606 1176.33 389.114 1170.26 376.981C1166.67 369.906 1163.84 368.787 1154.69 371.578C1136.04 377.286 1116.6 379.922 1097.11 379.383C1093.06 379.264 1091.54 379.309 1092.57 374.996C1095.54 362.25 1106.73 356.817 1121.44 354.101C1125.48 353.355 1125.19 352.609 1122.56 351.041C1115.41 346.639 1108.65 341.788 1100.98 337.982C1082.64 328.878 1076.69 313.118 1088.21 300.118C1095.12 292.328 1106.76 291.94 1113.03 299.969C1120.97 310.133 1128.93 320.282 1137.05 330.356C1140.69 334.833 1137.17 341.042 1142.99 344.982L1145.3 346.474C1146.37 345.4 1148.54 343.49 1148.34 343.34C1140.6 337.236 1142.75 328.416 1137.57 321.297C1127.06 306.76 1115.82 292.402 1108.59 276.388C1104.05 266.359 1097.63 256.882 1094.5 246.3C1090.95 234.36 1087.97 222.42 1088.75 210.167C1088.98 206.421 1089.04 203.391 1081.96 204.093C1079.27 204.078 1076.67 203.117 1074.61 201.377C1069.31 196.586 1063.16 196.899 1055.99 198.033C1049.3 199.151 1042.53 199.65 1035.75 199.526C1028.68 199.362 1025.58 193.884 1030.56 190.183C1038.22 184.497 1046.06 178.452 1055.31 174.721C1061.8 172.094 1065.71 168.483 1066.84 164.274C1070.26 151.319 1075.59 138.454 1073.65 124.932C1072.64 117.963 1071.64 110.978 1070.68 104.038C1069.96 99.1574 1075.55 100.038 1077.59 100.889C1083.41 103.321 1087.1 107.127 1085.92 112.828C1085.52 114.784 1086.95 116.963 1087.53 119.037C1089.15 117.596 1090.86 116.251 1092.64 115.007C1094.44 113.873 1098.08 112.022 1098.38 112.291C1101.5 114.888 1105.7 117.604 1106.51 120.753C1107.84 125.917 1106.79 131.44 1106.94 136.812C1106.94 137.797 1107.89 138.768 1108.42 139.797C1108.93 138.797 1109.36 137.783 1109.91 136.812C1112.58 132.335 1115.97 127.932 1117.88 123.231C1123.82 108.62 1137.48 97.2918 1145.77 83.6954C1153.62 70.8154 1162.12 58.1593 1170.13 45.3539C1170.72 44.4136 1169.77 42.9361 1170.29 41.9511C1171.97 38.7124 1176.55 33.6082 1175.45 32.7724C1170.5 29.0711 1164.91 33.0709 1159.53 33.9067C1150.78 35.2499 1142.93 38.8318 1133.38 38.7572C1127.18 38.7572 1128.83 34.6678 1125.86 33.3694C1127.54 31.9963 1129.13 30.5486 1130.94 29.28C1132.08 28.5981 1133.3 28.0664 1134.58 27.698C1137.14 26.8324 1139.75 26.0563 1142.34 25.2354C1139.77 21.9669 1138.21 17.2358 1134.43 15.6836C1119.81 9.71373 1117.67 0.0574597 1119.11 -10.8973C1119.36 -12.8524 1121.29 -15.8672 1123.17 -16.2254C1125.87 -16.7477 1130.42 -16.0612 1132.08 -14.5389C1138.22 -8.9869 1143.38 -2.79315 1149.17 2.9827C1151.78 5.20115 1154.52 7.24527 1157.39 9.10182C1158.53 11.1106 1159.45 13.2311 1160.16 15.4299C1161.42 15.1015 1163.66 14.9374 1163.8 14.415C1164.75 11.0122 1165.28 7.53473 1158.15 8.44514M717.964 431.291L720.758 431.456C719.566 430.993 718.575 430.12 717.964 428.993C717.697 428.008 717.414 427.038 717.147 426.008L715.17 426.471C716.35 427.902 717.293 429.515 717.964 431.247M778.273 452.022C778.555 453.007 778.822 453.977 779.09 455.007L781.067 454.544C779.887 453.113 778.943 451.5 778.273 449.768C777.262 442.082 776.43 434.396 775.092 426.754C774.884 425.56 772.447 424.575 771.035 423.501C770.426 424.68 769.014 426.038 769.356 427.023C772.135 435.023 775.3 442.963 778.273 452.067M909.441 513.109C900.212 523.242 891.028 533.391 881.709 543.48C880.507 544.844 879.038 545.944 877.394 546.712C875.75 547.48 873.966 547.9 872.153 547.944C870.34 547.989 868.538 547.658 866.858 546.973C865.178 546.287 863.657 545.26 862.389 543.958C846.978 528.317 825.696 516.273 814.297 498.154C813.234 497.392 811.946 497.014 810.641 497.08C809.631 498.05 808.278 499.751 808.769 500.542C811.369 504.721 815.635 508.467 817.225 512.825C821.223 523.75 828.564 532.779 839.517 540.391C844.572 543.811 849.281 547.72 853.576 552.062C860.591 559.42 863.98 567.957 865.926 576.942C866.313 578.777 868.899 580.359 870.489 582.046C871.901 580.971 874.234 580.031 874.606 578.762C880.669 558.256 897.136 541.361 907.896 522.496C909.486 519.644 910.043 516.327 909.471 513.109M731.533 416.322C728.107 412.699 724.501 409.252 720.728 405.994C719.42 404.934 718.157 400.756 714.65 404.099C714.042 404.847 713.64 405.743 713.484 406.696C713.328 407.649 713.422 408.626 713.758 409.531C718.885 423.486 729.556 435.321 739.276 447.485C742.106 451.036 745.327 454.255 748.876 457.081C753.885 461.036 760.766 461.559 764.095 458.066C767.424 454.574 762.608 452.544 760.676 450.171C751.581 439.216 742.278 428.366 731.533 416.322ZM1170.28 325.281C1169.28 329.147 1168.15 333.012 1167.31 336.908C1167.11 337.863 1167.97 338.937 1168.36 339.967C1169.84 339.231 1171.23 338.319 1172.49 337.251C1173.22 336.46 1173.03 335.162 1173.25 334.087C1175.27 324.819 1175.38 314.968 1179.89 306.476C1183.43 299.865 1178.64 298.76 1174.36 296.298C1172.4 295.48 1170.35 294.894 1168.26 294.551C1167.71 295.902 1167.38 297.334 1167.29 298.79C1168.15 306.864 1169.24 314.909 1170.26 325.281M1013.47 265.389C1013.13 265.678 1012.78 265.948 1012.4 266.195C997.734 274.776 989.932 291.164 966.48 289.835C966.124 289.835 965.366 290.999 965.291 291.656C965.217 292.313 965.797 293.596 966.064 293.596C972.796 293.507 980.762 294.954 985.994 292.701C994.747 288.925 1003.29 283.582 1008.85 277.313C1011.69 274.105 1021.94 270.806 1013.47 265.374M723.998 341.46L725.053 340.654C728.531 337.997 733.584 335.788 735.189 332.594C739.068 324.834 724.786 332.162 725.231 326.341C725.231 325.729 724.161 325.117 724.042 324.446C723.225 319.894 718.618 321.625 716.21 322.341C713.401 323.192 713.535 324.983 714.174 327.998C715.096 332.341 718.484 337.251 715.2 342.161C714.65 342.982 717.444 345.146 718.677 346.639C720.989 345.582 722.868 343.759 723.998 341.475M965.232 454.335C961.13 455.932 956.969 457.454 952.971 459.186C951.916 459.633 951.336 460.678 950.534 461.544C951.834 461.953 953.174 462.223 954.531 462.35C956.901 462.472 959.276 462.236 961.576 461.648C973.257 457.549 984.849 453.295 996.352 448.888C998.358 448.127 999.711 446.38 1001.36 445.082C998.671 444.873 995.609 443.918 993.335 444.574C984.344 447.171 975.59 450.276 965.232 454.335ZM944.128 405.964C944.128 403.308 945.02 400.382 943.846 398.069C942.865 396.114 939.492 394.86 937.158 393.308C936.475 395.278 935.018 397.293 935.226 399.278C935.836 405.069 937.5 410.785 937.976 416.576C938.481 422.635 937.976 428.739 938.184 434.814C938.184 436.217 939.477 437.605 940.16 439.008C941.483 437.515 943.876 436.023 943.95 434.53C944.307 425.799 944.128 417.053 944.128 406.009M674.241 349.489C680.706 349.489 687.171 349.564 693.636 349.489C694.72 349.489 696.489 348.594 696.608 347.907C696.727 347.221 695.894 345.146 695.285 345.101C682.801 344.161 670.288 343.34 657.76 342.773C656.273 342.699 654.401 344.027 653.123 345.027C652.667 345.342 652.299 345.77 652.054 346.269C651.81 346.768 651.697 347.322 651.726 347.877C651.919 348.579 653.658 349.459 654.698 349.489C660.152 349.653 665.636 349.489 674.122 349.489M732.93 309.193C737.998 301.044 735.426 292.358 735.739 283.895C735.739 282.836 733.138 281.731 731.741 280.657C731.131 281.821 729.913 283.015 730.002 284.149C730.656 292.671 728.516 300.745 724.756 308.76C723.582 311.282 720.773 315.356 726.881 316.938C727.357 317.073 729.853 312.655 732.93 309.193ZM735.902 484.259C746.553 480.04 757.214 475.822 767.884 471.603C769.181 471.198 770.501 470.874 771.837 470.633C770.823 470.05 769.733 469.613 768.598 469.334C753.409 467.693 741.624 472.782 731.562 480.767C728.1 483.498 728.828 485.513 735.902 484.259ZM968.249 74.263C969.431 72.0264 970.387 69.6765 971.102 67.2484C971.295 66.2485 969.854 64.8605 968.695 64.0098C967.46 64.0165 966.269 64.4665 965.336 65.2784C961.145 71.9049 957.058 78.5613 953.328 85.3521C952.793 86.3072 954.279 87.934 954.814 89.2474C956.3 88.6056 958.202 88.2475 959.079 87.3072C962.758 83.4426 965.839 79.0456 968.219 74.263M927.543 414.024C928.048 419.919 928.494 425.814 929.103 431.709C929.397 432.769 929.853 433.776 930.456 434.694C930.991 433.769 931.942 432.859 931.942 431.933C932.061 421.71 932.09 411.486 931.942 401.263C931.942 400.144 930.456 399.024 929.609 397.905C928.405 398.741 926.265 399.517 926.175 400.397C925.748 404.989 926.207 409.621 927.528 414.039M1105.44 499.259C1099.11 499.482 1093.22 500.557 1088.85 504.452C1094.32 505.019 1099.79 505.646 1105.27 506.139C1107.24 506.483 1109.25 506.483 1111.22 506.139C1114.8 505.154 1118.17 503.691 1121.62 502.437C1118.31 502.169 1114.95 502.064 1111.72 501.527C1110.49 501.318 1109.57 500.035 1105.48 499.318M1126.58 358.817L1116.43 361.966C1116.89 362.444 1117.4 363.369 1117.82 363.354C1121.13 363.19 1124.43 362.862 1127.73 362.519C1128.12 362.519 1128.49 362.041 1128.77 361.742C1134.05 356.041 1137.2 360.504 1141.33 362.951C1143.78 364.444 1141.74 370.115 1148.13 367.235C1146.95 364.798 1145.45 362.53 1143.68 360.489C1142.04 358.653 1139.22 357.504 1137.55 355.593C1131.33 348.489 1130.98 356.399 1126.55 358.817M938.095 242.42C935.984 233.972 929.46 226.167 931.942 217.048C932.046 216.645 930.649 215.988 929.935 215.466L927.84 213.854C927.231 214.645 926.22 215.346 926.101 216.242C924.615 226.45 929.148 235.345 938.095 242.42ZM782.79 326.49C786.937 324.087 791.098 321.729 795.185 319.267C795.557 319.028 795.601 317.864 795.363 317.774C794.576 317.446 793.253 317.043 792.733 317.327C784.291 321.893 775.919 326.53 767.617 331.236C767.141 331.505 767.156 332.266 766.933 332.729C767.81 332.923 768.984 333.505 769.534 333.266C773.517 331.46 777.381 329.49 782.79 326.416M968.249 256.165C968.992 258.076 969.735 260.001 970.493 261.926C971.756 261.523 974.015 261.254 974.134 260.717C975.382 255.031 976.423 249.3 977.106 243.554C977.106 242.852 974.818 242.061 973.584 241.196C972.796 241.957 971.622 242.688 971.325 243.494C969.939 247.622 968.905 251.861 968.234 256.165M704.395 455.455C708.408 455.768 710.949 453.32 708.126 451.843C702.969 449.126 696.459 447.813 690.292 446.395C688.805 446.052 686.621 447.634 684.763 448.335C686.298 449.433 687.954 450.349 689.697 451.067C693.992 452.32 698.466 453.246 704.366 455.455M1111.46 326.46C1112.15 326.998 1112.84 327.565 1113.58 328.072C1114.96 329.013 1116.39 329.908 1117.8 330.818C1118.2 329.43 1119.51 327.639 1118.83 326.699C1116.13 322.772 1112.99 319.175 1109.46 315.983C1107.73 314.491 1104.11 314.252 1101.35 313.446C1102.45 315.297 1103.42 317.192 1104.71 318.953C1106.76 321.611 1109.02 324.106 1111.46 326.416M720.981 83.4865C722.987 79.5911 725.127 75.7256 726.926 71.7557C727.032 71.2141 726.974 70.6531 726.759 70.145C726.544 69.6368 726.183 69.205 725.722 68.9051C724.478 68.536 723.146 68.6045 721.947 69.0991C719.554 74.7108 717.488 80.3971 715.274 86.0685C717.262 85.4271 719.176 84.5714 720.981 83.5163M903.422 98.441C900.45 99.2022 897.374 99.9335 894.357 100.754C891.696 101.441 886.435 98.7992 887.223 103.5C887.387 104.381 892.989 105.62 895.605 105.157C900.376 104.306 904.804 102.307 909.382 100.784C908.401 100.008 907.42 99.2171 903.437 98.441M959.198 327.639C959.882 333.261 960.555 338.888 961.219 344.519C961.546 338.908 961.888 333.296 962.215 327.684C962.304 326.926 962.304 326.159 962.215 325.401C961.591 322.043 960.892 318.7 960.223 315.356C959.882 318.685 959.555 322.013 959.213 327.639M1161.33 355.28C1161.44 352.604 1161.4 349.923 1161.23 347.251C1161.14 346.43 1159.74 345.758 1158.98 344.922C1157.75 345.728 1155.37 346.668 1155.49 347.355C1156.25 351.672 1157.35 355.923 1158.76 360.071C1158.94 360.608 1161.27 360.728 1162.59 361.041C1162.81 359.034 1162.36 357.011 1161.33 355.28ZM677.258 310.372C676.56 309.834 675.92 308.954 675.148 308.879C674.704 308.894 674.269 309.005 673.872 309.203C673.475 309.401 673.124 309.683 672.844 310.028C672.726 310.376 672.72 310.751 672.827 311.102C672.933 311.453 673.147 311.762 673.439 311.983C678.001 314.521 673.082 322.849 683.589 321.67C681.82 317.725 679.701 313.949 677.258 310.387M962.215 382.921C962.297 381.778 962.297 380.631 962.215 379.488C962.007 377.995 961.546 376.637 961.204 375.219C960.491 376.294 960.119 377.637 959.035 378.383C953.565 382.174 957.325 387.025 956.3 391.308C956.166 391.86 957.117 392.547 957.563 393.174C958.218 392.348 958.762 391.44 959.183 390.472C959.817 387.814 960.849 385.268 962.245 382.921M936.608 464.693C936.982 464.468 937.327 464.197 937.634 463.887C937.768 463.693 937.634 463.156 937.53 463.126C933.175 462.111 928.836 460.469 924.437 460.395C921.108 460.32 917.704 462.245 914.316 463.29C917.288 463.768 920.261 464.424 923.233 464.633C926.651 464.872 930.129 464.633 936.608 464.633M701.378 340.311C702.969 341.206 704.663 344.072 706.372 340.893C707.279 339.191 706.535 336.744 705.688 334.923C705.376 334.191 701.988 333.356 701.23 333.803C699.03 335.102 694.899 336.669 701.364 340.37M1152.18 293.149C1151.85 292.839 1151.49 292.578 1151.09 292.372C1150.84 292.268 1150.14 292.372 1150.1 292.477C1148.61 296.148 1147.57 299.82 1152.52 302.566C1153.2 302.768 1153.91 302.848 1154.61 302.805C1154.38 299.465 1153.56 296.195 1152.18 293.149ZM1155.15 161.811C1152.79 161.983 1150.46 162.414 1148.19 163.095C1147.06 163.572 1146.92 165.378 1146.34 166.587C1147.64 166.915 1149.49 167.826 1150.17 167.468C1151.36 166.953 1152.43 166.178 1153.29 165.2C1154.15 164.222 1154.79 163.065 1155.15 161.811ZM959.198 362.19L960.179 369.847C960.863 367.294 961.665 364.757 962.17 362.205C962.453 361.089 962.453 359.919 962.17 358.802C961.635 357.325 960.984 355.893 960.223 354.519C959.731 357.053 959.393 359.615 959.213 362.19M927.543 98.4559C931.392 98.5753 933.621 97.9784 929.445 95.3665C926.473 93.5159 923.248 91.9637 920.142 90.2921C922.103 92.6204 924.065 94.9636 927.572 98.4559M1055.72 189.497C1056.33 187.661 1056.93 185.81 1057.52 183.959C1055.11 184.885 1051.79 185.347 1050.49 186.855C1048.22 189.467 1050.17 190.959 1055.72 189.497ZM784.306 438.202C785.181 440.5 786.173 442.752 787.279 444.948C787.457 445.291 789.196 445.142 790.251 445.216C788.765 442.485 794.397 437.545 784.306 438.202ZM1094.91 523.422L1102.85 524.272C1102.85 523.75 1103.27 522.974 1102.95 522.78C1100.7 521.153 1098.79 518.153 1094.91 523.466M1081.36 181.378L1085.42 180.572C1085 180.079 1084.63 179.184 1084.15 179.079C1082.18 178.865 1080.19 178.865 1078.21 179.079C1076.93 179.449 1075.71 180.002 1074.58 180.721C1076.75 181.568 1079.11 181.775 1081.39 181.318M1140.18 9.68388C1140.31 8.96814 1140.31 8.23555 1140.18 7.5198C1139.81 6.21644 1139.14 5.01965 1138.22 4.02742C1137.02 3.9292 1135.82 4.19985 1134.77 4.80351C1134.7 6.11705 1135.06 7.41823 1135.8 8.50483C1136.39 9.43016 1137.72 9.9973 1140.26 9.68388M932.194 46.5329C932.06 47.6556 932.09 48.792 932.284 49.9059C932.507 50.6522 933.532 51.2641 934.186 51.9208C934.71 51.5376 935.094 50.993 935.282 50.3699C935.469 49.7468 935.448 49.0794 935.222 48.4693C934.997 47.8592 934.579 47.3398 934.032 46.9902C933.486 46.6407 932.84 46.4801 932.194 46.5329ZM935.167 81.0836C934.848 80.7872 934.493 80.5315 934.112 80.3224C933.791 80.2304 933.451 80.2304 933.131 80.3224C932.678 82.4516 932.385 84.6118 932.254 86.7848C932.254 87.4117 933.532 88.0385 934.216 88.6653C934.528 87.6355 934.929 86.6207 935.137 85.5909C935.233 84.0701 935.233 82.5447 935.137 81.0239M960.773 291.79C960.796 290.256 960.736 288.722 960.595 287.194C959.704 287.134 958.811 287.134 957.92 287.194C957.742 288.686 957.771 290.179 960.773 291.79ZM933.577 441.664C933.071 444.067 932.462 446.47 932.09 448.888C932.016 449.455 932.863 450.082 933.279 450.679C933.859 449.888 934.84 449.186 934.959 448.306C935.216 445.987 934.692 443.649 933.473 441.664M1096.3 487.722L1092.28 488.483H1103.33C1101.01 488.05 1098.66 487.795 1096.3 487.722ZM1081.36 172.169C1081.36 170.677 1081.36 169.095 1081.2 167.572C1080.3 167.498 1079.4 167.498 1078.51 167.572C1078.33 169.065 1078.36 170.557 1081.36 172.169ZM699.877 309.193C700.194 309.507 700.555 309.773 700.947 309.984C701.2 310.088 701.631 309.984 701.988 309.879C701.185 308.043 700.502 306.178 699.491 304.387C699.357 304.133 698.153 304.208 697.455 304.133C697.834 305.995 698.666 307.733 699.877 309.193ZM1155.21 316.103C1155.08 316.818 1155.08 317.551 1155.21 318.267C1155.71 319.435 1156.28 320.571 1156.92 321.67C1157.35 320.729 1158.17 319.744 1158.08 318.819C1158.04 318.064 1157.7 317.355 1157.15 316.846C1156.59 316.337 1155.86 316.07 1155.1 316.103M1180.84 24.7429L1176.85 25.4891C1177.59 26.0678 1178.39 26.568 1179.24 26.9816C1180.73 26.0861 1185.7 29.3845 1180.84 24.7578M710.429 420.934C711.029 419.316 711.526 417.661 711.915 415.979C712.005 415.441 711.157 414.8 710.741 414.218C710.051 414.887 709.478 415.669 709.047 416.531C708.75 417.576 709.047 418.695 710.533 420.934M1088.87 157.185L1091.84 156.035C1090.83 155.662 1089.83 155.274 1088.87 157.185ZM962.215 350.668C961.947 349.698 961.68 348.728 961.427 347.683C960.773 347.818 959.54 348.042 959.555 348.086C959.867 349.31 960.298 350.534 962.215 350.594M933.577 68.517L932.358 69.8901C933.264 69.8901 934.171 69.7408 933.577 68.517ZM1182.42 12.0718L1180.61 11.1614C1180.71 11.848 1180.81 12.5345 1182.42 12.0718ZM1206.54 7.47503L1208.35 8.40036C1208.17 7.71382 1208.09 7.01236 1206.47 7.47503H1206.54Z" fill="white"/>
</g>
<defs>
<clipPath id="clip0_398_1055">
<rect width="1280" height="230" fill="white"/>
</clipPath>
</defs>
</svg>
