<svg width="414" height="24" viewBox="0 0 414 24" fill="none" xmlns="http://www.w3.org/2000/svg">
<path d="M2 14C138.625 14 275.553 12 412 12" stroke="#008753" stroke-width="3" stroke-linecap="round"/>
<path d="M398 12C318.333 12 238.667 12 159 12C142.006 12 124.993 12.236 108 12C97.9472 11.8604 83.7575 12.0145 74.1111 9C65.3358 6.25771 57.1737 6 48 6" stroke="#008753" stroke-width="3" stroke-linecap="round"/>
<path d="M6 18C65.2593 18 124.519 18 183.778 18C219.693 18 255.314 14 291 14C316.267 14 340.53 13.4057 365.556 9.55556C369.48 8.95179 399.99 6.01926 402 2" stroke="#008753" stroke-width="3" stroke-linecap="round"/>
<path d="M408 18C310.667 18 213.333 18 116 18C89.3591 18 64.334 10 38 10" stroke="#008753" stroke-width="3" stroke-linecap="round"/>
<path d="M22 18C141.369 18 260.64 16 380 16" stroke="#008753" stroke-width="3" stroke-linecap="round"/>
<path d="M246 10C175.184 10 104.625 12 34 12" stroke="#008753" stroke-width="3" stroke-linecap="round"/>
<path d="M20 20C106.057 20 193.832 25.3486 279.556 17.5556C307.603 15.0058 335.813 14 364 14" stroke="#008753" stroke-width="3" stroke-linecap="round"/>
</svg>
