<svg enable-background="new 0 0 554 200" viewBox="0 0 554 200" xmlns="http://www.w3.org/2000/svg"><g fill="#d83832"><path d="m57 79.1h14.2c-1.3 6.6-4.4 12.3-9.4 17.3-6.7 6.7-14.8 10.1-24.2 10.1s-17.5-3.3-24.2-10-10-14.8-10-24.2 3.3-17.5 10-24.2 14.8-10 24.2-10 17.4 3.2 24.2 9.9c5 5 8.1 10.8 9.4 17.4h-14.2c-1-2.8-2.6-5.4-4.9-7.7-4-4-8.9-6-14.5-6s-10.5 2-14.5 6-6 8.9-6 14.5 2 10.5 6 14.5 8.8 6 14.5 6 10.5-2 14.5-6c2.2-2.2 3.9-4.8 4.9-7.6z"/><path d="m92.3 61.6v44.8h-13.7v-44.8z"/><path d="m92.3 38v13.9h-13.7v-13.9z"/><path d="m112.8 72.2v34.2h-13.7v-34.2c0-9.4 3.3-17.5 10-24.2s14.8-10 24.2-10 17.5 3.3 24.2 10 10 14.8 10 24.2v34.2h-13.7v-34.2c0-5.7-2-10.5-6-14.5s-8.9-6-14.5-6c-5.7 0-10.5 2-14.5 6s-6 8.9-6 14.5z"/><path d="m223.9 85.9h16.2c-1.7 3.8-4.1 7.3-7.3 10.5-6.7 6.7-14.8 10.1-24.2 10.1-9.5 0-17.5-3.3-24.2-10s-10-14.8-10-24.2 3.3-17.5 10-24.2 14.8-10 24.2-10 17.5 3.3 24.2 10 10 14.8 10 24.2c0 2.4-.2 4.7-.6 6.8h-53.1c1 2.8 2.6 5.4 4.9 7.7 4 4 8.9 6 14.5 6s10.5-2 14.5-6c.5-.3.7-.6.9-.9zm4.2-20.5c-1-2.8-2.6-5.4-4.9-7.7-4-4-8.9-6-14.5-6s-10.5 2-14.5 6c-2.3 2.3-3.9 4.8-4.9 7.7z"/><path d="m303.4 79.1h14.2c-1.3 6.6-4.4 12.3-9.4 17.3-6.7 6.7-14.8 10.1-24.2 10.1s-17.5-3.3-24.2-10-10-14.8-10-24.2 3.3-17.5 10-24.2 14.8-10 24.2-10 17.5 3.3 24.2 10c5 5 8.1 10.8 9.4 17.4h-14.2c-1-2.8-2.6-5.4-4.9-7.7-4-4-8.9-6-14.5-6s-10.5 2-14.5 6-6 8.9-6 14.5 2 10.5 6 14.5 8.9 6 14.5 6 10.5-2 14.5-6c2.3-2.3 3.9-4.9 4.9-7.7z"/><path d="m383.5 48c6.7 6.7 10 14.8 10 24.2s-3.3 17.5-10 24.2-14.8 10-24.2 10c-9.5 0-17.5-3.3-24.2-10s-10-14.8-10-24.2 3.3-17.5 10-24.2 14.8-10 24.2-10 17.5 3.3 24.2 10zm-24.2 3.7c-5.7 0-10.5 2-14.5 6s-6 8.9-6 14.5 2 10.5 6 14.5 8.9 6 14.5 6 10.5-2 14.5-6 6-8.9 6-14.5-2-10.5-6-14.5-8.9-6-14.5-6z"/><path d="m413.5 106.5h-13.7v-65.6h13.7z"/><path d="m437.5 93.5v13.7h-37.7v-13.7z"/><path d="m495.7 48c6.7 6.7 10 14.8 10 24.2s-3.3 17.5-10 24.2-14.8 10-24.2 10c-9.5 0-17.5-3.3-24.2-10s-10-14.8-10-24.2 3.3-17.5 10-24.2 14.8-10 24.2-10 17.5 3.3 24.2 10zm-24.2 3.7c-5.7 0-10.5 2-14.5 6s-6 8.9-6 14.5 2 10.5 6 14.5 8.9 6 14.5 6 10.5-2 14.5-6 6-8.9 6-14.5-2-10.5-6-14.5-8.9-6-14.5-6z"/><path d="m526.2 72.2v34.2h-13.7v-34.2c0-9.4 3.3-17.5 10-24.2s14.8-10 24.2-10v13.7c-5.7 0-10.5 2-14.5 6s-6 8.9-6 14.5z"/><path d="m213 132.7c.3-.5.6-.8 1.2-.8.8 0 1.3.5 1.3 1.3v27.4c0 .7-.5 1.3-1.3 1.3-.7 0-1.2-.6-1.2-1.3v-22.4l-10.7 22.8c-.2.5-.6.8-1.2.8s-1-.3-1.2-.8l-10.7-22.9v22.4c0 .7-.5 1.3-1.2 1.3-.8 0-1.3-.6-1.3-1.3v-27.4c0-.8.5-1.3 1.3-1.3.7 0 1 .3 1.2.8l11.9 25.4z"/><path d="m230.4 159.1h15.6c.7 0 1.2.5 1.2 1.2s-.5 1.2-1.2 1.2h-17c-.8 0-1.3-.6-1.3-1.3v-26.6c0-.8.6-1.3 1.3-1.3h17c.7 0 1.2.5 1.2 1.2s-.5 1.2-1.2 1.2h-15.6v10.6h9.1c.7 0 1.2.5 1.2 1.2s-.5 1.2-1.2 1.2h-9.1zm8.2-34c.2-.3.6-.5 1.1-.5.7 0 1.1.5 1.1 1 0 .4-.1.6-.4.9l-2.4 2.6c-.4.4-.7.6-1.1.6-.6 0-1.1-.5-1.1-1 0-.3.1-.6.4-.8z"/><path d="m267.2 148.8-9.7 12.5c-.2.3-.5.5-1.1.5s-1.1-.4-1.1-1.1c0-.3.1-.5.3-.8l10.2-13.2-10-13c-.2-.3-.3-.5-.3-.8 0-.7.5-1.1 1.2-1.1.5 0 .7.2 1 .5l9.5 12.3 9.5-12.3c.3-.3.5-.5 1-.5.7 0 1.2.5 1.2 1.1 0 .3-.1.5-.3.8l-10 13 10.2 13.2c.2.3.3.5.3.8 0 .7-.5 1.1-1.1 1.1s-.9-.2-1.1-.5z"/><path d="m291 161.8c-.8 0-1.3-.6-1.3-1.3v-27.3c0-.8.6-1.3 1.3-1.3.8 0 1.3.6 1.3 1.3v27.3c0 .7-.6 1.3-1.3 1.3z"/><path d="m329.1 137.2c.2.3.4.5.4.9 0 .7-.5 1.2-1.2 1.2-.4 0-.7-.1-.9-.5-2.2-2.8-4.8-4.7-9.4-4.7-7.6 0-12 6.1-12 12.7s4.4 12.7 12 12.7c4.6 0 7.2-1.9 9.4-4.7.3-.4.5-.5.9-.5.7 0 1.2.5 1.2 1.2 0 .4-.2.6-.4.9-2.4 3.1-6 5.5-11.3 5.5-8.9 0-14.6-6.8-14.6-15.2s5.8-15.2 14.6-15.2c5.3.2 8.9 2.6 11.3 5.7z"/><path d="m352.3 162c-8.8 0-14.8-7-14.8-15.2s6-15.2 14.8-15.2 14.7 7 14.7 15.2-5.9 15.2-14.7 15.2zm0-28c-7.6 0-12.1 6.1-12.1 12.8s4.6 12.8 12.1 12.8 12-6.1 12-12.8-4.4-12.8-12-12.8z"/></g></svg>