<svg enable-background="new 0 0 504 200" viewBox="0 0 504 200" xmlns="http://www.w3.org/2000/svg"><path d="m38 97.9c0-.6 0-1.3-.1-1.9.2-1.3.2-2.6-.1-4.1-.1-.6-.6-1-1.2-1-.4 0-.8 0-1.2 0-1.9 0-4.1.1-5.5-.8-.1-.2-.2-.3-.3-.5-.2-.3-.4-.6-.6-.9-.1-1.1-.1-2.1-.1-3.3 0-.9 0-1.9 0-2.9 0-.1 0-.1 0-.2 0-.2 0-.4 0-.7.1-.4.1-.8.1-1.3-.1-.9-.1-1.5-.1-2.1 0-.1 0-.2 0-.3 0-.2 0-.4-.1-.5-.1-.4-.1-.6 0-.7.1-.2.1-.5.1-.7-.1-.5-.1-.9-.1-1.6 0-.1 0-.2 0-.4.1-.4.2-.8.1-1.1.2-.5.1-.9.1-1.3 0-.1 0-.2 0-.3 0-.8 0-1.6 0-2.4 0-1.6.1-3.2 0-4.9h.7c.6 0 1-.1 1.5 0 .7.2 1.2 0 1.6-.1.9.2 1.7.2 2.4.1.3 0 .7-.1 1 0 .2 0 .5-.1.7-.2.9-.6 1-1.5 1-1.9 0-.1 0-.1 0-.2v-.1c0-.3 0-.7 0-1 0-.7 0-1.5 0-2.2.2-.8.1-1.4.1-2 0-.3-.1-.6 0-.8.1-1.2-.8-2.3-2.1-2.4h-.1c-.8 0-1.6 0-2.4 0-1.3 0-2.7-.1-4.1 0h-.1v-.1c0-.1 0-.2-.1-.3 0-.5 0-1-.1-1.5s-.1-1 0-1.5c0-.1 0-.3 0-.5-.2-1.2-.2-2.4-.1-3.7 0-1.1 0-2.3-.1-3.5v-.1c0-.1 0-.2 0-.2 0-.5 0-1.6-1.1-2.1-.1 0-.2-.1-.3-.1-1-.2-1.9-.2-2.7-.2h-.1c-.8.1-1.6.1-2.6 0s-2-.2-3 0c-1.1-.1-2.2-.1-3.2.1-.3.1-.6.2-.8.5-.7 1-.6 2.1-.5 3.1 0 .4.1.8 0 1v.3c.1.9.1 1.6-.1 2.3v.2c-.1.7-.1 1.5-.1 2.2s0 1.4-.1 2c-.1.4-.1.8 0 1.2v.8c-.1 0-.1 0-.2.1-.9 0-1.8 0-2.6.1-.9.1-1.8.1-2.7 0-.5 0-.9.2-1.2.6-.5.5-.6 1.1-.6 1.7-.1.7-.1 1.3-.1 1.9s0 1.1-.1 1.7v.6c.1.2.1.5.1.8 0 .8.1 2.1 1.1 2.9.1.1.3.2.5.2l.3.1c.8.2 1.6.4 2.6.2.7.2 1.4.2 2.1-.1h.1c.2.1.4.1.7.2h.1v.7c0 .4-.1.9 0 1.4.1 4 .2 7.7.1 11.7v.2c.1.4 0 .9 0 1.4 0 .8-.1 1.7.2 2.5-.2.3-.3.7-.2 1s.1.7 0 1.1c0 .5-.1 1 0 1.6-.1.8-.1 1.5-.1 2.3v1.2c-.1 1.4 0 2.7.2 3.8.1.6.2 1.1.2 1.7 0 .2.1.4.2.6.4.5.7 1 .8 1.5v.2c.2.6.6 1 .9 1.2 0 0 .1.1.1.1.3.6.8.9 1.1 1.2.3.2.5.4.6.6.2.3.5.6.9.6.7.1 1.4.5 2.2.8.3.1.6.3.9.4.1.1.3.1.5.1.2.1.5.2.8.2.4 0 .8.1 1.3.2.7.1 1.6.3 2.5.2 1.1 0 2.3.1 3.4.1 1.2 0 2.4 0 3.5-.2.7.1 1.4-.1 1.9-.2l.3-.1c.5-.1.9-.5 1-.9 0-.1.1-.2.1-.3.1-.3.2-.7.2-1.1 0-.1 0-.1 0-.2.1-.3.1-1 .1-1.8z"/><path d="m64.3 61.6c0 .2.1.3.1.5l-.1-.5c-.1 0 0 0 0 0zm11.7 1.4c0 .1.1.1.1.2zm8.8-4.7.2-.1.1.2c-.1.1-.3 0-.3-.1zm.6-.2v.2l-.1-.1.1-.1h-.3l-.3-.2.1.2h-.2s0-.1.1-.2c.3-.2.5-.1.6.2zm6 14.8c0-.1 0-.2 0-.3-.1-.5 0-1 0-1.6 0-.8 0-1.8-.2-2.7 0-.3 0-.6 0-1 0-1.4 0-3-.7-4.4-.1-.9-.2-1.8-.8-2.8-.1-.3-.3-.5-.4-.8-.3-.6-.6-1.1-.7-1.6 0-.3-.2-.6-.4-.8-.3-.3-.6-.6-.9-1-.4-.5-.9-1.1-1.7-1.6-.1-.2-.3-.3-.5-.5-.3-.2-.6-.3-.8-.5-.6-.4-1.2-.8-1.9-1-.5-.2-1-.4-1.5-.5-.5-.2-1.1-.4-1.6-.6-.1 0-.2-.1-.3-.1-2.4-.3-4.7-.5-6.8-.3 0 0-.1 0-.2 0-.4.1-.7.2-1 .3-.4.1-.8.3-1.1.2-.7 0-1.3.3-1.7.6-.1.1-.2.1-.3.2-.1 0-.1.1-.2.1-.1.1-.2.1-.4.2-.4.1-.9.3-1.3.7-.1.1-.3.2-.5.3-.3.1-.7.3-1.1.6-.2.1-.3.3-.4.4-.3.3-.5.5-.8.6-.6.4-1 .8-1.4 1.3 0-.5-.1-1-.1-1.5 0-.1 0-.2 0-.2-.1-.5-.1-1.1 0-1.7 0-.6 0-1.3 0-1.9-.1-1.5-.1-3.1 0-4.7 0-1.4.1-2.9 0-4.3v-.7c0-1.7 0-3.4 0-5.1 0-.9-.5-1.5-1.7-1.8h-.1c-.2-.1-.3-.1-.5-.1h-.4c-1.3 0-2.5.1-3.7-.1-.1 0-.3 0-.4 0-.7.1-1.2.2-1.8.1-.1 0-.2 0-.3 0-.3 0-.6.1-.9.1-.6.1-1.1.1-1.5.1-1.2-.3-2.3.1-3 1-.1.2-.2.4-.2.6-.1.9-.1 1.8 0 2.6v1.3.6c0 .6-.1 1.2.2 2-.2 1.3-.2 2.6-.1 3.8-.1.7-.1 1.4 0 2v.5c-.1.8 0 1.6 0 2.4s.1 1.6 0 2.3v.2.3c0 .4-.1 1 .2 1.5-.5.3-.5.8-.5 1.1v.4c-.2 1.8-.1 3.5-.1 5.2v2.9c0 .2 0 .4.1.5 0 .1 0 .3-.1.5 0 .2-.1.5-.1.8v.1 1c0 .6-.1 1.3.1 2-.1 3.9-.1 7.4-.1 11.4-.1 1.1-.1 2.1-.1 3.1v.9 1.4c0 .4.1.8 0 1.1v.1c-.1.5 0 1 0 1.4 0 .2.1.5 0 .6-.3.8-.2 1.6-.2 2.3v.8c0 1.1.1 2.1.2 3.1l.1.7c-.1.2-.1.3-.1.5v2.1c0 1.8 1.4 2 1.7 2h.7c.9.1 1.8.1 2.8-.2.4 0 .7 0 1.1.1 1.3.1 2.6.2 3.9-.1.9.2 2.1.3 3.2-.3.3-.2.5-.4.6-.8.3-1 .3-1.9.3-2.8 0-.5 0-1 0-1.5.1-.7 0-1.4-.1-1.9 0-.1 0-.3-.1-.4 0-.1 0-.2 0-.3.1-.7.2-1.5 0-2.3.1-2.2.1-4.4.1-6.6 0-1.5 0-3.1 0-4.6.2-.8.1-1.5 0-2.1 0-.2 0-.3 0-.5 0-.5 0-1.1 0-1.6 0-.9 0-1.8.1-2.7.3-1.1.5-2.3.5-3.5.1-.7.4-1.2.8-1.9.2-.4.5-.9.7-1.4.2-.2.4-.4.7-.6.3-.3.7-.6 1-1 .5-.3 1.1-.4 1.8-.5s1.4-.3 2.1-.6c.6.1 1.2.1 1.7 0 .8.5 1.6.7 2.5.9h.1c.5 0 1 .7 1.3 1.1.2.4.5.7.7 1 .4.5.6.8.6 1.2 0 1 .3 1.9.5 2.7.3.9.5 1.6.4 2.3v.2 2.3c0 1.4 0 2.9.2 4.4.4.8.4 1.7.4 2.6v2.1.2c.1 1.2 0 2.4 0 3.7 0 .9-.1 1.7-.1 2.6v.1 1.7c0 .9 0 1.7.1 2.6.1.5 0 1.2-.1 1.9-.1 1.1-.2 2.4.2 3.5.1.3.4.6.7.7 1.2.5 2.6.4 3.9.3h.3c.2 0 .5.1.7.1s.5 0 .7-.1c.6.1 1.2 0 1.7 0s1-.1 1.4 0c.6.1 1.1 0 1.5 0 .2 0 .5-.1.6 0 .6.1 1.2 0 1.7-.3.3-.2.5-.5.6-.9.2-1.1.2-2.1.1-3.1 0-.7 0-1.4 0-2.1 0-.1 0-.3 0-.4v-.1c-.1-.5-.1-.7-.1-.9 0-.1 0-.2 0-.3.1-.2.1-.4.1-.6 0-.3 0-.7 0-1 0-.5.1-1.1-.1-1.7 0-.4 0-.8.1-1.3.1-1.6.2-3.2.1-4.9 0-.1 0-.2-.1-.3 0-.1 0-.1 0-.2.2-1 .1-1.9 0-2.9 0-.7-.1-1.3 0-1.9 0-.1 0-.2 0-.3 0-.2 0-.5.1-.7.1-.5.2-1.3-.1-2 .2-.7.2-1.4.2-2 .2-.3.2-.6.2-.8z"/><path d="m130.8 71.2c-3.3.1-6.7.1-9.9 0-1.4 0-2.9 0-4.4 0-.8 0-1.5 0-2.3 0 0-.3 0-.7 0-1v-.3c.5-1.6 1.2-2.9 2.2-3.9 1.4-.9 2.7-1.5 4-1.8h.1.5c.4.1.9.1 1.5 0 .5-.2.9-.1 1.7.1.4.1.8.2 1.2.2.3.1.5.2.8.3.8.3 1.4.6 1.8 1 0 0 0 .1.1.1.2.2.4.5.7.9.3.5.7 1 1.1 1.4.1.9.4 1.7.7 2.4.1.2.1.3.2.5zm15 7.4c-.1-.7-.2-1.3 0-1.9 0-.1 0-.3 0-.4-.1-1.5-.4-2.9-.7-4.3-.2-.8-.3-1.6-.4-2.5 0-.1 0-.2-.1-.3-.2-.5-.3-1-.5-1.5-.3-1-.6-2-1.1-2.9-.1-.2-.2-.5-.3-.8s-.2-.6-.3-.9c0-.1-.1-.2-.2-.3-.5-.6-.9-1.2-1.3-1.9-.5-.7-.9-1.5-1.5-2.2 0 0-.1-.1-.1-.1-.4-.4-.9-.8-1.3-1.2-.8-.8-1.6-1.6-2.6-2.3-.6-.5-1.2-.7-1.7-.9s-.8-.3-1.1-.6c-.1-.1-.3-.2-.4-.3-1.7-.7-3.7-1.2-5.1-1.6h-.1c-2.3-.3-4.3-.4-6.2-.2-1.3.1-2.5.3-3.6.6-.1 0-.2.1-.2.1l-.2.1c-.2.1-.3.2-.5.2-1.2.1-2.3.5-3.6 1.2-.2.1-.5.2-.7.3-.5.2-1.1.5-1.6.9-.4.3-.8.6-1.2.9-.8.6-1.7 1.3-2.5 2-1.1 1-1.9 2.2-2.7 3.3-.3.4-.5.8-.8 1.2-.1.1-.1.2-.2.3-.2.5-.5 1-.9 1.5-.2.3-.5.7-.7 1.1-.1.2-.2.5-.2.7 0 .3-.1.6-.3 1.1-.1.3-.3.6-.4 1-.4.9-.5 1.8-.7 2.7-.1.5-.2 1-.3 1.5v.3c0 .8-.1 1.6-.2 2.4-.1.7-.2 1.4-.2 2.2-.1.8.1 1.5.2 2.2.1.5.2.9.2 1.3 0 .8.1 1.8.2 2.8v.3c.1 1.3.3 2.9 1 4.2 0 .1.1.4.1.6v.4c0 .3.2.6.4.8.4.4.6.8.8 1.4.2.5.5 1.1.9 1.7v.1c.4.9.9 1.9 1.8 2.7.3.2.5.5.7.8.3.4.7.9 1.2 1.3.5.7 1 1 1.5 1.2 0 0 .1.1.2.1l.5.5c.2.3.5.5.7.8.3.3.7.4 1 .3.4 0 .5 0 1.1.5.3.2.6.5 1 .7.2.1.5.2.7.2.7 0 .9.1 1.7.6.2.1.4.2.6.2.3 0 .6.1.9.1.9.2 2 .3 3 .1.2.1.3.2.5.4.1.1.3.1.5.2.6.1 1.3.1 1.9.1 1.3 0 2.6-.2 3.9-.5 1.4 0 2.9-.2 4.7-.6.1 0 .2-.1.4-.1l.3-.2c.7-.4 1.2-.7 1.9-.8.2 0 .4-.1.6-.3.4-.3.8-.6 1.3-.9.9-.5 1.9-1.1 2.7-2.1.1-.1.3-.2.4-.4.3-.2.6-.5.8-.8 1.6-2 2.9-3.9 3.7-5.5 0-.1.1-.2.1-.3.1-.5.3-.8.6-1.3.4-.7.9-1.6.9-2.8 0-.4-.1-.7-.4-.9-1.1-1-2.6-.9-3.8-.7-.5.1-1.1.1-1.4.1-.9-.3-1.7-.3-2.5-.1-1.1-.2-2.3-.3-3.4 0-.2 0-.3.1-.5.3-.8.7-1.3 1.4-1.7 2.1-.1.2-.2.4-.3.5-.8.9-1.5 1.4-2.5 1.7-.1 0-.2.1-.3.2-.8.6-1.8.7-2.9.8-.5.1-1 .1-1.5.3-.7.1-1.3 0-2.1-.2-.3-.1-.7-.2-1-.2-.1 0-.1 0-.2 0-.8 0-1.4-.4-2.2-.8-.2-.1-.4-.2-.6-.3-1-.6-1.6-1.5-2.3-2.6l-.1-.1c-.1-.5-.3-1-.5-1.5-.4-1.2-.8-2.3-.8-3.6.3-.1.5-.1.7 0 .9.3 1.7.2 2.3 0 .3 0 .6-.1.8-.1 2.9-.1 5.8-.1 8.7 0h1 .1c.3 0 .6-.1.8-.1.1 0 .3-.1.4-.1 1.4.2 2.5.2 3.5.2h2 .1 2.1 7.5c.4 0 .7-.1.9-.4.1-.1.1-.1.2-.2.4-.3 1.1-1 1-2.1.1-.2 0-.5 0-.7z"/><path d="m185.4 79.1s.1 0 0 0l.1.1-.1-.1.2.3v.3c-.3-.1-.4-.3-.2-.6zm2.7-4.6c.2-.8.3-1.5.2-2.3 0-.1.1-.2.1-.3.2-.4.3-.7.5-.9.3-.3.4-.7.4-1.1.1-.2.2-.4.3-.6.2-.4.5-.8.9-1.2s.8-.8 1.1-1.4c0 0 .2-.1.2-.2.1-.1.3-.1.4-.3 1.4-1 3.2-1.7 4.9-1.7.2 0 .4.1.6.1.5.1.9.2 1.3.3.8.5 1.5.7 2.2.9.2.1.3.2.5.4.3.2.6.4.9.6s.5.5.8 1c.2.3.4.6.6.9.8 1 1.1 2.2 1.5 3.5.1.3.1.6.1 1 .1.8.2 1.7.5 2.6.1.2.1.4 0 .9v.4.5c.3 1 .1 2.1-.1 3.3 0 .3-.1.5-.1.8-.2.5-.3 1-.4 1.5-.2.6-.3 1.1-.5 1.6-.2.4-.4.8-.6 1.1-.4.9-.8 1.5-1.5 2-.1 0-.1.1-.2.1-.4.4-.8.7-1.3 1-.3.2-.6.4-.9.7-.3.1-.8.2-1.2.2s-.8.1-1.3.2c-.3 0-.6.1-.8.2-.6.2-.9.2-1.1.1h-.1c-.2-.1-.5-.2-.7-.2-.7-.3-1.5-.5-2.3-.6-.1 0-.1 0-.4-.3-.2-.3-.5-.6-1-.8-.4-.2-.9-.6-1.3-1 0-.1-.1-.2-.1-.3-.2-.7-.5-1.5-1.3-2.2-.2-.8-.4-1.7-.7-2.6-.3-1-.3-2-.3-3.1 0-.6 0-1.2 0-1.8 0-.4 0-.8 0-1.2.2-.6.3-1.2.2-1.8zm32.2 8.2c-.1-.4-.1-.8 0-1.4 0-.4.1-.8.1-1.3s0-1-.1-1.5-.1-1 0-1.4c0-.2 0-.4-.1-.6-.2-.4-.2-.8-.1-1.4 0-.1 0-.2 0-.2 0-6.1 0-11.9 0-18v-.2c0-1-.2-1.6-1.1-2.2-.2-.1-.4-.2-.6-.2-1.3-.1-2.6-.1-3.9-.1-1.4 0-2.8.1-4.1-.1-.9-.2-1.7.1-2.3.3-.1 0-.3.1-.4.1-.5.1-.8.5-.9 1 0 .2-.1.3-.1.5-.2.6-.3 1.4-.2 2.2-.3-.3-.5-.5-.9-.8 0 0-.1-.1-.1-.1s-.1-.2-.2-.2c-.2-.3-.5-.7-1-.9-.4-.2-.8-.5-1.2-.8-.8-.6-1.7-1.3-3-1.6h-.1c-.5-.1-1.1-.2-1.7-.4-.8-.2-1.7-.4-2.6-.5-.1 0-.2 0-.3 0-.3 0-.6 0-1 0-.6-.1-1.4-.2-2.3.1-.2 0-.4.1-.6.1-.4 0-.8.1-1.3.2-.2.1-.3.1-.4.3-.3 0-.7 0-1.1.1-.2 0-.2.1-.4.2-.1 0-.2 0-.4 0-1.1 0-1.6.4-1.9.9-.9.1-1.8.6-2.8 1.5-2.8 1.9-5.3 4.8-6.7 8-.6.8-.7 1.6-.8 2.3-.1.3-.3.6-.4.8-.2.5-.5.9-.7 1.5 0 .1 0 .2-.1.3 0 .2-.1.4-.1.6-.1.5-.1 1.1-.3 1.5-.2.7-.2 1.3-.2 1.8s0 1-.2 1.3c-.3.8-.3 1.5-.3 2.1v.7.2c0 2 .1 3.5.4 4.9-.2 2 .4 3.8 1 5.4.1 1.4.7 2.6 1.2 3.8.2 1.1.6 1.7 1.3 2.3.3.6.7 1.2 1.3 1.6.1.3.3.6.6.9 0 0 .1.1.1.1.5 1.1 1.4 1.7 2.1 2.2.4.3.8.5 1.1.9.1.2.3.3.5.4.4.2.8.3 1.3.5.3.1.5.2.8.3.1.1.2.2.3.3.8.5 1.7.6 2.4.7.2 0 .3 0 .6.1.1 0 .3.1.5.2s.5.2.8.4c.1 0 .2.1.3.1h.9.4c1.3.3 2.6.2 3.8.1.6 0 1.3-.1 1.8-.1.4 0 .8-.2 1-.4.1-.2.7-.2 1.1-.3.7-.1 1.6-.2 2.3-.8.2-.2.5-.3.8-.4.6-.2 1.2-.5 1.8-1.2.5-.3 1-.7 1.4-1 .3-.2.5-.4.8-.6 0 .8 0 1.6.1 2.4-.2 1.1-.2 2.1-.2 3.1 0 .7-.2 1.2-.6 1.9-.2.5-.4 1-.6 1.6-.4.5-.8 1-1.1 1.5l-.1.2c-.4.2-.6.5-.8.7s-.3.3-.4.3-.2.1-.3.1c-1.4.9-3.2 1.4-5.3 1.3-.7-.2-1.4-.2-2-.3-.6 0-1 0-1.4-.2-.2-.2-.5-.3-.7-.3-.1-.1-.1-.1-.2-.1-.8-.4-1.3-.8-1.7-1.3-.3-.5-.5-.8-.8-1-.1-.3-.3-.6-.5-.9 0 0 0-.1 0-.2 0-.4-.2-1.5-1.4-1.9 0 0-.1 0-.2 0-1.1-.2-2.3-.3-3.6-.2-.8.1-1.7.1-2.6 0-1 0-2.1 0-3.1.1-.1 0-.3 0-.4 0-.8-.1-2.2-.2-3 1-.1.2-.2.4-.2.6-.2 1.5.2 2.5.6 3.4.2.5.4 1.1.5 1.7 0 .3.1.5.3.7.4.4.6.9 1 1.5.4.7.8 1.5 1.5 2.2 0 0 .1.1.2.1.2.1.4.3.6.4.1.1.3.1.3.2.1.5.4.9.9 1 .3.1.6.3.9.5.4.3.9.7 1.6.9 1 .8 2 1.1 3 1.4l.2.1c1.2.7 2.5.9 3.7 1 .7.2 1.5.3 2.2.4.5.1 1 .1 1.5.2h.3c.5 0 1 0 1.6.1.5 0 1 .1 1.5.1.4 0 .9 0 1.4-.1 1.2-.3 2.7-.4 4.2-.4.3 0 .6-.1.9-.3.1-.1.3-.1.6-.1.5 0 1.3-.1 2-.7.1 0 .3-.1.4-.1.4-.1 1-.2 1.5-.7.5 0 .9-.1 1.1-.3.5-.3 1-.5 1.5-.8.7-.4 1.4-.7 2-1.2.1 0 .1-.1.2-.2.2-.3.4-.5.5-.8h.1c.3-.1.6-.3.8-.6.2-.4.5-.6.8-.9.1 0 .1-.1.2-.2.9-1 1.4-2.1 1.9-3.2.2-.5.5-1 .7-1.4.8-1.3 1-2.7 1.1-3.9v-.1c.5-1.4.7-3.1.8-4.5 0-.3 0-.6.1-.8.1-.6.1-1.2 0-1.7 0-.5-.1-.9 0-1.2 0-.2 0-.3 0-.5-.1-1-.1-2.1-.1-3.2v-.9c0-.1 0-.1 0-.2s0-.2-.1-.3c0-.1 0-.1 0-.2.2-1.5.1-3 .1-4.4 0-.7 0-1.5 0-2.2 0-.5-.1-.9-.4-1.2.1-.1.3-.3.3-.5.4-.7.5-1.2.3-1.6z"/><path d="m259.2 89.3c-.7.7-1.5 1.5-2.3 1.9-.4.1-.9.2-1.4.2-.5.1-.9.1-1.4.2-.5 0-1-.1-1.5-.1-.2 0-.4 0-.6.1s-.7 0-1.2-.1c-.3-.1-.7-.2-1-.2-.9-.1-1.6-.6-2.5-1.3l-.5-.3c-.7-.5-1.1-1.2-1.5-2-.1-.2-.3-.4-.4-.7-.2-.4-.3-.8-.5-1.3 0-.2-.1-.3-.1-.5 0-.1-.1-.3-.2-.4-.5-.6-.5-1.3-.7-2.2-.1-.4-.1-.9-.2-1.3l-.1-.5c-.1-.5-.2-.9-.2-1.4 0-.7 0-1.3-.1-2-.1-1.2-.1-2.2.2-3.2.2-.7.3-1.3.4-1.9.1-.7.2-1.4.5-2 .3-.5.4-1 .6-1.4.2-.6.3-1 .7-1.4 0 0 .1-.1.1-.1.9-1.3 2.1-2.3 3.4-3.1.9-.3 1.7-.6 2.5-.9l.3-.1c.6 0 1.3.1 2 .2.4.1.9.1 1.3.2.8.1 1.4.4 2.1.8.3.2.6.3.9.5.5.2.8.6 1.3 1 .2.2.3.3.5.5.2.6.5 1.1.8 1.5.3.5.6 1 .7 1.5.1.4.3.8.4 1.2.2.4.3.8.4 1.2.5 2.7.6 5.4.5 8-.1.7-.2 1.3-.2 1.9-.1 1.5-.3 2.8-1 4-.1.2-.2.4-.2.6-.1.1-.2.2-.3.4-.4.7-.7 1.3-1.2 1.8zm17.7-12.1c-.1-.5-.1-1-.1-1.5 0-.8-.1-1.6-.3-2.5-.1-.5-.1-1-.2-1.5-.1-1.1-.2-2.2-.7-3.2-.1-.4-.3-.7-.4-1-.2-.7-.5-1.4-.9-2.2-.3-.5-.5-1-.8-1.5l-.2-.4c-1-2.2-2.7-4-3.9-5.2-1-1-2.2-1.8-3.3-2.5-.3-.2-.6-.4-.9-.6-1.2-.9-2.7-1.5-4.6-2-.5-.1-.9-.2-1.3-.4-1.2-.3-2.4-.7-3.7-.8-3.6-.5-7.4.1-10 .6-.4.1-.7.3-.8.6-.6 0-1.3 0-2 .3-1.3.6-2.6 1.3-3.8 2.1l-.9.5s-.1.1-.2.1c-1.5 1.2-3.1 2.7-4.4 4.5-.6.7-1 1.4-1.3 2.1-.1.3-.3.6-.5.9-.6.7-.9 1.5-1.1 2.2l-.2.3c-.1.1-.2.3-.3.5-.8 2.8-1.4 5.8-1.7 9.2-.1.8 0 1.5 0 2.3.1.7.1 1.4 0 2-.1.9.1 1.7.3 2.4.1.4.2.8.2 1.2.1.6.2 1.1.3 1.6s.2 1 .3 1.4c0 .2.1.3.1.5.3.6.5 1.1.7 1.7.2.9.6 1.6 1 2.3.2.4.4.8.6 1.2 1 2 2.4 3.4 3.7 4.8.5.5 1 1 1.4 1.5.2.2.4.3.7.4l.4.1.2.2c.8.6 1.5 1.1 2.4 1.7 0 0 .1 0 .1.1.6.3 1.3.6 1.9.8.5.2 1 .3 1.4.5 1.1.5 2.1.6 3.2.8.4 0 .8.1 1.3.2h.1c.5 0 1 .1 1.6.2.8.1 1.6.2 2.4.2.4 0 .9 0 1.3-.1l1.1-.1c2-.2 4.1-.5 6.1-1.1.2-.1.4-.2.5-.3h.1c1.6-.3 2.9-1.1 4.3-2l.3-.3h.1c.5-.2 1.2-.5 1.8-1.1.9-1 1.7-2.1 2.6-3 .6-.6 1.1-1.3 1.5-2.2.3-.5.6-1.1.9-1.7.6-1.2 1.3-2.4 1.7-3.7v-.1c.9-3.5 1.7-7.2 1.5-10.7.4-.2.4-.3.4-.3z"/><path d="m311.6 97.9c0-.6 0-1.3-.1-1.9.2-1.3.1-2.6-.1-4.1-.1-.6-.6-1-1.2-1-.4 0-.8 0-1.2 0-1.9 0-4.1.1-5.5-.8-.1-.2-.2-.3-.3-.5-.2-.3-.4-.6-.6-.9-.1-1.1-.1-2.1-.1-3.3 0-.9 0-1.9 0-2.9 0-.1 0-.1 0-.2 0-.2 0-.4 0-.7.1-.4.1-.8.1-1.3-.1-.6-.2-1.4-.1-2.1 0-.1 0-.2 0-.3 0-.2 0-.4-.1-.5-.1-.4-.1-.6 0-.8s.1-.5.1-.7c-.1-.5-.1-1-.1-1.6 0-.1 0-.2 0-.4.1-.4.2-.8.1-1.1.2-.5.1-.9.1-1.3 0-.1 0-.2 0-.3 0-.8 0-1.6 0-2.4 0-1.6.1-3.2 0-4.9h.7c.6 0 1-.1 1.5 0 .6.2 1.2 0 1.6-.1.9.2 1.7.2 2.4.1.3 0 .7-.1 1 0 .2 0 .5-.1.7-.2 1-.6 1-1.5 1-1.9 0-.1 0-.1 0-.2v-.1c0-.3 0-.7 0-1 0-.7 0-1.5 0-2.2.2-.8.1-1.4.1-2 0-.3-.1-.6 0-.8.1-1.2-.8-2.3-2.1-2.4h-.1c-.8 0-1.6 0-2.4 0-1.3 0-2.7-.1-4.1 0h-.1v-.1c0-.1 0-.2-.1-.3 0-.5 0-1-.1-1.5s-.1-1 0-1.5c0-.1 0-.3 0-.5-.2-1.2-.1-2.4-.1-3.7 0-1.1 0-2.3-.1-3.5v-.1c0-.1 0-.1 0-.2 0-.5 0-1.6-1.1-2.1-.1 0-.2-.1-.3-.1-1-.2-1.9-.2-2.7-.2h-.1c-.8.1-1.6.1-2.6 0s-2-.2-3 0c-1.1-.1-2.2-.1-3.2.1-.3.1-.6.2-.8.5-.7 1-.6 2.1-.5 3.1 0 .4.1.8 0 1v.3c.1.9.1 1.6-.1 2.3v.2c-.1.7-.1 1.5-.1 2.2s0 1.4-.1 2c-.1.4-.1.8 0 1.2v.8c-.1 0-.2 0-.2.1-.9 0-1.8 0-2.6.1-.9.1-1.8.1-2.7 0-.5 0-.9.2-1.2.6-.4.7-.5 1.3-.4 1.9-.1.7-.1 1.3-.1 1.9s0 1.1-.1 1.7v.6c.1.2.1.5.1.8 0 .8.1 2.1 1.1 2.9.1.1.3.2.5.2l.3.1c.8.2 1.6.4 2.6.2.7.2 1.4.2 2.1-.1h.1c.2.1.4.1.7.2h.1v.7c0 .4-.1.9 0 1.4.1 4 .2 7.7.1 11.7v.2c.1.4 0 .9 0 1.4 0 .8-.1 1.7.2 2.5-.2.3-.3.7-.2 1s.1.7 0 1.1c0 .5-.1 1 0 1.6-.1.8-.1 1.5-.1 2.3v1.2c-.1 1.4 0 2.7.2 3.8.1.5.2 1.1.2 1.7 0 .2.1.4.2.6.4.5.7 1 .8 1.5v.2c.2.6.6 1 .9 1.2 0 0 .1.1.1.1.3.6.8.9 1.1 1.2.3.2.5.4.6.6.2.3.5.6.9.6.7.1 1.4.5 2.2.8.3.1.6.3.9.4.1.1.3.1.5.1.2.1.5.2.8.2.4 0 .8.1 1.3.2.7.1 1.6.3 2.5.2 1.1 0 2.3.1 3.4.1 1.2 0 2.4 0 3.5-.2.7.1 1.4-.1 1.9-.2l.3-.1c.5-.1.9-.5 1-.9 0-.1.1-.2.1-.3.1-.3.2-.7.2-1.1 0-.1 0-.1 0-.2-.1-.5-.1-1.2-.1-1.9z"/><path d="m337.9 61.6c0 .2.1.3.1.5l-.1-.5c-.1 0 0 0 0 0zm11.6 1.4c0 .1.1.1.1.2zm8.8-4.7.2-.1.1.2c-.1.1-.2 0-.3-.1zm.7-.2v.2l-.1-.1.1-.1h-.3l-.3-.2.1.2h-.2s0-.1.1-.2c.3-.2.5-.1.6.2zm6 14.8c0-.1 0-.2 0-.3-.1-.5 0-1 0-1.6 0-.8 0-1.8-.2-2.7 0-.3 0-.6 0-1 0-1.4 0-3-.7-4.4-.1-.9-.2-1.8-.8-2.8-.1-.3-.3-.5-.4-.8-.3-.6-.6-1.1-.7-1.6 0-.3-.2-.6-.4-.8-.3-.3-.6-.6-.9-1-.4-.5-.9-1.1-1.7-1.6-.1-.2-.3-.3-.5-.5-.3-.2-.6-.3-.8-.5-.6-.4-1.2-.8-1.9-1-.5-.2-1-.4-1.5-.5-.5-.2-1.1-.4-1.6-.6-.1 0-.2-.1-.3-.1-2.4-.3-4.7-.5-6.8-.3 0 0-.1 0-.2 0-.4.1-.7.2-1 .3-.4.1-.8.3-1.1.2-.7 0-1.3.3-1.7.6-.1.1-.2.1-.3.2-.1 0-.1.1-.2.1-.1.1-.2.1-.4.2-.4.1-.9.3-1.3.7-.1.1-.3.2-.5.3-.3.1-.7.3-1.1.6-.1.1-.3.3-.4.4-.3.3-.5.5-.8.6-.6.4-1 .8-1.4 1.3 0-.5-.1-1-.1-1.5 0-.1 0-.2 0-.2-.1-.5-.1-1.1 0-1.7 0-.6 0-1.3 0-1.9-.1-1.5-.1-3.1 0-4.7 0-1.4.1-2.9 0-4.3v-.7c0-1.7 0-3.4 0-5.1 0-.9-.5-1.5-1.7-1.8h-.1c-.2-.1-.3-.1-.5-.1h-.4c-1.3 0-2.5.1-3.7-.1-.1 0-.3 0-.4 0-.7.1-1.2.2-1.8.1-.1 0-.2 0-.3 0-.3 0-.6.1-.9.1-.6.1-1.1.1-1.5.1-1.2-.3-2.3.1-3 1-.1.2-.2.4-.2.6-.1.9-.1 1.8 0 2.6v1.3.6c0 .6-.1 1.2.2 1.9-.2 1.3-.2 2.6-.1 3.8-.1.7-.1 1.4 0 2v.5c-.1.8 0 1.6 0 2.4s.1 1.6 0 2.3v.2.3c0 .4-.1 1 .2 1.5-.2.5-.1.9-.1 1.3v.4c-.2 1.8-.1 3.5-.1 5.2v2.9c0 .2 0 .4.1.5 0 .1 0 .3-.1.5 0 .2-.1.5-.1.8v.1 1c0 .6-.1 1.3.1 2-.1 3.9-.1 7.4-.1 11.4-.1 1.1-.1 2.1-.1 3.1v.9 1.4c0 .4.1.8 0 1.1v.1c-.1.5 0 1 0 1.4 0 .2.1.5 0 .6-.3.8-.2 1.6-.2 2.3v.8c0 1.1.1 2.1.2 3.1l.1.7c-.1.2-.1.3-.1.5v2.1c0 1.8 1.4 2 1.7 2h.7c.9.1 1.8.1 2.8-.2.4 0 .7 0 1.1.1 1.3.1 2.6.2 3.9-.1.9.2 2.1.3 3.3-.3.3-.2.5-.4.6-.8.3-1 .3-1.9.3-2.8 0-.5 0-1 0-1.5.1-.7 0-1.4-.1-1.9 0-.1 0-.3-.1-.4 0-.1 0-.2 0-.3.1-.7.2-1.5 0-2.3.1-2.2.1-4.4.1-6.6 0-1.5 0-3.1 0-4.6.2-.8.1-1.5 0-2.1 0-.2 0-.3 0-.5 0-.5 0-1.1 0-1.6 0-.9 0-1.8.1-2.7.3-1.1.5-2.3.5-3.5.1-.7.4-1.3.8-1.9.2-.4.5-.9.7-1.4.2-.2.4-.4.7-.6.3-.3.7-.6 1-1 .5-.3 1.1-.4 1.8-.5s1.4-.3 2.1-.6c.6.1 1.2.1 1.7 0 .8.5 1.6.7 2.5.9h.1c.5 0 1 .7 1.3 1.1.2.4.5.7.7 1 .4.5.6.8.6 1.2 0 1 .3 1.9.5 2.7.3.9.5 1.6.4 2.3v.2 2.3c0 1.4-.1 2.9.2 4.4-.1.9-.1 1.8-.1 2.6 0 .7 0 1.4-.1 2.1v.2c.1 1.2 0 2.4 0 3.7 0 .9-.1 1.7 0 2.6v.1 1.7c0 .9 0 1.7.1 2.6.1.5 0 1.2-.1 1.9-.1 1.1-.2 2.4.2 3.5.1.3.4.6.7.7 1.2.5 2.6.4 3.9.3h.3c.2 0 .5.1.7.1s.5 0 .7-.1c.6.1 1.2 0 1.7 0s1-.1 1.4 0c.6.1 1.1 0 1.5 0 .2 0 .5-.1.6 0 .6.1 1.2 0 1.7-.3.3-.2.5-.5.6-.9.2-1.1.2-2.1.1-3.1 0-.7 0-1.4 0-2.1 0-.1 0-.3 0-.4v-.1c-.1-.5-.1-.7-.1-.9 0-.1 0-.2 0-.3.1-.2.1-.4.1-.6 0-.3 0-.7 0-1 0-.5.1-1.1 0-1.7 0-.4 0-.8.1-1.3.1-1.6.2-3.2.1-4.9 0-.1 0-.2-.1-.3 0-.1 0-.1 0-.2.2-1 .1-1.9 0-2.8 0-.7-.1-1.3 0-1.9 0-.1 0-.2 0-.3 0-.2 0-.4.1-.7.1-.5.2-1.3-.1-2 .2-.7.2-1.4.2-2 .1-.5.1-.7.1-1z"/><path d="m402.1 85.1c-.1.2-.2.4-.2.6v.4c-.4.7-.8 1.4-1.3 2.2-.1.1-.2.2-.3.3-.5.5-1.2 1.3-1.7 1.3-.4 0-.7.2-1 .5-.1.2-.8.3-1.2.5-.2 0-.4.1-.5.1-.8-.2-1.5 0-2.1.1-.4.1-.8.1-1.1.1-.2 0-.3 0-.5 0-.1-.1-.3-.2-.5-.3-.7-.2-1.3-.3-1.9-.4-.2 0-.4 0-.6-.1-.1-.1-.2-.2-.3-.3-.2-.2-.5-.4-.8-.6-.1-.2-.3-.5-.4-.7-.4-.7-.7-1.1-.6-1.4.1-.2.1-.4.1-.7 0-.2 0-.5 0-.8s0-.7 0-1.2c0-.1.1-.2.3-.4.2-.3.5-.8.7-1.4 0-.1.2-.2.3-.3.2-.2.5-.4.8-.8.1-.1.2-.2.7-.3s1.2-.3 1.9-.9c.5-.3 1-.3 1.2-.3.3.1.6.1.9 0 .5-.2 1-.3 1.6-.4.4-.1.8-.1 1.3-.2.4.1.8 0 1.2-.2.3-.1.6-.1 1.1-.1h1.2c.2 0 .3-.1.5-.2.5-.3.9-.5 1.3-.6v1.7c0 1.1.1 2.1-.1 3.2 0 .8-.1 1.3 0 1.6zm15.2 10.8c0-.1 0-.1 0-.2v-.3c0-1.1 0-2.2-.2-3.4 0-.1 0-.4 0-.6 0-.4.1-.9 0-1.4 0-.1 0-.4 0-.6.1-.4.1-.9 0-1.4.1-.5.1-.9 0-1.3 0-.1 0-.2 0-.3v-.1c-.1-1-.1-2.2 0-3.3v-.1c0-.1 0-.2 0-.3-.1-.9-.1-1.8-.1-2.8 0-.9.1-1.8 0-2.8.1-.7 0-1.4 0-2.1 0-.6-.1-1.1 0-1.7 0-.1 0-.1 0-.2 0-.9 0-1.8 0-2.7 0-1.7 0-3.4-.1-5 0-.5 0-1-.1-1.4s-.1-.8 0-1.1c0-.1 0-.2 0-.4-.1-1.3-.5-2.8-1.4-4.3-.2-.4-.5-.8-.8-1.2-.2-.3-.4-.6-.6-.9 0-.1-.1-.2-.2-.3-.8-.9-1.7-1.7-3-2.6-.1-.1-.2-.1-.2-.1-.2-.1-.4-.2-.6-.2-.5-.2-.9-.3-1.2-.6-.7-.5-1.4-.7-2-.8-.3-.1-.6-.1-.8-.2-.1 0-.2-.1-.3-.1-.4 0-.8-.2-1.2-.3-.3-.1-.5-.2-.8-.3-.1 0-.2 0-.3 0-.5 0-1-.1-1.6-.2-.9-.1-1.8-.3-2.8-.2-.5 0-1 0-1.5 0-.3 0-.7 0-1 0-.7-.1-1.3 0-1.8 0-.6.1-1.1.1-1.6 0-.2 0-.4 0-.7 0-.3.1-.5.1-.9.1-.5 0-1.1.1-1.7.3-.2.1-.5.1-.7.1-.4.1-1 .1-1.5.4-.2 0-.4.1-.7.2s-.6.2-.8.2-.4 0-.6.1c-.3.1-.6.3-.8.5-.3.2-.5.3-.7.4-.8.2-1.4.6-1.9.9-.2.1-.4.3-.6.4-.6.3-1.1.8-1.5 1.1-.3.3-.5.5-.8.7-.1.1-.2.2-.3.3-.1.2-.3.4-.6.6-.4.3-.8.7-1.1 1.3-.7.7-1 1.5-1.3 2.2l-.1.2v.1c-.1.3-.2.5-.3.8-.2.4-.4.9-.5 1.5 0 .2-.1.5-.1.7-.1.6-.2 1.2-.4 1.8-.1.1-.1.3-.1.5 0 .9.7 2.1 1.8 2.3h.5c.4-.1.8 0 1.3 0 .8.1 1.7.2 2.7-.2.1 0 .2 0 .3.1.6.1 1.3.3 2 .1.1 0 .1 0 .2.1.4.1.9.3 1.6.2.1 0 .1 0 .2-.1.3-.1.9-.1 1.4-.1h.9c.4 0 .7-.2.9-.5.4-.5.9-1.1.8-2.2 0-.2.1-.4.3-.8.2-.3.5-.7.6-1.3.2-.2.5-.5.8-.7.1-.1.3-.2.4-.3.5-.2.9-.4 1.4-.6.3-.2.6-.3.9-.5.2 0 .4 0 .7-.1.4 0 .7-.1.9 0 .3.1.7.1 1 0 .2-.1.5-.1.9 0 .4 0 1 .1 1.6 0 .2.1.4.1.7.2 0 0 .1 0 .1.1.3.2.6.4 1.1.5.1 0 .3.2.5.3s.4.3.7.4c.2.5.5 1 .9 1.4.3.4.3 1 .2 2 0 .4-.1.9 0 1.4 0 .2-.1.3-.4.6-.2.2-.4.5-.7.9-.4.2-.7.5-1 .8-.3.2-.7.2-1.3.3-.5 0-1.2 0-1.9.3-.5 0-1 .2-1.4.3-.1 0-.3.1-.3.1-2 .4-3.8.6-5.7.8-1 .1-2 .2-3 .3-.2 0-.3.1-.4.1-.7.4-1.7.6-2.6.8-.4.1-.7.1-1.1.2-.3.1-.5.2-.6.4s-.8.4-1.2.5c-.9.3-2 .6-2.6 1.6-.7.3-1.2.9-1.7 1.3-.2.2-.3.3-.5.5-.2.1-.3.3-.4.5 0 .1-.1.2-.4.5-.2.2-.5.4-.7.7s-.3.6-.3.9c-.1.2-.2.4-.3.6 0 .1 0 .1-.1.2s-.1.2-.2.3c-.8 2.3-1.1 4.9-.9 7.6-.1 1.8.3 3.5 1.1 4.9.1.2.2.5.3.7.2.6.4 1.3 1 1.8.5 1 1.3 1.7 2 2.3.1.1.2.1.3.2.1 0 .2.2.4.4.3.3.6.8 1.3 1h.1c.2.1.5.2.8.4.4.3.9.6 1.6.7.5.2.9.2 1.3.3s.7.1 1 .2c.5.2 1 .3 1.5.4l.1.1c.2.2.5.4.8.4h.3.7c.4 0 .7 0 1.1-.2.9.3 1.8.2 2.6-.2 1.4.2 2.6-.2 3.6-.5h.2c.7-.1 1.6-.1 2.5-.8.4-.1.8-.2 1.1-.3.5-.2.8-.3 1.2-.2.5 0 1-.2 1.2-.7.2-.3.3-.4.9-.7.1 0 .2-.1.3-.2.2-.2.4-.3.6-.5.2-.1.4-.3.6-.4 0 1.1.6 1.9 1.1 2.6l.2.2c.1.1.2.2.3.3.6.4 1.2.4 1.6.4h.2.2.6c.5 0 1 0 1.6-.2.7.3 1.4.2 1.9.1.2 0 .4-.1.6 0 1.6.2 3 .1 4.5 0h.8c.6 0 1.1-.5 1.2-1.1.1-1.1-.2-2.1-.4-3-.5-.2-.5-.5-.6-.8z"/><path d="m492.6 81.5-.1.2c0-.2 0-.3.1-.2zm-.1.5c.1 0 .1 0 0 0zm4.5 14.2v-.1c0-.1 0-.1 0-.2.4-1.6.3-3.6.3-5.3 0-.8 0-1.6 0-2.2 0-.1 0-.2 0-.3-.3-1.3-.2-2.7-.1-4.2.1-1.3.1-2.7 0-3.9 0-.3 0-.7 0-1.1 0-.6.1-1.3 0-2 .2-1.6.1-3.3.1-4.9 0-1.3 0-2.6 0-3.8 0-.1 0-.2 0-.3-.1-.5-.1-1.1-.2-1.8-.1-1.3-.2-2.8-.9-4.1 0-.1-.1-.1-.1-.2s-.1-.2-.1-.5c-.1-.5-.2-1.2-.7-1.8-.3-.4-.6-.8-.9-1.3-.7-1.1-1.5-2.3-2.7-3.1-.5-.5-1.1-.7-1.5-.8-.1 0-.2 0-.2 0-.4-.8-1.1-1-1.5-1.2-.1 0-.3-.1-.3-.1-.2-.2-.5-.3-.7-.4-.3 0-.5 0-.8-.1-.6 0-.8 0-.9-.2-.2-.2-.5-.4-.9-.4s-.7 0-1.1-.1c-.6-.1-1.2-.2-1.7-.2-.3 0-.6 0-.8 0-.9-.4-1.8-.2-2.5 0-.1 0-.2 0-.3 0-.6.1-1.3.2-2 .5-.5 0-.9.1-1.2.3-.3.1-.5.2-.8.2s-.7.1-.9.4c-.3.3-.8.5-1.3.8-.3.2-.7.3-1 .5-1.2.7-1.9 1.5-2.8 2.3l-.5.4c-.2.2-.3.4-.4.7h-.1c-.3.2-.6.4-.8.6-.2-.3-.3-.4-.4-.6-.1-.3-.3-.6-.6-.8-.6-.4-1.3-1-1.7-1.6 0 0-.1-.1-.1-.1-.3-.4-.8-.9-1.7-1-.8-.6-1.7-1.1-2.2-1.4-.2-.1-.4-.1-.7-.1-.4 0-.7-.1-1.2-.3s-1.2-.4-1.9-.4c-.2-.1-.5-.3-.8-.3-.1 0-.2 0-.3 0-.6 0-1.2 0-1.7 0-.8 0-1.6 0-2.4.1-.2 0-.4.1-.5.2 0 0-.2 0-.3.1-.3 0-.7.1-1.1.3-1 .1-1.8.5-2.5.9-.4.2-.8.4-1.2.6-.5.2-.9.5-1.2.8-.2.2-.3.3-.5.3-.1 0-.2.1-.3.1-.5.4-.8.7-1.2 1.1-.3.3-.5.5-.8.7 0-.6 0-1.2-.3-1.8 0-.1-.1-.2-.1-.3-.1-.5-.4-1.4-1.3-1.8-.2-.1-.3-.1-.5-.1-.3 0-.6 0-1 0-1.1-.1-2.3-.1-3.6 0-1.4-.1-2.8 0-4.1 0-.5 0-1 0-1.5 0-.4 0-.7.2-.9.4-.9 1.1-.9 2.2-.9 3.1v.8c-.1 1-.1 2 0 2.9v1.7.2 1.4c-.1.7-.1 1.6.1 2.4-.1.5-.1 1.1 0 1.5v.8c-.2 2-.1 3.9-.1 5.8 0 1.4.1 2.9 0 4.4v.1c.2 2.3.2 4.2 0 6 0 .5.1.9.1 1.2s.1.6.1.7c-.1.7-.1 1.4-.1 2v1.2c0 .2 0 .4.1.6s.2.4.2.7c0 .1 0 .1-.1.2-.1.3-.3.7-.2 1.2v.2c.1.8.2 1.8.1 2.6s-.1 1.5 0 2.2c.1.6.1 1.2 0 1.6 0 .1-.1.3-.1.4 0 .8.4 1.5 1.1 2.1.1.1.2.2.4.2.8.3 1.4.2 1.9.1.3 0 .6-.1.8 0h.1c.7.1 1.3.1 1.8 0 .4 0 .7-.1 1 0h.2 2.2c1.1 0 2.3 0 3.6-.1.6-.1 1.1-.6 1.1-1.3 0-.1 0-.3 0-.4.3-.7.3-1.4.2-2 0-.2 0-.3 0-.5.1-2.1.1-4.2.1-6.2v-.8c.1-1.6.1-3.2.1-4.8 0-.4 0-.8 0-1.2.4-1 .3-2.3 0-3.2 0-.7 0-1.4 0-2.2 0-.5 0-1.1 0-1.6.2-.5.2-1 .2-1.4 0-.1 0-.2 0-.3 0-.4 0-.8 0-1.2 0-1.9 0-3.8.4-5.4.4-.7.6-1.4.9-2l.2-.4h.1c.3-.1.7-.4 1-.8.3-.3.6-.6.8-.7.5-.2.8-.4 1.1-.6.1-.1.3-.2.4-.3h.8c.5 0 1 0 1.6-.1.1 0 .2 0 .3.1.3.1.6.1 1 .1.5 0 .9 0 1.3.1.8.5 1.6 1.2 2.3 2 .3.7.5 1.3.5 2 0 .3.1.5.3.7.3.3.3.7.3 1.4 0 .3 0 .6.1.9v6.9 8.4c-.2.8-.1 1.5 0 2.1 0 .5.1.9 0 1.3-.1.6 0 1.1.1 1.5 0 .2.1.4.1.4-.3.8-.3 1.6-.2 2.3v1 .2 1.6c-.1 1.1-.2 2.3.4 3.6.1.3.5.6.8.7.6.2 1.2.4 2 .4h.1c.4 0 .8-.2 1-.3.1 0 .2-.1.2-.1.6.1 1.1.1 1.6 0h1.1.4c.4 0 .8 0 1.3.1 1 .1 2.1.3 3.2-.2h.1c.9 0 1.5-.4 1.9-1.2.4-1.1.3-2.1.2-3 0-.5-.1-1 0-1.4v-.1c0-.8 0-1.7.1-2.5.1-1.7.1-3.4 0-5.2 0-.2-.1-.4-.1-.5s0-.1 0-.2c0-.2 0-.6-.2-1 0-.1.1-.1.1-.2.2-.6.1-1.2.1-1.6s0-.7 0-.9c0-.1.1-.3.1-.4.1-.8 0-1.6 0-2.4s0-1.5 0-2.2c.1-.6-.1-1.1-.1-1.4-.1-.3-.1-.5-.1-.6.3-.8.2-1.7.2-2.4 0-.5 0-.9 0-1.3.1-.3 0-.6 0-.9 0-.1 0-.2 0-.3.2-.2.3-.5.3-.8 0-.9.2-1.7.8-2.8 0-.1.1-.1.1-.2 0-.2.1-.4.1-.6.1-.3.1-.5.2-.6s.2-.3.4-.4c.2-.2.5-.5.7-.8.5-.3.9-.6 1.3-.9.1-.1.2-.1.3-.2l1.5-.3s.9-.2 1.4-.3c.3 0 .6.1.9.1 1.2.2 2.2.3 3.2.8.1.1.2.2.3.4.2.4.5.8 1 1.2v.2.2c0 .2.1.4.2.6.1.1.1.3.2.4.1.3.3.6.5.9v.7s0 .5 0 .8c0 .2.1.4.2.5v.6c0 .3-.1.7 0 1.1v1.3 6.2 1c0 .4.1.9 0 1.1s-.1.4-.2.6v2.8 2c0 .1 0 .3.1.4.3.8.2 1.7.2 2.8 0 .6-.1 1.2 0 1.8.1 1 .1 2.1 0 3.2v3.1c-.1.8.2 1.3.4 1.8l.1.1c.2.4.6.7 1 .7h1c.4 0 .9 0 1.1.1.7.3 1.4.2 1.9.2h.3c.4-.1.9-.1 1.5 0h1.7c.5-.1 1.1-.1 1.8 0 .8 0 1.6 0 2.4-.1.4-.1.7-.3.9-.7.4-.9.4-1.7.4-2.4 0-.3 0-.6 0-.9-.8-.2-1-.8-1.1-1.1z"/><path d="m14.7 135.6c2.1.1 4.2 0 6.4.1 2.4-.1 4.7-.1 7.1 0 .9 0 1.9 0 2.8.1.2.2.1.6.1.9v4.3c-1 .2-2.6 0-3.7.1-1.4 0-2.8 0-4.2 0-.6.2-1.1.2-1.7 0-.6.1-1.1.1-1.7.1s-1.2.1-1.8-.1c-.2.2-.4.2-.5.5-.3.9-.1 1.9-.2 2.9.1 1.1 0 2.2 0 3.3.4.6 1.4.4 2 .4 2.6.1 5.3 0 7.9.1.7 0 1.3-.1 2 .2.1.2.1.4-.1.6.2.1.2.2.2.4v3.6c-.6 0-1.1 0-1.7.1-1.1 0-2.3 0-3.5 0-.9 0-1.8.1-2.7 0-1.2-.1-2.3.1-3.5.1-.4 0-.5.1-.6.5-.2 1.1.1 2.4-.2 3.5.3 1.5-.1 3 .1 4.5-.3.1-.6.2-.8.3.3-.1.5-.2.8-.2 0 .6-.2 1.2-.1 1.7.1.6 0 1.3-.1 2-.9.1-1.7.1-2.6.1-1 .1-1.9-.1-2.9 0-.2-.1-.3-.3-.4-.5.3-.5.1-1 .1-1.6-.1-1.9 0-3.8 0-5.8 0-.7-.2-1.4-.1-2.1.1-.6-.1-1.3 0-1.9.1-1.2.1-2.4 0-3.6.1-1.2-.1-2.3.1-3.5-.1-1-.1-2.1 0-3.1-.1-1.4-.1-2.8 0-4.2 0-1.1-.2-2.3 0-3.4 1.2-.4 2.4-.4 3.5-.4z"/><path d="m40 135.6c0 1 .2 2 .1 3-.3 0-.6.1-.9.1v.1c.2 0 .5 0 .7.1.3.4.2.8.2 1.2-.1 1.2 0 2.4 0 3.6 0 .8.1 1.5 0 2.3 0 .3-.2.6-.1 1 .2 1.2-.1 2.3 0 3.5.1 1 0 1.9 0 2.9v3.8c0 .6.2 1.2-.1 1.7v6c0 .3.1.5-.3.5-1.8 0-3.6-.1-5.5 0-.3-.8-.1-1.6-.2-2.4-.1-1 0-1.9 0-2.9 0-7.3 0-14.6 0-21.9 0-.9-.1-1.8.1-2.6.9 0 1.8.1 2.8-.1 1.2 0 2.2-.1 3.2.1z"/><path d="m50.8 146.5c-.4 0-.4.2-.3.5.2.2.6-.3.3-.5zm14.4 14.7v2.9c0 .3.1.8-.1 1-.4 0-.7.2-1 .2-.4.1-.8-.2-1.1-.1-2.9.1-5.9 0-8.8 0-.7-.3-1.3.1-2-.1-1.1.3-2.4.1-3.5.1-.4.1-.5-.2-.9-.1-.5.2-.9.1-1.2-.3.2.7-.8.5-1.1.3-.2-2.4 0-4.9-.1-7.4.1-1.1-.1-2.5 0-3.5 0-3.9.1-7.6 0-11.9.1-1.2 0-3 .1-4.2.3-.3-.1-.5 0-.9 0-.5-.1-1.1.3-1.4.2.1.3.3.3.4 0-.2.2-.6.4-.5 1.1-.3 2.5 0 3.6-.1.3 0 1 .1 1 .5 0 1 .1 2.1-.1 3.1.2.7 0 1.3.1 2v17.8c.1.3 0 .8.4 1 .6.1.9-.2 1.4.2.1-.1.3-.2.4-.2 3.2.1 6.4 0 9.6.1.2.1.4.1.6.1.5-.2.9 0 1.5 0 .3.3.2.7.2 1z"/><path d="m73 135.6c.9-.2 1.9 0 2.8-.1.5-.1.9.2 1.5.1.5.3.4 1.2.8 1.7.2.4.2.9.4 1.3.4.7.4 1.5.8 2.2.1.9.6 1.6.7 2.5.3.6.5 1.2.6 1.9.6 1.3.8 2.7 1.4 4 .3.5.2 1.2.5 1.7.3.6.2 1.2.7 1.7.1.6.2 1.3.7 1.8 0 .3.2.9.5 1.1.1-.5.7-1 .7-1.6.3-1.1.7-2.3 1.2-3.4.1-.7.5-1.4.6-2.1.2-.5.3-1 .6-1.5.3-1.5 1.1-3.2 1.4-4.8.4-.5.4-1.3.6-1.8.3-.3.3-.8.4-1.2 0-.4.3-.6.3-1 .4-.4.2-1.2.6-1.6.1-.3.2-.6.5-.8.5 0 1.2-.2 1.7.1.1 0 .3-.1.4-.1h3.3c.9.2 2.1-.1 3 .3.1 2.3-.1 4.8 0 7.2 0 2.2-.1 4.1 0 6.2 0 2.9-.1 5.7 0 8.6-.1 1.9.1 3.9-.2 5.7.2.5.3 1.1-.1 1.6-.4.1-1.3.1-1.7-.2l-.3.2c-.6 0-1.3.1-1.9 0 0-.2 0-.4 0-.6h-.1v.7c-.5.2-.9 0-1.3-.2-.1-.4-.1-.8-.2-1.2.1-2.1-.1-4.3 0-6.4-.1-1 .1-2.1-.1-3.1.1-1.2 0-2.1 0-3.3.1-1.5-.3-2.8 0-4.2-.2-.6-.1-1.3-.1-1.9-.6.3-.6 1.7-.9 2.3-.4.5-.3 1.2-.6 1.8-.4.5-.2 1.1-.6 1.6-.3.6-.2 1.2-.6 1.8-.3.4-.3.9-.4 1.4-.3.5-.6 1-.6 1.7-.3.4-.5.8-.5 1.3 0 .4-.4.7-.4 1.1-.2.7-.3 1.3-.7 2 0 .8-.6 1.2-.6 2 0 .5-.5.9-.5 1.4-.3.6-.4 1.4-.9 2-1.1.1-2.3-.1-3.4 0-.3-.1-.6 0-.9-.1-.8-1-.7-2-1.3-3.1 0-.7-.5-1.2-.5-1.9-.1-.5-.4-1-.5-1.4-.1-.8-.5-1.3-.6-2.1-.2-.7-.5-1.4-.6-2.1-.6-.6-.3-1.3-.8-2-.2-.7-.4-1.4-.7-2.1-.4-1.1-.5-2.3-1.2-3.3 0-.8-.5-1.4-.7-2.1-.1.1-.1.2-.2.2-.1 2.5-.1 4.9-.2 7.4.2.4.1.7.1 1.2-.2.6.1 1.1-.1 1.7-.1 3.4 0 6.1-.1 9.4-.4.6-1.6-.1-2.1.4-.3-.2-.5-.2-.9-.2-.5.1-1-.1-1.5 0-.3-.1-1 .1-1-.4 0-1.5 0-2.9-.1-4.4.1-1.7 0-3.4.1-5.1 0-4.7 0-9.2 0-13.9 0-.4 0-.7.1-1.1-.2-.7-.1-1.5-.1-2.2s-.1-1.5 0-2.2c0-.1 0-.3.2-.4 1.1-.3 2.1 0 3.2-.2 0 0 .2 0 .4.1z"/><path d="m136.4 155.6c.2-.2.6-.2.5-.5-.4 0-.6 0-.5.5zm-6 2.2c-.2 0-.4-.1-.5.1 0 .1 0 .2.2.3h.3c0-.2 0-.3 0-.4zm-.7 3.5c-.2-.2-.6-.4-.8-.1-.1.3.2.7.5.6.2-.2.4-.3.3-.5zm-.8-10.3h.4c0-.2 0-.2-.3-.2 0-.2.1-.4.1-.6-.4-.2-.8-.5-1.3-.5-.1-.1-.3-.2-.4-.3-.1 0-.2 0-.4 0 .3.2.7.4 1 .7.3.2.2.4.1.7.1-.1.1-.3.2-.4.6-.1.8.2.6.6zm-4.7-14.3c.2.3.2.5.6.5 0-.5-.2-.7-.6-.5zm-.2 5.3c.2.5.3 1 .5 1.5.4.3.4.8.7 1.2s.6.7 1 1c.7.1 1.3-.2 1.7-.8.1-.2.3-.2.5-.3.5-.6 1.1-1.3 1.2-2.1 0-.5.2-1-.1-1.5 0-.3-.3-.4-.3-.8-.1-.4-.5-.4-.5-.8-.3 0-.4-.2-.6-.4-.3 0-.4.1-.6-.1-.6-.2-1 .2-1.6.1-.4.4-.9.7-1.3 1.1-.1.7-.7 1.1-.6 1.9zm-.1 4.1h.4c0-.1.1-.2 0-.3-.3-.1-.4-.1-.4.3zm-.5 4.1h.3c0-.1 0-.2 0-.4-.1-.1-.2-.1-.2-.1l-.2.1c0 .2 0 .3.1.4zm5.6 8.6.6-.6c0-.1 0-.3 0-.5-.3-.4-.5-.8-.9-1.1-.5-.7-.8-1.2-1.5-1.7-.1-.5-.6-.4-.6-.9-.5-.3-.7-.8-1.1-1.2-.3-.4-.9-.9-1.4-.6-.3.2-.8.2-1.1.4s-.5.1-.6.5c-.3.3-.6.6-.9.8-.2.4-.6.5-.8.8 0 .6-.4 1.2-.4 1.9 0 .9.5 1.9 1 2.6.2.5.7.3 1 .7s1 .4 1.3.7c.5.1.9.2 1.4 0h.7c.3-.3.6-.3 1-.4.2-.2.4-.1.7-.1.3-.4.6-.5 1-.7.2-.3.5-.2.6-.6zm12.7 5.8c-.5.2-1.2 0-1.8.1-.5-.2-1.1 0-1.6-.1-.5.1-.9 0-1.4 0l-.1-.2-.1.3c-.5 0-1 0-1.4 0-.3-.2-.4-.5-.7-.7-.2-.5-.6-.8-1-1.1-.1-.3-.5-.8-.9-.8-.4.3-.7.4-1 .8-.5.2-1 .5-1.4.9-.2.2-.5.3-.8.3-.2.3-.4.4-.6.6-.3 0-.5.1-.8.1-.1.1-.2.2-.2.3-.2 0-.3 0-.5.1-.3 0-.6 0-.9 0-.3.3-.7 0-1 .3-.4.1-.8 0-1.2 0-.2 0-.5.1-.6-.1-.5-.1-1 .1-1.5-.2-.5 0-.8-.2-1.2-.2-.3-.4-.7-.2-1-.5-.2-.1-.3-.2-.6-.2-.2-.2-.3-.4-.6-.5-.3-.2-.5-.5-.9-.5-.2-.1-.3-.2-.3-.4-.1 0-.2-.1-.3-.2-.1-.3-.5-.5-.6-.8-.2-.4-.6-.8-.7-1.2-.4-.5-.3-1.1-.6-1.7-.3-.5-.2-1.1-.4-1.6 0-.8.1-1.7.2-2.5.2-.4.5-.7.4-1.2 0-.5.4-.7.6-1.1s.5-.6.7-1c.2-.2.4-.3.6-.6.8-.9 1.9-1.4 2.8-2.2.5-.3.9-.5 1.3-.9-.1-.1-.2-.2-.2-.3 0-.2-.3-.4-.4-.5 0-.6-.6-.8-.7-1.4-.5-.4-.5-.9-.8-1.4-.1-.2 0-.4-.2-.6 0-.2 0-.5-.1-.7-.1-.4 0-.7-.1-1 0-.4.1-.8.1-1.1.3-.4.1-.8.3-1.1 0-.2 0-.4.2-.6.3-.3.3-.7.6-1 .3-.2.2-.6.6-.7.3-.3.6-.6.9-.9.3-.2.7-.3 1-.6.3-.2.8-.1 1.1-.4.2-.2.3-.2.6-.2.4-.2.9-.2 1.3-.2 1.2 0 2.3 0 3.5.1.3.2.7.2 1 .5.3.2.7.1 1 .3.4.4.8.5 1.2.9.2.1.4.2.5.3.2.3.6.4.7.8.3.3.5.6.5 1 .1.1.2.2.3.2.1.3 0 .5.2.8 0 .7.3 1.4.2 2.1-.1.3.1.5-.1.8-.1.3-.1.5-.1.8-.2.2-.1.5-.1.8-.2.3-.5.6-.6 1-.1.3-.4.4-.5.8 0 .2-.2.3-.4.3-.1.2-.1.4-.3.5-.3.2-.4.5-.7.6-.2.2-.3.5-.6.5-.3.2-.6.3-.9.7-.4-.1-.7.4-.7.7.2.3.4.7.8.8 0 .1.1.2.1.3.5.5 1 1 1.3 1.6.4.4.7.9 1.1 1.2.2 0 .5.1.6-.1.5-.3.2-.8.7-1.1 0-.4.2-.7.2-1.1.2-.2.3-.2.3-.5.4-.1.7 0 1.1-.1 1 .1 2 0 3.1 0 .3 0 .5.2.4.4 0 .5-.2 1-.2 1.5-.1.1-.2.1-.3.2 0 .4 0 .5-.1.9 0 .4-.1.8-.3 1.1-.4.1-.4.5-.5.9-.5.4-.5 1-.9 1.4-.2.5-.3 1.2.2 1.5.6.6 1.1 1.3 1.7 1.9.1.4.5.4.6.7.2.3.5.4.6.8.6.4.9 1.1 1.4 1.5-.3.5-.1.7-.1 1.1z"/><path d="m162.2 135.6c.9-.2 1.9 0 2.8-.1.5-.1.9.2 1.5.1.5.3.4 1.2.8 1.7.2.4.2.9.4 1.3.4.7.4 1.5.8 2.2.1.9.6 1.6.7 2.5.3.6.5 1.2.6 1.9.6 1.3.8 2.7 1.4 4 .3.5.2 1.2.5 1.7.3.6.2 1.2.7 1.7.1.6.2 1.3.7 1.8 0 .3.2.9.5 1.1.1-.5.7-1 .7-1.6.3-1.1.7-2.3 1.2-3.4.1-.7.5-1.4.6-2.1.2-.5.3-1 .6-1.5.3-1.5 1.1-3.2 1.4-4.8.4-.5.4-1.3.6-1.8.3-.3.3-.8.4-1.2 0-.4.3-.6.3-1 .4-.4.2-1.2.6-1.6.1-.3.2-.6.5-.8.5 0 1.2-.2 1.7.1.1 0 .3-.1.4-.1h3.3c.9.2 2.1-.1 3 .3.1 2.3-.1 4.8 0 7.2 0 2.2-.1 4.1 0 6.2 0 2.9-.1 5.7 0 8.6-.1 1.9.1 3.9-.2 5.7.2.5.3 1.1-.1 1.6-.4.1-1.3.1-1.7-.2l-.3.2c-.6 0-1.3.1-1.9 0 0-.2 0-.4 0-.6h-.1v.7c-.5.2-.9 0-1.3-.2-.1-.4-.1-.8-.2-1.2.1-2.1-.1-4.3 0-6.4-.1-1 .1-2.1-.1-3.1.1-1.2 0-2.1 0-3.3.1-1.5-.3-2.8 0-4.2-.2-.6-.1-1.3-.1-1.9-.6.3-.6 1.7-.9 2.3-.4.5-.3 1.2-.6 1.8-.4.5-.2 1.1-.6 1.6-.3.6-.2 1.2-.6 1.8-.3.4-.3.9-.4 1.4-.3.5-.6 1-.6 1.7-.3.4-.5.8-.5 1.3 0 .4-.4.7-.4 1.1-.2.7-.3 1.3-.7 2 0 .8-.6 1.2-.6 2 0 .5-.5.9-.5 1.4-.3.6-.4 1.4-.9 2-1.1.1-2.3-.1-3.4 0-.3-.1-.6 0-.9-.1-.8-1-.7-2-1.3-3.1 0-.7-.5-1.2-.5-1.9-.1-.5-.4-1-.5-1.4-.1-.8-.5-1.3-.6-2.1-.2-.7-.5-1.4-.6-2.1-.6-.6-.3-1.3-.8-2-.2-.7-.4-1.4-.7-2.1-.4-1.1-.5-2.3-1.2-3.3 0-.8-.5-1.4-.7-2.1-.1.1-.1.2-.2.2-.1 2.5-.1 4.9-.2 7.4.2.4.1.7.1 1.2-.2.6.1 1.1-.1 1.7-.1 3.4 0 6.1-.1 9.4-.4.6-1.6-.1-2.1.4-.3-.2-.5-.2-.9-.2-.5.1-1-.1-1.5 0-.3-.1-1 .1-1-.4 0-1.5 0-2.9-.1-4.4.1-1.7 0-3.4.1-5.1 0-4.7 0-9.2 0-13.9 0-.4 0-.7.1-1.1-.2-.7-.1-1.5-.1-2.2s-.1-1.5 0-2.2c0-.1 0-.3.2-.4 1.1-.3 2.1 0 3.2-.2-.1 0 .2 0 .4.1z"/><path d="m200.9 135.8c.2.1.4.3.7.1.4-.3.8-.1 1.3-.1h2.6c.7.2 1.3-.2 1.9.1.5-.1 1 .2 1.4-.2 1.8 0 3.7.2 5.5 0 .4 0 .6.3 1 .2.1 1.6 0 3.2 0 4.9-.4.4-1.3 0-1.9.2-.5-.1-1.5.3-1.9-.2-.1.1-.2.2-.3.2-1.2-.2-2.5.1-3.7 0-1.3-.1-2.7 0-4 0-.1-.1-.2-.1-.3-.2-.3.5-1 .1-1.5.3-.5.3-1-.2-1.2.5v5.5c.1.7 1 .5 1.5.5 1.8.1 3.5 0 5.3.1 2.2-.1 4.4.1 6.7 0 .1.2.2.5.1.8 0 1.3 0 2.6-.1 3.9-.3.4-1 .1-1.5.1-2.1 0-3.9.1-5.9 0-.7.1-1.3-.1-2 0-1.3.1-2.8-.1-4.1.2-.2.4-.1.8-.1 1.2-.2.9 0 1.8 0 2.7.2.5 0 .8.1 1.3-.1.5 0 1.3.1 1.9.5.3 1 .1 1.7.2 3.1 0 6.4 0 9.5.1 1.3 0 2.6-.1 3.9.2.1.6.1 1.1 0 1.7 0 1 0 2.2-.1 3.2-.3 0-.5.1-.7.2-.7-.2-1.3.1-2 0-.9-.1-1.8.2-2.6 0-.9-.1-1.9.1-2.6-.1 0-.1-.1-.1-.2 0-.7-.1-1.3 0-2.1 0l-.4.2c-.2-.1-.3-.3-.3-.4 0 .1-.1.3-.3.4-1.5-.1-3 0-4.4 0-.6-.1-1.2-.1-1.8 0-.4-.2-1-.2-1.3 0-.5-.1-1 .2-1.2-.4-.2.5-.7.4-1.1.2-.1-.8 0-1.7-.1-2.6-.1-.5.2-.9.1-1.3-.1-1.2 0-2.7-.1-3.7.2-1.2 0-2.5.1-3.7 0-3.5.1-6.9.1-10.4 0-1 .1-2 0-3.1.2-1.4-.2-3 .2-4.3.2 0 .5-.1.7-.1 1.5-.4 3.4-.3 5.3-.3z"/><path d="m238.8 153.2c.3-1.9.2-3.6 0-5.5-.2-.3.1-.5 0-.7-.4-.7-.5-1.5-.9-2.2-.4-.8-.9-1.6-1.6-2.1-.7-.7-1.8-1.2-2.7-1.3-.4-.4-.8-.1-1.2-.3-.6-.3-1.3 0-2-.1-.8 0-1.6 0-2.4 0-.7.1-1.4-.2-1.6.6-.1 2.6-.1 5.7-.1 8.5-.2.9 0 1.8-.1 2.6v4l.1.3v2.7c.1.2.3.2.6.2 1.6-.1 3.1 0 4.6-.1.8.1 1.5-.2 2.3-.2.5-.2 1.1-.4 1.5-.6.3-.3.7-.4 1-.6.4-.3.7-.8 1-1.2.6-.7 1-1.6 1.3-2.5.1-.5.3-.9.2-1.5zm6.2-1.3c0 .8-.3 1.5-.2 2.3-.1.2-.2.4-.2.6 0 .8-.4 1.6-.6 2.4-.1.3-.3.6-.5.9 0 .3-.1.5-.3.8-.4.4-.4.9-.7 1.3-.7.6-1 1.5-1.7 2-.4.6-.9.8-1.5 1.1-.6.5-1.3.7-2 1.1-.6 0-1 .5-1.5.5-.6.2-1.3.2-1.9.2-1.2.3-2.7 0-4 .2-1.1-.2-2.4.1-3.5-.1-.5-.1-1.1.3-1.4-.2-.5.5-.8 0-1.4.2-.8-.1-1.6 0-2.4 0-.4 0-.9 0-.9-.5-.1-3.2-.1-5.9 0-9-.1-4.5.1-10 0-14.6.2-.5.2-.8 0-1.2.1-1.1 0-2.4.1-3.5 0-.5.7-.5 1.1-.5.8-.1 1.6 0 2.4 0 1.2-.1 2.5.1 3.7 0 2 .1 3.6 0 5.5 0 .4.3.8 0 1.3.1 1 .3 2.3.4 3.2.9.8.1 1.3.6 2 .9.8.8 1.8 1.3 2.5 2.3.4.6.9 1.2 1.3 1.9.3.4.3 1 .7 1.3.3.6.3 1.3.6 1.8.1.7.3 1.3.3 2 .1 1.6 0 3.1 0 4.8z"/><path d="m254.8 135.6c0 1 .2 2 .1 3-.3 0-.6.1-.9.1v.1c.2 0 .5 0 .7.1.3.4.2.8.2 1.2-.1 1.2 0 2.4 0 3.6 0 .8.1 1.5 0 2.3 0 .3-.2.6-.1 1 .2 1.2-.1 2.3 0 3.5.1 1 0 1.9 0 2.9v3.8c0 .6.2 1.2-.1 1.7v6c0 .3.1.5-.3.5-1.8 0-3.6-.1-5.5 0-.3-.8-.1-1.6-.2-2.4-.1-1 0-1.9 0-2.9 0-7.3 0-14.6 0-21.9 0-.9-.1-1.8.1-2.6.9 0 1.8.1 2.8-.1 1.2 0 2.2-.1 3.2.1z"/><path d="m274.5 151.5c-.5-.7-.5-1.5-.8-2.3-.3-.5-.2-1.1-.6-1.6-.3-.4 0-.9-.5-1.3 0-.3-.2-.5-.3-.8-.3-.4 0-.9-.4-1.3-.2-.4 0-.9-.6-1.1-.5.5-.5 1.5-1 2.2-.1.5-.1.9-.5 1.3-.1.5-.1 1.2-.5 1.6-.1.5-.2 1-.4 1.4-.4.7-.4 1.5-.7 2.2 0 .7-.5 1.2-.4 1.9l.2.2c1.7 0 3.5-.1 5.2 0 .5-.4.9 0 1.4-.3.5-.9-.1-1.3-.1-2.1zm10.5 13.6c-.8-.2-1.6.2-2.2-.2-.1.1-.2.1-.3.2-.5-.2-1 .1-1.3-.1s-.4 0-.7.1c-.4-.1-.8 0-1.1 0-.4-.3-.5-.9-.7-1.4-.1-.9-.6-1.9-.8-2.8-.5-.7-.4-1.5-1-2.2-.4-.1-.6-.3-1-.2-1.4.1-3.2 0-4.7 0-.7.1-1.3 0-2 0-.6 0-.8.4-1.3.1-.6.1-1.4-.2-1.8.5-.5.6-.4 1.4-.8 2-.4 1.3-.9 2.5-1.3 3.9-.4.3-.9.2-1.4.2-1.4.1-2.8-.1-4.2 0l-.4-.2c.2-.8.3-1.7.7-2.3.1-.4.1-.8.4-1.2.2-.5.2-1 .5-1.5.4-1.3.8-2.3 1.3-3.5.1-.5.3-1 .4-1.4 0-.5.4-.8.5-1.3.1-.7.6-1.3.7-2 1.2-3.2 2.2-6.4 3.3-9.5.3-.8.5-1.7.9-2.5.2-.5.3-1.2.6-1.6.1-.4.2-.7.3-1.1.4-.4.3-.9.6-1.3h5.8c.6.1.4.7.7 1.1.2.4.3.8.5 1.3.4.6.5 1.3.8 2 .5 1.3 1.1 2.7 1.4 4 .7 1.3 1 2.9 1.7 4.1.2 1.1.7 2.2 1.1 3.2.1.6.4 1.2.7 1.8.1.8.6 1.3.7 2.1.4.6.4 1.5.9 2.1.1.4-.2.5.3.8.4 1.2.7 2 1 3 0 .6.5 1.1.5 1.7.1.3.2.5.4.8.1.3.5.7.3 1.3z"/><path d="m304.4 135.6c0 1 .2 2 .1 3-.3 0-.6.1-.9.1v.1c.3 0 .5 0 .7.1.3.4.2.8.2 1.2-.1 1.2 0 2.4 0 3.6 0 .8.1 1.5 0 2.3 0 .3-.1.6-.1 1 .2 1.2-.1 2.3 0 3.5.1 1 0 1.9 0 2.9v3.8c0 .6.2 1.2-.1 1.7v6c0 .3.1.5-.3.5-1.8 0-3.6-.1-5.5 0-.3-.8-.1-1.6-.2-2.4-.1-1 0-1.9 0-2.9 0-7.3 0-14.6 0-21.9 0-.9-.1-1.8.1-2.6.9 0 1.8.1 2.8-.1 1.2 0 2.2-.1 3.2.1z"/><path d="m312 135.6c1.2.2 2.6 0 3.8.2.4.3.8.8.8 1.3.5.1.4.6.8 1 .5.7.9 1.4 1.4 2.1.4.9 1.1 1.7 1.4 2.6.3.4.5.8.8 1.1.1.3.2.5.4.7.4 1.1 1.2 2.1 1.8 3.1.4.8 1 1.4 1.3 2.2.6.5.5 1.3 1.1 1.8.4.4.4 1 .9 1.3.2.4.4.8.6 1.1.2.4.5.6.9.3.2-.5 0-1.1.2-1.6.1-2.4.1-5.1 0-7.5.2-1.4-.1-2.8.1-4.2-.2-1 .1-2.1 0-3.2.3-.3.1-.6.1-1-.1-.4 0-.8.1-1.2.8-.2 1.4 0 2.1-.1.9 0 1.8.1 2.6.1.3 0 .5.1.6.4.1.6.1 1.3 0 2v2.4c.1 1.6-.1 3.2.1 4.8 0 .4 0 .7-.1 1.1.2 1.2-.1 2.3 0 3.5-.1 2.5 0 4.6 0 7 .1 1.7-.1 3.4 0 5.1 0 1 0 2-.1 3-1.5.2-3.2-.1-4.7.2-.7.2-1.7-.2-1.6-1 .2-.1.5-.1.8 0-.2-.1-.3-.1-.5-.2-.1.1-.3.2-.4.3-.3-.3-.4-.6-.6-.9-.5-.3-.6-1-1-1.4-.6-1.1-1.3-2-1.9-3.2-.4-.4-.5-.9-.9-1.3-.3-.5-.5-1.1-.9-1.5-.3-.4-.2-.8-.6-1.1-.4-1-1.1-1.5-1.5-2.5-.5-.6-.6-1.4-1.1-2-.5-.8-1-1.6-1.6-2.3-.2-.7-.7-1.2-1-1.9-.1-.1-.3 0-.5 0-.2.9.1 1.8-.1 2.8-.1 2.8-.1 5.6-.1 8.4.3.5.1 1.4 0 2 0 1.8-.1 3.7-.1 5.5 0 .2-.1.4-.3.5-.7 0-1.3.1-2 0-.7.1-1.5.1-2.2 0-.4 0-.7 0-1-.2-.1-.3 0-.7-.1-1-.1-.6.2-1.3 0-1.9 0-2.2 0-4.5 0-6.7-.1-.8.3-1.2 0-2 0-4 0-8.1 0-12.1-.1-.5.2-.9 0-1.3.2-1.4 0-2.9.1-4.3.6-.3 1.3-.3 2.1-.3z"/><path d="m340.9 157.8c-.3 0-.5.1-.4.4h.4c0-.1 0-.3 0-.4zm20.1-.1c-.3.6-.4 1.2-.6 1.9-.3.9-.9 1.6-1.2 2.4-.1.1-.2.1-.3.2-.1.4-.5.6-.8.9-.9.8-1.9 1.1-2.8 1.7-.4.1-.8.3-1.2.5-.6.2-1.3.2-1.9.4-.4 0-.8 0-1.2.2-1.1.1-2.1.1-3.2 0-1-.1-1.9-.5-2.9-.6-1.4-.4-2.8-1.2-4-2-1-1-2.2-1.9-2.7-3.4-.1-.5-.5-.7-.6-1.1 0-.6-.2-1.1-.2-1.6s-.3-1-.1-1.5c.4-.5 1.2-.2 1.7-.1.7-.2 1.5-.2 2.2-.1.6 0 1.2-.1 1.8.1.4.8.3 1.7.8 2.5.7 1.4 2.4 2.3 3.9 2.6.6.1 1.4 0 1.8.4.6-.5 1.7-.3 2.5-.4.4-.3.9-.5 1.4-.6.3-.3.8-.5 1-1 .1-.1.2-.1.3-.2.3-.8.7-1.4.4-2.3-.2-.4-.3-.7-.4-1.1-.2-.6-.8-.5-1.1-1.1-.7-.4-1.3-.9-2.2-1-.6-.3-1.2-.4-1.8-.6-.5-.3-1.2-.2-1.8-.5-.7-.4-1.5-.3-2.3-.5-.6-.5-1-.6-1.7-.6-.5-.4-1.2-.4-1.7-.9-1-.3-1.7-1.2-2.4-2-.2-.2-.2-.5-.4-.7-.4-.4-.5-1-.8-1.4-.3-.5-.2-1.3-.2-1.9-.3-2.4.6-4.9 2.3-6.6.8-.7 1.6-1.2 2.4-1.8.6-.1 1.1-.5 1.7-.6.3-.1.6-.1.9-.2.6-.3 1.2-.1 1.8-.4h2.6c.7.2 1.4 0 2 .3.5.1.9.5 1.5.5.5 0 .9.3 1.3.5 1.2.3 2.1 1.2 3 2 .5.7 1.1 1.3 1.3 2.1.1.3.5.6.3.9l-.3.1v.1c.3.1.4.2.6.4.1.8.4 1.5.2 2.3-.1 0-.2-.1-.2-.1 0 .6-.5.3-.8.2-.9.3-2 0-2.9.1-.6-.3-.9.2-1.5 0-.2-.1-.3-.3-.4-.5 0-.3-.1-.7 0-1-.2-.5-.6-.8-.8-1.3-.5-.7-1.3-.9-2-1.4-1.4-.3-2.8-.3-4.2-.2-.4.3-.9.2-1.2.5-.7.4-1.1.9-1.5 1.6-.1.7-.2 1.4-.1 2.1.3.4.5.9.9 1.1.8.6 1.9.8 2.9 1.3.8 0 1.7.4 2.4.7.5.1.9 0 1.4.2.4.3.9.3 1.4.5.9 0 1.5.5 2.4.6.2 0 .4.2.6.3.7.2 1.4.7 1.9 1.2.5.1.6.6 1 .8.5.6 1 1.1 1.3 1.9.5.7.5 1.6.7 2.4 0 1.1-.2 2-.2 2.8z"/><path d="m373.9 153.9h-.1v.1h.1zm11.4-13c-.5-.1-1.1 0-1.6 0-.9.1-1.8-.2-2.8.2-.5-.1-1-.1-1.5-.2-.7.2-1.4.1-2.1.2-.4.1-.3.4-.3.8-.1 3.1 0 5.7-.1 8.7.1 1.1 0 2.3 0 3.4 0 .2-.1.3-.3.3.3.2.2.3.2.6.2.6.1 1.2 0 1.8 0 .6.1 1.3 0 1.9-.1 1.2.1 2.1.1 3.3l-.2.3c.2.8 0 1.5.1 2.3 0 .3.1.6-.2.8-.8 0-1.6 0-2.5.1-1-.3-2 .3-3-.3-.3-1.3 0-2.7-.2-4 .1-1.2 0-2.4 0-3.6.1-1 0-2 .1-3-.1-2.3 0-4.8 0-7.2-.1-1.1.1-2.3-.1-3.4 0-.8 0-1.5 0-2.3 0-.3-.1-.6-.4-.6-.9-.3-1.8 0-2.7-.1-.6-.1-1.3.1-1.9 0-1-.2-2 0-3-.1-.4 0-.5-.4-.4-.7.2-1.4-.2-3 .1-4.3.8-.3 1.8 0 2.7-.2.6.3 1.2-.2 1.8.1h2.9c.3-.2.6-.1 1-.1h4c.9 0 1.8-.1 2.8.1.8-.2 1.7 0 2.5-.1.9-.1 1.7.1 2.5 0 .8.1 1.7 0 2.5.1.1.1.2.3.1.6 0 1.5.1 3.1-.1 4.6z"/><path d="m394.1 135.6c0 1 .2 2 .1 3-.3 0-.6.1-.9.1v.1c.2 0 .5 0 .7.1.3.4.2.8.2 1.2-.1 1.2 0 2.4 0 3.6-.1.8.1 1.5 0 2.3 0 .3-.2.6-.1 1 .2 1.2-.1 2.3 0 3.5.1 1 0 1.9 0 2.9v3.8c0 .6.2 1.2-.1 1.7v6c0 .3 0 .5-.3.5-1.8 0-3.6-.1-5.5 0-.3-.8-.1-1.6-.2-2.4-.1-1 0-1.9 0-2.9 0-7.3 0-14.6 0-21.9 0-.9-.1-1.8.1-2.6.9 0 1.8.1 2.8-.1 1.2 0 2.1-.1 3.2.1z"/><path d="m408.5 153.9h-.1v.1h.1zm11.4-13c-.5-.1-1.1 0-1.6 0-.9.1-1.8-.2-2.8.2-.5-.1-1-.1-1.5-.2-.7.2-1.4.1-2.1.2-.4.1-.3.4-.3.8-.1 3.1 0 5.7-.1 8.7.1 1.1 0 2.3 0 3.4 0 .2-.1.3-.3.3.3.2.2.3.2.6.2.6.1 1.2 0 1.8 0 .6.1 1.3 0 1.9-.1 1.2.1 2.1.1 3.3l-.2.3c.2.8 0 1.5.1 2.3 0 .3.1.6-.2.8-.8 0-1.6 0-2.4.1-1-.3-2 .3-3-.3-.3-1.3 0-2.7-.2-4 .1-1.2 0-2.4 0-3.6.1-1 0-2 .1-3-.1-2.3 0-4.8 0-7.2-.1-1.1.1-2.3-.1-3.4 0-.8 0-1.5 0-2.3 0-.3-.1-.6-.4-.6-.9-.3-1.8 0-2.7-.1-.6-.1-1.3.1-1.9 0-1-.2-2 0-3-.1-.4 0-.5-.4-.4-.7.2-1.4-.2-3 .1-4.3.8-.3 1.8 0 2.7-.2.6.3 1.2-.2 1.8.1h2.9c.3-.2.6-.1 1-.1h4c.9 0 1.8-.1 2.8.1.8-.2 1.7 0 2.5-.1.9-.1 1.7.1 2.5 0 .8.1 1.7 0 2.5.1.1.1.2.3.1.6-.1 1.5 0 3.1-.2 4.6z"/><path d="m444.5 137.9c.1-.4-.4-.5-.7-.5 0 .4.4.7.7.5zm-1.7 7.8c-.2.2-.2.4 0 .5.5.2.5-.7 0-.5zm3.7 3.1v2.1c-.1 1.5.2 3.2-.1 4.7 0 .6 0 1.1-.1 1.7-.4.9-.5 2.1-.9 3-.2.5-.6.9-.8 1.5-.8.9-1.7 1.9-2.8 2.6-.6.1-.9.6-1.5.7-.5.1-.9.5-1.5.4-.9.1-1.9.9-2.7 0 .3.8-.7.5-1.2.5-1.1.2-2.3-.1-3.3-.1-.9-.3-1.7-.4-2.5-.6-.4-.1-.5-.5-.9-.5-.5-.1-.9-.5-1.4-.7-.5-.5-1.1-.8-1.5-1.3-.8-.6-1.2-1.8-1.7-2.7-.1-.8-.7-1.3-.7-2.1-.2-.7 0-1.4-.4-2-.2-2.2 0-4.4-.1-6.7.1-1.6 0-3.5.1-5.1 0-1.3-.1-2.6.1-3.8-.1-1.5-.1-3 0-4.5l.1-.3c1.7-.1 3.9-.1 5.5 0 .3.5.1 1.3.2 1.8-.1 5.9 0 11.9.1 17.8.3.7 0 1.4.4 1.9.2.3.2.7.4 1 .5.7 1.1 1.6 2.1 1.8.4.2.9.3 1.3.5 1.2.1 2.3.1 3.5 0 .3-.1.7-.3 1.1-.3.6 0 1-.4 1.5-.8 1.3-1 1.5-2.7 1.7-4.2 0-1.1 0-2.1 0-3.2.6-.1.3-.5.1-.8-.1-1.5 0-3 0-4.5 0-.5-.1-.9.2-1.3-.4-.5-.2-1.1-.2-1.7-.2-1.6.1-3.6-.1-5.1.1-.9 0-1.8.2-2.8.1-.3.3-.4.7-.4 1.2 0 2.4-.1 3.6.1.5 0 1.3-.2 1.6.2.2.8 0 1.7 0 2.6-.7.3-1.3 0-1.9.4-.3.2-.8.3-.7.7.5-.1.8-.7 1.4-.7.3 0 1.1-.2 1.2.2-.1 3.2-.2 6.9-.1 10z"/><path d="m460.6 153.9h-.1v.1h.1zm11.4-13c-.5-.1-1.1 0-1.6 0-.9.1-1.8-.2-2.8.2-.5-.1-1-.1-1.5-.2-.7.2-1.4.1-2.1.2-.4.1-.3.4-.3.8-.1 3.1 0 5.7-.1 8.7.1 1.1 0 2.3 0 3.4 0 .2-.1.3-.3.3.3.2.2.3.2.6.2.6.1 1.2 0 1.8 0 .6.1 1.3 0 1.9-.1 1.2.1 2.1.1 3.3l-.2.3c.2.8 0 1.5.1 2.3 0 .3.1.6-.2.8-.8 0-1.6 0-2.4.1-1-.3-2 .3-3-.3-.3-1.3 0-2.7-.2-4 .1-1.2 0-2.4 0-3.6.1-1 0-2 .1-3-.1-2.3 0-4.8 0-7.2-.1-1.1.1-2.3-.1-3.4 0-.8 0-1.5 0-2.3 0-.3-.1-.6-.4-.6-.9-.3-1.8 0-2.7-.1-.6-.1-1.3.1-1.9 0-1-.2-2 0-3-.1-.4 0-.5-.4-.4-.7.2-1.4-.2-3 .1-4.3.8-.3 1.8 0 2.7-.2.6.3 1.2-.2 1.8.1h2.9c.3-.2.6-.1 1-.1h4c.9 0 1.8-.1 2.8.1.8-.2 1.7 0 2.5-.1.9-.1 1.7.1 2.5 0 .8.1 1.7 0 2.5.1.1.1.2.3.1.6-.1 1.5.1 3.1-.2 4.6z"/><path d="m481.7 135.8c.2.1.4.3.7.1.4-.3.8-.1 1.3-.1h2.6c.7.2 1.3-.2 1.9.1.5-.1 1 .2 1.4-.2 1.8 0 3.7.2 5.5 0 .4 0 .6.3 1 .2.1 1.6 0 3.2 0 4.9-.4.4-1.3 0-1.9.2-.5-.1-1.5.3-1.9-.2-.1.1-.2.2-.3.2-1.2-.2-2.5.1-3.8 0s-2.7 0-4 0c-.1-.1-.2-.1-.3-.2-.3.5-1 .1-1.5.3-.5.3-1-.2-1.2.5v5.5c.1.7 1 .5 1.5.5 1.8.1 3.5 0 5.3.1 2.2-.1 4.4.1 6.7 0 .1.2.2.5.1.8 0 1.3 0 2.6-.1 3.9-.3.4-1 .1-1.5.1-2.1 0-3.9.1-5.9 0-.7.1-1.3-.1-2 0-1.3.1-2.8-.1-4.1.2-.2.4-.1.8-.1 1.2-.2.9 0 1.8 0 2.7.2.5 0 .8.1 1.3-.1.5 0 1.3.1 1.9.5.3 1 .1 1.7.2 3.1 0 6.4 0 9.5.1 1.3 0 2.6-.1 3.9.2.1.6.1 1.1 0 1.7 0 1 0 2.2-.1 3.2-.3 0-.5.1-.7.2-.7-.2-1.3.1-2 0-.9-.1-1.8.2-2.6 0-.9-.1-1.9.1-2.6-.1 0-.1-.1-.1-.2 0-.7-.1-1.3 0-2.1 0l-.4.2c-.2-.1-.3-.3-.3-.4 0 .1-.1.3-.3.4-1.5-.1-3 0-4.4 0-.6-.1-1.2-.1-1.8 0-.4-.2-1-.2-1.3 0-.5-.1-1 .2-1.2-.4-.2.5-.7.4-1.1.2-.1-.8 0-1.7-.1-2.6-.1-.5.2-.9.1-1.3-.1-1.2 0-2.7-.1-3.7.2-1.2 0-2.5.1-3.7 0-3.5.1-6.9.1-10.4 0-1 .1-2 0-3.1.2-1.4-.2-3 .2-4.3.2 0 .5-.1.7-.1 1.6-.4 3.5-.3 5.4-.3z"/></svg>