<svg viewBox="0 0 199.97 200" xmlns="http://www.w3.org/2000/svg"><g fill="#221f20"><path d="m99.76 196.61c-25.92 0-50.28-10.09-68.61-28.42-18.32-18.32-28.42-42.69-28.42-68.6s10.1-50.28 28.42-68.61c18.33-18.33 42.69-28.42 68.61-28.42s50.28 10.09 68.61 28.42 28.42 42.69 28.42 68.61-10.09 50.28-28.42 68.61-42.69 28.42-68.61 28.42zm0-188.48c-50.43.01-91.45 41.03-91.45 91.46s41.02 91.45 91.45 91.45 91.45-41.02 91.45-91.45-41.02-91.45-91.45-91.45z"/><path d="m90.44 35.29h10.54c6.16 0 9.88 3.65 9.88 8.92v.07c0 5.97-4.64 9.07-10.43 9.07h-4.31v7.74h-5.67v-25.8zm10.17 13.01c2.84 0 4.5-1.7 4.5-3.91v-.08c0-2.54-1.77-3.91-4.61-3.91h-4.38v7.89h4.5z"/><path d="m46.45 86.42h5.68v25.8h-5.68z"/><path d="m94.53 86.33h5.23l11.06 25.99h-5.93l-2.36-5.79h-10.91l-2.36 5.79h-5.79zm5.97 15.18-3.43-8.36-3.43 8.36h6.85z"/><path d="m136.15 86.42h5.23l12.09 15.89v-15.89h5.6v25.8h-4.83l-12.49-16.4v16.4h-5.6z"/><path d="m83.43 151.06v-.07c0-7.33 5.79-13.34 13.75-13.34s13.67 5.93 13.67 13.27v.07c0 7.33-5.79 13.34-13.75 13.34s-13.67-5.93-13.67-13.27zm21.48 0v-.07c0-4.42-3.24-8.11-7.81-8.11s-7.74 3.61-7.74 8.04v.07c0 4.42 3.24 8.11 7.81 8.11s7.74-3.61 7.74-8.03z"/></g></svg>