<svg enable-background="new 0 0 1434 200" viewBox="0 0 1434 200" xmlns="http://www.w3.org/2000/svg"><path d="m196.1 102.5c.5-2.2 1.4-5.4 2.3-9.7 1.3-.1 5.6.1 6.9.3.2 3 .2 8.2.2 11.1l-1 2.1c-4.4 3-11.4 5.4-19.3 5.4-16.6 0-27.2-10.5-27.2-27.8s12.6-29 28.6-29c7.2 0 13.1 2 18.1 4.5l1.1 2.1c-.6 4-1.6 9.6-2.3 13.5-1.4.1-4.9 0-6.5-.3-.7-4.7-1.6-8.9-1.9-11.1-2.2-1.2-5.4-2-9-2-4.5 0-8.5 1.2-11.2 3.1-3.6 4.3-6.1 10.6-6.1 18.6 0 13 6.4 21.4 17.4 21.4 4.7-.1 8-.9 9.9-2.2" fill="#912e42"/><path d="m242.6 111.7c-15.4 0-22.7-8.9-22.7-26.8v-8.6c0-4.7 0-12.8-.8-13.8-.7-1-4.2-1.9-6.7-2.6l.9-3.9h23.7l.9 3.9-7.1 2c-.2 1.3-.6 10.7-.6 14.5v8.8c0 12.7 3.8 19.5 14.5 19.5 5.4 0 9.6-2.1 11.7-4.8 1.7-5.2 1.8-12.2 1.8-20.9 0-7.2 0-15.3-.5-16.6-.8-.7-4.8-1.7-7.5-2.4l.8-4h21.3l.9 3.9-7.3 2.1c-.2 5.3-.4 12.6-.4 25.7 0 16-9.1 24-22.9 24" fill="#912e42"/><path d="m286.7 104.5c.2-1.3.5-10.7.5-14.5v-14c0-4.8 0-12.7-.6-13.5-.7-.9-4.3-1.9-6.8-2.6l.9-3.9h23.3l.9 3.9-7 2c-.2 1.3-.5 10.7-.5 14.5v14c0 5.3 0 12.6.8 13.7.8.8 5.8.9 9.3.9 3.1 0 6.4-.2 8.7-.4l2.4-10.4c1.5-.1 5.1 0 6.6.3.2 5 .1 10.4-.2 15.8h-44.3l-.9-3.9z" fill="#912e42"/><path d="m343.8 104.5c.2-1.3.4-8.4.4-14.5v-28.8h-1.4c-3.4 0-6.9.2-9.4.5l-2.2 10.1c-1.6.1-5.2 0-6.8-.2-.2-5-.2-10.3 0-15.6h26.2c9.2 0 16.7-.1 22.5-.5.5.6 1.5 1.9 1.9 2.6-.2 4.1-.8 9-1.3 13.6-1.5.2-4.7.1-6.2-.1l-1.9-9.9c-2.6-.3-6-.4-9.1-.4h-2v29.2c0 4.8 0 12.7.6 13.5.6.9 4.2 1.9 6.9 2.6l-.9 3.9h-23.4l-.9-3.9z" fill="#912e42"/><path d="m410.6 111.7c-15.4 0-22.7-8.9-22.7-26.8v-8.6c0-4.7 0-12.8-.8-13.8-.7-1-4.2-1.9-6.7-2.6l.9-3.9h23.7l.9 3.9-7.1 2c-.2 1.3-.6 10.7-.6 14.5v8.8c0 12.7 3.8 19.5 14.5 19.5 5.4 0 9.6-2.1 11.7-4.8 1.7-5.2 1.8-12.2 1.8-20.9 0-7.2 0-15.3-.5-16.6-.8-.7-4.8-1.7-7.5-2.4l.8-4h21.3l.9 3.9-7.3 2.1c-.2 5.3-.4 12.6-.4 25.7 0 16-9.1 24-22.9 24" fill="#912e42"/><path d="m454.7 104.5c.2-1.3.5-10.7.5-14.6v-14c0-4.8 0-12.7-.6-13.5-.7-.9-4.3-1.9-6.8-2.6l.9-3.9h11.3c2.7 0 11.4-.5 15.1-.5 13.1 0 20.9 5.1 20.9 15.2 0 7.1-5.2 11.6-10 14 3.3 6.5 9.2 17.3 11 19.9l6 2-.9 3.9c-4.3 0-8.2.1-13.8.3-1.7-4-7.4-15.3-11.4-22.9h-11.5v2.6c0 4.8 0 12.7.6 13.5.7.9 4.3 1.9 6.8 2.6l-.9 3.9h-23.3l-.9-3.9zm10.6-22.9 14 .5c3.1-1.8 6-5.8 6-11 0-3.7-1.2-6.1-2.8-7.9-1.9-1.4-5.4-2.1-9.3-2.1-2.4 0-5.4.4-7.5.8-.2 1.6-.5 10.7-.5 14.5z" fill="#912e42"/><path d="m528.8 110.4h-21.4l-.8-3.9 6.3-2c5.3-12.8 10.6-27.2 15.6-40.9l2.3-7.6c3.7-.5 9.6-.9 13.1-.9.6 2.5 1.6 5.2 3 8.7 5.1 14.1 11.3 30.6 15.3 40.7l6.4 2-.9 3.9h-23.7l-.8-3.9 7.7-2c-1.3-3.5-2.8-7.6-4.4-12.2l-20.9.4c-1.4 4-2.7 8.1-4 11.8l7.9 2zm16-23.6c-2.7-7.6-5.8-16-9-24.4-2.8 7.9-5.5 16.1-8.2 24.2z" fill="#912e42"/><g fill="#b59664"><path d="m161 144.3c-.8-.2-1.5-.6-2-.9l.9-2c.5.4 1.1.7 1.7.9.7.2 1.3.3 2 .3s1.3-.1 1.7-.3.5-.5.5-.9c0-.3-.1-.5-.3-.7s-.5-.3-.8-.4-.8-.2-1.3-.4c-.9-.2-1.6-.4-2.1-.6-.6-.2-1-.5-1.4-1s-.6-1.1-.6-1.8.2-1.3.5-1.8c.4-.5.9-1 1.6-1.3s1.6-.5 2.6-.5c.7 0 1.4.1 2.1.3s1.3.4 1.8.7l-.8 2c-1-.6-2.1-.9-3.2-.9-.7 0-1.3.1-1.6.4-.4.2-.5.5-.5.9s.2.7.6.9 1 .4 1.9.6 1.6.4 2.1.6c.6.2 1 .5 1.4 1 .4.4.6 1 .6 1.8 0 .7-.2 1.3-.5 1.8-.4.5-.9 1-1.6 1.3s-1.6.5-2.6.5c-1-.1-1.9-.2-2.7-.5"/><path d="m181.3 142.4v2.1h-8.8v-11.4h8.6v2.1h-6v2.5h5.3v2.1h-5.3v2.6z"/><path d="m187.8 143.9c-.9-.5-1.7-1.2-2.2-2.1s-.8-1.9-.8-3.1.3-2.1.8-3c.6-.9 1.3-1.6 2.2-2.1s2-.8 3.1-.8c1 0 1.9.2 2.7.5s1.5.9 2 1.5l-1.7 1.6c-.8-.9-1.7-1.3-2.9-1.3-.7 0-1.3.2-1.9.5s-1 .7-1.3 1.3-.5 1.2-.5 1.9.1 1.3.5 1.9c.3.6.7 1 1.3 1.3s1.2.5 1.9.5c1.1 0 2.1-.5 2.9-1.4l1.7 1.6c-.5.7-1.2 1.2-2 1.5s-1.7.5-2.7.5c-1.1 0-2.2-.3-3.1-.8"/><path d="m206.7 144.5-2.2-3.1h-2.4v3.1h-2.6v-11.3h4.9c1 0 1.9.2 2.6.5.8.3 1.3.8 1.7 1.4s.6 1.3.6 2.2c0 .8-.2 1.6-.6 2.2s-1 1.1-1.7 1.4l2.6 3.6zm-.6-8.7c-.4-.3-1-.5-1.8-.5h-2.1v4h2.1c.8 0 1.4-.2 1.8-.5.4-.4.6-.8.6-1.5s-.2-1.2-.6-1.5"/><path d="m222.4 142.4v2.1h-8.7v-11.4h8.5v2.1h-5.9v2.5h5.2v2.1h-5.2v2.6z"/><path d="m229.3 135.3h-3.7v-2.2h9.9v2.2h-3.6v9.2h-2.6z"/><path d="m245.5 142.1h-5.3l-1 2.4h-2.7l5.1-11.3h2.6l5.1 11.3h-2.7zm-.8-2.1-1.8-4.4-1.8 4.4z"/><path d="m260 144.5-2.2-3.1h-2.4v3.1h-2.6v-11.3h4.9c1 0 1.9.2 2.6.5.8.3 1.3.8 1.7 1.4s.6 1.3.6 2.2c0 .8-.2 1.6-.6 2.2s-1 1.1-1.7 1.4l2.6 3.6zm-.7-8.7c-.4-.3-1-.5-1.8-.5h-2.1v4h2.1c.8 0 1.4-.2 1.8-.5.4-.4.6-.8.6-1.5s-.2-1.2-.6-1.5"/><path d="m268.9 129.9h2.7l-2.9 2.3h-2zm-2 3.2h2.6v11.4h-2.6z"/><path d="m282 142.1h-5.3l-1 2.4h-2.7l5.1-11.3h2.6l5.1 11.3h-2.8zm-.8-2.1-1.8-4.4-1.8 4.4z"/><path d="m296.1 133.1h5.2c1.2 0 2.3.2 3.3.7.9.5 1.7 1.1 2.2 2s.8 1.9.8 3-.2 2.1-.8 3c-.5.8-1.3 1.5-2.2 2-1 .5-2 .7-3.3.7h-5.2zm5 9.2c1.1 0 2-.3 2.7-.9s1-1.5 1-2.6-.3-1.9-1-2.6c-.7-.6-1.6-.9-2.7-.9h-2.4v7z"/><path d="m320.5 142.4v2.1h-8.8v-11.4h8.6v2.1h-6v2.5h5.3v2.1h-5.3v2.6z"/><path d="m334 143.9c-.9-.5-1.7-1.2-2.2-2.1s-.8-1.9-.8-3.1.3-2.1.8-3c.6-.9 1.3-1.6 2.2-2.1s2-.8 3.2-.8c1 0 1.9.2 2.7.5s1.5.9 2 1.5l-1.7 1.6c-.8-.9-1.7-1.3-2.9-1.3-.7 0-1.3.2-1.9.5s-1 .7-1.3 1.3-.5 1.2-.5 1.9.1 1.3.5 1.9c.3.6.7 1 1.3 1.3s1.2.5 1.9.5c1.1 0 2.1-.5 2.9-1.4l1.7 1.6c-.5.7-1.2 1.2-2 1.5s-1.7.5-2.7.5c-1.2 0-2.3-.3-3.2-.8"/><path d="m346.9 143.3c-.9-.9-1.3-2.2-1.3-3.8v-6.4h2.6v6.3c0 2 .8 3.1 2.5 3.1.8 0 1.5-.3 1.9-.8s.6-1.3.6-2.3v-6.3h2.6v6.4c0 1.7-.4 3-1.3 3.8-.9.9-2.2 1.3-3.8 1.3-1.6.1-2.9-.4-3.8-1.3"/><path d="m360.6 133.1h2.7v9.3h5.7v2.1h-8.4z"/><path d="m373.8 135.3h-3.7v-2.2h9.9v2.2h-3.6v9.2h-2.6z"/><path d="m384.9 143.3c-.9-.9-1.3-2.2-1.3-3.8v-6.4h2.6v6.3c0 2 .8 3.1 2.5 3.1.8 0 1.5-.3 1.9-.8s.6-1.3.6-2.3v-6.3h2.6v6.4c0 1.7-.4 3-1.3 3.8-.9.9-2.2 1.3-3.8 1.3s-2.9-.4-3.8-1.3"/><path d="m405.9 144.5-2.2-3.1h-2.4v3.1h-2.6v-11.3h4.9c1 0 1.9.2 2.6.5s1.3.8 1.7 1.4.6 1.3.6 2.2c0 .8-.2 1.6-.6 2.2s-1 1.1-1.7 1.4l2.6 3.6zm-.7-8.7c-.4-.3-1-.5-1.8-.5h-2.1v4h2.1c.8 0 1.4-.2 1.8-.5.4-.4.6-.8.6-1.5s-.2-1.2-.6-1.5"/><path d="m420.7 142.1h-5.3l-1 2.4h-2.7l5.1-11.3h2.6l5.1 11.3h-2.8zm-.8-2.1-1.8-4.4-1.8 4.4z"/><path d="m119.2 95.1c-.2-3.2-1-6.3-2.2-9.3-.1-.2-.5-.4-.8-.3-.2 0-.4.1-.5.2v.3c1 2.5 1.7 5.4 2.1 8.6.2 1.5-.1 3.4-.9 5.9-.2 1.4-.2 3.2-.1 4.6 0 .6-.3.9-.6.9s-.6-.2-.6-1c-.1-1.7-.2-3.2-.2-4.5v-.1c-.1-2.4-.1-4.4-.6-6.3-.2-1-1.2-2.6-2.9-4.5-.8-1.2-1.3-2.3-1.6-3.5-.1-.3-.1-.5-.2-.9s-.2-.7-.3-1l-.6-1.9c-.1-.2-.3-.2-.4-.2-.3 0-.6.2-.8.4-.1.1-.2.3-.2.6l1.7 5.6c.4 1 1.2 1.9 2 2.9.5.5.9 1 1.3 1.5.7.9.8 1.6.9 2.7.3 1.9.5 4.7.7 8.6l1.1 5.7c.3 1.8.2 3.9-.2 6.3-.1.8.1 1.1.1 1.2h.1c.1 0 .4-.1 1-.7 1.6-1.9 1.5-8.4 1.4-13.7.1-1.6.5-3 .7-4.2.4-1.4.7-2.7.6-3.9"/><path d="m113.5 86.5-.1-1c0-.2-.1-.4-.2-.5-.3-.5-.6-.8-1.1-.9-.1 0-.3 0-.4 0h-.2v.2c.3 2.1 1.2 3.9 2.7 5.3l.2.1h.1c0-.1.1-.2 0-.6l-.7-1.7c-.1-.3-.2-.5-.3-.9"/><path d="m106.6 101.6h-.1c-.2 0-.5-.3-.6-.6-.4-.6-.9-2.1-1.4-5-.1-.7-.3-1.4-.5-2.1-.5-1.5-.9-2.4-1.8-3.1-1.8-1.3-3.4-3.4-4.7-6.2-.3-.6-.6-.9-.8-.9-.1 0-.2.1-.3.2-.2.3-.3.7-.2 1.2.6 1.5 1.3 2.7 2 3.7.3.4.6.7.9.9l.2.1c1.3 1.1 2.2 1.9 2.8 2.8.7 1 .8 2 1 3 0 .2.1.5.1.7v.2c.6 2.8 1.3 4.9 2.9 8 .4.9.7 1.7.8 2.6l.5 3.4c.2.9.4 1.1.6 1.1l.2-.1c.2-.2.2-.5.2-.9.1-2.3.1-4.4-.5-10-.5-4-1.2-6.6-2.1-7.9-.2-.4-.5-.6-.8-.6h-.1c0 .1 0 .2.1.6 1.1 2.6 1.7 5.2 1.9 8 0 .4 0 .6-.2.8z"/><path d="m100.4 84.4c-.1-.4-.4-.5-.7-.5-.2 0-.4.1-.4.2v.2c.5 1.8 1.3 3.1 2.5 4.1l.3.2.1-.1c0-.1 0-.2-.1-.4-.9-1-1.4-2.2-1.7-3.7"/><path d="m111.3 101.9h-.1c-.2 0-.4-.1-.6-.6-.1-.3-.2-.5-.2-.8l-1-5.8c-.6-2.3-1.1-3.4-2.2-4.5-1.6-1.6-2.8-3.7-4.2-7.1-.2-.8-.5-1-.6-1s-.3.2-.4.7c-.1.4 0 .6.1.9 1 3.1 2.1 5.2 3.7 6.7 1.1.9 1.7 2.1 2 3.5.1.7.3 1.4.4 2.1.6 3.1 1.3 6.3 2.4 9 .3.8.6 1.7.7 2.7.1 2.1.2 3.5.3 4.6.1.9.4 1.3.6 1.3.1 0 .4-.3.5-1.1.4-2.9.4-6.6 0-11-.1-2.4-.4-4.2-.7-5.9-.2-.9-.6-1.7-1.1-2.4-.4-.4-.5-.5-.6-.5 0 .1-.1.2 0 .6.5 2.3 1.1 4.8 1.3 7.5 0 .4 0 .8-.2.9z"/><path d="m107.5 87.9c-.6-1-.9-1.8-1.1-2.6l-.3-1.5c-.1-.3-.1-.5-.3-.7-.2-.3-.6-.4-.9-.4-.2 0-.3 0-.3.1-.1.1-.1.2-.1.4.6 2.5 1.5 4.3 2.8 5.5.1.1.2.2.3.2h.1s0-.1 0-.3c.1-.3 0-.5-.2-.7"/><path d="m101.3 101.6.1.1c.1.4.2.7.4 1.1.1.3.2.6.4.8.1.2.3.3.4.2.2 0 .3-.2.3-.3.1-.2.1-.5.1-.9-.3-5.8-1.1-9.1-2.6-10.7-.3-.3-.5-.3-.5-.3s0 0-.1.3c0 .2.1.3.2.6.5 1 .8 1.8.9 2.6.1.4 0 .6-.1.8l-.1.1h-.1-.1c-.2 0-.5-.2-.6-.7-.8-1.8-1.7-3-3-3.7-1.9-1.2-3.4-2.2-4.4-3.4-.4-.5-.8-1-1.2-1.8-.1-.1-.1-.2-.3-.3-.2 0-.5.4-.6.8-.1.2 0 .3.1.5 1.1 1.9 2.3 3.2 3.7 3.9 2.5 1.2 4.3 2.9 5.2 5 .9 2.3 1.5 4.1 1.9 5.3"/><path d="m93.4 85.4c-.3 0-.5.1-.6.2v.1c.9 1.4 1.8 2.4 3 3l.3.1h.1s0-.2-.2-.3c-.9-.8-1.4-1.7-2-2.8-.1-.3-.4-.3-.6-.3"/><path d="m88.1 91.3.2.1c.7.2 1.2.4 1.7.7.6.3 1.1.6 1.5 1 1.1 1 2 2.3 2.9 3.6l.2.2c.7 1 1.5 2.1 2.4 3.1.1.2.3.2.5.2.1 0 .2 0 .3-.1s.1-.3.1-.5c-.3-1.2-1.1-3.3-2.6-6.2-.1-.3-.6-.6-1.2-.6h-.1v.1l.6 1.1.1.3v.1.1c-.1.1-.2.2-.3.2l-.2-.1-.2-.3c-.5-.8-1-1.4-1.6-1.9-.3-.3-.6-.4-.9-.6-.6-.2-1.3-.5-2.2-.8-.7-.4-1.2-.7-1.6-1-.5-.5-1.1-1-1.7-1.5-.1-.1-.2-.1-.3-.1s-.2 0-.3.1c-.1.2-.1.5.1.8.4.7 1 1.2 1.7 1.6.2.2.5.3.9.4"/><path d="m109.6 114.6c-1.5-1-2.6-1.7-3.5-2.3-6-4.6-12.1-9-18.7-13.5-.2-.1-.3-.1-.3-.1s-.1 0-.1.1c-.1.3.1.8.6 1.2l19.4 14.3.2.1c.3.2.6.4.7.6s.2.6-.4.9-1.3.5-1.9.5c-1.1 0-2.2-.4-3.3-1.3-5.2-4-10.4-8.2-15.1-12.1-.1-.1-.2-.1-.4-.1l-.1.1c-.1.1-.1.4 0 .7s.3.5.5.7c5.1 4.1 10.1 8.2 15 12.2 1.1.6 2.2.9 3.3.9 1.4 0 2.8-.6 4.1-1.7.5-.4.4-.9 0-1.2"/><path d="m102.3 113.6c.9.7 1.6 1.1 2.2 1.4.2.1.3.1.4.1s.2 0 .2-.1 0-.3-.3-.5l-17.3-13.5-.2-.1-.1.1c0 .1 0 .5.5 1z"/><path d="m98.1 114.3-11.3-9.5c-.2-.1-.3-.1-.4-.1l-.1.1c0 .1 0 .4.3.7 3.3 3 6.9 6.1 10.6 9.3.6.5 1.1.9 1.5 1.2.2.1.4.2.6.2s.4-.1.4-.2c0 0 .1-.1-.1-.2z"/><path d="m89.3 89.6.3.1h.1s0-.1 0-.2c-.1-.2-.3-.5-.5-.8-.3-.3-.5-.4-.9-.6-.2-.1-.4-.1-.6-.1-.1 0-.2 0-.2.1l.1.2c.4.5 1.1 1 1.7 1.3"/><path d="m100.2 118.5c.7 0 1.2-.2 1.7-.5.1-.1.2-.2.2-.3s-.1-.2-.3-.3l-.3-.1c-.1 0-.2 0-.4.1h-.2c-.3 0-.5.1-.8.1-.9 0-1.7-.3-2.6-1-2.8-2.3-5-4.3-6.9-6.1l-.2-.2c-1.5-1.3-2.8-2.6-4.3-3.9-.1-.1-.2-.1-.3-.1h-.1v.4c0 .1.1.2.3.4l.7.7c3.4 3.2 6.5 6.1 9.7 8.9 1 .9 1.6 1.4 2.3 1.6.6.2 1.1.3 1.5.3"/><path d="m84.9 107.5c2.5 2.7 5.1 5.4 8 8.2.9.8 1.6 1.2 2 1.2l.1-.1c0-.1-.1-.1-.2-.2-2.6-2.2-5.4-4.9-7.7-7.3-.2-.2-.3-.3-.5-.5l-.2-.2c-.4-.4-.9-1-1.5-1.4h-.2c.1.1.1.2.2.3"/><path d="m96.1 118.9c.2 0 .5 0 .7-.1.1 0 .2-.1.1-.2 0-.2-.2-.4-.5-.4-1.2-.1-2.2-.4-3.2-1.2-3-2.8-5.9-5.7-8.8-8.6-.1-.1-.2-.2-.3-.2h-.1c0 .1 0 .5.2.8.1.2.2.3.4.5l.1.1c1.6 1.7 3.8 3.9 6.6 6.7.8.8 1.6 1.5 2.7 2.1.8.4 1.5.5 2.1.5"/><path d="m91.8 118c.2 0 .2-.1.2-.2 0-.2-.2-.5-.6-.6-1.4-.2-3.2-2.3-5.1-4.4l-1-1.1-.2-.1-.1.2c-.1.1 0 .2 0 .3l4 4.6c1 1 1.8 1.3 2.8 1.3z"/><path d="m41.4 68.6c.2-.1.4-.1.6-.1s.4.1.6.1c.1.1.2.1.4.1s.3-.1.5-.2c.5-.5 1-.9 1.5-1.2.3-.1.5-.1.8-.1.5 0 1.1.2 1.6.6.2.2.3.5.2.6-.1.2-.3.3-.6.4-.2 0-.4 0-.6 0-.5 0-1 .1-1.6.2-1.5.4-2.1 1.4-2.1 3 0 .3 0 .9-.6.9-.2 0-.4-.1-.7-.4-.7-.7-1-1.4-1-2.1-.1-.5.3-1.2 1-1.8m-1.8 1.3c-.5.8-.4 1.3-.2 2 1 2 2.3 2.9 4.3 2.8h.1c.5 0 .9-.1 1-.3s-.1-.5-.3-.6c-1-.8-1.3-1.8-1-2.7.4-1 1.4-1.6 2.7-1.7.3 0 .6 0 .8.1.6 0 1.1-.2 1.6-.5.9-.7 1.6-1 2.2-1 .4 0 .7.1 1 .2.4.4.3.8 0 1.1s-.5.4-.9.5c-.9.3-1.5.5-1.8.8-.1.1-.1.2-.1.3 0 0 .1.1.5.2.2 0 .4.1.6.1s.4 0 .6-.1c1.1-.5 2.1-1.1 3.4-2.1.4-.3.4-.6.1-.9-1-.9-1.9-1.3-3-1.3-.4 0-.8.1-1.2.2-.6.1-1.2.2-1.6.2s-.8 0-1.2-.2l-2.4-.7c-.4-.1-.7-.2-1-.2-.4 0-.7.1-.9.4l-.2.1s.1.1.3.2c.2.2.3.4.2.6-.1.3-.4.3-.7.4-.2 0-.4 0-.6 0-.4 0-.5.1-.7.3-.7.4-1.2 1.1-1.6 1.8"/><path d="m43.8 64.6c.4.2.9.5 1.7.7h.2c.1 0 .3-.1.5-.3s.4-.7.6-1.5c.2-.7.5-1.4 1-2l.2-.3c.3-.4.5-.6.7-1.2.2-1 .1-1.6-.6-2.1v.4c-.2 1.8-1.3 2.8-2.2 3.4l-.5.4c-.6.4-1 .7-1.3 1.1-.4.3-.5.7-.5.9-.1.3 0 .4.2.5"/><path d="m48 62.4c-.2 0-.3.1-.2.2.8 1.4.4 1.9-.8 2.5-.4.1-.2.5.2.5.1 0 .2 0 .4-.1 1.3-.6 1.6-1.6 1-2.7-.2-.3-.5-.4-.6-.4"/><path d="m49.8 59.7c.2 0 .3-.4.4-.7.1-.4 0-1.1.5-1.2.3-.1.2.5.4.6.1 0 .3-.1.3-.3 0-.8-.3-1.4-.8-1.9l-.1-.1s-.1 0-.1.2c-.4.8-.5 2-.6 3-.1.3-.1.4 0 .4"/><path d="m49.6 61.8c3.3-1.5 4-3.4 4.1-4.5.1-1-.2-2-.8-2.5.3 1.7.1 3-.9 4.2-.7.6-1.6 1.2-2.4 1.8l-.4.2c-.1.1-.2.2-.1.4s.3.4.5.4"/><path d="m53.6 61.9c-.9.7-1.6 1.1-2.5 1.5-.7.3-1.2.6-1.3.8-.1.1-.1.2-.1.2h.1c1.1-.3 2.6-1.1 4.5-2.5 1-.8 1.2-1.5.8-2.3-.1-.1-.2-.2-.3-.2s-.2.1-.3.2c-.8.7-4 2.4-4.6 2.9-.2.2-.3.3-.3.3s0 .3.3.2c.5-.1 2.6-1.5 3.1-1.7.7-.3.8-.2.9-.1.4.2.1.5-.3.7"/><path d="m49.2 66.3c.4-.1.7-.1 1.1-.3.5-.2 3.6-1.8 4.5-1.9.2 0 .4-.1.5 0s.5.7-.2 1.1l-2 .8c-.1.1-.1.2-.1.2s.2.2.6.2h.1c1.9-.5 2.6-1.2 2.4-2.3-.1-.3-.4-.6-1-.6-.3 0-.8-.1-1.6.3-1 .4-2.4 1.2-3.3 1.5-.4.1-.8.4-1.1.6-.2 0-.8.5.1.4"/><path d="m55.2 57.7c.6-.5 1.1-1.8 1.5-1.1.3.6-.1 1.6-.4 2-.2.4 0 .6.3.7l.1.1s.1-.1.2-.2c.5-.7.7-1.9.5-2.9-.1-.5-.3-1.1-.8-1.5l-.3-.1c-.1 0-.2.1-.3.2l-.3 1.1c-.2.5-.4.9-.6 1.1-.3.3-.4.6-.4.8 0 .3.1.2.5-.2"/><path d="m58.2 59.2c.9.2 1.8.7 2.8 1.2.2.1.4.2.6.3.7.4 1.5.8 2.4 1.2l.3.1c.1 0 .2-.1.3-.2.7-.7 1-1.4 1.2-2.3l-.1-.1h-.1c-.3.1-.6.2-.9.2s-.7-.1-1.1-.2c-1.8-1.1-3.5-1.4-4.9-1.6h-.2v.1.2l.1.1c2 .5 3.6 1 5.2 2.1h.1c.1.1.4.3.5.4l-.1.1c-.1.1-.2.2-.4.2l-.3-.1-.2-.1c-1.7-.8-4.5-1.9-4.9-2-.2 0-.2.1-.2.2-.3 0-.2.2-.1.2"/><path d="m56.2 68.1c-.2 0-.6-.6-.8-1l-.2-.1-.2.1v.3c.2.7.5 1.2.9 1.5.1.1.3.1.5.1.4 0 .7-.3.8-.7.1-.7-.3-1.4-.9-1.9l-.1.1c.1.2.4 1.1.3 1.4 0 .2-.2.2-.3.2"/><path d="m58.8 66.8c-.4 0-1-1.1-1.2-1.4l-.2-.1h-.1v.4c.2.7.4 1.4 1 2 .2.1.4.2.6.2.5 0 1-.3 1.6-1 .3-.4.1-.9-.1-1.2-.7-1-2.2-1.7-3.4-2.3h-.1c.4.3.7.6 1.1.9.5.4 1 .7 1.4 1.2.2.2.2.5.1.7 0 .1-.3.5-.7.6"/><path d="m56.7 62c.2.6 4.4 2.7 4.9 2.9.3.1.5.2.7.2s.4-.1.6-.3c.4-.4.7-1.1.3-1.7-1-1.3-2.9-2.4-5.6-3.1h-.1v.1c0 .1.1.1.3.2 1.1.4 2.8 1.2 4 2.2l.1.1c.2.2.5.4.4.8 0 .1-.2.4-.4.6l-.2.1c-.4 0-.9-.3-1.4-.5l-.3-.1c-1.2-.6-2.6-1.3-3-1.3z"/><path d="m97.8 58.8c0 .1 0 .3.3.5 6.8 4.9 12.3 12 16.7 21.8.1.4 0 .7-.1.8s-.3.2-.4.2c-.3 0-.7-.2-1.3-.5-1.4-.9-2.7-2.2-4-3.9-4.8-7.9-10.6-12.7-15.7-16.7-.1-.1-.2-.2-.3-.2l-.1.1c-.1.2 0 .7.4 1 4.8 3.2 9.9 9.2 15.9 18.2 2.1 2.8 4.7 4.1 8.2 4.1.3 0 .7 0 1-.1.6-.1.6-.3.6-.3 0-.1-.1-.2-.3-.4-1.5-1.2-2.6-2.6-3.1-4.4-4.9-10.4-11.9-16.7-16.9-20.2-.2-.1-.4-.2-.5-.2-.3.1-.4.1-.4.2"/><path d="m111.9 79.9c.3.2.5.4.8.4.1 0 .2 0 .2-.1.1-.2 0-.6-.2-1.2-4.1-7.4-9.7-13.8-16.6-18.8-.2-.1-.5-.2-.8-.2s-.4.1-.4.1.1.2.6.5c4.2 3.3 9.5 8.2 16.4 19.3"/><path d="m105.1 79.8c-.4 0-.8-.3-1.1-.7-3.2-4.8-7.5-8.7-11.2-12l-.2-.1-.1.1c-.2.3-.2 1.1.1 1.4 2.5 2 5.2 5.2 7.6 8l.1.1c1.7 2 3.2 3.7 4.2 4.5.5.3 1 .4 1.5.4s1-.2 1.2-.5.3-.7.2-1.2c-3-5.8-7.6-11-14.1-15.7-.1-.1-.2-.2-.3-.2h-.1c-.1.4.1 1.2.5 1.4 3.8 3.4 8 7.3 11.9 13.2.2.4.3.8.1 1 0 .2-.1.3-.3.3"/><path d="m91.8 69.8-.1.1c-.1.2-.1.6.1.8 2.8 2.6 5.5 5.1 8 8.6.3.4.4.9.2 1.3s-.7.7-1.2.7c-.4 0-.7-.1-.9-.4-1.8-1.6-3.6-3.4-5.3-5.2-.7-.8-1.5-1.6-2.2-2.3l-.2-.1-.2.3c-.1.3-.1.7 0 .9l5.4 5.8c.8 1 1.7 1.6 2.7 2 .4.1.9.1 1.2.1.8 0 1.3-.2 1.7-.7.3-.5.4-1.1.1-1.9-2.3-4-5.4-6.8-9.3-10z"/><path d="m90.3 71.3c-.1.2-.1.5-.1.6 2.4 2.7 5 5.2 7.6 7.5l.2.1.1-.1c.1-.1 0-.2 0-.3-2.1-2.9-4.7-5.6-7.8-7.8z"/><path d="m89.5 75.6c-.1-.1-.2-.1-.4-.1s-.3.1-.3.2c-.1.2 0 .4.2.6 1.8 1.5 3.4 3.1 4.6 5 .2.4.3.8.1 1.2s-.6.5-1.1.6c-.3 0-.7-.1-1.1-.3-1.5-1-3-2.4-4.4-3.8l-.3-.3c-.1 0-.2.1-.2.2-.1.2-.1.5 0 .7 2.5 2.7 4.1 4.2 4.9 4.5.7.1 1.3.2 1.8.2.7 0 1.3-.2 1.5-.6.3-.4.3-1.2.1-2.2-.5-1.1-2.4-3.3-5.4-5.9"/><path d="m87.5 77.6 4.4 4.2.3.1.2-.1v-.2c-1.5-2.1-3.2-3.7-5.2-4.9 0 .2.1.7.3.9"/><path d="m87.1 86.8c.9 0 1.8-.4 2.2-1.1.3-.4.4-1 .1-1.5-1-1.4-2.1-2.8-3.6-4l-.2-.1c-.1 0-.2.1-.3.2s-.1.3 0 .4c1.7 1.7 2.5 2.6 2.8 3.2.2.5.1.9-.1 1.2-.3.4-.7.6-1.2.6-.3 0-.5-.1-.8-.2-.8-.6-1.7-1.5-2.7-2.5h-.2c-.1 0-.2.1-.3.2-.1.2-.1.4 0 .5 1 1.4 2.2 2.4 3.4 3 .3.1.6.1.9.1"/><path d="m85.9 84.1c.2.2.4.2.5.2.2 0 .4-.1.4-.2.1-.2 0-.4-.2-.6-.7-.8-1.4-1.5-2.3-2.1-.1-.1-.2-.1-.3-.1-.2 0-.4.2-.4.4s.1.3.4.6c.7.7 1.2 1.2 1.9 1.8"/><path d="m84.1 86.7-2.1-2.4h-.2c-.1 0-.2 0-.3.1s-.1.3 0 .5l1.3 1.5c.2.2.3.5.3.7 0 .5-.5.9-.9 1.2v.1c-.3.2-.6.5-.7.7s-.1.4 0 .5.1.2.3.2l.2-.1 1.7-1.5c.6-.3.7-.8.4-1.5"/><path d="m81.3 87.5.2.1.2-.1c.1-.1.1-.2 0-.3l-1.1-1.9-.2-.1c-.1 0-.3.1-.4.2v.2c.1 0 1.3 1.9 1.3 1.9z"/><path d="m81.6 56.5c.1.2.4.5.9.9 2.9 1.2 5.8 2.4 7.9 4.1.3.3.4.6.2.9-.1.3-.4.4-.7.4-.2 0-.5 0-.8-.2-2.3-1.8-4.7-2.8-6.4-3.4l-.1.1c0 .2.1.5.4.6 2.1.9 4.4 2.2 6.9 4 .4.3.7.4.9.4.3 0 .5-.2.7-.5.5-1.3-.1-2.6-1.8-3.8-2.5-1.3-5.6-2.9-8.1-3.6.1.1 0 .1 0 .1z"/><path d="m83.3 61.3-.1.1c-.1.2 0 .5.3.7.5.4 1.3.8 2.2 1.3 1.8 1 3.6 2.1 3.9 2.8.3.5.3 1.1.1 1.6-.2.3-.5.5-.8.5-.2 0-.4-.1-.7-.2l-4-2.3-.1-.1c0 .2.1.9.6 1.3 1 .8 1.9 1.4 2.9 1.9l.3.1c.4.2 1.1.6 1.6.6.2 0 .4-.1.6-.2.9-.9 1.1-2.7.7-3.5-1.9-1.5-4.2-3-7.5-4.6"/><path d="m87.9 66.9.3.1c.3 0 .5-.1.5-.2-.6-.8-4.8-3-4.8-3 0 .1.1.3.2.5.9.8 2.2 1.7 3.8 2.6"/><path d="m84.1 73 2.4 1.7c.3.2.5.3.7.3s.4-.1.6-.2c.4-.3.8-.9 1.1-1.5.3-1 0-1.7-.8-2.3l-3.3-2.4-.1-.1-.1.1c-.1.2-.1.5.1.8 1 .8 2 1.5 2.5 2.2.4.4.4 1 .2 1.4-.2.3-.4.5-.7.5-.2 0-.4-.1-.6-.2l-1.8-1.3c-.1 0-.2.1-.2.2-.2.3-.2.6 0 .8"/><path d="m86.1 72.2c.2 0 .3-.1.4-.3.1-.1 0-.3-.1-.4l-1.6-.9-.2.2v.3l1.4 1.1z"/><path d="m81.1 77.4c0 .2-.1.5.1.6l2.4 1.8c.2.1.3.1.5.1.3 0 .6-.2 1-.5l.3-.5c.6-1 1.1-1.7.4-2.8-.6-.8-1.3-1.5-2.3-2-.1 0-.2.1-.2.2-.1.2-.1.6.1.8l1.2 1.3c.2.4.2.9 0 1.3s-.6.7-1 .7c-.2 0-.4-.1-.6-.2l-1.3-1-.2-.1c-.2 0-.3.1-.4.3"/><path d="m82.1 75.9c-.1.1 0 .3.1.4l.8.6.2.1c.1 0 .2-.2.2-.2 0-.1 0-.3-.1-.5l-.8-.7h-.1c-.1.1-.3.2-.3.3"/><path d="m77.7 80.6c-.1 0-.2.1-.3.2s-.1.4 0 .7l1.8 2.1c.2.2.4.3.7.3.7 0 1.6-.7 2.1-1.6.4-.7.4-1.3.2-1.8-.7-1.1-1.3-1.8-1.9-2.3l-.2-.1c-.1 0-.2.1-.2.2-.1.2-.2.6 0 .8l.8 1.1c.2.4.1 1-.1 1.4s-.6.6-.9.6c-.2 0-.5-.1-.7-.3l-1.1-1.2z"/><path d="m79.8 81.3c.1 0 .3-.1.3-.2.1-.1 0-.2 0-.3l-1-.9-.1-.2c-.1 0-.2.1-.3.2s-.1.3 0 .4l1 1z"/><path d="m83.1 105.5c0 .2.1.7.4.6.2 0 .5-.2.8-.4 2-2.6 1.3-10.8-1.2-14.8l-.2-.1c-.1 0-.2.1-.3.2-.1.2-.1.5 0 .7 2 4.5 2.6 7.9 2.1 10.8-.1.3-.2.8-.6.8-.2 0-.5-.2-.7-1-.5-3.4-1.4-6-2.9-8.2-.2.4-.2 1.2 0 1.6 1.2 2 2.1 5.2 2.6 9.8"/><path d="m81.4 91.8c-.2.3-.3.8-.2 1.1 1.2 1.9 2 4.1 2.4 6.7l.1.1.2-.2c-.3-3-1.2-5.5-2.5-7.7z"/><path d="m69.1 54.4c.4.2.8.3 1.1.5.6.3 1.2.6 1.8 1 2.3 1.3 3.7 2.8 4.7 7.3l.1.5c.9 4.3 1.5 6.9-2.8 10.4-.3.3-.3.8-.2 1.1.1.2.3.3.5.3h.1c1.3-.6 2.4-1.6 3.4-3.3 2.5-3.4-.3-11.1-1.2-13.6-.7-1.8-1.9-2.9-3.8-3.7l-4.8-2.3c-.5-.4-.8-1-.7-1.5.1-.6.5-.7 1.1-1 .5-.2 1.2-.4 2.1-.4.6 0 1.2 0 1.8.1 7.8.5 14.9 2.6 21.6 7.2.2.4.3.6.2.9-.2.3-.7.5-1.6.6-.6 0-1-.2-1.4-.5l-.6-1c-.1-.2-.1-.2-.2-.2s-.2.1-.2.3l-.2 1.3c0 .2 0 .3.2.3 1.1.4 2.1.5 3.1.5 1.8 0 3.4-.6 4.9-1.8.2-.3.3-.6.2-.7-.1-.2-.4-.2-.8-.3-.2 0-.3 0-.5 0-1.6 0-3-.4-4.4-1.4-7.2-4.1-14.9-6.1-23-6-.7 0-1.4 0-2 .4-.7.4-1.2 1-1.3 1.7s.1 1.4.6 2c.4.6 1.3.9 2.2 1.3"/><path d="m33.3 70.5c.3 1.1.9 1.6 1.6 1.7h3.1c.3-.1.5-.4.5-.6s-.1-.4-.4-.5l-2.4-.1c-.9 0-1.4-1.3-1.7-2.6-.8-2.8.6-4.8 1.9-6.5.1-.1.2-.3.2-.3h-.2-.1c-.1-.1-.2-.2-.2-.4s.1-.4.3-.6l.4-.4v-.1l-.2-.1c-1 .5-2.3 1.6-3.7 3.4-.3.5-.6 1-.2 2-.1 0 1.1 5.1 1.1 5.1z"/><path d="m39.6 68.1h-.1c-.6.2-1.1.3-1.6.3-.8 0-1.5-.2-1.9-.7l-.2-.1-.2.1c0 .1-.1.3 0 .5.6.7 1.2 1 1.9 1 .6 0 1.2-.3 1.9-.8.2-.2.2-.3.2-.3"/><path d="m35.2 65.2c-.2.4-.2.7-.1 1 .1.2.3.3.6.4.2 0 .4.1.6.1 1.3 0 2.7-.7 4.5-2.1l.1-.2-.1.1c-1.6.9-2.9 1.3-3.9 1.4-.3-.1-.5-.2-.5-.4-.1-.3 0-.7.4-1.2.6-.6 1.1-1.1 1.5-1.6.1-.1.2-.3.1-.5 0-.2-.1-.3-.1-.6 0-.1 0-.3 0-.4 0-.3.1-.5.3-.8.2-.2.5-.4.8-.6s.3-.4.2-.6c-.1-.3-.4-.5-.8-.5-.9.4-1.2.8-1.1 1.6.2.9.1 1.3-.4 2.1-.9.6-1.7 1.7-2.1 2.8"/><path d="m38.9 60.9c-.1.2-.1.4 0 .5.4.5.6 1 .3 1.9l.1-.1c.4-.3.6-.6.7-1.1.1-.4-.1-.8-.4-1.3-.1-.2-.3-.3-.4-.3-.2.2-.3.3-.3.4"/><path d="m62.8 137.2c1.2.7 1.8 2.6 2.5 4.5.8 2.3 1.7 4.7 3.5 5.2.3.1.5.1.7.1h.1c0-.1-.1-.1-.2-.2-1.1-.4-1.7-2.2-2.4-4.2-.8-2.4-1.7-5.2-3.6-5.8-.2 0-.4-.1-.6-.1-.3 0-.4.1-.4.1s.1.2.4.4"/><path d="m66 136.8c-.3 0-.4 0-.5.1 0 0 .1.1.2.2 1.2.7 2 2.7 2.8 4.8 1 2.5 1.9 5.2 3.8 5.1.2 0 .3-.1.4-.1h-.1c-1.1-.5-1.8-2.4-2.5-4.4-.9-2.5-2-5.4-4.1-5.7"/><path d="m72 142.4c.8 2.1 1.7 4.6 3.7 4.7h.2c-1.4-1.1-1.9-2.6-2.4-4-.5-1.5-.9-2.9-2.5-3.3h-.2c-.1 0-.2 0-.2 0l.1.2c.5.1.9 1.1 1.3 2.4"/><path d="m66.1 135.4h.3.3c.6-.1.6-.5.6-.6 0-.2-.2-.5-.4-.5-.5-.1-.9-.1-1.3 0h-.1c-.8 0-1.6 0-2.7-.3-.1 0-.2-.1-.3-.1-.1-.1-.3-.1-.5-.1s-.4.1-.5.2c-.1.2-.1.4.1.8.5.6 1.6.9 3.3.9.4-.2.8-.2 1.2-.3"/><path d="m83.3 135.2c-.2-.4-.7-1.4-2.1-1.4-1.7.1-2.3 1-2.5 2.2 0 .2 0 .4.1.4.1.1.3.2.5.2s.5-.2.5-.4c.2-1.1.8-1.2 1.1-1.2.5 0 .9.3 1.1.7.1.4 0 .8-.4 1.1-.7.5-.9 1-.5 1.8.7 1.3.9 2.6 0 4.2-.3 1-.1 1.5.8 2 .2.3.2.6.1.8-.2.4-.6.6-1 .6-.5 0-.9-.3-1-.9-.1-.4-.3-.6-.7-.6-.2 0-.4.1-.5.3-.1.1-.1.2-.1.5.7 1.4 1.5 2 2.6 2 .5 0 1-.1 1.5-.4.4-.4.7-.9.8-1.4 0-.5-.1-1-.5-1.4-.5-.3-.6-.9-.3-2 .6-1.1.5-2.3-.1-3.5-.3-.8-.2-1.4.3-1.9.4-.1.6-.9.3-1.7"/><path d="m61.1 144.8c-.1-.3-.4-.5-.7-.5-.1 0-.2 0-.2.1l-.6 1c-.2.3-.5.5-.8.5s-.6-.1-.8-.3-.2-.5-.2-.9c.1-.4.4-.8.7-1 .2-.4.2-.9 0-1.4-.5-1-.6-2.1-.3-3.3l.4-1.5c.1-.5 0-1-.5-1.3s-.6-.8-.5-1.2.5-.7.9-.7c.1 0 .3 0 .4.1.4.2.5.4.6.7 0 .1.1.2.1.3.2.3.5.4.7.4.1 0 .3-.1.4-.2.1-.2.1-.5 0-.8-.3-1.2-1.5-1.8-2.5-1.8-.6 0-1.1.2-1.5.6-.3.4-.5.9-.5 1.5 0 .7.2.9.5 1.3.4.7.4 1.4 0 2.1-.4 1.4-.4 2.2 0 2.9.3 1 .3 1.8 0 2.4l-.2.3c-.3.5-.4.7-.3 1.4.2 1 1 1.6 2.1 1.6.5 0 1-.2 1.5-.5.8-.4 1.2-1 1.3-1.8"/><path d="m78.4 147.6c-.2 0-.5.1-.7.3-.4.2-.8.3-1.3.4h-.3c-4.4.1-8.7 0-13.2-.3-.4 0-.7-.1-1.3-.4-.4-.1-.7-.2-.9-.2s-.4.1-.4.2c-.1.2-.1.4 0 .7.9 1.3 8.2 1.1 11 1.1l2.8-.1h2.4c1-.1 1.8-.3 2.5-.7.2-.2.4-.4.3-.6-.3-.1-.5-.4-.9-.4"/><path d="m62.6 56.2c4.2 1 7.2 2.3 8 5.9.1 1.4.4 2.3.9 2.7l.1.1v-.3c.1-3.5-1-5.9-3.3-7-1.2-.8-2.9-1.5-5.1-2.1-1-.1-1.6-.9-1.5-1.9.1-1.1.9-2.2 2.1-2.2h.2c.4 0 .6-.2.6-.3 0 0-.1-.1-.2-.2h-.1c-.1 0-.3 0-.4 0-1.4 0-2.8.3-2.9 2.6-.4 1.6.2 2.5 1.6 2.7"/><path d="m63.2 52.6c.7 0 1 .3 1 .6s-.2.6-1.1.7h-.1s.1.1.2.1c.3.1.6.1.8.1.7 0 1.2-.2 1.4-.5.1-.2.1-.4 0-.6-.2-.3-.6-.6-1.3-.6-.3.1-.6.1-.9.2"/><path d="m69 56.7c.1.1.4.2.7.2.4 0 .6-.1.6-.2l-.1-.1c-.8-1.1-3.5-1.8-4.6-1.3-.4.3 2.9.2 3.4 1.4"/><path d="m69.7 63.4c-.7-1.3-1.7-2.4-2.9-3-.3-.2-.4.1-.3.2 1.7 1.6 3.1 3 3.8 6 .1.4.1.8-.3 1.3l-.1.1c-.2.2-.4.4-.5.6s-.2.4-.1.5c.1.2.3.4.6.4h.1l2-1.5c.1-.1.2-.3.2-.6 0-.2-.1-.4-.1-.4-.9-.7-1.6-1.9-2.4-3.6"/><path d="m64 64.9c-.1.1-.1.2-.1.3.3 1.6.6 3.6.5 5.8 0 .1 0 .3.1.4s.4.2.8.2c.8-.2 1.5-.5 2.1-.9s.9-.9.8-1.5c-.2-2.4-1.1-4.5-2.6-6.4-.1-.1-.2-.1-.3-.1h-.1c0 .1 0 .2.1.4 1.7 3.2 2.1 5.1 1.4 6.4-.5.4-.8.6-1.1.6s-.6-.1-.7-.8c-.2-2.3-.6-3.4-.9-4.2.1-.1 0-.2 0-.2z"/><path d="m66.3 68.3c0-.2 0-.4 0-.6-.4-1.9-1.6-4.6-1.7-4.4v-.1l.1.2c.6 1.5.9 2.9 1.3 5-.1.2.2.5.3-.1"/><path d="m68.9 67c.3.5.6-.2.5-.4-.6-2-2.5-5-2.9-4.8 1 1.6 1.7 3.3 2.4 5.2"/><path d="m60 71 .3-2.4c0-.2 0-.3-.1-.4-.1 0-.2.1-.3.3-.4.8-1.3 3.3-.7 4.3.1.2.3.3.5.3h.7c.9 0 1.6-.3 2.1-.8 1-1.1.9-3.4.7-5.4v-.4c-.1-.4-.2-.6-.3-.6l-.3.1c-.1.1-.2.4-.1.6.1 1.5 0 2.8-.5 4.3-.3.6-.8.9-1.2.9s-.7-.2-.8-.8"/><path d="m61.5 69.9c.1-.8.1-1.7 0-2.6 0-.2-.1-.2-.1-.2-.1 0-.2.1-.2.3 0 .9-.1 1.5-.3 2.4v.3l.2.1c.2.1.4 0 .4-.3"/><path d="m60.3 62.8c.1.1.2.1.3.1l.1-.1c.1-.2 0-.4-.2-.5-.7-.3-2.3-1-3-1.2-.1 0-.1 0-.2.1 0 .1 0 .2.1.3.9.2 2.2 1 2.9 1.3"/><path d="m54.8 73c.3.3.8.4 1.3.4.3 0 1.6-.1 2-1.4l.7-2.8c0-.1 0-.2-.1-.3l-.2-.1c-.3 0-.6.2-.7.8-.1.9-.3 1.5-.9 2.5-.1.2-.3.3-.5.3s-.3-.1-.4-.2-.1-.3.1-.5c.3-.4.5-.8.6-1.3.1-.1 0-.2 0-.3l-.3-.1c-.1 0-.2.1-.3.2-.3.7-.8 1.3-1.3 1.9-.3.4-.3.7 0 .9"/><path d="m47.3 70.2c-.2-.1-.4-.2-.6-.2s-.4.1-.5.2c0 .1.1.2.1.3 2.8 2.1 3.6 4.6 2.2 7.6-.1.2-.1.3 0 .4h.1c.1 0 .3-.1.5-.2 1.8-3 1.3-5.6-1.8-8.1"/><path d="m22.2 82.9c.1.2.1.4.3.5h.2c.2 0 .4-.1.5-.3s.1-.4 0-.6c-.6-1-.2-1.4.4-1.9.1-.1.3-.3.4-.5s.2-.3.2-.6c0-.2-.2-.4-.5-.4-.2 0-.3.1-.5.2-.3.3-.6.6-1 .8l-.2.2-.2.1-.2.1c-.1.1-.4.2-.1.8.2.4.4.8.7 1.6"/><path d="m24.3 83.9c.2.3.4.4.6.4.1 0 .2-.1.3-.1.2-.2.2-.5.1-.9-.6-1.3-.1-1.8.8-2.4l.1-.1c.1-.2.1-.4.1-.5-.1-.2-.2-.2-.4-.2-.1 0-.2 0-.4.1-1.6.7-1.8 1.7-1.2 3.7"/><path d="m26.1 82.7.3 1.8c.1.3.3.4.6.4.2 0 .3-.1.4-.2s.1-.4.1-.6c-.4-.9-.3-1.5.1-2.1l.7-.6c.1-.2.2-.4.1-.6s-.3-.3-.5-.3l-.3.1-.8.7c-.6.4-.8.8-.7 1.4"/><path d="m45 71.3c-.1-.1-.3-.1-.4-.1-.3 0-.5.2-.6.4-.2.3-.1.7.2 1.1 1.2.9 2 1.8 2.2 2.8.3 1 0 2-.8 3l-5.6 5.1c-3.7 3.6-4.2 6.7-1.6 9.8l.2.1c0-.1 0-.2-.1-.4-2-4.1.7-6.4 4.1-9.4h.1c1.6-1.4 3.4-2.9 4.9-4.9 1.4-2.7.5-5.1-2.6-7.5"/><path d="m47.1 92.3c-.9 0-1.8.1-2.5.2l-.2.1c-.6.1-1.1.1-1.6.1-1.5 0-2.6-.5-3.2-3.3 0-.4-.1-.5-.2-.6-.1 0-.3.2-.3.6 0 3.6 2.5 3.7 5.9 3.8 1 0 2.1.1 3.3.2 1.7.4 3.1 1.7 3.5 3.2.3 1.4-.3 2.8-1.7 4-.3.3-.4.6-.4.8.1.2.5.4.8.4.2 0 .4-.1.5-.1 1.6-1.2 2.4-3.2 2-5.2-.5-2.1-2.2-3.7-4.7-4.2-.5 0-.8 0-1.2 0"/><path d="m40.9 78.7c-5.4 2.7-7.1 7.9-6.4 11.8.7 3.6 3.4 6.1 7 6.5h6.2c.5 0 .8.2.9.5.1.2.2.7-.2 1.3-.2.2-.2.4-.1.5l.2.1c.2 0 .3-.1.5-.2.8-.7 1-1.6.7-2.4-.3-.7-1-1.2-1.9-1.2-1.1 0-2 .1-2.8.1-2.9 0-4.3-.1-5.1-.6-2.5-1.3-4-3.4-4.1-6.1-.1-3.5 2.1-7.1 5.9-9.3 1.7-1.1 3.8-2.5 4.1-3.5.1-.4.2-.7.1-.8l-.1-.1c-.1 0-.2.1-.4.2-.8 1-2.4 2-4.5 3.2"/><path d="m30.2 91c-.4 1.4-.2 2.4.7 3.2 1 .9 2.1 1.6 3.3 2.4 1.4.9 1.7 2.4 1.9 3.7v.1c.1.3.1.7.2 1.1.3 1.2 1.1 2 2.5 2.3h.2c.3 0 .5-.2.5-.3.1-.2-.2-.3-.3-.4-1.3-.5-1.9-1-2-1.9-.4-1.9-1-4.2-1.9-4.9-1.2-.7-2.4-1.6-3.3-2.4-.4-.2-.6-.4-.7-.8-.3-1 .1-2.7 1.4-5.2.4-2.7-.6-4.6-3.1-6-.1 0-.2-.1-.3-.1-.2 0-.2.1-.2.1 0 .1 0 .3.2.5 2.1 1.7 3.6 3.4.9 8.6"/><path d="m31.2 97.9c1.5.9 2.2 2.2 2.3 4 .3 4 2.3 6.1 6 6 .8-.1 1.3-.2 1.6-.5.1-.1.2-.1.2-.2s-.1-.4-.4-.7c-.2-.3-.5-.4-.9-.4-.1 0-.2 0-.5.1h-.1c-.4.1-.6.2-1 .2-.2 0-.5 0-.8-.1-1.9-.5-3-1.8-3.2-4 .1-2.3-.6-3.8-1.8-4.6-1.8-1-3-2.2-3.7-3.3-1.1-2.2-.5-3.5.2-4.8.1-.3.3-.6.4-.9.3-.7.4-1.3.4-2 0-2-.5-3.1-1.6-3.4h-.2c-.1 0-.3 0-.4.2 0 .1 0 .4.4.8 1.3 1.1 1.3 2.9-.1 6-.9 1.9-1 3.4-.3 4.5.8.9 1.9 2 3.5 3.1"/><path d="m43.1 107.4c.1 0 .2 0 .3-.1.1 0 .1-.1.1-.2-.4-.2-.8-.3-1.1-.3-.1 0-.1 0-.1.1.2.3.4.5.8.5"/><path d="m45.3 106.9c0-.1 0-.2-.1-.3-.4-.3-.8-.4-1.3-.4h-.2c-.1.1-.2.1-.2.1s0 .1.1.2c.3.3.8.4 1.3.4h.2z"/><path d="m45.6 105.4-.3.1.1.2c.3.5.7.8 1.3.7.2 0 .4 0 .6-.1l.1-.1s0-.1-.1-.2c-.5-.4-1-.6-1.7-.6"/><path d="m46.4 101.8c.3 0 .6-.2.7-.3.2-.2.4-.4.6-.5.2-.2.2-.3 0-.4-.5-.5-.6-1.1-.3-1.7.1-.2.1-.3 0-.4 0 0 0-.1-.2-.1h-.1c-.2 0-.4.2-.6.3-.9.7-1.2 1.4-1 2.4.2.5.4.8.9.7z"/><path d="m41.9 106c.1 0 .2 0 .2-.1v-.1c-.5-.4-.7-1-.7-1.9-.1-.8-.2-1.6-.8-2.4-.1 0-.1.1-.2.3-.1.4-.1.7 0 .9.3.3.4.8.3 1.4-.1 1.1.3 1.7 1.2 1.9"/><path d="m43.4 105.5h.2c.3-.2.3-.2.3-.2s0-.1-.2-.2c-.8-.5-1.1-1.2-.9-2.1.2-.5.1-1.1-.3-1.6-.4-.6-.4-1.1-.3-1.5l-.1-.1c-.1 0-.2 0-.4.1-.3.2-.5.4-.5.6-.1.4 0 1 .4 1.7.3.4.5.9.3 1.3 0 .7.2 1.3.6 1.8.4.1.6.2.9.2"/><path d="m45.6 98.6c.2-.2.2-.3.2-.3l-.1-.1c-.2 0-.4-.1-.6-.1-.8 0-1.4.3-1.7.8-.2.4-.2 1 .1 1.6.4.5.4 1 .2 1.5-.2.4-.2.9 0 1.4.4.7.9 1 1.5 1.1.3 0 .4-.1.4-.1l-.1-.1c-.2-.2-.5-.6 0-1.2.1-.1.2-.2.2-.3s-.1-.3-.3-.5c-1.2-1.3-1.1-2.5.2-3.7"/><path d="m51.7 105.5c.4-.5.9-.8 1.6-1.1s1.2-.8 1.8-1.3c.7-1.5.4-2.8-.8-3.8-.1-.1-.2-.1-.3-.1-.2 0-.3.1-.4.2-.1.2-.2.5-.1.7l.6 1c.3.7.1 1.3-.6 1.8-1.4.7-2.3 1.4-2.9 2-.2.3-.5.5-.8.5-.2 0-.4-.1-.6-.2l-1-.9c-.2-.2-.2-.5-.2-.7.1-.2.2-.2.5-.2h.3l.7.3.2.1s.1 0 .2-.2c0-.7-.3-1.2-1-1.5-.2-.1-.4-.1-.6-.1-.7 0-1.4.5-2.1 1.4-.5.8.6 1.6 1.8 2.5.3.2.7.5 1 .8.2.1.5.2.7.2s.4-.1.5-.2c.7-.4 1.2-.7 1.5-1.2"/><path d="m54.8 106.9h.3c.7.1 1.6.4 2.7 1 .2.1.4 0 .5-.1 0-.1-.1-.2-.2-.3-1.6-.9-2.9-1.3-4.1-1.3-.4 0-.8.1-1.2.2-.4.2-.7.5-.7.9 0 .2.2.4.3.5l2.6.7 1.8.8h.2c.2 0 .3-.1.4-.2l-.1-.3c-.6-.4-1.4-.8-2.3-1-.6-.2-.5-.4-.5-.4-.1-.3 0-.5.3-.5"/><path d="m56.4 103.4c-.4.3-.7.6-.9.9-.2.4-.2.7 0 1 .5.9 2.3 1.4 3.2 1.6h.1c.2 0 .4-.1.5-.2l-.1-.2c-1.1-.4-1.9-.9-2.3-1.5-.2-.4-.2-.7-.1-.9s.4-.4.9-.4c.4 0 .7.1 1.2.2l.2-.1c.1-.1 0-.2-.1-.3-.3-.3-.6-.4-.9-.5-.6-.2-1.2-.1-1.7.4"/><path d="m57.9 104.4c-.2 0-.3.1-.3.2-.1.1 0 .3.1.4.7.4 1.5.8 2.5 1.1h.1c.1 0 .2-.1.2-.2s0-.3-.2-.4c-.7-.5-1.4-.8-2.4-1.1"/><path d="m58.4 111c.5 0 .8 0 1.1-.1 1.1-.5 2.2-.7 3.6-.8.3 0 .4-.2.5-.3 0-.1-.1-.4-.4-.4-.2 0-.3 0-.5 0-.7 0-1.8.2-3.3.7h-.2c-.2 0-.3-.1-.4-.2-.1-.2 0-.5.2-.7.8-.9 2-1.7 3.6-2.2.3-.1.3-.3.3-.5 0-.1-.1-.3-.5-.3-1.9.4-3.4 1.3-4.6 2.9-.3.5-.4 1-.2 1.4.1.3.4.5.8.5"/><path d="m60.9 108.3c-.1.2-.2.3-.1.3.1.1.3.2.7.2.7 0 1.4-.3 1.6-.5l.1-.2v-.1c0-.1-.2-.2-.8-.2-.7.2-1.4.4-1.5.5"/><path d="m57.2 100.9c-.2-.2-.2-.4-.2-.6.1-.2.4-.3.6-.3h.1l-.1-.1c-.5-.6-1.1-.9-1.8-1-.2 0-.2.1-.2.2-.1 1.4.7 2.4 2.4 3.1h.2.1v-.1z"/><path d="m55.1 94.3-.1.1c-.1 1.3.3 2.6 1.1 3.4.4.4 1 .7 1.3.7.1 0 .2 0 .3-.1s.1-.4.1-.8c-.1-.3-.3-.5-.7-.7-.1.2-.2.2-.3.2-.4 0-.8-.6-.8-1.4s-.4-1.1-.9-1.4"/><path d="m59.2 99.2c-.2-.3-.4-.4-.6-.4h-.1v.1.1c.4 2.4 1.1 5 3.1 6.4.2.1.4.1.5.1.6 0 .7-.6.8-.8.1-.9 0-1.7-.4-2.3-.1-.2-.3-.2-.4-.2s-.2 0-.2.2v1.2c0 .2 0 .3-.1.4l-.2.1c-.2 0-.3-.1-.5-.2-1-.9-1.5-2.2-1.6-4 0-.2-.1-.4-.3-.7"/><path d="m65.6 111c.3.1.5.2.8.2s.5-.1.7-.3c.5-.6.5-1.8.3-2.8-.3-.5-.4-.6-.5-.7h-.1s-.1.1-.1.3l-.1 1.6c0 .4-.1.7-.4.7-.1 0-.3-.1-.5-.2-.9-1.5-1.1-3.3-1.2-5.1-.1-.7-.4-1-.6-1-.1 0-.2.2-.2.5-.1 2.5.1 5.3 1.9 6.8z"/><path d="m65.7 108.1c.1-.1.2-.3.2-.7l-.2-1.3c-.1-.2-.3-.3-.4-.3-.2 0-.2.2-.2.2-.2.8.1 1.5.3 1.8.1.3.2.3.3.3"/><path d="m61.1 102.5c.1 0 .2-.3.2-.4 0-.2-.1-.7-.3-.9-.1-.1-.2-.2-.2-.2l-.2.2c-.1.4 0 .8.2 1 .1.2.2.3.3.3"/><path d="m70.9 57.7h-.2c-.2.1-.2.2-.2.2s.1.3.6.3c.8 0 1.7 0 2.3 1.3.2.4.1.6 0 .7-.1.2-.2.3-.6.3v.2c.2.1.4.2.6.2.3 0 .5-.1.7-.3s.2-.6.1-1c-.9-1.6-1.9-1.9-3.3-1.9"/><path d="m72.3 59.8c.1 0 .2-.2.2-.3 0-.3-.2-.6-.7-.7-.1.1-.2.1-.2.1s0 .2.3.6c.1.2.3.3.4.3"/><path d="m73 62c-.2 0-.3.1-.3.3 0 .1.2.3.2.3 1.2 0 1.7.8 1.7 2.4-.2.7-.5.7-.8.7-.2 0-.5-.1-.7-.2s-.4.1-.4.1v.2c0 .2.9.7 1.7.7.2 0 .4-.1.5-.1.5-.4.6-1.1.4-2.1-.2-1.5-1-2.3-2.3-2.3"/><path d="m73.6 64.6s.2 0 .3-.2c0-.5-.1-.7-.2-.8-.1 0-.1-.1-.5-.1-.2.1-.4.2-.4.3-.1.1 0 .3.1.4.4.4.6.4.7.4"/><path d="m73.8 72.4h.2c1.2-.8 1.9-1.8 2.1-2.9.1-.7 0-1.2-.3-1.5-.3-.4-.9-.6-1.8-.7h-.2c-.4 0-.6.2-.7.4 0 .1 0 .3.1.4l1.1.2c.3.1.6.3.7.5.1.3 0 1-.3 1.6-.8 1-1.2 1.1-1.1 1.7 0 .3.2.3.2.3"/><path d="m73.3 69.9h.4c.5 0 .5-.2.5-.3 0-.6-.4-.6-.5-.6s-.3 0-.5.1-.3.2-.3.4.2.3.4.4"/><path d="m76.6 55.3-.2.1c.5.5 1.3.8 2.5.9.4 0 .5-.1.6-.2 0-.1 0-.2 0-.3-2.7-3.9-5.6-4.4-8.2-4.4-.4 0-.8 0-1.3.1-.2 0-.3.1-.3.1 0 .2.5.6 1.1.6.5 0 .9-.1 1.4-.1 2.3 0 4 .6 5.1 2 .3.3.4.6.2.8-.1.3-.4.4-.9.4"/><path d="m74.6 53.6c-.3 0-.6 0-.8.1-.1 0-.2.1-.2.1s.1.2.3.3c.4.1.8.2 1.1.2.2 0 .4 0 .6-.1s.2-.2.2-.2 0-.1-.3-.3c-.2-.1-.5-.1-.9-.1"/><path d="m81.9 54.4c-.2 0-.5-.1-.8-.3-1-1-1.8-1.6-2.7-1.8-.1 0-.2 0-.3 0l.1.1c1.5 1.8 3.1 2.9 5.1 3.5.2 0 .4.1.5.1.2 0 .3 0 .3-.1.1-.1.1-.2.1-.3-.2-1.2-.8-2-1.9-2.3.2.4.2.8.1 1-.2 0-.3.1-.5.1"/><path d="m85.5 133.1c.2 0 .3 0 .5-.1l.2-.1c-.3-.1-.4-.3-.5-.6-.1-.4.1-.9.6-1.4 2.9-1.5 3.8-2.9 3.4-5.2 0-.1 0-.2-.1-.3s-.3-.2-.6-.2-.7.1-.8.5c-.3 1.5-.8 2.6-1.6 3.2-2 1.4-4.8 2.2-8.2 2.5-1.3 0-2.2.5-2.7 1.6l-1 2.6c-.2.7-.5 1-1.2 1l-2.5-.2c-.3 0-.5-.1-.7-.3-.2-.1-.2-.4-.2-.6 0-2.3.3-4.3.9-6.2.2-.6.1-1.4-.2-1.9-.1-.2-.2-.2-.2-.2s-.2 0-.3.4c-.9 1.7-1.4 4.5-1.4 8.6 0 .8.2 1.2.9 1.4l5.2.4c.8 0 1.1-.3 1.1-.9.3-2.7 1.1-4 2.6-4.1 1.2-.2 2.6-.4 4.2-.7h.3c.6 0 .9.2 1 .4.5.2.9.4 1.3.4"/><path d="m82.7 124.1h-.2c-.7.2-.9.6-.9 1 .1.3.3.7.6.7.2 0 .3-.1.4-.2.6-.7 1.2-1 1.7-1.2-.6-.2-1.1-.3-1.6-.3"/><path d="m81.5 129.1c.1 0 .3 0 .4-.1.5-.2 1-.4 1.5-.9-.7 0-1.3-.1-2.1-.4h-.2c-.4 0-.6.3-.6.6 0 .2.1.4.2.5.2.2.5.3.8.3"/><path d="m79.4 125.2c.4-.8.9-1.3 1.2-1.6-.2 0-.3 0-.5 0-.6 0-1 .1-1.5.3-.5.3-.7.7-.6 1.1.1.3.4.6.7.6.4-.1.6-.2.7-.4"/><path d="m73 133.5c.3 0 .5-.3.5-.4.1-.9.4-1.5.7-1.9-.7.2-1.2.4-1.6.7-.5.6-.4.9-.3 1.2s.4.5.7.4"/><path d="m95.4 131.5c1-.6 1.7-.7 2.4-.7-.7-.6-1.5-1-2.3-1.1-2.1 0-1.6 2.5-.1 1.8"/><path d="m98.2 128.2c.1-.9.2-1.5.5-2-.7.1-1.1.4-1.5.8-.3.4-.4.8-.3 1.1s.5.5.8.5c.2.1.4 0 .5-.4"/><path d="m102 127.2c-.2 0-.3 0-.5 0-.5 0-1 .1-1.4.3-.5.3-.7.7-.6 1.1.1.3.4.6.7.6.2 0 .4-.1.5-.3.5-.9.9-1.4 1.3-1.7"/><path d="m99.6 131.6h.4c.6-.2 1.1-.5 1.5-.9-.7 0-1.3-.1-2.1-.4h-.2c-.4 0-.6.3-.6.6 0 .2.1.4.2.5.2.1.5.2.8.2"/><path d="m76.5 128.6c.1.3.4.5.8.5.2 0 .5-.1.8-.5.3-.6.5-1.1.5-1.7-.5.4-1 .7-1.7 1-.4.3-.5.5-.4.7"/><path d="m66.9 123.8c-.8.1-1.5.6-2.1 1.2.7 0 1.5.1 2.4.7 1.4.5 1.7-2-.3-1.9"/><path d="m61.8 122.1c.3 0 .5-.2.6-.5.1-.4-.2-.8-.6-1.1-.4-.2-.9-.2-1.3-.2-.2 0-.3 0-.5 0 .5.4 1 .9 1.3 1.6.1.1.3.2.5.2"/><path d="m58.8 121.9c0-.4-.2-.9-1.1-1-.6 0-1.1.2-1.7.5.5.1 1.1.4 1.8.9.1.1.3.1.4.1.4.1.6-.2.6-.5"/><path d="m59.6 124.5c-.9.6-1.6.7-2.3.7.7.6 1.4 1 2.2 1.1 2 0 1.5-2.4.1-1.8"/><path d="m62.3 124.5c.2.1.4.1.6.1.5 0 .8-.4.8-.7s-.2-.6-.7-.6c-.3.1-.5.1-.8.1-.5 0-.9-.1-1.2-.2.4.7.8 1.1 1.3 1.3"/><path d="m48.7 121.5c.3.1.5.2.7.2.4 0 .7-.3.7-.7 0-.2 0-.6-.7-.7-.8 0-1.3-.2-1.8-.3.3.7.7 1.2 1.1 1.5"/><path d="m43.7 122c.2.1.4.2.7.2.5 0 .7-.4.7-.7s-.1-.6-.6-.7c-.1 0-.3 0-.4 0-.5 0-1-.1-1.5-.2.3.6.6 1.1 1.1 1.4"/><path d="m41.6 117.5c-.1 0-.2 0-.4 0-.4 0-.9.1-1.4.3.5.2.9.6 1.1.8.1.1.3.2.4.3.1 0 .2.1.4.1.4 0 .7-.2.7-.6.1-.4-.3-.7-.8-.9"/><path d="m32.7 111.9c.1.5.5.7.8.7.2 0 .4-.1.5-.2s.2-.4.1-1c-.2-.5-.6-.9-1.2-1.3.1.5 0 1-.1 1.4-.2.2-.1.3-.1.4"/><path d="m31.1 110.1c-.2-.5-.6-.9-1.2-1.3.1.5 0 1-.1 1.4 0 .1-.1.4 0 .5.1.5.5.7.8.7.2 0 .3-.1.4-.2.1-.2.2-.5.1-1.1"/><path d="m30.7 112.6c-.1 0-.1 0-.3-.1-.4-.1-1-.2-1.6-.6.2.7.5 1.3 1.1 1.8.2.1.4.2.6.2.4 0 .6-.3.7-.6 0-.1 0-.5-.5-.7"/><path d="m33.4 116c.2.2.4.3.7.3s.6-.2.7-.6c.1-.3-.1-.6-.4-.8 0 0-.1 0-.2-.1-.4-.1-1-.3-1.6-.7 0 .8.3 1.4.8 1.9"/><path d="m69.9 121.4c.1-.1.1-.3.1-.5-.1-.5-.1-1.1-.1-1.7 0-.1 0-.4-.7-.5-.1 0-.2 0-.4 0-1.4 0-2.1.9-2.4 1.8-.3 1.1.1 2.2 1 2.9.2.1.3.1.4.1h.1s0-.2-.1-.6-.1-.6.1-.9c.3-.3.8-.5 1.6-.5z"/><path d="m73.1 128c.3 0 .4-.1.5-.1v-.1c-.5-.4-.8-.8-.8-1.2s.3-.8.8-1.1c.3-.3.3-.7.1-.9-.5-.5-.8-.8-1.1-1.3-.1-.2-.3-.3-.4-.3-.2 0-.4.1-.7.3-1.1.8-1.2 2-.9 2.9s1.2 1.8 2.5 1.8"/><path d="m90.7 127.5c.3.1.6.2.9.2.9 0 1.7-.7 2.1-1.7.3-.9.1-2.2-1.2-3.1-.2-.2-.4-.2-.5-.2s-.3.1-.4.2c-.4.6-.8 1.1-1.1 1.4-.1.2-.1.4-.1.5s.2.3.4.4c.5.3.8.7.9 1.1-.2.3-.5.8-1 1.2"/><path d="m86.3 124.1c.4.3.8.4 1.1.4.2 0 .5-.1.8-.2 1.4-.6 2.3-1.5 2.7-2.4.1-.5 0-1.1-.4-1.6s-1.1-.9-1.7-.9c-.1 0-.2 0-.3 0-1.3 0-2.1-.8-2.7-1.4-.4-.4-.7-.8-1.2-.9-.1 0-.3-.1-.4-.1s-.2 0-.2 0v.2c.2.6.6 1.2 1.2 1.7.6.4 1.3.8 2.2 1.2.5.3.7.6.6.9 0 .3-.3.6-.8.9-.1.1-.3.1-.4.1-.4 0-.7-.3-1.1-.9-.7-1.1-1.5-2.1-2.5-3l-.2-.1c-.1 0-.2 0-.3.1-.3.2-.6.4-.8.7-.2.2-.4.4-.6.4-.1 0-.2-.1-.5-.2-.1 0-.2 0-.3.1-1.2.7-2.4 1.6-3.6 2.9-.2.2-.5.3-.6.3l-.2-.1-.1-.1v-.1c-.1-.2.1-.6.4-.8 1.2-.9 2.2-1.6 2.9-2.5.1-.1.1-.2.1-.3 0-.2-.1-.3-.3-.4-.3-.2-.7-.3-1.2-.3-.4 0-.8.1-1.3.2-.4.1-.8.1-1.2.1-.6 0-1.3-.1-2.1-.3-.2-.1-.4-.1-.6-.1-.5 0-.8.2-1 .6-.1.2-.2.5-.2.7-.1.8-.1 1.3 0 1.9.1.2.1.4.2.6.1.1.3.2.4.2.2 0 .4-.1.7-.2.6-.4.9-.9 1-1.8.1-.2.3-.4.6-.6.9-.3 1.6-.4 2.3-.5.3 0 .5 0 .7.1.3.1.5.2.5.4.1.2-.2.4-.4.6-.7.5-1.7 1-3.1 1.5-.7.3-1 .9-.9 1.9.1.5.5 1 1.5 1.7.2.1.5.2.8.2.6 0 1.2-.4 1.5-1 .1-.3.4-.6.9-.9.8-.5 1.5-1.2 2.1-1.8.2-.1.3-.2.4-.2.3 0 .4.3.5.7l.1.3c.2.3.4.5.6.5.3 0 .6-.2.9-.7.2-.2.3-.2.5-.2h.2.1c.1.2.1.4.1.7 0 .2 0 .3.1.4.1-.1.2-.1.4-.1s.5.1.8.3z"/><path d="m72.7 112.5c-.2 0-.3.1-.4.2s-.1.2 0 .4l2.5 3.3c.3.4.8.6 1.2.6.2 0 .4-.1.5-.3.2-.2.2-.6.1-1-.1-.3-.2-.4-.3-.4l-.2.2c-.2.2-.4.3-.5.3-.2 0-.4-.1-.6-.3l-2.1-2.9c.1-.1 0-.1-.2-.1"/><path d="m80.3 118c.2.1.4.1.5.1.2 0 .6-.1.7-.8.2-.8.1-1.8-.4-2.9l-2-4.4c-.2-.3-.2-.3-.2-.3s-.1.1-.2.4c-.2.7 0 1.4.5 2.2.3.5.6 1 .9 1.6l.4.7c.2.6.2 1.1 0 1.4-.1.2-.4.3-.6.3s-.5-.1-.7-.4l-1.9-2.8c-.5-.9-1.1-1.5-1.7-1.7-.2-.1-.4-.1-.5-.1h-.1c0 .1 0 .2.1.3.6.7 1 1.4 1.5 2.1v.1c1 1.8 1.9 3.3 3.7 4.2"/><path d="m77.6 111.9v.3l1.5 2.6.1.1c.1 0 .3-.1.3-.2.1-.1 0-.3-.1-.4l-1.5-2.3-.1-.1z"/><path d="m75.5 114.8h.1c.1 0 .2-.1.3-.2s0-.3-.1-.4l-1.2-1.9h-.1l-.2.1v.3z"/><path d="m83.7 116c.2.1.4.1.6.1.1 0 .2 0 .3-.1s.1-.2.1-.4c-.2-1.9-.6-3.6-1.2-5-.2-.5-.4-1-.4-1.5 0-.2 0-.3-.1-.4l-.3.2c-.3.5-.3 1.1-.1 1.8l1 2.6c.1.4.2.7 0 .9l-.1.1h-.1-.1c-.2 0-.4-.1-.6-.4-.4-.6-.6-1.3-.8-2.4-.3-1-.6-1.2-.8-1.2h-.1-.2v.1c.5 2.1 1.2 4.6 2.9 5.6"/><path d="m79.7 96.5c-.1 0-.3.1-.4.4-.2.3-.2.6-.1.8 1.4 2.7 1.9 5.3 1.8 8.1 0 .9-.5 1-.7 1-.3 0-.6-.2-.8-.5-.6-1-1.2-2.4-1.8-3.7v-.1c-.4-1-.9-2.1-1.4-3-.1-.1-.2-.2-.2-.2s-.1.1-.2.4c-.1.5 0 1 .3 1.7.4.8.9 1.8 1.2 2.6.8 1.9 1.6 3.6 2.5 4.4.3.2.5.2.7.2.3 0 .6-.2.8-.6 1-1.9-.1-8.6-1.7-11.4.1 0 .1 0 0-.1"/><path d="m79.8 104.4c.1 0 .2-.1.3-.4-.1-2.6-.9-4.5-2.4-5.8-.1-.1-.2-.1-.3-.1s-.2 0-.2.1c-.1.1 0 .3.1.5 1.2 1.9 1.9 3.6 2.5 5.4-.2.2-.1.3 0 .3"/><path d="m76.2 110.5c.2.1.4.2.6.1.2 0 .8-.1 1-1 .2-2.6-.7-5.5-2.7-8.8-.1-.2-.3-.2-.4-.2-.2 0-.4.1-.5.3 0 .1-.1.2-.1.4.3 1 .8 1.9 1.2 2.8l.1.2c.5 1.2 1 2.2 1.4 3.5.1.4.1.8-.1 1-.1.1-.2.2-.4.2s-.5-.1-.7-.3c-1.1-1.2-2-2.7-2.9-4l-.1-.2c-.5-.8-1-1.6-1.5-2.2-.2-.2-.4-.4-.6-.4l-.2.1c-.1.2-.1.5 0 .8 1.5 3 3.5 5.5 5.9 7.7"/><path d="m71.1 100.4h-.2l.1.2c1.6 1.9 2.7 3.7 3.8 6l.2.2.1-.1s.1-.2 0-.5c-.9-2.8-2.2-4.8-3.9-5.8z"/><path d="m72.2 111.3c.6 0 .9-.5.9-1.3-.1-2.6-2.2-4.8-4.1-6.9-.2-.2-.4-.2-.4-.2l-.2.1.1.2c1.4 1.6 2.6 3.3 3.7 5.2.2.5.2 1 0 1.3-.1.2-.3.3-.6.3s-.5-.1-.7-.4c-2-2.9-4.2-5.2-5.8-6.9-.1-.1-.2-.2-.4-.2l-.2.2c-.1.1 0 .2.2.4 2 2.2 4.1 4.7 6.3 7.7.3.2.8.5 1.2.5"/><path d="m66 101.6h-.1c-.1.1-.1.4.1.7l4.8 5.8.3.1.1-.1c0-.1 0-.2-.2-.4l-4.8-6.1z"/><path d="m85.4 56.2c.9.7 2.2 1.5 2.8 1.5.1 0 .2 0 .3-.1.3-.3.4-.6.4-1-.1-.4-.5-.9-1.1-1.1 0 .4-.1.6-.2.7-.2.2-.3.2-.6.3-.4 0-.9-.3-.9-.8-.2-.6-.5-1.1-1-1.4.1.3.3.6.2 1.3-.1.2-.1.4.1.6"/><path d="m79.2 59.7c-.2 0-.5 0-.7-.1h-.1c0 .1 0 .1.1.2.6.5 1.4.8 2 .8.4 0 .7-.1.9-.4.2-.4.1-1.2-.5-2.1l-.1-.1v-.1-.1c0-.1 0-.3-.9-1h-.1c-.1.2-.3.4-.6.4-.2 0-.5.1-.8.1s-.6 0-1 0l-.2.1c0 .2.2.4.5.5 1.8 0 2.5.6 2.5 1.1.1.4-.4.8-1 .7"/><path d="m79.9 62.7c1.3.4 1.7 1.3 1.6 1.9-.1.5-.4.9-.9.9-.3 0-.6-.1-1-.5 0 .1 0 .3.1.6.7 1.2 1.8 1.7 2.5 1.7.3 0 .6-.1.7-.3.2-.3.2-.8 0-1.4-.8-1.5-.8-2.7-.8-3.7 0-.2-.1-.3-.1-.4-.1 0-.3.2-.4.2-.4.3-.6.3-.9.3-.5 0-.9-.2-1.5-.4l-.2.2c0 .1-.1.2.1.3z"/><path d="m75.2 83.5c-.1.1-.2.5 0 .8.8 1 1.7 2.6 2.5 3.9l.1.2c.7 1.1 1.2 2 1.6 2.6.2.2.4.3.5.3.2 0 .4-.3.4-.7-.1-2.6-1.5-5.7-4.1-9.5l-.1.1c-.1.2-.1.5 0 .7 1.1 1.6 2 3.3 2.7 5.3.1.3.1.5 0 .7l-.1.1h-.1c-.2 0-.4-.2-.5-.4-.7-1.4-1.5-2.8-2.5-4.1l-.2-.1z"/><path d="m72.7 88.6c-.1 0-.2.1-.2.1-.1.2-.1.5 0 .9.9 2 2 4.2 3.3 6.4.5.6 1 1 1.6 1 .5 0 1-.3 1.3-.8.6-1 .6-2.4 0-3.9-.8-1.9-2.1-4.1-4.1-6.9-.1-.1-.2-.2-.3-.2s-.2.1-.3.2c-.1.2-.1.5 0 .8 1.7 2.4 2.9 4.7 3.9 6.9.3.7.3 1.4 0 1.9-.2.3-.5.5-.8.5-.4 0-.7-.2-.9-.5-1.4-2.1-2.4-4.2-3.2-6.1-.1-.2-.2-.3-.3-.3"/><path d="m76.5 93.2c.2 0 .3-.1.4-.3s.1-.4-.1-.6l-2.8-5.2c-.1-.2-.2-.2-.2-.2s-.1 0-.2.1c-.2.3-.2.9-.1 1.2l2.8 4.9s.1.1.2.1"/><path d="m73.3 100.1c.7 0 1.3-.4 1.7-1 .5-.8.4-1.9-.2-2.9-1.4-2.4-2.3-4.4-2.9-6.1-.1-.4-.3-.5-.6-.5-.2 0-.4.1-.5.3-.1.1-.1.3 0 .4.7 1.8 1.7 3.9 3.1 6.4.4.9.3 1.4.1 1.6-.2.3-.5.5-.8.5-.4 0-.9-.2-1.2-.6-.9-1-1.7-2.3-2.5-3.6l-.2-.4c-.5-.8-1-1.6-1.5-2.4-.1-.2-.3-.2-.4-.2-.2 0-.4.1-.5.3s0 .4.1.6l4.2 6.4c.6.8 1.3 1.2 2.1 1.2"/><path d="m69 91.1 3.1 5.5c.2.2.4.4.6.4l.2-.1c0-.1.2-.3-.2-.9l-3.3-6.1c-.1-.1-.1-.2-.2-.2h-.1v.3c.1.2 0 .3-.1.5-.2.1-.3.3 0 .6"/><path d="m69.7 101.6c.3-.4.4-1.1.1-1.9-.7-2.3-2.3-4.6-3.6-6.6l-.3-.4c-.2-.2-.5-.3-.7-.3s-.3.1-.4.1c0 0 0 .1.1.3 1.5 2.1 2.8 4.2 3.8 6.4.2.3.2.7 0 1.1-.1.3-.4.4-.7.4-.2 0-.4-.1-.7-.4-1.9-2.1-3.7-4.4-5.5-6.8-.1-.1-.3-.2-.4-.2-.2 0-.3.1-.4.2s0 .3.1.5c1.5 2.4 3.5 4.9 5.8 7.3.3.4 1 .7 1.6.7.4 0 .9-.1 1.2-.4"/><path d="m62.6 92.4c.8 2.1 2.3 4.1 4.4 6.1.1.1.2.1.2.1l.1-.1c0-.1 0-.3-.1-.5-1.4-2.3-2.9-4.3-4.3-6.1h-.2c-.1.2-.1.3-.1.5"/><path d="m64.2 101.6c.2 0 .4-.1.4-.1 0-.1.1-.2-.1-.7-1-2-2.7-4.2-5.1-6.9-.2-.2-.4-.2-.5-.2l-.1.1s0 .1.1.2c1.1 1.4 2.4 3.1 3.4 4.6.2.2.2.5.1.7l-.2.2h-.1-.1c-.1 0-.3-.1-.5-.2-1.8-2-3.4-4.2-5.3-6.8-.1-.2-.3-.2-.4-.2-.2 0-.4.1-.5.3s-.1.3 0 .5l.3.5c2.1 3.2 4.8 7.1 8.1 8.2z"/><path d="m71.3 76.6c-.1.2-.3.4-.4.6-.2.8-.1.9 0 1h.1s.1 0 .3-.1c1.1-1 1.6-2 1.5-3l-.3-5.1c-.1-.3-.2-.5-.4-.5l-.3.1c-.1.2-.2.4-.2.6v1.1c0 .6 0 1.1.1 1.7v1.6c.2 1.2-.1 1.6-.4 2z"/><path d="m67.4 72c-.1 0-.2.1-.3.3-.7 2-1 4.1-.8 6.3.2.8.7 1.2 1.4 1.2.9 0 2.1-.8 2.5-2.2.6-2.6.5-4.9.3-6.7 0-.4-.2-.7-.3-.7l-.2.2c-.1.1-.2.3-.2.5.1 2.2.2 4.7-.5 6.2-.5.9-1 1.4-1.5 1.4-.2 0-.6-.1-.7-1-.1-2.1.2-3.9.5-5.2 0-.1 0-.2-.2-.3"/><path d="m68.6 76.7c.4-1.4.5-3.2.2-5.4-.1-.2-.2-.4-.2-.4-.1 0-.2.1-.3.4l-.2 5.4c0 .2.1.2.2.2s.3 0 .3-.2"/><path d="m61.7 79.8c-.4 0-.6-.1-.7-.3-.2-.3-.2-.7.1-1.3l1.1-4c0-.1 0-.3-.1-.3l-.2-.1c-.2 0-.3.2-.5.4-.2.9-.6 1.8-1 2.8-.3.7-.5 1.3-.8 2.1-.1.4-.2.6-.1 1 .4.5 1.1.7 2 .7h.1c2-.3 3-1 3.2-2.3l.8-5.3c0-.2-.1-.4-.2-.5l-.2-.1c-.1 0-.4.2-.5.6l-.7 4c-.2 1.7-1 2.5-2.3 2.6"/><path d="m63.6 73c-.1 0-.4.2-.4.4-.2 1.3-.4 2.9-.8 4.4v.3l.2.1c.2 0 .4-.2.5-.5.3-1.4.5-3 .6-4.3 0-.4-.1-.4-.1-.4"/><path d="m55.9 79.9c.4.2.8.3 1.2.3.7 0 1.3-.4 1.7-1.2l1.5-4.2c.1-.4 0-.5-.1-.6-.1 0-.1.1-.2.2-.6 1.7-1.3 3.1-2 4.2-.3.4-.6.6-1 .6-.3 0-.6-.1-.7-.4-.2-.3-.2-.7.1-1.1.7-1.2 1.2-2.5 1.6-3.8.1-.2 0-.3-.1-.4-.1 0-.2.1-.3.3-.6 1.4-1.3 2.8-2.1 4.1-.3.5-.4.9-.3 1.3.1.3.4.5.7.7"/><path d="m58.7 74.2c-.3 1.1-.8 2.1-1.5 3.4-.1.2-.1.3 0 .4l.1.1c.1 0 .2-.1.3-.2.8-1.3 1.3-2.4 1.5-3.5 0-.3-.1-.4-.2-.5-.1.1-.2.2-.2.3"/><path d="m56.3 74.1c-.1 0-.1.1-.2.2-.4.9-.9 1.8-1.6 2.8-.1.1-.1.3-.1.4l.1.1h.2c.8-.9 1.4-1.8 1.7-3 0-.3 0-.4-.1-.5"/><path d="m52.5 78.2c.4.5.8.8 1.4.9.2 0 .4-.1.5-.3l-.1-.2-.7-.5c-.1-.1-.2-.2-.3-.4 0-.3.1-.5.3-.8.7-.8 1.2-1.5 1.5-2.1.1-.3.2-.5.1-.6l-.1-.1c-.1 0-.2.1-.3.2-.7 1-1.4 1.9-2.1 2.7-.4.6-.4.9-.2 1.2"/><path d="m52.1 79.9c-1.5 2-1.6 3.5-1.4 5.3.2.9.6 1.6.9 2.4.2.4.4 1 .7 1.6.2.5.4 1.3.4 2.3 0 .1.1.4.6.4.2 0 .5-.1.8-.1.7-.2 1.1-.6 1.3-1 .1-.4.1-.7 0-1.2-1.7-3.9-1.8-6.4-.3-8.5.1-.2.1-.4 0-.5s-.2-.2-.4-.2-.3.1-.5.2c-.9.9-1.2 1.7-1.3 3.4 0 .9.3 1.7.6 2.7.2.6.4 1.3.6 2.1.1.2.1.5-.1.7-.1.1-.2.2-.4.2s-.4-.1-.7-.7c-.2-.7-.4-1.3-.6-1.8-.4-1-.6-1.9-.7-2.7-.1-1.6.3-2.3 1.2-4 .1-.2.2-.4.1-.5s-.2-.2-.5-.2c0-.2-.2-.1-.3.1"/><path d="m55.6 87.3c.3 1.7 1.1 3.3 2.3 4.9.5.4 1 .6 1.7.6 1 0 1.9-.7 2.1-1.6.1-.5-.1-.9-.2-1.4-.1-.2-.1-.3-.2-.5-.7-2.2-.7-4.4-.1-6.7 0-.1.1-.3 0-.4-.1-.2-.3-.2-.5-.2s-.5.1-.6.3c-.8 2.1-.8 4.5 0 7.3.1.5.1.9-.2 1.2-.2.2-.5.4-.8.4-.4 0-.7-.2-1-.5-2.1-3.4-2.4-6.3-1.1-8.9.1-.2.1-.5 0-.7-.1-.1-.2-.2-.4-.2s-.4.1-.5.3c-1.2 2.1-.9 4-.5 6.1"/><path d="m59.1 81.2c-.1-.1-.2-.2-.3-.2-.2 0-.4.1-.5.4-1.1 2.6-1 5 .3 7.7.1.1.2.2.3.2l.1-.1s.1-.2 0-.6c-.8-3.4-.8-5.6.1-7 .1-.1.1-.3 0-.4"/><path d="m63.1 81.9c-.1-.1-.2-.1-.3-.1-.2 0-.5.2-.5.4-.6 2-.6 4.3 0 7 .3 1.4 1.6 2.1 2.8 2.1 1 0 2.2-.6 2.4-2.2-.5-2.9-.6-5.4-.3-7.7 0-.2 0-.3-.1-.4s-.3-.2-.5-.2c-.1 0-.3.1-.4.3-.4 1.6-.5 3.7-.3 6.1 0 .1 0 .3.1.5.1.6.2 1.2-.2 1.6-.2.3-.5.4-.8.4-.4 0-.9-.3-1.2-.8-.7-1.8-.9-4-.4-6.6-.1-.2-.2-.3-.3-.4"/><path d="m64.9 81.3-.2-.1c-.1 0-.3.1-.3.3-.4 2-.5 4-.3 6.1.1.3.3.4.5.4s.4-.2.5-.6c-.3-1.9-.3-3.9-.1-6z"/><path d="m70.6 79.5c-.1.2-.2.7-.1 1.2.7 2 .9 3.7.8 5.4-.2.6-.6 1-1.1 1-.4 0-.8-.3-1-.7-.5-1.9-.5-3.6-.5-5.1-.1-.3-.3-.4-.5-.4-.1 0-.2.1-.3.1-.1.1-.1.2-.1.4 0 2.3 0 4.9 1.1 6.9.4.4.8.6 1.2.6.8 0 1.7-.8 2.4-2.1.5-1.8 0-4.1-1.5-7.1l-.2-.1z"/><path d="m70.3 85.2c.1 0 .2-.2.2-.4-.3-1.5-.5-2.8-.6-4.2-.1-.4-.2-.4-.3-.4s-.2.1-.2.3c.1 1.9.2 3.2.6 4.6z"/><path d="m73.7 77.1s-.1.1-.1.3c0 .6.2 1.1.4 1.6v.1c.2.5.4 1 .4 1.7-.1.5-.4.5-.5.5s-.2 0-.3-.1c-.5 0-.8-1-.9-1.4 0-.2.2-.4.3-.3.1.2.3.3.4.3.3 0-.2-1.3-.2-1.3-.1-.1-.3-.1-.4-.1-.2 0-.3.1-.6.2s-.4.3-.3.7c.2 1.3.8 2.5 1.7 3.6.1.1.3.1.4.1.2 0 .4-.2.6-.4.9-2 .7-3.8-.7-5.5-.2 0-.3 0-.2 0"/><path d="m75.9 76.2-.2-.1c-.1 0-.2.1-.2.1-.1.1 0 .1.1.2.1.2.3.5.6.7.5.6 1.1 1.2.4 2-.2.1-.2.2 0 .5.2.2.3.4.5.4s.4-.1.6-.2l.9-1.2.1-.3s0-.1-.2-.1c-.6 0-1-.6-1.4-1.1-.5-.3-.8-.7-1.2-.9"/><path d="m78.6 76c-.2 0-.3 0-.4-.1l-1.1-.9h-.2c-.1 0-.3.1-.3.2-.1.1 0 .3 0 .4.5.7 1.1 1.2 1.7 1.7.2.2.4.2.6.2s.3-.1.5-.2c.3-.4.6-.7.9-1 .5-.5 1-.9 1.2-1.6 0-.3 0-.4 0-.4s-.1-.1-.4-.1c-1 0-1.7-.6-2.4-1.3l-.2-.1c-.2 0-.3.1-.4.3 0 .1-.1.2 0 .4l1.2 1.2c.2.3.2.6 0 .9-.1.3-.4.4-.7.4"/><path d="m81.1 71.5c-.3 0-.5-.1-.8-.4-.1-.1-.1-.2-.2-.2 0 0-.1 0-.2.2-.6.5-.5.8-.3 1.1.7.7 1.3 1.1 1.8 1.1.4 0 .7-.3 1.1-.8.4-.7.6-1.7.7-2.8 0-.2 0-.4-.1-.4-.1-.1-.3-.1-.4-.2h-.1l-.2-.1c-.8-.4-1.4-.8-2.2-1.4v.1c-.1.4-.1.7.2.9l1.1.9c.4.5.5 1.1.3 1.5-.1.3-.4.5-.7.5"/><path d="m102.8 124.5c.2-.2.1-.6-.1-1.1 0-.2-.2-.3-.7-.4-.6-.1-1.5-.2-1.6-1.5v-.4-.1l-.2.1c-.9.4-1.1.8-1.4 1.3-.1.2-.2.4-.4.7-.4.4-.8.5-1.2.5s-.8-.3-1.2-.9c0-.2-.1-.3-.1-.3-.1 0-.1.1-.3.4-.3.4-.3.8-.2 1.3 0 .6.1 1.4-.5 2.3-1 1.7-2.1 2.6-3.4 2.6-.3 0-.6 0-1-.1h-.2c-.3 0-.4.3-.4.4-.1.2 0 .4.1.5.6.2 1.2.3 1.7.3 1.2 0 2.3-.6 3.3-1.8 1.4-2 3.2-4.5 5.2-4.5.4 0 .8.1 1.2.3v.1c.2.3.5.5.8.5.4.1.5 0 .6-.2"/><path d="m107.5 130.6c-.6 0-1-.1-1.2-.4s-.2-.8.1-1.3l.1-.2c-.1 0-.3 0-.5 0-1 .2-1.3.5-1.3 1.1.1.5-.1.9-.6 1-2.7 1.3-5 1.9-7.2 1.9-2.1 0-3.7-.4-5.5-.9-1.1-.3-2-.5-2.9-.7-.6 0-1.1.2-1.1.5 0 .1.1.3.2.4l2.1.7c.3.1 1.2.3 1.3 1.1.3 1 .7 1.5 1.3 1.5h.3.1c-.2-.3-.2-.7-.1-1 .1-.2.2-.4.5-.4.1 0 .3 0 .4.1 1.3.2 2.6.4 3.8.3.9 0 1.7-.1 2.4-.2h.3c.2 0 .4.1.6.2.8.6 1.5.8 2 .8.4 0 .6-.1.9-.4-.4-.1-.7-.4-.9-.9-.1-.5.1-.6.5-.8.6-.1 1.4-.4 2.3-1.1.2-.2.4-.3.8-.3h.1c1.5 0 1.8-.5 1.9-.8v-.2-.2h-.2c-.2.2-.3.2-.5.2"/><path d="m107.9 125.3c-.6.8-1.5 1.3-2.5 1.3-.4 0-.7-.1-1.1-.2-.3-.2-.4-.5-.4-.8 0-.5.4-1.1 1.2-1.9.4-.4.9-.6 1.4-.6s1 .2 1.2.6c.4.5.4 1 .2 1.6m-1.5-2.9c-.5 0-1.1.2-1.5.6-2.1 1.7-2.5 3.1-1.5 4.5.7.4 1.3.6 1.9.6 1.1 0 2.2-.6 3.4-1.6.5-.8.5-1.7.1-2.5-.5-1-1.5-1.6-2.4-1.6"/><path d="m112.6 124.6c-.1-.4-.3-.5-.4-.5h-.2c-.5.1-.9.2-1.3.4-.3 0-.4.3-.4.4 0 .2.1.5.3.5.7.3 1.2.4 1.6.4h.2c.1 0 .2 0 .2-.1.1-.1.1-.2.1-.3-.1-.2-.1-.5-.1-.8"/><path d="m111.9 122.5c-.4-.5-.7-.8-.8-1s-.2-.2-.3-.2-.2.1-.4.2c-.5.4-.9.8-.9 1.1-.1.3-.1.6.1.7.1.1.3.2.6.3.5-.1 1-.3 1.6-.7.2-.2.2-.2.1-.4"/><path d="m109 119.9c-.2-.2-.4-.2-.4-.2s-.2 0-.3.3c-.2.2-.3.6-.4.9-.1.4 0 .7.1.8s.3.1.5.1h.3c.5-.2.8-.4 1.1-.8l.1-.2c0-.1-.1-.2-.2-.3-.4-.3-.6-.4-.8-.6"/><path d="m113.9 118.9c-.4 0-.8.3-.8.5 0 .6-.3 1-1 1.3-.2.1-.1.5-.1.5.1.3.3.6.6.6l.2-.1c.3-.4.7-.6 1.3-.6.2 0 .4 0 .6.1.3 0 .5-.2.6-.4.2-.4.1-.9-.4-1.4-.2-.3-.6-.5-1-.5"/><path d="m59.5 129.6c.1.3-.2.6-.8.9l.2.1c.2.1.4.1.6.1.6 0 1-.3 1.4-.6.5-.3.9-.6 1.7-.6.4 0 .8.1 1.3.3s.8.4.8.8c0 .2 0 .4-.3.6h.4c.8 0 1.4-.5 1.8-1.5.4-.7.8-.8 1.7-1.2.3-.4.5-.7.6-1.3 0-.2 0-.3-.2-.5-.1 0-.1 0-.3.1-1.5.8-3.1 1.2-4.9 1.3-2.9.1-6-1-9.8-2.5-1.2-.5-1.2-1.5-1.1-2.3l1.2-3.8c.6-1.2 1.6-1.8 2.9-1.8 2 0 4.8 1.2 8.7 3.8l.2.1.1-.1c.1-.2.1-.7-.1-.9l-1.4-1.1c-.4-.4-.6-.9-.6-1.2-.1-1.3-.6-1.6-1.2-1.8h-.1v.2l-.1 1c-.2.4-.4.4-.6.4h-.3c-2.1-.2-2.9-1.2-3.5-2-.5-.6-.8-1.1-1.6-1.1-.1 0-.2 0-.4 0l.4.4c.3.2.3.5.3.8-.1.3-.3.5-.8.7-.3 0-.6 0-.8.2-.2.1-.4.1-.6.1-.3 0-.6-.1-.9-.3s-.6-.4-1.1-.3c-.2 0-.4 0-.6.1h.1c.9.5 1.1 1.3.8 2.3l-1.5 4.7c-.2 1-.2 2.1.9 3.2 1.1.4 1.6.8 1.6 1.3 0 .3-.2.6-.8.9.3.1.6.2.9.2.4 0 .8-.2 1.3-.6.4-.3.7-.4 1.2-.4.3 0 .5 0 .8.1 1.6.2 2.4.7 2.5 1.2"/><path d="m51 119.8c.1 0 .2-.1.3-.2s.1-.3 0-.4c-.6-1-1.3-1.7-2.2-2.2l-.3-.1c-.1 0-.2.1-.3.2s-.1.3.1.4c.8.5 1.5 1.2 2.2 2.2z"/><path d="m36.1 119.8c0 1.1 0 2.1-1 2.3h.1c.5.2.9.4 1.2.4s.6-.1.9-.3c.2-.2.3-.2.5-.2.1 0 .2 0 .3.1l3.1 1.5c.4.2.6.4.6.6s-.1.5-.5.7c.3.1.6.2.9.2.5 0 .9-.2 1.3-.5.2-.2.4-.2.6-.2h.3 1.6c1.4 0 2.7-.2 3.7-.5.4-.3.5-.7.4-1-.1-.2-.2-.3-.4-.3l-.2.1c-1.2.3-2.3.5-3.4.6-2.6 0-5-.8-7.9-2.6-.6-.2-.8-.9-.6-1.9.5-1.7 1.1-2.9 1.9-3.8.2-.3.4-.4.7-.4.3.1.6.1.9.1.9 0 1.1-.4 1.1-.7 0-.1 0-.1 0-.1h-.1-.3c-.8 0-1.4-.5-1.8-.9-.4-.3-.7-.6-1.1-.6h-.2c.2.2.3.5.3.8s-.1.6-.5.9c-1.4 1.4-2.2 3.3-2.4 5.7"/><path d="m44.1 117.2c-.5-1.2-.4-2.3.1-3.1.3-.3.6-.5 1-.5s.8.2 1 .5c.3.4.4 1.1.2 1.9-.3 1.1-.7 1.7-1.4 1.7-.2-.1-.6-.2-.9-.5m3.7-.9c.2-1.1.1-2-.5-2.6-.5-.6-1.2-.9-2-.9-.6 0-1.1.2-1.5.6-.5.5-.8 1.4-.7 2.5.1 1.2.6 2.3 1.2 2.9.4.1.7.2.9.1 1.2-.1 2-.9 2.6-2.6"/><path d="m48.7 113c.5-.1.9-.3 1.3-.7.1-.3.1-.5-.2-.7l-.7-.5-.2-.1c-.2 0-.3.1-.4.4-.3.3-.4.7-.4 1.1.1.3.3.5.6.5z"/><path d="m47.4 110.3-.9-.3h-.2-.2s-.1.1-.1.4l.1 1.2c.1.2.3.4.5.4s.4-.1.6-.2c.2-.2.4-.4.6-.7.1-.2.2-.4.1-.5-.2-.2-.3-.3-.5-.3"/><path d="m44.8 110c-.4.1-.7.1-1 .1-.2 0-.3.1-.3.1s-.1.2 0 .7c.2.5.6 1.2 1 1.2.2 0 .3-.2.5-.4.1-.2.1-.3.1-.6v-.6c0-.4-.1-.5-.2-.6z"/><path d="m31.9 118c.1 0 .2 0 .3.1.9.2 1.6.4 2.1.4.3 0 .5-.1.7-.1.2-.1.3-.3.3-.4-.1-.2-.3-.3-.4-.3-3.8-.7-6.6-2.5-8.6-5.7-.4-.8-.4-1.5.1-2.3.7-1.1 1.7-1.9 3-2.5.4-.2.8-.3 1.2-.3.5 0 .9.2 1.3.5 2.5 2.3 3.5 4.6 4.2 6.7 0 .5.3.7.4.7.2 0 .4-.2.5-.5l-.3-1.3c-.1-.5-.1-.9.1-1.1.9-1.2.9-2.1.2-2.8-.3.8-.6 1.2-1 1.2-.3 0-.6-.2-.9-.7-1-1.4-1.9-2.3-2.9-3.1-.5-.3-.7-.6-.6-.9-.2-1.4-.7-1.5-1.3-1.6h-.1v.1c.3 1-.1 1.7-1.3 2.2-2 .8-3.4 2-4.3 3.9-.2.6-.5.7-.8.7s-.6-.1-.9-.4v.2c.1 1 .5 1.5 1.1 1.7.5 0 .8.2.9.7.3.6.7 1 1.1 1.5.3.3.4.5.3.7s-.4.4-1.1.5l.1.1c.4.4 1 .6 1.8.6l.3-.1c.3 0 .5.1.7.3l1.3.8c.4.2.5.4.5.6 0 .3-.2.5-.8.8h.1c.4.2.7.3 1 .3.4 0 .8-.2 1.1-.6.2-.5.4-.6.6-.6"/><path d="m24.9 101.6c.3 0 1 .1 1.5 1.2.4 1.1.5 1.8.2 2.2-.2.2-.4.4-.8.4h-.2-.1c-1-.4-1.6-1.2-1.8-2.6 0-.7.5-1.2 1.2-1.2m-1.8.3c-.3.7-.2 1.5.2 2.3.5 1.1 1.6 1.9 2.8 2.2h.3c.6 0 1.1-.3 1.4-.9.5-.9.3-2.4-.5-3.5-.7-1-1.5-1.5-2.3-1.5-.8.1-1.5.6-1.9 1.4"/><path d="m25.3 99.9c.2 0 .4-.1.6-.4.2-.4.3-.7.3-1.2 0-.3-.1-.4-.3-.5s-.5-.1-.7-.1-.3 0-.5.1-.3.3-.2.7c0 .8.4 1.4.8 1.4"/><path d="m23.7 100.1c.2-.3.3-.9.1-1.7 0-.1 0-.2-.1-.3s-.2-.1-.4-.1c-.5 0-1.1.3-1.2.6-.1.1-.1.3.1.5.5.8 1 1.1 1.2 1.1s.3 0 .3-.1"/><path d="m21.4 99.4c-.4 0-.9.6-1 1-.1.2 0 .3.1.3.4.4.9.6 1.3.6.3 0 .4-.1.5-.3.2-.4-.1-.9-.8-1.6z"/><path d="m21.1 96.4c.5.2.7.5.6.8.1.3.3.4.5.4s.4-.1.5-.3.1-.5-.2-.8c-.2-.2-.2-.5 0-.9.1-.4 0-.7-.2-1-.2-.2-.5-.3-.7-.3-.6 0-1.3.4-1.4.8 0 .7.5 1.1.9 1.3"/><path d="m48.9 128.8c-.2.2-.4.3-.7.3-.4 0-.8-.2-1-.6s-.1-.9.2-1.4c.2-.2.4-.3.7-.3.4 0 .8.3 1 .7s.2.9-.2 1.3m1.3 0c.3-.8.1-1.5-.5-2.2-.4-.5-.9-.7-1.6-.7-.8 0-1.5.4-1.8 1-.4.7-.2 1.6.3 2.4.5.5 1 .8 1.6.8.9 0 1.6-.5 2-1.3"/><path d="m39.1 136.2c-.2.2-.4.2-.7.3-.4 0-.8-.2-1-.6s-.1-.9.2-1.4c.2-.2.4-.3.7-.3.4 0 .8.3 1 .7s.2.9-.2 1.3m-.8-2.9c-.7 0-1.4.4-1.7 1-.4.7-.2 1.5.3 2.4.5.5 1 .8 1.6.8.8 0 1.5-.5 1.8-1.3.3-.7.1-1.6-.4-2.2-.4-.4-1-.7-1.6-.7"/><path d="m92.7 144.6c-.2.2-.5.3-.7.3-.5 0-.9-.3-1.1-.7-.2-.3-.2-.8.2-1.4.2-.2.4-.3.7-.3.5 0 .9.3 1.2.7.1.5.1 1-.3 1.4m-1-3.1c-.8 0-1.6.4-1.9 1.1-.4.7-.2 1.6.4 2.5.5.6 1.2.9 1.8.9.9 0 1.7-.6 2-1.4s.1-1.6-.6-2.3c-.4-.5-1-.8-1.7-.8"/><path d="m54.7 134.7c-1.9-1.2-3.5-2.6-4.3-3.9-.1-.2-.3-.4-.4-.3-.1 0-.2.1-.3.2-.1.2-.1.4-.1.6.9 1.6 2.8 3.5 5 4 .2 0 .3-.1.3-.2.1-.1 0-.3-.2-.4"/><path d="m54.4 142.8c-1.2-.4-3-.7-4.1-.7-.2 0-.3.2-.3.3s0 .3.4.4c1.4.3 3.2.9 4.2 1.5l.2.1s.1 0 .1-.2v-.9c-.2-.3-.2-.3-.5-.5"/><path d="m47 140.7c-.9 0-1.9.5-2.9 1.3-.1.2-.1.3-.1.4s.2.1.4.1.5-.1.8-.2c.7-.6 1.4-.8 2-.9h.3c.6.1.8.4.8.7s-.3.6-.6.6c-.1 0-.3-.1-.4-.1-.1-.1-.2-.2-.4-.1-.1 0-.2 0-.3 0-.7.2-1 .4-1.4.6l-.1.1c-.1.1-.2.1-.3.2s-.2.1-.2.1 0 .1.2.2c.8.2 1.5.4 2.1.4.9 0 1.5-.3 1.8-.9.2-.5.2-1-.1-1.6-.2-.6-.8-.9-1.6-.9"/><path d="m31.4 124.5c-.2 0-.4.1-.4.3s.5.6 1.3.8c1.2 0 2.1.3 2.7.8.5.4.4.8.4.9-.1.2-.3.4-.6.4s-.5-.2-.6-.4-.2-.4-.6-.6c-.8-.3-1.3-.4-1.7-.4-.2 0-.4-.1-.6-.1h-.1-.2s0 .1.1.2c1.7 2.1 2.9 2.4 3.6 2.4.6 0 1-.3 1.3-.8s.2-1.2-.1-1.8c-.7-1.1-2.3-1.7-4.5-1.7"/><path d="m99.5 136.6c-1.2-.5-2.3-.7-3.2-.7s-1.6.2-2.1.7c-.4.4-.7.9-.7 1.5 0 .9.7 1.8 2.3 1.8 1 0 2.1-.4 3.4-1.2.2-.2.2-.2.2-.2s-.1-.1-.3-.1-.4-.1-.7-.1c-.5-.1-.9-.2-1.9-.2-.5 0-.7.1-.8.4-.1.2-.3.2-.5.2-.3 0-.7-.3-.8-.6 0-.1-.1-.6.7-.9.3-.1.7-.2 1.1-.2.6 0 1.3.1 2 .4.2 0 .5.1.7.1.6 0 .9-.2.9-.3 0-.3-.1-.5-.3-.6"/><path d="m88.3 138.6c1.7 0 2.9-.3 4-.9.2-.1.4-.2.3-.5-.1-.2-.3-.3-.6-.3-.1 0-.2 0-.4.1-1.5.4-2.7.6-4.1.6-.8 0-1.6 0-2.7-.1-.4 0-.6.2-.6.4s.2.5.8.6c1.3.1 2.3.1 3.3.1"/><path d="m88.5 141.7c-.2-.2-.2-.4-.2-.5.1-.2.3-.4.7-.5l3.6-1.1c.2-.1.2-.3.2-.4 0-.2-.1-.5-.8-.5-3.4.6-5.3 1.3-5.5 2.2-.1.5.4 1.2 1.5 1.8.2.1.3.1.5.1.3 0 .5-.1.6-.3.1-.1-.1-.3-.2-.5z"/><path d="m88.1 143.8-3.3.8c-.2.1-.2.4-.2.6s.2.5.6.5h.2l3.1-.8c.2-.1.2-.4.2-.6-.1-.2-.3-.5-.6-.5"/><path d="m51.1 139c-.6-1.7-4.2-3.3-9.2-3.9-.3 0-.5.2-.6.3 0 .2.1.4.5.6 3.9.8 6.3 1.7 7.6 2.7.4.3.6.6.6.8s-.2.4-.3.6c-.2.1-.3.3-.3.5 0 .5.2.6.5.6.1 0 .3 0 .5-.1.7-.7.9-1.4.7-2.1"/><path d="m42.3 133.4c.1-.7-.8-2.4-5-4.4h-.2c-.1 0-.2 0-.2.1s0 .3.2.5c.3.2.5.4.8.5l.4.3c.9.6 1.8 1.2 2.5 1.9.2.2.3.4.3.5 0 .2-.1.3-.2.4-.2.3-.1.3 0 .3.3.2.6.3.9.3.2.1.4-.1.5-.4"/><path d="m43 130.9c.6.3 1.3.6 1.8.8.9.5 1.7.8 2.3.9h.3c.6 0 1.1-.2 1.2-.6.1-.3-.1-.7-.5-.9-.2-.1-.3-.1-.4-.1l-.1.1c-.1.2-.2.5-.7.5-.2 0-.3 0-.6-.1-2.5-1-5.1-2.3-8.3-4.1-.2-.1-.3-.1-.4-.1-.2 0-.3.1-.3.2l.1.3c2.2 1.4 4.1 2.3 5.6 3.1"/><path d="m12.4 88.2c.8.4 1.3.8 1.4 1.2.2.4.2.9.1 1.7-.1.9-.2 1.2-.2 1.2 0 .1-.2.1-.4.1l-3.3-.4.1-1.1c.1-.5.2-.7.3-.8s.4-.2 1.1-.2h.1l.1-.5-3.5-.4-.2.4h.1c.6.2.9.3 1 .4s.2.3.1.8l-.1 1.1-3-.4c-.2 0-.3-.1-.3-.1s0 0 0-.2l.2-1.5c.1-.8.3-1 .4-1.1s.4-.2 1.2-.3h.1l.1-.5-2.3-.3-.8 6.2.5.1v-.1c.1-.5.2-.6.3-.7.1 0 .2-.1.4-.1h.5l6.2.8c.7.1.8.2.9.3s.1.3.1.8v.1l.5.1.8-6.3-2.5-.9z"/><path d="m14.1 81.5c-.5-.1-1.1-.1-1.5 0-.5.2-1 .5-1.7 1l-1 .8c-.4.3-.7.5-1 .6-.2.1-.6.1-.9 0-.4-.1-.6-.3-.8-.5-.1-.3-.2-.5-.1-.8.1-.4.4-.7.8-1s1.1-.4 2-.4h.1l.1-.5-3.3-.5-.1.4h.1c.1.1.2.1.3.2 0 0 .1.1 0 .2 0 0-.1.1-.4.5-.3.3-.4.6-.5.9-.2.7-.1 1.2.4 1.8.4.5.9.9 1.7 1 .5.1 1.1.1 1.6-.1.3-.1.6-.3.9-.5l1-.7c.6-.4.9-.7 1.2-.8.4-.2.8-.2 1.2-.1.5.1.8.3 1 .6s.2.6.2.9c-.2.6-.6 1-1.3 1.3-.4.2-.9.3-1.6.3h-.1l-.1.5 3.3.5.1-.5h-.1l-.3-.2v-.2s.1-.1.4-.5c.3-.3.5-.7.5-1.1.2-.7.1-1.4-.3-2-.5-.5-1.1-.9-1.8-1.1"/><path d="m18 76.7c-.2.5-.4.6-.5.7s-.5 0-.9-.2l-6.7-2.6.2-.5c.2-.6.5-.9.7-1 .3-.1.8-.1 1.5.1h.1l.2-.5-2.5-.9-2.4 6.2 2.5 1 .2-.5h-.1c-.6-.4-1-.7-1.1-1-.2-.2-.2-.6.1-1.1l.2-.5 6.5 2.5c.7.3.9.5.9.5.1.1.1.3-.1.8v.1l.5.2 1.3-3.3-.5-.2z"/><path d="m17.6 69.8-1 2-2.5-2.6zm4.5-1.2c-.2.2-.3.3-.4.3s-.4 0-1-.1l-8.5-1.3-.2.4 5.1 5.4c.7.8 1.2 1.3 1.3 1.5s.1.4 0 .7v.1l.4.2 1.2-2.2-.4-.2-.1.1c-.2.2-.3.3-.3.4-.1.1-.2.1-.4 0-.1-.1-.2-.1-.4-.3s-.6-.6-1.2-1.2l1.3-2.5 1.3.2c.2 0 .4.1.6.1.2.1.3.1.3.1.1.1.2.1.2.2 0 0 0 .2-.2.6v.1l.4.2 1.5-2.8z"/><path d="m24.5 63.7c0 .7-.2 1.4-.7 2.1-.2.3-.3.3-.3.3-.1 0-.2 0-.4-.1l-5.8-4.2c-.3-.2-.3-.3-.3-.3 0-.1 0-.2.2-.4.6-.8 1.3-1.3 2.1-1.4h.5c.8 0 1.8.4 2.8 1.1 1.2.9 1.9 1.8 1.9 2.9m.3-2.7c-.4-.6-.9-1.1-1.5-1.5-1.6-1.2-3.1-1.5-4.6-.9-.8.3-1.5.9-2.1 1.8l-1.7 2.6.4.3.1-.1c.3-.4.5-.4.6-.5.1 0 .3.1.8.4l5.1 3.7c.5.4.6.6.6.7s0 .3-.2.7v.1l.4.3 2-2.6c.5-.7.8-1.4.9-2 .1-.4.1-.7 0-1.1-.1-.7-.4-1.4-.8-1.9"/><path d="m29.9 58.8c-.5.5-1.1.6-1.9.4s-1.7-.8-2.8-1.8c-1-1-1.7-2-1.8-2.8-.2-.8 0-1.4.4-1.9.3-.3.7-.5 1.3-.5.2 0 .3 0 .5.1.8.1 1.8.7 2.8 1.8 1.1 1 1.7 2 1.9 2.8.1.8 0 1.4-.4 1.9m-.4-5.7c-1.1-1.1-2.3-1.7-3.5-1.8-1.1-.1-2.1.2-2.8 1-.8.8-1.1 1.7-1 2.8.1 1.2.8 2.4 1.9 3.4 1 1 2.2 1.6 3.3 1.7h.5c.9 0 1.8-.4 2.4-1 .7-.7 1-1.7 1-2.8-.1-1.1-.7-2.2-1.8-3.3"/><path d="m34.9 49.8c-.4-.2-1-.2-1.8-.2h-1.5c-.4 0-.8-.1-1-.1-.3-.1-.5-.3-.7-.5-.2-.3-.3-.6-.3-.9s.2-.5.4-.7c.3-.2.7-.3 1.2-.3s1.1.3 1.8.9l.4-.3-2.2-2.4-.4.3v.1c.2.1.2.2.2.3l-.1.2s-.1 0-.6.2c-.4.1-.7.2-.9.4-.5.4-.8 1-.8 1.6s.2 1.2.7 1.8c.4.4.8.8 1.4.9.3.1.6.1 1 .1h1.3c.6 0 1.1 0 1.3.1.4.1.7.3 1 .7s.4.7.4 1.1-.2.6-.4.8c-.5.4-1.1.5-1.8.2-.5-.1-1-.4-1.5-.8l-.1-.1-.4.3 2.3 2.3.4-.3-.1-.1-.1-.3.1-.2s.1-.1.6-.2c.4-.1.8-.3 1.1-.5.6-.4.9-1 .9-1.7s-.2-1.4-.6-2c-.4-.2-.8-.5-1.2-.7"/><path d="m45.4 39.9c-.4-.8-.4-1.2-.4-1.3 0-.2.2-.4.5-.6l.1-.1-.2-.4-2.6 1.2.2.4h.1c.4-.1.6-.1.8 0 .1.1.4.3.8 1.1l1.6 3.3c.4.8.6 1.4.6 1.9.1.8-.3 1.3-1.1 1.7-.7.3-1.3.2-1.9-.3-.3-.3-.6-.8-1-1.4l-2-4.1c-.3-.6-.3-.8-.2-.9 0-.1.1-.3.6-.5l.1-.1-.2-.5-3.1 1.7.2.5.1-.1c.4-.1.6-.2.8-.1.1 0 .3.2.6.7l1.9 4c.4.8.8 1.4 1.3 1.8s1.1.6 1.6.6.9-.1 1.4-.4c1.2-.6 1.7-1.4 1.7-2.6 0-.6-.3-1.4-.7-2.3z"/><path d="m53.9 35.5c.1-.2.3-.4.7-.6l.1-.1-.1-.5-2.8.9.2.5h.1c.4-.1.6-.1.8 0s.4.4.7 1.3l1.3 4.1-5.9-4.9-2.1.6.2.5h.1c.2-.1.4-.1.5-.1s.2.1.5.3l.2.2 1.8 5.9c.3.8.3 1.2.2 1.3-.1.2-.3.4-.7.6h-.1l.1.5 2.8-.9-.2-.5h-.1c-.4.1-.6 0-.8 0-.2-.1-.4-.4-.7-1.3l-1.5-4.8 6.9 5.7.4-.1-2.3-7.2c-.3-.8-.3-1.2-.3-1.4"/><path d="m60.9 42.5c-.2 0-.3 0-.4 0-.3 0-.4-.1-.5-.1s-.2-.2-.3-.9l-1.2-6.2c-.1-.6-.1-.8 0-.9s.2-.2.8-.4h.1l-.1-.5-3.5.7.1.5h.1c.4 0 .7 0 .8.1s.2.3.4.9l1.2 6.2c.1.7.1.9 0 .9-.1.1-.3.2-.8.4h-.1l.1.5 3.5-.7-.1-.5z"/><path d="m64.1 41.8c-.2 0-.2 0-.3-.1 0 0-.1-.1-.1-.3l-.7-7.2c0-.3 0-.3.1-.4 0 0 .2-.1.4-.1h.4c.8 0 1.5.2 2 .7.7.6 1.2 1.7 1.3 3.1.1 1.6-.2 2.7-1 3.4-.5.5-1.2.8-2 .8zm2.3-8.4c-.8-.4-1.7-.5-2.7-.4l-3.2.3.1.5h.1c.5 0 .7.1.7.2.1.1.2.3.3.9l.5 6.3c.1.7 0 .8-.1.9s-.3.2-.7.3h-.1l.1.5 3.3-.3c.9-.1 1.6-.3 2.1-.6.3-.2.6-.4.9-.7.4-.5.7-1.1.9-1.7.2-.7.3-1.4.2-2.1-.2-2.1-1-3.4-2.4-4.1"/><path d="m76.1 37.6c-.1 1.5-.4 2.6-.9 3.2s-1 .9-1.7.9c-.6 0-1.2-.4-1.6-1.1s-.6-1.8-.5-3.3.4-2.5.9-3.2c.5-.6 1-.9 1.6-.9h.1c.6 0 1.1.4 1.6 1.1.4.7.6 1.8.5 3.3m-2.1-5.1c-1-.1-2 .3-2.7 1.2-.8.9-1.3 2.1-1.4 3.7-.1 1.5.2 2.7.9 3.7s1.6 1.5 2.7 1.5h.2c1 0 1.8-.4 2.5-1.1.8-.9 1.3-2.1 1.4-3.7.1-1.5-.2-2.8-1-3.8-.6-.9-1.5-1.4-2.6-1.5"/><path d="m84.1 33.9c-.1.1-.1.2-.2.3h-.1-.1s-.1 0-.5-.3c-.4-.2-.7-.4-.9-.4-.7-.1-1.2 0-1.7.5-.5.4-.8 1-.9 1.7-.1.6 0 1.1.2 1.6.1.2.3.5.6.8l.8.9c.5.5.8.9.9 1.1.2.4.2.8.2 1.2-.1.5-.3.8-.6 1s-.6.3-.9.2c-.6-.1-1.1-.5-1.4-1.2-.2-.4-.3-.9-.4-1.6v-.1l-.5-.1-.2 3.3.5.1v-.1l.1-.3h.2s.1 0 .6.4c.3.2.7.4 1.1.4.2 0 .3.1.5.1.5 0 1-.2 1.4-.5.6-.4.9-1 1-1.8.1-.6.1-1.1-.1-1.6-.2-.4-.6-1-1.1-1.6l-.9-.9c-.3-.3-.5-.7-.6-.9-.1-.3-.2-.6-.1-.9s.2-.6.5-.8c.2-.2.5-.2.7-.2.4.1.7.3 1 .7s.5 1.1.5 1.9v.1l.5.1.3-3.3z"/><path d="m97.8 48.5c-.4-.2-.5-.4-.6-.5 0-.1 0-.3.2-.9l2.5-5.8c.2-.5.4-.7.5-.8s.4-.1.8.1h.1l.2-.5-2.2-1-5 5.3.5-7.3-2.3-1-.2.5.1.1c.4.2.6.4.6.5s0 .3-.2.9l-2.3 5.3c-.4.8-.6 1.1-.7 1.2-.2.1-.5.1-.9 0h-.1l-.2.4 2.7 1.2.2-.5-.1-.1c-.4-.2-.5-.4-.6-.5 0-.2 0-.6.4-1.4l2-4.5-.5 7.6.3.2 5.5-5.7-2.3 5.1c-.3.7-.5.9-.6.9-.1.1-.4.1-.8-.1h-.1l-.2.5 3.1 1.4.2-.5z"/><path d="m104.6 50.3c-.7.5-1.2.8-1.6.8s-.9-.2-1.5-.6c-.7-.4-.9-.6-1-.7s0-.2.1-.4l1.8-2.9.9.6c.5.3.6.5.6.6s0 .4-.3 1l-.1.1.4.3 1.9-3-.4-.3-.1.1c-.4.5-.7.7-.8.7-.2.1-.4 0-.8-.3l-.9-.6 1.6-2.6c.1-.2.2-.2.2-.2l.2.1 1.3.8c.7.4.9.7.9.8.1.2 0 .5-.3 1.2l-.1.1.5.3 1.2-2-5.3-3.4-.3.4.1.1c.4.3.5.5.5.6s0 .4-.3.9l-3.4 5.3c-.3.6-.5.7-.6.7s-.4 0-.8-.2l-.2.1-.3.4 5.4 3.4 1.9-1.9z"/><path d="m110 57.5c-.2-.2-.3-.4-.3-.6 0-.1 0-.4.1-.9l.9-4.3 2.8-.9c.6-.2 1.2-.3 1.4-.2.2 0 .4.1.6.3l.1.1.3-.4-2.2-1.9-.3.4.1.1.4.4c0 .1.1.2-.1.3l-.2.2c-.1.1-.4.2-.7.2l-2 .6.4-2.2c0-.1.1-.2.1-.3 0-.2.1-.3.2-.4s.2-.1.3-.1.2.1.5.3l.1.1.3-.4-2.8-2.4-.3.4.1.1c.2.2.4.5.4.8s-.1 1-.3 2.1l-.5 2.5-3 .9c-.8.2-1.3.4-1.6.4-.2 0-.4-.1-.6-.2l-.1-.1-.3.4 2.2 1.8.3-.4-.1-.1c-.2-.2-.3-.4-.3-.4-.1-.1-.1-.3 0-.4 0 0 .1-.1.4-.2.2-.1.4-.2.7-.2l2.1-.7c-.3 1.4-.5 2.3-.6 2.7s-.2.6-.3.7l-.2.1c-.1 0-.2-.1-.5-.3l-.1-.1-.3.4 2.7 2.3z"/><path d="m112.9 58.9 4.6-4.4c.4-.4.7-.5.8-.5s.3.1.7.4l.1.1.4-.3-2.5-2.6-.4.4.1.1c.3.4.4.6.4.7s-.1.4-.6.8l-4.5 4.4c-.5.5-.7.5-.8.5s-.3-.1-.7-.4l-.1-.1-.4.3 2.5 2.6.4-.3-.1-.1c-.3-.4-.4-.6-.4-.7-.1-.2 0-.4.5-.9"/><path d="m118.4 65.7.2-.6h-.2c-.5 0-.9-.1-1.3-.2-.6-.1-1-.5-1.3-.9-.5-.6-.6-1.3-.3-2.2s.9-1.7 1.9-2.4c1.1-.8 2-1.3 2.9-1.4s1.6.2 2 .8.5 1.2.3 2c-.2.4-.4.9-.8 1.4l-.1.1.3.4 2.6-2.2-.3-.4h-.1c-.1.1-.2.1-.3.1l-.2-.1s-.1-.1-.2-.7c-.1-.4-.4-.8-.6-1.2-.7-.9-1.7-1.4-2.9-1.4h-.1c-1.2 0-2.3.5-3.5 1.4-1.1.8-1.8 1.8-2.1 2.9-.4 1.2-.1 2.3.6 3.3.5.6 1.1 1 1.9 1.2.3.1.7.1 1 .1z"/><path d="m125.3 66.3-2.3 2.7-1.1-1.9zm-3.7 7c-.1-.2-.1-.4-.1-.5s.2-.3.6-.8l5.6-6.6-.2-.4-7.3 1.5c-1 .2-1.7.3-2 .3-.2 0-.4-.1-.6-.3v-.1l-.4.2 1.3 2.2.4-.2v-.1c-.1-.3-.1-.4-.2-.5 0-.1.1-.2.2-.3s.2-.1.4-.2.7-.2 1.6-.4l1.4 2.4-.9 1c-.1.2-.3.3-.4.4s-.2.2-.3.2c-.2.1-.2.1-.3.1 0 0-.2-.1-.4-.5l-.1-.1-.4.2 1.6 2.7z"/><path d="m132.1 77.2c.2 0 .4.2.6.6l.1.1.5-.2-1.1-2.7-.5.2v.1c.1.5.1.7 0 .8-.1.2-.4.4-1.2.8l-4 1.6 4.4-6.3-.8-2-.5.2.1.1c.1.2.1.4.1.5s-.1.2-.2.5l-.1.2-5.8 2.3c-.7.3-1.1.4-1.3.3-.2 0-.4-.2-.6-.6l-.1-.1-.5.2 1.1 2.7.5-.2v-.1c-.1-.4-.1-.7 0-.8.1-.2.4-.4 1.2-.7l4.7-1.9-5.1 7.2-.1.1.1.3 7-2.8c.8-.3 1.3-.4 1.5-.4"/><path d="m127.2 86.5c-.8-.3-1.2-.7-1.3-1.3s.1-1.2.6-1.8c.6-.6 1.6-1.1 3-1.5.8-.2 1.5-.3 2.1-.3.5 0 .9.1 1.2.2.8.3 1.2.7 1.4 1.3.1.6-.1 1.2-.6 1.8s-1.6 1.1-3 1.4c-1.6.4-2.7.5-3.4.2m1.9 1.6c.5 0 1.1-.1 1.7-.2 1.5-.4 2.6-1 3.3-2 .7-.9.9-1.9.6-2.9-.2-1-.9-1.8-1.9-2.3-1.1-.5-2.4-.6-3.9-.3-1.4.4-2.5 1-3.3 1.9-.7.9-1 1.9-.7 3 .2 1 .9 1.8 1.8 2.3.9.3 1.6.5 2.4.5"/><path d="m136.5 92.8h-.1c-.1 0-.2 0-.3-.1 0 0-.1 0-.1-.2 0 0 0-.1.2-.6.1-.4.1-.7.1-1-.1-.7-.4-1.2-.9-1.5s-1.2-.5-1.9-.4c-.6.1-1 .3-1.5.7-.2.2-.4.5-.6.8l-.6 1.1c-.4.6-.6 1-.8 1.2-.3.3-.6.5-1.1.5-.5.1-.9 0-1.2-.2s-.5-.5-.5-.8c-.1-.6.2-1.2.8-1.7.3-.3.8-.6 1.4-.8h.1l-.1-.5-3.2.7v.5h.1l.3.1.1.1s0 .1-.2.7c-.1.4-.2.8-.1 1.2.1.7.4 1.3 1 1.7.5.3 1 .5 1.6.5h.4c.6-.1 1.1-.3 1.5-.6s.8-.8 1.2-1.5l.6-1.1c.2-.4.5-.7.7-.9s.5-.3.8-.3c.4 0 .7 0 .9.2s.4.4.4.7c0 .4-.1.8-.4 1.2s-.9.8-1.7 1.1h-.1l.1.5 3.2-.7z"/><path d="m68.4 159.5c-.4 0-.7-.2-.8-.5-.4-1.1-.3-2.4 0-4 .1-.4.4-.7.8-.7.3 0 .8.1.9.7.2 1.5.2 2.8 0 3.9-.1.4-.6.6-.9.6"/><path d="m72.3 159.4c-.4.1-.9-.2-.9-.6l-.1-3.3c0-.5.1-.9.3-1.1s.4-.3.6-.3c.5-.1 1 .3 1.1 1.2v3.1c0 .3-.1.5-.2.7-.2.1-.4.3-.8.3"/><path d="m60.4 162c-.2 0-.3 0-.5 0-.4-.1-.6-.4-.6-.7s.2-.6.5-.7c.2 0 .3-.1.4-.1.4 0 .7.1.9.3.1.2.1.5 0 .9-.1.1-.4.2-.7.3"/><path d="m79.7 162.2c-.3 0-.5-.1-.7-.2-.1-.2-.2-.4-.1-.7.2-.4.4-.7.9-.8h.3c.4.1.6.3.6.6s-.2.7-.6.9c0 .2-.2.2-.4.2"/><path d="m62.4 160.5c-.1 0-.2 0-.4 0l-.8-.6c-.1-.2 0-.3.1-.4 1.2-1.1 2.7-1.8 4.5-2.1.4 0 .5.2.6.5.1.4-.1.8-.6 1-1.2.2-2.1.6-2.7 1.1-.2.3-.4.4-.7.5"/><path d="m77.9 160.7c-.1 0-.1-.1-.3-.2-1-.9-2-1.4-3-1.6-.2 0-.3-.1-.3-.4-.1-.8 0-1 .1-1 1.8.1 3.3.8 4.7 2.1l.1.3-.2.2-.9.7z"/><path d="m75 167.5c-.2 0-.4 0-.6-.2-1.1-.6-2.2-1.2-3.5-1.7-.4-.2-.4-.6-.3-.9.1-.4.5-.9 1-.9h.3c.6.4 1.3.7 2 .9.8.3 1.5.6 2 1 .2.1.3.2.3.4 0 .1 0 .2-.1.3l-.5.7c-.3.3-.4.4-.6.4"/><path d="m60.8 166.4-.2-.1c-.1-.1-.1-.3-.1-.5.1-2 1.9-3.2 3.9-4.4.6-.4 1.3-.8 1.9-1.3.2-.2.4-.3.6-.3.1 0 .2 0 .3.1l1 .6c.1.1.2.2.2.3s-.1.2-.2.3c-.6.5-1.3 1-2 1.3-1.1.7-2.3 1.4-3.1 2.7-.4.6-1.1 1-2.3 1.3z"/><path d="m66.2 167.3c-.1 0-.2 0-.4-.1l-.8-.7c-.3-.4-.3-.8.3-1.4.7-.7 1.6-1.3 2.5-1.9s1.8-1.3 2.6-2.1c.3-.4.6-.6 1-.6h.2c.2 0 .5-.1.7-.1.3 0 .7 0 .7.1.1.2-.3.8-.4 1-1 1.3-2.2 2.1-3.2 2.8-1.1.7-2.1 1.4-2.7 2.5-.2.4-.4.5-.5.5"/><path d="m79.6 165.7c-.2 0-.4 0-.6 0-.4-.1-.7-.3-1.2-.7-.5-.5-.9-.8-1.5-1.1-.4-.2-.8-.3-1.2-.5-.5-.2-1-.4-1.6-.7-.3-.1-.4-.3-.4-.5-.1-.3.2-.8.5-1.2.1-.2.3-.3.4-.3s.3 0 .4.2c.5.4 1.2.6 1.8.9 1.4.6 3.1 1.3 4.3 3.2.1.1.1.2.1.3s-.1.1-.2.2c-.2.1-.5.2-.8.2"/><path d="m53.7 158.3c.9 0 1.5.2 1.7.5.1.2.1.6-.2 1-.2.4-.2.6-.1.7s.2.2.4.2c.5 0 1.1-.6 1.4-1.6 0-.4.4-.7 1.2-.9.5-.2.6-.7.6-1.1-.1-.3-.3-.5-.5-.5-.1 0-.2.1-.3.2-.3.3-.7.5-1.2.7-.1 0-.3 0-.4.1-.9.1-1.5-.2-2-.9l-1.2-2c-.2-.2-.3-.3-.5-.3h-.1l-.1.1c-.1.1-.1.4.1.7l.6 1.2c.1.2.1.4.1.5-.1.1-.3.2-.5.2-1.8.1-3.2-.7-4.6-2.6-.2-.3-.4-.4-.6-.4h-.1l-.2.2c-.1.2 0 .4.1.6l.6.9c.2.3.2.4.2.4 0 .1-.1.1-.3.2-1.5.1-3-.5-4.6-1.7-.3-.1-.4-.2-.6-.2-.2.2-.2.3-.1.5l.2.6c0 .1.1.2 0 .3s-.2.1-.4.1l-2.5.3c-.4 0-.6.2-.6.4s.3.4.9.3c2.6-.2 4.4-.1 5.7.3.1 0 .3.1.3.2s0 .2-.1.4l-.9 1c-.3.2-.4.5-.3.6 0 .1.1.2.3.2.1 0 .2 0 .3-.1 1.5-.9 2.6-1.4 3.5-1.5.3 0 .7 0 .9.1.2 0 .4.1.5.3s.1.4-.1.6l-.5 1.1c-.1.3-.1.5 0 .7h.2c.2 0 .3-.1.5-.3.8-.9 1.9-2 2.9-2.1zm-.5 5c-.4 0-.6-.1-.7-.3s0-.4.1-.5l.9-1.5c.1-.2 0-.4-.1-.5s-.2-.1-.4-.1c-.3 0-.6.2-.9.5-1.1 1.2-2.4 1.9-3.8 2-.3 0-.7 0-1 0-.4-.1-.6-.3-.7-.5s0-.5.2-.8l1.1-1.4c.1-.3.1-.5.1-.6h-.1l-.2-.1c-.1 0-.2.1-.4.1l-2.8 1.4c-.3.1-.6.2-.9.2-.6.1-1.1-.1-1.5-.6-.1-.2-.2-.3-.2-.4l.2-.2c.5-.3.9-.7 1.2-1.2.1-.2.2-.4.1-.5-.1-.2-.3-.3-.7-.3-1 .2-1.9.2-2.7.3-1.7.1-2.8.1-3.2-.3-.3-.2-.4-.5-.4-.7 0-.3.3-.6.9-1l2.8-1.1c.3-.1.5-.3.5-.4 0-.2-.1-.4-.2-.5-.1-.2-.2-.3-.2-.4s.2-.3.4-.4c.3-.2.7-.3 1-.4.9-.1 1.8.3 3.1 1.3.2.1.4.2.5.2.2-.2.2-.4.1-.7l-.3-1.1c-.1-.3-.1-.5 0-.6s.2-.2.5-.2c1.4-.1 2.7.7 4.3 2.5.3.3.5.5.7.4h.1l.2-.2c.1-.2 0-.5-.2-.8l-.5-1.1c-.1-.3 0-.5.1-.7s.4-.3.7-.4c.2 0 .4-.1.6-.1 1-.1 1.6.2 1.8.9l1.4 2.4c.2.3.5.5.7.5.3 0 .6-.2.8-.7.1-.4.3-.5.5-.5.4 0 1.2.4 2.2 1.3.4.4.8.6 1.4.5.2 0 .5-.1.8-.2 1.2-.5 2.4-.9 3.4-.9.5-.1 1-.1 1.5 0 .4.1.6.4.5.7-.1.4-.6.9-1.5 1-.1 0-.3 0-.4 0s-.3 0-.5 0c-1.1.1-2.7 1.1-3.9 2-.5.4-.9.5-1.2.5-.2 0-.5.1-.7.2-.4 0-.9.6-1.5 1.3-.8 1.1-2 2.5-3.6 2.7"/><path d="m30.8 148.6c.6-.1 1 .1 1.3.4 0 .1 0 .2.1.4 0 .3.1.8.5.7l2.2-.1c.2 0 .3-.1.4-.1.1-.2 0-.3-.1-.5-.4-.9-.7-1-1.1-1h-.2c-.2 0-.4 0-.6-.1-.9-.5-1.3-2-1.2-4.6.1-.3 0-.5-.1-.6h-.2c-.2 0-.3.2-.4.6l-.2 1.3c0 .5-.3.5-.3.6-.1 0-.2 0-.4-.1-1-.5-1.7-1.6-2.1-3.2-.1-.6.1-3.2-.8-1.6-.3.2-.9-.8-1.2-1.6-.1-.3-.2-.4-.4-.4-.2.2-.3.4-.3.6 0 .3-.1.6-.3.7s-.5.2-.4.4c0 .2.2.2.5.3.9.1 1.6 1.2 2.3 2.9.1.2.1.3.1.4l-2.6.1c-.1 0-.3 0-.4 0-.3 0-.4.2-.4.3 0 .3.3.5.7.5l2.6.4c.8-.1 1.5.4 2 1.3.2.3.3.6.2.7 0 .1-.1.2-.3.2-1.1.4-2.1.6-2.9.8-.4.1-.6.2-.6.3 0 .2.2.3.7.5.3.1.6.1 1 .1.5 0 1-.1 1.5-.2.5-.2.9-.3 1.4-.4m8.6 4.6c-.2 0-.3-.1-.5-.2-1.7-1.4-3.5-2-5.7-1.8-.8 0-1.6.2-2.4.5-.1 0-.3-.1-.3-.2-.1-.2-.1-.4 0-.8 0-.5-.2-.7-.6-.7-.1 0-.2 0-.4.1-.4.1-.8.1-1.1.1-2.4.2-3.9-.4-4.9-2-.1-.1-.1-.3 0-.4s.2-.1.4-.2l3.3-.4c.4 0 .5-.2.5-.3 0-.2-.1-.4-.5-.5-3.3-.5-5.3-1.5-5.9-3-.1-.2-.2-.4-.1-.5s.2-.2.6-.2l2.5.2c.4 0 .6-.1.6-.2.1-.2-.1-.4-.5-.6l-2.5-1.4c-.3-.2-.4-.5-.3-.7s.4-.4.9-.4h1c.4 0 .6-.1.8-.3.3-.3.3-.8.3-1.6v-.8c0-.6.1-.9.3-.9.1 0 .5.1 1.3 1.2.4.5.6.7.9.7s.5-.5.6-1.4c.1-.4.3-.4.4-.4.2 0 .4.1.6.2 1 .6 1 3.2.9 5.7-.1.2 0 .3.1.5.1.1.3.2.4.2s.5-.1.6-.8l.4-1.6c.1-.4.3-.7.6-.7.2 0 .6.1.9.4 1 .8 1.2 2.3 1.1 5.6 0 .3.1.5.2.6s.2.1.4.1.6-.2.7-.8c.1-.2.2-.4.3-.4s.3.2.4.6c.4 2.9 1.7 5 3.9 6.5.3.2.3.5.2.7-.1.1-.2.2-.4.3"/><path d="m38.6 147.2c-.4 0-.6-.2-.7-.5s0-.5.2-.7c.3-.2.7-.4 1-.4s.6 0 .8.2c.2.1.2.4.2.7-.2.4-.7.6-1.5.7z"/><path d="m32.3 155.3c-.1 0-.3 0-.4 0-.6-.2-.7-.7-.7-.9 0-.4.2-.8.4-.9s.4-.2.6-.2c.6-.1.9.3 1 1.2 0 .2-.1.4-.2.6-.1.1-.4.1-.7.2"/><path d="m40.8 152c-.2 0-.7-.3-1.2-1.1-.4-.7-.9-1.1-1.5-1.3-.4-.1-.6-.6-.5-.9s.3-.6.7-.6h.3c.4 0 .9-.1 1.4-.4.2-.1.3-.1.5-.1.4 0 .7.2.8.4.1.3 0 .6-.2.8-.5.4-.6.8-.5 1.4.4.9.5 1.5.4 1.7z"/><path d="m34.7 155.7c-.3 0-.6-.2-.7-.5 0-.7-.1-1.2-.3-1.6-.3-.4-.3-.9-.1-1.2.1-.2.3-.3.6-.4.2 0 .5.1.7.2.4.4 1 .7 1.7.6.6-.1 1.1.1 1.5.3.2.2.3.3.2.4-.2 0-.4.1-.5.1h-.1c-.7.1-1.6.2-2 1.2-.3.6-.7.9-1 .9"/><path d="m15.4 132c-.2 0-.3.2-.3.3 0 .2.2.3.4.3 1 0 1.9-.1 2.3.5.2.2.3.2.4.2h.1l.2-.2c.1-.1 0-.3-.1-.5-.4-.6-.3-1.2.5-2.2.2-.2.2-.5.2-.6v-.1l-.3-.1c-.1 0-.2 0-.3.1-.2.1-.4.1-.5.1-.4 0-.7-.1-1-.4-.3-.5-.3-1.4 0-2.4.4-1.1.8-2.4 1.2-3.6.1-.2.1-.5 0-.6h-.2c-.2 0-.4.2-.4.4-.3.7-.5 1.3-.8 1.8-.3.9-.6 1.6-.9 1.6-.4.1-1-.9-1.5-1.6-.6-.9-.5-1.8-.1-2.9.1-.2.1-.5 0-.6h-.2c-.2 0-.3.1-.3.3-.3.6-.5.8-.7.8-.3 0-.6-.4-1.1-.9-.1-.1-.2-.2-.4-.2s-.3.1-.4.3-.1.5.1.7l.2.2c.4.4 1.2 1.2 1.1 1.3h-.2c-.3 0-.7 0-1.1-.1h-.3c-.2 0-.3.2-.3.3s.1.4.5.4c2.2.2 3.9 2 3.8 3 0 .3-.3.5-.8.6-.4.1-.9 0-1.5-.2h-.2c-.2 0-.4.2-.4.3 0 .2.1.4.5.4 2.4.1 4.1 1.5 4 2.4 0 .5-.6.7-1.1.8zm7.6 6.5c-.1 0-.3 0-.4-.1-1.4-.6-2.6-1.5-3.8-2.8-.6-1.1-1.5-1.8-2.5-1.9-2-.3-3.4-.9-4.1-1.9-.2-.3-.1-.4-.1-.4 0-.1.2-.1.4-.1h1.1c.4 0 .5-.2.5-.3.1-.2-.2-.5-.7-.6-3.1-.5-4.6-1.4-4.7-2.7-.1-.3-.1-.5 0-.6s.2-.2.5-.2h.6.3c.1 0 .4 0 .4-.2 0-.1 0-.3-.6-.5-1.1-.3-1.9-1-2.6-1.7-.2-.3-.2-.7-.1-.9s.3-.3.6-.3c.1 0 .3 0 .5.1.3.1.5.2.7.2s.4-.2.4-.2c.1-.3 0-.7-.5-1.1-.1-.3-.2-.5-.1-.7s.3-.2.7-.3c.3 0 .4.1.6 0 .4 0 .8-.2 1.1-.6.1-.1.3-.1.4-.2.3 0 .5.1.8.5.1.5.5 1 .9.9.2 0 .4-.2.6-.7.2-.7.4-1.1.7-1.1.1 0 .3 0 .5.2.7.4.7 1.5.1 3.4-.1.3 0 .6.1.7v.1l.3.1c.3 0 .7-.5.9-1 .2-1.4.6-2.2 1.3-2.2h.5c.5.1.8.3 1 .7.5.9.3 2.5-.4 4.8-.1.4-.1.7.1.9.1.1.2.2.4.2s.4-.1.6-.4c.3-.4.6-.6.8-.6.1 0 .3.1.4.2.2.3.3 1-.1 2-1.9 3.9-1.1 6.8 2.3 8.8.2.2.4.5.3.8-.3-.3-.4-.3-.7-.3"/><path d="m22.3 136.4c-.2 0-.3-.1-.4-.4-.1-1.7-.4-2.7-.9-3.1-.2-.4-.3-.8-.1-1.1.1-.2.3-.3.5-.3h.3c.7.3 1.4.5 2.1.5.4 0 .7.3.7.6.1.3-.1.5-.3.7-.9.3-1.5.6-1.4 2 .1.8-.2 1.1-.5 1.1"/><path d="m23.6 131c-.2 0-.3 0-.5 0-.5-.1-.8-.3-.9-.7 0-.4.2-.7.6-.9.2 0 .4-.1.5-.1.4 0 .7 0 .8.2.2.2.3.5.2.9.1.4-.2.6-.7.6"/><path d="m15.3 138.2c-.5 0-.8-.2-.9-.5-.2-.4-.2-1 .1-1.3.2-.3.5-.4.7-.5.3 0 .7.2.9.8.1.4.1.8-.1 1-.1.3-.4.5-.7.5"/><path d="m17.2 139.5c-.3 0-.6-.1-.7-.3-.1-.1-.1-.3-.1-.5.2-.9.4-1.6.3-2 0-.6.5-1 .8-1s.6.1.8.4c.3.7.7 1.1 1.3 1.3 1 .5 1.3 1 1.3 1.2 0 .1-.2.2-.4.2-.1 0-.3 0-.4 0-.5-.2-.9-.4-1.3-.3-.3 0-.6.2-.8.4-.1.4-.5.6-.8.6"/><path d="m6.5 105.5c-.1.1-.1.3.1.7.7 1.2 1.6 2.6 1.3 3.4-.1.2-.3.4-.5.5-.2 0-.5.1-.5.3-.1.2.1.4.2.5.2.2.4.3.7.4.6.3.9.5.6 1.2l.1.8c.4.4.8.6 1.1.6.2 0 .4-.2.5-.4.1-.3 0-.8-.6-1.2-.3-.1-.4-.2-.5-.3 0-.1.1-.4.5-.8 1.1-1.2 1.1-1.4 1.1-1.6v-.1h-.2c-.1 0-.2.1-.4.1-.1.1-.3.1-.4.1-.5 0-.7-.2-.8-1.2-.1-1.2.2-1.4.7-1.7 1.2-.7 1.4-1 1.3-1.2 0-.2-.3-.2-.8-.2-.2.1-.3.1-.3.1-.1 0-.2 0-.2-.1-.1-.1-.1-.2 0-.5.1-1 .5-1.8 1.3-2.5.2-.3.4-.5.3-.7s-.4-.2-.6-.2c-.7.1-1.1.3-1.4.7-.3.3-.3.8-.3 1.3l-.3 2c-.1.3-.2.7-.4.7-.1 0-.2-.1-.4-.2-.7-.6-.9-.7-1-.7h-.1zm5.2 14-.3-.1c-.6-.3-.9-1-1.1-1.6-.5-2.6-1.1-3.3-1.9-3.6-1.2-.5-1.3-1.1-1.3-1.5 0-1.1-.5-1.4-1-1.6-1.3-.4-2-1-2.2-1.9s-.2-1.2-.1-1.4c.1-.1.1-.1.3-.2.3 0 .7.1 1.3.4h.3c.2 0 .3-.1.3-.2.1-.2.1-.5-.1-.9l-.9-1.4c-.4-.8-.3-1.6.3-2.2.5-.6.8-.8.9-.8s.2 0 .3.1c.6 1 .9 1.1 1.1 1.1.4 0 .4-.7.4-.9.1-1.5.4-3.4 1.5-3.5.2 0 .4 0 .6.1.3.2.6.3.9.3.5 0 1-.4 1.5-.9.2-.1.4-.2.5-.2.2 0 .4 0 .6.6.3 1.1-.1 2.2-1 3.2-.3.5-.4.7-.3.9 0 .1.1.2.3.1.3 0 .7-.2 1.4-.6.2-.1.3-.2.4-.2.2 0 .3.2.4.7.2 1.3-.8 2.5-3.2 3.7-.3.1-.5.4-.5.7s.2.4.5.4c.2 0 .3-.1.5-.2.5-.4.9-.6 1.3-.6s.6.1.7.4c.1.4 0 1.1-.9 1.9-.5.8-.8 1.2-1.3 1.4-.3.1-.5.2-.5.4-.1.2 0 .4.2.6.3.3.3.7 0 1.2-.9.8-.8 2.5.2 5.3.4.5.4.8.3 1-.2-.1-.3 0-.4 0"/><path d="m15.4 113.5c-.3 0-.6-.1-.9-.2-.4-.2-.4-.6-.3-.9s.4-.6.8-.6c.6 0 1 .1 1.2.4.1.2.1.5 0 1-.3.1-.5.2-.8.3"/><path d="m4.8 116.6c-.2 0-.4 0-.7-.1-.2-.2-.4-.6-.2-1 .1-.4.4-.7.7-.8.1 0 .2-.1.4-.1.3 0 .5 0 .7.2s.2.7.1 1.2c-.4.4-.6.6-1 .6"/><path d="m9.5 118.9c-.1 0-.2 0-.3-.1-.7-.6-1.2-1-1.8-.9-.2 0-.4.1-.6.3-.2.1-.3.1-.6.2-.3 0-.5-.1-.7-.2-.1-.2-.1-.4 0-.7.4-.7.8-1.4 1-2 .2-.3.4-.5.7-.5.5 0 .9.4.9.8l.3.9 1.1 1.4c.2.3.2.6.1.7.1 0-.1.1-.1.1z"/><path d="m13 118.1c-.1 0-.2 0-.4-.4-.1-.4-.1-.9 0-1.4.1-.6.2-1.1-.1-1.5-.1-.2-.1-.6.1-.9.1-.2.3-.4.5-.4l.2.1c.6.3 1.2.7 1.8.9.4.1.7.5.7.9 0 .3-.4.6-.9.7-.7.1-1.2.7-1.6 1.8-.1.2-.2.2-.3.2"/><path d="m101.7 149c-.3 0-.6-.1-.8-.3-.1-.2-.2-.4-.1-.7.2-.5 0-.9-.6-1.3-.4-.6-.6-1.2-.3-1.6.2-.5.8-.8 1.5-.9.6 0 1.1.2 1.3.5.3.4.3 1 0 1.8-.4.4-.5.8-.3 1.3.1.3.1.6-.1.8-.1.2-.3.3-.6.4"/><path d="m118.4 134.1c-.2 0-.6 0-.7-.5s-.4-.8-1.1-.8c-.8-.3-1.1-.8-1-1.5s1-1.5 1.7-1.5c.8 0 1.3.5 1.4 1.6-.2.5 0 .9.4 1.2.3.2.4.6.3.9-.1.2-.6.5-1 .6"/><path d="m127.4 114.6c-.3 0-.5-.1-.7-.4-.1-.4-.5-.5-1-.5-.1 0-.2 0-.3 0-1.2-.2-1.3-.9-1.3-1.4.1-.8.8-1.7 1.6-1.7.6 0 1.1.4 1.4 1.2l.1.2c.1.3.1.7.6.9.6.2.6.7.5.9-.2.4-.6.7-.9.8"/><path d="m105.8 155.4c-.6.1-1-.3-1.5-1 0-.5-.3-.9-.8-1-.4-.1-.6-.4-.6-.8.1-.5.5-.9.9-.9.2 0 .4.1.6.3.2.3.5.4.9.4.2 0 .3 0 .5-.1 1 0 1.6.4 1.6 1.1 0 .9-.8 2-1.6 2"/><path d="m124.7 137.6c-.4 0-.8-.1-1.2-.3-.2-.3-.5-.5-.9-.5l-.3.1h-.2c-.3 0-.5 0-.6-.2-.1-.1-.2-.3-.2-.5 0-.5.3-.9.9-1h.3c.1.1.3.1.4.1.3 0 .6-.2.9-.6.3-.2.6-.2.9-.3.5 0 .9.2 1 .5.3.5.4 1.3.1 1.9-.2.4-.5.7-1.1.8"/><path d="m134.3 116c-.2 0-.5 0-.8-.1-.2-.2-.5-.3-.9-.3-.2 0-.4.1-.6.2-.1 0-.2 0-.3.1-.6 0-.9-.4-.9-.8 0-.2.1-.5.2-.6.1-.2.3-.3.6-.3h.2.3c.3 0 .7-.3.9-.8.4-.4.7-.6 1.1-.6s.7.2 1 .5c.4.6.5 1.4.2 2-.3.5-.6.7-1 .7"/><path d="m86.3 160.5c-.5 0-1 0-1.4-.1-1.7-.5-3.1-1.4-4.4-2.2-2.3-1.2-4.2-1.7-5.9-1.7-.5-.1-.6-.5-.6-.8s.3-.7.7-.8c2.2.4 4.5 1.1 6.9 2 .4.2.9.2 1.3.2.5 0 1-.2 1.6-.5l.9-.4c4.4-2 8.3-3.7 12.4-4 .5 0 .9-.1 1.4-.1.4 0 .6.1.6.2s-.2.3-1.1.4c-.1 0-.3 0-.4 0-.8.1-1.6.3-2.5.7-1.2.5-2.2 1.1-3.3 1.6-2 1-3.7 1.9-5 2-.1 0-.3 0-.4 0-1.4.2-2.3.6-2.3 1 0 .3.3.5.8.5h1.2c1.8-.1 3.5-.9 4.9-1.6 2.4-1.6 5.2-3.3 8.3-3.8h.3.3s0 .2-.4.6c-1.9 2.1-5.6 3.7-8.6 4.8-.8.3-1.6.6-2.2.9-1.1.6-2.1 1-3.1 1.1"/><path d="m90.2 163c-2.9.2-4.6-.3-5.5-1.8.6.2 1.3.2 2.1.1 2.4-.2 5-1.4 7.3-2.5 1.8-.9 3.4-1.6 4.5-1.7.7-.1 1 .1 1 .2s-.1.2-.3.3l-7.8 3.2c-.5.2-.7.4-.7.7 0 .2.2.3.6.2 2.1-.5 3.7-1.4 5.2-2.2 1.5-.7 2.7-1.4 4-1.5h.5c.3 0 .4.1.4.2s-.1.2-.4.4c-3 1.7-6.4 3.1-10.2 4.3-.3 0-.5.1-.7.1"/><path d="m83.4 156.4c-.8.1-1.8-.2-2.1-.8h.1c1.6-.1 2.8-1.2 4.2-2.4.8-.7 1.6-1.4 2.5-2 .4-.3.8-.4 1.2-.4.5-.1 1-.2 1.7-.6 1.2-.7 2.1-1 3-1.1.6-.1 1.2.1 1.7.3.4.3.4.4.4.4h-.1c-.3 0-.5 0-.8 0-1.1.1-2.3.6-3.3 1.4l-2.9.8c-.8.3-1.6.7-1.6 1.1 0 .1.1.2.4.2h.3l1.5-.4c.5-.1.9-.4 1.4-.6.6-.3 1.2-.7 2-.8.8-.2 1.5-.3 2.1-.6.4-.1.7-.2 1.2-.4.4 0 .5.2.5.4 0 .3-.1.6-.4.6-.6.2-1.1.3-1.7.4-.9.2-1.8.4-2.8.8-2.8 1.1-5.4 2.2-7.5 3.4-.3.2-.6.2-1 .3"/><path d="m102 151.5c-.4 0-.7-.1-.8-.4-.1-.2 0-.5.2-.7.2-.5.8-1 1.8-1.6 1.4-1 3.4-2.4 5.2-4.7 1.2-1.8 3.3-3.5 5.8-5.5 1-.8 2.1-1.7 3.2-2.7.4-.4.5-.5.5-.5v.4c-.3 1.4-1.6 2.9-3.9 4.6-2.5 1.9-5.3 4.1-6.2 5.9-.2.4-.3.6-.2.7l.1.1h.1c.1 0 .4-.1 1.2-.7 1.7-2.1 3.4-3.7 5.2-4.8 2-1.5 3.4-3 4.2-4.8.2-.3.2-.4.2-.4s.1.2.1 1.1c0 1.6-1 3.3-3.1 5.1-2.8 2.7-5.2 4.5-7.4 5.6-2.8.6-4.5 1.5-5.3 2.8-.3.4-.6.5-.9.5"/><path d="m111.2 149.6c-.6.1-1.2.1-1.9.1-.6 0-1.2.1-1.8.1-.4 0-.5-.1-.6-.2 0-.1.1-.3.4-.4 5.7-1.9 8.8-5.2 11.2-8.5.2-.2.5-.4.7-.4l.3.1c.1.1.1.2.1.4-1.4 2.8-3.6 4.4-5.8 6.1l-.6.5c-.4.3-.6.6-.6.9 0 .1.2.2.4.2.1 0 .2 0 .3-.1 3-2 5.4-4.5 7.2-7.3.1-.2.2-.2.3-.2s.2.1.2.4c.2.8-.4 2-1.9 3.4-2 2.3-3.6 3.7-5.1 4.6-.7 0-1.7.2-2.8.3"/><path d="m104.9 146.6c-.1 0-.2 0-.2-.1-.1-.1-.1-.3 0-.5.2-.6.4-1.6.6-3.2.4-1.4 1-2.5 2.2-3.4 2.3-2 3.9-3.6 5.2-5.1.1-.2.2-.2.2-.2s.1.1.1.5c0 .8-.7 1.5-1.9 2.6-.6.6-1.4 1.4-2.3 2.3l-1.9 2.2c-.2.4-.2.6-.2.8l.1.1h.2c.2 0 .6-.2.9-.6 1.3-1.7 2.5-3.4 3.9-4.5.3-.3.5-.3.6-.3s.2.2 0 .7c-.1.8-.8 1.7-2 2.6-1.1.8-2.2 2.1-3.4 4-.5.9-1.2 1.6-2.1 2.1"/><path d="m119.9 136c-.2 0-.4-.1-.4-.2-.1-.2-.1-.6 0-.8 1.3-1.4 2.2-3.4 2.7-6.5l.5-1.4c1.1-2.9 2.6-6.8 4.6-9.2.4-.4.5-.4.5-.4s.1.1-.1.6c-.7 2.2-1.6 4.2-2.5 6.2-.8 1.6-1.4 3-1.9 4.5-.1.4-.1.7 0 .8h.1.2c.1 0 .3-.1.6-.3 1.4-1.8 2.3-4.5 3.1-7.1.6-1.9 1.2-3.8 2-5.3.4-.6.5-.6.5-.6s.1 0 .2.9c-.1 3.2-1.3 6.9-3.7 11.5-.4.6-1 1.1-1.5 1.5-.6.5-1.3 1-1.6 1.8-.8 1.4-1.4 2.5-2.6 3.7-.3.1-.5.2-.7.3"/><path d="m120.8 130.6c-.1 0-.2 0-.4-.2-2.8-4.2 0-9.1 2.8-12.5.3-.3.5-.4.6-.4.2.1.2.3.1.5-.8 1-1.1 1.6-1.3 3-.4 1.5-.8 2.2-1.2 2.8-.2.3-.4.6-.6 1-.4.8-.5 1.4-.3 1.7l.2.1c.2 0 .4-.2.5-.4.8-1.4 1.4-3 2-4.5s1-2.9 1.7-3.6c.2-.3.4-.3.5-.3l.2.1c.1.1.2.3.1.6-.4 1.5-1.4 3.8-3.1 6.8-.6.9-1 2-1.2 3.4-.2.9-.4 1.9-.6 1.9"/><path d="m124.5 132.3-.2-.1s-.1-.2.2-.6c2-1.8 3.4-3.7 4.2-5.9.5-2.8 1.4-4.2 3-5.2.4-.2.6-.3.8-.3 0 0 0 .2-.5.8-1 1.2-1.5 2.6-2 3.9s-1 2.7-1.9 3.8c-.3.4-.4.7-.3.8l.1.1h.2c.1 0 .3-.1.5-.2.7-.5 1.3-2 1.9-3.7.7-1.9 1.5-3.9 2.6-5.2.4-.3.5-.3.6-.3 0 0 .1.1-.2.8-.4 1-.8 2.1-1.1 3.1-.7 2-1.4 4-2.7 5.8-.5.5-1.1.9-1.7 1.1-.4.2-.7.3-1.1.4s-.8.3-1.2.5c-.7.3-1 .4-1.2.4"/><path d="m128.5 110.4c-.1 0-.3-.1-.5-.3-2.5-1.9-3.1-5.2-2-10.3.1-.2.1-.4.2-.5l.2.1c.8.9.7 1.5.4 2.5-.2 1.1-.6 2.6.3 5.4.1.4.4.4.5.4l.2-.1c.1-.1.1-.3 0-.5-.6-1.7-.7-3.1-.3-4.1.1-.6.2-1 .1-1.3s-.1-.4 0-.4.2 0 .4.1c.4.4.7 1.1.4 3.2-.2 1-.2 2 .2 3.2.3.9.4 1.6.2 2.2-.1.3-.1.4-.3.4"/><path d="m129.1 115.8c-.2 0-.3-.1-.5-.2-.1-.1-.2-.3-.2-.6 0-1.2.3-2.2.5-3.3.3-1.3.6-2.6.5-3.9-.1-4.9.3-7.8 1.5-9 .3-.2.4-.3.5-.3s.2.2.3.6c.2 1.2 0 2.4-.8 3.7-.5 1.7-.7 3.3-.6 5.2 0 .2.1.4.2.5s.2.1.4.1.5-.2.5-.8c-.2-1.9-.1-3.6.5-5.1.6-1.2.7-2.4.4-3.5 0-.3 0-.4 0-.4s.1 0 .4.2c.4.3.7.8.8 2.6 0 2.4-.2 4.3-.9 6-.5 1-.9 1.7-1.4 2.5-.6.9-1.1 1.7-1.5 2.7-.2.5-.4 1.1-.3 2.4.3.3 0 .6-.3.6"/><path d="m131.2 112.8h-.1c0-.1-.1-.2.1-.8l2.5-4.1c.6-.7.8-2.9.9-6.8 0-.4 0-.5.1-.6h.1l.2.1c.4.2.8.6.5 1.6l-.6 3.4-.4 2.3c0 .2 0 .4.1.6v.1l.2.1c.2 0 .4-.2.4-.6 0-1 .2-2 .7-3 .5-1.7.3-3.2 0-4.5-.1-.2 0-.3 0-.3s.1.1.4.4c.9 1.1 1.1 2.1.8 3.1-.3.7-.4 1.4-.2 2.1 0 1.4-.3 2.3-.9 2.9l-3.6 3.5c-.6.2-1 .5-1.2.5"/><path d="m618 33.2h2.6v133.6h-2.6z"/></g><g fill="#58595b"><path d="m733.7 93.2v28.7h38v-29.7l-14.2 23.8h-9.6z"/><path d="m731.8 56.8 21.2 34.7 20.6-34.7z"/><path d="m703.1 56.8h10.6v65.1h-10.6z"/><path d="m670.8 56.8h10.6v65.1h-10.6z"/><path d="m867.1 56.9h22v65.2h-22z"/><path d="m1006.8 105.5v16.6h-54.2v-65.2h53v16.6h-31.4v7.6h27.6v15.8h-27.6v8.6z"/><path d="m910 92.5v29.6h24.7z"/><path d="m931.4 57.6h-24.2l24.2 28.9z"/><path d="m833.5 104.6c-4.5 0-8.1-1.4-10.8-4.3s-4.1-6.7-4.1-11.6 1.4-8.7 4.1-11.6 6.3-4.3 10.8-4.3c5.3 0 10 2.5 13.9 7.5l13.5-12.1c-3.1-4.1-7.2-7.3-12-9.5s-10.4-3.3-16.6-3.3c-6.7 0-12.8 1.4-18.2 4.2-5 2.6-9 6.2-12 10.8v-13.6h-10.6v65.1h10.6v-14.9c3 4.6 7 8.2 12 10.8 5.4 2.8 11.5 4.2 18.2 4.2 6.2 0 11.7-1.1 16.6-3.3 4.8-2.2 8.8-5.3 12-9.5l-13.5-12.1c-3.9 5.1-8.6 7.5-13.9 7.5"/><path d="m670.6 134.1h1.5v10.3h-1.5z"/><path d="m684 134.1v10.3h-1.2l-6.2-7.7v7.7h-1.4v-10.3h1.2l6.1 7.7v-7.7z"/><path d="m687.9 144.2c-.7-.2-1.3-.6-1.7-.9l.5-1.1c.4.3.9.6 1.5.9.6.2 1.2.3 1.9.3.9 0 1.5-.1 1.9-.4s.6-.7.6-1.2c0-.4-.1-.6-.3-.9-.2-.2-.5-.4-.9-.5-.3-.1-.8-.2-1.4-.4-.8-.2-1.4-.4-1.9-.6s-.9-.5-1.2-.9-.5-.9-.5-1.6c0-.6.2-1.1.4-1.5.3-.4.7-.8 1.3-1.1s1.3-.4 2.2-.4c.6 0 1.2.1 1.8.2.6.2 1.1.4 1.5.7l-.5 1.2c-.4-.3-.9-.5-1.4-.6s-1-.2-1.4-.2c-.8 0-1.5.2-1.9.5s-.6.7-.6 1.2c0 .4.1.6.4.9.2.2.5.4.9.5.3.1.8.3 1.4.4.8.2 1.4.4 1.9.6s.9.5 1.2.9.5.9.5 1.5c0 .5-.1 1-.4 1.5-.3.4-.7.8-1.3 1.1s-1.3.4-2.2.4c-.9-.1-1.6-.2-2.3-.5"/><path d="m698.1 135.4h-3.5v-1.3h8.5v1.3h-3.5v9h-1.5z"/><path d="m704.7 134.1h1.5v10.3h-1.5z"/><path d="m711.3 135.4h-3.5v-1.3h8.5v1.3h-3.5v9h-1.5z"/><path d="m718.8 143.4c-.8-.8-1.2-1.9-1.2-3.4v-5.8h1.5v5.8c0 2.2 1 3.3 2.9 3.3.9 0 1.7-.3 2.2-.8.5-.6.7-1.4.7-2.5v-5.8h1.4v5.8c0 1.5-.4 2.6-1.2 3.4s-1.8 1.2-3.2 1.2-2.3-.4-3.1-1.2"/><path d="m731.2 135.4h-3.5v-1.3h8.5v1.3h-3.5v9h-1.5z"/><path d="m739.5 143.9c-.8-.5-1.5-1.1-2-1.9s-.7-1.7-.7-2.7.2-1.9.7-2.7 1.1-1.4 2-1.9c.8-.5 1.8-.7 2.8-.7s2 .2 2.8.7 1.5 1.1 2 1.9.7 1.7.7 2.7-.2 1.9-.7 2.7-1.1 1.4-2 1.9-1.8.7-2.8.7c-1-.1-2-.3-2.8-.7m4.9-1.2c.6-.3 1.1-.8 1.4-1.4s.5-1.3.5-2-.2-1.4-.5-2c-.4-.6-.8-1.1-1.4-1.4s-1.3-.5-2-.5-1.4.2-2 .5-1.1.8-1.4 1.4-.5 1.3-.5 2 .2 1.4.5 2 .8 1.1 1.4 1.4c.6.4 1.3.5 2 .5s1.4-.1 2-.5"/><path d="m763.5 144.4v-7.5l-3.7 6.3h-.7l-3.7-6.2v7.4h-1.4v-10.3h1.2l4.3 7.3 4.2-7.3h1.2v10.3z"/><path d="m775.5 143.1v1.3h-7.5v-10.3h7.3v1.3h-5.8v3.2h5.1v1.2h-5.1v3.3z"/><path d="m784.2 144.4-3.1-4.2-3 4.2h-1.7l3.9-5.3-3.7-5h1.7l2.9 4 2.8-4h1.7l-3.7 5 3.9 5.3z"/><path d="m787.3 134.1h1.5v10.3h-1.5z"/><path d="m793.7 143.9c-.8-.5-1.5-1.1-1.9-1.9-.5-.8-.7-1.7-.7-2.7s.2-1.9.7-2.7 1.1-1.4 2-1.9c.8-.5 1.8-.7 2.8-.7.8 0 1.5.1 2.2.4s1.2.7 1.7 1.2l-1 .9c-.8-.8-1.7-1.2-2.9-1.2-.8 0-1.4.2-2.1.5-.6.3-1.1.8-1.4 1.4-.4.6-.5 1.3-.5 2s.2 1.4.5 2 .8 1.1 1.4 1.4c.6.4 1.3.5 2.1.5 1.2 0 2.1-.4 2.9-1.2l1 .9c-.5.5-1 .9-1.7 1.2s-1.4.4-2.2.4c-1.2.1-2.1-.1-2.9-.5"/><path d="m808.8 141.9h-5.5l-1.1 2.6h-1.5l4.7-10.3h1.4l4.7 10.3h-1.5zm-.5-1.2-2.2-5-2.2 5z"/><path d="m821.9 134.1v10.3h-1.2l-6.2-7.7v7.7h-1.5v-10.3h1.2l6.2 7.7v-7.7z"/><path d="m826.8 143.9c-.8-.5-1.5-1.1-2-1.9s-.7-1.7-.7-2.7.2-1.9.7-2.7 1.1-1.4 2-1.9c.8-.5 1.8-.7 2.8-.7s2 .2 2.8.7 1.5 1.1 2 1.9.7 1.7.7 2.7-.2 1.9-.7 2.7-1.1 1.4-2 1.9-1.8.7-2.8.7c-1-.1-2-.3-2.8-.7m4.8-1.2c.6-.3 1.1-.8 1.4-1.4s.5-1.3.5-2-.2-1.4-.5-2c-.4-.6-.8-1.1-1.4-1.4s-1.3-.5-2-.5-1.4.2-2.1.5c-.6.3-1.1.8-1.4 1.4s-.5 1.3-.5 2 .2 1.4.5 2c.4.6.8 1.1 1.4 1.4.6.4 1.3.5 2.1.5s1.4-.1 2-.5"/><path d="m841.3 134.1h4.3c1.1 0 2 .2 2.9.6.8.4 1.5 1 2 1.8s.7 1.7.7 2.7-.2 1.9-.7 2.7-1.1 1.4-2 1.8c-.8.4-1.8.6-2.9.6h-4.3zm4.2 9c.8 0 1.6-.2 2.2-.5s1.1-.8 1.5-1.4c.3-.6.5-1.3.5-2s-.2-1.4-.5-2c-.4-.6-.8-1-1.5-1.4-.6-.3-1.4-.5-2.2-.5h-2.8v7.7z"/><path d="m860.9 143.1v1.3h-7.5v-10.3h7.3v1.3h-5.8v3.2h5.1v1.2h-5.1v3.3z"/><path d="m869 143.9c-.8-.5-1.5-1.1-1.9-1.9-.5-.8-.7-1.7-.7-2.7s.2-1.9.7-2.7 1.1-1.4 2-1.9c.8-.5 1.8-.7 2.8-.7.8 0 1.5.1 2.2.4s1.2.7 1.7 1.2l-1 .9c-.8-.8-1.7-1.2-2.9-1.2-.8 0-1.5.2-2.1.5s-1.1.8-1.5 1.4c-.3.6-.5 1.3-.5 2s.2 1.4.5 2c.4.6.8 1.1 1.5 1.4.6.4 1.3.5 2.1.5 1.2 0 2.1-.4 2.9-1.2l1 .9c-.5.5-1 .9-1.7 1.2s-1.4.4-2.2.4c-1.1.1-2.1-.1-2.9-.5"/><path d="m877.8 134.1h1.5v10.3h-1.5z"/><path d="m891.2 134.1v10.3h-1.2l-6.1-7.7v7.7h-1.5v-10.3h1.2l6.2 7.7v-7.7z"/><path d="m901.8 143.1v1.3h-7.5v-10.3h7.3v1.3h-5.8v3.2h5.1v1.2h-5.1v3.3z"/><path d="m913.7 144.4v-7.5l-3.7 6.3h-.7l-3.7-6.2v7.4h-1.4v-10.3h1.2l4.3 7.3 4.2-7.3h1.2v10.3z"/><path d="m924.8 141.9h-5.5l-1.1 2.6h-1.5l4.7-10.3h1.4l4.7 10.3h-1.5zm-.6-1.2-2.2-5-2.2 5z"/><path d="m930.5 135.4h-3.5v-1.3h8.5v1.3h-3.6v9h-1.4z"/><path d="m938.8 143.9c-.8-.5-1.5-1.1-2-1.9s-.7-1.7-.7-2.7.2-1.9.7-2.7 1.1-1.4 2-1.9c.8-.5 1.8-.7 2.8-.7s2 .2 2.8.7 1.5 1.1 2 1.9.7 1.7.7 2.7-.2 1.9-.7 2.7-1.1 1.4-2 1.9c-.8.5-1.8.7-2.8.7s-2-.3-2.8-.7m4.8-1.2c.6-.3 1.1-.8 1.4-1.4s.5-1.3.5-2-.2-1.4-.5-2c-.4-.6-.8-1.1-1.4-1.4s-1.3-.5-2-.5c-.8 0-1.4.2-2 .5s-1.1.8-1.4 1.4-.5 1.3-.5 2 .2 1.4.5 2c.4.6.8 1.1 1.4 1.4.6.4 1.3.5 2 .5s1.4-.1 2-.5"/><path d="m956.4 139.2h1.4v4c-.5.4-1.1.7-1.8 1-.7.2-1.4.3-2.1.3-1 0-2-.2-2.8-.7-.8-.4-1.5-1.1-2-1.9s-.7-1.7-.7-2.7.2-1.9.7-2.7 1.1-1.4 2-1.9c.8-.5 1.8-.7 2.8-.7.8 0 1.6.1 2.2.4.7.3 1.2.7 1.7 1.2l-.9.9c-.8-.8-1.8-1.2-3-1.2-.8 0-1.5.2-2.1.5s-1.1.8-1.5 1.4-.5 1.3-.5 2 .2 1.4.5 2c.4.6.8 1.1 1.5 1.4s1.3.5 2.1.5c.9 0 1.7-.2 2.4-.7z"/><path d="m967.5 144.4-2.2-3.2c-.3 0-.5 0-.6 0h-2.5v3.1h-1.5v-10.3h4c1.3 0 2.4.3 3.1 1 .8.6 1.2 1.5 1.2 2.6 0 .8-.2 1.5-.6 2-.4.6-.9 1-1.7 1.2l2.4 3.5zm-.8-5c.5-.4.7-1 .7-1.7s-.2-1.3-.7-1.7-1.2-.6-2.1-.6h-2.5v4.6h2.5c.9 0 1.6-.2 2.1-.6"/><path d="m977.9 141.9h-5.5l-1.1 2.6h-1.5l4.7-10.3h1.4l4.7 10.3h-1.6zm-.5-1.2-2.2-5-2.2 5z"/><path d="m983.6 135.4v3.6h5.1v1.3h-5.1v4.1h-1.5v-10.3h7.2v1.3z"/><path d="m993 131.4h1.8l-2.5 1.9h-1.3zm-1.6 2.7h1.5v10.3h-1.5z"/><path d="m1002.5 141.9h-5.5l-1.1 2.6h-1.5l4.7-10.3h1.5l4.7 10.3h-1.5zm-.5-1.2-2.2-5-2.2 5z"/><path d="m1128.2 69.1v12.2h24.6v12.2h-24.6v19.1h-15.7v-55.7h43.7v12.2z"/><path d="m1178.7 110c-4.7-2.5-8.4-5.9-11.1-10.3s-4-9.4-4-14.9 1.3-10.5 4-14.9 6.4-7.8 11.1-10.3 10-3.7 15.9-3.7 11.2 1.2 15.9 3.7 8.4 5.9 11.1 10.3 4 9.4 4 14.9-1.3 10.5-4 14.9-6.4 7.8-11.1 10.3-10 3.7-15.9 3.7-11.2-1.2-15.9-3.7zm23.5-11.3c2.3-1.3 4.1-3.2 5.4-5.6s2-5.2 2-8.3-.7-5.9-2-8.3-3.1-4.3-5.4-5.6-4.8-2-7.6-2-5.4.7-7.6 2-4.1 3.2-5.4 5.6-2 5.2-2 8.3.7 5.9 2 8.3 3.1 4.3 5.4 5.6 4.8 2 7.6 2 5.3-.7 7.6-2z"/><path d="m1249.9 110c-4.6-2.5-8.3-5.9-10.9-10.3s-4-9.4-4-15 1.3-10.5 4-15c2.6-4.4 6.3-7.8 10.9-10.3s9.9-3.7 15.7-3.7c5.1 0 9.7.9 13.8 2.7s7.5 4.4 10.2 7.8l-10 9.1c-3.6-4.3-8-6.5-13.1-6.5-3 0-5.7.7-8.1 2s-4.2 3.2-5.5 5.6-2 5.2-2 8.3.6 5.9 2 8.3c1.3 2.4 3.1 4.3 5.5 5.6s5 2 8.1 2c5.1 0 9.5-2.2 13.1-6.5l10 9.1c-2.7 3.4-6.1 6-10.2 7.8s-8.7 2.7-13.8 2.7c-5.8 0-11-1.2-15.7-3.7z"/><path d="m1300.4 56.9h15.7v55.7h-15.7z"/><path d="m1425.6 100.4v12.2h-44.7v-55.7h43.7v12.2h-28.1v9.4h24.7v11.8h-24.7v10.2z"/><path d="m1336.6 56.7h22.8v24.7z"/><path d="m1339.5 88 23.1 25.5h-23.5z"/><path d="m1236 128.7c-.4-.2-.8-.3-1.2-.3s-.8.1-1.2.3-.6.5-.9.9-.3.8-.3 1.3.1.9.3 1.3.5.7.9.9.8.3 1.2.3.8-.1 1.2-.3.6-.5.9-.9.3-.8.3-1.3-.1-.9-.3-1.3c-.2-.3-.5-.7-.9-.9z"/><path d="m1167.6 131.8h2.3l-1.2-2.8z"/><path d="m1159.3 128.5h-1.4v2.6h1.4c.5 0 .9-.1 1.2-.3s.4-.5.4-.9-.1-.7-.4-1-.7-.4-1.2-.4z"/><path d="m1204.1 128.5h-1.6v4.8h1.6c.7 0 1.3-.2 1.8-.6s.7-1 .7-1.8-.2-1.3-.7-1.8c-.5-.4-1.1-.6-1.8-.6z"/><path d="m1189.4 131.8h2.3l-1.2-2.8z"/><path d="m1140.8 128.7c-.4-.2-.8-.3-1.2-.3s-.8.1-1.2.3-.6.5-.9.9-.3.8-.3 1.3.1.9.3 1.3.5.7.9.9.8.3 1.2.3.8-.1 1.2-.3.6-.5.9-.9.3-.8.3-1.3-.1-.9-.3-1.3-.5-.7-.9-.9z"/><path d="m1284.9 128.7c-.4-.2-.8-.3-1.2-.3s-.8.1-1.2.3-.6.5-.9.9-.3.8-.3 1.3.1.9.3 1.3.5.7.9.9.8.3 1.2.3.8-.1 1.2-.3.6-.5.9-.9.3-.8.3-1.3-.1-.9-.3-1.3-.5-.7-.9-.9z"/><path d="m1296.4 131.8h2.3l-1.1-2.8z"/><path d="m1418.5 128.7c-.4-.2-.8-.3-1.2-.3s-.8.1-1.2.3-.6.5-.9.9-.3.8-.3 1.3.1.9.3 1.3.5.7.9.9.8.3 1.2.3.8-.1 1.2-.3.6-.5.9-.9.3-.8.3-1.3-.1-.9-.3-1.3-.5-.7-.9-.9z"/><path d="m1129.8 128.5h-1.4v2.6h1.4c.5 0 .9-.1 1.2-.3s.4-.5.4-.9-.1-.7-.4-1-.7-.4-1.2-.4z"/><path d="m1120.7 128.5h-1.4v2.6h1.4c.5 0 .9-.1 1.2-.3s.4-.5.4-.9-.1-.7-.4-1-.7-.4-1.2-.4z"/><path d="m1112.3 119.2v25h313.9v-25zm11.9 12.3c-.3.5-.8.9-1.3 1.1-.6.3-1.3.4-2.1.4h-1.5v2.3h-2.5v-8.8h4c.8 0 1.5.1 2.1.4s1 .6 1.3 1.1.5 1.1.5 1.7-.1 1.3-.5 1.8zm7.1 3.8-1.6-2.3h-1.3v2.3h-2.5v-8.8h4c.8 0 1.5.1 2.1.4s1 .6 1.3 1.1.5 1.1.5 1.7-.1 1.2-.4 1.7-.7.8-1.3 1.1l1.9 2.8zm12.6-2c-.4.7-1 1.2-1.7 1.6s-1.6.6-2.5.6-1.8-.2-2.5-.6-1.3-.9-1.7-1.6-.6-1.5-.6-2.3.2-1.7.6-2.3c.4-.7 1-1.2 1.7-1.6s1.6-.6 2.5-.6 1.8.2 2.5.6 1.3.9 1.7 1.6.6 1.5.6 2.3-.2 1.6-.6 2.3zm4.3-1.1c.2.4.5.7.9.9s.8.3 1.3.3.9-.1 1.3-.3v-2.4h2.2v3.6c-.5.4-1.1.6-1.7.8-.7.2-1.3.3-2 .3-.9 0-1.7-.2-2.5-.6-.7-.4-1.3-.9-1.7-1.6s-.6-1.5-.6-2.4.2-1.7.6-2.4 1-1.2 1.7-1.6 1.6-.6 2.5-.6c.8 0 1.6.1 2.2.4.7.3 1.2.7 1.6 1.2l-1.6 1.4c-.6-.7-1.3-1-2.1-1-.7 0-1.4.2-1.8.7-.5.5-.7 1.1-.7 1.8.1.7.2 1.2.4 1.5zm12.7 3.1-1.6-2.3h-1.3v2.3h-2.5v-8.8h4c.8 0 1.5.1 2.1.4s1 .6 1.3 1.1.5 1.1.5 1.7-.1 1.2-.4 1.7-.7.8-1.3 1.1l1.9 2.8zm10.4 0-.7-1.7h-3.7l-.7 1.7h-2.5l3.9-8.8h2.4l3.9 8.8zm11.2 0v-4.6l-2.3 3.8h-1.1l-2.2-3.7v4.5h-2.3v-8.8h2l3.1 5.1 3-5.1h2v8.8zm10.6 0-.7-1.7h-3.7l-.7 1.7h-2.5l3.9-8.8h2.4l3.9 8.8zm15.3-2.1c-.4.7-1 1.2-1.7 1.5-.7.4-1.6.5-2.6.5h-4.1v-8.8h4.1c1 0 1.8.2 2.6.5.7.4 1.3.9 1.7 1.5.4.7.6 1.4.6 2.3s-.2 1.9-.6 2.5zm9 2.1h-7v-8.8h6.9v1.9h-4.4v1.5h3.9v1.9h-3.9v1.6h4.6v1.9zm11.9-6.8h-4.4v1.9h3.9v1.9h-3.9v3h-2.5v-8.8h6.9zm9.7 4.8c-.4.7-1 1.2-1.7 1.6s-1.6.6-2.5.6-1.8-.2-2.5-.6-1.3-.9-1.7-1.6-.6-1.5-.6-2.3c0-.9.2-1.7.6-2.3.4-.7 1-1.2 1.7-1.6s1.6-.6 2.5-.6 1.8.2 2.5.6 1.3.9 1.7 1.6.6 1.5.6 2.3c.1.8-.1 1.6-.6 2.3zm9.9 2v-4.6l-2.3 3.8h-1.1l-2.2-3.7v4.5h-2.3v-8.8h2l3.1 5.1 3-5.1h2v8.8zm11.1 0h-7v-8.8h6.9v1.9h-4.4v1.5h3.9v1.9h-3.9v1.6h4.6v1.9zm9.7 0h-2l-3.9-4.7v4.7h-2.4v-8.8h2l3.9 4.7v-4.7h2.4zm8.8-6.8h-2.7v6.8h-2.5v-6.8h-2.7v-2h7.9zm9.4 4.8c-.4.7-1 1.2-1.7 1.6s-1.6.6-2.5.6-1.8-.2-2.5-.6-1.3-.9-1.7-1.6-.6-1.5-.6-2.3c0-.9.2-1.7.6-2.3.4-.7 1-1.2 1.7-1.6s1.6-.6 2.5-.6 1.8.2 2.5.6 1.3.9 1.7 1.6.6 1.5.6 2.3c.1.8-.1 1.6-.6 2.3zm12.2 2-.7-1.7h-3.7l-.7 1.7h-2.5l3.9-8.8h2.4l3.9 8.8zm9.9 0h-6.7v-8.8h2.5v6.8h4.2zm7-3.1c.2.4.5.7.9.9s.8.3 1.3.3c.8 0 1.5-.3 2.1-1l1.6 1.4c-.4.5-1 .9-1.6 1.2s-1.4.4-2.2.4c-.9 0-1.7-.2-2.5-.6-.7-.4-1.3-.9-1.7-1.6s-.6-1.5-.6-2.4.2-1.7.6-2.4 1-1.2 1.7-1.6 1.6-.6 2.5-.6c.8 0 1.5.1 2.2.4.6.3 1.2.7 1.6 1.2l-1.6 1.4c-.6-.7-1.3-1-2.1-1-.5 0-.9.1-1.3.3s-.7.5-.9.9-.3.8-.3 1.3.1 1.2.3 1.5zm9.4 3.1h-2.5v-8.8h2.5zm10.1 0h-2l-3.9-4.7v4.7h-2.4v-8.8h2l3.9 4.7v-4.7h2.4zm8.8 0h-7v-8.8h6.9v1.9h-4.4v1.5h3.9v1.9h-3.9v1.6h4.6v1.9zm12.9 0v-4.6l-2.3 3.8h-1.1l-2.2-3.7v4.5h-2.3v-8.8h2l3.1 5.1 3-5.1h2v8.8zm11.1 0h-7v-8.8h6.9v1.9h-4.4v1.5h3.9v1.9h-3.9v1.6h4.6v1.9zm6.9 0-1.8-2.7-1.8 2.7h-2.8l3.2-4.4-3.1-4.3h2.8l1.8 2.5 1.7-2.5h2.7l-3.1 4.2 3.3 4.5zm5.9 0h-2.5v-8.8h2.5zm6.1.2c-.9 0-1.7-.2-2.5-.6-.7-.4-1.3-.9-1.7-1.6s-.6-1.5-.6-2.4.2-1.7.6-2.4 1-1.2 1.7-1.6 1.6-.6 2.5-.6c.8 0 1.5.1 2.2.4.6.3 1.2.7 1.6 1.2l-1.6 1.4c-.6-.7-1.3-1-2.1-1-.5 0-.9.1-1.3.3s-.7.5-.9.9-.3.8-.3 1.3.1.9.3 1.3.5.7.9.9.8.3 1.3.3c.8 0 1.5-.3 2.1-1l1.6 1.4c-.4.5-1 .9-1.6 1.2-.7.4-1.4.6-2.2.6zm11.3-.2-.7-1.7h-3.7l-.7 1.7h-2.5l3.9-8.8h2.4l3.9 8.8zm11.6 0h-2l-3.9-4.7v4.7h-2.4v-8.8h2l3.9 4.7v-4.7h2.4zm10.5-2c-.4.7-1 1.2-1.7 1.6s-1.6.6-2.5.6-1.8-.2-2.5-.6-1.3-.9-1.7-1.6-.6-1.5-.6-2.3c0-.9.2-1.7.6-2.3.4-.7 1-1.2 1.7-1.6s1.6-.6 2.5-.6 1.8.2 2.5.6 1.3.9 1.7 1.6.6 1.5.6 2.3-.2 1.6-.6 2.3z"/><path d="m1395.8 131.8h2.3l-1.1-2.8z"/></g></svg>