<svg viewBox="0 0 172.54 200" xmlns="http://www.w3.org/2000/svg"><g fill="#221f20"><path d="m115.63 44.02.14 13.77-32.17.34c-1.9.02-3.68.39-5.33 1.12-1.66.73-3.11 1.73-4.36 3.01s-2.23 2.74-2.92 4.36c-.69 1.63-1.03 3.39-1.01 5.29l.14 13.77-13.65.14-.14-13.77c-.04-3.8.64-7.37 2.02-10.71 1.39-3.34 3.32-6.27 5.79-8.79s5.35-4.51 8.66-5.97 6.86-2.21 10.66-2.25l32.17-.34zm.43 41.19.14 13.77c.04 3.8-.63 7.37-2.02 10.71s-3.32 6.27-5.78 8.79c-2.47 2.52-5.35 4.51-8.66 5.97s-6.86 2.21-10.66 2.25l-32.17.34-.14-13.77 32.17-.34c1.9-.02 3.66-.39 5.27-1.12s3.05-1.71 4.3-2.95 2.23-2.69 2.92-4.36 1.03-3.45 1.01-5.35l-.14-13.77 13.77-.14z"/><path d="m87.14 168.08c-45.52.48-82.95-36.17-83.42-81.7s36.16-82.94 81.69-83.42c45.52-.48 82.95 36.17 83.42 81.7.48 45.52-36.17 82.95-81.7 83.42zm-1.67-159.96c-42.69.45-77.05 35.53-76.6 78.21s35.53 77.04 78.21 76.59 77.04-35.53 76.59-78.21-35.53-77.04-78.21-76.59z"/><path d="m23.93 186.82c-.02-1.81.87-2.72 2.68-2.74s2.72.88 2.74 2.68l.02 1.78-2.09.02-.02-1.78c0-.47-.21-.7-.62-.7h-.01c-.41 0-.61.24-.6.72v1.12c.02.51.56 1.15 1.64 1.91 1.16.8 1.74 1.78 1.75 2.92l.02 1.56c.02 1.81-.87 2.73-2.68 2.75-1.81.01-2.72-.88-2.74-2.69l-.02-1.78 2.09-.02.02 1.78c0 .47.21.71.63.7.41 0 .61-.24.61-.72v-1.41c-.02-.56-.56-1.22-1.64-1.97-1.16-.8-1.74-1.79-1.75-2.97v-1.16z"/><path d="m44.93 184.08 2.09-.02.06 5.28h1.24s-.06-5.3-.06-5.3l2.09-.02.13 12.58-2.09.02-.06-5.28h-1.24s.06 5.3.06 5.3l-2.09.02z"/><path d="m71.46 191.87.64 4.5-2.11.02-.37-2.61-1.54.02-.32 2.62-2.1.02.55-4.5 1.19-8.1 2.71-.03 1.35 8.05zm-2.13-.09-.54-3.8-.46 3.81h1.01z"/><path d="m87.28 196.21-.13-12.58 2.09-.02.11 10.57 2.83-.03.02 2-4.93.05z"/><path d="m112.62 191.44.64 4.5-2.11.02-.37-2.61-1.54.02-.32 2.62-2.1.02.55-4.5 1.19-8.1 2.71-.03 1.35 8.05zm-2.13-.09-.54-3.8-.46 3.81h1.01z"/><path d="m128.43 195.78-.13-12.58 2.09-.02.11 10.57 2.83-.03.02 2-4.93.05z"/><path d="m153.77 191 .64 4.5-2.11.02-.37-2.61-1.54.02-.32 2.62-2.1.02.55-4.5 1.19-8.1 2.71-.03 1.35 8.05zm-2.13-.09-.54-3.8-.46 3.81h1.01z"/></g></svg>