<svg clip-rule="evenodd" fill-rule="evenodd" stroke-linejoin="round" stroke-miterlimit="2" viewBox="0 0 282 99" xmlns="http://www.w3.org/2000/svg"><g transform="matrix(1.09869 0 0 .58673 -660.7518 169.562)"><path d="m601.736-288.994h255.766v167.5h-255.766z" fill="none"/><path d="m0-15.399h-9.187v-7.83h28.3v7.83h-9.187v23.229h-9.926z" fill="#0f1820" fill-rule="nonzero" transform="matrix(.910173 0 0 1.70436 640.41554424 -193.04763344)"/><path d="m0-3.741h7.04c1.936 0 2.746-.957 2.746-2.914 0-2.349-1.232-2.915-2.887-2.915h-6.899zm-9.926-13.659h20.909c2.851 0 4.575.304 5.948 1.131 1.866 1.131 3.415 4.132 3.415 7.525 0 2.915-.986 6.047-3.872 7.091v.087c1.478.522 2.675 2.088 2.851 4.785l.422 6.786c.106 1.392.599 2.697 1.232 3.654h-10.841c-.352-.914-.352-2.262-.528-5.873-.106-2.305-.739-3.697-2.57-3.697h-7.04v9.57h-9.926z" fill="#0f1820" fill-rule="nonzero" transform="matrix(.910173 0 0 1.70436 668.93126433 -202.98234788)"/><path d="m1360.26 667.774h9.926v31.059h-9.926z" fill="#0f1820" transform="matrix(.910173 0 0 1.70436 -547.251 -1370.76550652)"/><g fill-rule="nonzero"><path d="m0 15.921h8.483c1.971 0 2.57-1.044 2.57-2.436 0-1.348-.599-2.436-2.57-2.436h-8.483zm0-11.919h7.498c2.006 0 2.464-.826 2.464-2.045 0-1.13-.458-1.957-2.464-1.957h-7.498zm-9.715-11.571h22.598c5.139 0 7.427 2.784 7.427 7.743 0 2.74-1.091 5.133-2.992 6.047v.086c3.239 1.045 4.295 4.785 4.295 7.091 0 6.09-2.464 10.092-9.821 10.092h-21.507z" fill="#ff9014" transform="matrix(.910173 0 0 1.70436 713.21118078 -219.73791104)"/><path d="m0-32.146h9.926v18.792c0 4.002 1.866 5.264 5.104 5.264 3.239 0 5.104-1.262 5.104-5.264v-18.792h9.927v19.27c0 9.875-4.823 12.876-15.031 12.876s-15.03-3.001-15.03-12.876z" fill="#0f1820" transform="matrix(.910173 0 0 1.70436 735.92909886 -177.84985532)"/><path d="m0-31.059h11.335l10.066 17.226h.106v-17.226h9.504v31.059h-10.876l-10.561-17.4h-.07v17.4h-9.504z" fill="#0f1820" transform="matrix(.910173 0 0 1.70436 767.23905006 -179.70249464)"/><path d="m0-12.267h-.07l-2.957 10.527h5.984zm-6.125-9.396h12.179l10.701 31.059h-10.56l-1.056-3.567h-10.349l-1.056 3.567h-10.56z" fill="#0f1820" transform="matrix(.910173 0 0 1.70436 811.93764609 -195.7166612)"/></g></g></svg>