<svg enable-background="new 0 0 185 100" viewBox="0 0 185 100" xmlns="http://www.w3.org/2000/svg"><g fill="#ed2517"><path d="m25.4 30.8h-7.8v28c-3.3-10.3-6.7-17.2-10.1-28h-7.5v49.6c2.5-.4 5.2-.7 7.8-1 0-10.4 0-16.8 0-27.1 3.5 10.2 5.6 16.2 9.1 25.9 2.7-.3 5.7-.7 8.4-1 0-15.4 0-30.9.1-46.4"/><path d="m54.4 30.8h-21.5c0 15.3-.1 30.5-.1 45.8 7.2-.6 14.4-1.2 21.7-1.6 0-2.2 0-5.4 0-7.7-4.7.3-9.2.6-13.9.9 0-4.1 0-7.5 0-11.6 3.4-.1 7 0 10.5-.1 0-2.2 0-5.5 0-7.7-3.5.1-7.1.1-10.5.1 0-4.1 0-6.4 0-10.5h6.3 1.1 1.1 5.3c.1-2.1.1-5.3 0-7.6"/><path d="m83.5 30.9c-7.9 0-16.1 0-24 0v7.6h1 3.1 3.1.8v35.9c2.5-.1 5.3-.2 7.8-.2 0-12.2 0-23.4 0-35.7h8.1c.1-2.2.1-5.4.1-7.6"/><path d="m110.3 30.8h-21.7v43.1h2.5 5.2c0-6.1 0-11.7 0-17.8h1.3 3.1 3.1s2.1 0 3.1 0c0-2.2 0-5.4 0-7.6-1 0-1.9 0-2.9 0-1.1 0-2.1 0-3.2 0s-2.1 0-3.2 0c-.4 0-.8 0-1.2 0 0-3.9 0-6.1 0-10.1h2.5 2.6 2.6 6.3c-.1-2.1-.1-5.4-.1-7.6"/><path d="m115.3 30.9c0 14.5-.1 29 0 43.5 6.9.3 14.2.5 21.1 1 0-2.2 0-5.4 0-7.7-4.4-.3-8.9-.6-13.3-.7 0-12.4 0-23.7 0-36.1-2.5 0-5.2 0-7.8 0"/><path d="m142.8 30.9c0 15 .1 30 .1 45 2.5.2 5.2.4 7.7.6 0-15.2 0-30.4 0-45.6-2.6 0-5.3 0-7.8 0"/><path d="m157.3 30.9c3.1 7.6 6 15.2 9.1 23.3-3.3 7.7-6.6 15.4-9.9 22.9 2.7.3 5.5.7 8.3 1 1.9-4.8 3.7-8.5 5.7-13.4 1.9 5.2 3.7 9.3 5.7 14.7 2.7.4 6.2.9 8.9 1.2-3.3-8.8-6.9-17.9-10.2-26.2 3.3-7.8 6.6-15.2 10.1-23.4-2.8 0-5.7 0-8.5 0-2.1 5-3.6 8.3-5.6 13.1-1.9-5-3.1-8.2-5-13.1-2.9-.1-5.8-.1-8.6-.1"/></g></svg>