<svg enable-background="new 0 0 184 86.3" viewBox="0 0 184 86.3" xmlns="http://www.w3.org/2000/svg"><g fill="#242f44"><path d="m8.5 1c2.4 0 5-.1 7.4-.1 1.1 0 1.2.3 1.2.7 0 1.5-4.6-.5-4.6 3.7v27.5c0 2.2.9 3.6 4.4 3.6 5.6 0 9.7-3.9 11.9-8.4 1.6-3.3 1.3-4.4 2-4.4.3 0 .5.2.5.5v.1c0 .5-.1 1-.2 1.6l-2.4 11.8c-5.6 0-14.6-.1-18.8-.1h-2c-1.7.1-2.7.1-3.3.1h-2c-.8 0-1.2 0-1.5 0-1.1 0-1.1-.3-1.1-.7 0-.9 1-.8 2-.9 1.3-.2 2.7-.6 2.7-2.8v-28c-.1-4.1-4.7-2.3-4.7-3.6 0-.4 0-.8 1.2-.8 2.3 0 4.9.2 7.3.2z"/><path d="m53.8 38.2c-11.7 0-19.8-8.8-19.8-19.1s8.2-19 19.8-19 19.9 8.7 19.9 19.1-8.1 19-19.9 19zm11.1-19.1c0-11.3-4.2-17.8-11.1-17.8-6.5 0-11 6.1-11 17.8 0 11.4 4.3 17.8 11.1 17.8s11-6.4 11-17.8z"/><path d="m101.6.7c.4 0 .6.2.7.9l1 10.3c.1.6.1 1.2.2 1.8 0 .4-.2.5-.4.5-.6 0-.4-.9-2-4.7-2.1-4.8-5-8.1-10.7-8.1-4.4 0-6.9 2.2-6.9 5.8 0 3.1 2.5 4.6 7.5 6.1 2.6.7 5.2 1.5 7.6 2.6 4.6 2.1 6.7 5.2 6.7 9.8 0 7.1-6 12.6-14.1 12.6-5.3 0-7.9-2.5-9.9-2.5s-1.7 1.8-2.7 1.8c-.2 0-.4-.1-.4-.3 0 0 0 0 0-.1v-15c0-.4.1-.8.5-.8.7 0 .5 1.3 1.3 4.6 1.7 6.6 4.8 11 11.3 11 5.5 0 8.6-2.8 8.6-6.9 0-2.4-1.3-4.6-3.4-5.7-2.2-1.2-4.5-2.1-6.9-2.7-7-2.1-11.2-4.5-11.2-10.5 0-6.2 5.3-11.1 12-11.1 5.2 0 7.6 2.2 9.2 2.2 1.8-.1 1-1.6 2-1.6z"/><path d="m31.5 49.3c.1-.5.1-1 .6-1s.6.3.6.7v13.7c0 .5-.1 1-.6 1-.9 0-.4-2-2.2-6-2-4.6-5.6-8.7-10.5-8.7-6.9 0-10.5 6.1-10.5 17.8 0 11.8 3.7 17.8 10.8 17.8 4.9 0 8.8-4.5 10.6-8.3 2-4.1 1.1-5.9 2.1-5.9.4 0 .5.4.5.8v14.3c0 .6-.2.8-.6.8-1 0-.1-2.9-2.6-2.9-2.1 0-4.8 2.6-10.9 2.6-11.1 0-18.7-8.3-18.7-19.1-.2-10.4 8.1-18.9 18.5-19.1h.2c6 0 8.8 3 11.2 3 1.2-.1 1.4-.8 1.5-1.5z"/><path d="m70.7 80.5c.4 1.2 1.2 2.3 2.2 3 .5.3 1 .5 1.5.6.6.2.8.2.8.5s-.2.4-.8.4c-2.4 0-6.2-.1-7.3-.1l-7.4.1c-.8 0-.9-.3-.9-.5 0-.4.5-.5 1.7-.7s2-.9 2-2.2c-.1-1.2-.4-2.4-1-3.4-1-2.4-2-4.7-2.9-7h-12c-1 2.9-2.2 5.3-2.2 8-.2 2 1 3.9 2.9 4.5 1 .4 1.6.6 1.6.9s0 .4-.7.4c-1.3 0-5.1-.1-5.9-.1l-6.1.1c-.7 0-.8-.2-.8-.5 0-.5.4-.6 1.3-.8 1.3-.4 2.5-1.1 3.4-2.2 1.3-1.3 2.9-4.1 4.5-8.2l6.8-17.5c.3-.5.4-1.1.4-1.7 0-.5-.3-1-.8-1.2-.5-.3-.8-.5-.8-.7s.7-.5 1.7-1.3c1.1-.9 2.1-1.9 3-2.9 1.1-1.3 1.2-2 1.6-2s.6.8.8 1.5zm-23.7-10.2h11.4l-5.9-14.5z"/><path d="m84.9 48.6c1.3 0 6.1-.1 9.5-.1 8.2 0 13 3.6 13 8.8s-3.7 7.7-12.1 8.5v.1c9.7.3 13.9 3.6 13.9 9.1 0 3.8-1.2 6.2-3.4 7.8s-5.7 2.2-9.7 2.2c-2.8 0-8.4-.1-11.1-.1-2.5 0-5 .1-7.5.1-1.3 0-1.3-.3-1.3-.7 0-.5.7-.7 1.4-.7 1.9-.1 3.2-.8 3.2-2.9v-28c0-2.5-1.8-2.8-3.1-2.9-.7 0-1.5-.1-1.5-.7 0-.4.1-.7 1.3-.7zm6.9 16.6c5 0 7.8-2.9 7.8-7.5 0-5.4-3.2-8-7.5-8h-3.4v15.5zm-3.1 15.1c0 2.5 2 3.5 4.6 3.5 4.9 0 7.8-2.6 7.8-8.5 0-6.4-3.4-8.8-8.4-8.8h-4z"/><path d="m132.6 85.8c-11.7 0-19.9-8.8-19.9-19.1s8.2-19.1 19.9-19.1 19.9 8.7 19.9 19.1-8.1 19.1-19.9 19.1zm11.1-19c0-11.3-4.2-17.8-11.1-17.8-6.5 0-11.1 6.1-11.1 17.8 0 11.4 4.3 17.8 11.1 17.8 6.7 0 11.1-6.4 11.1-17.8z"/><path d="m180.4 48.3c.4 0 .6.2.6.9l1 10.2c.1.6.1 1.2.2 1.8 0 .4-.2.5-.4.5-.6 0-.4-.9-2-4.7-2.1-4.8-5-8.1-10.6-8.1-4.4 0-6.9 2.2-6.9 5.7 0 3.1 2.5 4.6 7.5 6.1 2.6.7 5.1 1.5 7.6 2.6 4.6 2.1 6.7 5.2 6.7 9.8 0 7.1-6 12.6-14.1 12.6-5.3 0-7.9-2.5-9.9-2.5s-1.8 1.8-2.7 1.8c-.2 0-.4-.1-.4-.3v-.1-15c0-.4.1-.8.5-.8.7 0 .5 1.3 1.3 4.6 1.7 6.6 4.8 11 11.2 11 5.5 0 8.6-2.8 8.6-6.9.1-2.4-1.3-4.6-3.4-5.7-2.2-1.2-4.5-2.1-6.9-2.7-6.9-2.1-11.1-4.5-11.1-10.5 0-6.2 5.3-11.1 12-11.1 5.2 0 7.6 2.2 9.2 2.2 1.8.1 1-1.4 2-1.4z"/></g><g fill="#faa31b"><path d="m118.7 0v39.1h39.1v-39.1zm29.8 23.7c.1 0 .2-.2.3-.5 0-.1.1-.4.1-.7 0-.1.1-.2.2-.2s.2.1.2.2c0 .4 0 .8-.1 1.2-.4 1-.8.7-.8 1-.1.7 0 1.3.2 2v.2h-.1c-.2-.1-.4-.1-.5-.1s-.1 0-.2-.1c.1-.6.1-1.3 0-2-.8.2-.8-1-.8-1.4 0-.2 0-.4 0-.6s.2-.3.4-.2.1.9.3 1.3c.1.2.2.3.3.2 0-.8 0-1.5.1-2.3.1-.1.3-.2.4-.1.1.3.1.6.1.9-.1.4-.2.8-.1 1.2zm-2.1-13.9c.2-.3 1.5-1.8 1.9-1.7.3.1-.4 1.8-.6 2.2-.2.3-.6.5-1 .4-.3-.1-.4-.4-.4-.7.1-.1.1-.1.1-.2zm-5.3-2.1c.4-.1 1.2 1.5 1.2 1.9.1.4-.2.8-.6.8-.4.1-.8-.1-.9-.5s-.2-2.1.3-2.2zm-2.1 8.1c0-.2.1-.4.1-.6s.1-.4.2-.6.2-.4.2-.6.2-.4.3-.5c.1-.2.3-.3.4-.5.1-.1.1-.1.2-.2l.1-.1.1-.1c.2-.1.3-.2.5-.3s.4-.2.6-.3l.1-.1h.1l.3-.1c.2-.1.4-.1.6-.1h.6c.2 0 .4 0 .6.1.1 0 .1.1.1.1 0 .1-.1.1-.1.1l-.5.1-.5.2c-.1.1-.3.1-.4.2l-.2.1-.1.1-.1.1c-.1.1-.2.2-.4.3-.1.1-.2.2-.3.3l-.1.1-.1.1-.1.2c-.1.1-.1.2-.2.4-.1.1-.1.3-.2.4s-.1.3-.1.4v.4.4.4c0 .1 0 .1.1.2v.1.1c0 .1 0 .1.1.2 0 .1.1.1.1.2l.1.2.1.1.1.1.1.1.1.1.1.1h.1.1l.1.1.3.1h.2.2.4.4.2.2.2c.2-.1.5-.1.7-.3l.4-.2.1-.1.4-.3.2-.1.2-.2.1-.1c.2-.2.4-.4.5-.6l.2-.3.1-.2v-.1-.1-.1c0-.1 0-.1 0-.1 0-.1 0-.2 0-.3 0-.2-.1-.4-.2-.5h-.1-.1l-.1-.1-.2-.1h-.1-.1-.4-.6-.1-.2-.1l-.2.1-.2.1h-.1l-.3.1-.1.1h-.1l-.2.1-.5.2c-.1 0-.1 0-.2 0v-.1l.1-.1.1-.1.2-.2.3-.2.4-.3.1-.1.2-.1h.1l.2-.1h.1l.3-.1.3-.1h.6.3l.3.1c.1 0 .2.1.3.1l.2.1.1.1.1.1.1.1.1.1v.1c.3.3.5.7.6 1.2v.6.3.1.1.2.1c0 .1-.1.2-.1.3-.1.2-.2.3-.2.5-.2.3-.4.6-.7.9l-.2.2-.3.3-.2.1-.4.3-.2.1c-.2.1-.3.2-.5.3-.4.2-.7.3-1.1.4l-.3.1-.3.1h-.2-.2-.3-.1c-.2 0-.4 0-.5 0h-.2-.1l-.3-.1c-.2-.1-.4-.1-.6-.2l-.3-.2-.1-.1-.1-.1c-.1-.1-.2-.1-.3-.2l-.1-.1-.1-.1-.1-.1-.2-.2-.1-.1v-.1l-.1-.2c-.1-.1-.1-.2-.1-.3-.1-.1-.1-.2-.1-.3s-.1-.2-.1-.3c0 0 0-.1 0-.2v-.1c0-.1 0-.2 0-.3-.1-.5 0-.9 0-1.2zm-4.5-3.6c.3-.2 2.3.4 2.7.6s.4.5.1.8c-.4.2-.9.3-1.2.1-.4-.2-1.9-1.3-1.6-1.5zm-8.5 13.5c.4-.9.6-1.8.7-2.8-.1-.9-.2-1.7-.3-2.6-.1-.5.1-1 .6-1.1h.4c.6 0 .5 1.2 1 1.3 1.2.2.8-1.5 1.7-1.7.6 0 1.2-.2 1.7-.6.6-.5 1.4-1.1 2-1.6.7-.7 1.7-1.1 2.7-1 .4.1.7.3.8.7.5 1.6.8 2.9 2.2 4.1 1.4.8 2.9 1.2 4.5 1.1.6-.2 1.3.1 1.5.8.1.1.1.3.1.4v.6c-.1.4-.1.8.1 1.2.3.6 1.4 2.6-.6 1.7-1.3-.6-3.4-1.1-6.7.1-1.8.6-3.7.7-5.5.1-.1 0-.3-.1-.4-.2-.1 0-.1-.1-.1-.1.1-1.6 1.4-3.6-.8-4.2-.8-.3-1.6 0-2 .7-.6.8-.5 1.7 0 2.9 0 .1 0 .1-.1.2 0 0 0 0-.1 0-1.1 0-2.1.2-3.1.5-.7.1-.4-.2-.3-.5zm25 4c-.1.2-.2.3-.4.3-.3.1-.6.2-.9.2h-.1c-.2 0-.4.1-.6.1h-.2-.3c-.5 0-.9.1-1.4.1s-1-.1-1.5-.3c-.3-.1-.6-.2-.9-.3l-.5-.2c-.4-.1-.8-.2-1.3-.3h-.3-1.1c-.5 0-.9.1-1.4.2s-.9.2-1.3.4c-.5.2-1.1.3-1.6.4-.3.1-.6.1-.8.1h-.4-.7-.6-.3-.1c-.1 0-.3 0-.4-.1-.5-.1-1.1-.2-1.6-.4-.2-.1-.4-.1-.6-.2s-.5-.2-.7-.3c-.4-.1-.8-.2-1.2-.3h-.4-.5-.9c-.1 0-.3 0-.4 0h-.2c-.6.1-1.2.2-1.8.5h-.1c-.3.1-.6.2-.9.2l-.4.1h-.1c-.2 0-.3-.1-.3-.2v-.2c0-.1.1-.3.2-.3.4-.1.8-.3 1.2-.5l.2-.1c.2-.1.5-.2.8-.3.4-.1.8-.3 1.2-.3h.1c.2 0 .4-.1.6-.1h.1.2.6.5.5c.5 0 1 .1 1.5.3.3.1.6.2.9.3.2.1.3.1.5.2.4.1.8.2 1.3.3h.3 1.4.3.2.1.3.1c.5-.1 1-.3 1.4-.6.5-.2 1.1-.4 1.6-.5.6-.1 1.1-.2 1.7-.2h.2.6.3.1.4c.5.1 1.1.2 1.6.4l.6.2.8.3c.4.1.8.2 1.2.3.4 0 .8.1 1.2.1h.6.4.1c.3 0 .6-.1.8-.2.3-.1.6.1.6.4-.1.2-.1.4-.1.5zm.4-10.2c-.2.3-2.2-.1-2.6-.2s-.5-.5-.2-.7c.3-.3.7-.4 1.1-.3.4.2 2 1 1.7 1.2zm-1-5.1c-.4.1-.8 0-.8-.4s.3-.8.7-.9 2.4-.5 2.5-.1c0 .3-2 1.2-2.4 1.4z"/><path d="m135.6 18.5c.2-.1.3-.3.3-.5-.1-.2-.3-.3-.5-.2 0 0 0 0-.1 0-.2.1-1.2.8-1.1 1s1.2-.2 1.4-.3z"/><path d="m138.7 21.6c.1-.1.1-.3 0-.5 0 0-.1-.1-.1-.1-.3-.1-.6 0-.8.2s-.8 1.2-.5 1.3c.3.2 1.3-.7 1.4-.9z"/><path d="m142.6 24.1c.2 0 .7-1 .7-1.2s-.1-.5-.4-.5c-.2 0-.5.1-.5.3s0 1.3.2 1.4z"/></g></svg>