<svg viewBox="0 0 2500 2500" xmlns="http://www.w3.org/2000/svg" xmlns:xlink="http://www.w3.org/1999/xlink"><linearGradient id="a" gradientUnits="userSpaceOnUse" x1="-185.1098" x2="2471.2517" y1="-140.111" y2="2426.8118"><stop offset="0" stop-color="#dff4ff"/><stop offset=".1" stop-color="#d6eaf5"/><stop offset=".27" stop-color="#bfd0d9"/><stop offset=".49" stop-color="#98a5ac"/><stop offset=".75" stop-color="#646b6e"/><stop offset="1" stop-color="#2b2b2b"/></linearGradient><radialGradient id="b" cx="-17.4462" cy="77.6689" gradientUnits="userSpaceOnUse" r="1778.6717"><stop offset="0" stop-color="#fff"/><stop offset=".31" stop-color="#a8a8a8"/><stop offset=".65" stop-color="#4f4f4f"/><stop offset=".89" stop-color="#161616"/><stop offset="1"/></radialGradient><linearGradient id="c" gradientTransform="matrix(-2.47 0 0 -2.47 3438.13 3033.31)" gradientUnits="userSpaceOnUse" x1="517.18" x2="1202.13" y1="365.5" y2="1027.39"><stop offset="0" stop-color="#dff4ff"/><stop offset=".09" stop-color="#d6eaf5"/><stop offset=".23" stop-color="#bed0d9"/><stop offset=".42" stop-color="#96a4ac"/><stop offset=".65" stop-color="#5f686d"/><stop offset=".91" stop-color="#1a1d1e"/><stop offset="1"/></linearGradient><linearGradient id="d"><stop offset="0" stop-color="#fff"/><stop offset=".31" stop-color="#fdfdfd"/><stop offset=".45" stop-color="#f6f6f6"/><stop offset=".56" stop-color="#e9e9e9"/><stop offset=".65" stop-color="#d7d7d7"/><stop offset=".72" stop-color="#bfbfbf"/><stop offset=".79" stop-color="#a2a2a2"/><stop offset=".86" stop-color="#808080"/><stop offset=".92" stop-color="#575757"/><stop offset=".97" stop-color="#2b2b2b"/><stop offset="1" stop-color="#141414"/></linearGradient><radialGradient id="e" cx="-336.8913" cy="-103.4562" gradientUnits="userSpaceOnUse" r="4273.8657" xlink:href="#d"/><radialGradient id="f" cx="-337.0889" cy="-103.4562" gradientUnits="userSpaceOnUse" r="4274.2362" xlink:href="#d"/><radialGradient id="g" cx="-337.3112" cy="-104.7159" gradientUnits="userSpaceOnUse" r="4277.5213" xlink:href="#d"/><linearGradient id="h"><stop offset="0" stop-color="#e6e6e6"/><stop offset=".1" stop-color="#d6d6d6"/><stop offset=".31" stop-color="#adadad"/><stop offset=".59" stop-color="#6c6c6c"/><stop offset=".93" stop-color="#121212"/><stop offset="1"/></linearGradient><radialGradient id="i" cx="428.5617" cy="489.0474" gradientUnits="userSpaceOnUse" r="1152.7984" xlink:href="#h"/><radialGradient id="j" cx="743.8572" cy="644.114" gradientUnits="userSpaceOnUse" r="1676.4878"><stop offset="0" stop-color="#fff"/><stop offset=".34" stop-color="#fdfdfd"/><stop offset=".48" stop-color="#f6f6f6"/><stop offset=".58" stop-color="#eaeaea"/><stop offset=".67" stop-color="#d8d8d8"/><stop offset=".74" stop-color="#c2c2c2"/><stop offset=".8" stop-color="#a6a6a6"/><stop offset=".86" stop-color="#848484"/><stop offset=".91" stop-color="#5f5f5f"/><stop offset=".95" stop-color="#404040"/><stop offset=".96" stop-color="#404040"/><stop offset="1" stop-color="#404040"/><stop offset="1"/></radialGradient><linearGradient id="k"><stop offset=".17" stop-color="#fff"/><stop offset=".2" stop-color="#e0eff7"/><stop offset=".24" stop-color="#b2d9ec"/><stop offset=".29" stop-color="#8bc5e2"/><stop offset=".34" stop-color="#6bb5da"/><stop offset=".38" stop-color="#52a9d4"/><stop offset=".44" stop-color="#41a0cf"/><stop offset=".49" stop-color="#369bcd"/><stop offset=".56" stop-color="#39c"/><stop offset=".61" stop-color="#3396c8"/><stop offset=".66" stop-color="#328ebc"/><stop offset=".7" stop-color="#3180a8"/><stop offset=".75" stop-color="#2f6d8c"/><stop offset=".8" stop-color="#2d5468"/><stop offset=".85" stop-color="#2a373d"/><stop offset=".87" stop-color="#292929"/></linearGradient><radialGradient id="l" cx="251.6356" cy="8.6077" gradientUnits="userSpaceOnUse" r="2969.0882" xlink:href="#k"/><radialGradient id="m" cx="251.6356" cy="8.583" gradientUnits="userSpaceOnUse" r="2969.0388" xlink:href="#k"/><radialGradient id="n" cx="444.2956" cy="503.571" gradientUnits="userSpaceOnUse" r="1130.6919" xlink:href="#h"/><linearGradient id="o"><stop offset="0" stop-color="#f0f4ff"/><stop offset=".11" stop-color="#ebeff9"/><stop offset=".25" stop-color="#dce0ea"/><stop offset=".4" stop-color="#c4c7cf"/><stop offset=".57" stop-color="#a2a4ab"/><stop offset=".75" stop-color="#76777c"/><stop offset=".93" stop-color="#414243"/><stop offset="1" stop-color="#2b2b2b"/></linearGradient><linearGradient id="p" gradientUnits="userSpaceOnUse" x1="1101.8343" x2="2204.4917" xlink:href="#o" y1="221.25" y2="1286.7833"/><linearGradient id="q" gradientUnits="userSpaceOnUse" x1="206.8545" x2="1309.5119" xlink:href="#o" y1="1120.8734" y2="2186.4067"/><linearGradient id="r" gradientUnits="userSpaceOnUse" x1="740.3004" x2="1312.0807" y1="740.9133" y2="1293.4276"><stop offset="0" stop-color="#c2d7e8"/><stop offset=".13" stop-color="#bacfe1"/><stop offset=".34" stop-color="#a4bacd"/><stop offset=".6" stop-color="#8098ac"/><stop offset=".89" stop-color="#4e697f"/><stop offset="1" stop-color="#3a566d"/></linearGradient><linearGradient id="s" gradientUnits="userSpaceOnUse" x1="453.9286" x2="1545.4957" y1="876.294" y2="1931.1075"><stop offset="0" stop-color="#f0f4ff"/><stop offset=".1" stop-color="#e8ebf6"/><stop offset=".26" stop-color="#d1d4dd"/><stop offset=".46" stop-color="#abaeb5"/><stop offset=".69" stop-color="#78797d"/><stop offset=".96" stop-color="#363637"/><stop offset="1" stop-color="#2b2b2b"/></linearGradient><linearGradient id="t" gradientUnits="userSpaceOnUse" x1="1258.4817" x2="1641.3811" y1="1267.5667" y2="1637.5727"><stop offset="0" stop-color="#d9def0"/><stop offset=".12" stop-color="#d4daec"/><stop offset=".26" stop-color="#c7cfe2"/><stop offset=".41" stop-color="#b0bcd1"/><stop offset=".57" stop-color="#90a1b8"/><stop offset=".72" stop-color="#677f99"/><stop offset=".89" stop-color="#355674"/><stop offset=".97" stop-color="#173d5d"/></linearGradient><linearGradient id="u" gradientUnits="userSpaceOnUse" x1="866.8138" x2="1957.1953" xlink:href="#o" y1="475.9564" y2="1529.6337"/><path d="m1250 .03c-690.33 0-1250 559.62-1250 1249.97s559.67 1249.98 1250 1249.98 1250-559.63 1250-1249.98-559.61-1249.97-1250-1249.97zm0 2437.44c-655.85 0-1187.45-531.64-1187.45-1187.47s531.6-1187.49 1187.45-1187.49 1187.49 531.67 1187.49 1187.49-531.64 1187.47-1187.49 1187.47z" fill="url(#a)"/><path d="m2446.45 1250c0 660.72-535.72 1196.42-1196.45 1196.42s-1196.39-535.7-1196.39-1196.42 535.66-1196.42 1196.39-1196.42 1196.45 535.66 1196.45 1196.42z" fill="#333"/><path d="m2437.49 1250c0 655.83-531.64 1187.47-1187.49 1187.47s-1187.45-531.64-1187.45-1187.47 531.6-1187.49 1187.45-1187.49 1187.49 531.67 1187.49 1187.49z" fill="url(#b)"/><path d="m2046.12 1250c0 439.67-356.44 796.09-796.12 796.09s-796.13-356.42-796.13-796.09 356.44-796.12 796.13-796.12c439.68 0 796.12 356.43 796.12 796.12z" fill="url(#c)"/><path d="m1281.89 432.37 82.7-219.19v219.19h62.81v-313.91h-94.39l-85.86 224.76h.82l-85.85-224.76h-94.4v313.91h62.81v-219.19l82.7 219.19zm861.98 140.76-107.31 156.47 168.56-82.9 45.72 54.83-265.28 133.2-53.6-64.9 102.83-155.05-.61-.76-171.05 73.21-54.22-64.46 178.88-236.86 45.73 54.85-112.01 150.83 173.34-77.31 49.03 58.85z"/><path d="m694.05 513.16c-25.28-24.54-64.29-31.94-100.96-9.21 7.02-18.16 4.17-36.64.46-46.89-15.82-28.76-21.36-32.4-34.28-43.31-42.16-35.33-86.52-5.16-118.2 32.6l-153.19 182.57 240.82 202.04 161.53-192.48c36.92-43.99 42.62-87.61 3.82-125.32zm-311.53 88.04 92.02-109.66c10.68-12.69 34.79-12.18 50.25.84 17.04 14.29 17.09 34.53 5.65 48.19l-90.99 108.39-56.92-47.76zm253.85 18.23-95.92 114.31-60.06-50.48 96.64-115.2c10.94-13.02 35.3-16.81 51.73-3.03 18.51 15.57 20.34 39.24 7.62 54.4z" fill="#333"/><path d="m1282.56 420.24 82.7-219.18v219.18h62.81v-313.91h-94.4l-85.85 224.75h.81l-85.85-224.75h-94.4v313.91h62.81v-219.18l82.71 219.18z" fill="url(#e)"/><path d="m2144.49 552.06-107.27 156.48 168.56-82.93 45.67 54.85-265.24 133.2-53.6-64.92 102.84-155.03-.6-.79-171.1 73.24-54.16-64.49 178.87-236.83 45.72 54.83-111.99 150.83 173.27-77.28z" fill="url(#f)"/><path d="m682.8 506.98c-25.23-24.54-64.29-31.94-100.91-9.23 6.96-18.16 4.12-36.65.41-46.85-15.82-28.81-21.31-32.4-34.34-43.33-42.16-35.35-86.46-5.17-118.1 32.63l-153.25 182.54 240.83 202.04 161.53-192.51c36.88-43.99 42.62-87.58 3.82-125.29zm-311.52 88.04 92.01-109.63c10.63-12.71 34.74-12.21 50.25.79 17.04 14.32 17.09 34.58 5.59 48.19l-90.94 108.41zm253.89 18.23-95.92 114.31-60.17-50.48 96.69-115.22c10.94-12.99 35.24-16.78 51.67-3 18.61 15.59 20.44 39.21 7.73 54.39z" fill="url(#g)"/><path d="m480.38 1250.01c0-425.06 344.59-769.65 769.62-769.65s769.62 344.58 769.62 769.65-344.54 769.62-769.62 769.62-769.62-344.57-769.62-769.62z" fill="url(#i)"/><path d="m502.51 1250.01c0-412.83 334.66-747.53 747.5-747.53s747.55 334.69 747.55 747.53-334.71 747.53-747.55 747.53-747.5-334.69-747.5-747.53z" fill="url(#j)"/><path d="m501.33 1250.01h748.67v-748.67c-413.5 0-748.67 335.17-748.67 748.67z" fill="url(#l)"/><path d="m1250 1250.01v748.67c413.5 0 748.67-335.23 748.67-748.67z" fill="url(#m)"/><path d="m2004.87 1236.71h-741.6v-741.6h-26.55v741.6h-741.59v26.55h741.6v741.62h26.55v-741.62h741.6v-26.55z" fill="url(#n)"/><path d="m1263.28 516.11c394.94 7.02 713.63 325.69 720.69 720.59h13.22c-7.06-402.23-331.65-726.87-733.91-733.89z" fill="url(#p)"/><path d="m514.76 1236.61c7.02-395.44 326.17-714.57 721.61-721.61v-13.28c-402.81 7.04-727.82 332.12-734.89 734.88h13.28z" fill="#c2d7e8"/><path d="m1236.72 1983.89c-394.93-7.01-713.62-325.7-720.64-720.63h-13.27c7.07 402.25 331.66 726.9 733.91 733.92v-13.29s0 0 0 0z" fill="url(#q)"/><path d="m1983.97 1263.26c-7.07 394.93-325.76 713.62-720.69 720.63v13.29c402.26-7.02 726.9-331.66 733.91-733.92z" fill="#12404f"/><path d="m1222.54 501.72v720.41h-720.39v14.22h734.58v-734.63z" fill="url(#r)"/><path d="m1221.32 1990.21v-711.75h-713.22v-14.03h727.25v725.78h-14.04z" fill="url(#s)"/><path d="m1278.48 1990.21v-711.75h711.74v-14.03h-725.73v725.78z" fill="url(#t)"/><path d="m1278.48 508.09v711.74h711.74v14.01h-725.73v-725.75z" fill="url(#u)"/></svg>