<svg enable-background="new 0 0 185 100" viewBox="0 0 185 100" xmlns="http://www.w3.org/2000/svg"><g fill="#af9862"><path d="m46.5 70-.1.1s-.1-.1-.2-.1c0 0-.1 0-.1.1-.3.2-1.1.9-2.6.9-2.1 0-3.5-1.4-3.5-3.3 0-1.6 1.3-3 3.5-3 .7 0 1.3.2 1.8.3.3.1.6.2.7.3h.1c.1 0 .1 0 .2-.1l.2.1-.7 1.2-.1-.1v-.1-.1c-.2-.3-1.1-.8-2.1-.8-1.2 0-2.4.7-2.4 2.3 0 1.5 1.2 2.4 2.6 2.4.9 0 1.7-.5 2-.9 0-.1.1-.1.1-.2s0-.1 0-.1l.1-.1z"/><path d="m58.9 70.5c0 .2 0 .3.2.3v.1h-1.3v-.1c.2 0 .2-.1.2-.3v-2.4h-4v2.4c0 .2 0 .3.2.3v.1h-1.3v-.1c.2 0 .2-.1.2-.3v-5.3c0-.2 0-.3-.2-.3v-.1h1.3v.1c-.2 0-.2.1-.2.3v2.2h4v-2.2c0-.2 0-.3-.2-.3v-.1h1.3v.1c-.2 0-.2.1-.2.3z"/><path d="m66.7 69.3-.4.9c-.1.1-.2.3-.2.4s.1.1.2.1v.1h-1.3v-.1c.2 0 .2 0 .4-.6l2.1-4.8c.1-.3.3-.7.3-.7h1s.2.5.3.8l2.1 4.7c.2.6.3.6.4.6v.1h-1.5v-.1c.1 0 .2-.1.2-.2s0-.1-.1-.4l-.4-.9zm.4-.8h2.4l-1.2-2.8z"/><path d="m103.7 69.3-.4.9c-.1.1-.2.3-.2.4s.1.1.2.1v.1h-1.3v-.1c.2 0 .2 0 .4-.6l2.1-4.8c.1-.3.3-.7.3-.7h1s.2.5.3.8l2.1 4.7c.2.6.3.6.4.6v.1h-1.5v-.1c.1 0 .2-.1.2-.2s0-.1-.1-.4l-.4-.9zm.4-.8h2.4l-1.2-2.8z"/><path d="m77.6 70.9v-.1c.2 0 .2-.1.2-.3v-5.3c0-.1 0-.3-.2-.3v-.2h1.4l2 4.2 2.1-4.2h1.5v.2c-.2 0-.2.2-.2.3v5.3c0 .2 0 .3.2.3v.1h-1.4v-.1c.2 0 .2-.1.2-.3v-4.7l-2.4 5-2.4-5v4.7c0 .2 0 .3.2.3v.1z"/><path d="m91.6 65.2c0-.2 0-.3-.2-.3v-.1h3.5c.5 0 .9 0 1.1.1.9.2 1.3.8 1.3 1.6s-.3 1.4-1.1 1.7c-.2.1-.7.2-1.2.2h-2.4v2.3c0 .2 0 .3.2.3v.1h-1.3v-.1c.2 0 .2-.1.2-.3zm.9 2.2h2.5c1 0 1.2-.5 1.2-1s-.2-.9-1.2-.9h-2.5z"/><path d="m118.1 68.6c-.2 0-.4 0-.4.2h-.1v-1.2h.1c0 .3.2.2.4.2h2.2v.5 1 .6c-1.1.9-2 1.1-3 1.1-1.9 0-3.5-1.3-3.5-3.1 0-1.9 1.4-3.2 3.4-3.2s2.5.8 2.8.8c0 0 .1 0 .1-.1l.1.1-.7 1-.1-.1s0 0 0-.1c0-.3-1-.9-2.2-.9-1.7 0-2.4 1.1-2.4 2.4 0 1.5 1.2 2.4 2.4 2.4s1.7-.3 2.2-.7v-.9z"/><path d="m132.2 69.4v-4.2c0-.2 0-.3-.2-.3v-.1h1.2v.1c-.2 0-.2.1-.2.3v5.8h-.7s-.3-.4-.4-.5l-4-4.8v4.8c0 .2 0 .3.2.3v.1h-1.2v-.1c.2 0 .2-.1.2-.3v-5.3c0-.2 0-.3-.2-.3v-.1h1.4s.3.4.4.4z"/><path d="m140.1 65.2c0-.2 0-.3-.2-.3v-.1h4.7.6v1h-.2c0-.2-.1-.3-.4-.3h-3.6v1.9h2.3c.3 0 .5 0 .5-.3h.1v1.3h-.1c0-.2-.1-.3-.4-.3h-2.4v2h3.7c.3 0 .5 0 .5-.3h.1v1h-5.5v-.1c.2 0 .2-.1.2-.3z"/><path d="m92.6 79.1c.2.7 1.1 3.4 1.1 3.4s2.8 0 3.6 0c-.6.5-2.9 2.1-2.9 2.1s.9 2.7 1.1 3.4c-.6-.5-2.9-2.1-2.9-2.1s-2.3 1.6-2.9 2.1c.2-.7 1.1-3.4 1.1-3.4s-2.2-1.6-2.8-2.1h3.6l.7-2.2c-.1 0 .2-.7.3-1.2"/><path d="m54.1 30.7h3.1v.6h-2.4v.8h2.1v.5h-2.1v1.5h-.7z"/><path d="m60.6 30.6c1.5 0 2 .9 2 1.8 0 .7-.4 1.7-2 1.7s-2-1-2-1.7c0-.9.6-1.8 2-1.8m1.3 1.8c0-.8-.6-1.2-1.3-1.2s-1.3.4-1.3 1.2c0 1 .7 1.2 1.3 1.2s1.3-.3 1.3-1.2"/><path d="m64.3 30.7h.7l2.3 2.4v-2.4h.6v3.4h-.6l-2.3-2.5v2.5h-.7z"/><path d="m69.8 30.7h1.6c1 0 1.9.5 1.9 1.6s-.8 1.7-1.9 1.7h-1.6zm1.3 2.8c1.1 0 1.5-.3 1.5-1.1s-.5-1.1-1.5-1.1h-.7v2.2z"/><path d="m75.1 30.7h3v.6h-2.3v.8h2v.6h-2v.9h2.4v.4h-3zm1.5-.9h.7l-.7.7h-.4z"/><path d="m107.4 30.7h2.9v.6h-2.3v.8h2v.5h-2v.9h2.3v.6h-2.9z"/><path d="m112 30.7h.7l2.1 2.4v-2.4h.6v3.4h-.6l-2.2-2.5v2.5h-.6z"/><path d="m119.3 31.1c.3-.1.6-.2.9-.5h.3v3.4h-.6v-2.6h-.7v-.3"/><path d="m124.4 31.2h-2v-.5h2.7v.3l-1.6 3.1h-.7z"/><path d="m128.1 30.7h.6v2.1h.4v.5h-.4v.7h-.6v-.7h-2v-.5s2-2.1 2-2.1zm0 .6-1.4 1.5h1.4z"/><path d="m131.5 32.1h.5c.5 0 .8-.1.8-.4s-.3-.4-.8-.4c-.7 0-.8.3-.8.4h-.6c0-.2.2-1 1.4-1 .9 0 1.3.4 1.3 1 0 .5-.3.6-.5.7.2.1.5.3.5.8 0 .6-.5 1-1.4 1-1.2 0-1.4-.7-1.4-1h.6c0 .3.3.5.8.5s.9-.2.9-.6c0-.2-.2-.5-.7-.5h-.6z"/><path d="m104.2 26.7c-.3 0-.5.1-.8.4s-.6.6-.6.6l-.2-.3c-.1-.1-.2-.5 0-.7.1 0 0-.1 0-.1s-.2 0-.4.3c-.1.2-.2.4-.2.4s-.3 0-.5.2c-.3.3-.2.7-.2.7s-.3.2-.4.4c-.1.4 0 .6 0 .6s.1.1.1 0c.1-.2.3-.4.5-.4.3 0 .5.1.5.2s-.4.6-.9.6c-.4 0-.6-.1-.7-.4-.2-.3-.2-.6-.2-.6s.4.1.7-.5c.2-.4.1-.7-.1-.8s-.6.1-.7.4c-.3.5-.1.8-.1.8s-.4.6-1.2.3c-.7-.3-.4-1.6-.4-1.6s.2-.1.3 0 .1.3.2.5.2.4.4.4c.1 0 .3-.4.3-.7.3-.1.5-.3.4-.8 0 0 .4-.4.3-.6 0 0-.2-.1-.5-.1s-.7.2-.7.2 0-.2.1-.3.5-.4.6-.6.3-.4.1-.5-.4-.1-.5-.1c0 0-.1-.2-.3-.2-.2-.1-.4 0-.4 0-.1-.1-.4-.2-.5-.2-.2 0-.2.3-.2.5s.1.7.1.9c0 .1-.1.3-.1.3s-.2-.4-.3-.7c-.2-.2-.4-.2-.4-.2-.1 0-.3.4-.2.8-.4.2-.4.7-.3.9-.1.2-.2.6-.1.8.1.1.4 0 .7-.1.2-.1.4-.3.5-.3s.3.2.3.2-.6 1.1-1.3 1.1c-.7-.1-.9-.4-.9-.4-.3-.2-.3-.6-.3-.6s.5-.2.5-.8c0-.5-.2-.7-.5-.8-.3 0-.6.3-.7.6-.1.6.3.9.3.9s-.2.7-1.1.7c-.4 0-.6-.1-.9-.3-.5-.3-.5-1.2-.5-1.2s.2-.1.4-.1c.1 0 .3.3.5.5s.5.4.8.4c.1 0 .3-.6.2-.9.3-.3.3-.7.1-1 0 0 .2-.6 0-.8 0-.1-.2-.1-.6.1-.3.2-.8.6-.8.6s-.1-.2 0-.3.4-.6.4-.9.1-.5 0-.6c-.2 0-.5 0-.7.1-.1-.1-.3-.2-.4-.2-.2 0-.3.1-.4.2-.2-.1-.5-.1-.7-.1s-.1.4 0 .6.4.8.4.9 0 .3 0 .3-.5-.4-.8-.6-.5-.1-.6-.1c-.2.2 0 .8 0 .8-.2.3-.2.7.1 1-.1.3 0 .9.2.9.3 0 .5-.2.8-.4.2-.2.3-.4.5-.5.2 0 .4.1.4.1s0 .9-.5 1.2c-.3.3-.5.3-.9.3-.9.1-1.1-.7-1.1-.7s.4-.2.3-.9c-.1-.4-.4-.7-.7-.6-.2 0-.5.3-.5.8.1.6.6.8.6.8s0 .3-.3.6c0 0-.2.3-.8.3-.7 0-1.3-1.1-1.3-1.1s.1-.2.3-.2c.1 0 .3.2.5.3.3.2.6.2.7.1.1-.2 0-.6-.1-.8.1-.2.1-.7-.3-.9 0-.4-.1-.8-.2-.8s-.2 0-.4.3c-.2.2-.4.7-.4.7s-.1-.2-.1-.3.2-.7.2-.9-.1-.5-.2-.5c-.2 0-.4.1-.5.2 0 0-.2-.1-.4 0s-.3.3-.3.3c-.2 0-.4.1-.5.1-.1.1 0 .3.1.5s.5.5.6.6c-.4.1-.4.3-.4.3s-.4-.2-.7-.2-.5 0-.5.1c0 .3.3.6.3.6-.1.6.1.8.4.8 0 .3.2.7.3.7.2 0 .3-.3.4-.4.1-.2.1-.5.2-.5.1-.1.3 0 .3 0s.4 1.4-.4 1.6c-.8.3-1.2-.3-1.2-.3s.2-.3-.1-.8c-.2-.3-.5-.5-.7-.4s-.3.4-.1.8c.2.6.6.5.6.5s0 .3-.2.6-.4.4-.7.4c-.5 0-.9-.5-.9-.6s.1-.2.5-.2c.2 0 .4.2.5.4 0 .1.1 0 .1 0s.2-.3 0-.6c-.1-.2-.4-.4-.4-.4s.1-.5-.2-.7c-.2-.2-.5-.2-.5-.2s0-.2-.2-.4c-.2-.3-.4-.3-.4-.3s-.1 0 0 .1c.2.1.1.5 0 .7l-.2.3s-.4-.4-.6-.6c-.3-.3-.5-.4-.8-.4-.4 0-.6.3-.6.3s.3-.1.7.2c.2.2.8.7.8.7-.1.8.2 1.3.9 1.4l.5.6h18.5l.5-.6c.7-.1 1-.6.9-1.4 0 0 .6-.5.8-.7.4-.3.7-.2.7-.2s.1-.3-.3-.4m-21.2 1.8-.1.2s.2.4.1.4c0 0-.3 0-.6-.3-.2-.2-.3-.9-.3-.9s.2.2.4.4.1.1.1.1.1-.1.2-.1h.3s0 .2-.1.2m4-1.3-.4-.4s-.1 0-.3 0c-.1 0-.4.1-.4.1s.1-.3.3-.4c.1-.1.2-.1.2-.1s-.1 0-.1-.4c-.1-.4 0-.9 0-.9s.4.4.5.8c.1.3.1.4.1.4s.1 0 .2-.1c.3 0 .5.1.5.1s-.2 0-.4.1c-.1.1-.2.2-.2.2s.1.6 0 .6m5.6-.8c-.2 0-.3-.6-.3-.6s-.1-.1-.3-.1-.4 0-.4 0 .2-.2.4-.3h.3s0 0 0-.3c0-.4.3-.9.3-.9s.2.5.3.9v.3s.1 0 .3 0c.3.1.4.3.4.3s-.2 0-.4 0-.3.1-.3.1-.1.6-.3.6m5.6.3s-.1-.1-.2-.2-.3-.1-.3-.1.2-.2.5-.1c.2 0 .2.1.2.1s0-.1.1-.4c.2-.4.5-.8.5-.8s.1.5 0 .9c-.1.3-.1.4-.1.4s.1 0 .2.1c.2.1.3.4.3.4s-.2-.1-.4-.1c-.1 0-.3 0-.3 0s-.3.4-.4.4c-.1-.1 0-.6-.1-.6m4.6 2.1c-.3.3-.6.3-.6.3-.1 0 .1-.4.1-.4s-.1-.1-.1-.2-.2-.2-.2-.2.2-.1.3 0c.1 0 .2.1.2.1s0 0 .1-.1c.2-.2.4-.4.4-.4s.1.7-.2.9"/><path d="m101.9 34.5h-18.5c-.2 0-.4-.2-.4-.4s.2-.4.4-.4h18.4c.2 0 .4.2.4.4 0 .3-.1.4-.3.4z"/><path d="m101.9 31c.2 0 .4-.2.4-.4s-.2-.4-.4-.4h-18.5c-.2 0-.4.2-.4.4s.2.4.4.4z"/><path d="m93.3 23.2h.6c.2-.7.3-1.7 0-2.5.3.1.6.2 1.1.2h.2c.7 0 1.8 0 2.3.8.4.6.2 1.4 0 1.9-.2.6-.2.9-.2 1 .1 0 .3.1.5.3 0-.5.1-.7.3-1.2s.5-1.5 0-2.3c-.7-1.1-2.1-1-2.9-1h-.2c-1.1 0-1.6-.3-1.6-.3h-.2c.3 1 .4 2.2.1 3.1m-5.7 1.7c.2-.2.4-.3.5-.3 0-.1 0-.4-.2-1s-.4-1.3 0-1.9c.6-.8 1.6-.8 2.3-.8h.2c.5 0 .9-.1 1.1-.2-.3.7-.2 1.7 0 2.5h.6c-.4-.8-.3-2 .1-3.1h-.2s-.5.3-1.6.3h-.1c-.9 0-2.2 0-2.9 1-.6.8-.3 1.7 0 2.3.2.5.2.7.2 1.2"/><path d="m85 22.2c0-.2.1-.4.2-.6-1.2.1-2 .6-2.5 1-1.2 1.1-.8 2.9-.5 3.9.1.2 0 .1.1.2.1-.3.3-.4.4-.5 0-.1 0-.1-.1-.3-.1-.4-.2-1-.2-1.3.1-1.4 1.2-2.2 2.6-2.4m17.6.5c-.5-.5-1.2-.9-2.5-1 .1.2.2.3.2.6 1.4.2 2.5 1 2.5 2.5 0 .4-.1.9-.2 1.3-.1.2-.1.2-.1.3.2.1.3.2.4.5 0-.1 0 0 .1-.2.4-1.1.8-2.9-.4-4"/><path d="m81.5 24.4c0 .4-.3.7-.7.7s-.7-.3-.7-.7.3-.7.7-.7.7.3.7.7m.2 1.5c0-.3-.3-.6-.6-.6s-.6.3-.6.6.3.6.6.6c.4-.1.6-.3.6-.6m.3-3.1c0-.3-.3-.6-.6-.6s-.6.3-.6.6.3.6.6.6.6-.2.6-.6m1-1c0-.3-.3-.6-.6-.6s-.6.2-.6.6.3.6.6.6c.3-.1.6-.3.6-.6m1.2-.6c0-.3-.2-.5-.5-.5s-.5.2-.5.5.2.5.5.5.5-.2.5-.5m1.3-.3c0-.3-.2-.5-.5-.5s-.5.2-.5.5.2.5.5.5.5-.3.5-.5"/><path d="m104.1 22.7s0 .1 0 0c.1.1.1.1 0 0 .1 0 .1 0 0 0zm-2.7-1.8c0 .1 0 .1 0 0zm2.4 3.5c0 .4.3.7.7.7s.7-.3.7-.7-.3-.7-.7-.7-.7.3-.7.7m-.2 1.5c0 .3.3.6.6.6s.6-.3.6-.6-.3-.6-.6-.6c-.4 0-.6.2-.6.6m-.3-3c0 .3.3.6.6.6s.6-.3.6-.6-.3-.6-.6-.6-.6.2-.6.6m-1-1.1c0 .3.2.6.6.6s.6-.3.6-.6-.3-.6-.6-.6-.6.3-.6.6m-1.2-.6c0 .3.2.5.5.5s.5-.2.5-.5-.2-.5-.5-.5c-.3-.1-.5.2-.5.5m-1.3-.3c0 .3.2.5.5.5s.5-.2.5-.5-.2-.5-.5-.5-.5.2-.5.5"/><path d="m90.9 20c.2 0 .4-.2.4-.4s-.2-.3-.4-.3-.4.2-.4.3c.1.2.2.4.4.4m-4.4 4.2c.3-.1.5-.5.3-.8-.1-.3-.5-.5-.8-.4s-.5.5-.4.8c.2.3.6.5.9.4m.2-2c0-.3-.3-.6-.6-.6s-.6.3-.6.6.3.6.6.6.6-.3.6-.6m.4-1.3c0-.3-.3-.6-.6-.6s-.5.3-.5.6.3.6.6.6.5-.3.5-.6m1-.8c0-.3-.2-.6-.6-.6s-.5.2-.5.6.2.6.6.6.5-.3.5-.6m1.1-.4c0-.3-.2-.5-.5-.5s-.5.2-.5.5.2.5.5.5.5-.2.5-.5m1.1-.1c0-.2-.2-.4-.4-.4s-.4.2-.4.4.2.4.4.4.4-.1.4-.4"/><path d="m94 19.7c0 .2.2.4.4.4s.4-.2.4-.4-.2-.3-.4-.3-.4.1-.4.3m4.8 4.5c.3.1.6-.1.8-.4.1-.3 0-.7-.3-.8s-.6.1-.8.4c-.1.3 0 .7.3.8m-.2-2c0 .3.3.6.6.6s.6-.3.6-.6-.3-.6-.6-.6-.6.3-.6.6m-.4-1.3c0 .3.3.6.6.6s.6-.3.6-.6-.3-.6-.6-.6c-.4.1-.6.3-.6.6m-1-.8c0 .3.3.6.6.6s.6-.2.6-.6-.2-.6-.6-.6-.6.3-.6.6m-1.1-.4c0 .3.2.5.5.5s.5-.2.5-.5-.2-.5-.5-.5c-.3.1-.5.3-.5.5m-1.1 0c0 .2.2.4.4.4s.4-.2.4-.4-.2-.4-.4-.4-.4.1-.4.4"/><path d="m93.1 21.5c0-.3-.2-.5-.5-.5s-.5.2-.5.5.2.5.5.5c.3-.1.5-.3.5-.5m.1 1.1c0-.3-.2-.5-.5-.5s-.5.2-.5.5.2.5.5.5.5-.2.5-.5m-.2-2.1c0-.2-.2-.4-.4-.4s-.4.2-.4.4.2.4.4.4c.3-.1.4-.2.4-.4"/><path d="m92 12.7h1.3l-.3 1.2 1-.4v1.3l-1-.2v1.2h-.7v-1.2l-1 .2v-1.3l1 .4z"/><path d="m92.3 15.8v1.5c-.5 0-1.1.1-1.6.2.1-.9.7-1.6 1.6-1.7"/><path d="m93 15.8c.8.2 1.5.9 1.6 1.7-.5-.1-1-.2-1.6-.2z"/><path d="m94.6 18.1c-.2.9-1 1.5-1.9 1.5s-1.7-.6-1.9-1.5c.6-.1 1.2-.2 1.9-.2.6 0 1.2.1 1.9.2"/><path d="m83.6 33.5h18.1v-2.1h-18.1zm1.7-.7h-1.2v-.8h1.2zm2 .1-1.1-.5 1.1-.5 1.1.5zm2.5.1c-.3 0-.6-.3-.6-.6s.3-.6.6-.6.6.3.6.6-.3.6-.6.6m4.1-.2h-2.4v-.8h2.4zm1.6.2c-.3 0-.6-.3-.6-.6s.3-.6.6-.6.6.3.6.6-.3.6-.6.6m2.5-.1-1.1-.5 1.1-.5 1.1.5zm3.2-.1h-1.2v-.8h1.2z"/></g><g fill="#fff"><path d="m31 56.1c-2.4 0-3.9-2.7-3.9-6.5s1.5-6.5 3.9-6.5 3.9 2.7 3.9 6.5-1.5 6.5-3.9 6.5m0-14.2c-3.8 0-6.9 3.5-6.9 7.7s3.1 7.7 6.9 7.7 6.9-3.4 6.9-7.7-3.2-7.7-6.9-7.7"/><path d="m62.1 42.1h-10.4c-.3 0-.4.1-.5.4 0 .1-.5 2.5-.6 2.8.1-.1 1.8-1.5 1.9-1.6s.2-.2.4-.2h2.7v12s-1.4 1.2-1.6 1.4h5.7l-1.6-1.4v-12h2.6c.2 0 .3 0 .5.2.1.1 1.6 1.3 1.9 1.5 0-.1-.6-2.5-.6-2.7 0-.3-.1-.4-.4-.4"/><path d="m20.5 43.6 1.5-1.4c-.4 0-2.9 0-3.3 0-.5 0-.7.3-.9.6-.1.3-2.6 5.8-3.2 7.1-.2-.5-3-6.7-3.2-7.1s-.3-.6-.9-.6h-3.4c.2.2 1.2 1.2 1.5 1.4 0 .4-1 11.1-1.1 12l-1.5 1.4h4.8l-1.5-1.4c0-.2.8-9.2.9-9.6.1.3 3.8 8.4 3.9 8.6s.4.3.6 0c0-.1 3.5-8.1 3.7-8.6 0 .4.8 9.2.8 9.6l-1.8 1.4h5.7l-1.6-1.4c0-.4-.9-11.3-1-12"/><path d="m46.9 55.6h-3.9v-5.6h3.1s1.4 1.1 1.5 1.2v-3.9l-1.5 1.2h-3.1s0-4.9 0-5h3.6c.2 0 .3 0 .5.1 0 0 1.9 1.3 1.9 1.4 0-.1-.8-2.5-.9-2.6-.1-.3-.2-.3-.6-.3h-8.8s1.5 1.3 1.6 1.4v12l-1.4 1.5h9.5c.3 0 .5-.2.5-.3s.9-2.7.9-2.8c0 0-2.2 1.5-2.3 1.6-.2.1-.3.1-.6.1m-4.3-14.3c.6 0 1.1-.5 1.1-1 0-.6-.5-1-1.1-1s-1.1.5-1.1 1 .5 1 1.1 1m3.3 0c.6 0 1.1-.5 1.1-1 0-.6-.5-1-1.1-1s-1.1.5-1.1 1 .5 1 1.1 1"/><path d="m101.7 42.1s1.5 1.3 1.6 1.4v4.9h-5.3v-4.9s1.2-1.1 1.6-1.4h-5.7s1.3 1.2 1.6 1.4v12s-1.2 1.1-1.6 1.4h5.7s-1.2-1.1-1.6-1.4v-5.7h5.2v5.6s-1.3 1.2-1.6 1.4h5.7s-1.4-1.2-1.5-1.4c0 0 0-11.6 0-12 0 0 1.4-1.2 1.6-1.4-.1.1-5.7.1-5.7.1z"/><path d="m87 43.1c2.5 0 3.4 2.8 3.6 3.8.3-.6 1.7-3.7 1.9-4-.2.1-1 .3-1.5.4-1.1-.9-2.4-1.4-4-1.4-3.8 0-6.9 3.5-6.9 7.7s2.7 7.7 6.7 7.7c3.1 0 4.9-1.9 4.9-3.7 0-.5-.1-1.5-1.1-1.9 0 1.9-1.1 4.3-3.6 4.3s-3.9-2.7-3.9-6.5 1.5-6.4 3.9-6.4"/><path d="m158.6 56.1c-2.4 0-4-2.7-4-6.5s1.6-6.5 4-6.5 4 2.7 4 6.5-1.6 6.5-4 6.5m0-14.2c-3.8 0-6.9 3.5-6.9 7.7s3.1 7.7 6.9 7.7 6.9-3.4 6.9-7.7-3.1-7.7-6.9-7.7"/><path d="m70.8 55.8c-2.1 0-2.8-1.6-2.8-2.8 0-1 .4-1.7.8-2 .7 1.1 2.9 3.7 3.5 4.4-.2.2-.6.5-1.5.4m3.8-.9c.6-.7 1.2-1.6 1.2-2.9 0-1.1-.5-1.7-.9-2.1-.3-.2-.5-.1-.7.1-.1.1-.5.6-.9.9.8.3 1.2 1 1.2 1.7 0 .6-.1 1.1-.6 1.5-.8-.9-4.9-5.2-4.9-7.2 0-.9.6-1.4 1.3-1.4.9 0 1.3.9 1.3 1.5 0 1-.4 1.6-1.2 2.2.1.1.3.4.4.6.8-.4 2.6-1 2.6-2.7 0-1-1-2.3-3-2.3-1.3 0-3.1 1-3.1 2.8 0 1.1.8 2.2 1.1 2.7-.9.5-2.5 1.7-2.5 3.5 0 2 1.7 3.4 3.9 3.4 1.7 0 2.5-.4 3.3-1 .3.3.5.5 1 .9h3c.1-.1.5-.6.6-.8-1.6.2-2.3-.5-3.1-1.4"/><path d="m113 50.9 1.8-5.8 1.8 5.8zm3.5-8.8h-2.4l-4.3 13.4-1.6 1.4h4.9l-1.5-1.4 1.1-3.5 2.2.5 2.1-.5 1.1 3.5-1.4 1.4h5.8l-1.6-1.4z"/><path d="m132.7 43.6v7.4s-5.6-8.2-5.7-8.4c-.2-.2-.4-.4-.8-.4h-3.2l1.6 1.4v12l-1.6 1.4h4.8l-1.6-1.4v-9.7l7.5 11.2c.2.3.6.2.6-.2v-13.3l1.6-1.4h-4.8z"/><path d="m174.5 42.1 1.6 1.4v7.4s-5.6-8.2-5.7-8.4c-.2-.2-.4-.4-.8-.4h-3.2l1.6 1.4v12l-1.6 1.4h4.8l-1.6-1.4v-9.7l7.5 11.2c.2.3.6.2.6-.2v-13.2l1.6-1.4z"/><path d="m143.2 55.7c-.5 0-1.3 0-1.9 0 0-.4 0-12.1 0-12.1.5-.1 1.6 0 1.9 0 2.2 0 4.2 1.7 4.2 6.1s-1.9 6-4.2 6m1.9-13.2c-.7-.2-1.5-.3-2.3-.3h-5.7l1.5 1.4v12l-1.6 1.4h5.8c.7 0 1.7-.1 2.5-.3 3.2-1 4.8-4.2 4.8-6.9.1-3-1.6-6.3-5-7.3"/></g></svg>