<svg enable-background="new 0 0 631.3 270.9" viewBox="0 0 631.3 270.9" xmlns="http://www.w3.org/2000/svg"><g fill="#fff"><path d="m216.7 5.1-6.4.2c-2.5.1-3.5.3-4.2 1.3-.4.6-.6 1.2-.7 1.5s-.2.5-.5.5-.4-.2-.4-.7c0-.7.8-4.6.9-5 .1-.6.3-.8.5-.8.3 0 .8.4 1.9.5 1.3.1 2.9.2 4.3.2h17.1c1.4 0 2.3-.1 3-.2.6-.1 1-.2 1.2-.2.3 0 .3.3.3.9 0 .9-.1 3.9-.1 5 0 .4-.1.7-.4.7s-.4-.2-.5-.9v-.5c-.1-1.1-1.3-2.3-5.1-2.4l-5.5-.1v17.7c0 4 0 7.4.2 9.3.1 1.2.4 2.2 1.7 2.3.6.1 1.6.2 2.2.2.5 0 .7.1.7.3 0 .3-.3.4-.8.4-2.9 0-5.6-.1-6.8-.1-1 0-3.7.1-5.5.1-.6 0-.9-.1-.9-.4 0-.2.2-.3.7-.3.6 0 1.2-.1 1.6-.2.9-.2 1.1-1.1 1.3-2.4.2-1.8.2-5.2.2-9.2z"/><path d="m240.8 15.2c0-6.6 0-7.8-.1-9.2-.1-1.5-.4-2.2-1.9-2.5-.3-.1-1.1-.1-1.7-.1-.5 0-.7-.1-.7-.4s.3-.4.9-.4h3.5c1.1 0 2.1.1 2.7.1h10.8c.8-.1 1.5-.2 1.9-.3.2 0 .5-.2.7-.2s.3.2.3.4c0 .3-.2.8-.3 2.8 0 .4-.1 2.3-.2 2.9 0 .2-.1.5-.4.5s-.4-.2-.4-.6c0-.3 0-1-.3-1.6-.3-.8-.7-1.3-2.9-1.6-.7.1-5.2-0-6.1-0-.2 0-.3.1-.3.4v10.9c0 .3 0 .5.3.5.9 0 5.9 0 6.9-.1s1.7-.2 2.1-.6c.3-.3.5-.6.7-.6s.3.1.3.3c0 .3-.2 1-.3 3.2 0 .9-.2 2.6-.2 2.9s0 .8-.4.8c-.3 0-.4-.2-.4-.4 0-.4 0-1-.2-1.6-.2-.9-.8-1.5-2.4-1.7-.8-.1-5.1-.1-6.1-.1-.2 0-.3.2-.3.4v3.4 6.7c.1 3 .8 3.6 5.2 3.6 1.1 0 2.9 0 4.1-.5 1.1-.5 1.6-1.4 1.9-3.2.1-.5.2-.6.5-.6s.3.3.3.8c0 1-.3 3.9-.6 4.8-.3 1.1-.7 1.1-2.3 1.1-3.2 0-5.6-.1-7.5-.1-1.9-.1-3.2-.1-4.5-.1-.5 0-1.4 0-2.5 0-1 0-2.1.1-3 .1-.6 0-.9-.1-.9-.4 0-.2.2-.3.7-.3.6 0 1.2-.1 1.6-.2.9-.2 1.1-1.1 1.3-2.4.2-1.8.2-5.2.2-9.2z"/><path d="m291.8 19.6c0-10.5-6.5-15.5-12.5-15.5s-10.7 3.6-10.7 13.7 6.2 16 13.2 16c3.4 0 10-1.5 10-14.2zm-4.8 15.3c-1.7.6-4.5 1.1-6.8 1.1-12.7 0-17.6-9.4-17.6-17.2 0-7 5.1-16.7 17.7-16.7 10.3 0 17.5 6.3 17.5 16.4 0 7.6-4.8 12.4-7.5 14.2l8.7 4.5c9.1 4.7 14.9 5.1 17.8 5.1 2.2 0 5.5-.3 8.4-1.5.3-.1.5-.2.6-.2.2 0 .4.2.4.4 0 .3-.2.4-.5.5-2.6 1.2-7.5 3.2-13.7 3.2-6.5 0-11.2-1.7-18.3-5.9z"/><path d="m304.8 15.2c0-6.6 0-7.8-.1-9.2-.1-1.5-.4-2.2-1.9-2.5-.3-.1-1.1-.1-1.7-.1-.5 0-.7-.1-.7-.4s.3-.4.9-.4c2.3 0 5 .1 6.3.1 1 0 3.8-.1 5.3-.1.6 0 .9.1.9.4s-.3.4-.7.4c-.5 0-.7 0-1.3.1-1.2.2-1.5.9-1.6 2.5-.1 1.4-.1 2.6-.1 9.2v6.1c0 6.3 1.3 8.9 3.4 10.6 1.9 1.6 3.9 1.8 5.4 1.8 1.9 0 4.2-.6 6-2.3 2.4-2.4 2.5-6.3 2.5-10.7v-5.4c0-6.6 0-7.8-.1-9.2-.1-1.5-.4-2.2-1.9-2.5-.3-.1-1.1-.1-1.6-.1s-.7-.1-.7-.4.3-.4.9-.4c2.2 0 4.9.1 5 .1.5 0 3.2-.1 4.9-.1.6 0 .9.1.9.4s-.3.4-.8.4-.7 0-1.3.1c-1.2.2-1.5.9-1.6 2.5-.1 1.4-.1 2.6-.1 9.2v4.6c0 4.8-.5 9.9-4.1 13-3.1 2.6-6.2 3.1-9 3.1-2.3 0-6.4-.1-9.6-3-2.2-2-3.9-5.2-3.9-11.5z"/><path d="m342.6 15.2c0-6.6 0-7.8-.1-9.2-.1-1.5-.5-2.2-1.5-2.4-.5-.1-1-.2-1.6-.2-.4 0-.7-.1-.7-.4s.3-.3 1-.3c1.6 0 4.4.1 5.6.1 1.1 0 3.6-.1 5.3-.1.6 0 .9.1.9.3 0 .3-.3.4-.7.4s-.8 0-1.3.1c-1.2.2-1.5.9-1.6 2.5-.1 1.4-.1 2.6-.1 9.2v7.6c0 4.2 0 7.6.2 9.5.1 1.2.4 1.9 1.7 2.1.6.1 1.6.2 2.2.2.5 0 .7.1.7.3 0 .3-.3.4-.8.4-2.9 0-5.6-.1-6.7-.1-1 0-3.7.1-5.5.1-.6 0-.9-.1-.9-.4 0-.2.2-.3.7-.3.6 0 1.2-.1 1.6-.2.9-.2 1.1-.9 1.3-2.2.2-1.8.2-5.2.2-9.4z"/><path d="m366.7 22.8c0 5.5 0 8.5.9 9.3.7.6 1.9.9 5.2.9 2.3 0 4 0 5.1-1.2.5-.6 1-1.8 1.1-2.6 0-.4.1-.6.5-.6.3 0 .3.2.3.7s-.3 3.7-.6 5c-.3.9-.5 1.2-2.7 1.2-3.1 0-5.4-.1-7.3-.1-1.9-.1-3.5-.1-5.3-.1-.5 0-1.4 0-2.5 0-1 0-2.1.1-3 .1-.6 0-.9-.1-.9-.4 0-.2.2-.3.7-.3.6 0 1.2-.1 1.6-.2.9-.2 1.1-1.1 1.3-2.4.2-1.8.2-5.2.2-9.2v-7.6c0-6.6 0-7.8-.1-9.2-.1-1.5-.4-2.2-1.9-2.5-.3-.1-.9-.1-1.4-.1s-.7-.1-.7-.4.3-.4.9-.4c2 0 4.8.1 5.9.1 1 0 4.2-.1 5.9-.1.6 0 .9.1.9.4s-.3.4-.8.4-1.2 0-1.7.1c-1.2.2-1.5 1-1.6 2.5-.1 1.4-.1 2.6-.1 9.2z"/><path d="m399.7 21.9c.2 0 .3-.1.2-.3l-3.8-10.6c0-.2-.1-.4-.2-.4s-.2.2-.3.4l-4 10.6c0 .2 0 .3.2.3zm-8.8 2.2c-.2 0-.3.1-.4.3l-2.3 6.2c-.4 1.1-.6 2.1-.6 2.6 0 .8.4 1.3 1.7 1.3h.6c.5 0 .6.1.6.3 0 .3-.3.4-.7.4-1.4 0-3.2-.1-4.6-.1-.5 0-2.9.1-5.1.1-.6 0-.8-.1-.8-.4s.2-.3.5-.3c.4 0 1 0 1.3-.1 2-.3 2.8-1.7 3.7-3.9l10.9-27.2c.5-1.3.8-1.7 1.2-1.7s.6.4 1.1 1.4c1 2.4 8 20 10.7 26.6 1.6 3.9 2.9 4.5 3.8 4.7.6.1 1.3.2 1.8.2.3 0 .6 0 .6.3s-.4.4-2 .4-4.7 0-8.2-.1c-.8 0-1.3 0-1.3-.3s.2-.3.6-.4c.3-.1.6-.5.4-1l-3.5-9.2c-.1-.2-.2-.3-.4-.3z"/><path d="m392.7 251.5c3-1.9 4.9-5.2 6.1-8.5.1-.1.3-.5.5-.4 1.2 3.1.9 7.1-1.4 9.6-.9.8-2.2 1.4-3.5 1-.7-.2-1.7-.9-1.7-1.7zm-1.6 1.9c1.2 1.4 2.9 2.2 4.8 2.1 2.5-.2 4.6-2.5 5.3-4.8 1.2-4 .8-8.8-1.8-12.1-.4-.3-1-.1-1.3.3-1 4.6-3.8 9.3-7.8 11.8-.3 1 .5 1.8.8 2.7zm-4.8-24.8c1.7-1 3.6-1.4 5.7-1.7.8 1.1.9 2.4 1.3 3.6 1 5.7 0 12.1-5.1 15.3-1.6.9-3.6.3-4.9-.7-2.6-2.7-2.7-7.4-1.5-10.7 1-2.2 2.3-4.4 4.5-5.8zm-6.9 22.8c1.6 1 3.4 1.8 5.4 1.9v.2c-1.5 1.2-4 1.7-5.9.8-.3-.2-.5-.6-.6-.9 0-.7.5-1.6 1.1-2zm-3.3 2.5c.3 1.5 1.9 2.7 3.3 3 2.9.6 5.5-.5 7.6-2.2.5-.8 1.5-1.6 1.5-2.7-.2-.3-.4-.7-.7-.8-2.7.2-5.2-.5-7.4-2-1-.9-1.9.2-2.8.6-1 1.1-1.7 2.5-1.5 4.1zm-1.7-29.7c1.1 2 3 3.7 5.4 3.4 1-.2 2.2-.5 2.4-1.6-.6-1.2-1.9.2-3.1-.2-1.7-.2-2.7-1.8-3.2-3.3-.2-1 .6-1.8 1.2-2.6.2-.4.8-.1.9-.6 3-1.6 6.9-.5 9.4 1.7 1.4.9 2.2 2.4 3.2 3.7-1.9.6-3.8 1.1-5.4 2.2-5 3.5-7.1 9.6-5.7 15.7.6 2.4 2.5 4.8 5 5.5 3.1.7 6-1.1 8.1-3.5 3.3-4.2 3.5-10.4 2.4-15.6-.2-.5-.4-1-.5-1.6-1.2-3.5-3.9-6.6-7-8.8-2.8-2.2-7-3-10.3-1.4-2.3 1.5-3.8 4.2-2.8 7zm-2.7 7.3c1.2-.5 2.4-.9 3.8-.8-.6 3.2-1.7 6.3-1.1 9.8 0 1.4.5 2.5.6 3.9-1.8.4-3.5-.5-4.8-1.6-1.6-1.6-2.7-3.8-2.2-6.1.3-2.1 1.8-4 3.7-5.2zm-5 3c-1 2.5-.6 5.8.9 8 2 2.9 5.4 4.3 9 4.1.5-.1.9-.5.9-1.1-.9-3-1.4-6.6-.9-9.9.2-1.9 1.1-3.6 1.6-5.5-.2-.5-.5-1-1-1.2-2.9-.5-5.9 0-8.1 1.9-1 1.1-1.9 2.4-2.4 3.7zm-6.7-30.2c5.7 1.7 11.1 4 16.1 7.4v.2c-1.6.1-2.8 1.4-4.2 2-3.8-3.6-8.3-6.8-12.6-9.5zm-6.4 4.5c5.4 2.6 10.3 6.8 14.5 10.9 0 1.3-.5 2.3-.4 3.6-1.4.9-2.9 2.8-4.2 4-2.4-6.5-5.5-12.8-9.9-18.5zm-3.7-7.1c7.6 3.4 15.1 8.3 21.2 14.4l.8.1c1.8-.8 3.1-2.5 5.1-2.7 1-.3 2.2.4 2.8-.7.2-.4.2-1.1 0-1.5-5.6-3.8-11.8-6.6-18.1-8.8-3.8-1.1-7.6-2.3-11.5-2.6-.7.3-.9 1.4-.3 1.8zm.7 41.5c1-4.1 1.9-8.2 2-12.5h.2c2.1 5.8 2.9 12.5 2.2 19-.1.6-.7 1-1.2 1.3-.7.2-1.2-.3-1.5-.8-.7-1.4.7-2.5-.7-3.6-.4-.5-1.4-.3-1.5-1.2-.3-.9.4-1.4.5-2.2zm-3 2.8c.2 1.3 1.6 1.8 2.5 2.5 0 1.4.3 2.8 1.2 3.9.7.4 1.4 1 2.3.9 1.7-.1 2.8-1.7 3.2-3.1l.3-6.3c-.2-6.4-1.6-12.3-3.9-17.9-.4-.7-.7-1.8-1.6-2-.5-.3-1.1-.2-1.4.3-.2.5-.2 1.4 0 1.9-.1 5.5-.3 11.1-2 16-0 1.3-1 2.3-.6 3.8zm-1.3-41.6c.1.5.6.7 1 1 6.2 5.6 10.5 12.9 13.4 20.4.8 1.8 1.1 4.1 1.9 5.7.3.2.8.3 1.2.2.6-.3.6-1.1.8-1.8 1.5-2.2 2.7-4.5 5.2-5.8.6-1-.1-2 .3-3.1.2-.6.8-1.2.5-1.9-6.6-6.7-14.5-12.2-22.7-16h-1c-.5.3-.5.9-.6 1.3zm-6 .6 1 1.4c3.2 4.3 5 9.2 6.1 14.3 1.8 6.8.2 14.2-1.6 20.4-.6 1.9-1.5 3.6-1.9 5.6-.3 2 .9 3.5 2.4 4.6.9.7 3.2.5 2.6 2.4-.2 2 1.1 3.9 2.6 5 1.5.8 3.6.7 5.1 0 3.7-2 6.1-5.7 6.9-9.5-1.6-2.1-2.8-4.5-3.2-7.2-.3-1-.3-1.9-.6-2.9-1.9-9.2-4.8-18-10.4-25.6-2.8-3.2-5.3-6.5-9-8.5zm.1 15c.7 1.3.7 2.9.6 4.5-.7-1.2-1.4-2.5-1.9-3.8zm-5.3 2.6c.7-.3 1.4-.7 2.1-.9l3.4 6.8c0 1.5-.4 3.1-.9 4.5-1.7-3.4-3.2-6.9-4.6-10.4zm-1 19.1c.4.5.7 1.2.7 1.9l-2 2.9h-.2c-.3-1.4-.8-2.7-1.1-4.1zm-2.2-17.8c.5-.2 1-.4 1.6-.4 1.6 3.6 3 7.3 4.5 10.9-.8.7-1.9.9-2.9 1.3-1.5-3.7-2.8-7.5-4.1-11.3zm-1.5-26.6c.6 1.5 2.2 1.5 3.5 2 15.4 5.3 23.5 21.1 27 35.5 1.5 5.2 1.2 11.2 6.1 14.7 1.5 1.4 3.6 1.5 5.5 2.2.6.6.3 1.6.6 2.3.6 2.7 3.4 5.2 6 5.8 3.3.6 7.1.1 9.6-2.2 1.9 0 3.4 1.2 5.3 1.2 1.4-.1 2.7.1 4-.4 4.4-2.1 7-6.9 6.6-12-.8-20.3-18.5-36.3-35.9-43.8-10.7-4-21.5-7.1-33.5-7.7-1.5.1-3.7-.8-4.6.9-0 .5-.3.9-.2 1.5zm.1 8c.6-.2 1 .4 1.5.8 1.8 3.2 3.7 6.3 5.1 9.6l-2.6 1.4c-1.8-3.6-3.4-7.3-5.1-10.8 0-.8.7-.8 1.1-1zm-3.6 20.2c.7-.2 1.4-.5 2.2-.6 1.5 3.7 2.8 7.5 3.8 11.4-1 .4-2 .7-3 .9-1.2-3.7-2.2-7.4-3.2-11.1zm2.7 17.5c.7 1.7 1.1 3.6 1.6 5.5-.6 1-1.5 2-2.4 2.9-.8-2.5-1.2-5.2-1.7-7.9zm-2-36.2c1.7 3.6 3.1 7.3 4.7 11-.8.6-1.8.9-2.7 1.2-1.5-3.7-2.8-7.5-4.1-11.3.5-.5 1.4-.6 2.1-.9zm-2.8 19.4c1.1 3.8 2.1 7.6 3 11.5-.9.3-1.8.6-2.8.7-1-3.6-1.6-7.5-2.5-11.2l.1-.5zm-2.1 18.2 2.4-.4.2.3 1.8 8.9-2.8 2.6-.2-.4c-.6-3.6-1.1-7.3-1.7-10.9zm-.7-35.7 1.8-.4c1.5 3.7 2.5 7.5 3.8 11.3l-.1.3c-1 .2-1.9.7-3 .8-1-3.9-2.2-7.7-3-11.7zm.5-36.1c1.4-1.3 3.7-1.7 5.6-1.2 2 .4 3.4 2.5 3.8 4.4.3 1.6-.3 3.2-1.2 4.4-1.5 1.6-3.7 2.6-5.8 2-2.1-.3-3.6-2.5-4.2-4.3-.3-2.2.4-3.9 1.8-5.3zm-3.4 54.6 1.4-.2c.8 3.9 1.6 7.8 2.2 11.8-1 .3-2 .4-3.1.6-.8-3.9-1.1-7.9-1.6-11.8zm-1.2 17.9c.8-.3 1.8-.3 2.7-.3l1.7 11.5-.2.2c-1 .2-2 .2-3 .3-.5-3.9-.9-7.7-1.2-11.7zm0-35.5 1.5-.2c.8 3.9 2 7.8 2.5 11.8-.9.4-1.9.5-2.9.6-.9-3.9-1.2-8-1.9-11.9zm-2 18.2.3.4 1.1 11.3c-.9.7-2.3.3-3.3.4-.3-4-.6-8.1-.5-11.9zm-2.5-17.6c.7.1 1.3-.2 1.9 0 .7 3.9 1.1 7.8 1.5 11.8l-.2.2c-1 0-2.1.3-2.9.1-.3-3.9-.5-8-.8-11.9zm2.4 35 .2.2.9 11.5c-1 .2-2 .3-3.1.3-.4-3.9-.4-7.9-.5-11.8zm-7.1-34.6c.7-.5 1.4 0 2.4-.2l.2.6c.1 3.7.4 7.7.3 11.6-1 .1-2.2.3-3.2-.1zm.1 17.5c.8.1 1.8-.3 2.7 0l.3 11.8c-1.1.2-2.1.2-3.2.1l-.1-.2zm-.2 17.5c.8-.3 1.7 0 2.6-.1l.1.2.3 11.4-.2.2c-1 0-2.2.2-3.1-.1zm-3.9-35.3c.8-.2 1.6.1 2.3.2 0 4.1-.6 7.8-.6 11.9l-.2.2-3-.3c.4-4.1.8-8.1 1.5-12zm-.3 17.7c.7-.3 1.5 0 2.3 0l.2.2-.3 7.1h-.1c.1 1.4 0 3.2-.1 4.7-.8 0-1.9 0-2.9-.1.2-4.1.7-7.9.9-11.9zm-.4 17.4c.8-.1 1.8 0 2.6.2l-.4 11.6c-1 .2-2.2.1-3.1-.2zm-4-17.9c.8-.2 1.7.1 2.6.2-.2 3.9-.8 7.9-1.2 11.8-1 .1-2.2-.1-3.2-.3.5-3.9 1.1-7.8 1.8-11.7zm.3-17.8c.6-.3 1.3.2 2 .1l.3.2c-.4 4-1.3 7.8-1.8 11.8-1.1 0-2.1-.2-3-.5.6-4 1.6-7.7 2.5-11.6zm-1.1 35.2c.9.2 1.8-.1 2.7.2-.2 3.9-.4 7.9-1 11.7-1.2 0-2.3-.1-3.4-.4.5-3.9.9-7.7 1.7-11.5zm-2.8-36.3c.6 0 1.4.1 2 .5-.8 3.9-1.9 7.8-2.8 11.6-.9.1-1.9-.3-2.7-.6 1-3.9 2.2-7.7 3.5-11.5zm-.7 18.1.2-.2c.8.5 2.8-.2 2.3 1.3l-2 10.9c-1 0-2.2-.3-3.2-.6.9-3.7 1.7-7.6 2.7-11.4zm-2.9-37c9.9-5.2 23.8-5.3 33.7-.2.4.1 1.1.6 1.4.1l-1.3-2c-7-6.8-18.7-8.4-27.5-4.2-2.5 1.4-5.6 2.6-7.1 5.4-.1.5.1 1.2.8.9zm2.1 54.5 2.4.3v1.2c-.6 3.3-.8 6.7-1.5 9.9-1-.8-2.1-1.7-2.8-2.6l1.7-8.6zm-5.2-71.9c1.6-1 3.9-1.8 5.7-.9 1.6.6 2.9 2 3.4 3.5.6 1.9 0 3.9-1.1 5.4-1.4 1.8-3.6 2.2-5.8 1.7-1.9-.7-3.7-2.5-4.1-4.5-.3-2.1.7-3.7 1.9-5.2zm.1 70.8c.9 0 1.9.2 2.7.5-.3 2.5-.9 4.9-1.4 7.3h-.2l-2.3-2.8c.3-1.6.7-3.3 1.2-5zm1.6-17.4c.8-.2 1.8.1 2.4.5-.8 3.9-1.9 7.6-2.8 11.4-1 .1-2-.3-2.9-.7.9-3.8 2.2-7.5 3.3-11.2zm.9-18.6c.7.2 1.6.3 2.2.8-1 3.9-2.5 7.7-3.8 11.4-1.1-.2-2.1-.7-3-1.2 1.6-3.6 2.9-7.4 4.6-11zm-7 34.7 2.5.7c0 1.2-.5 2.3-.8 3.4-.8-.8-1.4-2-2.1-2.9.1-.5.2-.9.4-1.2zm2.9-35.6c.7-1.2 1.7-.3 2.5.1l-4.9 11.1c-1-.3-1.9-.8-2.7-1.3 1.7-3.3 3.2-6.7 5.1-9.9zm-1 17.9c.8.2 1.6.4 2.3.7v.4l-3.6 11c-1.1-.2-2.1-.6-3-1 1.3-3.8 2.8-7.4 4.3-11.1zm-7.5 5.5c1.2-2.4 2.2-5 3.5-7.2.8.1 1.4.6 2 .9-1.4 3.6-2.9 7.2-4.4 10.8-.6-1.4-.9-2.9-1.1-4.5zm-.1-9.1c.5.6 2.5.5 1.3 1.7l-1.7 3.4-.2-.1c-.1-1.8.2-3.5.6-5zm-.9-5.6c-2.6 5.8-1.7 13.3-.1 19.3 4.9 14.3 17.6 26.8 31.4 33.2 2.2-1 4.5-2.1 6.6-3.4 13.3-8.3 25.1-22.4 26.4-38.2.5-9-3.3-17.3-11-22.2-11.7-7.9-30.1-8.4-42.2-.9-4.6 2.6-9.4 7.2-11.1 12.2zm-4.2-26.1c.2.7.8 1.6 1.6 1.8 1 .5 2.2.1 2.9-.6.7-.8 1-2 .5-3-1.6-1.4.1-3.2.4-4.7 2.6-6.8 4.9-13.9 10.1-19.6 2-1.7 4.2-4.1 7.1-3 4.7 2.9 5.6 8.5 5.9 13.9-.7.4-1 1.2-1.9 1.5-.2-.9-.6-1.7-1-2.5-1.9-2.5-4.5-4.3-7.9-3.7-2.9.5-5.5 2.9-6.2 5.8-.5 2.2 0 4.5 1.2 6.2 1.7 2.6 4.8 4 8 3.4 2.3-.5 4.3-2.3 5.4-4.4 5.5-2.5 13.2-2.7 18.6.1l1.8 2.3c1.5 1.5 3.6 2.4 5.8 2.1 2.9 0 5.6-2.2 6.6-4.8.6-1.8.8-4.2 0-6-1.4-3-4.2-4.8-7.5-4.7-2.4.2-4.6 1.5-5.9 3.4-.5 1-1 1.8-1.2 2.9-.8-.3-1.1-1.2-1.9-1.5l.2-3.8c.5-4 2-8.6 6-10.4 2.3-.8 4.1 1.1 5.6 2.2 6.7 6.5 9.3 15.5 11.9 24.2-.9.9-1.2 2.3-.8 3.5.4.6 1.1 1.3 1.8 1.4.8.2 1.7 0 2.3-.5.7-.6.9-1.5.9-2.4-.2-1.1-1.1-2-2.2-2.4-1-3.9-2.7-7.5-4-11.2-2.6-6.1-5.8-13-12.3-16.4-2.4-1.2-5.3-.2-7.2 1.5-3.1 3.7-4.1 8.4-4.5 13.2-2-.7-4.4-1.2-6.6-.8-1.1.1-2.1.6-3.1.7-.1-1.5-.4-2.9-.7-4.5-.9-4.1-2.5-9.1-7.1-10.4-4.1-.9-7 2.2-9.6 4.9-5.3 6.6-7.8 14.4-10.5 22 .1 1.4-1.5 1-2 2-.3.6-.6 1.3-.5 2.3zm-7.2 42.1c.5 2.8.6 5.6 1.2 8.4.2 2.1 1.4 3.8 1.3 5.9-.6.9-1.8 1.3-2 2.5-.1.9.3 1.9-.3 2.7-.3.5-1.1.6-1.6.4-1.4-.9-.9-2.7-1.1-4.1.1-5.3.5-11.1 2.5-15.8zm-3.9 6.2c-.7 4.7-1 9.5-.1 14.2.6.8 1.3 1.5 2.3 1.9 1.2.4 2.3-.2 3.1-.8.7-1.3 1.2-2.6 1.2-4.1.1-.4.7-.6 1.1-.6 1.4-.7 1.5-2.3 1.4-3.6-2-5.2-2.6-11.2-2.7-17-.1-1 .4-1.9.1-2.7-.2-.4-.6-.6-1-.6-.6.2-1.4.4-1.6 1.1-1.9 3.8-3 7.9-3.8 12.2zm-7 12.2c.4 1.8 1 3.4 2.1 4.9 2 2.8 4.9 5.5 8.6 5 2.1-.4 3.6-2.3 3.9-4.3.1-.9-.3-2.1.5-2.8 1.4-.2 2.7-.8 3.6-2.1.9-1.2 1.2-3 .7-4.5-3.8-8.6-5.6-19.8-2.2-29.1 1.5-4 3.2-7.9 5.9-11.3l-.8.4c-7 5.1-11.7 12.6-14.5 20.3-2.5 5.7-3.5 11.9-4.9 18-.5 2.1-1.9 3.6-2.9 5.5zm-4.8-29.4c4.2-4.3 8.9-8 14-10.9h.4c-4.5 5.6-7.4 11.8-9.8 18.3-1.3-1.2-2.6-2.9-4.2-3.9-.2-.7.1-1.5-.2-2.2 0-.4-.3-.8-.2-1.3zm-1.9 1.4c.3 1-.4 2.2.4 3 2.1 1 3.3 3.1 4.7 4.9.8.6.3 1.9 1 2.5.5.3 1.1.2 1.4-.1 2.6-9.2 6.8-18.1 14-25.1.6-1 2.6-1.3 2.1-2.8-.3-.7-1-.7-1.6-.6-8.2 3.9-15.8 9.3-22.5 15.9-.4.9.3 1.6.5 2.3zm-4.5 9.2c2.6.1 5.1 1.8 6.2 4.1 1.1 2 .9 5-.5 6.8-1.2 2-3.5 3-5.7 2.9.3-3.4 1.3-7.5 0-11-.2-.9-.5-1.7-.6-2.7zm3.3-21.7c3.7-1.9 7.6-3.3 11.6-4.4-4.1 2.8-8.4 5.9-12.1 9.4-1.4-.4-2.7-1.6-4.2-1.9 1.1-1.6 3.2-2 4.7-3.1zm-6.6 22.1c2.1 3.7 1.9 8.9.9 13-.3.5-.4 1.1-.3 1.8 1.1 1.4 3.1.7 4.6.5 3-.7 5.9-3.6 6.5-6.6.7-3.2-.3-6.6-2.6-8.7-2.2-2-5.5-2.7-8.4-2-.7.5-.9 1.2-.7 2zm-1.2-17.3c2.3-.2 4.4.8 6.2 2.2.5.2.8.8 1.6.6 6.2-6.2 13.3-11 20.9-14.3.6-.2.9-.9.6-1.4-.4-.6-1.1-.7-1.8-.5-10.3 1.9-19.8 5.7-28.4 11.5-.3.6.1 1.6.9 1.9zm-5.1 39.5c1.9-.2 3.5-1.2 5.2-1.7.4.7 1.1 1.3.8 2.2-.7 1.3-2.5 1.1-3.8 1-1-.1-1.8-.8-2.5-1.3zm-3.7-.3c.6 2.2 3 3.4 5 4 2.3.6 4.9.2 6.4-1.7.6-.9.7-2.3.3-3.3-.5-1.5-1.8-2.9-3.4-3-2.2 1.6-4.9 2.4-7.6 2.8-.4.2-.9.5-.7 1.2zm-3.9-26c3.7-.2 6.9 1.8 8.8 4.9 2.1 3.3 2.7 8 1 11.6-.7 1.6-2.5 2.6-4.2 2.8-3.2-.3-5.6-3.7-6.6-6.5-.9-3.1-1.1-6.4-.3-9.6.6-1 .6-2.2 1.3-3.2zm1.7-6.3c-5.1 5.3-6.8 13-4.4 20.1.9 1.7 1.6 3.6 3.1 4.9 2 1.9 4.4 3.2 7.1 2.4 2.6-.8 4.4-3.2 5-5.8 1.4-5.9-1-11.6-5.4-15.4-1.7-1.4-3.7-1.9-5.8-2.3 2.3-3.6 5.9-6.6 10.3-6.1 1.9 0 3.6 1.7 4.4 3.4.2 1.4-.8 2.4-1.8 3.3-.8.4-1.8.7-2.7.5-.5-.1-.9-.5-1.4-.3-.3.2-.6.6-.3.9 1.1 1.4 2.8 1.4 4.5 1.1 1.9-.4 2.7-2.4 3.4-3.9.7-2.2-.5-4.1-2.2-5.6-2.3-1.7-5.8-2-8.4-.8-2.1.7-3.7 2.1-5.4 3.6zm-8.6 21.9c.6.7.7 1.8 1.1 2.6 1.1 2.4 2.9 4.7 5.1 6.2.3.8-.8 1.2-1.2 1.6-.8.4-2 .3-2.8-.2-2.8-1.7-3.1-5.1-2.9-8.1.1-.7.1-1.6.7-2.1zm-.6-3.7c-1.1 1.7-1.8 3.6-2.1 5.7-.4 4 .5 7.8 3.6 10 1.5 1.1 3.7.9 5.3.3 1.4-.9 2.6-2.2 2.4-4-4-2.9-6.6-7.1-7.5-11.8-.1-.6-.7-.7-1.2-.6-.4 0-.4.3-.5.4zm-3.3-2.4c-2 5.7-3.6 14.7 1.6 19.4 2.2 3.2 6.5 3.1 9.9 2.4 2.2-2 4 1 6 1.4 1.5.4 3.2.7 4.8.4 3.2-.2 6.5-2.7 7.4-5.8.6-1-.6-2.4.7-3 1.1-.1 2.1-.1 3.1-.4 3.7-1.6 6.4-5.6 7-9.4 2.7-16.7 10.6-35.3 27.4-41.9 1.5-.9 4.1-.4 4.4-2.7.1-1.1-1-1.8-1.8-2.2-9.2.2-17.8 1.7-26.2 4.2-1.2.5-2.5.5-3.6 1.1-13 3.9-25.2 12-33.9 23.1-3 4.3-5.2 8.7-6.8 13.4zm5.1-14.4c8.1-10.7 19.6-18.2 31.5-22.7 10.5-3.6 21.5-6.3 33.5-6.7 1.6-.1 2.9.4 4.1 1.4 2.2 0 4-1.6 6.1-2.2 9.2-3.8 20.9-2.5 29.3 2 .6 0 1.1.6 1.7.6 2.2-3.2 6.2-1.1 9.5-1.4 17.3 2.2 34.4 6.6 48.2 17.6 7.6 6 14.3 13.7 17.6 22.5 1.5 3.2 2.4 6.6 3 10.2.1 3.4.4 7.2-1.4 10-1.6 3.8-4.9 7-9 7.6-2.2 0-4.6-.1-6.5-.9-3.1 1.2-6.2 2.9-10 2.2-3.8-.4-7.2-3.4-8.5-6.9l-.4-1.9c-1.9-.5-3.7-1.3-5.4-2.4-1.7 4.7-5.7 9.9-11 10.5-2.8.2-5.2-1.3-6.6-3.6-.7-1.2-1-2.7-1.3-4.1-2.4-1-4.6-3.5-4.5-6.2-.1-3.5 2.1-6.3 2.7-9.6 2.9-9.1 1.5-19.9-3.1-27.8-2-3.5-4.9-6.8-8.3-9.2-1.8-.7-4.2-1.3-4.9-3.4-10.9-5.4-25.4-5.5-36.5-.4-.7 3.1-4.1 2.9-6 4.2-5.5 4.2-8.7 10.2-10.7 16.3-1.2 4.9-1.9 9.7-.8 14.8.7 4.5 2.2 8.6 3.7 12.7.3 2.4.1 4.9-1.7 6.5-.8.9-1.9 1.3-2.8 2-.4 3-2.2 6.5-5.4 7.3-4.5 1-8.4-1.8-10.9-5.3-1.1-1.6-1.7-3.3-2.5-5-.9.2-1.7 1-2.5 1.3-.9.5-2.2.5-2.9 1.2-.4 3.5-3.4 6.9-6.7 8-2.2.8-4.8.9-7.1.3-1.8-.2-3.3-1.4-5.1-1.9-3 .8-7.4 1.5-10.1-.4-3.7-2-5.7-5.8-6.8-9.6-.2-2.2-.4-4-.2-6.2 0-2.7 1.1-5.1 1.7-7.7 1.4-4.6 3.8-9.3 7-13.7"/><path d="m480 84.8v48.4h-9.7l.7 1.2h10.2v-50.2c0-7.5 1.6-10.3 6.5-11.4l.9-1.2c-6.8 1.1-8.6 4-8.6 13.2"/><path d="m474.4 115.3-.1-2.8-20.1-38.6 6.2-4.3-.8-.9-6.8 4.6z"/><path d="m452.2 130.6h-1.2l2 2.5h-23.8l1.2 1.2h24.6z"/><path d="m395.3 60.8 1.1 1.2h5.3l12.3-9.9-.8-1-11.9 9.7z"/><path d="m412 69.7v.6c8.7 5.2 13.7 16.3 13.7 29.9 0 19.6-11.4 33.2-27.9 33.2-5.6 0-11.3-1.7-15.1-4.4v.2c5 3.9 9.9 5.6 15.8 5.4 8.4-.3 13.8-3.1 19.1-8.4 6.5-6.5 9.3-16 9.3-26.3-0-14.1-5.6-25.7-14.9-30.2"/><path d="m349.2 101.7c9.3-3.8 14.2-9.6 14.2-16.9 0-4.4-1.8-8.6-5-11.3 2.9 4.2 3.9 6.8 3.9 10.3 0 5.4-2.7 10.3-7.5 13.6-1.8 1.3-3.8 2.2-7.5 3.6 5 13.5 11.7 24.8 20.7 30.2-6.4 1.7-13.6 5.4-18.9 8.9l1 .8c7.5-4.7 12.3-7.3 20.4-9.3-9.8-5.9-17.1-17.2-21.3-29.9"/><path d="m309.8 108.3.5 1.1c3.3-1.2 5.5-1.7 7.3-2.1v-1.2s-5 1.1-7.8 2.2"/><path d="m341.5 102.3s-7.7 2.1-12.6 2.5v20.7l5.6 7.6h-22.3l1.2 1.2h23.4l-6.7-9.2v-19c4.5-.8 11.8-2.5 11.8-2.5z"/><path d="m226.6 74.9 4.8-5.8-1.1-.4-5 5.9 8.4 21.4 1.1-.3z"/><path d="m237.7 102.9h1c1.2 0 5.7.7 8.6 1-2.7-4.5-4.8-9.3-5.4-12l-1.4-.9c.8 3.6 2 6.6 4.7 11.4-2.3-.3-3.4-.5-5.4-.7-2.3-.2-3.1.2-3.6.4l8.4 23.6 7.3 7.5h-24.5l1.2 1.2h26.1l-9-9.4z"/><path d="m270.8 74.9h-5.2c-4.5 0-7.7 1.2-9.2 3.8-.9 1.4-1.2 3.2-1.5 6.4h1.2c1-7.3 1.4-9.4 15.2-9v-1.2z"/><path d="m293.4 78.6c-1.4-2.9-3.5-3.7-9.6-3.7-.7 0-.7 0-2.1.1v50.7l7.5 7.4h-24.8l1.2 1.2h26.4l-9.1-9.2v-48.9c8.6 0 9.1.9 10.5 2.4"/><path d="m159.6 105.3c8.5 0 12.4-.4 16.7-1.6 8.3-2.3 13-8.4 13-17 0-6.2-2.7-11.5-6.7-13.4 4.2 4.9 5.5 8 5.5 13.2 0 11.9-8 17.6-24.6 17.6-3.2 0-6.3-.1-8.9-.3v22.7l5.8 6.6h-22.4l1.2 1.2h24.1l-7.5-8.4v-20.7c1.5.1 2.4.1 3.8.1"/><path d="m142 103.8h-.4c-3.1 0-5 .4-7.6 1.9l.4.9c2-1 5-1.6 7.6-1.5h1.5v-1.3z"/><path d="m159.7 75.7h-5.2v24.3h1.2v-23.1h5c6.6 0 9.7 1.2 12.1 4.5-2.3-4.6-4.8-5.7-13.1-5.7"/><path d="m203.1 120.7c0-3.4 1.2-7.9 3.8-13.5l.9-.8-1.3-2.1s-1 2.3-1.2 2.8v.1c-2.6 6.3-3.6 10.4-3.6 13.7 0 4.1 1.2 5.8 6.5 12.3h-25l1.2 1.2h26.4c-6.5-8.1-7.7-9.5-7.7-13.7"/><path d="m226.5 108s-7.2 7-10.3 12.5l1.1.4c5.2-7.7 9.7-11.1 9.7-11.1z"/><path d="m396.9 75.5c3.2 0 7 1.3 9.5 3.6-1.4-2.8-6.4-4.8-9.5-4.8-5 0-8.2 2.8-10.5 7.3-2.4 4.9-3.7 12.3-3.7 20.6 0 7.7.8 18 9.5 23.9l.3-.4s-2.9-1.8-5.5-6.1c-2.1-4.1-3.1-9.8-3.1-17.4 0-8.1 1.2-15.4 3.6-20.1 2.1-4 4.8-6.6 9.4-6.6"/><path d="m340 73.7c-1.6-.4-3.4-.5-5.5-.5-2.6 0-3.9.2-5.7.7v26.1h1.2v-25.1c.6-.1 1.1-.2 1.5-.3.9-.2 1.7-.2 3-.2 1.2 0 2.4.1 3.4.2.9.1 1.7.3 2.5.4 3.4.8 5.5 2.4 6.7 4.1-1.3-3.1-4.5-4.8-7.1-5.4"/><path d="m451.2 129.5c-2.8-1.8-4.5-5.3-4.8-8.9-.4-2.5-.5-6.3-.5-13.4v-24h-1.2v24.1c0 11.2.3 14.4 1.5 17.3.1.2.2.4.3.7 0 .1.1.1.1.2s.1.2.2.3c0 .1.1.1.1.2 1 1.7 2.3 2.9 4.1 3.8z"/><path d="m204.3 93.1c-1.2-1.2-4.6-4.4-5.3-5-.2.5-.4.9-.6 1.2 1 .6 3.5 3.1 5.3 5z"/><path d="m209.8 97.8 6.7-17.8-1.1-.6-1.1 2.9-5.9 15.8c1.6 1.4 3.7 3.8 5.5 6.1.6.8 1.1 1.5 1.6 2.2.1.2.2.3.3.4.5.7 1.2 1.8 1.6 2.3l.9-.8c-.5-.7-6.3-9.2-8.5-10.5"/><path d="m305.2 70.8-.5.8c-2.5 4.4-4.9 8.5-6.5 13.4l.8.5c1.5-5 4-9.1 6.5-13.6l.4-.7z"/><path d="m412.5 49.3-12.4 9.6h-5.3l7.4-9.6z"/><path d="m269.2 73.2c-8.6-1-16.5.4-17 10.8h-.6c-1.6-5.1-3.9-11-6.8-15.5h58.7c-2.9 5-5.4 9.4-6.9 14.9l-.3-.3c-.6-2.9-1.4-6.4-3.8-8.4-1.8-1.4-4.8-2-8.4-2-1.5 0-5 .5-5 .5v52.2l5.7 5.7h-22.8l7.2-6.1z"/><path d="m333.6 98.1c-3.1.7-6.6 1-7.4 1v-26.1c2.3-1.2 5.1-1.9 8.5-1.9 4.2 0 7.6 1.2 10.4 3.5 2.7 2.3 4.1 5.3 4.1 8.9 0 4-1.5 7.2-4.6 9.7-3.5 2.9-7 4.1-11 4.9zm18.7 19.4c-3.8-5.8-6.8-11.8-9-17.9 5-1.3 8.9-3.4 11.8-6.2 2.9-2.9 4.3-6.2 4.3-9.9 0-4.6-2.2-8.3-6.6-11.3-11.7-8-29.7-4.5-41.1 2.2l.4.2c1.5.6 3.1 1.4 4.5 2.3v23.8c-1.9.2-4.5.1-6.4 0-.5 1.9-1.5 3.7-1.8 5.8 2.2-.8 5.7-1.4 8.2-1.4v20.2l-6.4 6.2h21.1l-5.2-5.7v-22.3c3.9-.7 7.9-.9 11.7-2 .1.3.2.5.2.6l1.9 4.4c3.7 8.7 6.2 18.3 8 30.8l.2 1.5.7-.5c4.5-3 9.2-5.3 14-7l.7-.2c-3.6-3.3-7.4-7.8-11.2-13.6"/><path d="m142.1 102.5v2.5z"/><path d="m170.1 95.5c-2.9 1.8-6 2.7-11.8 2.8h-6.4v-24.5c2.2-.1 4.3-.2 5.8-.2 5.9 0 10.2 1 12.9 3.1s4 5.3 4 9.9c-.1 4-1.5 7-4.5 8.9zm7.7-22.8c-10.1-6.2-29.9-3.6-41.7-4.2l6.1 6.2v24c-4.5 0-8.1 1.3-10.3 5.5l.5.7c2.7-2.2 6.4-2.8 9.8-2.4v23l-6.1 5.7h20.2l-4.4-5.1v-23.7l6.2.1c7.5 0 12.9-.6 16.4-1.7 3.4-1.1 6.1-3 8-5.6s2.9-5.6 2.9-9.1c-.2-5.8-2.6-10.4-7.6-13.4"/><path d="m214.6 110.4c-1-1.2-1.9-2.6-2.7-3.9-1.7-2.5-3.9-5-6.4-7.5l8.3-22.3 9 25.4c-1.9 1.7-7.7 7.7-8.2 8.3zm33.1 20.8-6.2-5.7-8.6-24c1.4-1 3.7-1.5 6.8-1.5.4 0 1.1 0 2.1.1-1.8-2.9-3.1-6.2-3.9-9.9-.8 1.1-2.1 2-3.2 2.8l-2 1.5-1.9 1.1-8-21.2 5.2-5.8h-23l5.3 5.6-8.2 21.7c-2.1-1.5-3.9-3.3-5.7-5-1 2.9-2.4 5.7-4.2 8.3 3.2.3 5.7 1.2 7.5 2.7-1.9 6.5-4.4 13.8-8.3 19.5-2.7 4.1-6 7.4-10.6 9.8h23.2c-.4-.4-3.3-4.2-4-6-.5-1.2-.9-2.7-.9-4.5s.4-4 1.3-6.6l1.6-5c.6-2 1.2-3.5 1.6-4.6l2.3 2.3 2.1 2.7c2.2 2.7 3.9 5.1 5.8 8.1l.8 1.2c2.5-4.2 6.1-8.5 9.9-11.7l6.5 18.3-6.6 5.8z"/><path d="m477.3 131.2v-42.8c0-7.2.2-9 1.2-11.8 1.2-3.7 2.6-5 8.4-8h-22.3c4.2 2.1 6.4 4 7.5 6.9.6 1.6.9 5.7.9 12.4v31.2l-23.6-45.9 6.9-4.7h-24.6l6.5 5.4v38.9c0 11.7-2 15.5-9.8 18.3h24.2l-.5-.7c-4.4-1.3-6.8-3.2-8.3-6.4-1.4-3-1.7-6.3-1.7-17.1v-27.9l26.9 52.2z"/><path d="m383.6 120.1c-2.3-4.6-3.4-10.8-3.4-19 0-8.9 1.4-16.3 4-21.5 2.4-4.6 7-7.4 12.1-7.4 5.2 0 10.1 3 12.3 7.7 2.2 4.6 3.1 10.6 3.1 20.4 0 18-5.4 27.5-15.6 27.5-5.2 0-10.2-3.1-12.5-7.7zm38.9-18.9c0-20.3-10-33.1-26.1-33.1-7.1 0-14 2.9-18.6 7.8-5.4 5.6-8.2 13.8-8.2 24.1s3 18.7 9.1 24.6c4.8 4.7 11.4 7.4 18.2 7.4 15.3-.2 25.6-12.4 25.6-30.8"/><path d="m494.5 127.4c.9 0 1.5-.2 1.5-1.2s-1.1-1-1.9-1h-1.9v2.2zm2.8 4.5h-1.8l-1.7-3.3h-1.5v3.3h-1.5v-7.9h3.8c.7 0 1.5 0 2.1.4.7.5.9 1.2.9 2 0 1.4-.8 2-2.2 2.1zm2.2-4c0-3.3-2.6-5.9-5.9-5.9s-6 2.6-6 5.9 2.7 6 6 6 5.9-2.7 5.9-6m-13.2 0c0-4 3.3-7.3 7.3-7.3s7.3 3.3 7.3 7.3-3.3 7.3-7.3 7.3-7.3-3.3-7.3-7.3"/></g></svg>