<svg enable-background="new 0 0 185 100" viewBox="0 0 185 100" xmlns="http://www.w3.org/2000/svg"><g fill="#d83742"><path d="m5.4 50.5c5.3-9.8 14.5-20.5 25.3-24.1 2.2-.6 5.2-1.2 7.2.3 1.8 1.3 2 3.5 1.6 5.5-.5 2.4-2.1 5.4-4.9 5.7-.5 0-.9-.2-1.2-.5-.7-.7-.7-1.7-.5-2.6.4-1.9 2.2-3.9 4.2-4.1.3-.2.2-.6.1-.9-.3-.4-.6-.7-1.1-.8-2.2-.3-3.8 1.1-5.5 2.3-6.3 5.1-10.9 11.6-14.8 18.1-3.1 5.9-5.8 11.9-6.6 18.7-.4 5 1.2 9.8 5.6 12.2 4.8 2.5 11 .8 15.8-.5l4.4-1.4 8.5-2.5c8-2.3 18.1-2.9 25.9.2 4.7 2 9.6 4.7 12.7 9.3 0 .1 0 .3-.1.2-6.7-1.8-15.5-3.6-22.1-.5l-.3-.1c-2-3.2-5.4-5-8.9-5.7-11.3-1.1-20.6 4.3-31.2 5.6-5.5.7-11.2.5-15-3.6-5.9-5.9-5.2-16.3-2.4-23.5.9-2.5 2.1-4.9 3.3-7.3z"/><path d="m21 54c2.8-5.1 7.1-11.4 13-13.3 1.6-.4 3.3-.2 4.5.8 2.6 2.6 1.6 6.9.7 9.9 0 .2.1.4.3.4 2.3-.1 4.1-1.1 5.8-2.7 3.5-3.9 7.3-9.1 13.1-8.5 1.1.2 2.1.8 2.7 1.8 1.5 2.9 0 6.1-2 8.3-.8.7-1.7 1.3-2.8.9-.4-.1-.8-.6-1-1-.4-2 .8-3.9 2.4-5 .5-.5 1.9-.1 1.5-1.2-.3-.3-.7-.4-1.2-.4-2.8 1.2-4.6 4-6.2 6.4-2 3.2-3.7 6.6-4.8 10.2-.3 1.3-.7 3 .1 4.2.6.8 1.5 1.1 2.4.8 2.8-1.1 5.2-3.3 7.3-5.6 4.8-5.8 7.4-13 13.9-17.7 2-1.4 4.8-2.5 7.3-1.2.4.1.7.7 1.2.5.4-.4.7-1.2 1.4-1 1.8 0 3.8-.1 5.7.1l.1.2-.5 1.2-10 20.4c-.1.2-.1.5-.1.8.2.3.5.3.8.2 1.4-.8 2.6-2.4 3.6-3.7.9-1.2 1.7-2.5 2.3-3.8.3-.4.6-.9 1.1-.8.6.1 1.3-.2 1.7.2-.6 1.7-1.7 3.3-2.5 4.9-2.7 4.2-6.3 9.1-11.3 10.3-.8.1-1.9.2-2.5-.5-1-.7-1-1.9-1.3-3-.1-.1-.3-.1-.4-.1-2.1 1.9-4.3 3.8-7.3 3.5-.9-.2-1.8-.9-2.2-1.8-.8-1.5-.4-3.4-.5-5.1-.1-.2-.3-.1-.4-.1-3.3 3.2-6.8 6.1-11.1 6.9-2 .2-3.7-.4-5.1-1.8-3.2-4.2-.7-9.8 1-13.9.1-.2.1-.5-.2-.5-1.2.1-2.3.3-3.4.5l-.4.4c-2.6 4.9-5.5 10-10.2 13.7-2 1.4-4.9 2.4-7.2 1.1-2.4-1.6-2.6-4.6-2.3-7.3.5-3 1.6-5.8 3-8.6zm7.5-.2c-1.4 2.8-2.8 5.6-2.8 8.9.1.6.5 1.3 1.2 1.5s1.3-.2 1.9-.6c2.7-2.3 4.6-5.4 6.1-8.3.1-.3.3-.7.2-1-1.6-.6-3.2-1.7-4.4-3.1l-.3-.1c-.2.1-.3.3-.5.5zm4.1-5.7c.1 1.5 1.5 2.7 2.7 3.2.3.1.8.3 1.1 0 .5-.9.8-1.9 1-3 .2-1.3.5-3.1-.8-4-.4-.2-1.1-.3-1.6-.1-1.3.8-2.4 2.3-2.4 3.9zm33.1 11.4c-.4 1.2-.9 2.5-.6 3.9.1.3.4.5.7.5 1.1 0 1.8-1 2.5-1.8 3.2-4.5 5.7-9.3 7.9-14.1.4-1 1-2 .9-3.1 0-.2-.3-.4-.5-.5-.5-.2-1 .1-1.3.3-4.3 3.3-6.7 8.1-8.8 12.6z"/><path d="m86.6 47c1-1.9 1.8-3.9 3-5.7.5-.5 1.3-.5 1.9-.6l4.8.1.2.2c-.8 1.9-1.7 3.8-2.7 5.7-.2.5-.8 1-1.3 1-2 0-4 .2-5.9 0-.2-.2 0-.5 0-.7z"/><path d="m91.5 56.7c3.3-6.9 7.4-13.6 13.1-19.5 5.5-5.5 11.5-10 18.8-11.4 2-.3 4.2-.1 5.7 1.2.3.2.6.5 1 .3 5.2-2.1 12.4-2.8 17.7-.2 3 1.5 5.9 3.4 8.8 5.2.4.2.2.6 0 .8-1.7 1.8-3.1 3.8-4.6 5.7-.2.2-.4.1-.6 0l-7.7-5.3c-3.6-2.4-7.7-4.1-12.4-3.4-.5.3-.3.9-.3 1.4.1 4.8-1.6 9-3.9 12.8-1.8 2.7-4 5.4-7.1 6.3-1.4.3-2.7-.1-3.5-1.2-2.3-3.5-.3-7.7 1.4-10.8 1.9-3.4 4.9-6.5 8.1-9 .1-.1.2-.2.1-.4-.3-.3-.9-.1-1.2-.1-5.2 1.7-9.4 6.3-13.2 10.7-6.9 8.5-12.1 17.6-15 27.7-.9 3.8-2.2 9.6 1.7 12.2 3.4 1.8 6.6-.5 9.2-2.7 3.9-3.9 6.5-8.5 7.5-13.7.2-1.5.6-3.6-.8-4.7-1.3-.6-2.3.5-3.2 1.4-2 2.4-2.8 5.2-3.2 8.3-.9.7-1.9 1.2-2.9 1.9-1.8 1.2-3.5 2.8-4.9 4.5-.2.1-.2-.1-.2-.2-.2-5.7 1.8-10.5 4.9-14.9 2.5-2.9 5.7-5.3 9.5-4.4 1.7.4 2.8 2.2 3.1 3.8.6 5.3-1.6 10-4 14.3-3.9 6.1-10 12.3-17.8 11.5-3-.2-5.8-2.2-7-5-2.9-5.8-.9-13.4 1.1-19zm26.4-10.1c.1.7.3 1.4 1 1.6 1.3.4 2.4-.6 3.4-1.4 3.5-3.7 5.7-8 6.2-13 0-.7.2-1.7-.2-2.3-.3-.1-.6.1-.9.2-2.4 1.6-4.6 3.9-6.2 6.2-1.7 2.8-3.2 5.5-3.3 8.7z"/><path d="m122.8 63.2c2.8-3.7 6.6-7.8 11.3-8.1 1.2 0 2.2.5 3 1.5 2 3 .3 6.8-.4 9.8-.1.3.1.5.3.5 1 .2 2.1 0 3-.4l.4-.5c3.4-9.7 8.5-18.7 14.5-27.3 3.8-5 8.6-10.1 14.1-12.5 1.3-.5 3.2-1 4.5 0 1.4 1.1 1 3.2.6 4.7-.2 1.4-1.7 1.5-2.7 1.8-.1 0-.1 0-.1-.1 0-.9.5-1.7.7-2.5.1-.5.1-.9-.1-1.3s-.8-.3-1.1-.2c-1.9.9-3.4 2.6-4.9 4.2-5.4 6.3-9.3 13.2-12.9 20.2-1.2 2.4-2.4 4.9-3.4 7.4 0 .1 0 .2.1.3.8 0 1.3-.9 2-1.3 4.8-4.3 8.6-9.3 12.2-14.3.8-.4 1.6-.4 2.5-.4l.2.1c-.1.7-.6 1.2-1 1.8-4 5.7-8.5 11.2-14 16.2l-4 3.3c-.8.7-.9 1.9-1.3 2.8-.8 2.5-1.5 5.1-1.6 7.8 0 .5.2.9.6 1.1 1 .5 1.9-.5 2.6-1.2 5.4-6.2 7.7-13.8 14.3-19.4 2.2-1.7 5-3.2 7.8-1.9.5.2.9.8 1.4.5.4-.3.4-1 1-.9 1.9 0 4-.1 5.8.1.2.1.1.4 0 .6l-1.3 2.7-8.1 16.7c-.4.8-.9 1.6-.8 2.4.1.4.5.4.8.3 1.5-.9 2.7-2.3 3.7-3.7s1.8-2.9 2.8-4.3c.5-.2 1.2-.1 1.8-.1.3.3-.1.7-.2 1.1-2.4 5-5.8 10.5-11 13.2-1.2.6-2.9 1.2-4.3.4-1.1-.7-1-2.1-1.5-3.1-.1-.1-.3-.1-.5-.1-2.2 1.9-4.5 4.1-7.6 3.3-1.9-.9-2.1-3.1-2.3-5-.1-.1-.1-.2-.2-.3l-.2.1c-2.1 2.6-4.8 5.8-8.4 5.4-1.4-.1-2.6-1.4-3-2.6-1.3-4 .1-8.4 1-12.2 0-.2-.2-.4-.4-.5h-3l-.5.6c-2.2 4.3-4.6 8.5-8.5 12.2-2 1.8-4.5 3.3-7.2 2.4-2.3-1-2.9-3.5-2.9-5.8.5-5.7 3.2-10.7 6.4-15.5zm.8 13.3c0 .8.5 1.7 1.3 2 .6.2 1.2 0 1.7-.3 2.8-2.1 4.5-5.3 6-8.2.1-.3.3-.8-.1-1-1.5-.7-2.9-1.9-4-3.2-.1-.1-.4-.2-.6-.1-1.1 1.4-1.7 3-2.5 4.5-.9 2-1.8 3.9-1.8 6.3zm7.1-13.7c.1 1.5 1.3 2.9 2.7 3.4.3.1.8.2 1-.1.8-1.9 1.6-4.1 1.2-6.3-.2-.5-.6-1-1.1-1.2-.5-.1-1.1 0-1.6.2-1.5.9-2.2 2.4-2.2 4zm26.9 13c-.1.7-.2 1.6.3 2.1.3.3.8.3 1.1.2 1.4-.7 2.4-2.3 3.3-3.6 2.9-4.6 5.1-9.5 7.1-14.5.1-.4.2-1-.2-1.3-1.2-.6-2.1.7-3 1.4-3.9 3.9-6 8.6-7.9 13.3z"/><path d="m163.3 39.4 2.6-3.4.4-.3c7.5-.1 13.4-4.6 18.7-9.9 0 .7-.3 1.4-.6 2-3.5 8.2-11.9 15.4-21 15.5h-2.2c-.4-.1-.1-.5 0-.7z"/><path d="m172.8 82.5c0-1 .8-1.8 1.8-1.8s1.7.8 1.7 1.8-.8 1.8-1.7 1.8-1.8-.7-1.8-1.8zm1.8 2.2c1.2 0 2.2-.9 2.2-2.2s-1-2.2-2.2-2.2-2.2.9-2.2 2.2 1 2.2 2.2 2.2zm-.5-2h.4l.7 1.1h.4l-.7-1.1c.4 0 .6-.2.6-.7s-.3-.7-.9-.7h-.9v2.5h.4zm0-.3v-.8h.5c.3 0 .5.1.5.4 0 .4-.3.4-.6.4z"/></g></svg>