<svg enable-background="new 0 0 185 100" viewBox="0 0 185 100" xmlns="http://www.w3.org/2000/svg" xmlns:xlink="http://www.w3.org/1999/xlink"><linearGradient id="a"><stop offset="0" stop-color="#fff"/><stop offset="1" stop-color="#949598"/></linearGradient><linearGradient id="b" gradientUnits="userSpaceOnUse" x1="21.9975" x2="45.9801" xlink:href="#a" y1="61.8484" y2="61.8484"/><linearGradient id="c" gradientUnits="userSpaceOnUse" x1="36.9834" x2="48.593" xlink:href="#a" y1="47.2886" y2="46.5825"/><linearGradient id="d" gradientUnits="userSpaceOnUse" x1="38.2149" x2="26.1845" xlink:href="#a" y1="33.7643" y2="25.9486"/><linearGradient id="e" gradientUnits="userSpaceOnUse" x1="8.0722" x2="37.1282" y1="39.6828" y2="39.6828"><stop offset="0" stop-color="#fff"/><stop offset=".07" stop-color="#e5e6e6"/><stop offset=".17" stop-color="#c8c8ca"/><stop offset=".28" stop-color="#b1b1b4"/><stop offset=".39" stop-color="#a0a1a4"/><stop offset=".52" stop-color="#97989a"/><stop offset=".69" stop-color="#949598"/></linearGradient><linearGradient id="f" gradientUnits="userSpaceOnUse" x1=".7789" x2="48.8396" y1="46.2792" y2="46.2792"><stop offset="0" stop-color="#d62f8a"/><stop offset=".61" stop-color="#2f328d"/><stop offset="1" stop-color="#00aae9"/></linearGradient><linearGradient id="g" gradientUnits="userSpaceOnUse" x1="10.6486" x2="47.6977" y1="35.9228" y2="35.9228"><stop offset="0" stop-color="#00aae9"/><stop offset=".25" stop-color="#00aae9"/><stop offset=".6" stop-color="#00a259"/><stop offset=".91" stop-color="#fff249"/><stop offset="1" stop-color="#fff249"/></linearGradient><linearGradient id="h" gradientUnits="userSpaceOnUse" x1="-.4553" x2="45.1468" y1="60.0073" y2="60.0073"><stop offset="0" stop-color="#fff249"/><stop offset=".12" stop-color="#fff249"/><stop offset=".4" stop-color="#d83832"/><stop offset=".87" stop-color="#d62f8a"/><stop offset="1" stop-color="#d62f8a"/></linearGradient><g fill="#fff"><path d="m183.7 55.9c.7 0 1.3.6 1.3 1.4s-.6 1.4-1.4 1.4-1.4-.6-1.4-1.4.7-1.4 1.5-1.4zm0 .2c-.6 0-1.1.5-1.1 1.2s.5 1.2 1.1 1.2 1.1-.5 1.1-1.1c0-.7-.5-1.3-1.1-1.3zm-.3 1.9h-.3v-1.5h.4c.2 0 .4.1.5.1.1.1.1.2.1.3 0 .2-.1.3-.3.4.1 0 .2.1.3.4s.1.3.1.4h-.2c0-.1-.1-.2-.1-.4s-.1-.3-.3-.3h-.2zm0-.8h.2c.2 0 .4-.1.4-.3 0-.1-.1-.3-.4-.3-.1 0-.1 0-.2 0z"/><path d="m140.3 47.1c-1.9 0-3.6.5-4.8 2.2-.6-1.7-2.1-2.2-3.9-2.2s-3.4.7-4.6 2.1l-.1.1.3-1.8h-3.4c-1 0-1.7.8-1.9 1.7-.6 4.1-1.4 8.1-2.1 12.2h3.5c1 0 1.7-.7 1.9-1.7.3-1.9.7-4.5 1-6.4.2-1.2.9-2.8 2.4-2.8 1.2 0 1.7 1 1.5 2-.1.5-1.5 8.9-1.5 8.9h3.4c1-.1 1.8-.8 1.9-1.8.3-1.9.7-4.6 1-6.5.2-1.1 1-2.5 2.3-2.5 1.2 0 1.6 1.1 1.5 2.1-.2 1.5-1.5 8.7-1.5 8.7h3.7c1-.1 1.8-.8 1.9-1.8.6-4 1.5-8 1.6-8.7.4-2.8-1.6-3.8-4.1-3.8z"/><path d="m180.4 47.4h-5.8c-1 1.3-2.1 2.7-3 4l-1.3-4h-6.3l3.4 6.6-6.3 7.3h6l3.4-4.5 1.6 4.5h6.2c-1.2-2.4-2.5-4.8-3.6-7.3z"/><path d="m80 47.4c-.9 0-1.7.6-1.9 1.5 0 0-2.1 12.5-2.1 12.5l3.9-.1c1 0 1.7-.8 1.9-1.7.5-4.1 1.9-12.2 1.9-12.2z"/><path d="m80.9 42.4c-1 0-1.8.7-2 1.7l-.2 1.4h5.3l.6-3.1z"/><path d="m97.6 47.1c-1.9 0-3.5.6-4.8 2.3v-.1l.3-1.8h-3.8c-1 0-1.7.8-1.9 1.7-.6 4.1-1.9 12.2-1.9 12.2h3.8c1-.1 1.8-.8 1.9-1.8.3-1.9.7-4.5 1-6.5.2-1.3 1.1-2.5 2.4-2.5 1.2 0 1.5 1.1 1.4 2.1-.2 1.5-1.4 8.7-1.4 8.7h3.6c1-.1 1.8-.8 1.9-1.8.7-4 1.5-8 1.6-8.7.3-2.8-1.7-3.8-4.1-3.8z"/><path d="m72.7 57c-1.5.3-3 .6-4.5.6-3.2 0-5.4-1.7-5-5.1.3-2.8 2.6-6 7.3-6 1.5 0 2.9.3 4.3.7l.8-4.2c-1.6-.3-3.8-.5-5.4-.5-6.3 0-12 3.4-12.9 10.1-.9 7.3 5 9.1 9.4 9.1 1.7 0 3.5-.2 5.2-.4.2-.6.4-2.3.8-4.3z"/><path d="m116.4 57.3c-1.5.4-3 .8-4.5.8-1.8 0-3.6-.8-3.3-3h9.6c.2-.7.4-1.4.5-2.1.5-3.9-1.7-6-6.3-6-7.4 0-8.8 6.3-9 7.7-.7 5.5 3 6.8 7.4 6.8 1.6 0 3.3-.2 4.9-.5.3-1.1.5-2.4.7-3.7zm-4.3-7.3c1.5 0 2.1.9 1.9 2.8h-5c.3-1.4 1.4-2.8 3.1-2.8z"/><path d="m159.3 57.3c-1.5.4-3 .8-4.5.8-1.8 0-3.6-.8-3.3-3h9.6c.2-.7.4-1.4.4-2.1.5-3.9-1.7-6-6.3-6-7.4 0-8.8 6.3-9 7.7-.7 5.5 3 6.8 7.4 6.8 1.6 0 3.3-.2 4.9-.5.4-1.1.6-2.4.8-3.7zm-4.3-7.3c1.5 0 2.1.9 1.9 2.8h-5c.3-1.4 1.4-2.8 3.1-2.8z"/></g><g clip-rule="evenodd" fill-rule="evenodd"><path d="m22.5 58.1 6.9 6.1c8.8 2.2 15 1.5 16.7-1.7.4-.8.5-1.5.5-2.3-5.5 2.5-13.5 1.8-24.1-2.1z" fill="url(#b)"/><path d="m48 43.5c-.9 2.4-4.4 3.1-10.5 2.3l4.6 4.2c5.1.1 7.5-1.3 7-4.3 0-.7-.4-1.5-1.1-2.2z" fill="url(#c)"/><path d="m39.3 32.2c-4.5-3.9-8.5-6.1-11.8-6.6-.8 0-1.7.5-1.7 1.4 0 2.9 7.3 5.9 10.9 5.9.8 0 2-.2 2.6-.7z" fill="url(#d)"/><path d="m37.1 49.7-6-5.4c-10.5-3.4-21.3-10.9-19.2-14.6-1.5-.2-2.7.7-3.7 2.8-1.4 4.8 15.1 15.3 28.9 17.2z" fill="url(#e)"/></g><path d="m49.1 45.7c.9 3.7-.1 10.6-1.7 14.1-.6 1-2.7 2.4-7.5 2.4-13.7 0-38.6-11-38.6-19.9.8-3.4 4.1-8.7 8.4-11.9-.9.8-1.1 1.7-1.1 2.4 0 6.9 21.1 17 33.7 17 3 0 6.8-.6 6.8-4.1z" fill="url(#f)"/><path d="m36.3 28.1c6.2 3.2 10.3 9.1 12 14.2.3 3.1-2.4 4.2-6.2 4.2-11.7 0-30.9-9.5-30.9-15.7 0-.7.3-1.4 1-2.1 5.9-3.8 13.9-4 17.1-2.8-1.6-.4-3.2-.1-3.2 1.1 0 1.7 6 5.4 11 5.4.4 0 2.3 0 2.3-1.2-.1-.9-1.6-2.2-3.1-3.1z" fill="url(#g)"/><path d="m.4 45.3c-.6 5.3 9.7 12 20.7 16.1 10.2 3.8 21.1 5.4 24.6 1.6-6.7 10.3-17.3 13.3-26.6 11-11.6-2.8-21.1-13.6-18.7-28.7z" fill="url(#h)"/><path clip-rule="evenodd" d="m14.2 28.1c.2-.1.2 0 .2.1-.1.1-.3.4-.4.4 0 0-1.4.7-1.5.7l.2-.3c.1-.2.3-.3.4-.4zm-.1.9v.3c0 .2-.1.4-.3.4l-1.2.6c-.2.1-.3.1-.3 0s.1-.4.3-.5c0-.1 1-.6 1.5-.8zm-.1 1.3c.2-.1.3 0 .4.1v.1c.1.1 0 .3-.2.4 0 0-1.3.7-1.5.9l-.2-.3c-.1-.2 0-.3.1-.4zm-.1 2.7c-.2.1-.3.1-.4-.1-.1-.1-.2-.5-.1-.6l1.2-.8c.2-.1.3-.1.4.1.1.1.2.5.1.6zm1.1 1.7-.8-.8c.1 0 1.4-1 1.4-1 .1-.1.3-.1.4.1l.3.3c.1.1.1.3 0 .4.1-.1-.8.6-1.3 1zm2.1 1.3c-.1.1-.3.1-.5 0l-.5-.3c-.1-.1-.1-.3 0-.4l1.1-.9c.1-.1.3-.1.5 0l.4.3c.1.1.1.3 0 .4zm2.1 1.5c-.1.1-.3.1-.5 0l-.6-.4c-.1-.1-.2-.3 0-.4l1-1c.1-.1.3-.1.5 0l.8.5c-.2.3-1.2 1.3-1.2 1.3zm2.1-.3c.1-.1.3-.2.4-.1l.6.4c.2.1.2.3.1.4l-.8 1c-.1.2-.3.2-.4.1l-1-.6c.2-.2 1.1-1.2 1.1-1.2zm3.1 3.1c-.1.2-.3.2-.4.2l-.9-.5c-.2-.1-.2-.3-.1-.4l.7-1.1c.1-.1.3-.2.4-.1 0 0 .9.5 1 .5zm2.8 1.3c-.1.2-.3.2-.4.2l-.9-.4c-.2-.1-.2-.3-.2-.4l.6-1.1c.1-.2.3-.2.4-.2l.8.3c.2.1.2.3.2.4zm1.9-.7c.1-.2.2-.2.4-.2l.8.3c.2.1.3.2.2.4l-.3 1.2c-.1.2-.2.3-.4.2l-.9-.3c-.2-.1-.3-.2-.2-.4zm9.2 2c.2 0 .3.2.3.3l.1 1.7c-.1 0-1-.1-1-.1-.2 0-.3-.2-.3-.3v-1.4c0-.2.1-.3.3-.3zm2.3.2c.2 0 .3.2.3.3 0 0 .3 1.7.3 1.7l-.9-.1c-.2 0-.3-.2-.3-.3l-.2-1.4c0-.2.1-.3.3-.3zm2 0c.2 0 .3.1.4.3l.3 1.4c0 .2-.1.3-.3.3h-.4c-.2 0-.3-.1-.4-.3 0 0-.3-1.5-.3-1.7zm3.9.9c.1.2 0 .3-.2.4 0 0 0 0-.2.1-.1.1-.3 0-.3-.2l-.5-1.3c-.1-.2 0-.3.1-.4s.4 0 .5.1zm.8-.4c-.1.1-.2.1-.3-.1 0 0-.7-1.5-.7-1.6s.2-.2.2-.2c.1-.1.3-.1.3.1l.6 1.2c.1.2 0 .5-.1.6zm-.2-2.3c-.1-.2-.1-.4-.1-.5s.2-.2.2 0l.5 1.1c.1.2.1.4.1.6s-.1.2-.2 0zm-14.4 2.4c.2.1.3 0 .3-.2l.2-1.3c0-.2-.1-.3-.3-.4l-.8-.2c-.2-.1-.3.1-.3.2l-.3 1.3c0 .2.1.3.2.4zm2.9.8c.2 0 .3-.1.3-.3l.1-1.4c0-.2-.1-.3-.3-.3l-.7-.2c-.2 0-.3.1-.3.3l-.1 1.1v.4s.1.2.3.2zm9.3.3c.2 0 .3-.2.2-.3l-.4-1.4c0-.2-.2-.3-.3-.2-.1 0-.5.3-.4.4l.3 1.4c0 .2.2.3.3.2zm-.5 15.7c.2 0 .3-.2.4-.3l.4-1.3c0-.2-.1-.3-.2-.2l-.5.2c-.2 0-.3.2-.4.4l-.4 1.2c0 .2 0 .3.2.3zm-8.5.2c.2 0 .3-.1.4-.3l.4-1.2c.1-.2-.1-.3-.2-.3l-1.1-.2c-.2 0-.3.1-.4.2l-.4 1.2c-.1.2 0 .3.2.3zm-2.9-2.5c.2 0 .3.2.2.3l-.4 1.2c-.1.2-.2.3-.4.2l-1.3-.3c-.2 0-.3-.2-.2-.4l.4-1.3c.1-.2.2-.3.4-.2.1.2 1.3.5 1.3.5zm14.4 1c-.1.1-.2.1-.1-.1l.4-1.2c0-.2.2-.4.3-.5l.2-.2c.1-.1.1-.1.1 0l-.4 1.2c-.1.2-.2.5-.3.6zm-.6-1.1c.2-.1.3 0 .2.2l-.4 1.2c-.1.2-.2.3-.4.4s-.5.1-.4-.1l.4-1.2c0-.2.2-.3.4-.4zm-5.5 2.9c-.2 0-.3-.1-.2-.3l.4-1.2c0-.2.2-.3.4-.3l.8-.1c.2 0 .3.1.2.3l-.4 1.3c-.1.2-.2.3-.4.3zm-3.1-.1c-.2 0-.3-.1-.2-.3l.4-1.2c0-.2.2-.3.4-.3l.9.1c.2 0 .3.2.2.3l-.3 1.2c-.1.2-.2.3-.4.3zm-11-2.2c-.2-.1-.3-.2-.2-.4l.4-1.2c.1-.2.3-.3.4-.2l1.4.4c.2 0 .3.2.2.4l-.4 1.2c-.1.2-.3.3-.4.2 0 0-1.4-.4-1.4-.4zm-3.8-1.3c-.2-.1-.3-.2-.2-.4l.4-1.2c.1-.2.2-.3.4-.2l1.4.5c.2.1.3.2.2.4l-.4 1.2c-.2.2-.3.3-.5.3zm-1.9-2.7c.2.1.2.3.2.4 0 0-.5 1.3-.5 1.5l-1.7-.6c-.2-.1-.2-.3-.2-.4l.5-1.2c.1-.2.3-.2.4-.2 0-.1 1.3.5 1.3.5zm-5.4-2.1c.1-.2.3-.2.4-.2l1.3.6c.2.1.2.3.2.4l-.5 1.2c-.1.2-.3.2-.4.2l-1.2-.6c-.2-.1-.2-.3-.2-.4zm-1.9-1.4c.2.1.2.3.2.4l-.5 1.2c-.1.2-.3.2-.4.1l-1.1-.6c-.2-.1-.2-.3-.2-.4l.5-1.1c.1-.2.3-.2.4-.1zm-3.2-1.8c.2.1.2.3.1.4l-.5 1.2c-.1.2-.3.2-.4.1l-.9-.6c-.1-.1-.2-.3-.1-.5l.5-1.1c.1-.2.3-.2.4-.1zm-3.2-.4c-.1.2-.3.2-.4.1l-.8-.6c-.1-.1-.2-.3-.1-.5l.5-1.1c.1-.1.3-.2.4-.1l.7.5c.1.1.2.3.1.5zm-1.8-3.6c.1.1.2.3.1.5l-.6 1.2c-.1.2-.2.2-.3.1l-.6-.6c-.1-.1-.1-.4-.1-.5l.5-1.2c.1-.2.2-.2.3-.1s.7.6.7.6zm-2.4-2.4c.1-.2.2-.2.3 0l.3.4c.1.1.1.4.1.5l-.6 1.2c-.1.2-.2.2-.3 0l-.3-.4c-.1-.1-.1-.4 0-.5zm-1.1.3c-.1.2-.2.2-.3 0l-.1-.2c-.1-.2-.1-.4 0-.5l.5-1.2c.1-.2.2-.2.3 0l.1.2c.1.2.1.4 0 .5.1 0-.5 1.2-.5 1.2zm.1-3.6c.1-.2.1-.1.1 0v.3c0 .2-.1.4-.1.6l-.7 1.5c0-.4 0-.8 0-.8 0-.2.1-.4.2-.6zm40.3 26c.1-.1.3-.3.4-.3.1-.1.3-.1.3.1l-.9 1.2c-.1.1-.3.3-.5.3l-.4.2c.1-.1 1.1-1.5 1.1-1.5zm-1.8 1.5c-.1.1-.3.3-.5.3l-.4.1c-.2 0-.2-.1-.1-.2l.9-1.2c.1-.1.3-.3.5-.3l.5-.1c.2 0 .2 0 .1.2zm-2.3.4c-.1.1-.3.3-.5.3h-.7c-.2 0-.2-.1-.1-.2l.8-1.1c.1-.1.3-.3.5-.3l.8-.1c.2 0 .2.1.1.2zm-10.9-.8c-.2 0-.2-.2-.2-.3l.6-1.2c.1-.2.3-.3.4-.2l1.2.3c.2 0 .2.2.2.3l-.6 1.2c0 .1-.2.1-.4.1zm-3.6-1c-.2 0-.2-.2-.2-.3l.6-1.2c.1-.2.3-.3.4-.2l1.3.3c.2 0 .3.2.2.3l-.6 1.2c-.1.2-.1.3-.1.3s-.2.1-.3 0zm-5.5-3.9c.2.1.2.3.2.4l-.5 1.2c-.1.2-.3.3-.4.2l-1.2-.5c-.2-.1-.2-.3-.2-.4l.4-1.2c.1-.2.2-.3.4-.2zm-3.9 0c-.1.2-.2.3-.4.2l-1.1-.5c-.2-.1-.3-.3-.2-.4l.3-1.2c0-.2.2-.2.4-.2l1.2.5c.2.1.3.3.2.4zm-3.2-3.4c.2.1.2.3.2.4l-.3 1.3c0 .2-.2.2-.3.2l-1-.6c-.2-.1-.2-.3-.2-.4l.4-1.6zm-3.2-1.9c.2.1.2.3.2.5l-.3 1.3c0 .2-.2.2-.3.1l-.9-.6c-.1-.1-.2-.3-.2-.5l.3-1.4c0-.2.2-.2.3-.1zm-2.8-2.1c.2.1.3.4.2.5l-.3 1.4c0 .2-.2.2-.3.1l-.7-.6c-.1-.1-.2-.3-.2-.5l.2-1.4c0-.2.2-.2.3-.1zm-2-1.6c0 .1-.2 1.7-.2 1.7 0 .2-.2.2-.3.1l-.5-.5c-.1-.1-.2-.3-.2-.5l.2-1.4c0-.2.1-.2.3-.1zm-3.3-2c-.1-.2-.1-.4-.1-.6l.1-1.4c0-.2.1-.2.2 0s.2.5.2.6l-.2 1.5c0 .2-.1.2-.2.1 0-.2 0-.2 0-.2zm.8 1.4c-.1-.1-.2-.4-.2-.6l.2-1.4c0-.2.1-.2.2-.1l.3.3c.1.1.2.4.2.5l-.2 1.5c0 .2-.1.2-.2.1zm20.6 12.7c.2.1.3 0 .4-.2l.6-1.2c.1-.2 0-.3-.2-.4l-1.3-.5c-.2-.1-.3 0-.4.2l-.5 1.2c-.1.2 0 .3.2.4zm10.7 2.6c.2 0 .4-.1.5-.2l.7-1.2c.1-.2 0-.3-.2-.3l-1.1-.2c-.2 0-.4.1-.4.2l-.7 1.2c-.1.1 0 .3.2.3zm3.2.3c.2 0 .4-.1.5-.2l.8-1.2c.1-.1 0-.3-.1-.3h-1c-.2 0-.4.1-.5.3l-.8 1.1c-.1.1 0 .3.1.3zm-29.9-2.3c-.1 0-.4-.4-.4-.4-.2-.2-.3-.4-.4-.5l-.8-1.4c-.1-.1-.1-.2.1 0l.3.3c.1.1.3.3.3.5 0-.1.4.7.9 1.5zm1.4 1.1c.1.2 0 .2 0 0l-.5-.3c-.1-.1-.3-.3-.4-.4l-.5-1.1c-.1-.2 0-.2.1-.1l.3.2c.1.1.3.3.4.5zm1.3 1c-.2-.1-.3-.3-.4-.4l-.6-1.2c-.1-.2 0-.2.1-.1l.5.4c.1.1.3.3.3.5l.6 1c.1.2 0 .2-.1.1zm2 0c.2.1.3.3.3.4l.2.9c.1.2 0 .2-.2.1l-.5-.3c-.2-.1-.3-.3-.4-.4l-.3-1c-.1-.2 0-.2.2-.1zm5.3 2.6c.2.1.3.3.2.4l-.2.5c0 .2-.2.3-.4.2l-.6-.2c-.2-.1-.3-.3-.3-.4l.1-.6c0-.2.2-.3.3-.2zm2.8 1c.2 0 .2.2.1.3l-.4.5c-.1.1-.3.2-.5.2l-.6-.2c-.2-.1-.2-.2-.2-.4l.3-.6c.1-.2.3-.2.4-.2.1.1.9.4.9.4zm1.5.8c.1-.1.3-.2.5-.2l.9.2c.2 0 .2.2.1.3l-.7.6c-.1.1-.4.2-.5.1l-.6-.2c-.2-.1-.2-.2-.1-.3zm4.1.8c.2 0 .2.1.1.2l-.9.5c-.2.1-.4.1-.6.1l-.5-.1c-.2 0-.2-.2 0-.3l.6-.5c.1-.1.4-.2.5-.1zm.3 1.1c-.2 0-.2-.1 0-.2l1-.5c.2-.1.3-.1.3-.1h.3l.6.1c.2 0 .2.1 0 .2l-1.5.6s-.7-.1-.7-.1zm3.3.2c-.2.1-.4.1-.6.1h-.6c-.2 0-.2-.1 0-.1l1.4-.5c.2-.1.4-.1.6-.1h.4c.2 0 .2.1 0 .2zm2.6-.7h.8c.2 0 .2 0 0 .1l-1.6.5c-.2.1-.5.1-.7.2h-.2c-.2 0-.2 0 0-.1zm-17.8-3.4c-.2-.1-.3-.3-.3-.4l-.1-.8c0-.2.1-.3.3-.2l.7.3c.2.1.3.3.3.4v.6c0 .2-.1.3-.3.2zm36.7-20.3c0-.4 0-1.7 0-1.7 0-.2 0-.3 0-.2s-.1.6-.1.8v1 .3s.1-.1.1-.2zm-.6-.6c.1-.1.1-.1.2.1l.1 1.1c0 .2 0 .4-.1.5s-.4.3-.4.1v-1.2c-.1-.1.1-.5.2-.6zm-2.9 3.3c.2 0 .3-.2.3-.4v-1.3c0-.2-.1-.3-.3-.3l-.4.1c-.2 0-.3.2-.3.4v1.3c0 .2.1.3.3.3zm-2.2.3c.2 0 .3-.2.3-.3v-1.3c0-.2-.1-.3-.3-.3l-.6.1c-.2 0-.3.2-.3.3v1.3c0 .2.1.3.3.3zm-9-.7c.2 0 .3-.1.3-.3l.3-1.3c0-.2-.1-.3-.3-.3l-1-.2c-.2 0-.3.1-.4.3l-.3 1.2c0 .2.1.3.2.3zm-3.5-.9c.2.1.3 0 .3-.2l.3-1.2c0-.2-.1-.3-.2-.4l-1.1-.4c-.2 0-.4.1-.4.3l-.3 1.2c0 .2.1.3.2.4zm-24.3-17.7c-.1.1-.2.2-.3.2 0 0 0-.1.1-.3 0 0 .1-.2.2-.4s.3-.3.4-.5l.7-.5c.1-.1.2-.1.1 0s-.3.5-.4.6zm.6-.1c.1-.1.2-.1.2 0s-.1.6-.2.7l-1 .9c-.1.1-.2.1-.2-.1v-.1c0-.2.1-.4.2-.5zm-.6 3.4c0-.1-.2-.5-.2-.5-.1-.2 0-.4.1-.5l.8-.9c.1-.1.3-.1.3.1 0 0 .2.4.2.5zm1.3 1.4c-.1.1-.3.1-.4 0l-.3-.3c-.1-.1-.1-.3 0-.5l.9-.9c.1-.1.3-.1.4 0l.3.3c.1.1.1.3 0 .5zm1.6 1.8c-.1.1-.3.1-.4 0l-.4-.4c-.1-.1-.1-.3 0-.4l.9-1c.1-.1.3-.1.4 0l.7.7c-.2-.1-1.2 1.1-1.2 1.1zm1.9-.1c.1-.1.3-.2.4 0l.6.5c.1.1.2.3.1.4l-.8 1c-.1.2-.3.2-.4.2l-.9-.7c0-.1 1-1.4 1-1.4zm2.9 3.8c-.1.1-.3.2-.4.1l-.8-.6c-.1-.1-.2-.3-.1-.4l.7-1c.1-.1.3-.2.4-.1l.8.5c.2.1.2.3.1.4zm3 1.8c-.1.1-.3.2-.4.1l-1-.6c-.2-.1-.2-.3-.1-.4l.7-1.1c.1-.1.3-.2.4-.1l.9.6c.2.1.2.3.1.4zm3.8 0c.2.1.2.3.2.4l-.6 1.2c-.1.2-.3.2-.4.1l-1.1-.5c-.2-.1-.2-.3-.1-.4l.6-1.2c.1-.2.3-.2.4-.2zm3.3 1.5c.2.1.2.3.2.4l-.5 1.2c-.1.2-.2.2-.4.2l-1.2-.5c-.2-.1-.2-.3-.2-.4l.5-1.2c.1-.2.3-.2.4-.2zm3.5 1.3c.2.1.3.2.2.4l-.4 1.2c-.1.2-.3.3-.4.2l-1.2-.3c-.2-.1-.3-.2-.2-.4l.5-1.2c.1-.2.3-.3.4-.2zm10.3 2.4c0 .4-.2 1.6-.2 1.6 0 .2-.2.3-.3.3l-1-.1c-.2 0-.3-.2-.3-.3l.2-1.3c0-.2.2-.3.3-.3zm2.7.3c.2 0 .3.2.3.3l-.1 1.3c0 .2-.2.3-.3.3 0 0-.9-.1-1.1-.1l.2-1.6c0-.2.2-.3.3-.3zm6.2 1.1c-.2.1-.3 0-.3-.2v-1.4c0-.2.1-.3.3-.4s.5 0 .5.1l.1 1.2c0 .2-.1.4-.3.4zm-16.5-18.8c-.1.2-.3.2-.4.2-.1-.1-.5-.3-.4-.4l.3-.6c.1-.2.3-.2.4-.2s.4.3.3.5zm6 2c.2 0 .3-.1.2-.2l-.3-.9c-.1-.2-.2-.3-.3-.3s-.4.1-.3.2l.3.9c.1.2.2.3.3.3zm-1.5-.2c.2 0 .3-.1.2-.3l-.2-.8c0-.2-.2-.3-.3-.3s-.4 0-.4.2l.1.8c0 .1.4.3.6.4zm-1.6-.5c.2.1.3 0 .3-.2v-.8c0-.2-.1-.3-.3-.4-.1 0-.5 0-.5.2l-.1.7c0 .3.4.5.6.5zm-2.1-1c-.1.2 0 .3.2.4.1.1.6.1.6-.1l.1-.7c0-.2 0-.3-.2-.4-.1-.1-.5 0-.5.1zm-8.9-6.5c0-.1.1-.2.3-.2h1.3c.2 0 .3.1.3.1s-.1.2-.3.2l-1.3.1c-.2 0-.3-.2-.3-.2zm3.2-1.6c.1 0 .2.1 0 0-.1.1-.3.1-.5.1l-.5-.1c-.2 0-.2-.1 0-.1h.1.3s.4.1.6.1zm-.6.4c-.1 0-.2 0-.4 0l-1.3-.1c.1 0 .1-.1.1-.1.2-.1.4-.1.6-.1l.9.1c.1 0 .1.1.1.2zm-.6.1c.2 0 .3.1.3.1s-.3.2-.4.1l-1.1-.1c-.2 0-.3-.1-.2-.2s.3-.1.4-.1zm-.4.4c.2 0 .3 0 .3.1 0 0-.2.2-.4.2l-1.2-.1c-.2 0-.3-.1-.3-.2zm.4 1.4-1.5.2c-.2 0-.3 0-.4-.1s.1-.2.3-.3c0 0 1-.1 1.6-.1-.1 0 0 .2 0 .3zm-.1.4c.2 0 .3 0 .4.1s.1.3-.1.3l-1.2.2c-.2 0-.3 0-.4 0 0-.1-.1-.3.1-.3zm-.4 1.3c-.2.1-.3 0-.4 0-.1-.1-.1-.3 0-.4l1.1-.3h.4c0 .1.1.3-.1.3zm.9.8c-.2.1-.3.1-.4 0s-.3-.3-.1-.4l1-.3c.2-.1.3-.1.4 0s.2.3 0 .3zm1.3.8c-.1.1-.3.2-.3.2s-.1-.1-.3-.2l-.2-.1c-.1-.1-.1-.2 0-.3l.9-.4c.2-.1.4-.1.5 0s.2.3.1.4zm1.2.8c-.1.1-.3.1-.5 0l-.1-.1c-.2-.1-.2-.2 0-.3l.7-.5c.1-.1.3-.1.5 0 .1.1.3.3.1.4zm1.5.8c-.1.1-.3.2-.5.1 0 0-.4-.3-.5-.3l.7-.8c.1-.1.3-.2.4-.1s.3.3.3.4c.1.1-.4.7-.4.7zm9.4 2.8s-.5-.1-.7-.1l-.6-1.2c-.1-.2 0-.3.1-.3.2 0 .3.1.4.3.1 0 .8 1.2.8 1.3zm1.2-.1c-.1 0-.5 0-.5 0 0-.1-.8-1.2-.8-1.2-.1-.1-.1-.3 0-.3s.4.1.5.3zm.9-.1c-.2 0-.4 0-.5-.2l-.7-1c-.1-.1-.1-.3-.1-.3s.3 0 .5.2c0 0 .9 1.2 1 1.2zm.8-.3c-.2.1-.3 0-.5-.1l-.8-.9c-.1-.2-.1-.3-.1-.3s.3 0 .4.1l1.1 1.1zm-.7-1.4c-.1-.1-.1-.3 0-.3l1.2 1c.1.1.2.3.1.3-.1.1-.3.1-.4-.1zm.3-.4c-.1-.1-.2-.3-.2-.3s.2 0 .3.1l1.1.9v.1c-.1.1-.2.1-.3 0zm.2-.4c-.1-.1-.3-.3-.2-.3 0-.1.1-.1.2 0l.8.6c.1.1.3.3.3.3 0 .1-.1.1-.2 0zm-.1-.6c-.1-.1-.3-.3-.3-.4v-.1s1.1.8 1.2.9.3.4.3.4c-.2-.1-1.2-.8-1.2-.8zm-.4-.7c-.1-.1-.3-.2-.3-.3s0-.2.1 0l.6.4c.1.1.3.3.4.4 0 0 0 .1.1.1 0 0-.9-.6-.9-.6z" fill="#fff" fill-rule="evenodd"/></svg>