<svg enable-background="new 0 0 200.2 58.5" viewBox="0 0 200.2 58.5" xmlns="http://www.w3.org/2000/svg"><g fill="#fff"><path d="m58.2 15h-.8v22.7h9.2c1.5 0 2.8-.1 3.9-.4 1.2-.3 2.2-.7 3-1.2s1.6-1.2 2.3-2.1 1.3-2 1.7-3.3.7-2.8.7-4.5c0-2-.3-3.8-1-5.3-.7-1.6-1.7-2.9-3-3.9-1-.8-2.3-1.4-3.7-1.7-1-.2-2.4-.3-4.3-.3zm7.9 4c1.7 0 3 .1 3.7.4 1 .4 1.8 1 2.5 2.1s1.1 2.6 1.1 4.7c0 1.5-.2 2.8-.6 3.8s-.9 1.8-1.5 2.4c-.4.4-1 .7-1.8.9s-1.9.4-3.4.4h-4.1v-14.6z"/><path d="m58.2 37v-21.2h8c1.8 0 3.2.1 4.2.3 1.3.3 2.5.8 3.4 1.5 1.2.9 2.2 2.1 2.8 3.6s.9 3.1.9 5c0 1.6-.2 3-.6 4.3s-.9 2.3-1.6 3.1-1.3 1.5-2.1 1.9-1.7.8-2.8 1.1c-1.2.2-2.4.4-3.8.4zm3-2.5h5c1.5 0 2.7-.1 3.6-.4s1.6-.6 2.1-1.1c.7-.7 1.3-1.6 1.7-2.7s.6-2.5.6-4.1c0-2.2-.4-3.9-1.2-5.1s-1.8-2-2.9-2.4c-.8-.3-2.2-.4-4-.4h-4.9z"/><path d="m106.4 15h-15v22.7h16.3v-4h-12v-5.7h10.7v-4h-10.7v-5h11.5v-4z"/><path d="m92.2 37v-21.2h14.3v2.5h-11.5v6.4h10.7v2.5h-10.7v7.2h12v2.6z"/><path d="m126.2 15h-3.6v22.7h14.7v-4h-10.4v-18.7z"/><path d="m123.3 37v-21.2h2.8v18.7h10.4v2.5z"/><path d="m162.6 15h-17.6v4h7v18.7h4.3v-18.7h7v-4z"/><path d="m152.8 37v-18.7h-7v-2.5h16.8v2.5h-7v18.7z"/><path d="m183.9 15h-3.6l-9.6 22.7h4.6s2-5.6 2.3-6.4h9.7c.3.8 2.4 6.4 2.4 6.4h4.8l-10.1-22.7zm-1.6 5.5.7 2.2s1.3 3.4 1.8 4.8h-5c.5-1.4 1.9-5.2 1.9-5.2.3-.6.4-1.2.6-1.8z"/><path d="m171.7 37 9.1-21.2h3.1l9.5 21.2h-3.2l-2.4-6.4h-10.8l-2.3 6.4zm7-8.8h7.2l-2.2-5.9c-.7-1.8-1.2-3.3-1.5-4.4-.3 1.4-.7 2.8-1.2 4.1z"/></g><path d="m7.9 37 16.7-25.1v17.6z" fill="#da5040"/><path d="m24.6 32.8v7.7h-16.6z" fill="#da5040"/><g fill="#9b2138"><path d="m41.2 37-16.6-25.1v17.6z"/><path d="m24.6 32.8v7.7h16.5z"/><path clip-rule="evenodd" d="m43.7 37c.5 0 1-.5 1-1s-.5-1-1-1-1 .5-1 1 .4 1 1 1zm0-.2c-.5 0-.8-.4-.8-.8s.4-.8.8-.8.8.4.8.8-.4.8-.8.8zm.2-.8c.2 0 .3-.1.3-.3 0-.1 0-.2-.1-.3-.1 0-.2 0-.3 0h-.5v1.1h.2v-.5h.2l.2.5h.2zm-.4-.1v-.3h.3c.1 0 .3 0 .3.1s-.1.2-.2.2z" fill-rule="evenodd"/></g></svg>