<svg enable-background="new 0 0 185 100" viewBox="0 0 185 100" xmlns="http://www.w3.org/2000/svg"><g clip-rule="evenodd" fill-rule="evenodd"><path d="m80.4 71.5h24.2v-43.7h-24.2z" fill="#db6137"/><path d="m81.9 49.8c0-8.7 4.2-16.7 10.5-21.7-4.7-3.7-10.7-6-16.9-6-15.2 0-27.7 12.5-27.7 27.7s12.5 27.7 27.7 27.7c6.5 0 12.5-2.2 17-6-6.3-5-10.6-13-10.6-21.7" fill="#d73b34"/><path d="m136.3 67v-1h-.3l-.2.8-.2-.8h-.2v1h.2v-.8l.2.8h.2l.2-.8v.8zm-1.8 0v-1h.2v-.2h-1v.2h.2zm2.7-17.2c0 15.2-12.5 27.7-27.7 27.7-6.5 0-12.5-2.2-16.9-6 6.5-5 10.5-13 10.5-21.7s-4.2-16.7-10.5-21.7c4.7-3.7 10.7-6 16.9-6 15.3 0 27.7 12.2 27.7 27.7z" fill="#e99c41"/></g></svg>