<svg enable-background="new 0 0 185 100" viewBox="0 0 185 100" xmlns="http://www.w3.org/2000/svg"><g clip-rule="evenodd" fill="#567194" fill-rule="evenodd"><path d="m4.9 44.9v18.1h-4.9v-36.3h4.9v14.7h19.9v-14.7h4.9v36.3h-4.9v-18.1z"/><path d="m135.2 57.8v-27.7h10.7v-3.4h-26.5v3.4h10.8v26.3c-6.9-1.7-14.2-2.9-21.5-3.5l-11.4-27.1-2-.1-11.3 27c-7.2.5-14.3 1.5-21.2 2.9 0 0-.3 0-.7.2v-8.5l12.9-20.6h-4.9l-10.3 17-10.9-17h-5.4l13.8 20.9v9.5c-9.9 2.9-29.8 9.4-36.3 16.3 16.6-8.1 41.9-13.2 41.9-13.2 6.3-1.1 12.6-1.9 19-2.4l-6.9 16.7h5l7.7-19.7-1.3 3.4c5.1-.2 19.4-.3 19.4-.3l6.7 16.5h5.4l-7-16.3c6.5.6 13.1 1.6 19.5 2.9l6.3 1.4c10.5 2.6 20.8 6.3 30.7 11-6.1-6.7-23.7-12.9-32.2-15.6zm-46.6-5.2 7.4-19 7.7 19z"/><path d="m174.3 63h-4.9v-32.9h-10.8v-3.5h26.4v3.5h-10.7z"/></g></svg>