<svg enable-background="new 0 0 276 58.5" viewBox="0 0 276 58.5" xmlns="http://www.w3.org/2000/svg"><g fill="#fff"><path d="m228 33.4c-.9 0-1.6.7-1.6 1.5s.7 1.5 1.6 1.5 1.6-.7 1.6-1.5-.7-1.5-1.6-1.5zm0 2.8c-.7 0-1.3-.5-1.3-1.3s.6-1.3 1.3-1.3 1.3.6 1.3 1.3-.6 1.3-1.3 1.3z"/><path d="m228.2 35.1c.3 0 .5-.2.5-.5s-.2-.5-.6-.5h-.7v1.8h.3v-.8h.3l.5.8h.3zm-.5-.3v-.5h.4c.2 0 .4 0 .4.3s-.2.3-.4.3h-.4z"/><path d="m42.7 18.4c.8 0 1.3.2 1.8.5.9.4 2 .9 3.3 1.6 0 0 2.2-1.5 2.3-1.6.7-.5 1.4-.1 1.7.3.8 1.5 2.3 4.7 3.1 7.6.1.4 0 .9-.6 1-.3.1-.8.2-1.4.2-.8.1-.8.7-.8 1.1v4.7c0 .7-.5 2.8-3 2.8-.2 0-5.8 0-5.8 0-2.2 0-3.9-1.8-3.9-3.8v-11.2c0-1.9 1.7-3.3 3.3-3.2z"/><path d="m33.6 36.6h-18.7v2.1h22s.8-1.8.8-3.9v-14.1c0-1.1.5-3 2.7-3.5h.2c6.5-1.5 13.2-.1 16.9 1.5.7.3.8-.2.8-.4.1-3.2-2.3-6.8-6.8-7-3.6-.1-5.6 1.2-6.3 1.6-.1 0-.2 0-.2-.1-.7-.6-2.1-1.6-3.7-2.1-.2-.1-.3-.4 0-.4 3.4-.4 6.4 0 7.6.2.3.1.5-.1.4-.4-.1-.2-.2-.3-.3-.6-.3-.6-1.1-1.3-2.1-1.6-2.7-.8-7.2-1.4-11.3-1.4-4.6-.1-9.4.8-10.6 1.1-.3.1-.7.2-.8.2-.3.1-.4.4-.3.5s.3.3.5.5c.1.2.2.5-.1.7l-8.5 7.6h5.9c.4 0 .7.3.7.8 0 .4-.3.8-.7.8h-7.6l-2.3 2.1h9.9c.4 0 .7.4.7.8 0 .3-.3.8-.7.8h-11.5l-2.3 2.1h20c.4 0 .7.4.7.8s-.3.8-.7.8h-20v2.1h19.9c.5 0 .7.4.7.8s-.3.7-.7.7h-19.9v2.1h26c.4 0 .7.4.7.8 0 .3-.3.7-.7.7h-19v2.1h19.1c.3 0 .7.4.7.8s-.3.7-.7.7z"/><path d="m21.9 43.8v2.2h4.4c4 0 6.5-2.1 6.5-2.1h-10.9z"/><path d="m21.9 40.2v2.1h12.7c.6-.6 1.3-1.7 1.5-2.1z"/><path d="m226.7 27.4v-.1c-.1-1.6-.6-3.1-1.4-4.2-1.6-2.5-4.3-3.8-7.7-3.8-3.3 0-6.1 1.3-7.7 3.8-.8 1.1-1.3 2.6-1.4 4.2v.1c-.4 5.4 2.7 9.2 8.1 9.6h.9s.6 0 .9 0c5.7-.5 8.8-4.2 8.3-9.6zm-8.6 7c-.1 0-.3 0-.4 0s-.3 0-.4 0c-.8-.1-1.4-.3-2-.8-.2-.1-.3-.3-.5-.5-.8-.9-1.3-2.5-1.4-3.8-.2-2.9.3-7.2 3.9-7.5h.6c3.6.3 4.2 4.6 3.9 7.5-.1 1.2-.5 2.8-1.4 3.8-.2.2-.3.3-.5.5-.4.5-1 .8-1.8.8z"/><path d="m190.9 23.3c0-1.3.1-3.7.1-3.7h-4.4s.1 2.4.1 3.7v9.7c0 1.3-.1 3.6-.1 3.6h4.4s-.1-2.3-.1-3.6z"/><path d="m165.2 34h-3.1c0-1.7-.1-3.4-.1-4.9v-.2h5.1v-2.4h-5.1c0-2.6.1-4.3.1-4.3h6.3v-2.5c-4.4 0-10.8 0-10.8 0s.1 2.3.1 3.7v9.6c0 1.2-.1 3.3-.1 3.7h11.2v-2.7c.1-.1-2.1 0-3.6 0z"/><path d="m91.6 34h-3.1c0-1.7-.1-3.4-.1-4.9v-.2h5.1v-2.4h-5.1c0-2.6.1-4.3.1-4.3h6.3v-2.5c-4.4 0-10.8 0-10.8 0s.1 2.3.1 3.7v9.6c0 1.2-.1 3.3-.1 3.7h11.2v-2.7c0-.1-2.1 0-3.6 0z"/><path d="m179.6 27.5 4.9-7.8h-3.4v.1c-1 1.8-2.3 3.9-2.8 4.7l-.2.3-2.8-5.1h-5.1l4.9 8.8-5.1 8.2h3.4c2.2-3.7 3.3-5.4 3.3-5.4l3 5.4h5.1z"/><path d="m204.7 34.3c-3.9 0-6.1-2.9-5.9-6.4.1-3.1 1.5-5.7 4.9-5.9 1.3-.1 2.4.1 4.2.6l-.2-2.6s-1.5-.5-3.7-.6c-2.8-.1-5.3.4-7.4 2.3-1.8 1.6-2.9 4.1-2.9 6.5 0 2.6 1.1 5 3.1 6.7 2.1 1.8 4.4 2.2 7.1 2.2 1.8 0 2.8-.1 4.5-.6l-.2-2.6c-.5 0-1.7.4-3.5.4z"/><path d="m148 17.1h4.9l.1 1.1c1.1 11.3 1.8 18.4 1.8 18.4h-5.1l-.5-7-.5-6.3-4.3 13.3h-2.7s-1.4-4.7-1.6-5.4l-2.5-8s-.4 4.4-.5 6.3c-.3 3.8-.6 7-.6 7h-3.8s1.6-15.9 1.7-16.9.3-2.7.3-2.7h5l4.2 11.4z"/><path d="m130.6 27.4v-.1c-.1-1.6-.6-3-1.4-4.2-1.6-2.5-4.3-3.8-7.6-3.7-3.3 0-6.1 1.3-7.6 3.7-.8 1.1-1.3 2.5-1.4 4.2v.1c-.4 5.4 2.7 9.1 8.1 9.6h.9s.6 0 .9 0c5.4-.5 8.5-4.2 8.1-9.6zm-8.6 7c-.1 0-.3 0-.4 0s-.3 0-.4 0c-.8-.1-1.4-.3-2-.8-.2-.1-.3-.3-.5-.5-.8-.9-1.3-2.5-1.4-3.8-.2-2.9.3-7.2 3.9-7.5h.3.1.3c3.6.3 4.2 4.5 3.9 7.5-.1 1.2-.5 2.8-1.4 3.8-.2.2-.3.3-.5.5-.5.5-1.1.8-1.9.8z"/><path d="m83 36.6c-.2-.3-1.1-2.5-1.7-4.2l-5.7-15.3h-4.6s-1.3 3.6-1.4 4.2l-4.2 11.9c-.5 1.5-1.3 3.5-1.3 3.5h3.7s1-3.3 1.2-3.9l.6-1.6h6.3l.9 2.5c.2.5.9 3 .9 3h5.3zm-12.5-8.3 2.1-6.3.1-.4 2.2 6.7z"/><path d="m112.8 36.6c-1.1-1.5-1.4-2.1-2.3-3.2l-3-4.7c1.5-.7 2.8-1.9 3.1-4.5.1-1.6-.7-2.9-1.2-3.4-.7-.6-1.4-.9-2.5-1-.8-.1-1.4-.1-1.9-.1h-7.2s.1 2.3.1 3.7v9.6c0 1.3-.1 3.7-.1 3.7h4.4s-.1-2.3-.1-3.7v-3.1h1.6l2.8 5.1c.4.7.9 1.5 1.1 1.7zm-7.8-9.5c-.7.3-2.1.2-2.9.2l.1-4.9h.4c1.3-.1 2.3.1 2.7.3.6.3 1 .8 1 1.8.1 1.5-.5 2.2-1.3 2.6z"/><path d="m259.1 10.7-.1-.1v-.1l.5.2v.1l-.2-.1-.3.6-.1-.1z"/><path d="m259.6 10.8.2.1-.1.5.4-.4.2.1-.3.6h-.1l.2-.6-.4.5-.1-.1.1-.6-.3.5h-.1z"/><path d="m264 16.3c2.4 2.5 4 5.8 4.3 9.5.6 8.2-5.6 15.3-13.8 15.8-3.8.3-7.4-1-10.2-3.2 2.9 2.7 6.9 4.2 11.1 4 8.2-.6 14.3-7.7 13.8-15.8-.4-4.2-2.3-7.8-5.2-10.3z"/><path d="m237.6 33.1c-.5.3-.6.7-.3 1.3.2.6.6.8.9.7s.4-.4.2-1l-.1-.3c-.1-.7-.1-.9-.1-1.2.1-.3.3-.5.5-.6.7-.3 1.3.1 1.7 1.1s.2 1.8-.6 2.1l-.2-.5c.6-.2.7-.8.4-1.5-.2-.6-.6-.9-1-.7-.3.1-.4.4-.3 1.1l.1.3v.2c.1.5.1.7.1.9-.1.3-.2.5-.5.6-.6.2-1.2-.1-1.6-1s-.2-1.6.5-1.9z"/><path d="m237.2 27.8 2.3-1.9v.7l-1.9 1.6.6.7 1.4-.1v.6l-3.9.1v-.6h1.5.2.2l-.1-.2-.1-.1-1.7-1.8v-.8z"/><path d="m238.9 21.9 1.5.5-.2.5-1.5-.5-2.6.8.2-.6 1.6-.5.2-.1c.1 0 .1 0 .3-.1-.1-.1-.2-.2-.3-.4l-1-1.4.2-.6z"/><path d="m241.5 14.8-.8 1 2.4 2-.6.7-2.4-2-.8 1-.5-.4 2.2-2.7z"/><path d="m246.7 11.2-1.9 1.1.4.7 1.7-1 .4.6-1.8 1 .5.8 1.9-1.1.4.6-2.8 1.6-1.9-3.3 2.7-1.6z"/><path d="m254.1 12.7-1 .1-.5-.8-1.5.2-.2.9-.9.2 1-4.2.9-.1zm-2.2-2c-.2-.4-.3-.5-.4-.8 0 .3-.1.5-.2.9l-.2.7 1.1-.2z"/><path d="m260.2 13.9-.8-.3.3-1.1c0-.1.1-.3.1-.6.1-.2.1-.4.2-.6 0-.1.1-.3.1-.5l.1-.3c-.2.4-.3.5-.5.8-.1.1-.2.2-.2.4l-1.1 1.5-.7-.2-.2-1.8c0-.1 0-.2 0-.4s0-.4 0-.6v-.3l-.1.5c-.1.5-.2.7-.3 1.3l-.3 1.2-.9-.1 1-3.7 1.3.2.2 1.8v1.3c.1-.3.2-.4.4-.6.1-.2.2-.3.3-.4l1-1.4 1.2.4z"/><path d="m252.9 21.3c-.5.4-1.4 1.3-2.3 2.1l-1 1c-.8-.1-1.6-.2-2.5-.2-1.9 0-3.6.5-4.4 1.3-.3.3-.4.6-.4 1 0 .9 1.1 1.4 1.4 1.5 1.6.6 3.1.4 4.5-.6.8-.6 1.8-1.5 2.5-2.2.6.1 1.3.3 2 .5l.7.2c-.9.8-1.7 1.7-2.6 2.5l-.1.1c-1.1 1-2 1.7-3.1 2-.8.2-1.4 0-1.6-.1h-.1c.7.6 1.3.9 2.5.8 1.1-.1 2.3-.8 3.6-1.9l1.7-1.7 1.2-1.2 2.4.7s-1.5 1.5-1.5 1.5l-1.3 1.3c-1.3 1.3-2 1.9-2.8 2.5-1.3.9-2.4 1.4-3.3 1.4-.5 0-1.2 0-1.8-.3h-.1c.6.5 1.4 1.2 2.8 1.2 1.6 0 2.9-.8 5-2.7 1-.9 1.9-1.9 2.8-2.8l1.6-1.6c1 .2 2 .3 3 .3 1.5 0 2.8-.8 2.8-1.6 0-.6-.5-.9-.8-1.1-.2-.2-.9-.5-1.8-.5-1.1 0-2.3.5-3.5 1.5l-.8.7-.3-.1-2.2-.6c.6-.6 1.2-1.1 1.7-1.6 1.2-1.1 2.5-1.5 3.3-1.6.6 0 1.6 0 2 .3-1.1-.9-2-1-2.8-1s-2 .2-3.5 1.4c-.6.5-1.4 1.3-2.2 2.1l-1.1-.3-.3-.1-1.2-.4.7-.6c.8-.8 1.5-1.5 2.1-2 2.1-1.8 3.4-2 4.4-2s1.8.2 2.4.6c-1.2-1.1-2-1.4-3.5-1.4-1.1-.3-2.7.4-4.2 1.7zm-8.3 6.3c-.7 0-1-.3-1-.9 0-.1.1-1.7 3.9-1.9h1.7s-.4.4-.4.4l-.2.2c-1.1.9-2.6 2.3-4 2.2zm15.5-1.3c1.1-.7 2-1.1 2.6-1.1.3 0 .7.1.7.5s-.4.8-1.2 1.1c-.7.2-1.8.3-3 .2.4-.4.7-.6.9-.7z"/></g><path d="m133.1 45.4s7.7-6.3 27.2-6.3c14.7 0 23.5 4.7 40.7 4.7 15.5 0 25.8-5.3 25.8-5.3s-9.1 7.1-27.2 7.1-24-4.8-41.9-4.8-24.6 4.6-24.6 4.6z" fill="#ce3732"/></svg>