<svg fill="none" height="120" viewBox="0 0 87 120" width="87" xmlns="http://www.w3.org/2000/svg"><path d="m9.26836 64.9642 25.50254 45.6288c3.8164 6.829 13.6418 6.829 17.4582 0l25.5025-45.6288c10.4854-18.7605 4.8744-42.7668-12.9011-54.5111-12.9971-8.5872-29.6638-8.5872-42.6609 0-17.77557 11.7443-23.38666 35.7506-12.90124 54.5111z" fill="#fff" stroke="#fff" stroke-width="8"/><g fill="#d93829"><path d="m46.797 104.114c2.3116-4.815 4.9705-9.4755 7.9579-13.9494 3.0797-4.8391 6.1624-9.6809 9.2482-14.5256 5.6481-8.8697 12.0902-17.8072 14.7518-27.9827 1.3688-5.0321 1.5993-10.278.6767-15.399-.9744-5.1895-3.6992-9.6667-7.218-13.6861-3.4105-3.8921-7.1549-7.6995-12.1444-9.75152-4.7988-1.98544-10.0069-2.94412-15.2481-2.80675-4.3.10573-8.5584.8204-12.6316 2.1199-1.9668.59057-3.8581 1.38401-5.6391 2.36577-2.2618 1.3942-4.3159 3.0652-6.1082 4.9691-1.9666 1.9869-3.8017 4.0853-5.4948 6.2834-1.5737 2.1499-2.8786 4.4631-3.8887 6.8939-2.02788 4.6586-3.06692 9.6449-3.05865 14.6782 0 6.843 2.40905 12.9229 5.41355 19.0367 2.9052 5.8764 6.3158 11.5492 9.7714 17.1373 5.1429 8.2309 10.5744 16.3063 16.2947 24.2258l.2888.407c1.2 1.646 3.609 2.544 5.5579 1.366 1.7413-1.052 2.7067-3.46 1.4616-5.224-4.5925-6.3001-8.9594-12.7192-13.191-19.2824-3.4917-5.4439-6.8932-10.9132-10.015-16.5352-1.4346-2.5439-2.806-5.1895-4.0511-7.8521l-.397-.848c-.2256-.4749.406.9328.1083.2459l-.1625-.3731c-.2706-.602-.5233-1.2126-.7669-1.8231-.415-1.0515-.803-2.1029-1.1368-3.1799-.1353-.4579-.2617-.9073-.3699-1.3652-.1083-.4579-.2436-1.0345-.3339-1.5602-.0451-.2375-.0812-.4749-.1263-.7123.1444.848 0-.3477-.0451-.4155-.2526-2.2862-.2526-4.5908 0-6.877 0 .0509.1534-1.1362.0722-.5766-.0812.5597.1083-.6275.0992-.5766.0812-.4833.1805-.9582.2797-1.4331.2672-1.188.5984-2.3625.9925-3.519.1895-.5851.397-1.1532.6226-1.6959.0902-.212.5955-1.3822.3158-.7717.5083-1.1194 1.0867-2.2095 1.7323-3.2646.6438-1.0305 1.3518-2.0244 2.1203-2.9763.4511-.5682-.5865.6698.2256-.2714l.5052-.5851c.4241-.4833.9023-.9582 1.3083-1.433 1.5405-1.7546 3.2401-3.3803 5.0797-4.8589-.6587.5003.2977-.195.3609-.2374.0631-.0424.406-.2628.6135-.3816.4711-.2808.9591-.5356 1.4617-.7631.2901-.1832.6101-.3207.9473-.4071-.5774 0-.7308.2799-.3338.1357l.794-.2883c1.6415-.5736 3.3238-1.0383 5.0346-1.3906.9022-.1951 1.8045-.3307 2.7067-.4834.6497-.1102-1.0105.1018 0 0l.6497-.0678c.6045-.0594 1.218-.1102 1.8045-.1357 1.191-.0678 2.2827-.0678 3.3654-.0678.4692 0 .9022.0424 1.3985.0763l.9022.0678.5234.0594h-.1895c1.1368.1781 2.2646.3731 3.3834.6529.4692.1187.9474.2544 1.4166.3901l.9022.2883.7399.2629c-.5233-.2036.6225.2628.5684.2374l.6857.3137c.5827.2667 1.149.564 1.6963.8904.1985.1187 1.2541.8479.7308.4579.5955.4579 1.1639.9497 1.7143 1.4585 1.7413 1.6281 3.4105 3.3918 4.9714 5.1386.1534.1696.9654 1.1617.5774.6614.379.4918.7579.9837 1.1188 1.4924.6978 1.0151 1.3305 2.0685 1.8948 3.1545.0631.1102.3158.6698 0 .0763.0992.212.1894.4409.2797.6614.2165.5512.415 1.1193.5955 1.6959.347 1.1375.6093 2.2964.7849 3.4682-.1082-.7462 0 .5172.0632.7631.0451.5936.0722 1.1872.0902 1.7892.0165 1.2002-.0347 2.4003-.1534 3.5954l-.0812.7123c-.1353 1.1447.0993-.441 0 .2459-.1082.5257-.1895 1.0684-.2977 1.5941-.2436 1.1787-.5504 2.3489-.9023 3.5021s-.7398 2.1878-1.1729 3.2562c-.2075.5427-.4331 1.0769-.6677 1.6026-.2977.6699.388-.7971-.1443.3223l-.5053 1.0429c-2.2426 4.3807-4.7365 8.6437-7.4707 12.7703l-8.8421 13.8048c-2.815 4.4349-5.7293 8.8273-8.3639 13.3639-1.2722 2.1962-2.4631 4.4433-3.5188 6.784-.8301 1.831-.6406 4.18 1.4617 5.223 1.7413.823 4.6466.551 5.5488-1.407z"/><path d="m43.576 77.5805c1.4652-2.9157 3.1445-5.732 5.0256-8.4287l7.6421-11.6001c2.4722-3.748 4.9714-7.5553 6.3158-11.7442 1.3443-4.189 1.4887-8.8952-.6858-12.7958-1.3362-2.1462-2.9955-4.0998-4.9263-5.8-.854-.8528-1.8431-1.5764-2.9323-2.1454-6.7489-3.3918-14.7429-1.6959-18.4692-.1356-1.6688.7947-3.1556 1.8895-4.3759 3.2222-1.5765 1.4937-2.9412 3.1724-4.0602 4.9945-2.4391 4.1817-3.198 9.0479-2.1383 13.7115 2.2105 8.963 18.6045 30.7216 18.6045 30.7216z"/></g></svg>