<svg clip-rule="evenodd" fill-rule="evenodd" stroke-linejoin="round" stroke-miterlimit="2" viewBox="0 0 194 99" xmlns="http://www.w3.org/2000/svg" xmlns:xlink="http://www.w3.org/1999/xlink"><linearGradient id="a" gradientTransform="matrix(1 0 0 -1 0 -.000021)" gradientUnits="userSpaceOnUse" x1="0" x2="1" y1="0" y2="0"><stop offset="0" stop-color="#e30778"/><stop offset="1" stop-color="#891248"/></linearGradient><linearGradient id="b" gradientTransform="matrix(1 0 0 -1 0 -.000003)" gradientUnits="userSpaceOnUse" x1="0" x2="1" y1="0" y2="0"><stop offset="0" stop-color="#304e9b"/><stop offset=".57" stop-color="#7cb6d7"/><stop offset="1" stop-color="#83c2c1"/></linearGradient><linearGradient id="c" gradientTransform="matrix(1 0 0 -1 0 -.000023)" gradientUnits="userSpaceOnUse" x1="0" x2="1" y1="0" y2="0"><stop offset="0" stop-color="#672268"/><stop offset="1" stop-color="#6d2482"/></linearGradient><g transform="matrix(.756827 0 0 .58673 -455.41 169.562)"><path d="m601.736-288.994h255.766v167.5h-255.766z" fill="none"/><g fill-rule="nonzero"><path d="m0-34.853c-8.398 0-15.775 4.351-20.015 10.917-2.4 3.717-3.799 8.142-3.799 12.897 0 3.985.984 7.739 2.715 11.039-.004-.18-.014-.359-.014-.54 0-4.485 1.097-8.712 3.026-12.437 4.507-8.7 13.586-14.65 24.061-14.65 5.243 0 10.135 1.494 14.282 4.073l.002-.002c-4.197-6.779-11.698-11.297-20.258-11.297" fill="#304e9b" transform="matrix(1.32131 0 0 1.70436 678.50524462 -190.08114268)"/><path d="m.057.269c0-.161.113-.274.324-.361.002-.001.005-.002.007-.003l.135-.055c.103-.042.132-.058.132-.111 0-.059-.045-.088-.134-.088-.132 0-.213.06-.29.154l-.229-.158-.002-.002c.095-.166.285-.27.521-.27.271 0 .479.142.479.376 0 .17-.107.276-.335.364l-.15.059c-.085.031-.113.054-.113.098 0 .051.046.077.117.077.092 0 .151-.039.214-.125l.229.158c-.079.148-.231.243-.447.243-.267 0-.458-.142-.458-.356z" fill="url(#a)" transform="matrix(48.613769651 0 0 -62.706983556 763.58968076 -208.679119)"/><path d="m0-24.391c1.789 3.689 2.793 7.828 2.793 12.203 0 2.186-.259 4.31-.732 6.352-.473 2.039-1.162 3.995-2.053 5.836 2.892-1.117 5.259-2.845 6.858-5.089 1.446-2.028 2.265-4.477 2.265-7.287 0-5.399-2.939-9.042-9.131-12.015" fill="#fff" opacity=".35" transform="matrix(1.32131 0 0 1.70436 800.13711536 -171.99617872)"/><path d="m0-4.254c0-2.186.259-4.31.732-6.352.279-1.2.63-2.371 1.057-3.506-1.734.739-3.245 1.711-4.476 2.887-2.319 2.217-3.652 5.151-3.652 8.585 0 5.455 3.524 9.398 10.157 12.498-2.423-4.145-3.818-8.964-3.818-14.112" fill="#882150" transform="matrix(1.32131 0 0 1.70436 774.75607157 -221.0272072)"/><path d="m.073.134c-.046-.09-.073-.192-.073-.3 0-.005 0-.009 0-.014.097-.183.289-.308.51-.308.2 0 .376.102.48.257l-.223.153c-.052-.075-.139-.125-.238-.125-.16 0-.29.13-.29.29 0 .161.13.29.29.29.106 0 .198-.056.249-.141l.222.154c-.1.062-.219.098-.345.098-.253 0-.473-.144-.582-.354z" fill="url(#b)" transform="matrix(54.661405521 0 0 -70.507839276 650.60842659 -202.73772004)"/><path d="m.513.604h-.513v-1.208h.335v.262h.178c.192 0 .358.111.438.272.03.061.047.129.049.201-.002.072-.019.139-.049.2-.079.162-.245.273-.438.273zm-.178-.674v.401h.144c.005 0 .009-.001.014-.001.095-.007.166-.089.17-.184.001-.005.001-.01.001-.016 0-.005 0-.01-.001-.015-.004-.095-.075-.177-.17-.184-.005 0-.009-.001-.014-.001z" fill="url(#c)" transform="matrix(50.057168695 0 0 -64.56882642 710.92226416 -208.508683)"/><path d="m0-45.8h-19.453v45.8l8.471-15.198 4.208-7.548v-12.677h5.453c.185 0 .369.007.551.02.332.024.653.08.967.15l5.393-9.675c-1.764-.561-3.64-.872-5.59-.872" fill="#a2037d" transform="matrix(1.32131 0 0 1.70436 736.6270289 -169.478839)"/><path d="m0 15.404-8.472-30.602v45.8h12.679z" fill="#fff" opacity=".35" transform="matrix(1.32131 0 0 1.70436 722.11640248 -221.63566372)"/><path d="m0 25.751c8.274 0 15.561-4.222 19.829-10.627l-.003-.002c-3.6 1.684-7.614 2.631-11.852 2.631-11.847 0-21.968-7.36-26.061-17.753-1.929 3.725-3.026 7.951-3.026 12.436 0 .181.01.36.014.541 3.98 7.592 11.932 12.774 21.099 12.774" fill="#fff" opacity=".35" transform="matrix(1.32131 0 0 1.70436 678.50524462 -212.19691804)"/><path d="m0-6.637-1.971 2.805-1.971-2.805h-1.402v6.637h1.402v-2.659c0-.464-.006-1.014-.018-1.65l.018-.009c.354.532.679 1.005.972 1.421l.584.829h.756l.585-.829c.293-.416.617-.889.971-1.421l.019.009c-.013.636-.019 1.186-.019 1.65v2.659h1.458v-6.637z" fill="#0f0f0f" transform="matrix(1.32131 0 0 1.70436 707.73526444 -143.96286544)"/><path d="m0 6.637v-6.637h4.098v1.274h-2.64v1.302h2.273v1.21h-2.273v1.577h2.74v1.274z" fill="#0f0f0f" transform="matrix(1.32131 0 0 1.70436 716.12822556 -155.27640712)"/><path d="m0 4.089h.403c1.736 0 2.604-.684 2.604-2.054 0-.727-.257-1.27-.77-1.631-.379-.269-.993-.404-1.843-.404h-.394zm-1.458 1.274v-6.637h1.861c1.314 0 2.32.286 3.016.857.697.572 1.045 1.389 1.045 2.452 0 1.052-.342 1.869-1.026 2.453-.685.583-1.718.875-3.099.875z" fill="#0f0f0f" transform="matrix(1.32131 0 0 1.70436 729.81435454 -153.10505248)"/></g><path d="m662.146 651.804h1.458v6.637h-1.458z" fill="#0f0f0f" transform="matrix(1.32131 0 0 1.70436 -133.046 -1266.1833682)"/><path d="m0 .147-.266.706h1.788l-.275-.743c-.239-.647-.441-1.21-.605-1.686h-.019c-.195.556-.403 1.131-.623 1.723m-2.75 3.245 2.695-6.637h1.412l2.695 6.637h-1.558l-.532-1.393h-2.677l-.541 1.393z" fill="#0f0f0f" fill-rule="nonzero" transform="matrix(1.32131 0 0 1.70436 753.21475464 -149.74575892)"/></g></svg>