<?xml version="1.0" encoding="UTF-8" standalone="no"?>
<!DOCTYPE svg PUBLIC "-//W3C//DTD SVG 1.1//EN" "http://www.w3.org/Graphics/SVG/1.1/DTD/svg11.dtd">
<svg width="100%" height="100%" viewBox="0 0 194 99" version="1.1" xmlns="http://www.w3.org/2000/svg" xmlns:xlink="http://www.w3.org/1999/xlink" xml:space="preserve" xmlns:serif="http://www.serif.com/" style="fill-rule:evenodd;clip-rule:evenodd;stroke-linejoin:round;stroke-miterlimit:2;">
    <g id="Artboard1" transform="matrix(0.756827,0,0,0.58673,-455.41,169.562)">
        <rect x="601.736" y="-288.994" width="255.766" height="167.5" style="fill:none;"/>
        <g id="cps" transform="matrix(1.32131,0,0,1.70436,-133.046,-873.763)">
            <g transform="matrix(1,0,0,1,614.202,401.137)">
                <path d="M0,-34.853C-8.398,-34.853 -15.775,-30.502 -20.015,-23.936C-22.415,-20.219 -23.814,-15.794 -23.814,-11.039C-23.814,-7.054 -22.83,-3.3 -21.099,0C-21.103,-0.18 -21.113,-0.359 -21.113,-0.54C-21.113,-5.025 -20.016,-9.252 -18.087,-12.977C-13.58,-21.677 -4.501,-27.627 5.974,-27.627C11.217,-27.627 16.109,-26.133 20.256,-23.554L20.258,-23.556C16.061,-30.335 8.56,-34.853 0,-34.853" style="fill:rgb(48,78,155);fill-rule:nonzero;"/>
            </g>
            <g transform="matrix(36.7921,0,0,-36.7921,678.596,390.225)">
                <path d="M0.057,0.269C0.057,0.108 0.17,-0.005 0.381,-0.092C0.383,-0.093 0.386,-0.094 0.388,-0.095L0.523,-0.15C0.626,-0.192 0.655,-0.208 0.655,-0.261C0.655,-0.32 0.61,-0.349 0.521,-0.349C0.389,-0.349 0.308,-0.289 0.231,-0.195L0.002,-0.353L-0,-0.355C0.095,-0.521 0.285,-0.625 0.521,-0.625C0.792,-0.625 1,-0.483 1,-0.249C1,-0.079 0.893,0.027 0.665,0.115L0.515,0.174C0.43,0.205 0.402,0.228 0.402,0.272C0.402,0.323 0.448,0.349 0.519,0.349C0.611,0.349 0.67,0.31 0.733,0.224L0.962,0.382C0.883,0.53 0.731,0.625 0.515,0.625C0.248,0.625 0.057,0.483 0.057,0.269Z" style="fill:url(#_Linear1);fill-rule:nonzero;"/>
            </g>
            <g opacity="0.35">
                <g transform="matrix(1,0,0,1,706.256,411.748)">
                    <path d="M0,-24.391C1.789,-20.702 2.793,-16.563 2.793,-12.188C2.793,-10.002 2.534,-7.878 2.061,-5.836C1.588,-3.797 0.899,-1.841 0.008,0C2.9,-1.117 5.267,-2.845 6.866,-5.089C8.312,-7.117 9.131,-9.566 9.131,-12.376C9.131,-17.775 6.192,-21.418 0,-24.391" style="fill:white;fill-rule:nonzero;"/>
                </g>
            </g>
            <g transform="matrix(1,0,0,1,687.047,382.98)">
                <path d="M0,-4.254C0,-6.44 0.259,-8.564 0.732,-10.606C1.011,-11.806 1.362,-12.977 1.789,-14.112C0.055,-13.373 -1.456,-12.401 -2.687,-11.225C-5.006,-9.008 -6.339,-6.074 -6.339,-2.64C-6.339,2.815 -2.815,6.758 3.818,9.858C1.395,5.713 0,0.894 0,-4.254" style="fill:rgb(136,33,80);fill-rule:nonzero;"/>
            </g>
            <g transform="matrix(41.3691,0,0,-41.3691,593.089,393.711)">
                <path d="M0.073,0.134C0.027,0.044 -0,-0.058 -0,-0.166C-0,-0.171 0,-0.175 0,-0.18C0.097,-0.363 0.289,-0.488 0.51,-0.488C0.71,-0.488 0.886,-0.386 0.99,-0.231L0.767,-0.078C0.715,-0.153 0.628,-0.203 0.529,-0.203C0.369,-0.203 0.239,-0.073 0.239,0.087C0.239,0.248 0.369,0.377 0.529,0.377C0.635,0.377 0.727,0.321 0.778,0.236L1,0.39C0.9,0.452 0.781,0.488 0.655,0.488C0.402,0.488 0.182,0.344 0.073,0.134Z" style="fill:url(#_Linear2);fill-rule:nonzero;"/>
            </g>
            <g transform="matrix(37.8845,0,0,-37.8845,638.736,390.325)">
                <path d="M0.513,0.604L-0,0.604L-0,-0.604L0.335,-0.604L0.335,-0.342L0.513,-0.342C0.705,-0.342 0.871,-0.231 0.951,-0.07C0.981,-0.009 0.998,0.059 1,0.131C0.998,0.203 0.981,0.27 0.951,0.331C0.872,0.493 0.706,0.604 0.513,0.604ZM0.335,-0.07L0.335,0.331L0.479,0.331C0.484,0.331 0.488,0.33 0.493,0.33C0.588,0.323 0.659,0.241 0.663,0.146C0.664,0.141 0.664,0.136 0.664,0.13C0.664,0.125 0.664,0.12 0.663,0.115C0.659,0.02 0.588,-0.062 0.493,-0.069C0.488,-0.069 0.484,-0.07 0.479,-0.07L0.335,-0.07Z" style="fill:url(#_Linear3);fill-rule:nonzero;"/>
            </g>
            <g transform="matrix(1,0,0,1,658.19,413.225)">
                <path d="M0,-45.8L-19.453,-45.8L-19.453,0L-10.982,-15.198L-6.774,-22.746L-6.774,-35.423L-1.321,-35.423C-1.136,-35.423 -0.952,-35.416 -0.77,-35.403C-0.438,-35.379 -0.117,-35.323 0.197,-35.253L5.59,-44.928C3.826,-45.489 1.95,-45.8 0,-45.8" style="fill:rgb(162,3,125);fill-rule:nonzero;"/>
            </g>
            <g opacity="0.35">
                <g transform="matrix(1,0,0,1,647.208,382.623)">
                    <path d="M0,15.404L-8.472,-15.198L-8.472,30.602L4.207,30.602L0,15.404Z" style="fill:white;fill-rule:nonzero;"/>
                </g>
            </g>
            <g opacity="0.35">
                <g transform="matrix(1,0,0,1,614.202,388.161)">
                    <path d="M0,25.751C8.274,25.751 15.561,21.529 19.829,15.124L19.826,15.122C16.226,16.806 12.212,17.753 7.974,17.753C-3.873,17.753 -13.994,10.393 -18.087,0C-20.016,3.725 -21.113,7.951 -21.113,12.436C-21.113,12.617 -21.103,12.796 -21.099,12.977C-17.119,20.569 -9.167,25.751 0,25.751" style="fill:white;fill-rule:nonzero;"/>
                </g>
            </g>
            <g transform="matrix(1,0,0,1,636.324,428.196)">
                <path d="M0,-6.637L-1.971,-3.832L-3.942,-6.637L-5.344,-6.637L-5.344,0L-3.942,0L-3.942,-2.659C-3.942,-3.123 -3.948,-3.673 -3.96,-4.309L-3.942,-4.318C-3.588,-3.786 -3.263,-3.313 -2.97,-2.897L-2.386,-2.068L-1.63,-2.068L-1.045,-2.897C-0.752,-3.313 -0.428,-3.786 -0.074,-4.318L-0.055,-4.309C-0.068,-3.673 -0.074,-3.123 -0.074,-2.659L-0.074,0L1.384,0L1.384,-6.637L0,-6.637Z" style="fill:rgb(15,15,15);fill-rule:nonzero;"/>
            </g>
            <g transform="matrix(1,0,0,1,642.676,421.558)">
                <path d="M0,6.637L0,0L4.098,0L4.098,1.274L1.458,1.274L1.458,2.576L3.731,2.576L3.731,3.786L1.458,3.786L1.458,5.363L4.198,5.363L4.198,6.637L0,6.637Z" style="fill:rgb(15,15,15);fill-rule:nonzero;"/>
            </g>
            <g transform="matrix(1,0,0,1,653.034,422.832)">
                <path d="M0,4.089L0.403,4.089C2.139,4.089 3.007,3.405 3.007,2.035C3.007,1.308 2.75,0.765 2.237,0.404C1.858,0.135 1.244,-0 0.394,-0L0,-0L0,4.089ZM-1.458,5.363L-1.458,-1.274L0.403,-1.274C1.717,-1.274 2.723,-0.988 3.419,-0.417C4.116,0.155 4.464,0.972 4.464,2.035C4.464,3.087 4.122,3.904 3.438,4.488C2.753,5.071 1.72,5.363 0.339,5.363L-1.458,5.363Z" style="fill:rgb(15,15,15);fill-rule:nonzero;"/>
            </g>
            <g transform="matrix(1,0,0,1,0,-230.245)">
                <rect x="662.146" y="651.804" width="1.458" height="6.637" style="fill:rgb(15,15,15);"/>
            </g>
            <g transform="matrix(1,0,0,1,670.744,424.803)">
                <path d="M0,0.147L-0.266,0.853L1.522,0.853L1.247,0.11C1.008,-0.537 0.806,-1.1 0.642,-1.576L0.623,-1.576C0.428,-1.02 0.22,-0.445 0,0.147M-2.75,3.392L-0.055,-3.245L1.357,-3.245L4.052,3.392L2.494,3.392L1.962,1.999L-0.715,1.999L-1.256,3.392L-2.75,3.392Z" style="fill:rgb(15,15,15);fill-rule:nonzero;"/>
            </g>
        </g>
    </g>
    <defs>
        <linearGradient id="_Linear1" x1="0" y1="0" x2="1" y2="0" gradientUnits="userSpaceOnUse" gradientTransform="matrix(1,0,0,-1,0,-2.126e-05)"><stop offset="0" style="stop-color:rgb(227,7,120);stop-opacity:1"/><stop offset="1" style="stop-color:rgb(137,18,72);stop-opacity:1"/></linearGradient>
        <linearGradient id="_Linear2" x1="0" y1="0" x2="1" y2="0" gradientUnits="userSpaceOnUse" gradientTransform="matrix(1,0,0,-1,0,-2.88138e-06)"><stop offset="0" style="stop-color:rgb(48,78,155);stop-opacity:1"/><stop offset="0.57" style="stop-color:rgb(124,182,215);stop-opacity:1"/><stop offset="1" style="stop-color:rgb(131,194,193);stop-opacity:1"/></linearGradient>
        <linearGradient id="_Linear3" x1="0" y1="0" x2="1" y2="0" gradientUnits="userSpaceOnUse" gradientTransform="matrix(1,0,0,-1,0,-2.32021e-05)"><stop offset="0" style="stop-color:rgb(103,34,104);stop-opacity:1"/><stop offset="0" style="stop-color:rgb(103,34,104);stop-opacity:1"/><stop offset="1" style="stop-color:rgb(109,36,130);stop-opacity:1"/></linearGradient>
    </defs>
</svg>
