<?xml version="1.0" encoding="UTF-8" standalone="no"?>
<!DOCTYPE svg PUBLIC "-//W3C//DTD SVG 1.1//EN" "http://www.w3.org/Graphics/SVG/1.1/DTD/svg11.dtd">
<svg width="100%" height="100%" viewBox="0 0 233 99" version="1.1" xmlns="http://www.w3.org/2000/svg" xmlns:xlink="http://www.w3.org/1999/xlink" xml:space="preserve" xmlns:serif="http://www.serif.com/" style="fill-rule:evenodd;clip-rule:evenodd;stroke-linejoin:round;stroke-miterlimit:2;">
    <g transform="matrix(1,0,0,1,-433,0)">
        <g id="Artboard1" transform="matrix(0.907798,0,0,0.58673,-113.149,169.562)">
            <rect x="601.736" y="-288.994" width="255.766" height="167.5" style="fill:none;"/>
            <g id="radiantefm" transform="matrix(1.10157,0,0,1.70436,-494.465,-882.284)">
                <g transform="matrix(1,0,0,1,1069.68,397.629)">
                    <path d="M0,-0.779L0.72,-0.779C1.556,-0.779 2.166,-0.922 2.552,-1.206C2.939,-1.492 3.131,-1.939 3.131,-2.55C3.131,-3.263 2.951,-3.771 2.592,-4.072C2.231,-4.374 1.627,-4.522 0.778,-4.522L0,-4.522L0,-0.779ZM-3.637,6.73L-3.637,-7.509L0.419,-7.509C2.006,-7.509 3.114,-7.435 3.74,-7.291C4.364,-7.144 4.905,-6.9 5.359,-6.558C5.871,-6.167 6.264,-5.672 6.541,-5.068C6.817,-4.465 6.953,-3.8 6.953,-3.073C6.953,-1.972 6.684,-1.076 6.142,-0.385C5.599,0.306 4.811,0.765 3.775,0.992L7.654,6.73L3.269,6.73L0,1.155L0,6.73L-3.637,6.73Z" style="fill:rgb(175,25,26);fill-rule:nonzero;"/>
                </g>
                <g transform="matrix(1,0,0,1,1082.57,395.44)">
                    <path d="M0,3.599L3.86,3.599L2.412,-1.099C2.365,-1.242 2.304,-1.472 2.228,-1.789C2.149,-2.107 2.048,-2.517 1.926,-3.016C1.842,-2.665 1.758,-2.33 1.676,-2.014C1.596,-1.695 1.514,-1.39 1.429,-1.099L0,3.599ZM-5.437,8.919L-0.525,-5.32L4.338,-5.32L9.259,8.919L5.397,8.919L4.678,6.371L-0.836,6.371L-1.575,8.919L-5.437,8.919Z" style="fill:rgb(175,25,26);fill-rule:nonzero;"/>
                </g>
                <g transform="matrix(1,0,0,1,1097.04,393.31)">
                    <path d="M0,7.859L0.652,7.859C2.175,7.859 3.288,7.545 3.988,6.921C4.689,6.296 5.039,5.3 5.039,3.94C5.039,2.579 4.689,1.579 3.988,0.943C3.288,0.308 2.175,-0.01 0.652,-0.01L0,-0.01L0,7.859ZM-3.841,11.049L-3.841,-3.19L-0.874,-3.19C1.336,-3.19 2.901,-3.085 3.817,-2.877C4.736,-2.672 5.54,-2.324 6.234,-1.838C7.136,-1.208 7.82,-0.402 8.287,0.578C8.755,1.562 8.987,2.682 8.987,3.94C8.987,5.199 8.755,6.317 8.287,7.301C7.82,8.281 7.136,9.087 6.234,9.717C5.547,10.196 4.762,10.538 3.881,10.742C2.999,10.948 1.631,11.049 -0.223,11.049L-3.841,11.049Z" style="fill:rgb(175,25,26);fill-rule:nonzero;"/>
                </g>
                <g transform="matrix(1,0,0,1,0,-285.521)">
                    <rect x="1108.55" y="675.641" width="3.92" height="14.239" style="fill:rgb(175,25,26);"/>
                </g>
                <g transform="matrix(1,0,0,1,1119.37,395.44)">
                    <path d="M0,3.599L3.862,3.599L2.412,-1.099C2.367,-1.242 2.304,-1.472 2.228,-1.789C2.149,-2.107 2.05,-2.517 1.926,-3.016C1.842,-2.665 1.758,-2.33 1.678,-2.014C1.598,-1.695 1.514,-1.39 1.43,-1.099L0,3.599ZM-5.437,8.919L-0.525,-5.32L4.338,-5.32L9.259,8.919L5.399,8.919L4.678,6.371L-0.836,6.371L-1.575,8.919L-5.437,8.919Z" style="fill:rgb(175,25,26);fill-rule:nonzero;"/>
                </g>
                <g transform="matrix(1,0,0,1,1129.99,390.12)">
                    <path d="M0,14.239L0,0L3.743,0L9.123,7.323C9.228,7.473 9.397,7.773 9.634,8.223C9.871,8.675 10.131,9.21 10.417,9.833C10.339,9.243 10.283,8.718 10.246,8.256C10.211,7.797 10.194,7.387 10.194,7.031L10.194,0L13.918,0L13.918,14.239L10.194,14.239L4.814,6.885C4.704,6.737 4.53,6.437 4.295,5.987C4.057,5.537 3.799,5.006 3.522,4.396C3.599,4.992 3.656,5.521 3.691,5.981C3.728,6.442 3.743,6.85 3.743,7.208L3.743,14.239L0,14.239Z" style="fill:rgb(175,25,26);fill-rule:nonzero;"/>
                </g>
                <g transform="matrix(1,0,0,1,1149.01,390.12)">
                    <path d="M0,14.239L0,3.365L-3.19,3.365L-3.19,0L7.072,0L7.072,3.365L3.881,3.365L3.881,14.239L0,14.239Z" style="fill:rgb(175,25,26);fill-rule:nonzero;"/>
                </g>
                <g transform="matrix(1,0,0,1,1157.98,390.12)">
                    <path d="M0,14.239L0,0L8.723,0L8.723,3.122L3.783,3.122L3.783,5.592L8.443,5.592L8.443,8.647L3.783,8.647L3.783,11.049L8.723,11.049L8.723,14.239L0,14.239Z" style="fill:rgb(175,25,26);fill-rule:nonzero;"/>
                </g>
                <g transform="matrix(1,0,0,1,1169.53,390.12)">
                    <path d="M0,14.239L0,0L7.051,0L7.051,1.216L1.292,1.216L1.292,5.671L6.836,5.671L6.836,6.885L1.292,6.885L1.292,14.239L0,14.239Z" style="fill:rgb(175,25,26);fill-rule:nonzero;"/>
                </g>
                <g transform="matrix(1,0,0,1,1186,389.543)">
                    <path d="M0,15.395L-4.999,3.966L-6.079,14.842L-7.412,14.842L-5.475,0L-0.019,12.672L5.641,0L7.469,14.842L6.138,14.842L5.078,3.966L0,15.395Z" style="fill:rgb(175,25,26);fill-rule:nonzero;"/>
                </g>
                <g transform="matrix(1,0,0,1,1069.68,397.629)">
                    <path d="M0,-0.779L0.72,-0.779C1.556,-0.779 2.166,-0.922 2.552,-1.206C2.939,-1.492 3.131,-1.939 3.131,-2.55C3.131,-3.263 2.951,-3.771 2.592,-4.072C2.231,-4.374 1.627,-4.522 0.778,-4.522L0,-4.522L0,-0.779ZM-3.637,6.73L-3.637,-7.509L0.419,-7.509C2.006,-7.509 3.114,-7.435 3.74,-7.291C4.364,-7.144 4.905,-6.9 5.359,-6.558C5.871,-6.167 6.264,-5.672 6.541,-5.068C6.817,-4.465 6.953,-3.8 6.953,-3.073C6.953,-1.972 6.684,-1.076 6.142,-0.385C5.599,0.306 4.811,0.765 3.775,0.992L7.654,6.73L3.269,6.73L0,1.155L0,6.73L-3.637,6.73Z" style="fill:rgb(175,25,26);fill-rule:nonzero;"/>
                </g>
                <g transform="matrix(1,0,0,1,1082.57,395.44)">
                    <path d="M0,3.599L3.86,3.599L2.412,-1.099C2.365,-1.242 2.304,-1.472 2.228,-1.789C2.149,-2.107 2.048,-2.517 1.926,-3.016C1.842,-2.665 1.758,-2.33 1.676,-2.014C1.596,-1.695 1.514,-1.39 1.429,-1.099L0,3.599ZM-5.437,8.919L-0.525,-5.32L4.338,-5.32L9.259,8.919L5.397,8.919L4.678,6.371L-0.836,6.371L-1.575,8.919L-5.437,8.919Z" style="fill:rgb(175,25,26);fill-rule:nonzero;"/>
                </g>
                <g transform="matrix(1,0,0,1,1097.04,393.31)">
                    <path d="M0,7.859L0.652,7.859C2.175,7.859 3.288,7.545 3.988,6.921C4.689,6.296 5.039,5.3 5.039,3.94C5.039,2.579 4.689,1.579 3.988,0.943C3.288,0.308 2.175,-0.01 0.652,-0.01L0,-0.01L0,7.859ZM-3.841,11.049L-3.841,-3.19L-0.874,-3.19C1.336,-3.19 2.901,-3.085 3.817,-2.877C4.736,-2.672 5.54,-2.324 6.234,-1.838C7.136,-1.208 7.82,-0.402 8.287,0.578C8.755,1.562 8.987,2.682 8.987,3.94C8.987,5.199 8.755,6.317 8.287,7.301C7.82,8.281 7.136,9.087 6.234,9.717C5.547,10.196 4.762,10.538 3.881,10.742C2.999,10.948 1.631,11.049 -0.223,11.049L-3.841,11.049Z" style="fill:rgb(175,25,26);fill-rule:nonzero;"/>
                </g>
                <g transform="matrix(1,0,0,1,0,-285.521)">
                    <rect x="1108.55" y="675.641" width="3.92" height="14.239" style="fill:rgb(175,25,26);"/>
                </g>
                <g transform="matrix(1,0,0,1,1119.37,395.44)">
                    <path d="M0,3.599L3.862,3.599L2.412,-1.099C2.367,-1.242 2.304,-1.472 2.228,-1.789C2.149,-2.107 2.05,-2.517 1.926,-3.016C1.842,-2.665 1.758,-2.33 1.678,-2.014C1.598,-1.695 1.514,-1.39 1.43,-1.099L0,3.599ZM-5.437,8.919L-0.525,-5.32L4.338,-5.32L9.259,8.919L5.399,8.919L4.678,6.371L-0.836,6.371L-1.575,8.919L-5.437,8.919Z" style="fill:rgb(175,25,26);fill-rule:nonzero;"/>
                </g>
                <g transform="matrix(1,0,0,1,1129.99,390.12)">
                    <path d="M0,14.239L0,0L3.743,0L9.123,7.323C9.228,7.473 9.397,7.773 9.634,8.223C9.871,8.675 10.131,9.21 10.417,9.833C10.339,9.243 10.283,8.718 10.246,8.256C10.211,7.797 10.194,7.387 10.194,7.031L10.194,0L13.918,0L13.918,14.239L10.194,14.239L4.814,6.885C4.704,6.737 4.53,6.437 4.295,5.987C4.057,5.537 3.799,5.006 3.522,4.396C3.599,4.992 3.656,5.521 3.691,5.981C3.728,6.442 3.743,6.85 3.743,7.208L3.743,14.239L0,14.239Z" style="fill:rgb(175,25,26);fill-rule:nonzero;"/>
                </g>
                <g transform="matrix(1,0,0,1,1149.01,390.12)">
                    <path d="M0,14.239L0,3.365L-3.19,3.365L-3.19,0L7.072,0L7.072,3.365L3.881,3.365L3.881,14.239L0,14.239Z" style="fill:rgb(175,25,26);fill-rule:nonzero;"/>
                </g>
                <g transform="matrix(1,0,0,1,1157.98,390.12)">
                    <path d="M0,14.239L0,0L8.723,0L8.723,3.122L3.783,3.122L3.783,5.592L8.443,5.592L8.443,8.647L3.783,8.647L3.783,11.049L8.723,11.049L8.723,14.239L0,14.239Z" style="fill:rgb(175,25,26);fill-rule:nonzero;"/>
                </g>
                <g transform="matrix(1,0,0,1,1169.53,390.12)">
                    <path d="M0,14.239L0,0L7.051,0L7.051,1.216L1.292,1.216L1.292,5.671L6.836,5.671L6.836,6.885L1.292,6.885L1.292,14.239L0,14.239Z" style="fill:rgb(175,25,26);fill-rule:nonzero;"/>
                </g>
                <g transform="matrix(1,0,0,1,1186,389.543)">
                    <path d="M0,15.395L-4.999,3.966L-6.079,14.842L-7.412,14.842L-5.475,0L-0.019,12.672L5.641,0L7.469,14.842L6.138,14.842L5.078,3.966L0,15.395Z" style="fill:rgb(175,25,26);fill-rule:nonzero;"/>
                </g>
                <g transform="matrix(1,0,0,1,1046.17,397.553)">
                    <path d="M0,-1.453C-0.344,-1.198 -0.886,-1.073 -1.631,-1.073L-2.271,-1.073L-2.271,-4.403L-1.579,-4.403C-0.823,-4.403 -0.286,-4.27 0.035,-4.001C0.354,-3.735 0.515,-3.283 0.515,-2.648C0.515,-2.105 0.342,-1.708 0,-1.453M4.537,5.606L1.085,0.501C2.008,0.3 2.711,-0.108 3.192,-0.722C3.674,-1.338 3.914,-2.135 3.914,-3.115C3.914,-3.761 3.792,-4.352 3.546,-4.889C3.302,-5.425 2.951,-5.866 2.496,-6.213C2.091,-6.517 1.612,-6.735 1.055,-6.866C0.499,-6.995 -0.487,-7.059 -1.9,-7.059L-5.507,-7.059L-5.507,5.606L-2.271,5.606L-2.271,0.649L0.635,5.606L4.537,5.606Z" style="fill:rgb(175,25,26);fill-rule:nonzero;"/>
                </g>
                <g transform="matrix(1,0,0,1,1045.04,382.583)">
                    <path d="M0,29.314L0,27.898C7.302,27.898 13.239,21.956 13.239,14.658L14.658,14.658C14.658,22.738 8.081,29.314 0,29.314M0,26.366L0,24.95C2.637,24.95 5.275,23.947 7.282,21.937C9.29,19.931 10.293,17.294 10.293,14.658L11.71,14.658C11.71,17.657 10.567,20.657 8.284,22.94C6,25.224 3,26.366 0,26.366M-8.521,14.658C-8.521,9.957 -4.698,6.137 0,6.137C4.699,6.137 8.521,9.957 8.521,14.658C8.521,19.356 4.699,23.177 0,23.177C-4.698,23.177 -8.521,19.356 -8.521,14.658M-11.708,14.658C-11.708,11.658 -10.567,8.658 -8.284,6.374C-5.999,4.089 -3,2.948 0,2.948L0,4.363C-2.637,4.363 -5.273,5.366 -7.281,7.376C-9.289,9.382 -10.292,12.021 -10.292,14.658L-11.708,14.658ZM-14.656,14.658C-14.656,6.575 -8.082,-0.001 0,-0.001L0,1.417C-7.3,1.417 -13.24,7.356 -13.24,14.658L-14.656,14.658ZM0,-1.416C-8.863,-1.416 -16.072,5.795 -16.072,14.658C-16.072,23.519 -8.863,30.73 0,30.73C8.863,30.73 16.074,23.519 16.074,14.658C16.074,5.795 8.863,-1.416 0,-1.416" style="fill:rgb(175,25,26);fill-rule:nonzero;"/>
                </g>
                <g transform="matrix(1,0,0,1,1046.17,397.553)">
                    <path d="M0,-1.453C-0.344,-1.198 -0.886,-1.073 -1.631,-1.073L-2.271,-1.073L-2.271,-4.403L-1.579,-4.403C-0.823,-4.403 -0.286,-4.27 0.035,-4.001C0.354,-3.735 0.515,-3.283 0.515,-2.648C0.515,-2.105 0.342,-1.708 0,-1.453M4.537,5.606L1.085,0.501C2.008,0.3 2.711,-0.108 3.192,-0.722C3.674,-1.338 3.914,-2.135 3.914,-3.115C3.914,-3.761 3.792,-4.352 3.546,-4.889C3.302,-5.425 2.951,-5.866 2.496,-6.213C2.091,-6.517 1.612,-6.735 1.055,-6.866C0.499,-6.995 -0.487,-7.059 -1.9,-7.059L-5.507,-7.059L-5.507,5.606L-2.271,5.606L-2.271,0.649L0.635,5.606L4.537,5.606Z" style="fill:rgb(175,25,26);fill-rule:nonzero;"/>
                </g>
                <g transform="matrix(1,0,0,1,1045.04,382.583)">
                    <path d="M0,29.314L0,27.898C7.302,27.898 13.239,21.956 13.239,14.658L14.658,14.658C14.658,22.738 8.081,29.314 0,29.314M0,26.366L0,24.95C2.637,24.95 5.275,23.947 7.282,21.937C9.29,19.931 10.293,17.294 10.293,14.658L11.71,14.658C11.71,17.657 10.567,20.657 8.284,22.94C6,25.224 3,26.366 0,26.366M-8.521,14.658C-8.521,9.957 -4.698,6.137 0,6.137C4.699,6.137 8.521,9.957 8.521,14.658C8.521,19.356 4.699,23.177 0,23.177C-4.698,23.177 -8.521,19.356 -8.521,14.658M-11.708,14.658C-11.708,11.658 -10.567,8.658 -8.284,6.374C-5.999,4.089 -3,2.948 0,2.948L0,4.363C-2.637,4.363 -5.273,5.366 -7.281,7.376C-9.289,9.382 -10.292,12.021 -10.292,14.658L-11.708,14.658ZM-14.656,14.658C-14.656,6.575 -8.082,-0.001 0,-0.001L0,1.417C-7.3,1.417 -13.24,7.356 -13.24,14.658L-14.656,14.658ZM0,-1.416C-8.863,-1.416 -16.072,5.795 -16.072,14.658C-16.072,23.519 -8.863,30.73 0,30.73C8.863,30.73 16.074,23.519 16.074,14.658C16.074,5.795 8.863,-1.416 0,-1.416" style="fill:rgb(175,25,26);fill-rule:nonzero;"/>
                </g>
            </g>
        </g>
    </g>
</svg>
