<?xml version="1.0" encoding="UTF-8" standalone="no"?>
<!DOCTYPE svg PUBLIC "-//W3C//DTD SVG 1.1//EN" "http://www.w3.org/Graphics/SVG/1.1/DTD/svg11.dtd">
<svg width="100%" height="100%" viewBox="0 0 356 99" version="1.1" xmlns="http://www.w3.org/2000/svg" xmlns:xlink="http://www.w3.org/1999/xlink" xml:space="preserve" xmlns:serif="http://www.serif.com/" style="fill-rule:evenodd;clip-rule:evenodd;stroke-linejoin:round;stroke-miterlimit:2;">
    <g transform="matrix(1,0,0,1,-987,0)">
        <g id="Artboard1" transform="matrix(1.38687,0,0,0.58673,153.397,169.562)">
            <rect x="601.736" y="-288.994" width="255.766" height="167.5" style="fill:none;"/>
            <g id="tendencia" transform="matrix(0.297031,0,0,0.702103,609.416,-276.526)">
                <g transform="matrix(1,0,0,1,57.9841,126.77)">
                    <path d="M0,-46.214L-17.951,-46.214L-17.951,-57.99L29.628,-57.99L29.628,-46.214L11.776,-46.214L11.776,11.776L0,11.776L0,-46.214Z" style="fill:rgb(5,38,62);fill-rule:nonzero;"/>
                </g>
                <g transform="matrix(1,0,0,1,121.615,138.546)">
                    <path d="M0,-69.766L43.483,-69.766L43.483,-57.99L11.776,-57.99L11.776,-40.771L39.861,-40.771L39.861,-28.995L11.776,-28.995L11.776,-11.776L43.483,-11.776L43.483,0L0,0L0,-69.766Z" style="fill:rgb(5,38,62);fill-rule:nonzero;"/>
                </g>
                <g transform="matrix(1,0,0,1,213.35,111.806)">
                    <path d="M0,-16.11L0,26.739L-11.776,26.739L-11.776,-44.848L30.163,0.001L30.163,-43.027L41.939,-43.027L41.939,28.738L0,-16.11Z" style="fill:rgb(5,38,62);fill-rule:nonzero;"/>
                </g>
                <g transform="matrix(1,0,0,1,314.288,80.5554)">
                    <path d="M0,46.214C12.964,46.214 23.117,35.982 23.117,23.097C23.117,10.331 12.964,0 0,0L-8.51,0L-8.51,46.214L0,46.214ZM-20.287,-11.776L0,-11.776C19.297,-11.776 34.893,3.8 34.893,23.097C34.893,42.414 19.297,57.99 0,57.99L-20.287,57.99L-20.287,-11.776Z" style="fill:rgb(5,38,62);fill-rule:nonzero;"/>
                </g>
                <g transform="matrix(1,0,0,1,385.538,138.546)">
                    <path d="M0,-69.766L43.483,-69.766L43.483,-57.99L11.776,-57.99L11.776,-40.771L39.861,-40.771L39.861,-28.995L11.776,-28.995L11.776,-11.776L43.483,-11.776L43.483,0L0,0L0,-69.766Z" style="fill:rgb(5,38,62);fill-rule:nonzero;"/>
                </g>
                <g transform="matrix(1,0,0,1,477.253,111.806)">
                    <path d="M0,-16.11L0,26.739L-11.776,26.739L-11.776,-44.848L30.163,0.001L30.163,-43.027L41.939,-43.027L41.939,28.738L0,-16.11Z" style="fill:rgb(5,38,62);fill-rule:nonzero;"/>
                </g>
                <g transform="matrix(1,0,0,1,555.56,103.752)">
                    <path d="M0,-0.179C0,-20.208 16.209,-35.883 36.239,-35.883C42.117,-35.883 47.283,-34.518 52.448,-31.806L52.448,-17.22C47.283,-21.831 42.572,-23.929 36.061,-23.929C22.642,-23.929 11.954,-13.499 11.954,-0.1C11.954,13.141 22.365,23.729 35.962,23.729C42.948,23.729 47.481,21.572 52.448,16.941L52.448,31.626C47.283,34.338 42.117,35.704 36.239,35.704C16.031,35.704 0,19.751 0,-0.179" style="fill:rgb(5,38,62);fill-rule:nonzero;"/>
                </g>
                <g transform="matrix(1,0,0,1,0,-1.636)">
                    <rect x="644.741" y="70.415" width="11.776" height="69.766" style="fill:rgb(5,38,62);"/>
                </g>
                <g transform="matrix(1,0,0,1,720.524,138.546)">
                    <path d="M0,-71.587C-10.569,-47.725 -21.138,-23.863 -31.706,0L-18.386,0C-12.258,-14.983 -6.129,-29.965 0,-44.948C6.129,-29.965 12.258,-14.983 18.386,0L31.706,0C21.138,-23.863 10.569,-47.725 0,-71.587" style="fill:rgb(5,38,62);fill-rule:nonzero;"/>
                </g>
                <g transform="matrix(1,0,0,1,754.775,84.6142)">
                    <path d="M0,-20.477C1.539,-21.562 3.267,-22.105 5.183,-22.105C8.018,-22.105 10.288,-21.108 11.994,-19.104C13.699,-17.11 14.552,-14.729 14.552,-11.983C14.552,-9.901 14.153,-8.029 13.367,-6.368C12.57,-4.696 11.473,-3.267 10.056,-2.06C8.638,-0.853 6.977,0.067 5.061,0.687C3.145,1.318 1.185,1.628 -0.808,1.628L-0.808,0.377C2.104,-0.199 4.375,-1.141 5.991,-2.436C7.619,-3.721 8.428,-5.703 8.428,-8.361C8.428,-9.114 8.35,-9.801 8.184,-10.421C8.018,-11.052 7.852,-11.573 7.675,-11.983C6.933,-11.407 6.102,-11.008 5.183,-10.798C4.264,-10.587 3.477,-10.488 2.813,-10.488C1.141,-10.488 -0.122,-11.052 -0.997,-12.171C-1.872,-13.301 -2.315,-14.486 -2.315,-15.737C-2.315,-17.819 -1.539,-19.403 0,-20.477" style="fill:rgb(209,184,136);fill-rule:nonzero;"/>
                </g>
            </g>
        </g>
    </g>
</svg>
