<?xml version="1.0" encoding="UTF-8" standalone="no"?>
<!DOCTYPE svg PUBLIC "-//W3C//DTD SVG 1.1//EN" "http://www.w3.org/Graphics/SVG/1.1/DTD/svg11.dtd">
<svg width="100%" height="100%" viewBox="0 0 282 99" version="1.1" xmlns="http://www.w3.org/2000/svg" xmlns:xlink="http://www.w3.org/1999/xlink" xml:space="preserve" xmlns:serif="http://www.serif.com/" style="fill-rule:evenodd;clip-rule:evenodd;stroke-linejoin:round;stroke-miterlimit:2;">
    <g transform="matrix(1,0,0,1,-691,0)">
        <g id="Artboard1" transform="matrix(1.09869,0,0,0.58673,30.2482,169.562)">
            <rect x="601.736" y="-288.994" width="255.766" height="167.5" style="fill:none;"/>
            <g id="tribuna" transform="matrix(0.910173,0,0,1.70436,-547.251,-882.284)">
                <g transform="matrix(1,0,0,1,1304.88,404.396)">
                    <path d="M0,-15.399L-9.187,-15.399L-9.187,-23.229L19.113,-23.229L19.113,-15.399L9.926,-15.399L9.926,7.83L0,7.83L0,-15.399Z" style="fill:rgb(15,24,32);fill-rule:nonzero;"/>
                </g>
                <g transform="matrix(1,0,0,1,1336.21,398.567)">
                    <path d="M0,-3.741L7.04,-3.741C8.976,-3.741 9.786,-4.698 9.786,-6.655C9.786,-9.004 8.554,-9.57 6.899,-9.57L0,-9.57L0,-3.741ZM-9.926,-17.4L10.983,-17.4C13.834,-17.4 15.558,-17.096 16.931,-16.269C18.797,-15.138 20.346,-12.137 20.346,-8.744C20.346,-5.829 19.36,-2.697 16.474,-1.653L16.474,-1.566C17.952,-1.044 19.149,0.522 19.325,3.219L19.747,10.005C19.853,11.397 20.346,12.702 20.979,13.659L10.138,13.659C9.786,12.745 9.786,11.397 9.61,7.786C9.504,5.481 8.871,4.089 7.04,4.089L0,4.089L0,13.659L-9.926,13.659L-9.926,-17.4Z" style="fill:rgb(15,24,32);fill-rule:nonzero;"/>
                </g>
                <g transform="matrix(1,0,0,1,0,-286.607)">
                    <rect x="1360.26" y="667.774" width="9.926" height="31.059" style="fill:rgb(15,24,32);"/>
                </g>
                <g transform="matrix(1,0,0,1,1384.86,388.736)">
                    <path d="M0,15.921L8.483,15.921C10.454,15.921 11.053,14.877 11.053,13.485C11.053,12.137 10.454,11.049 8.483,11.049L0,11.049L0,15.921ZM0,4.002L7.498,4.002C9.504,4.002 9.962,3.176 9.962,1.957C9.962,0.827 9.504,-0 7.498,-0L0,-0L0,4.002ZM-9.715,-7.569L12.883,-7.569C18.022,-7.569 20.31,-4.785 20.31,0.174C20.31,2.914 19.219,5.307 17.318,6.221L17.318,6.307C20.557,7.352 21.613,11.092 21.613,13.398C21.613,19.488 19.149,23.49 11.792,23.49L-9.715,23.49L-9.715,-7.569Z" style="fill:rgb(255,144,20);fill-rule:nonzero;"/>
                </g>
                <g transform="matrix(1,0,0,1,1409.82,413.313)">
                    <path d="M0,-32.146L9.926,-32.146L9.926,-13.354C9.926,-9.352 11.792,-8.09 15.03,-8.09C18.269,-8.09 20.134,-9.352 20.134,-13.354L20.134,-32.146L30.061,-32.146L30.061,-12.876C30.061,-3.001 25.238,0 15.03,0C4.822,0 0,-3.001 0,-12.876L0,-32.146Z" style="fill:rgb(15,24,32);fill-rule:nonzero;"/>
                </g>
                <g transform="matrix(1,0,0,1,1444.22,412.226)">
                    <path d="M0,-31.059L11.335,-31.059L21.401,-13.833L21.507,-13.833L21.507,-31.059L31.011,-31.059L31.011,0L20.135,0L9.574,-17.4L9.504,-17.4L9.504,0L0,0L0,-31.059Z" style="fill:rgb(15,24,32);fill-rule:nonzero;"/>
                </g>
                <g transform="matrix(1,0,0,1,1493.33,402.83)">
                    <path d="M0,-12.267L-0.07,-12.267L-3.027,-1.74L2.957,-1.74L0,-12.267ZM-6.125,-21.663L6.054,-21.663L16.755,9.396L6.195,9.396L5.139,5.829L-5.21,5.829L-6.266,9.396L-16.826,9.396L-6.125,-21.663Z" style="fill:rgb(15,24,32);fill-rule:nonzero;"/>
                </g>
            </g>
        </g>
    </g>
</svg>
