<?xml version="1.0" encoding="UTF-8" standalone="no"?>
<!DOCTYPE svg PUBLIC "-//W3C//DTD SVG 1.1//EN" "http://www.w3.org/Graphics/SVG/1.1/DTD/svg11.dtd">
<svg width="100%" height="100%" viewBox="0 0 195 99" version="1.1" xmlns="http://www.w3.org/2000/svg" xmlns:xlink="http://www.w3.org/1999/xlink" xml:space="preserve" xmlns:serif="http://www.serif.com/" style="fill-rule:evenodd;clip-rule:evenodd;stroke-linejoin:round;stroke-miterlimit:2;">
    <g transform="matrix(1,0,0,1,-213,0)">
        <g id="Artboard1" transform="matrix(0.756827,0,0,0.58673,-241.957,169.562)">
            <rect x="601.736" y="-288.994" width="255.766" height="167.5" style="fill:none;"/>
            <g id="tvmar" transform="matrix(1.32131,0,0,1.70436,-408.318,-882.284)">
                <g transform="matrix(1,0,0,1,815.604,405.502)">
                    <path d="M0,-8.228C3.543,-7.214 6.141,-3.956 6.141,-0.086C6.141,2.27 5.179,4.401 3.627,5.937L11.128,5.937L11.128,-14.079C10.679,-14.136 10.221,-14.165 9.755,-14.165C5.509,-14.165 1.828,-11.754 0,-8.228" style="fill:rgb(236,109,38);fill-rule:nonzero;"/>
                </g>
                <g transform="matrix(1,0,0,1,814.375,406.057)">
                    <path d="M0,-3.735C0,-5.556 0.446,-7.27 1.23,-8.782C0.487,-8.995 -0.295,-9.117 -1.105,-9.117C-4.917,-9.117 -8.14,-6.6 -9.206,-3.138C-7.309,-2.187 -6.006,-0.231 -6.006,2.033C-6.006,3.28 -6.399,4.435 -7.07,5.38L-7.07,5.381L-1.911,5.382L4.856,5.382C1.927,3.409 0,0.062 0,-3.735" style="fill:rgb(249,181,29);fill-rule:nonzero;"/>
                </g>
                <g transform="matrix(0.968735,-0.248099,-0.248099,-0.968735,820.952,410.927)">
                    <path d="M-1.794,-0.069C0.091,1.034 1.551,2.861 2.135,5.143C3.095,8.891 1.388,12.691 -1.794,14.554C-2.928,13.284 -3.784,11.733 -4.236,9.968C-5.178,6.289 -4.143,2.569 -1.794,-0.069" style="fill:rgb(237,122,67);fill-rule:nonzero;"/>
                </g>
                <g transform="matrix(1,0,0,1,804.794,408.327)">
                    <path d="M0,-2.911C0,-3.781 0.132,-4.618 0.375,-5.409C-0.405,-5.8 -1.282,-6.024 -2.213,-6.024C-3.687,-6.024 -5.034,-5.474 -6.055,-4.566L-6.073,-4.551L-6.055,3.113L2.509,3.113L2.51,3.11C0.96,1.574 0,-0.556 0,-2.911" style="fill:rgb(6,148,168);fill-rule:nonzero;"/>
                </g>
                <g transform="matrix(0.970002,-0.243098,-0.243098,-0.970002,808.319,411.133)">
                    <path d="M-1.057,-0.048C-0.177,0.706 0.486,1.73 0.789,2.939C1.34,5.137 0.551,7.351 -1.057,8.735C-1.486,8.029 -1.817,7.246 -2.028,6.403C-2.6,4.119 -2.187,1.82 -1.057,-0.048" style="fill:rgb(254,197,49);fill-rule:nonzero;"/>
                </g>
                <g transform="matrix(1,0,0,1,855.871,399.804)">
                    <path d="M0,-5.128L-8.259,3.227L-9.399,3.227L-17.706,-5.128L-17.706,11.678L-23.451,11.678L-23.451,-16.806L-21.884,-16.806L-8.924,-4.036L4.178,-16.806L5.697,-16.806L5.697,11.678L0,11.678L0,-5.128Z" style="fill:rgb(0,58,71);fill-rule:nonzero;"/>
                </g>
                <g transform="matrix(1,0,0,1,879.14,411.482)">
                    <path d="M0,-28.483L0.997,-28.483L15.666,0L9.163,0L7.309,-3.893L-6.314,-3.893L-8.118,0L-14.621,0L0,-28.483ZM0.665,-18.087L0.284,-18.087L-4.035,-8.783L-4.368,-8.165L5.317,-8.165L4.984,-8.783L0.665,-18.087Z" style="fill:rgb(0,58,71);fill-rule:nonzero;"/>
                </g>
                <g transform="matrix(1,0,0,1,897.753,411.482)">
                    <path d="M0,-28.483L12.866,-28.483C20.081,-28.483 24.544,-24.923 24.544,-18.704C24.544,-14.479 22.454,-11.583 19.179,-10.016L19.179,-9.589L25.968,-0.569L25.968,0L19.464,0L13.151,-8.688L5.745,-8.688L5.745,0L0,0L0,-28.483ZM12.676,-23.451L5.745,-23.451L5.745,-13.53L12.817,-13.53C16.426,-13.53 18.609,-15.142 18.609,-18.467C18.609,-21.743 16.378,-23.451 12.676,-23.451" style="fill:rgb(0,58,71);fill-rule:nonzero;"/>
                </g>
                <g transform="matrix(1,0,0,1,801.8,393)">
                    <path d="M0,-7.134L6.087,-7.134L6.087,-5.873L3.768,-5.873L3.768,0L2.33,0L2.33,-5.873L0,-5.873L0,-7.134Z" style="fill:rgb(0,58,71);fill-rule:nonzero;"/>
                </g>
                <g transform="matrix(1,0,0,1,812.861,388.449)">
                    <path d="M0,1.971L0.119,1.971L0.702,0.617L2.224,-2.581L3.852,-2.581L0.178,4.552L-0.083,4.552L-3.733,-2.581L-2.116,-2.581L-0.582,0.617L0,1.971Z" style="fill:rgb(0,58,71);fill-rule:nonzero;"/>
                </g>
            </g>
        </g>
    </g>
</svg>
