<svg enable-background="new 0 0 313 60" viewBox="0 0 313 60" xmlns="http://www.w3.org/2000/svg"><g fill="#011e41"><path d="m81.2 17.3h8.3c3.3 0 6.3 1.5 6.3 5.7s-2.5 6-6.3 6h-3.8v5.8h-4.6zm4.5 8.2h3.1c1.4 0 2.5-.6 2.5-2.2.1-1.2-.9-2.3-2.1-2.3-.1 0-.3 0-.4 0h-3.1z"/><path d="m112 27.6c0 5.1-2.3 7.6-7.6 7.6s-7.6-2.5-7.6-7.6v-10.3h4.6v10.6c0 2.3.8 3.4 3.1 3.4s3.1-1.2 3.1-3.4v-10.6h4.6v10.3z"/><path d="m113.9 17.3h8.9c3.1 0 6.1 1.4 6.1 4.9.1 1.9-1 3.7-2.8 4.4 1.9.4 2.4 2.5 2.6 4.2 0 .7.1 3.3.7 4h-4.4c-.4-.9-.5-1.8-.5-2.8-.1-1.8-.4-3.6-2.6-3.6h-3.5v6.4h-4.6zm4.6 7.6h3.8c1 .1 2-.6 2.1-1.6 0-.2 0-.3 0-.5 0-1.3-1-1.9-2.3-1.9h-3.6z"/><path d="m130.5 17.3h14v3.7h-9.4v3.1h8.6v3.5h-8.6v3.3h9.7v3.9h-14.2v-17.5z"/><path d="m152.7 17.3h4.6v13.6h8.2v3.9h-12.8z"/><path d="m174.6 17c5.5 0 8.7 4.1 8.7 9.1s-3.1 9.1-8.7 9.1-8.7-4.1-8.7-9.1 3.2-9.1 8.7-9.1zm0 14.3c2.9 0 4.1-2.6 4.1-5.2s-1.1-5.2-4.1-5.2-4.1 2.6-4.1 5.2 1.1 5.2 4.1 5.2z"/><path d="m193.5 28.3v6.5h-4.6v-6.5l-6.4-11h5.2l3.5 7.1 3.5-7.1h5.2z"/><path d="m202.8 17.3h4.6l6.6 17.5h-4.8l-1.1-3.1h-6.1l-1.1 3.1h-4.7zm.2 11h4l-1.9-6.1h-.1z"/><path d="m214.1 17.3h4.6v13.6h8.2v3.9h-12.8z"/><path d="m238.7 21.3h-5.2v13.6h-4.6v-13.6h-5.2v-3.9h15z"/><path d="m248.5 28.3v6.5h-4.6v-6.5l-6.4-11h5.2l3.5 7.1 3.5-7.1h5.2z"/><path d="m8.1 17.4h10.1c1.4-.1 2.8.4 3.9 1.3.9.8 1.4 1.9 1.4 3.1 0 1-.3 2-1 2.7-.5.6-1.2 1-1.9 1.2 1.1.2 2.1.7 2.8 1.6.6.8.9 1.8.9 2.8 0 .8-.2 1.7-.6 2.4s-1 1.3-1.7 1.7c-.6.4-1.4.6-2.1.6-.8.1-1.6.2-2.4.2h-9.4zm5.5 6.8h2.4c.6.1 1.3-.1 1.8-.4.3-.3.5-.8.5-1.3s-.2-.9-.5-1.2c-.5-.3-1.1-.5-1.7-.4h-2.4zm0 6.9h2.8c.7 0 1.4-.1 2-.5.4-.3.6-.8.6-1.3s-.2-.9-.6-1.2c-.6-.4-1.3-.6-2-.5h-2.8z"/></g><g fill="#8ab7e9"><path d="m24.7 17.4h5.4v13.2h8.4v4.3h-13.8z"/><path d="m49.9 17.4h5.4v10.4c0 1-.2 2-.5 2.9s-.8 1.7-1.5 2.4c-.6.7-1.4 1.2-2.2 1.5-1.2.4-2.5.6-3.8.6-.9 0-1.8-.1-2.8-.2-.9-.1-1.7-.3-2.5-.7-.7-.4-1.3-.9-1.9-1.5-.5-.6-.9-1.3-1.2-2-.3-1-.5-2-.5-3v-10.4h5.4v10.7c0 .8.2 1.6.8 2.2 1.3 1.1 3.1 1.1 4.4 0 .6-.6.8-1.5.8-2.3 0 0 .1-10.6.1-10.6z"/><path d="m62 27.4c.2 1.9 1.3 3.3 3.3 3.3 1 .1 2.1-.4 2.7-1.2h6.1c-1.3 3.7-4.9 5.4-8.8 5.4-5.5 0-9.6-3.2-9.6-8.9-.1-4.8 3.7-8.9 8.5-9h.6c6.8 0 9.8 3.8 9.8 10.4zm6.3-3.4c0-1.6-1.2-2.9-2.8-2.9h-.1c-1.7-.2-3.2 1.1-3.4 2.8v.1z"/></g><path d="m259.7 19.3c0 1.1-.9 2-2 2s-2.1-.9-2.1-2 .9-2 2-2h.1c1.1 0 2 .9 2 2zm-3.5 0c0 .9.7 1.6 1.6 1.6.8 0 1.5-.7 1.5-1.5v-.1c0-.9-.6-1.6-1.5-1.6s-1.6.7-1.6 1.6zm1.2 1.1h-.5v-2c.2 0 .4-.1.8-.1.2 0 .5.1.7.2.1.1.2.2.2.4s-.2.4-.4.5c.2.1.4.3.4.5.1.2.1.3.1.5h-.5c-.1-.1-.1-.2-.2-.5s-.2-.3-.4-.3h-.2zm0-1.1h.2c.3 0 .5-.1.5-.3s-.1-.3-.4-.3h-.3z" fill="#011e41"/><path d="m285.7 5.2c-11.4 0-20.7 9.3-20.7 20.7s9.3 20.7 20.7 20.7 20.7-9.3 20.7-20.7-9.3-20.7-20.7-20.7m0 39.7c-10.5 0-19-8.5-19-19s8.5-19 19-19 19 8.5 19 19-8.5 19-19 19" fill="#011e41"/><path d="m285.7 6.8c-10.5 0-19 8.5-19 19s8.5 19 19 19 19-8.5 19-19-8.5-19-19-19m0 37.1c-9.9 0-18-8.1-18-18s8.1-18 18-18 18 8.1 18 18-8.1 18-18 18" fill="#8ab7e9"/><path d="m285.7 7.9c-9.9 0-18 8.1-18 18s8.1 18 18 18 18-8.1 18-18-8.1-18-18-18" fill="#011e41"/><path d="m282.8 31.4h3.8c1.5 0 2.5-.5 2.5-2s-1.1-2.1-2.5-2.1h-3.8zm0-7.2h3.7c1 .1 1.8-.6 1.9-1.6s-.6-1.8-1.6-1.9c-.1 0-.3 0-.4 0h-3.7v3.5zm-4.8-7.1h8.5c3.1 0 6.6.8 6.6 4.5-.1 1.6-1 3-2.4 3.7 1.9.6 3.2 2.3 3.1 4.3 0 4.3-3.2 5.6-7.1 5.6h-8.7z" fill="#fff"/><path d="m306 42.1c0 1-.8 1.8-1.8 1.8s-1.8-.8-1.8-1.8.8-1.8 1.8-1.8 1.8.8 1.8 1.8zm-3.2 0c0 .8.6 1.4 1.4 1.4s1.4-.6 1.4-1.4-.6-1.4-1.4-1.4-1.4.6-1.4 1.4zm1.1.9h-.4v-1.8c.2 0 .4-.1.7-.1.2 0 .4 0 .6.1.1.1.2.2.2.4s-.2.4-.4.4c.2.1.3.2.3.4.1.1.1.3.1.4h-.4c-.1-.1-.1-.2-.1-.4s-.1-.3-.4-.3h-.2zm.1-1h.2c.2 0 .4-.1.4-.3s-.1-.3-.4-.3h-.2z" fill="#011e41"/></svg>