<svg fill="none" height="33" viewBox="0 0 33 33" width="33" xmlns="http://www.w3.org/2000/svg"><path d="m32.2528 15.2726-30.21397-15.127361c-.23681-.1185892-.5028-.1661055-.76595-.13682694-.26316.02927854-.512246.13410394-.717282.30185294-.195809.164329-.341959.380092-.422022.623034-.0800631.242941-.090864.503431-.031188.752181l4.065152 14.81112-4.1200869 14.7698c-.05599696.2077-.0625335.4257-.019084.6365.0434496.2107.1356729.4083.2692549.5768.133581.1685.304793.3033.499869.3936.195076.0902.408577.1333.623327.1259.21499-.0013.42667-.0531.61801-.1513l30.21397-15.1274c.225-.1154.4138-.2907.5456-.5067.1318-.2159.2016-.4641.2016-.7172s-.0698-.5013-.2016-.7173c-.1318-.2159-.3206-.3913-.5456-.5067zm-28.70327 13.7522 3.03514-11.153h12.68983v-2.7504h-12.68983l-3.03514-11.15306 25.00897 12.52826z" fill="#fff"/></svg>