<svg viewBox="0 0 338 152.5" xmlns="http://www.w3.org/2000/svg"><g fill="#fff"><path d="m78.5 90.1h-39.3c2.5 3 5.7 5.4 9.2 7 3.3 1.5 6.8 2.2 10.5 2.2 7.5 0 14.7-3.4 19.6-9.2z"/><path d="m95.8 83.4c-.9 1-1.8 2-2.7 3s-1.9 1.9-2.9 2.8c-.3.3-.7.6-1 .8-6.4 5.2-18.5 10.4-29.4 10.4-3.5 0-6.6-.5-9.3-1.6 6.9 5.8 14.5 8.5 23.2 8.5 6.6 0 13.1-1.8 18.7-5.2l.1-.1c.3-.2 1.2-.8 1.5-1 1.3-.9 2.6-1.9 3.8-3 2.7-2.4 4.9-5.2 6.8-8.2.2-.3.3-.5.5-.8 2.4-4.3 3.9-8.9 4.4-13.7-4.8.6-9.2 3-12.4 6.6-.6.5-1 1-1.3 1.5z"/><path d="m102.6 72.3h-1c-5.5.2-11.1 2.1-17.5 6-.8.5-1.6 1-2.4 1.5-.5.3-1 .7-1.5 1-1.3.9-2.8 1.9-4.3 2.7-2.3 1.2-5 2.2-8.2 3-2.6.7-5.3 1-8 1.1h-2.3c-1.1-.1-2.2-.2-3.2-.4-4.5-1-8.5-3.5-11.4-7-2.9-3.6-4.6-8.2-4.6-12.9v-.1c0-.8 0-1.6.1-2.3.2-1.1.9-2 1.9-2.4.7-.2 1.5-.2 2.2 0 .2.1.4.2.6.3s.4.2.6.3c.4.2.8.3 1.1.4l1.5.6c.8.3 1.6.6 2.4.6.3 0 .6 0 .9-.1 1.1-.3 1.8-.8 2.7-1.8l2.4-2.8c-.3.1-.9.1-1.6.1-1.2 0-2.4-.2-3.5-.6l-5.7-2s-.3-.1-.7-.1c-.5 0-1.3.2-2 .9l-2 2.1-.1-.2 1.2-2.6c.8-1.6-.2-2.8-.2-2.8l-3.9-4.6c-1.6-1.7-2.1-3.8-2.2-4.6l-1.8 3.2c-.6 1.2-.9 2-.8 3.1.1 1.2.7 2 1.6 2.9.3.4.7.8 1 1.1s.6.6.9 1c.8 1 1.6 1.9 1.7 3.2 0 .6-.4 1.6-.5 1.8-1.9 3.6-2.8 7.6-2.8 11.7 0 5.6 1.8 10.9 5.1 15.3h50.3c2.6-2.1 5-4.6 7.1-7.2v-.1c1-1.2 2.1-2.3 3.4-3.2 3-2.3 6.6-3.8 10.3-4.2 0-.4.1-.8.1-1.2-2.2-.5-4.5-.7-6.9-.7z"/><path d="m318.2 119.6h-298.4v-79.4h132.8v1.9h-130.5v75.5h293.9v-75.5h-36.8v-1.9h39z"/><path d="m243.7 105.1-2.5-1.6c-.8 1.3-2.6 2.2-4.3 2.4l-7.1-16.3h-.2l-10.2 23.4h4.4l1.8-4.4.2-.4c1.8-1.1 4.5-1.4 6.2-.4.3.2.7.4 1 .5l.1.3 1.7 4.4h5.1l-1.9-4.3c2.4-.5 4.5-1.7 5.7-3.6zm-16.3-.7 2.1-5 2 5.1c-1.3-.3-2.7-.3-4.1-.1z"/><path d="m212 112.8c-1.2.5-2.6.7-4 .7-2.3 0-4.3-.5-6-1.5s-3-2.3-3.9-4-1.4-3.6-1.4-5.6c0-2.2.4-4.2 1.4-6 .9-1.7 2.2-3.1 3.8-4.1s3.5-1.5 5.6-1.5c1.3 0 2.6.2 3.7.5 1.1.4 2.1.8 3 1.4l-1.7 4.1c-1.6-1.2-3.2-1.8-4.9-1.8-1.1 0-2.2.3-3.2.9s-1.8 1.5-2.3 2.5-.9 2.3-.9 3.6c0 1.4.3 2.7.8 3.7s1.3 1.9 2.3 2.5 2.2.9 3.5.9c1.1 0 2.1-.2 2.9-.5.9-.3 1.5-.8 2-1.2l1.8 3.9c-.4.5-1.2 1-2.5 1.5z"/><path d="m260.6 103.7c.7.9 1 1.9 1 3 0 2.2-.7 3.9-2.2 4.9-1.5 1.1-3.3 1.6-5.5 1.6h-7.4v-22.1h6.5c2.3 0 4.2.5 5.5 1.4 1.3 1 2 2.3 2 4.1 0 1.1-.2 2.1-.7 2.9s-1.1 1.5-2 2c1.3.6 2.2 1.3 2.8 2.2zm-9.7-3.6h2.6c.8 0 1.4-.2 1.9-.7s.7-1.1.7-1.8-.2-1.3-.8-1.7c-.5-.4-1.2-.6-2.1-.6h-2.3zm5.2 8.4c.6-.4.9-1 .9-1.9 0-1.6-1.2-2.3-3.7-2.3h-2.5v4.8h2.8c1.1 0 2-.2 2.5-.6z"/><path d="m269.4 96.6c1-1.7 2.4-3.1 4.1-4.2 1.7-1 3.6-1.5 5.6-1.5s3.9.5 5.6 1.5 3.1 2.4 4.2 4.2c1 1.7 1.5 3.6 1.5 5.6s-.5 3.9-1.5 5.7c-1 1.7-2.4 3.1-4.2 4.1s-3.6 1.5-5.6 1.5-3.9-.5-5.7-1.5-3.1-2.4-4.1-4.1-1.5-3.6-1.5-5.7c.1-2.1.6-3.9 1.6-5.6zm4 9.1c.6 1.1 1.4 1.9 2.5 2.6s2.2.9 3.5.9 2.4-.3 3.4-.9 1.8-1.5 2.4-2.6.9-2.3.9-3.6-.3-2.5-.9-3.6-1.4-1.9-2.4-2.6c-1-.6-2.2-.9-3.4-.9s-2.4.3-3.4.9-1.9 1.5-2.4 2.6c-.6 1.1-.9 2.3-.9 3.6-.3 1.4 0 2.6.7 3.6z"/><path d="m305 94.8c-1 0-1.7.2-2.2.6s-.8 1-.8 1.7.4 1.3 1.2 1.9c.8.5 1.8 1 3.1 1.5 1 .4 1.9.8 2.7 1.3.7.5 1.4 1.2 1.9 2 .5.9.7 2 .7 3.3 0 1.1-.3 2.2-.9 3.2s-1.5 1.7-2.6 2.3-2.5.9-4.1.9c-1.3 0-2.6-.2-3.9-.6s-2.5-1-3.6-1.8l1.9-3.4c.8.6 1.6 1 2.6 1.4s1.9.5 2.6.5c.9 0 1.7-.2 2.4-.6s1-1 1-1.9c0-1.1-1.1-2.1-3.2-3-1.3-.5-2.3-1-3.2-1.4-.8-.5-1.6-1.1-2.2-2s-.9-1.9-.9-3.2c0-1.9.6-3.4 1.9-4.6s2.9-1.8 5-1.9c1.6 0 3 .2 4.1.6s2.2.9 3.2 1.6l-1.7 3.2c-1.9-1-3.6-1.6-5-1.6z"/><path d="m124.4 90.8v18.4h10.6v4.3h-15.1v-22.7z"/><path d="m139.2 96.4c1-1.8 2.4-3.2 4.2-4.3s3.7-1.6 5.8-1.6 4 .5 5.8 1.6 3.2 2.5 4.3 4.3 1.6 3.7 1.6 5.8-.5 4-1.6 5.8-2.5 3.2-4.3 4.2-3.7 1.6-5.8 1.6-4-.5-5.8-1.6c-1.8-1-3.2-2.4-4.2-4.2s-1.6-3.7-1.6-5.8c.1-2.1.6-4 1.6-5.8zm4 9.4c.6 1.1 1.5 2 2.6 2.6 1.1.7 2.3 1 3.6 1s2.4-.3 3.5-1 1.9-1.5 2.5-2.6.9-2.3.9-3.6-.3-2.6-.9-3.7-1.5-2-2.5-2.6-2.2-1-3.5-1-2.5.3-3.5 1c-1.1.7-1.9 1.5-2.5 2.6s-.9 2.3-.9 3.7c-.2 1.3.1 2.5.7 3.6z"/><path d="m172.2 94.6c-1 0-1.7.2-2.3.6s-.8 1-.8 1.7.4 1.3 1.2 1.9c.8.5 1.8 1.1 3.1 1.6 1.1.4 2 .8 2.7 1.3s1.4 1.2 1.9 2.1.7 2 .7 3.4c0 1.2-.3 2.2-.9 3.2s-1.5 1.8-2.7 2.4-2.6.9-4.2.9c-1.4 0-2.7-.2-4-.6s-2.6-1-3.7-1.8l2-3.5c.8.6 1.7 1.1 2.7 1.4 1 .4 1.9.6 2.7.6.9 0 1.8-.2 2.5-.6s1.1-1.1 1.1-2c0-1.2-1.1-2.2-3.3-3-1.3-.5-2.4-1-3.2-1.5-.9-.5-1.6-1.2-2.2-2-.6-.9-.9-2-.9-3.3 0-2 .7-3.5 1.9-4.7s3-1.8 5.1-1.9c1.7 0 3.1.2 4.2.6s2.2.9 3.3 1.6l-1.7 3.4c-2-1.2-3.7-1.7-5.2-1.8z"/><path d="m224.4 80.2v-9.1h2.5v15.1l-9.3-9.8v9.1h-2.5v-15.2z"/><path d="m151.6 71.1h4.2c1.2 0 2.3.2 3.2.6s1.7 1 2.3 1.6c.6.7 1.1 1.4 1.4 2.3s.5 1.7.5 2.6-.2 1.8-.5 2.6c-.3.9-.8 1.6-1.4 2.3s-1.4 1.2-2.3 1.6-2 .6-3.2.6h-4.2zm2.4 2.3v9.8h1.7c1.1 0 2-.2 2.7-.7s1.3-1.1 1.6-1.8c.4-.7.5-1.5.5-2.4 0-.8-.2-1.6-.5-2.4-.4-.7-.9-1.3-1.6-1.8s-1.6-.7-2.7-.7z"/><path d="m178.3 71.1v2.3h-6.8v3.7h5.4v2.3h-5.4v3.7h6.8v2.3h-9.3v-14.3z"/><path d="m196.3 85.8c-1.2 0-2.3-.2-3.2-.6s-1.7-1-2.3-1.7-1.1-1.5-1.4-2.4-.5-1.8-.5-2.7.2-1.8.5-2.8c.3-.9.8-1.7 1.4-2.4s1.4-1.3 2.3-1.7 2-.6 3.2-.6c.8 0 1.5.1 2.3.4.7.3 1.4.6 2 1.1l-1.4 2c-.3-.3-.7-.5-1.2-.7s-1-.3-1.7-.3c-1.1 0-2 .2-2.7.7s-1.3 1.1-1.6 1.9c-.4.7-.5 1.6-.5 2.4 0 .9.2 1.7.5 2.4.4.7.9 1.4 1.6 1.9s1.6.7 2.7.7c.4 0 .7 0 1-.1s.6-.1.8-.2l.6-.3c.2-.1.3-.2.4-.3l1.4 2c-.6.5-1.2.8-1.9 1.1-.5.1-1.3.2-2.3.2z"/><path d="m206.6 71.1h2.5v14.4h-2.5z"/><path d="m242.3 71.1v2.3h-6.8v3.7h5.4v2.3h-5.4v3.7h6.8v2.3h-9.3v-14.3z"/><path d="m253.3 71.1h4.2c1.2 0 2.3.2 3.2.6s1.7 1 2.3 1.6c.6.7 1.1 1.4 1.4 2.3s.5 1.7.5 2.6-.2 1.8-.5 2.6c-.3.9-.8 1.6-1.4 2.3s-1.4 1.2-2.3 1.6-2 .6-3.2.6h-4.2zm2.4 2.3v9.8h1.7c1.1 0 2-.2 2.7-.7s1.3-1.1 1.6-1.8c.4-.7.5-1.5.5-2.4 0-.8-.2-1.6-.5-2.4-.4-.7-.9-1.3-1.6-1.8s-1.6-.7-2.7-.7z"/><path d="m280 71.1v2.3h-6.8v3.7h5.4v2.3h-5.4v3.7h6.8v2.3h-9.3v-14.3z"/><path d="m175.5 39.7h6.5v2.3c-1.1.1-2.1 0-3.2.1h-3.2c-.2.7-.1 1.3-.1 1.9v2h7.7v2.2c-.7.2-8 .3-10 .1-.2-.7-.3-12.7-.1-14.7.7-.2 8.1-.3 9.7-.1v2.3h-7.3z"/><path d="m258.4 48.3h-2.7c-.5-1.1-.9-2.3-1.4-3.4h-5.3c-.5 1.1-1 2.3-1.4 3.4h-2.4c2.2-5.2 4.4-10.3 6.5-15.4h.3c2.1 4.8 4.2 9.7 6.2 14.5-.1.3 0 .6.2.9zm-8.6-5.6h3.6c-.6-1.5-1.1-2.9-1.8-4.5-.6 1.6-1.1 3-1.8 4.5z"/><path d="m188.6 46.9c.4-.7.7-1.2 1.1-1.9.3.2.6.3.8.4 1.2.6 2.4 1 3.7.7.3-.1.6-.2.9-.3 1.1-.6 1.3-2.1.4-2.9-.5-.4-1.1-.7-1.7-1-.7-.4-1.5-.6-2.2-1-1.5-.8-2.4-2-2.2-3.8.1-1.7 1.2-3 2.9-3.5 2.2-.7 4.3-.2 6.3 1-.3.6-.6 1.2-.9 1.9-.4-.1-.7-.3-1-.4-.9-.4-1.9-.6-2.9-.5-.3 0-.7.1-1 .3-1.1.6-1.2 1.9-.3 2.6.6.5 1.3.8 2 1.1.6.3 1.3.5 1.9.8 1.6.9 2.3 2.2 2.2 4.1-.1 1.7-1 2.9-2.5 3.5-2.6 1.1-5.1.4-7.5-1.1z"/><path d="m229.1 33.5h2.9c1.3 3.1 2.5 6.2 3.8 9.3h.2c1.2-3.1 2.4-6.2 3.6-9.3h2.9c-2.2 5.2-4.4 10.3-6.7 15.6-2.3-5.3-4.5-10.4-6.7-15.6z"/><path d="m159.9 48.3h-2.4v-14.8h8.9v2.3h-6.5v4.1h5.6v2.4h-5.7z"/><path d="m204.1 35.8v-2.3h9.9v2.3h-3.7v12.5h-2.5v-12.4h-3.7z"/><path d="m266.8 46h7.3v2.2h-9.7v-14.7h2.4z"/><path d="m222.8 48.3h-2.3v-14.8h2.3z"/><path d="m255.7 52.2c4 0 7.2 3.3 7.2 7.3s-3.3 7.2-7.3 7.2-7.2-3.2-7.2-7.2 3.3-7.3 7.3-7.3zm0 12.2c2.7 0 4.8-2.2 4.8-5s-2.2-5-4.9-5-4.8 2.2-4.8 5 2.2 5 4.9 5z"/><path d="m193.1 57.5v8.9h-2.2v-14.6c3.5 3.3 6.7 6.6 10.1 9.9v-9.3h2.2c.2.6.2 13.2 0 14.5-3.3-3.2-6.6-6.4-9.9-9.6-.1.1-.1.2-.2.2z"/><path d="m130.5 66.5h-2.2c-.2-.7-.2-13.1 0-14.6 3.4 3.3 6.6 6.5 10.1 9.9.1-1.7 0-3.2 0-4.7v-4.6h2.2v14.6c-3.4-3.3-6.7-6.4-10.1-9.7z"/><path d="m280.6 67c-3.4-3.3-6.7-6.5-10.1-9.8v9.2h-2.3v-14.6c3.4 3.4 6.7 6.6 10.2 10v-9.3h2.2c.1.7 0 1.5 0 2.3v9.7c.1.8.1 1.5 0 2.5z"/><path d="m175.6 52.4c1.7 0 3.5-.1 5.1 0 1.8.2 3.3 1.2 3.8 3 .6 2.1-.2 4.4-1.6 5.3-.1.1-.2.2-.4.3 1.1 1.7 2.2 3.5 3.4 5.4h-2.4c-.2 0-.5-.3-.6-.5-.8-1.2-1.6-2.5-2.4-3.7-.3-.5-.6-.8-1.2-.7h-1.4v4.9h-2.2c-.2-.7-.3-12.4-.1-14zm2.3 7h2.3c1.2-.1 2.1-.9 2.1-2.2.1-1.3-.6-2.3-1.8-2.5-.8-.1-1.7 0-2.6 0z"/><path d="m162.8 60.5v3.7c.8.1 1.6 0 2.4.1h4.9v2.1c-.7.2-7.9.3-9.5.1-.2-.7-.3-12.5-.1-13.9.7-.2 7.8-.2 9.3-.1v2.1h-6.9v3.7h6.2v2.2z"/><path d="m298 66.5h-2.6c-.4-1.1-.9-2.1-1.3-3.2h-5.1c-.4 1-.9 2.1-1.3 3.2h-2.3c2.1-4.9 4.1-9.8 6.2-14.5h.3c2 4.6 4 9.3 5.9 13.9.1.1.1.3.2.6zm-4.8-5.3c-.5-1.4-1-2.7-1.7-4.2-.6 1.5-1.2 2.8-1.7 4.2z"/><path d="m220.6 66.5h-2.5c-.4-1.1-.8-2.1-1.3-3.2h-5.1c-.4 1-.9 2.1-1.3 3.2h-2.3c2.1-4.9 4.1-9.7 6.2-14.6.5.5 5.8 12.9 6.3 14.6zm-6.2-9.4c-.7 1.3-1.3 2.6-1.8 4h3.4c-.6-1.4-1.1-2.7-1.6-4z"/><path d="m149.3 54.6h-3.5v-2.2h9.4v2.1h-3.6v11.9h-2.3c-.1-1 0-1.9 0-2.9v-5.9c0-.9 0-1.9 0-3z"/><path d="m305.1 64.3h6.9v2.1h-9c-.2-.6-.3-12.7 0-14h2.2z"/><path d="m119.7 52.4h2.2v14h-2.1c-.2-.7-.3-12.1-.1-14z"/><path d="m240.9 52.4h2.2v14h-2.1c-.3-.6-.3-12.4-.1-14z"/><path d="m230.7 67.2c-1.2 0-2.3-.2-3.2-.6s-1.7-1-2.3-1.7-1.1-1.5-1.4-2.4-.5-1.8-.5-2.7.2-1.8.5-2.8c.3-.9.8-1.7 1.4-2.4s1.4-1.3 2.3-1.7 2-.6 3.2-.6c.8 0 1.5.1 2.3.4.7.3 1.4.6 2 1.1l-1.4 2c-.3-.3-.7-.5-1.2-.7s-1-.3-1.7-.3c-1.1 0-2 .2-2.7.7s-1.3 1.1-1.6 1.9c-.4.7-.5 1.6-.5 2.4 0 .9.2 1.7.5 2.4.4.7.9 1.4 1.6 1.9s1.6.7 2.7.7c.4 0 .7 0 1-.1s.6-.1.8-.2l.6-.3c.2-.1.3-.2.4-.3l1.4 2c-.6.5-1.2.8-1.9 1.1s-1.3.2-2.3.2z"/></g></svg>