<svg enable-background="new 0 0 338 163.5" viewBox="0 0 338 163.5" xmlns="http://www.w3.org/2000/svg"><g fill="#0a1e3f"><path d="m159.2 81.8c2.5 3.5 4.8 6.8 7.3 10.3 2.5-3.5 4.9-6.9 7.4-10.2h.2v.1 14.6c0 .1 0 .2-.1.4h-2.4c-.1-2.7 0-5.4-.2-8.1-1.6 2.3-3.3 4.6-5 7-1.7-2.3-3.3-4.5-4.8-6.7-.1 0-.1 0-.2 0v2.5 2.6 2.7h-2.2c-.2-.7-.2-13.9 0-15.2z"/><path d="m250.4 60.1c4 0 7.2 3.3 7.2 7.3s-3.3 7.2-7.3 7.2-7.2-3.2-7.2-7.2c0-4.1 3.3-7.3 7.3-7.3zm0 12.1c2.7 0 4.8-2.2 4.8-5s-2.2-5-4.9-5-4.8 2.2-4.8 5 2.2 5 4.9 5z"/><path d="m190.7 65.3v8.9h-2.2v-14.6c3.5 3.3 6.7 6.6 10.1 9.9v-9.3h2.2c.2.6.2 13.2 0 14.5-3.3-3.2-6.6-6.4-9.9-9.6-.1.2-.1.2-.2.2z"/><path d="m208.1 88.4h6.5v2.3c-1.1.1-2.1 0-3.2.1-1.1 0-2.1 0-3.2 0-.2.7-.1 1.3-.1 1.9v2h7.7v2.2c-.7.2-8 .3-10 .1-.2-.7-.3-12.7-.1-14.7.7-.2 8.1-.3 9.7-.1v2.3h-7.3z"/><path d="m128 74.3h-2.2c-.2-.7-.2-13.1 0-14.6 3.4 3.3 6.6 6.5 10.1 9.9.1-1.7 0-3.2 0-4.7s0-3 0-4.6h2.2v14.6c-3.4-3.3-6.7-6.4-10.1-9.7z"/><path d="m275.4 74.9c-3.4-3.3-6.7-6.5-10.1-9.8v9.1h-2.3v-14.6c3.4 3.4 6.7 6.6 10.2 10v-9.3h2.2c.1.7 0 1.5 0 2.3v2.4 4.9 2.4z"/><path d="m173.2 60.3c1.7 0 3.5-.1 5.1 0 1.8.2 3.3 1.2 3.8 3 .6 2.1-.2 4.4-1.6 5.3-.1.1-.2.2-.4.3 1.1 1.7 2.2 3.5 3.4 5.4-.9 0-1.6 0-2.4 0-.2 0-.5-.3-.6-.5-.8-1.2-1.6-2.5-2.4-3.7-.3-.5-.6-.8-1.2-.7-.4 0-.9 0-1.4 0v4.8h-2.2c-.2-.7-.3-12.4-.1-13.9zm2.3 6.9h2.3c1.2-.1 2.1-.9 2.1-2.2.1-1.3-.6-2.3-1.8-2.5-.8-.1-1.7 0-2.6 0z"/><path d="m160.4 68.3v3.7c.8.1 1.6 0 2.4.1h2.4 2.5v2.1c-.7.2-7.9.3-9.5.1-.2-.7-.3-12.5-.1-13.9.7-.2 7.8-.2 9.3-.1v2.1h-6.9v3.7h6.2v2.2c-.1 0-6.3 0-6.3 0z"/><path d="m291 97.1h-2.7c-.5-1.1-.9-2.3-1.4-3.4h-5.3c-.5 1.1-1 2.3-1.4 3.4h-2.4c2.2-5.2 4.4-10.3 6.5-15.4h.2.1c2.1 4.8 4.2 9.7 6.2 14.5 0 .3.1.5.2.9zm-8.6-5.6h3.6c-.6-1.5-1.1-2.9-1.8-4.5-.6 1.6-1.1 3-1.8 4.5z"/><path d="m221.2 95.7c.4-.7.7-1.2 1.1-1.9.3.2.6.3.8.4 1.2.6 2.4 1 3.7.7.3-.1.6-.2.9-.3 1.1-.6 1.3-2.1.4-2.9-.5-.4-1.1-.7-1.7-1-.7-.4-1.5-.6-2.2-1-1.5-.8-2.4-2-2.2-3.8.1-1.7 1.2-3 2.9-3.5 2.2-.7 4.3-.2 6.3 1-.3.6-.6 1.2-.9 1.9-.4-.1-.7-.3-1-.4-.9-.4-1.9-.6-2.9-.5-.3 0-.7.1-1 .3-1.1.6-1.2 1.9-.3 2.6.6.5 1.3.8 2 1.1.6.3 1.3.5 1.9.8 1.6.9 2.3 2.2 2.2 4.1-.1 1.7-1 2.9-2.5 3.5-2.6 1-5.1.4-7.5-1.1z"/><path d="m261.7 82.2h2.9c1.3 3.1 2.5 6.2 3.8 9.3h.2c1.2-3.1 2.4-6.2 3.6-9.3h2.9c-2.2 5.2-4.4 10.3-6.7 15.6-2.3-5.3-4.5-10.3-6.7-15.6z"/><path d="m292.8 74.3h-2.6c-.4-1.1-.9-2.1-1.3-3.2h-5.1c-.4 1-.9 2.1-1.3 3.2h-2.3c2.1-4.9 4.1-9.8 6.2-14.5h.2.1c2 4.6 4 9.3 5.9 13.9 0 .1.1.3.2.6zm-4.8-5.3c-.5-1.4-1-2.7-1.7-4.2-.6 1.5-1.2 2.8-1.7 4.2z"/><path d="m218.2 74.3h-2.5c-.4-1.1-.8-2.1-1.3-3.2h-5.1c-.4 1-.9 2.1-1.3 3.2h-2.3c2.1-4.9 4.1-9.7 6.2-14.6.5.5 5.8 12.9 6.3 14.6zm-6.2-9.3c-.7 1.3-1.3 2.6-1.8 4h3.4c-.6-1.4-1.1-2.7-1.6-4z"/><path d="m117.3 82.3h8.9v2.2h-6.5v2.1 2c1.9.1 3.8 0 5.7.1v2.3h-5.7c-.1 2.1 0 4-.1 6.1h-2.4z"/><path d="m192.5 97h-2.5v-14.7h8.9v2.3h-6.5v4.1h5.6v2.3h-5.7z"/><path d="m236.7 84.6v-2.3h9.9v2.3h-3.7v12.4h-2.5c0-4.1 0-8.2 0-12.4z"/><path d="m152.5 94.7v2.2c-.7.2-8.1.3-9.6.1-.2-.7-.2-13.5 0-14.7h2.3v12.5h7.3z"/><path d="m299.4 94.8h7.3v2.2h-9.7v-14.7h2.4z"/><path d="m146.9 62.4h-3.5v-2.1h9.4v2.1h-3.6v11.9h-2.3c-.1-1 0-1.9 0-2.9s0-1.9 0-2.9v-3c0-1 0-2 0-3.1z"/><path d="m224.4 62.4h-3.5v-2.1h9.4v2.1h-3.6v11.9h-2.3c-.1-1 0-2 0-2.9 0-1 0-1.9 0-2.9v-3c0-1 0-2 0-3.1z"/><path d="m299.8 72.1h6.9v2.1h-9c-.2-.6-.3-12.7 0-14h2.2z"/><path d="m255.4 97h-2.3v-14.7h2.3z"/><path d="m135.1 97h-2.1c-.2-.7-.3-12.2-.1-14.8h2.2c.2.8.2 13.6 0 14.8z"/><path d="m117.3 60.3h2.2v14h-2.1c-.3-.7-.3-12.2-.1-14z"/><path d="m235.6 60.3h2.2v14h-2.1c-.2-.7-.3-12.5-.1-14z"/><path d="m75.6 82.4h-39.3c2.5 3 5.7 5.4 9.2 7 3.3 1.5 6.8 2.2 10.5 2.2 7.6 0 14.7-3.4 19.6-9.2z"/><path d="m92.9 75.7c-.9 1-1.8 2.1-2.7 3s-1.9 1.9-2.9 2.8c-.3.3-.7.6-1 .8-6.4 5.2-18.5 10.4-29.3 10.4-3.5 0-6.6-.5-9.3-1.6 6.9 5.8 14.5 8.5 23.2 8.5 6.6 0 13.1-1.8 18.7-5.2l.1-.1c.3-.2 1.2-.8 1.5-1 1.3-.9 2.6-1.9 3.8-3 2.7-2.4 4.9-5.2 6.8-8.2.2-.3.3-.5.5-.8 2.4-4.3 3.9-8.9 4.4-13.7-4.8.6-9.2 3-12.4 6.6-.6.6-1 1.1-1.4 1.5z"/><path d="m99.7 64.7c-.3 0-.6 0-1 0-5.5.2-11.1 2.1-17.5 6-.8.5-1.6 1-2.4 1.6-.5.3-1 .7-1.5 1-1.3.9-2.8 1.9-4.3 2.7-2.3 1.2-5 2.2-8.2 3-2.6.7-5.3 1-8 1.1h-.1c-.7 0-1.4 0-2.2 0-1.1-.1-2.2-.2-3.2-.4-4.5-1-8.5-3.5-11.4-7-3-3.6-4.6-8.2-4.6-12.9v-.1c0-.8 0-1.6.1-2.3.2-1.1.9-2 1.9-2.4.7-.2 1.5-.2 2.2 0 .2.1.4.2.6.3s.4.2.6.3c.4.2.8.3 1.1.4l1.5.6c.8.3 1.6.6 2.4.6.3 0 .6 0 .9-.1 1.1-.3 1.8-.8 2.7-1.8l2.4-2.8c-.3.1-.9.1-1.6.1-1.2 0-2.4-.2-3.5-.6l-5.7-2s-.3-.1-.7-.1c-.5 0-1.3.2-2 .9l-2 2.1-.2-.1 1.2-2.6c.8-1.6-.2-2.8-.2-2.8l-3.9-4.6c-1.6-1.7-2.1-3.8-2.2-4.6l-1.8 3.2c-.6 1.2-.9 2-.8 3.1.1 1.2.7 2 1.6 2.9.3.4.7.8 1 1.1s.6.6.9 1c.8 1 1.6 1.9 1.7 3.2 0 .6-.4 1.6-.5 1.8-1.9 3.6-2.8 7.6-2.8 11.7 0 5.6 1.8 10.9 5.1 15.3h50.3c2.6-2.1 5-4.6 7.1-7.2v-.1c1-1.2 2.1-2.3 3.4-3.2 3-2.3 6.6-3.8 10.3-4.2 0-.4.1-.8.1-1.2-2.1-.7-4.4-1-6.8-.9z"/><path d="m318.3 111.9h-298.6v-79.4h91v1.9h-88.7v75.5h294v-75.5h-2.8v-1.9h5.1z"/><path d="m240 41.1-2.5-1.6c-.8 1.3-2.6 2.2-4.3 2.4l-7.1-16.3h-.2l-10.1 23.4h4.4l1.8-4.4.2-.4c1.8-1.1 4.5-1.4 6.2-.4.3.2.7.4 1 .5l.1.3 1.7 4.4h5.1l-1.9-4.3c2.3-.5 4.4-1.8 5.6-3.6zm-16.3-.7 2.1-5 2 5.1c-1.3-.4-2.7-.4-4.1-.1z"/><path d="m208.3 48.7c-1.2.5-2.6.7-4 .7-2.3 0-4.3-.5-6-1.5s-3-2.3-3.9-4-1.4-3.6-1.4-5.6c0-2.2.4-4.2 1.4-6 .9-1.7 2.2-3.1 3.8-4.1s3.5-1.5 5.6-1.5c1.3 0 2.6.2 3.7.5 1.1.4 2.1.8 3 1.4l-1.7 4.1c-1.6-1.2-3.2-1.8-4.9-1.8-1.1 0-2.2.3-3.2.9s-1.8 1.5-2.3 2.5-.9 2.3-.9 3.6c0 1.4.3 2.7.8 3.7.5 1.1 1.3 1.9 2.3 2.5s2.2.9 3.5.9c1.1 0 2.1-.2 2.9-.5.9-.3 1.5-.8 2-1.2l1.8 3.9c-.4.6-1.3 1.1-2.5 1.5z"/><path d="m257 39.6c.7.9 1 1.9 1 3 0 2.2-.7 3.9-2.2 4.9-1.5 1.1-3.3 1.6-5.5 1.6h-7.4v-22.1h6.5c2.3 0 4.2.5 5.5 1.4 1.3 1 2 2.3 2 4.1 0 1.1-.2 2.1-.7 2.9s-1.1 1.5-2 2c1.2.7 2.1 1.4 2.8 2.2zm-9.8-3.5h2.6c.8 0 1.4-.2 1.9-.7.4-.5.7-1.1.7-1.8s-.2-1.3-.8-1.7c-.5-.4-1.2-.6-2.1-.6h-2.3zm5.3 8.4c.6-.4.9-1 .9-1.9 0-1.6-1.2-2.3-3.7-2.3h-2.5v4.8h2.8c1 0 1.8-.2 2.5-.6z"/><path d="m265.7 32.5c1-1.7 2.4-3.1 4.1-4.2 1.7-1 3.6-1.5 5.6-1.5s3.9.5 5.6 1.5 3.1 2.4 4.2 4.2c1 1.7 1.5 3.6 1.5 5.6s-.5 3.9-1.5 5.7c-1 1.7-2.4 3.1-4.2 4.1-1.7 1-3.6 1.5-5.6 1.5s-3.9-.5-5.7-1.5c-1.7-1-3.1-2.4-4.1-4.1s-1.5-3.6-1.5-5.7.6-3.8 1.6-5.6zm3.9 9.2c.6 1.1 1.4 1.9 2.5 2.6 1.1.6 2.2.9 3.5.9s2.4-.3 3.4-.9 1.8-1.5 2.4-2.6.9-2.3.9-3.6-.3-2.5-.9-3.6-1.4-1.9-2.4-2.5-2.2-.9-3.4-.9-2.4.3-3.4.9-1.9 1.5-2.4 2.6c-.6 1.1-.9 2.3-.9 3.6-.2 1.3.1 2.4.7 3.5z"/><path d="m301.3 30.8c-1 0-1.7.2-2.2.6s-.8 1-.8 1.7.4 1.3 1.2 1.9c.8.5 1.8 1 3.1 1.5 1 .4 1.9.8 2.7 1.3.7.5 1.4 1.2 1.9 2 .5.9.7 2 .7 3.3 0 1.1-.3 2.2-.9 3.2s-1.5 1.7-2.6 2.3-2.5.9-4.1.9c-1.3 0-2.6-.2-3.9-.6s-2.5-1-3.6-1.8l1.9-3.4c.8.6 1.6 1 2.6 1.4s1.9.5 2.6.5c.9 0 1.7-.2 2.4-.6s1-1 1-1.9c0-1.1-1.1-2.1-3.2-3-1.3-.5-2.3-1-3.2-1.4-.8-.5-1.6-1.1-2.2-2s-.9-1.9-.9-3.2c0-1.9.6-3.4 1.9-4.6s2.9-1.8 5-1.9c1.6 0 3 .2 4.1.6s2.2.9 3.2 1.6l-1.7 3.3c-2-1.2-3.6-1.7-5-1.7z"/><path d="m120.7 26.7v18.4h10.6v4.3h-15.1v-22.6z"/><path d="m135.5 32.3c1-1.8 2.4-3.2 4.2-4.3s3.7-1.6 5.8-1.6 4 .5 5.8 1.6 3.2 2.5 4.3 4.3 1.6 3.7 1.6 5.8-.5 4-1.6 5.8-2.5 3.2-4.3 4.2-3.7 1.6-5.8 1.6-4-.5-5.8-1.6c-1.8-1-3.2-2.4-4.2-4.2s-1.6-3.7-1.6-5.8c.1-2.1.6-4 1.6-5.8zm4 9.4c.6 1.1 1.5 2 2.6 2.6 1.1.7 2.3 1 3.6 1s2.4-.3 3.5-1 1.9-1.5 2.5-2.6.9-2.3.9-3.6-.3-2.6-.9-3.7-1.5-2-2.5-2.6c-1.1-.7-2.2-1-3.5-1s-2.5.3-3.5 1c-1.1.7-1.9 1.5-2.5 2.6s-.9 2.3-.9 3.7.1 2.6.7 3.6z"/><path d="m168.5 30.6c-1 0-1.7.2-2.3.6s-.8 1-.8 1.7.4 1.3 1.2 1.9c.8.5 1.8 1.1 3.1 1.6 1.1.4 2 .8 2.7 1.3s1.4 1.2 1.9 2.1.7 2 .7 3.4c0 1.2-.3 2.2-.9 3.2s-1.5 1.8-2.7 2.4-2.6.9-4.2.9c-1.4 0-2.7-.2-4-.6s-2.6-1-3.7-1.8l2-3.5c.8.6 1.7 1.1 2.7 1.4 1 .4 1.9.6 2.7.6.9 0 1.8-.2 2.5-.6s1.1-1.1 1.1-2c0-1.2-1.1-2.2-3.3-3-1.3-.5-2.4-1-3.2-1.5-.9-.5-1.6-1.2-2.2-2-.6-.9-.9-2-.9-3.3 0-2 .7-3.5 1.9-4.7 1.3-1.2 3-1.8 5.1-1.9 1.7 0 3.1.2 4.2.6s2.2.9 3.3 1.6l-1.7 3.4c-2-1.2-3.7-1.8-5.2-1.8z"/><path d="m24.3 137.7v-13.6h1.9l4.3 6.9c1 1.6 1.8 3 2.4 4.4h.1c-.2-1.8-.2-3.5-.2-5.6v-5.7h1.7v13.6h-1.8l-4.3-6.9c-1-1.5-1.9-3.1-2.5-4.6h-.1c.1 1.7.1 3.4.1 5.6v5.8h-1.6z"/><path d="m47 132.7c0 3.6-2.5 5.2-4.9 5.2-2.6 0-4.7-1.9-4.7-5 0-3.3 2.2-5.2 4.9-5.2 2.8 0 4.7 2 4.7 5zm-7.8.1c0 2.1 1.2 3.8 3 3.8 1.7 0 3-1.6 3-3.8 0-1.7-.8-3.7-2.9-3.7-2.2-.1-3.1 1.9-3.1 3.7z"/><path d="m50.3 127.9 1.9 5.5c.3.9.6 1.7.8 2.5.2-.8.5-1.6.8-2.5l1.9-5.5h1.9l-3.8 9.8h-1.7l-3.7-9.8z"/><path d="m60.6 133.1c0 2.4 1.6 3.4 3.4 3.4 1.3 0 2.1-.2 2.7-.5l.3 1.3c-.6.3-1.7.6-3.3.6-3 0-4.8-2-4.8-5s1.7-5.3 4.6-5.3c3.2 0 4 2.8 4 4.6 0 .4 0 .6-.1.8h-6.8zm5.2-1.3c0-1.1-.5-2.9-2.5-2.9-1.8 0-2.6 1.6-2.7 2.9z"/><path d="m70.2 130.5c0-1 0-1.8-.1-2.7h1.6l.1 1.6h.1c.5-.9 1.5-1.8 3.1-1.8 1.3 0 2.3.8 2.8 2 .3-.6.7-1 1.1-1.3.6-.4 1.2-.7 2.1-.7 1.3 0 3.2.8 3.2 4.2v5.7h-1.7v-5.5c0-1.9-.7-3-2.1-3-1 0-1.8.7-2.1 1.6-.1.3-.1.6-.1.9v6h-1.7v-5.9c0-1.6-.7-2.7-2-2.7-1.1 0-1.9.9-2.2 1.8-.1.2-.1.6-.1.9v5.9h-1.7v-7z"/><path d="m87.6 123.3h1.8v6.2c.6-1.1 1.8-1.8 3.3-1.8 2.4 0 4.1 2 4.1 5 0 3.5-2.2 5.2-4.4 5.2-1.4 0-2.5-.5-3.3-1.8l-.1 1.6h-1.5c0-.7.1-1.7.1-2.5zm1.8 10.5c0 .2 0 .4.1.6.3 1.2 1.4 2.1 2.7 2.1 1.9 0 3-1.5 3-3.8 0-2-1-3.6-2.9-3.6-1.2 0-2.3.8-2.7 2.2-.1.2-.1.5-.1.7v1.8z"/><path d="m100.6 133.1c0 2.4 1.6 3.4 3.4 3.4 1.3 0 2.1-.2 2.7-.5l.3 1.3c-.6.3-1.7.6-3.3.6-3 0-4.8-2-4.8-5s1.7-5.3 4.6-5.3c3.2 0 4 2.8 4 4.6 0 .4 0 .6-.1.8h-6.8zm5.2-1.3c0-1.1-.5-2.9-2.5-2.9-1.8 0-2.6 1.6-2.7 2.9z"/><path d="m110.3 131c0-1.2 0-2.1-.1-3.1h1.6l.1 1.9h.1c.4-1.3 1.5-2.1 2.7-2.1h.5v1.7c-.2 0-.4 0-.6 0-1.3 0-2.1.9-2.4 2.3 0 .2-.1.5-.1.8v5.2h-1.8z"/><path d="m121.6 137.7v-1.1l1.4-1.4c3.4-3.2 4.9-4.9 4.9-6.9 0-1.3-.6-2.6-2.6-2.6-1.2 0-2.2.6-2.8 1.1l-.6-1.3c.9-.7 2.2-1.3 3.7-1.3 2.8 0 4 1.9 4 3.8 0 2.4-1.8 4.4-4.5 7.1l-1 1h5.9v1.5h-8.4z"/><path d="m133.5 136.4c.4 0 .8 0 1.4-.1 1-.1 2-.5 2.8-1.3.9-.8 1.5-1.9 1.7-3.5h-.1c-.7.9-1.8 1.4-3.1 1.4-2.3 0-3.9-1.8-3.9-4 0-2.5 1.8-4.7 4.5-4.7s4.4 2.2 4.4 5.6c0 2.9-1 4.9-2.3 6.2-1 1-2.4 1.6-3.8 1.8-.6.1-1.2.1-1.6.1zm.7-7.5c0 1.6 1 2.8 2.5 2.8 1.2 0 2.1-.6 2.6-1.4.1-.2.2-.4.2-.7 0-2.2-.8-4-2.7-4-1.6.1-2.6 1.4-2.6 3.3z"/><path d="m152.9 131.6v1.3h-5v-1.3z"/><path d="m160.3 124.3c1.1-.2 2.3-.3 3.7-.3 2.5 0 4.3.6 5.5 1.7s1.9 2.7 1.9 4.9-.7 4-2 5.3-3.4 2-6 2c-1.3 0-2.3-.1-3.2-.2v-13.4zm1.8 12c.4.1 1.1.1 1.8.1 3.8 0 5.8-2.1 5.8-5.8 0-3.2-1.8-5.3-5.5-5.3-.9 0-1.6.1-2.1.2z"/><path d="m175.3 133.1c0 2.4 1.6 3.4 3.4 3.4 1.3 0 2.1-.2 2.7-.5l.3 1.3c-.6.3-1.7.6-3.3.6-3 0-4.8-2-4.8-5s1.7-5.3 4.6-5.3c3.2 0 4 2.8 4 4.6 0 .4 0 .6-.1.8h-6.8zm5.2-1.3c0-1.1-.5-2.9-2.5-2.9-1.8 0-2.6 1.6-2.7 2.9z"/><path d="m191.9 137.3c-.5.2-1.5.6-2.8.6-3 0-4.9-2-4.9-5s2.1-5.2 5.3-5.2c1.1 0 2 .3 2.5.5l-.4 1.4c-.4-.2-1.1-.5-2.1-.5-2.2 0-3.5 1.7-3.5 3.7 0 2.3 1.5 3.7 3.4 3.7 1 0 1.7-.2 2.2-.5z"/><path d="m195.4 133.1c0 2.4 1.6 3.4 3.4 3.4 1.3 0 2.1-.2 2.7-.5l.3 1.3c-.6.3-1.7.6-3.3.6-3 0-4.8-2-4.8-5s1.7-5.3 4.6-5.3c3.2 0 4 2.8 4 4.6 0 .4 0 .6-.1.8h-6.8zm5.2-1.3c0-1.1-.5-2.9-2.5-2.9-1.8 0-2.6 1.6-2.7 2.9z"/><path d="m205 130.5c0-1 0-1.8-.1-2.7h1.6l.1 1.6h.1c.5-.9 1.5-1.8 3.1-1.8 1.3 0 2.3.8 2.8 2 .3-.6.7-1 1.1-1.3.6-.4 1.2-.7 2.1-.7 1.3 0 3.2.8 3.2 4.2v5.7h-1.7v-5.5c0-1.9-.7-3-2.1-3-1 0-1.8.7-2.1 1.6-.1.3-.1.6-.1.9v6h-1.7v-5.9c0-1.6-.7-2.7-2-2.7-1.1 0-1.9.9-2.2 1.8-.1.2-.1.6-.1.9v5.9h-2z"/><path d="m222.4 123.3h1.8v6.2c.6-1.1 1.8-1.8 3.3-1.8 2.4 0 4.1 2 4.1 5 0 3.5-2.2 5.2-4.4 5.2-1.4 0-2.5-.5-3.3-1.8l-.1 1.6h-1.5c0-.7.1-1.7.1-2.5zm1.8 10.5c0 .2 0 .4.1.6.3 1.2 1.4 2.1 2.7 2.1 1.9 0 3-1.5 3-3.8 0-2-1-3.6-2.9-3.6-1.2 0-2.3.8-2.7 2.2-.1.2-.1.5-.1.7v1.8z"/><path d="m235.4 133.1c0 2.4 1.6 3.4 3.4 3.4 1.3 0 2.1-.2 2.7-.5l.3 1.3c-.6.3-1.7.6-3.3.6-3 0-4.8-2-4.8-5s1.7-5.3 4.6-5.3c3.2 0 4 2.8 4 4.6 0 .4 0 .6-.1.8h-6.8zm5.2-1.3c0-1.1-.5-2.9-2.5-2.9-1.8 0-2.6 1.6-2.7 2.9z"/><path d="m245 131c0-1.2 0-2.1-.1-3.1h1.6l.1 1.9h.1c.4-1.3 1.5-2.1 2.7-2.1h.5v1.7c-.2 0-.4 0-.6 0-1.3 0-2.1.9-2.4 2.3 0 .2-.1.5-.1.8v5.2h-1.8z"/><path d="m256.8 135.7c.5.3 1.7.8 2.9.8 2.3 0 3-1.4 3-2.5 0-1.8-1.7-2.6-3.4-2.6h-1v-1.4h1c1.3 0 2.9-.7 2.9-2.2 0-1.1-.7-2-2.3-2-1.1 0-2.1.5-2.6.9l-.5-1.3c.7-.5 2-1 3.5-1 2.6 0 3.8 1.5 3.8 3.1 0 1.4-.8 2.5-2.4 3.1 1.6.3 2.9 1.5 2.9 3.4 0 2.1-1.7 3.9-4.8 3.9-1.5 0-2.8-.5-3.4-.9z"/><path d="m272.1 137.7v-1.1l1.4-1.4c3.4-3.2 4.9-4.9 4.9-6.9 0-1.3-.6-2.6-2.6-2.6-1.2 0-2.2.6-2.8 1.1l-.6-1.3c.9-.7 2.2-1.3 3.7-1.3 2.8 0 4 1.9 4 3.8 0 2.4-1.8 4.4-4.5 7.1l-1 1h5.9v1.5h-8.4z"/><path d="m291.7 131c0 4.5-1.7 6.9-4.6 6.9-2.6 0-4.3-2.4-4.4-6.8 0-4.4 1.9-6.8 4.6-6.8 2.8 0 4.4 2.5 4.4 6.7zm-7.1.2c0 3.4 1.1 5.4 2.7 5.4 1.8 0 2.7-2.1 2.7-5.5 0-3.2-.8-5.4-2.7-5.4-1.6 0-2.7 1.9-2.7 5.5z"/><path d="m293.8 137.7v-1.1l1.4-1.4c3.4-3.2 4.9-4.9 4.9-6.9 0-1.3-.6-2.6-2.6-2.6-1.2 0-2.2.6-2.8 1.1l-.6-1.3c.9-.7 2.2-1.3 3.7-1.3 2.8 0 4 1.9 4 3.8 0 2.4-1.8 4.4-4.5 7.1l-1 1h5.9v1.5h-8.4z"/><path d="m305.1 135.7c.5.3 1.7.8 2.9.8 2.3 0 3-1.4 3-2.5 0-1.8-1.7-2.6-3.4-2.6h-1v-1.4h1c1.3 0 2.9-.7 2.9-2.2 0-1.1-.7-2-2.3-2-1.1 0-2.1.5-2.6.9l-.5-1.3c.7-.5 2-1 3.5-1 2.6 0 3.8 1.5 3.8 3.1 0 1.4-.8 2.5-2.4 3.1 1.6.3 2.9 1.5 2.9 3.4 0 2.1-1.7 3.9-4.8 3.9-1.5 0-2.8-.5-3.4-.9z"/></g></svg>