<svg viewBox="0 0 338 152.5" xmlns="http://www.w3.org/2000/svg"><g fill="#fff"><path d="m159.2 89.3c2.5 3.5 4.8 6.8 7.3 10.3 2.5-3.5 4.9-6.9 7.4-10.2h.2v14.7c0 .1 0 .2-.1.4h-2.4c-.1-2.7 0-5.4-.2-8.1-1.6 2.3-3.3 4.6-5 7-1.7-2.3-3.3-4.5-4.8-6.7h-.2v7.7h-2.2c-.2-.6-.2-13.8 0-15.1z"/><path d="m250.4 67.6c4 0 7.2 3.3 7.2 7.3s-3.3 7.2-7.3 7.2-7.2-3.2-7.2-7.2 3.3-7.3 7.3-7.3zm0 12.1c2.7 0 4.8-2.2 4.8-5s-2.2-5-4.9-5-4.8 2.2-4.8 5 2.2 5 4.9 5z"/><path d="m190.7 72.8v8.9h-2.2v-14.6c3.5 3.3 6.7 6.6 10.1 9.9v-9.3h2.2c.2.6.2 13.2 0 14.5-3.3-3.2-6.6-6.4-9.9-9.6q-.1.2-.2.2z"/><path d="m208.1 95.9h6.5v2.3c-1.1.1-2.1 0-3.2.1h-3.2c-.2.7-.1 1.3-.1 1.9v2h7.7v2.2c-.7.2-8 .3-10 .1-.2-.7-.3-12.7-.1-14.7.7-.2 8.1-.3 9.7-.1v2.3h-7.3z"/><path d="m128 81.8h-2.2c-.2-.7-.2-13.1 0-14.6 3.4 3.3 6.6 6.5 10.1 9.9.1-1.7 0-3.2 0-4.7v-4.6h2.2v14.6c-3.4-3.3-6.7-6.4-10.1-9.7z"/><path d="m275.4 82.4c-3.4-3.3-6.7-6.5-10.1-9.8v9.1h-2.3v-14.6c3.4 3.4 6.7 6.6 10.2 10v-9.3h2.2c.1.7 0 1.5 0 2.3v9.7z"/><path d="m173.2 67.8c1.7 0 3.5-.1 5.1 0 1.8.2 3.3 1.2 3.8 3 .6 2.1-.2 4.4-1.6 5.3-.1.1-.2.2-.4.3 1.1 1.7 2.2 3.5 3.4 5.4h-2.4c-.2 0-.5-.3-.6-.5-.8-1.2-1.6-2.5-2.4-3.7-.3-.5-.6-.8-1.2-.7h-1.4v4.8h-2.2c-.2-.7-.3-12.4-.1-13.9zm2.3 6.9h2.3c1.2-.1 2.1-.9 2.1-2.2.1-1.3-.6-2.3-1.8-2.5-.8-.1-1.7 0-2.6 0z"/><path d="m160.4 75.8v3.7c.8.1 1.6 0 2.4.1h4.9v2.1c-.7.2-7.9.3-9.5.1-.2-.7-.3-12.5-.1-13.9.7-.2 7.8-.2 9.3-.1v2.1h-6.9v3.7h6.2v2.2c-.1 0-6.3 0-6.3 0z"/><path d="m291 104.6h-2.7c-.5-1.1-.9-2.3-1.4-3.4h-5.3c-.5 1.1-1 2.3-1.4 3.4h-2.4c2.2-5.2 4.4-10.3 6.5-15.4h.3c2.1 4.8 4.2 9.7 6.2 14.5 0 .3.1.5.2.9zm-8.6-5.6h3.6c-.6-1.5-1.1-2.9-1.8-4.5-.6 1.6-1.1 3-1.8 4.5z"/><path d="m221.2 103.2c.4-.7.7-1.2 1.1-1.9.3.2.6.3.8.4 1.2.6 2.4 1 3.7.7.3-.1.6-.2.9-.3 1.1-.6 1.3-2.1.4-2.9-.5-.4-1.1-.7-1.7-1-.7-.4-1.5-.6-2.2-1-1.5-.8-2.4-2-2.2-3.8.1-1.7 1.2-3 2.9-3.5 2.2-.7 4.3-.2 6.3 1-.3.6-.6 1.2-.9 1.9-.4-.1-.7-.3-1-.4-.9-.4-1.9-.6-2.9-.5-.3 0-.7.1-1 .3-1.1.6-1.2 1.9-.3 2.6.6.5 1.3.8 2 1.1.6.3 1.3.5 1.9.8 1.6.9 2.3 2.2 2.2 4.1-.1 1.7-1 2.9-2.5 3.5-2.6 1-5.1.4-7.5-1.1z"/><path d="m261.7 89.7h2.9c1.3 3.1 2.5 6.2 3.8 9.3h.2c1.2-3.1 2.4-6.2 3.6-9.3h2.9c-2.2 5.2-4.4 10.3-6.7 15.6-2.3-5.3-4.5-10.3-6.7-15.6z"/><path d="m292.8 81.8h-2.6c-.4-1.1-.9-2.1-1.3-3.2h-5.1c-.4 1-.9 2.1-1.3 3.2h-2.3c2.1-4.9 4.1-9.8 6.2-14.5h.3c2 4.6 4 9.3 5.9 13.9 0 .1.1.3.2.6zm-4.8-5.3c-.5-1.4-1-2.7-1.7-4.2-.6 1.5-1.2 2.8-1.7 4.2z"/><path d="m218.2 81.8h-2.5c-.4-1.1-.8-2.1-1.3-3.2h-5.1c-.4 1-.9 2.1-1.3 3.2h-2.3c2.1-4.9 4.1-9.7 6.2-14.6.5.5 5.8 12.9 6.3 14.6zm-6.2-9.3c-.7 1.3-1.3 2.6-1.8 4h3.4c-.6-1.4-1.1-2.7-1.6-4z"/><path d="m117.3 89.8h8.9v2.2h-6.5v4.1c1.9.1 3.8 0 5.7.1v2.3h-5.7c-.1 2.1 0 4-.1 6.1h-2.4z"/><path d="m192.5 104.5h-2.5v-14.7h8.9v2.2h-6.5v4.1h5.6v2.4h-5.7z"/><path d="m236.7 92.1v-2.3h9.9v2.2h-3.7v12.5h-2.5v-12.4z"/><path d="m152.5 102.2v2.2c-.7.2-8.1.3-9.6.1-.2-.7-.2-13.5 0-14.7h2.3v12.5h7.3z"/><path d="m299.4 102.3h7.3v2.2h-9.7v-14.7h2.4z"/><path d="m146.9 69.9h-3.5v-2.1h9.4v2.1h-3.6v11.9h-2.3c-.1-1 0-1.9 0-2.9v-5.9c0-1 0-2 0-3.1z"/><path d="m224.4 69.9h-3.5v-2.1h9.4v2.1h-3.6v11.9h-2.3c-.1-1 0-2 0-2.9v-5.9c0-1 0-2 0-3.1z"/><path d="m299.8 79.6h6.9v2.1h-9c-.2-.6-.3-12.7 0-14h2.2z"/><path d="m255.4 104.5h-2.3v-14.7h2.3z"/><path d="m135.1 104.5h-2.1c-.2-.7-.3-12.2-.1-14.8h2.2c.2.8.2 13.6 0 14.8z"/><path d="m117.3 67.8h2.2v14h-2.1c-.3-.7-.3-12.2-.1-14z"/><path d="m235.6 67.8h2.2v14h-2.1c-.2-.7-.3-12.5-.1-14z"/><path d="m75.6 89.9h-39.3c2.5 3 5.7 5.4 9.2 7 3.3 1.5 6.8 2.2 10.5 2.2 7.6 0 14.7-3.4 19.6-9.2z"/><path d="m92.9 83.2c-.9 1-1.8 2.1-2.7 3s-1.9 1.9-2.9 2.8c-.3.3-.7.6-1 .8-6.5 5.2-18.6 10.5-29.5 10.5-3.5 0-6.6-.5-9.3-1.6 6.9 5.8 14.5 8.5 23.2 8.5 6.6 0 13.1-1.8 18.7-5.2l.1-.1c.3-.2 1.2-.8 1.5-1 1.3-.9 2.6-1.9 3.8-3 2.7-2.4 4.9-5.2 6.8-8.2.2-.3.3-.5.5-.8 2.4-4.3 3.9-8.9 4.4-13.7-4.8.6-9.2 3-12.4 6.6-.4.5-.8 1-1.2 1.4z"/><path d="m99.7 72.2h-1c-5.5.2-11.1 2.1-17.5 6-.8.5-1.6 1-2.4 1.6-.5.3-1 .7-1.5 1-1.3.9-2.8 1.9-4.3 2.7-2.3 1.2-5 2.2-8.2 3-2.6.7-5.3 1-8 1.1h-2.3c-1.1-.1-2.2-.2-3.2-.4-4.5-1-8.5-3.5-11.4-7-3-3.6-4.6-8.2-4.6-12.9v-.1c0-.8 0-1.6.1-2.3.2-1.1.9-2 1.9-2.4.7-.2 1.5-.2 2.2 0 .2.1.4.2.6.3s.4.2.6.3c.4.2.8.3 1.1.4.5.2 1 .4 1.5.6.8.3 1.6.6 2.4.6.3 0 .6 0 .9-.1 1.1-.3 1.8-.8 2.7-1.8l2.4-2.8c-.3.1-.9.1-1.6.1-1.2 0-2.4-.2-3.5-.6l-5.7-2s-.3-.1-.7-.1c-.5 0-1.3.2-2 .9l-2 2.1v-.4s1.2-2.6 1.2-2.6c.8-1.6-.2-2.8-.2-2.8l-3.8-4.6c-1.6-1.7-2.1-3.8-2.2-4.6l-1.8 3.2c-.6 1.2-.9 2-.8 3.1.1 1.2.7 2 1.6 2.9.3.4.7.8 1 1.1s.6.6.9 1c.8 1 1.6 1.9 1.7 3.2 0 .6-.4 1.6-.5 1.8-1.9 3.6-2.8 7.6-2.8 11.7 0 5.6 1.8 10.9 5.1 15.3h50.3c2.6-2.1 5-4.6 7.1-7.2v-.1c1-1.2 2.1-2.3 3.4-3.2 3-2.3 6.6-3.8 10.3-4.2 0-.4.1-.8.1-1.2-2.4-.4-4.7-.7-7.1-.6z"/><path d="m318.3 119.4h-298.6v-79.4h91v1.9h-88.7v75.5h294v-75.5h-2.8v-1.9h5.1z"/><path d="m240 48.6-2.5-1.6c-.8 1.3-2.6 2.2-4.3 2.4l-7.1-16.3h-.2l-10.1 23.4h4.4l1.8-4.4.2-.4c1.8-1.1 4.5-1.4 6.2-.4.3.2.7.4 1 .5l.1.3 1.7 4.4h5.1l-1.9-4.3c2.3-.5 4.4-1.8 5.6-3.6zm-16.3-.7 2.1-5 2 5.1c-1.3-.4-2.7-.4-4.1-.1z"/><path d="m208.3 56.2c-1.2.5-2.6.7-4 .7-2.3 0-4.3-.5-6-1.5s-3-2.3-3.9-4-1.4-3.6-1.4-5.6c0-2.2.4-4.2 1.4-6 .9-1.7 2.2-3.1 3.8-4.1s3.5-1.5 5.6-1.5c1.3 0 2.6.2 3.7.5 1.1.4 2.1.8 3 1.4l-1.7 4.1c-1.6-1.2-3.2-1.8-4.9-1.8-1.1 0-2.2.3-3.2.9s-1.8 1.5-2.3 2.5c-.6 1.1-.9 2.3-.9 3.6 0 1.4.3 2.7.8 3.7.5 1.1 1.3 1.9 2.3 2.5s2.2.9 3.5.9c1.1 0 2.1-.2 2.9-.5.9-.3 1.5-.8 2-1.2l1.8 3.9c-.4.6-1.3 1.1-2.5 1.5z"/><path d="m257 47.1c.7.9 1 1.9 1 3 0 2.2-.7 3.9-2.2 4.9-1.5 1.1-3.3 1.6-5.5 1.6h-7.4v-22.1h6.5c2.3 0 4.2.5 5.5 1.4 1.3 1 2 2.3 2 4.1 0 1.1-.2 2.1-.7 2.9s-1.1 1.5-2 2c1.2.7 2.1 1.4 2.8 2.2zm-9.8-3.5h2.6c.8 0 1.4-.2 1.9-.7.4-.5.7-1.1.7-1.8s-.2-1.3-.8-1.7c-.5-.4-1.2-.6-2.1-.6h-2.3zm5.3 8.4c.6-.4.9-1 .9-1.9 0-1.6-1.2-2.3-3.7-2.3h-2.5v4.8h2.8c1 0 1.8-.2 2.5-.6z"/><path d="m265.7 40c1-1.7 2.4-3.1 4.1-4.2 1.7-1 3.6-1.5 5.6-1.5s3.9.5 5.6 1.5 3.1 2.4 4.2 4.2c1 1.7 1.5 3.6 1.5 5.6s-.5 3.9-1.5 5.7c-1 1.7-2.4 3.1-4.2 4.1-1.7 1-3.6 1.5-5.6 1.5s-3.9-.5-5.7-1.5c-1.7-1-3.1-2.4-4.1-4.1s-1.5-3.6-1.5-5.7.6-3.8 1.6-5.6zm3.9 9.2c.6 1.1 1.4 1.9 2.5 2.6 1.1.6 2.2.9 3.5.9s2.4-.3 3.4-.9 1.8-1.5 2.4-2.6.9-2.3.9-3.6-.3-2.5-.9-3.6-1.4-1.9-2.4-2.6c-1-.6-2.2-.9-3.4-.9s-2.4.3-3.4.9-1.9 1.5-2.4 2.6c-.6 1.1-.9 2.3-.9 3.6-.2 1.4.1 2.5.7 3.6z"/><path d="m301.3 38.3c-1 0-1.7.2-2.2.6s-.8 1-.8 1.7.4 1.3 1.2 1.9c.8.5 1.8 1 3.1 1.5 1 .4 1.9.8 2.7 1.3.7.5 1.4 1.2 1.9 2 .5.9.7 2 .7 3.3 0 1.1-.3 2.2-.9 3.2s-1.5 1.7-2.6 2.3-2.5.9-4.1.9c-1.3 0-2.6-.2-3.9-.6s-2.5-1-3.6-1.8l1.9-3.4c.8.6 1.6 1 2.6 1.4s1.9.5 2.6.5c.9 0 1.7-.2 2.4-.6s1-1 1-1.9c0-1.1-1.1-2.1-3.2-3-1.3-.5-2.3-1-3.2-1.4-.8-.5-1.6-1.1-2.2-2s-.9-1.9-.9-3.2c0-1.9.6-3.4 1.9-4.6s2.9-1.8 5-1.9c1.6 0 3 .2 4.1.6s2.2.9 3.2 1.6l-1.7 3.3c-2-1.2-3.6-1.7-5-1.7z"/><path d="m120.7 34.2v18.4h10.6v4.3h-15.1v-22.6z"/><path d="m135.5 39.8c1-1.8 2.4-3.2 4.2-4.3s3.7-1.6 5.8-1.6 4 .5 5.8 1.6 3.2 2.5 4.3 4.3 1.6 3.7 1.6 5.8-.5 4-1.6 5.8-2.5 3.2-4.3 4.2-3.7 1.6-5.8 1.6-4-.5-5.8-1.6c-1.8-1-3.2-2.4-4.2-4.2s-1.6-3.7-1.6-5.8.6-4 1.6-5.8zm4 9.4c.6 1.1 1.5 2 2.6 2.6 1.1.7 2.3 1 3.6 1s2.4-.3 3.5-1 1.9-1.5 2.5-2.6.9-2.3.9-3.6-.3-2.6-.9-3.7-1.5-2-2.5-2.6c-1.1-.7-2.2-1-3.5-1s-2.5.3-3.5 1c-1.1.7-1.9 1.5-2.5 2.6s-.9 2.3-.9 3.7c-.2 1.4.1 2.6.7 3.6z"/><path d="m168.5 38.1c-1 0-1.7.2-2.3.6s-.8 1-.8 1.7.4 1.3 1.2 1.9c.8.5 1.8 1.1 3.1 1.6 1.1.4 2 .8 2.7 1.3s1.4 1.2 1.9 2.1.7 2 .7 3.4c0 1.2-.3 2.2-.9 3.2s-1.5 1.8-2.7 2.4-2.6.9-4.2.9c-1.4 0-2.7-.2-4-.6s-2.6-1-3.7-1.8l2-3.5c.8.6 1.7 1.1 2.7 1.4 1 .4 1.9.6 2.7.6.9 0 1.8-.2 2.5-.6s1.1-1.1 1.1-2c0-1.2-1.1-2.2-3.3-3-1.3-.5-2.4-1-3.2-1.5-.9-.5-1.6-1.2-2.2-2-.6-.9-.9-2-.9-3.3 0-2 .7-3.5 1.9-4.7 1.3-1.2 3-1.8 5.1-1.9 1.7 0 3.1.2 4.2.6s2.2.9 3.3 1.6l-1.7 3.4c-2-1.2-3.7-1.8-5.2-1.8z"/></g></svg>