<svg viewBox="0 0 4909.49 4929.41" xmlns="http://www.w3.org/2000/svg"><path d="m2455 285.31c-1198.39 0-2170.17 971.47-2170.17 2169.62 0 1198.31 971.78 2170.17 2170.17 2170.17 1198.15 0 2169.62-971.86 2169.62-2170.17 0-1198.15-971.47-2169.62-2169.62-2169.62m0 4169.35c-1104.16 0-1999.57-895.57-1999.57-1999.73s895.43-1999.34 1999.57-1999.34 1999.1 895.26 1999.1 1999.34-895 1999.73-1999.1 1999.73" fill="#0a1e3f"/><path d="m2455 455.59c-1104.16 0-1999.57 895.26-1999.57 1999.18 0 1104.32 895.41 1999.89 1999.57 1999.89s1999.1-895.57 1999.1-1999.89c0-1103.92-895-1999.18-1999.1-1999.18m0 3891c-1044.79 0-1891.69-846.58-1891.69-1891.85 0-1044.4 846.9-1891.29 1891.69-1891.29 1044.4 0 1891.14 846.89 1891.14 1891.29 0 1045.27-846.74 1891.85-1891.14 1891.85" fill="#95b6e5"/><path d="m2455 563.48c-1044.79 0-1891.69 846.89-1891.69 1891.78s846.92 1891.38 1891.69 1891.38c1044.4 0 1891.14-846.58 1891.14-1891.38s-846.72-1891.78-1891.14-1891.78" fill="#0a1e3f"/><path d="m2151 3037.7h397.2c157.33 0 266.85-55.85 266.85-213 0-168-117.24-223.95-266.85-223.95h-397.2zm0-756.8h383.7c85.26 0 202.89-45.24 202.89-181.21 0-138.45-98.6-184.16-202.89-184.16h-383.7zm-495.72-749.15h890.18c328.16-5.16 688 80 688 477 0 170.52-101.48 309.37-250.86 384.1 202.88 58.66 327.92 234.4 327.92 450.47 0 453.21-332.91 591.9-740.81 591.9h-914.47z" fill="#fff"/><path d="m4596.25 4160.58c0 104.52-84.17 187.68-191 187.68-107.18 0-192.36-83.16-192.36-187.68 0-104.92 85.18-186.74 193.29-186.74 105.9 0 190.07 81.82 190.07 186.74zm-335.59 0c0 82.76 62.79 149 145.56 149 81 1.17 142.44-66.23 142.44-148.06 0-83.07-61.46-150.23-144.7-150.23-80.51 0-143.3 67.15-143.3 149.29zm115.14 96.68h-43.46v-186.77c17-2.27 41-5.62 71.61-5.62 35.49 0 51.26 5.62 63.81 14.82 11.47 8 19.43 21.68 19.43 39.78 0 22.62-17.17 37.6-38.86 44.46v2.19c18.42 5.69 27.31 20.44 33.16 45.48 5.7 28.54 10.3 38.76 13.49 45.63h-45.32c-5.61-6.87-9.2-22.78-14.66-45.63-3.67-19.2-15-28.4-38.84-28.4h-20.36zm.93-104.61h20.6c23.7 0 43.13-8.11 43.13-27.53 0-17.08-12.48-28.32-39.78-28.32-11.55 0-19.43 1-24 2.34z" fill="#0a1e3f"/></svg>