<svg enable-background="new 0 0 368.9 49.2" viewBox="0 0 368.9 49.2" xmlns="http://www.w3.org/2000/svg"><g fill="#fff"><path d="m4.5 9.8h9.4c5.5 0 7.3 4 7.3 8 0 5.5-3.4 8-8.5 8h-2.8v10.6h-5.4zm5.4 12.1h2.4c2.1 0 3.6-1.3 3.6-4s-1.1-4.1-3.7-4.1h-2.3z"/><path d="m32 9.3c8 0 9 5.7 9 13.8s-1 13.9-9 13.9-9.1-5.8-9.1-13.9 1-13.8 9.1-13.8zm0 23.7c3.2 0 3.7-2.7 3.7-9.9s-.5-9.9-3.7-9.9-3.7 2.8-3.7 9.9.5 9.9 3.7 9.9z"/><path d="m42.3 9.8h5.1l3 19.7h.1l3.1-19.7h5.2l3.1 19.7h.1l3-19.7h5l-4.8 26.6h-6l-3-19.3h-.1l-3 19.3h-6z"/><path d="m86.7 9.8v4.4h-9.5v6.3h9v4.4h-9v7.2h9.9v4.4h-15.3v-26.7z"/><path d="m89.4 9.8h9.9c4.4 0 7.1 2.3 7.1 6.9 0 3.5-1.4 5.9-4.4 6.6v.1c3.7.5 4.2 2.5 4.3 8.1 0 2.8.2 4.3 1.2 4.8v.2h-5.8c-.5-.8-.7-1.8-.7-2.8l-.2-5.1c-.1-2.1-1-3.4-3.2-3.4h-2.9v11.2h-5.4v-26.6zm5.4 11.7h2.2c2.6 0 4-1.1 4-4 0-2.5-1.3-3.7-3.7-3.7h-2.5z"/><path d="m124.7 9.8v4.4h-9.5v6.3h9v4.4h-9v7.2h9.9v4.4h-15.2v-26.7z"/><path d="m127.6 9.8h8.8c7.5 0 8.8 5.1 8.8 13 0 9.5-2 13.7-9.1 13.7h-8.5zm5.4 22.7h2.4c3.7 0 4.5-2.4 4.5-9.6 0-6-.5-9.1-4.6-9.1h-2.3z"/><path d="m157 9.8h9c4.4 0 7.6 1.6 7.6 6.8 0 2.9-1.4 5.1-4 5.8v.1c3 .4 4.9 2.7 4.9 6.2 0 4.2-2.1 7.8-8.3 7.8h-9.2zm5.4 11h1.5c3 0 4.3-1 4.3-3.5s-1.2-3.5-3.9-3.5h-1.9zm0 11.7h2.1c2.6 0 4.3-.9 4.3-4s-1.8-4-4.1-4h-2.3z"/><path d="m181.6 9.8 3.5 10.3h.1l3.7-10.3h5.8l-6.9 16.2v10.5h-5.4v-10.5l-6.9-16.2z"/><path d="m203.3 2.2h24.1c4 0 7.1 1 9.3 3 2.1 1.9 3.3 4.6 3.2 7.4 0 2.3-.8 4.6-2.3 6.3-1.2 1.3-2.8 2.3-4.5 2.8 2.5.5 4.9 1.8 6.6 3.7 1.5 1.9 2.2 4.2 2.1 6.6 0 2-.5 4-1.5 5.8-1 1.7-2.4 3.1-4.1 4.1-1.5.8-3.2 1.2-4.9 1.3-1.9.3-3.8.5-5.8.6h-22.2zm13 16.3h5.6c2 0 3.4-.3 4.2-1 .8-.8 1.3-1.9 1.2-3 .1-1.1-.4-2.1-1.2-2.8s-2.2-1-4.1-1h-5.7zm0 16.3h6.6c2.2 0 3.8-.4 4.7-1.2s1.4-1.9 1.4-3.1-.5-2.3-1.4-3-2.5-1.1-4.8-1.1h-6.6z"/></g><g fill="#95b6e5"><path d="m242.7 2.2h12.8v31.4h20.1v10.2h-32.9z"/><path d="m302.6 2.2h12.8v24.8c0 2.4-.4 4.7-1.1 7-.7 2.2-2 4.1-3.6 5.7-1.4 1.5-3.2 2.7-5.2 3.5-2.9 1-5.9 1.5-9 1.4-2.2 0-4.4-.2-6.6-.4-2.1-.2-4.1-.8-6-1.7-1.7-.9-3.2-2.1-4.4-3.6-1.2-1.4-2.2-3-2.8-4.8-.7-2.3-1.1-4.6-1.2-7v-24.9h12.8v25.4c-.1 2 .6 3.9 1.9 5.3 1.4 1.3 3.3 2 5.2 1.9 1.9.1 3.8-.5 5.2-1.8 1.3-1.5 2-3.4 1.9-5.4v-25.4z"/><path d="m331.8 26.5c.4 4.7 3.1 8 8.1 8 2.6 0 5.4-1 6.6-2.9h14.8c-3.2 8.9-12 13.1-21.4 13.1-13.3 0-23.3-7.8-23.3-21.6 0-12 8.8-21.8 22-21.8 16.5 0 23.7 9.1 23.7 25.2zm15.2-8.2c.1-3.8-2.9-6.9-6.7-6.9-.1 0-.2 0-.3 0-4.7 0-7.5 2.5-8.2 6.9z"/><path d="m365.3 6c.1 1.9-1.5 3.6-3.4 3.6-1.9.1-3.6-1.5-3.6-3.4-.1-1.9 1.5-3.6 3.4-3.6h.1c1.9-.1 3.4 1.5 3.5 3.4zm-6.2 0c0 1.5 1.1 2.7 2.6 2.7h.1c1.5 0 2.6-1.2 2.6-2.7v-.1c0-1.5-1.2-2.7-2.6-2.7-1.5.1-2.7 1.3-2.7 2.8zm2.1 1.8h-.8v-3.5c.4-.1.9-.1 1.3-.1s.8.1 1.2.3c.2.2.4.4.4.7 0 .4-.3.7-.7.8.3.1.5.4.6.8 0 .3.1.6.2.8h-.8c-.1-.3-.2-.5-.3-.8s-.3-.5-.7-.5h-.4zm0-1.9h.4c.4 0 .8-.2.8-.5s-.2-.5-.7-.5c-.1 0-.3 0-.4 0v1z"/></g></svg>