<svg enable-background="new 0 0 248.5 164.7" viewBox="0 0 248.5 164.7" xmlns="http://www.w3.org/2000/svg"><path d="m233.9 158.2h-219.3c-4.8 0-8.7-3.9-8.7-8.7v-134.3c0-4.8 3.9-8.7 8.7-8.7h219.3c4.8 0 8.7 3.9 8.7 8.7v134.4c0 4.7-3.9 8.6-8.7 8.6z" fill="#0f1f3e"/><g fill="#fff"><path d="m132.3 95.9h-39.4c2.5 3 5.7 5.4 9.2 7 3.3 1.5 6.8 2.2 10.5 2.2 7.6-0 14.8-3.4 19.7-9.2z"/><path d="m149.5 89.2c-.9 1-1.8 2-2.7 3s-1.9 1.9-2.9 2.8c-.3.3-.7.6-1 .8-6.4 5.2-18.5 10.4-29.3 10.4-3.5 0-6.6-.5-9.3-1.6 6.9 5.8 14.5 8.5 23.2 8.5 6.6 0 13.1-1.8 18.7-5.2l.1-.1c.3-.2 1.2-.8 1.5-1 1.3-.9 2.6-1.9 3.8-3 2.6-2.4 4.9-5.2 6.8-8.2.2-.3.3-.5.5-.8 2.4-4.3 3.9-8.9 4.4-13.7-4.8.6-9.2 3-12.4 6.6-.6.6-1 1.1-1.4 1.5z"/><path d="m156.4 78.2c-.3 0-.6 0-1 0-5.5.2-11.1 2.1-17.5 6-.8.5-1.6 1-2.4 1.5-.5.3-1 .7-1.5 1-1.3.9-2.8 1.9-4.3 2.7-2.3 1.2-5 2.2-8.2 3-2.6.7-5.3 1-8 1.1h-.1c-.7 0-1.4 0-2.2 0-1.1-.1-2.2-.2-3.2-.4-4.5-1-8.5-3.5-11.4-7-3-3.6-4.6-8.2-4.6-12.8v-.1c0-.8 0-1.6.1-2.3.2-1.1.9-2 1.9-2.4.7-.2 1.6-.2 2.2 0l.6.3c.2.1.4.2.6.3.4.2.8.3 1.1.4.5.2 1 .4 1.5.6.8.3 1.6.6 2.4.6.3 0 .6 0 .9-.1 1.1-.3 1.8-.8 2.7-1.8l2.4-2.8c-.3.1-.9.1-1.6.1-1.2 0-2.4-.2-3.5-.6l-5.7-2s-.3-.1-.7-.1c-.5 0-1.3.1-2 .9l-2 2.1-.1-.4 1.2-2.6c.8-1.6-.2-2.8-.2-2.8l-3.8-4.6c-1.6-1.7-2.1-3.8-2.2-4.6l-1.8 3.3c-.6 1.2-.9 2-.8 3.1.1 1.2.7 2 1.6 2.9.3.4.7.8 1 1.1s.6.6.8 1c.8 1 1.6 1.9 1.7 3.2 0 .6-.4 1.6-.5 1.8-1.9 3.6-2.8 7.6-2.8 11.7 0 5.6 1.8 10.9 5.1 15.3h50.3c2.6-2.1 5-4.6 7.1-7.2s0 0 0-.1c1-1.2 2.1-2.3 3.4-3.2 3-2.3 6.6-3.8 10.3-4.2 0-.4.1-.8.1-1.2-2.2-.5-4.5-.8-6.9-.7z"/></g></svg>