<svg clip-rule="evenodd" fill-rule="evenodd" stroke-linejoin="round" stroke-miterlimit="2" viewBox="0 0 356 99" xmlns="http://www.w3.org/2000/svg"><g transform="matrix(1.38687 0 0 .58673 -833.603 169.562)"><path d="m601.736-288.994h255.766v167.5h-255.766z" fill="none"/><g fill="#05263e"><path d="m0-46.214h-17.951v-11.776h47.579v11.776h-17.852v57.99h-11.776z" fill-rule="nonzero" transform="matrix(.297031 0 0 .702103 626.6390752071 -187.52040269)"/><path d="m0-69.766h43.483v11.776h-31.707v17.219h28.085v11.776h-28.085v17.219h31.707v11.776h-43.483z" fill-rule="nonzero" transform="matrix(.297031 0 0 .702103 645.539425065 -179.252437762)"/><path d="m0-16.11v42.849h-11.776v-71.587l41.939 44.849v-43.028h11.776v71.765z" fill-rule="nonzero" transform="matrix(.297031 0 0 .702103 672.78756385 -198.026671982)"/><path d="m0 46.214c12.964 0 23.117-10.232 23.117-23.117 0-12.766-10.153-23.097-23.117-23.097h-8.51v46.214zm-20.287-57.99h20.287c19.297 0 34.893 15.576 34.893 34.873 0 19.317-15.596 34.893-34.893 34.893h-20.287z" fill-rule="nonzero" transform="matrix(.297031 0 0 .702103 702.769278928 -219.9678119938)"/><path d="m0-69.766h43.483v11.776h-31.707v17.219h28.085v11.776h-28.085v17.219h31.707v11.776h-43.483z" fill-rule="nonzero" transform="matrix(.297031 0 0 .702103 723.932737678 -179.252437762)"/><path d="m0-16.11v42.849h-11.776v-71.587l41.939 44.849v-43.028h11.776v71.765z" fill-rule="nonzero" transform="matrix(.297031 0 0 .702103 751.174935843 -198.026671982)"/><path d="m0-.179c0-20.029 16.209-35.704 36.239-35.704 5.878 0 11.044 1.365 16.209 4.077v14.586c-5.165-4.611-9.876-6.709-16.387-6.709-13.419 0-24.107 10.43-24.107 23.829 0 13.241 10.411 23.829 24.008 23.829 6.986 0 11.519-2.157 16.486-6.788v14.685c-5.165 2.712-10.331 4.078-16.209 4.078-20.208 0-36.239-15.953-36.239-35.883" fill-rule="nonzero" transform="matrix(.297031 0 0 .702103 774.43454236 -203.681409544)"/><path d="m644.741 70.415h11.776v69.766h-11.776z" transform="matrix(.297031 0 0 .702103 609.416 -277.674640508)"/><path d="m0-71.587c-10.569 23.862-21.138 47.724-31.706 71.587h13.32c6.128-14.983 12.257-29.965 18.386-44.948 6.129 14.983 12.258 29.965 18.386 44.948h13.32c-10.568-23.863-21.137-47.725-31.706-71.587" fill-rule="nonzero" transform="matrix(.297031 0 0 .702103 823.433964244 -179.252437762)"/></g><path d="m0-20.477c1.539-1.085 3.267-1.628 5.183-1.628 2.835 0 5.105.997 6.811 3.001 1.705 1.994 2.558 4.375 2.558 7.121 0 2.082-.399 3.954-1.185 5.615-.797 1.672-1.894 3.101-3.311 4.308-1.418 1.207-3.079 2.127-4.995 2.747-1.916.631-3.876.941-5.869.941v-1.251c2.912-.576 5.183-1.518 6.799-2.813 1.628-1.285 2.437-3.267 2.437-5.925 0-.753-.078-1.44-.244-2.06-.166-.631-.332-1.152-.509-1.562-.742.576-1.573.975-2.492 1.185-.919.211-1.706.31-2.37.31-1.672 0-2.935-.564-3.81-1.683-.875-1.13-1.318-2.315-1.318-3.566 0-2.082.776-3.666 2.315-4.74" fill="#d1b888" fill-rule="nonzero" transform="matrix(.297031 0 0 .702103 833.607573025 -217.1181163374)"/></g></svg>