<svg enable-background="new 0 0 185 100" viewBox="0 0 185 100" xmlns="http://www.w3.org/2000/svg" xmlns:xlink="http://www.w3.org/1999/xlink"><linearGradient id="a" gradientUnits="userSpaceOnUse" x1="38.854097" x2="137.946792" y1="-1.792273" y2="93.964193"><stop offset="0" stop-color="#dff4ff"/><stop offset=".1" stop-color="#d6eaf5"/><stop offset=".27" stop-color="#bfd0d9"/><stop offset=".49" stop-color="#98a5ac"/><stop offset=".75" stop-color="#646b6e"/><stop offset="1" stop-color="#2b2b2b"/></linearGradient><radialGradient id="b" cx="45.170875" cy="6.26709" gradientUnits="userSpaceOnUse" r="66.351363"><stop offset="0" stop-color="#fff"/><stop offset=".31" stop-color="#a8a8a8"/><stop offset=".65" stop-color="#4f4f4f"/><stop offset=".89" stop-color="#161616"/><stop offset="1"/></radialGradient><linearGradient id="c" gradientTransform="matrix(-2.47 0 0 -2.47 10608.833 1308.72)" gradientUnits="userSpaceOnUse" x1="4243.8862" x2="4269.4375" y1="496.3088" y2="520.9999"><stop offset="0" stop-color="#dff4ff"/><stop offset=".09" stop-color="#d6eaf5"/><stop offset=".23" stop-color="#bed0d9"/><stop offset=".42" stop-color="#96a4ac"/><stop offset=".65" stop-color="#5f686d"/><stop offset=".91" stop-color="#1a1d1e"/><stop offset="1"/></linearGradient><linearGradient id="d"><stop offset="0" stop-color="#fff"/><stop offset=".31" stop-color="#fdfdfd"/><stop offset=".45" stop-color="#f6f6f6"/><stop offset=".56" stop-color="#e9e9e9"/><stop offset=".65" stop-color="#d7d7d7"/><stop offset=".72" stop-color="#bfbfbf"/><stop offset=".79" stop-color="#a2a2a2"/><stop offset=".86" stop-color="#808080"/><stop offset=".92" stop-color="#575757"/><stop offset=".97" stop-color="#2b2b2b"/><stop offset="1" stop-color="#141414"/></linearGradient><radialGradient id="e" cx="33.25436" cy="-.489101" gradientUnits="userSpaceOnUse" r="159.431831" xlink:href="#d"/><radialGradient id="f" cx="33.24695" cy="-.489101" gradientUnits="userSpaceOnUse" r="159.445663" xlink:href="#d"/><radialGradient id="g" cx="33.238552" cy="-.536278" gradientUnits="userSpaceOnUse" r="159.568175" xlink:href="#d"/><linearGradient id="h"><stop offset="0" stop-color="#e6e6e6"/><stop offset=".1" stop-color="#d6d6d6"/><stop offset=".31" stop-color="#adadad"/><stop offset=".59" stop-color="#6c6c6c"/><stop offset=".93" stop-color="#121212"/><stop offset="1"/></linearGradient><radialGradient id="i" cx="61.808795" cy="21.613447" gradientUnits="userSpaceOnUse" r="43.003935" xlink:href="#h"/><radialGradient id="j" cx="73.570441" cy="27.397693" gradientUnits="userSpaceOnUse" r="62.539412"><stop offset="0" stop-color="#fff"/><stop offset=".34" stop-color="#fdfdfd"/><stop offset=".48" stop-color="#f6f6f6"/><stop offset=".58" stop-color="#eaeaea"/><stop offset=".67" stop-color="#d8d8d8"/><stop offset=".74" stop-color="#c2c2c2"/><stop offset=".8" stop-color="#a6a6a6"/><stop offset=".86" stop-color="#848484"/><stop offset=".91" stop-color="#5f5f5f"/><stop offset=".95" stop-color="#404040"/><stop offset=".96" stop-color="#404040"/><stop offset="1" stop-color="#404040"/><stop offset="1"/></radialGradient><linearGradient id="k"><stop offset=".17" stop-color="#fff"/><stop offset=".2" stop-color="#e0eff7"/><stop offset=".24" stop-color="#b2d9ec"/><stop offset=".29" stop-color="#8bc5e2"/><stop offset=".34" stop-color="#6bb5da"/><stop offset=".38" stop-color="#52a9d4"/><stop offset=".44" stop-color="#41a0cf"/><stop offset=".49" stop-color="#369bcd"/><stop offset=".56" stop-color="#39c"/><stop offset=".61" stop-color="#3396c8"/><stop offset=".66" stop-color="#328ebc"/><stop offset=".7" stop-color="#3180a8"/><stop offset=".75" stop-color="#2f6d8c"/><stop offset=".8" stop-color="#2d5468"/><stop offset=".85" stop-color="#2a373d"/><stop offset=".87" stop-color="#292929"/></linearGradient><radialGradient id="l" cx="55.208461" cy="3.69088" gradientUnits="userSpaceOnUse" r="110.758505" xlink:href="#k"/><radialGradient id="m" cx="55.208461" cy="3.690386" gradientUnits="userSpaceOnUse" r="110.756776" xlink:href="#k"/><radialGradient id="n" cx="62.395667" cy="22.155118" gradientUnits="userSpaceOnUse" r="42.179202" xlink:href="#h"/><linearGradient id="o"><stop offset="0" stop-color="#f0f4ff"/><stop offset=".11" stop-color="#ebeff9"/><stop offset=".25" stop-color="#dce0ea"/><stop offset=".4" stop-color="#c4c7cf"/><stop offset=".57" stop-color="#a2a4ab"/><stop offset=".75" stop-color="#76777c"/><stop offset=".93" stop-color="#414243"/><stop offset="1" stop-color="#2b2b2b"/></linearGradient><linearGradient id="p" gradientUnits="userSpaceOnUse" x1="86.836811" x2="127.970215" xlink:href="#o" y1="11.714181" y2="51.462903"/><linearGradient id="q" gradientUnits="userSpaceOnUse" x1="53.502679" x2="94.636083" xlink:href="#o" y1="45.219731" y2="84.968206"/><linearGradient id="r" gradientUnits="userSpaceOnUse" x1="73.376793" x2="94.706231" y1="31.072065" y2="51.68298"><stop offset="0" stop-color="#c2d7e8"/><stop offset=".13" stop-color="#bacfe1"/><stop offset=".34" stop-color="#a4bacd"/><stop offset=".6" stop-color="#8098ac"/><stop offset=".89" stop-color="#4e697f"/><stop offset="1" stop-color="#3a566d"/></linearGradient><linearGradient id="s" gradientUnits="userSpaceOnUse" x1="62.705652" x2="103.425331" y1="36.110371" y2="75.458953"><stop offset="0" stop-color="#f0f4ff"/><stop offset=".1" stop-color="#e8ebf6"/><stop offset=".26" stop-color="#d1d4dd"/><stop offset=".46" stop-color="#abaeb5"/><stop offset=".69" stop-color="#78797d"/><stop offset=".96" stop-color="#363637"/><stop offset="1" stop-color="#2b2b2b"/></linearGradient><linearGradient id="t" gradientUnits="userSpaceOnUse" x1="92.706025" x2="106.989541" y1="50.719186" y2="64.52204"><stop offset="0" stop-color="#d9def0"/><stop offset=".12" stop-color="#d4daec"/><stop offset=".26" stop-color="#c7cfe2"/><stop offset=".41" stop-color="#b0bcd1"/><stop offset=".57" stop-color="#90a1b8"/><stop offset=".72" stop-color="#677f99"/><stop offset=".89" stop-color="#355674"/><stop offset=".97" stop-color="#173d5d"/></linearGradient><linearGradient id="u" gradientUnits="userSpaceOnUse" x1="78.083131" x2="118.758844" xlink:href="#o" y1="21.201698" y2="60.507549"/><path d="m92.5 3.4c-25.8 0-46.7 20.8-46.7 46.6s20.9 46.6 46.6 46.6 46.6-20.9 46.6-46.6-20.8-46.6-46.5-46.6zm0 90.9c-24.5 0-44.3-19.8-44.3-44.3s19.8-44.3 44.3-44.3 44.3 19.8 44.3 44.3-19.9 44.3-44.3 44.3z" fill="url(#a)"/><path d="m137.1 50c0 24.6-20 44.6-44.6 44.6s-44.7-20-44.7-44.6 20-44.6 44.6-44.6 44.7 19.9 44.7 44.6z" fill="#333"/><path d="m136.7 50c0 24.5-19.8 44.3-44.3 44.3s-44.2-19.8-44.2-44.3 19.8-44.3 44.3-44.3 44.2 19.8 44.2 44.3z" fill="url(#b)"/><path d="m122.2 50c0 16.4-13.3 29.7-29.7 29.7s-29.7-13.3-29.7-29.7 13.2-29.7 29.7-29.7 29.7 13.3 29.7 29.7z" fill="url(#c)"/><path d="m93.6 19.5 3.1-8.2v8.2h2.3v-11.7h-3.5l-3.2 8.4-3.2-8.4h-3.5v11.7h2.4v-8.2l3.1 8.2zm32.2 5.2-4 5.8 6.3-3.1 1.7 2-9.9 5-2-2.4 3.8-5.8-6.4 2.7-2-2.4 6.7-8.8 1.7 2-4.2 5.6 6.5-2.9z"/><path d="m71.7 22.5c-.9-.9-2.4-1.2-3.8-.3.3-.7.2-1.4 0-1.7-.6-1.1-.8-1.2-1.3-1.6-1.6-1.3-3.2-.2-4.4 1.2l-5.7 6.8 9 7.5 6-7.2c1.4-1.7 1.7-3.3.2-4.7zm-11.6 3.3 3.4-4.1c.4-.5 1.3-.5 1.9 0s.6 1.3.2 1.8l-3.4 4zm9.5.7-3.6 4.2-2.2-1.9 3.6-4.3c.4-.5 1.3-.6 1.9-.1.7.6.7 1.5.3 2.1z" fill="#333"/><path d="m93.7 19 3.1-8.2v8.2h2.3v-11.7h-3.5l-3.2 8.4-3.2-8.4h-3.5v11.7h2.3v-8.2l3.1 8.2z" fill="url(#e)"/><path d="m125.8 24-4 5.8 6.3-3.1 1.7 2-9.9 5-2-2.4 3.8-5.8-6.4 2.7-2-2.4 6.7-8.8 1.7 2-4.2 5.6 6.5-2.9z" fill="url(#f)"/><path d="m71.3 22.3c-.9-.9-2.4-1.2-3.8-.3.3-.7.2-1.4 0-1.7-.6-1.1-.8-1.2-1.3-1.6-1.6-1.3-3.2-.2-4.4 1.2l-5.7 6.8 9 7.5 6-7.2c1.4-1.7 1.6-3.3.2-4.7zm-11.6 3.3 3.4-4.1c.4-.5 1.3-.5 1.9 0s.6 1.3.2 1.8l-3.4 4zm9.4.6-3.6 4.3-2.2-1.9 3.6-4.3c.4-.5 1.3-.6 1.9-.1.7.6.8 1.5.3 2z" fill="url(#g)"/><path d="m63.7 50c0-15.9 12.9-28.7 28.7-28.7s28.7 12.9 28.7 28.7-12.9 28.7-28.7 28.7-28.7-12.8-28.7-28.7z" fill="url(#i)"/><path d="m64.6 50c0-15.4 12.5-27.9 27.9-27.9s27.9 12.5 27.9 27.9-12.5 27.9-27.9 27.9-27.9-12.5-27.9-27.9z" fill="url(#j)"/><path d="m64.5 50h27.9v-27.9c-15.4 0-27.9 12.5-27.9 27.9z" fill="url(#l)"/><path d="m92.5 50v27.9c15.4 0 27.9-12.5 27.9-27.9z" fill="url(#m)"/><path d="m120.6 49.5h-27.7v-27.7h-1v27.7h-27.6v1h27.7v27.7h1v-27.7h27.7v-1z" fill="url(#n)"/><path d="m92.9 22.6c14.7.3 26.6 12.1 26.9 26.9h.5c-.3-15-12.4-27.1-27.4-27.4z" fill="url(#p)"/><path d="m65 49.5c.3-14.7 12.2-26.7 26.9-26.9v-.5c-15 .3-27.1 12.4-27.4 27.4z" fill="#c2d7e8"/><path d="m92 77.4c-14.7-.3-26.6-12.1-26.9-26.9h-.5c.2 15 12.4 27.1 27.4 27.4z" fill="url(#q)"/><path d="m119.8 50.5c-.3 14.7-12.2 26.6-26.9 26.9v.5c15-.3 27.1-12.4 27.4-27.4z" fill="#12404f"/><path d="m91.4 22.1v26.9h-26.8v.5h27.4v-27.4z" fill="url(#r)"/><path d="m91.4 77.6v-26.5h-26.6v-.5h27.1v27.1h-.5z" fill="url(#s)"/><path d="m93.5 77.6v-26.5h26.5v-.5h-27v27.1h.5z" fill="url(#t)"/><path d="m93.5 22.3v26.5h26.5v.5h-27v-27z" fill="url(#u)"/></svg>