<svg enable-background="new 0 0 185 100" viewBox="0 0 185 100" xmlns="http://www.w3.org/2000/svg"><g fill="#fff"><path d="m28.3 17.5c1.9 0 3.8-.1 5.7-.1.8 0 .9.2.9.5 0 1.1-3.6-.4-3.6 2.8v21.1c0 1.7.7 2.8 3.4 2.8 4.3 0 7.4-3 9.2-6.4 1.2-2.5 1-3.4 1.6-3.4.2 0 .4.2.4.4v.1c0 .4-.1.8-.2 1.2l-1.8 9.1c-4.3 0-11.2-.1-14.5-.1h-1.6c-1.3 0-2.1 0-2.6 0h-2.7c-.8 0-.9-.2-.9-.5 0-.5.8-.5 1.5-.6 1-.1 2.1-.5 2.1-2.2v-21.5c0-3.1-3.6-1.7-3.6-2.7 0-.3 0-.6.9-.6 2 0 4 .1 5.8.1z"/><path d="m63.2 46.2c-9 0-15.3-6.8-15.3-14.7s6.3-14.7 15.3-14.7 15.3 6.7 15.3 14.7-6.3 14.7-15.3 14.7zm8.5-14.7c0-8.7-3.3-13.7-8.6-13.7-5 0-8.5 4.7-8.5 13.7s3.3 13.7 8.5 13.7 8.6-4.9 8.6-13.7z"/><path d="m99.8 17.3c.3 0 .5.2.5.7l.8 7.9c.1.5.1.9.1 1.4 0 .3-.1.4-.3.4-.5 0-.3-.7-1.6-3.6-1.6-3.8-3.8-6.3-8.2-6.3-3.4 0-5.3 1.7-5.3 4.4 0 2.4 1.9 3.5 5.7 4.7 2 .5 4 1.2 5.9 2 3.5 1.7 5.2 4 5.2 7.5 0 5.5-4.6 9.7-10.9 9.7-4 0-6.1-1.9-7.6-1.9s-1.3 1.4-2 1.4c-.2 0-.3-.1-.3-.3v-11.5c0-.3.1-.6.4-.6.5 0 .4 1 1 3.6 1.3 5 3.7 8.4 8.7 8.4 4.3 0 6.6-2.1 6.6-5.3 0-1.8-1-3.6-2.6-4.4-1.7-.9-3.5-1.6-5.3-2.1-5.4-1.6-8.6-3.4-8.6-8.1s4-8.5 9.3-8.5c4 0 5.9 1.7 7.1 1.7 1.3 0 .7-1.2 1.4-1.2z"/><path d="m46 54.8c.1-.4.1-.8.5-.8s.5.2.5.5v10.5c0 .4-.1.8-.5.8-.7 0-.3-1.5-1.7-4.6-1.6-3.6-4.3-6.7-8.1-6.7-5.3 0-8.1 4.7-8.1 13.7s2.9 13.7 8.4 13.7c3.8 0 6.8-3.5 8.2-6.4 1.5-3.1.8-4.5 1.6-4.5.3 0 .4.3.4.6v11c0 .5-.2.7-.5.7-.8 0-.1-2.3-2-2.3-1.6 0-3.7 2-8.4 2-8.5 0-14.4-6.4-14.4-14.7-.1-8 6.3-14.5 14.2-14.7h.1c4.6 0 6.8 2.3 8.6 2.3 1-.1 1.1-.7 1.2-1.1z"/><path d="m76.1 78.8c.3.9.9 1.7 1.7 2.3.4.2.8.4 1.2.5.5.1.7.2.7.4s-.1.3-.6.3c-1.9 0-4.8-.1-5.6-.1l-5.7.1c-.6 0-.7-.2-.7-.4 0-.3.4-.4 1.3-.5 1-.2 1.6-.7 1.6-1.7-.1-.9-.3-1.8-.8-2.6-.8-1.8-1.5-3.6-2.3-5.4h-9.4c-.8 2.3-1.7 4-1.7 6.2-.1 1.5.8 3 2.3 3.5.8.3 1.2.5 1.2.7s0 .3-.5.3c-1 0-3.9-.1-4.5-.1l-4.7.1c-.5 0-.6-.1-.6-.4 0-.4.3-.5 1-.6 1-.3 1.9-.9 2.6-1.7 1-1 2.3-3.1 3.4-6.3l5.2-13.5c.2-.4.3-.9.3-1.3s-.3-.7-.6-.9c-.4-.2-.6-.4-.6-.5s.5-.4 1.3-1c.8-.7 1.6-1.4 2.3-2.3.9-1 1-1.5 1.2-1.5.3 0 .5.6.7 1.1zm-18.2-8h8.8l-4.5-11.1z"/><path d="m87.1 54.1c1 0 4.7-.1 7.3-.1 6.3 0 10 2.8 10 6.8s-2.9 5.9-9.3 6.5v.1c7.4.2 10.7 2.7 10.7 7 0 2.9-.9 4.8-2.6 6s-4.4 1.7-7.5 1.7c-2.1 0-6.4-.1-8.6-.1-1.9 0-3.8.1-5.7.1-1 0-1-.2-1-.5 0-.4.5-.5 1.1-.5 1.4-.1 2.4-.6 2.4-2.3v-21.5c0-1.9-1.4-2.1-2.4-2.3-.5 0-1.2-.1-1.2-.5 0-.3 0-.5 1-.5zm5.2 12.8c3.8 0 6-2.3 6-5.7 0-4.2-2.5-6.2-5.8-6.2h-2.6v11.9zm-2.3 11.6c0 1.9 1.5 2.7 3.5 2.7 3.8 0 6-2 6-6.5 0-4.9-2.6-6.8-6.4-6.8h-3.1z"/><path d="m123.8 82.8c-9 0-15.3-6.8-15.3-14.7s6.3-14.7 15.3-14.7 15.3 6.7 15.3 14.7-6.3 14.7-15.3 14.7zm8.5-14.7c0-8.7-3.3-13.7-8.5-13.7-5 0-8.5 4.7-8.5 13.7s3.3 13.7 8.5 13.7c5.1 0 8.5-4.9 8.5-13.7z"/><path d="m160.4 53.9c.3 0 .5.2.5.7l.8 7.9c.1.5.1.9.1 1.4 0 .3-.1.4-.3.4-.5 0-.3-.7-1.6-3.6-1.6-3.7-3.8-6.2-8.2-6.2-3.4 0-5.3 1.7-5.3 4.4 0 2.4 1.9 3.5 5.7 4.7 2 .5 4 1.2 5.9 2 3.5 1.7 5.2 4 5.2 7.5 0 5.5-4.6 9.7-10.9 9.7-4.1 0-6.1-1.9-7.6-1.9-1.6 0-1.4 1.4-2.1 1.4-.2 0-.3-.1-.3-.3v-11.5c0-.3.1-.6.4-.6.5 0 .4 1 1 3.6 1.3 5 3.7 8.4 8.6 8.4 4.3 0 6.6-2.1 6.6-5.3 0-1.8-1-3.6-2.6-4.4-1.7-.9-3.5-1.6-5.3-2.1-5.3-1.6-8.5-3.4-8.5-8.1s4-8.5 9.2-8.5c4 0 5.9 1.7 7.1 1.7 1.5 0 .9-1.2 1.6-1.3z"/></g><g fill="#faa31b"><path d="m113 16.8v30.1h30.1v-30.1zm22.9 18.2c.1 0 .2-.1.2-.4 0-.1 0-.3.1-.6 0-.1 0-.2.2-.2.1 0 .2.1.2.1 0 .3 0 .6-.1.9-.3.8-.6.5-.6.8-.1.5 0 1 .1 1.5v.1h-.1c-.1 0-.3-.1-.4-.1s-.1 0-.1-.1c0-.5 0-1 0-1.5-.6.2-.6-.8-.6-1.1 0-.1 0-.3 0-.4s.1-.2.3-.1c.1.1.1.7.2 1 0 .1.1.2.3.2 0-.6 0-1.2.1-1.7.1-.1.2-.1.3-.1.1.2.1.5.1.7-.2.4-.2.8-.2 1zm-1.5-10.7c.2-.3 1.2-1.4 1.4-1.3.3.1-.3 1.4-.5 1.7-.2.2-.5.4-.8.3-.2-.1-.3-.3-.3-.5.1-.1.1-.2.2-.2zm-4.2-1.5c.3-.1.9 1.2 1 1.4 0 .3-.2.6-.5.6-.3.1-.6-.1-.7-.4 0-.2-.1-1.6.2-1.6zm-1.5 6.1c0-.2 0-.3.1-.5s.1-.3.1-.5c.1-.1.1-.3.2-.4s.2-.3.2-.4c.1-.1.2-.2.3-.4.1-.1.1-.1.2-.2l.1-.1.1-.1c.1-.1.3-.2.4-.3s.3-.1.4-.2h.1.1l.2-.1c.2 0 .3-.1.5-.1h.5.5s.1 0 .1.1c0 0 0 .1-.1.1l-.4.1-.4.1c-.1 0-.2.1-.3.2l-.2.1-.1.1-.1.1c-.1.1-.2.2-.3.2-.1.1-.2.2-.3.3l-.1.1-.1.1-.1.1c-.1.1-.1.2-.2.3 0 .1-.1.2-.1.3s-.1.2-.1.3v.3.3.3.1.2s0 .1.1.1c0 0 0 .1.1.1l.1.1v.1.2l.1.1.1.1.1.1h.1.1.1l.2.1h.3.3.6.1c.2 0 .4-.1.6-.2l.3-.1h.1l.2-.2.1-.1.2-.2.1-.1c.1-.1.3-.3.4-.4l.2-.2.1-.1v-.1-.3c0-.1 0-.2 0-.2 0-.1 0-.3-.1-.4h-.1l-.1-.1-.1-.1h-1.1-.2-.1-.3l-.2.1h-.1-.1l-.1.1-.4.2h-.1v-.1-.1l.1-.1.1-.1.2-.2.3-.2.1-.1.2-.1.2-.1h.1l.2-.1.2-.1h.5.2l.2.1c.1 0 .2 0 .2.1l.1.1.1.1.1.1.1.1h.1c.2.2.4.6.5.9v.5.2.4c0 .1-.1.1-.1.2-.1.1-.1.3-.2.4-.2.2-.3.5-.5.7l-.1.2-.2.2-.1.1-.3.3-.1.1c-.1.1-.3.2-.4.2-.3.1-.6.2-.9.3l-.2.1h-.2-.6c-.1 0-.3 0-.4 0h-.3l-.2-.1c-.2 0-.3-.1-.5-.2l-.2-.1-.1-.1-.1-.1c-.1 0-.1-.1-.2-.2l-.1-.1-.1-.1-.1-.1-.1-.2-.1-.1v-.1l-.1-.1c0-.1-.1-.1-.1-.2s-.1-.2-.1-.2c0-.1 0-.2-.1-.2v-.5c.1.1.1-.2.2-.5zm-3.5-2.8c.2-.2 1.8.3 2.1.5.3.1.3.4.1.6-.3.2-.7.2-1 .1-.3-.2-1.5-1-1.2-1.2zm-6.5 10.4c.3-.7.5-1.4.5-2.1-.1-.7-.1-1.3-.3-2-.1-.4.1-.8.5-.9h.3c.5 0 .4 1 .8 1 .9.1.6-1.2 1.3-1.3.5 0 .9-.1 1.3-.5.5-.4 1.1-.9 1.5-1.3.5-.5 1.3-.8 2-.8.3.1.5.2.6.5.4 1.2.6 2.3 1.7 3.1 1 .6 2.3.9 3.5.8.5-.2 1 .1 1.2.6 0 .1.1.2 0 .3v.5c-.1.3-.1.6.1.9.2.5 1.1 2-.5 1.3-1-.4-2.6-.9-5.2.1-1.4.5-2.9.5-4.2.1-.1 0-.2-.1-.3-.1l-.1-.1c0-1.2 1.1-2.8-.6-3.2-.6-.2-1.2 0-1.6.6-.5.6-.4 1.3 0 2.3v.1s0 0-.1 0c-.8 0-1.6.1-2.4.4-.4.2-.1 0 0-.3zm19.1 3.2c-.1.1-.2.2-.3.2-.2.1-.5.1-.7.2h-.1c-.1 0-.3.1-.4.1h-.5c-.4 0-.7.1-1.1.1s-.8-.1-1.1-.2c-.2-.1-.5-.2-.7-.2l-.4-.1c-.3-.1-.6-.2-1-.2h-1.1c-.4 0-.7 0-1.1.1s-.7.2-1 .3c-.4.1-.8.3-1.2.3-.2 0-.4.1-.6.1h-1.6c-.1 0-.2 0-.3 0-.4-.1-.8-.2-1.2-.3-.2-.1-.3-.1-.4-.2s-.4-.2-.6-.2c-.3-.1-.6-.2-.9-.2h-1.8c-.5.1-1 .2-1.4.4h-.1c-.2.1-.5.1-.7.2l-.3.1h-.1c-.1 0-.2-.1-.2-.2v-.2c0-.1.1-.2.2-.2.3-.1.6-.2.9-.3l.1-.1.6-.3c.3-.1.6-.2.9-.3h.1c.1 0 .3-.1.4-.1h1.5c.4 0 .8.1 1.1.2.2.1.5.2.7.2.1.1.2.1.4.1.3.1.6.2 1 .2h1.9.2c.4-.1.7-.3 1.1-.4.4-.2.8-.3 1.2-.4s.9-.1 1.3-.1h.9.3l1.2.3.4.2.6.2c.3.1.6.2.9.2s.6.1.9.1h.9c.2 0 .4-.1.6-.1.2-.1.4.1.5.3.2 0 .2.1.1.2zm.4-7.9c-.2.2-1.7-.1-2-.2s-.4-.3-.2-.6c.2-.2.6-.3.9-.2.3.2 1.5.8 1.3 1zm-.8-4c-.3.1-.6 0-.6-.3s.3-.6.6-.7 1.9-.4 1.9-.1c-.1.3-1.6 1-1.9 1.1z"/><path d="m126 31c.2-.1.3-.2.2-.4-.1-.1-.2-.2-.4-.1s-.9.6-.8.8c0 .1.9-.2 1-.3z"/><path d="m128.4 33.4c.1-.1.1-.3 0-.4l-.1-.1c-.2-.1-.4 0-.6.1-.1.2-.6.9-.4 1 .2.2 1-.3 1.1-.6z"/><path d="m131.4 35.3c.2 0 .5-.8.6-.9 0-.2-.1-.3-.3-.4-.2 0-.4.1-.4.2-.1.3-.1 1 .1 1.1z"/></g></svg>