<svg viewBox="0 0 334.57 65" xmlns="http://www.w3.org/2000/svg"><path d="m146.56 41.5v-11.72c0-4.49-2.74-7.23-7.23-7.23-2.24 0-4.74.75-6.48 3.24-1.25-1.99-3.24-3.24-5.98-3.24-1.99 0-3.99.5-5.48 2.74v-2.24h-3.99v18.45h3.99v-10.22c0-3.24 1.75-4.99 4.49-4.99s3.99 1.75 3.99 4.99v10.22h3.99v-10.22c0-3.24 1.99-4.99 4.49-4.99 2.74 0 3.99 1.75 3.99 4.99v10.22h4.24zm60.33-18.45h-6.48v-5.73h-3.99v5.73h-3.74v3.74h3.74v8.48c0 4.24 1.75 6.98 6.48 6.98 1.75 0 3.74-.5 4.99-1.5l-1.25-3.49c-1.25.75-2.49 1-3.49 1-1.99 0-2.74-1.25-2.74-2.99v-8.48h6.48zm34.15-.5c-2.24 0-3.74 1-4.99 2.74v-2.24h-3.99v18.45h3.99v-10.47c0-2.99 1.25-4.74 3.99-4.74.75 0 1.75 0 2.49.5l1.25-3.74c-.75-.5-1.75-.5-2.74-.5zm-51.85 1.99c-1.99-1.25-4.74-1.99-7.48-1.99-4.74 0-7.73 2.24-7.73 5.98 0 2.99 2.24 4.99 6.48 5.48l1.99.25c2.24.25 3.24 1 3.24 1.99 0 1.5-1.5 2.24-4.24 2.24s-4.74-1-6.23-1.99l-1.99 3.24c2.24 1.75 4.99 2.49 7.98 2.49 5.24 0 8.48-2.49 8.48-5.98 0-3.24-2.49-4.99-6.48-5.48l-1.99-.25c-1.75-.25-3.24-.5-3.24-1.75s1.25-2.24 3.49-2.24 4.74 1 5.73 1.5zm107.95-1.99c-2.24 0-3.74 1-4.99 2.74v-2.24h-3.99v18.45h3.99v-10.47c0-2.99 1.25-4.74 3.99-4.74.75 0 1.75 0 2.49.5l1.25-3.74c-.75-.5-1.99-.5-2.74-.5zm-51.85 9.72c0 5.73 3.99 9.72 9.97 9.72 2.74 0 4.74-.75 6.73-2.24l-1.99-3.24c-1.5 1-2.99 1.75-4.74 1.75-3.24 0-5.48-2.24-5.48-5.98 0-3.49 2.24-5.98 5.48-5.98 1.75 0 3.24.5 4.74 1.75l1.99-3.24c-1.99-1.5-3.99-2.24-6.73-2.24-6.23-.25-9.97 3.99-9.97 9.72zm37.64 0v-9.22h-3.99v2.24c-1.25-1.75-3.24-2.74-5.98-2.74-5.24 0-9.22 3.99-9.22 9.72s3.99 9.72 9.22 9.72c2.74 0 4.49-1 5.98-2.74v2.24h3.99zm-14.96 0c0-3.24 1.99-5.98 5.73-5.98s5.48 2.49 5.48 5.98c0 3.24-2.24 5.98-5.48 5.98s-5.73-2.74-5.73-5.98zm-48.61-9.72c-5.48 0-9.22 3.99-9.22 9.72s3.99 9.72 9.47 9.72c2.74 0 5.24-.75 7.48-2.49l-1.99-2.99c-1.5 1.25-3.49 1.99-5.48 1.99-2.49 0-4.99-1.25-5.48-4.49h13.71v-1.5c.25-6.23-3.24-9.97-8.48-9.97zm0 3.49c2.49 0 4.24 1.75 4.74 4.49h-9.72c.5-2.49 1.99-4.49 4.99-4.49zm100.97 6.23v-16.7h-3.99v9.72c-1.25-1.75-3.24-2.74-5.98-2.74-5.24 0-9.22 3.99-9.22 9.72s3.99 9.72 9.22 9.72c2.74 0 4.49-1 5.98-2.74v2.24h3.99zm4.74 7.48h.5c.25 0 .25.25.5.25 0 0 .25.25.25.5v1c0 .25-.25.25-.25.5 0 0-.25.25-.5.25h-1c-.25 0-.25-.25-.5-.25 0 0-.25-.25-.25-.5v-1c0-.25.25-.25.25-.5s.25-.25.5-.25zm0 1.99h.25s.25 0 .25-.25l.25-.25v-.5s0-.25-.25-.25l-.25-.25h-.5s-.25 0-.25.25l-.25.25v.5s0 .25.25.25l.25.25zm0-1.25h.25v.5h-.25l.25.5h-.25l-.25-.5v.5h-.25v-1zm-.25 0v.25h.5-.5zm-19.45-8.23c0-3.24 1.99-5.98 5.73-5.98 3.49 0 5.48 2.49 5.48 5.98 0 3.24-2.24 5.98-5.48 5.98-3.49-.25-5.73-2.74-5.73-5.98zm-136.12 0v-9.22h-3.99v2.24c-1.25-1.75-3.24-2.74-5.98-2.74-5.24 0-9.22 3.99-9.22 9.72s3.99 9.72 9.22 9.72c2.74 0 4.49-1 5.98-2.74v2.24h3.99zm-14.96 0c0-3.24 1.99-5.98 5.73-5.98 3.49 0 5.48 2.49 5.48 5.98 0 3.24-2.24 5.98-5.48 5.98-3.49-.25-5.73-2.74-5.73-5.98z" fill="#fff"/><g fill-rule="evenodd"><path d="m41.11 53.96h24.18v-43.62h-24.18z" fill="#db6137"/><path d="m42.6 32.28c0-8.73 4.24-16.7 10.47-21.69-4.74-3.74-10.72-5.98-16.95-5.98-15.21 0-27.67 12.46-27.67 27.67s12.46 27.67 27.67 27.67c6.48 0 12.46-2.24 16.95-5.98-6.23-4.99-10.47-12.96-10.47-21.69" fill="#d73b34"/><path d="m96.95 49.48v-1h-.25l-.25.75-.25-.75h-.25v1h.25v-.75l.25.75h.25l.25-.75zm-1.75 0v-1h.25v-.25h-1v.25h.25zm2.74-17.2c0 15.21-12.46 27.67-27.67 27.67-6.48 0-12.46-2.24-16.95-5.98 6.48-4.99 10.47-12.96 10.47-21.69s-4.24-16.7-10.47-21.69c4.74-3.74 10.72-5.98 16.95-5.98 15.21 0 27.67 12.22 27.67 27.67z" fill="#e99c41"/></g></svg>