<svg viewBox="0 0 352.58 270.87" xmlns="http://www.w3.org/2000/svg"><g fill="#221f20"><path d="m84.38 11.78-5.99.16c-2.33.08-3.3.28-3.9 1.17-.4.6-.6 1.09-.68 1.41s-.2.48-.44.48c-.28 0-.36-.2-.36-.64 0-.64.76-4.3.84-4.62.12-.52.24-.76.48-.76.32 0 .72.4 1.73.48 1.17.12 2.69.2 4.02.2h15.92c1.29 0 2.17-.12 2.77-.2.6-.12.92-.2 1.08-.2.28 0 .32.24.32.84 0 .85-.12 3.62-.12 4.67-.04.4-.12.64-.36.64-.32 0-.4-.2-.44-.8l-.04-.44c-.08-1.05-1.17-2.17-4.74-2.25l-5.07-.12v16.49c0 3.7 0 6.88.2 8.6.12 1.13.36 2.01 1.57 2.17.56.08 1.45.16 2.05.16.44 0 .64.12.64.32 0 .28-.32.4-.76.4-2.65 0-5.19-.12-6.31-.12-.92 0-3.46.12-5.07.12-.52 0-.8-.12-.8-.4 0-.2.16-.32.64-.32.6 0 1.09-.08 1.45-.16.8-.16 1.04-1.04 1.17-2.21.2-1.69.2-4.87.2-8.56z"/><path d="m106.77 21.18c0-6.11 0-7.24-.08-8.52-.08-1.37-.4-2.01-1.73-2.29-.32-.08-1.01-.12-1.57-.12-.44 0-.68-.08-.68-.36s.28-.36.88-.36c1.08 0 2.25.04 3.26.04 1.04.04 1.97.08 2.53.08 1.29 0 9.29 0 10.05-.04.76-.08 1.41-.16 1.73-.24.2-.04.44-.16.64-.16s.24.16.24.36c0 .28-.2.76-.32 2.61-.04.4-.12 2.17-.2 2.65-.04.2-.12.44-.4.44s-.36-.2-.36-.56c0-.28-.04-.97-.24-1.45-.28-.72-.68-1.21-2.69-1.45-.68-.08-4.9-.16-5.71-.16-.2 0-.28.12-.28.4v10.17c0 .28.04.44.28.44.88 0 5.51 0 6.43-.08.97-.08 1.57-.2 1.93-.6.28-.32.44-.52.64-.52.16 0 .28.08.28.32s-.16.89-.32 2.93c-.04.8-.16 2.41-.16 2.69 0 .32 0 .76-.36.76-.28 0-.36-.16-.36-.36-.04-.4-.04-.92-.16-1.45-.2-.8-.76-1.41-2.25-1.57-.76-.08-4.74-.12-5.71-.12-.2 0-.24.16-.24.4v3.18c0 1.37-.04 5.07 0 6.23.08 2.77.72 3.38 4.82 3.38 1.05 0 2.73 0 3.78-.48s1.53-1.33 1.81-2.98c.08-.44.16-.6.44-.6.32 0 .32.32.32.72 0 .92-.32 3.66-.52 4.46-.28 1.05-.64 1.05-2.17 1.05-3.02 0-5.23-.08-6.96-.12-1.73-.08-2.97-.12-4.18-.12-.44 0-1.33 0-2.29.04-.93 0-1.97.08-2.77.08-.52 0-.8-.12-.8-.4 0-.2.16-.32.64-.32.6 0 1.09-.08 1.45-.16.8-.16 1.01-1.04 1.17-2.21.2-1.69.2-4.87.2-8.57v-7.08"/><path d="m154.13 25.29c0-9.73-6.03-14.39-11.58-14.39s-9.97 3.38-9.97 12.7 5.79 14.88 12.26 14.88c3.22 0 9.29-1.41 9.29-13.19zm-4.46 14.15c-1.61.6-4.18 1.04-6.31 1.04-11.78 0-16.36-8.73-16.36-15.96 0-6.55 4.7-15.56 16.49-15.56 9.61 0 16.28 5.83 16.28 15.24 0 7.08-4.46 11.54-7 13.23l8.08 4.14c8.48 4.34 13.83 4.78 16.57 4.78 2.09 0 5.07-.32 7.84-1.41.24-.08.44-.2.6-.2.2 0 .36.16.36.36 0 .24-.2.36-.48.48-2.41 1.16-6.96 3.01-12.74 3.01-6.07 0-10.37-1.57-17.01-5.47l-6.31-3.7"/><path d="m166.23 21.18c0-6.11 0-7.24-.08-8.52-.08-1.37-.4-2.01-1.73-2.29-.32-.08-1.01-.12-1.57-.12-.44 0-.68-.08-.68-.36s.28-.36.88-.36c2.13 0 4.66.12 5.87.12.96 0 3.5-.12 4.95-.12.6 0 .88.08.88.36s-.24.36-.64.36c-.44 0-.68.04-1.17.12-1.09.2-1.41.88-1.49 2.29-.08 1.29-.08 2.41-.08 8.52v5.63c0 5.83 1.17 8.28 3.14 9.89 1.81 1.49 3.66 1.65 5.03 1.65 1.77 0 3.94-.56 5.55-2.17 2.21-2.21 2.33-5.83 2.33-9.97v-5.03c0-6.11 0-7.24-.08-8.52-.08-1.37-.4-2.01-1.73-2.29-.32-.08-1-.12-1.45-.12s-.68-.08-.68-.36.28-.36.84-.36c2.05 0 4.58.12 4.62.12.48 0 3.02-.12 4.58-.12.56 0 .84.08.84.36s-.24.36-.72.36c-.44 0-.68.04-1.17.12-1.09.2-1.41.88-1.49 2.29-.08 1.29-.08 2.41-.08 8.52v4.3c0 4.46-.44 9.21-3.82 12.1-2.85 2.45-5.75 2.9-8.36 2.9-2.13 0-5.99-.12-8.93-2.77-2.05-1.85-3.58-4.83-3.58-10.66v-5.87"/><path d="m201.41 21.18c0-6.11 0-7.24-.08-8.52-.08-1.37-.48-2.05-1.37-2.25-.44-.12-.96-.16-1.45-.16-.4 0-.64-.08-.64-.4 0-.24.32-.32.96-.32 1.53 0 4.06.12 5.23.12 1.01 0 3.38-.12 4.9-.12.52 0 .84.08.84.32 0 .32-.24.4-.64.4s-.72.04-1.21.12c-1.09.2-1.41.88-1.49 2.29-.08 1.29-.08 2.41-.08 8.52v7.08c0 3.9 0 7.08.16 8.81.12 1.09.4 1.81 1.61 1.97.56.08 1.45.16 2.05.16.44 0 .64.12.64.32 0 .28-.32.4-.77.4-2.65 0-5.19-.12-6.27-.12-.92 0-3.46.12-5.07.12-.52 0-.8-.12-.8-.4 0-.2.16-.32.64-.32.6 0 1.09-.08 1.45-.16.81-.16 1.05-.85 1.17-2.01.2-1.69.2-4.86.2-8.76v-7.08"/><path d="m223.81 28.26c0 5.15 0 7.92.84 8.65.68.6 1.73.88 4.86.88 2.13 0 3.7-.04 4.7-1.13.48-.52.96-1.65 1.05-2.41.04-.36.12-.6.44-.6.28 0 .32.2.32.68 0 .44-.28 3.46-.6 4.62-.24.88-.44 1.09-2.53 1.09-2.9 0-4.99-.08-6.8-.12-1.81-.08-3.26-.12-4.9-.12-.44 0-1.33 0-2.29.04-.92 0-1.97.08-2.77.08-.52 0-.8-.12-.8-.4 0-.2.16-.32.64-.32.6 0 1.09-.08 1.45-.16.8-.16 1-1.04 1.17-2.21.2-1.69.2-4.87.2-8.56v-7.08c0-6.11 0-7.24-.08-8.52-.08-1.37-.4-2.01-1.73-2.29-.32-.08-.8-.12-1.33-.12-.44 0-.68-.08-.68-.36s.28-.36.88-.36c1.89 0 4.42.12 5.51.12.97 0 3.9-.12 5.47-.12.56 0 .84.08.84.36s-.24.36-.72.36c-.44 0-1.09.04-1.57.12-1.09.2-1.41.89-1.49 2.29-.08 1.29-.08 2.41-.08 8.52v7.08"/><path d="m254.52 27.42c.2 0 .24-.12.2-.24l-3.62-9.93c-.04-.16-.08-.36-.2-.36s-.2.2-.24.36l-3.7 9.89c-.04.16 0 .28.16.28zm-8.2 2.01c-.2 0-.28.08-.36.32l-2.17 5.75c-.4 1.01-.6 1.97-.6 2.45 0 .72.36 1.25 1.61 1.25h.6c.48 0 .6.08.6.32 0 .32-.24.4-.68.4-1.29 0-3.02-.12-4.26-.12-.44 0-2.65.12-4.74.12-.52 0-.76-.08-.76-.4 0-.24.16-.32.48-.32.36 0 .92-.04 1.25-.08 1.85-.24 2.61-1.61 3.42-3.62l10.09-25.25c.48-1.17.72-1.61 1.13-1.61.36 0 .6.36 1.01 1.29.96 2.21 7.4 18.62 9.97 24.73 1.53 3.62 2.69 4.18 3.54 4.38.6.12 1.21.16 1.69.16.32 0 .52.04.52.32 0 .32-.36.4-1.85.4s-4.38 0-7.6-.08c-.72-.04-1.21-.04-1.21-.32 0-.24.16-.32.56-.36.28-.08.56-.44.36-.92l-3.22-8.52c-.08-.2-.2-.28-.4-.28h-8.97"/><path d="m248.01 251.34c2.81-1.74 4.6-4.85 5.64-7.9.11-.11.25-.51.44-.34 1.16 2.88.83 6.64-1.31 8.93-.82.79-2.04 1.31-3.27.91-.64-.19-1.49-.84-1.5-1.6zm-1.56 1.78c1.13 1.29 2.65 2.02 4.43 1.94 2.34-.15 4.28-2.35 4.94-4.42 1.11-3.71.79-8.22-1.65-11.22-.4-.27-.92-.07-1.19.3-.91 4.24-3.49 8.6-7.23 10.94-.27.95.44 1.63.7 2.47zm-4.45-22.98c1.57-.91 3.38-1.33 5.26-1.55.74.99.82 2.27 1.25 3.37.92 5.3 0 11.27-4.74 14.18-1.46.86-3.31.25-4.55-.68-2.38-2.47-2.5-6.84-1.35-9.91.89-2.13 2.1-4.18 4.12-5.41zm-6.35 21.19c1.51.93 3.14 1.63 4.98 1.79v.19c-1.42 1.16-3.76 1.62-5.47.75-.31-.22-.43-.52-.54-.86-.01-.74.45-1.51 1.03-1.88zm-3.11 2.33c.24 1.44 1.73 2.48 3.05 2.82 2.67.6 5.08-.46 7.06-2.05.43-.79 1.37-1.49 1.44-2.5-.17-.25-.34-.64-.68-.72-2.53.18-4.87-.45-6.84-1.9-.91-.87-1.81.2-2.61.57-.99.99-1.58 2.25-1.42 3.77zm-1.54-27.7c.98 1.9 2.78 3.41 4.98 3.18.89-.21 2.02-.5 2.26-1.51-.6-1.08-1.81.17-2.87-.21-1.61-.14-2.5-1.66-2.94-3.05-.19-.94.53-1.68 1.1-2.41.19-.4.73-.07.8-.54 2.81-1.52 6.39-.43 8.7 1.59 1.32.87 2.09 2.2 3.01 3.43-1.75.58-3.55 1-5.06 2.08-4.63 3.27-6.6 8.93-5.31 14.58.59 2.25 2.35 4.45 4.69 5.13 2.91.68 5.61-1 7.49-3.26 3.11-3.89 3.27-9.71 2.25-14.53-.17-.5-.4-.97-.49-1.52-1.11-3.24-3.6-6.18-6.55-8.16-2.63-2.02-6.48-2.8-9.57-1.28-2.1 1.37-3.45 3.92-2.49 6.47zm-2.57 6.83c1.08-.43 2.24-.87 3.52-.72-.54 2.96-1.58 5.82-1 9.12 0 1.28.46 2.36.59 3.59-1.64.38-3.21-.45-4.42-1.47-1.49-1.48-2.5-3.53-2.09-5.64.25-2.04 1.66-3.76 3.41-4.87zm-4.63 2.83c-.94 2.32-.53 5.43.84 7.47 1.88 2.72 5.02 4.01 8.41 3.79.44-.12.88-.51.85-1.02-.88-2.79-1.29-6.15-.87-9.2.2-1.81 1.04-3.38 1.46-5.09-.15-.5-.43-.91-.96-1.07-2.71-.49-5.51 0-7.52 1.79-.93.9-1.75 2.09-2.2 3.32zm-6.25-28.15c5.26 1.62 10.32 3.71 15 6.84v.14c-1.5.13-2.62 1.31-3.92 1.87-3.56-3.37-7.69-6.31-11.69-8.84h.61zm-5.95 4.21c4.99 2.45 9.56 6.29 13.51 10.14-.01 1.17-.44 2.15-.36 3.35-1.32.88-2.69 2.63-3.87 3.73-2.32-6.05-5.13-11.91-9.28-17.22zm-3.38-6.55c7.09 3.18 14.06 7.74 19.71 13.39l.73.05c1.66-.7 2.91-2.3 4.77-2.47.91-.32 2.01.36 2.61-.65.19-.39.17-1-.03-1.39-5.23-3.54-10.95-6.15-16.82-8.17-3.5-1-7.02-2.17-10.72-2.42-.66.2-.81 1.26-.25 1.67zm.59 38.54c.97-3.83 1.72-7.6 1.82-11.66h.14c1.98 5.42 2.68 11.64 2.09 17.67-.11.55-.66.95-1.07 1.21-.67.23-1.12-.31-1.41-.78-.63-1.27.66-2.35-.66-3.33-.4-.47-1.29-.31-1.35-1.09-.24-.83.4-1.31.44-2.01zm-2.77 2.63c.21 1.25 1.53 1.7 2.37 2.3-.04 1.34.32 2.64 1.14 3.66.67.35 1.29.92 2.16.83 1.55-.05 2.56-1.6 3.01-2.91l.24-5.82c-.2-5.98-1.51-11.47-3.6-16.64-.37-.69-.66-1.63-1.51-1.9-.42-.25-1.03-.18-1.33.27-.19.51-.17 1.26.03 1.75-.12 5.1-.32 10.3-1.82 14.92-.16 1.22-1.06 2.13-.7 3.55zm-1.18-38.72c.06.47.6.69.93.94 5.76 5.2 9.79 12.01 12.46 18.98.77 1.69.98 3.77 1.75 5.32.28.21.73.32 1.09.18.55-.29.54-1.04.7-1.63 1.42-2 2.55-4.21 4.87-5.42.6-.92-.11-1.86.29-2.87.21-.56.7-1.09.5-1.73-6.14-6.25-13.45-11.38-21.13-14.85l-.95.02c-.47.17-.43.67-.51 1.06zm-5.62.62.96 1.27c3.02 3.96 4.61 8.53 5.69 13.33 1.71 6.32.23 13.16-1.47 19-.56 1.76-1.44 3.39-1.78 5.23-.25 1.84.86 3.27 2.21 4.25.84.65 2.96.51 2.43 2.22-.19 1.89 1.03 3.6 2.41 4.64 1.4.71 3.35.62 4.76.01 3.45-1.86 5.65-5.27 6.46-8.87-1.53-1.93-2.59-4.22-3.02-6.69-.3-.94-.31-1.77-.6-2.72-1.74-8.57-4.49-16.71-9.71-23.78-2.55-3-4.91-6.1-8.34-7.89zm.08 13.91c.68 1.21.62 2.69.53 4.19-.68-1.07-1.31-2.29-1.78-3.51l1.25-.69zm-4.89 2.41c.64-.32 1.27-.69 1.98-.84l3.17 6.35c0 1.42-.38 2.87-.86 4.16-1.58-3.12-2.99-6.41-4.29-9.67zm-.93 17.77c.37.47.63 1.11.62 1.8l-1.82 2.7h-.2c-.32-1.27-.76-2.49-1.01-3.8zm-2.06-16.61c.44-.2.91-.4 1.47-.41 1.5 3.35 2.81 6.78 4.22 10.15-.74.62-1.8.86-2.71 1.18-1.38-3.43-2.6-6.97-3.77-10.49l.8-.43zm-1.38-24.7c.55 1.41 2.08 1.42 3.23 1.9 14.33 4.93 21.89 19.61 25.08 33.01 1.38 4.8 1.16 10.39 5.69 13.67 1.44 1.34 3.39 1.42 5.1 2.06.6.55.3 1.48.59 2.13.59 2.53 3.13 4.79 5.62 5.4 3.1.6 6.6.1 8.9-2.09 1.72-.03 3.19 1.15 4.92 1.07 1.28-.05 2.53.07 3.72-.39 4.09-1.99 6.52-6.45 6.17-11.18-.7-18.88-17.24-33.74-33.35-40.7-9.93-3.72-19.95-6.63-31.17-7.15-1.44.08-3.41-.75-4.27.87-.07.47-.35.87-.23 1.39zm.11 7.43c.55-.18.95.4 1.4.7 1.63 2.95 3.4 5.82 4.75 8.89l-2.46 1.29c-1.69-3.32-3.14-6.75-4.77-10.06 0-.59.71-.57 1.07-.83zm-3.33 18.81c.69-.18 1.33-.47 2.08-.57 1.39 3.43 2.56 6.95 3.56 10.58-.89.38-1.83.64-2.8.82-1.08-3.41-2.08-6.87-2.97-10.36zm2.45 16.27c.64 1.61 1.06 3.38 1.5 5.12-.6.96-1.39 1.89-2.24 2.71-.7-2.35-1.16-4.85-1.59-7.32zm-1.85-33.64c1.61 3.34 2.91 6.83 4.38 10.23-.77.57-1.66.81-2.54 1.1-1.36-3.46-2.58-6.98-3.83-10.49.49-.53 1.33-.6 1.99-.84zm-2.59 18.02c1.03 3.52 1.95 7.1 2.78 10.7-.83.32-1.69.53-2.61.65-.97-3.38-1.5-6.93-2.3-10.4l.08-.44zm-1.94 16.87 2.19-.36.2.24 1.69 8.32-2.58 2.46-.2-.33c-.53-3.39-1.05-6.78-1.57-10.14l.28-.2zm-.7-33.19 1.66-.36c1.36 3.4 2.34 6.98 3.5 10.49l-.13.28c-.94.21-1.77.69-2.8.77-.91-3.63-2-7.2-2.75-10.92l.53-.26zm.49-33.55c1.34-1.24 3.4-1.61 5.18-1.08 1.9.39 3.15 2.32 3.54 4.09.27 1.52-.29 2.93-1.14 4.08-1.39 1.53-3.41 2.45-5.4 1.84-1.93-.31-3.38-2.29-3.88-4.04-.25-1.94.42-3.6 1.68-4.9zm-3.18 50.82 1.34-.16c.75 3.61 1.5 7.21 2.03 10.93-.91.27-1.88.33-2.85.52-.7-3.58-1-7.33-1.51-11zm-1.13 16.66c.72-.32 1.66-.3 2.47-.32l1.56 10.66-.14.2c-.89.21-1.86.22-2.8.32-.39-3.61-.81-7.23-1.09-10.87zm.08-33.06 1.41-.17c.78 3.67 1.87 7.27 2.37 10.99-.83.35-1.78.45-2.72.52-.81-3.61-1.09-7.42-1.78-11.08zm-1.94 16.92.28.33 1.02 10.53c-.8.63-2.14.25-3.06.38-.28-3.73-.56-7.56-.5-11.07l2.25-.17zm-2.25-16.33c.61.07 1.25-.21 1.75-.02.67 3.6 1.05 7.27 1.42 11l-.2.2c-.91.04-1.91.28-2.72.1-.31-3.64-.42-7.48-.73-11.07l.47-.2zm2.17 32.55.14.2.83 10.67c-.91.18-1.86.28-2.86.24-.36-3.67-.39-7.37-.44-11.01zm-6.56-32.24c.66-.43 1.34-.02 2.2-.14l.2.53c.08 3.42.36 7.14.25 10.74-.97.07-2 .25-2.95-.09l.3-11.03zm.11 16.31c.78.1 1.69-.28 2.48.01l.31 10.96c-1 .23-1.97.17-3 .1l-.09-.2.31-10.88zm-.23 16.23c.77-.32 1.56.03 2.42-.09l.12.19.24 10.63-.14.2c-.94-.04-2 .14-2.87-.09l.22-10.83zm-3.65-32.81c.75-.21 1.48.06 2.15.19.03 3.84-.58 7.22-.55 11.08l-.14.14-2.82-.29c.42-3.74.75-7.47 1.36-11.13zm-.19 16.51c.66-.32 1.42-.03 2.12-.03l.14.19-.29 6.57h-.08c.08 1.31.01 2.93-.13 4.35-.75 0-1.81.03-2.67-.1.19-3.71.7-7.28.92-10.98zm-.42 16.12c.75-.07 1.64 0 2.4.16l-.37 10.75c-.97.16-2 .12-2.87-.15zm-3.68-16.59c.78-.23 1.62.12 2.42.16-.16 3.65-.75 7.33-1.11 10.99-.97.1-2-.11-2.96-.29.45-3.65 1-7.28 1.65-10.85zm.22-16.56c.58-.29 1.2.17 1.86.11l.28.19c-.36 3.74-1.19 7.28-1.64 10.96-1.03.04-1.92-.22-2.82-.49.59-3.68 1.53-7.17 2.32-10.77zm-1.03 32.74c.81.15 1.69-.11 2.53.16-.19 3.59-.38 7.35-.89 10.89-1.09 0-2.15-.13-3.15-.34.39-3.62.81-7.22 1.5-10.71zm-2.6-33.77c.59.04 1.34.12 1.9.45-.78 3.63-1.73 7.21-2.59 10.81-.86.07-1.73-.31-2.55-.57.98-3.61 2.07-7.15 3.24-10.68zm-.6 16.85.19-.15c.7.44 2.58-.18 2.1 1.25l-1.85 10.1c-.97-.01-2.01-.3-2.96-.54.84-3.54 1.59-7.15 2.51-10.67zm-2.72-34.41c9.16-4.79 22.1-4.9 31.32-.23.4.13.98.6 1.34.06l-1.17-1.85c-6.55-6.35-17.36-7.8-25.57-3.89-2.35 1.32-5.23 2.39-6.6 5.06-.19.45.01 1.14.68.85zm1.92 50.65 2.26.3v1.08c-.55 3.04-.75 6.24-1.43 9.24-.9-.71-1.92-1.56-2.57-2.44l1.55-7.95.2-.22zm-4.78-66.83c1.49-.97 3.59-1.67 5.33-.84 1.46.59 2.7 1.83 3.14 3.3.56 1.8.03 3.65-1 5.03-1.26 1.63-3.37 2-5.37 1.61-1.77-.64-3.43-2.34-3.8-4.2-.34-2 .53-3.52 1.71-4.9zm.09 65.85c.83-.04 1.73.22 2.54.49-.3 2.32-.88 4.52-1.29 6.78h-.22s-2.16-2.58-2.16-2.58c.26-1.59.65-3.16 1.13-4.69zm1.47-16.19c.72-.18 1.65.06 2.21.44-.73 3.6-1.76 7.07-2.62 10.59-.94.1-1.84-.31-2.68-.63.87-3.52 2.04-6.94 3.1-10.41zm.88-17.29c.69.21 1.48.28 2.07.75-.97 3.63-2.28 7.13-3.57 10.63-1.03-.18-1.99-.64-2.83-1.1 1.5-3.42 2.68-6.94 4.32-10.28zm-6.52 32.21 2.29.63c0 1.08-.44 2.12-.76 3.16-.76-.74-1.26-1.82-1.91-2.72.03-.39.15-.76.37-1.07zm2.69-33.05c.65-1.09 1.61-.25 2.34.11l-4.58 10.29c-.92-.24-1.74-.76-2.55-1.22 1.57-3.06 2.99-6.25 4.78-9.18zm-.94 16.6c.76.15 1.45.4 2.16.69v.39s-3.37 10.21-3.37 10.21c-.98-.21-1.93-.52-2.83-.96 1.2-3.49 2.62-6.91 4.04-10.33zm-6.99 5.17c1.14-2.25 2.02-4.62 3.29-6.73.7.07 1.26.57 1.88.83-1.34 3.37-2.65 6.72-4.1 10.03-.58-1.24-.93-2.66-1.07-4.13zm-.07-8.54c.42.52 2.32.44 1.22 1.57l-1.54 3.16-.14-.05c-.17-1.7.09-3.2.46-4.68zm-.89-5.19c-2.42 5.43-1.62 12.32-.06 17.95 4.57 13.29 16.33 24.96 29.19 30.89 2.07-.95 4.15-1.93 6.1-3.18 12.4-7.76 23.31-20.78 24.5-35.5.45-8.36-3.06-16.12-10.2-20.61-10.85-7.35-28-7.77-39.22-.88-4.25 2.46-8.66 6.67-10.32 11.32zm-3.85-24.27c.23.69.75 1.49 1.5 1.7.9.43 2 .11 2.67-.57.68-.73.94-1.88.48-2.82-1.47-1.26.12-2.98.35-4.4 2.41-6.35 4.51-12.92 9.4-18.18 1.87-1.61 3.92-3.85 6.56-2.77 4.41 2.72 5.24 7.94 5.48 12.94-.69.37-.95 1.15-1.79 1.37-.23-.8-.58-1.58-.96-2.33-1.76-2.34-4.23-4.03-7.34-3.42-2.69.43-5.1 2.72-5.73 5.35-.47 2.04 0 4.2 1.09 5.8 1.59 2.45 4.43 3.74 7.48 3.17 2.11-.48 4-2.1 5.06-4.08 5.11-2.28 12.29-2.47 17.31.07l1.64 2.17c1.44 1.37 3.38 2.23 5.37 1.92 2.67-.01 5.23-2.08 6.14-4.44.58-1.68.77-3.88-.03-5.54-1.29-2.79-3.93-4.47-6.94-4.37-2.22.17-4.32 1.4-5.49 3.15-.51.93-.89 1.71-1.15 2.69-.75-.24-1.05-1.13-1.78-1.42l.23-3.57c.5-3.74 1.88-7.96 5.58-9.63 2.16-.73 3.77 1 5.24 2.06 6.27 6.03 8.62 14.45 11.11 22.48-.85.82-1.16 2.11-.7 3.21.4.58.99 1.21 1.69 1.31.78.16 1.56-.03 2.13-.51.69-.57.87-1.35.83-2.21-.15-1.02-1.06-1.9-2.04-2.25-.97-3.6-2.5-6.95-3.75-10.43-2.4-5.67-5.42-12.11-11.39-15.25-2.25-1.13-4.93-.23-6.66 1.39-2.84 3.41-3.85 7.77-4.2 12.28-1.9-.67-4.05-1.14-6.16-.77-1 .12-1.91.59-2.86.63-.1-1.41-.4-2.74-.62-4.14-.84-3.8-2.3-8.42-6.61-9.7-3.77-.86-6.5 2.07-8.94 4.59-4.94 6.17-7.25 13.36-9.79 20.47.13 1.33-1.4.97-1.89 1.89-.38.64-.65 1.31-.52 2.15zm-6.75 39.18c.49 2.64.58 5.19 1.12 7.8.2 1.92 1.34 3.51 1.17 5.52-.6.85-1.71 1.22-1.83 2.31-.1.84.25 1.75-.24 2.53-.32.48-.99.6-1.47.36-1.26-.87-.84-2.55-1.06-3.8.12-5.01.45-10.31 2.31-14.73zm-3.58 5.73c-.63 4.35-.95 8.81-.13 13.23.6.76 1.25 1.42 2.11 1.77 1.09.4 2.11-.17 2.91-.77.68-1.18 1.13-2.41 1.08-3.83.13-.39.61-.54 1-.55 1.27-.69 1.44-2.1 1.28-3.36-1.85-4.84-2.41-10.4-2.5-15.8-.07-.89.37-1.73.07-2.53-.17-.36-.54-.58-.92-.55-.56.21-1.31.33-1.46 1.03-1.67 3.58-2.73 7.38-3.44 11.35zm-6.5 11.4c.33 1.66.96 3.18 1.96 4.56 1.82 2.62 4.58 5.08 7.95 4.64 1.94-.37 3.34-2.17 3.67-4.01.1-.81-.25-1.94.43-2.62 1.31-.19 2.47-.79 3.31-1.91.82-1.15 1.16-2.77.66-4.21-3.49-7.99-5.24-18.42-2.08-27.07 1.36-3.75 2.95-7.34 5.46-10.52l-.72.34c-6.47 4.74-10.84 11.72-13.49 18.85-2.29 5.27-3.25 11.1-4.56 16.77-.39 1.96-1.7 3.4-2.59 5.19zm-4.48-27.32c3.89-3.98 8.32-7.47 13.01-10.16h.39c-4.18 5.24-6.9 11.01-9.09 17.02-1.24-1.15-2.38-2.72-3.87-3.61-.18-.64.07-1.36-.22-2.05-.01-.45-.29-.75-.21-1.2zm-1.79 1.28c.32.94-.33 2.04.37 2.81 1.91.97 3.08 2.9 4.36 4.55.7.6.25 1.72.95 2.33.42.27.98.18 1.33-.11 2.4-8.52 6.28-16.82 13-23.3.54-.96 2.38-1.2 1.91-2.57-.26-.61-.93-.68-1.48-.53-7.65 3.62-14.67 8.6-20.95 14.77-.35.76.36 1.36.51 2.05zm-4.21 8.55c2.4.05 4.7 1.68 5.74 3.78 1.06 1.9.8 4.66-.48 6.35-1.15 1.82-3.27 2.83-5.3 2.69.31-3.2 1.23-7 .04-10.21-.21-.83-.5-1.61-.57-2.47l.58-.15zm3.11-20.22c3.4-1.78 7.11-3.06 10.74-4.09-3.83 2.56-7.79 5.46-11.28 8.72-1.28-.39-2.47-1.52-3.9-1.8 1.12-1.38 3.01-1.77 4.44-2.82zm-6.11 20.6c1.92 3.42 1.72 8.27.85 12.07-.3.47-.34 1.06-.31 1.67 1.05 1.27 2.9.63 4.29.49 2.8-.66 5.44-3.31 6.06-6.1.68-3.02-.26-6.09-2.46-8.12-2-1.84-5.1-2.51-7.8-1.83-.68.37-.84 1.07-.64 1.82zm-1.17-16.15c2.14-.15 4.08.72 5.77 2 .5.16.79.74 1.48.56 5.81-5.72 12.4-10.19 19.42-13.33.55-.17.82-.81.59-1.34-.34-.58-1.06-.68-1.67-.5-9.58 1.73-18.37 5.29-26.36 10.7-.35.73.06 1.64.78 1.91zm-4.67 36.81c1.78-.14 3.21-1.08 4.79-1.61.4.61 1.05 1.21.7 2.05-.68 1.21-2.33.98-3.57.95-.89-.12-1.71-.73-2.3-1.24l.39-.14zm-3.46-.34c.56 2.08 2.83 3.13 4.65 3.74 2.15.58 4.56.15 5.98-1.57.54-.84.66-2.12.29-3.09-.42-1.39-1.68-2.65-3.19-2.82-2.09 1.45-4.51 2.21-7.09 2.58-.41.26-.86.54-.65 1.15zm-3.65-24.13c3.42-.16 6.39 1.71 8.22 4.55 1.91 3.09 2.53 7.4.97 10.82-.68 1.52-2.3 2.43-3.91 2.59-2.95-.29-5.23-3.4-6.1-6.06-.8-2.91-.98-5.91-.27-8.88.4-1.01.47-2.11 1.1-3.02zm1.63-5.85c-4.76 4.89-6.32 12.12-4.11 18.71.83 1.57 1.45 3.37 2.88 4.55 1.84 1.72 4.08 2.97 6.63 2.23 2.44-.76 4.13-3.01 4.68-5.41 1.28-5.45-.92-10.81-5.04-14.28-1.58-1.26-3.45-1.73-5.38-2.12 2.1-3.32 5.48-6.12 9.55-5.68 1.8.02 3.36 1.56 4.05 3.14.16 1.3-.78 2.21-1.63 3.03-.75.4-1.63.61-2.55.45-.45-.1-.87-.49-1.34-.31-.25.23-.52.54-.32.87 1.05 1.34 2.64 1.26 4.16.99 1.72-.36 2.53-2.26 3.15-3.64.66-2.07-.51-3.83-2-5.2-2.11-1.61-5.43-1.89-7.83-.74-1.88.69-3.39 2-4.9 3.41zm-8.04 20.3c.57.69.61 1.69 1.04 2.46 1.01 2.19 2.66 4.39 4.71 5.8.29.72-.71 1.07-1.12 1.49-.77.35-1.89.28-2.59-.15-2.61-1.55-2.91-4.71-2.73-7.53.13-.73.17-1.56.69-2.07zm-.58-3.39c-1.04 1.6-1.65 3.39-1.98 5.29-.39 3.68.45 7.28 3.34 9.3 1.38 1.01 3.44.87 4.96.25 1.27-.85 2.45-2.01 2.2-3.7-3.69-2.7-6.09-6.64-6.99-10.97-.06-.53-.65-.69-1.12-.6-.25.03-.25.34-.41.42zm-3.04-2.29c-1.84 5.26-3.32 13.63 1.48 18.07 2.02 2.95 6.08 2.86 9.19 2.2 2.03-1.84 3.69.95 5.56 1.31 1.42.34 2.93.68 4.48.41 2.98-.22 6-2.49 6.87-5.37.52-.9-.59-2.22.63-2.77 1.06-.09 1.95-.05 2.92-.38 3.4-1.53 5.99-5.19 6.49-8.7 2.49-15.55 9.82-32.8 25.51-38.94 1.35-.85 3.78-.39 4.05-2.48.1-1-.89-1.63-1.65-2.03-8.51.21-16.51 1.62-24.37 3.91-1.08.46-2.3.51-3.33 1.05-12.08 3.58-23.46 11.13-31.54 21.47-2.8 3.8-4.8 7.92-6.3 12.26zm4.75-13.38c7.5-9.91 18.25-16.94 29.26-21.09 9.8-3.35 20-5.82 31.1-6.21 1.48-.05 2.74.4 3.84 1.33 2.09 0 3.73-1.48 5.7-2.01 8.57-3.52 19.39-2.3 27.21 1.84.58.02 1.01.54 1.6.53 2.01-2.93 5.8-1.06 8.8-1.27 16.12 2.04 31.96 6.1 44.8 16.35 7.1 5.59 13.25 12.76 16.36 20.93 1.43 2.96 2.26 6.14 2.81 9.5.05 3.12.33 6.68-1.33 9.29-1.48 3.5-4.52 6.5-8.38 7.09-2.06.03-4.26-.05-6.08-.85-2.85 1.1-5.75 2.65-9.32 2.09-3.54-.34-6.73-3.13-7.92-6.42l-.41-1.75c-1.76-.5-3.45-1.2-4.99-2.26-1.6 4.34-5.28 9.24-10.26 9.79-2.56.2-4.83-1.21-6.15-3.31-.66-1.16-.9-2.49-1.25-3.79-2.26-.91-4.27-3.22-4.23-5.75-.05-3.25 1.91-5.88 2.53-8.92 2.71-8.42 1.42-18.47-2.84-25.81-1.86-3.29-4.58-6.28-7.76-8.52-1.65-.64-3.94-1.21-4.52-3.13-10.15-4.99-23.57-5.12-33.93-.34-.68 2.85-3.8 2.67-5.62 3.95-5.12 3.86-8.09 9.45-9.93 15.13-1.07 4.52-1.78 9.02-.79 13.76.65 4.17 2.02 8.01 3.46 11.83.28 2.2.13 4.57-1.57 6.04-.76.84-1.74 1.25-2.59 1.84-.4 2.76-2.05 6.02-5.05 6.76-4.22.95-7.79-1.69-10.15-4.91-1-1.46-1.55-3.1-2.35-4.64-.8.18-1.54.95-2.37 1.23-.85.46-2 .45-2.71 1.1-.4 3.29-3.13 6.45-6.23 7.44-2.02.7-4.5.88-6.57.24-1.7-.23-3.08-1.26-4.7-1.79-2.82.76-6.88 1.43-9.41-.39-3.42-1.82-5.34-5.4-6.29-8.92-.14-2.03-.39-3.7-.14-5.76-.04-2.51 1.04-4.78 1.56-7.15 1.62-4.62 3.81-8.99 6.81-13.08"/><path d="m329.1 85.83v44.98h-9.05l.65 1.09h9.49v-46.55c0-6.94 1.5-9.62 6.03-10.63l.83-1.11c-6.2 1.02-7.95 3.71-7.95 12.22"/><path d="m323.88 114.2-.07-2.59-18.62-35.89 5.72-3.99-.77-.81-6.29 4.26z"/><path d="m303.29 128.42h-1.09l1.81 2.39h-22.12l1.11 1.09h22.91z"/><path d="m250.4 63.53 1.03 1.09h4.91l11.39-9.19-.67-.86-11.11 8.96z"/><path d="m265.93 71.85v.55c8.05 4.81 12.76 15.17 12.76 27.84 0 18.22-10.64 30.89-25.9 30.89-5.18 0-10.54-1.57-14.06-4.07v.18c4.62 3.61 9.25 5.2 14.71 4.99 7.8-.29 12.84-2.91 17.74-7.82 6.01-6.01 8.6-14.83 8.6-24.45 0-13.13-5.25-23.97-13.85-28.13"/><path d="m207.58 101.54c8.6-3.51 13.23-8.97 13.23-15.72 0-4.07-1.67-7.95-4.62-10.54 2.68 3.88 3.61 6.29 3.61 9.62 0 5-2.5 9.62-6.94 12.67-1.66 1.2-3.51 2.04-6.94 3.33 4.63 12.58 10.91 23.1 19.23 28.09-5.92 1.57-12.62 4.99-17.61 8.32l.92.74c6.94-4.35 11.42-6.75 19-8.69-9.25-5.46-16-15.98-19.88-27.82"/><path d="m170.86 107.71.46 1.03c3.03-1.08 5.13-1.58 6.8-1.95l.02-1.11s-4.64.97-7.28 2.04"/><path d="m200.38 102.17s-7.19 1.93-11.75 2.36v19.2l5.23 7.09h-20.77s1.09 1.08 1.09 1.08h21.8l-6.25-8.56v-17.67c4.14-.71 10.94-2.37 10.94-2.37z"/><path d="m93.52 76.62 4.47-5.31-1.02-.39-4.67 5.44 7.84 19.96 1.03-.36z"/><path d="m103.82 102.66.97.02c1.11 0 5.31.61 7.99.89-2.47-4.14-4.5-8.69-5.05-11.18l-1.31-.84c.74 3.33 1.83 6.1 4.33 10.63-2.13-.28-3.18-.49-5.03-.61-2.17-.14-2.86.18-3.38.33l7.79 21.94 6.81 6.97h-22.78l1.09 1.1h24.23s-8.37-8.71-8.37-8.71l-7.28-20.54"/><path d="m134.6 76.7h-4.83c-4.16 0-7.2 1.16-8.58 3.56-.83 1.29-1.07 2.96-1.35 5.92h1.09c.96-6.83 1.27-8.76 14.12-8.39v-1.09z"/><path d="m155.69 80.08c-1.29-2.68-3.24-3.42-8.97-3.42-.65 0-.68-.01-1.98.08v47.16l6.94 6.92h-23.07s1.09 1.09 1.09 1.09h24.64l-8.5-8.54v-45.5c8 0 8.52.88 9.86 2.22"/><path d="m31.21 104.96c7.86 0 11.56-.37 15.54-1.48 7.68-2.13 12.06-7.78 12.06-15.83 0-5.73-2.52-10.73-6.22-12.49 3.89 4.53 5.09 7.4 5.09 12.3 0 11.1-7.41 16.38-22.86 16.38-2.96 0-5.84-.11-8.25-.29v21.12l5.36 6.13h-20.74s1.08 1.09 1.08 1.09h22.37l-6.98-7.77v-19.27c1.48.09 2.26.1 3.55.1"/><path d="m14.93 103.54v.03h-.37c-2.87 0-4.62.37-7.03 1.76l.37.83c1.85-.93 4.62-1.48 7.03-1.39s1.37 0 1.37 0v-1.24h-1.37"/><path d="m31.39 77.4h-4.83v22.56h1.09v-21.48l4.66.03c6.1 0 9.06 1.11 11.28 4.16-2.22-4.26-4.53-5.27-12.21-5.27"/><path d="m71.72 119.2c0-3.15 1.11-7.31 3.51-12.58l.87-.78-1.17-1.93s-.91 2.17-1.1 2.62c-.01.03-.02.06-.04.09-2.38 5.89-3.38 9.7-3.38 12.77 0 3.79 1.09 5.41 6 11.42h-23.25l1.09 1.09h24.56c-6.01-7.49-7.1-8.72-7.1-12.7"/><path d="m93.46 107.44s-6.69 6.5-9.54 11.58l1.03.39c4.85-7.15 9.05-10.33 9.05-10.33l-.55-1.64"/><path d="m251.88 77.24c2.94 0 6.49 1.25 8.79 3.35-1.32-2.6-5.95-4.43-8.79-4.43-4.66 0-7.59 2.64-9.76 6.81-2.27 4.57-3.47 11.46-3.47 19.19 0 7.2.71 16.76 8.82 22.22l.24-.37s-2.68-1.64-5.13-5.68c-1.92-3.85-2.85-9.14-2.85-16.17 0-7.56 1.16-14.29 3.36-18.7 1.97-3.8 4.54-6.22 8.8-6.22"/><path d="m198.96 75.57c-1.45-.33-3.12-.48-5.07-.48-2.4 0-3.62.18-5.28.65l.02 24.27h1.09v-23.35c.55-.13 1-.23 1.43-.32.81-.16 1.57-.23 2.83-.23 1.15 0 2.2.07 3.17.18.83.1 1.59.24 2.3.41 3.2.79 5.1 2.27 6.23 3.82-1.29-2.85-4.27-4.4-6.72-4.95"/><path d="m302.33 127.42c-2.64-1.66-4.21-4.95-4.42-8.25-.36-2.36-.46-5.89-.46-12.43v-22.38h-1.09v22.38c0 10.37.27 13.37 1.42 16.09.09.21.19.41.29.61.03.06.06.12.09.18.04.09.09.17.14.25.03.05.05.1.08.15.89 1.55 2.11 2.68 3.83 3.57l.11-.18"/><path d="m72.83 93.57c-1.15-1.09-4.28-4.07-4.93-4.64-.15.43-.34.81-.56 1.14.9.56 3.21 2.86 4.97 4.66l.51-1.16"/><path d="m77.98 97.92 6.25-16.52-1.03-.52-.98 2.65s-5.52 14.68-5.52 14.68c1.49 1.3 3.43 3.52 5.11 5.71.54.7 1.04 1.39 1.5 2.05.1.14.19.28.28.41.46.67 1.15 1.66 1.47 2.14l.85-.75c-.51-.69-5.96-8.57-7.95-9.85"/><path d="m166.63 72.85-.45.77c-2.35 4.07-4.58 7.94-6.03 12.5l.76.49c1.44-4.61 3.69-8.5 6.07-12.61l.39-.68-.74-.48"/><path d="m266.37 52.88-11.48 8.87h-4.97l6.87-8.87z"/><path d="m133.14 75.12c-7.95-.94-15.31.4-15.79 10.07h-.55c-1.5-4.77-3.62-10.19-6.34-14.44h54.58c-2.7 4.68-5.03 8.76-6.46 13.84l-.3-.25c-.57-2.67-1.32-5.98-3.55-7.78-1.63-1.33-4.47-1.9-7.82-1.9-1.37 0-4.62.45-4.62.45l-.04 48.52 5.32 5.33h-21.15l6.68-5.7.03-48.15"/><path d="m192.98 98.24c-2.89.67-6.16.89-6.88.9v-24.21c2.14-1.16 4.76-1.75 7.87-1.75 3.89 0 7.11 1.09 9.66 3.25 2.55 2.18 3.82 4.92 3.82 8.25 0 3.71-1.42 6.72-4.25 9.05-3.24 2.66-6.43 3.71-10.22 4.52zm17.44 18.02c-3.52-5.39-6.3-10.93-8.35-16.63 4.62-1.2 8.27-3.13 10.94-5.81s4.01-5.75 4.01-9.23c0-4.25-2.03-7.76-6.12-10.5-10.92-7.41-27.6-4.18-38.23 2.01l.36.14c1.44.57 2.85 1.27 4.22 2.12l.02 22.11c-1.73.21-4.22.1-5.94-.02-.44 1.81-1.37 3.48-1.64 5.35 2.09-.79 5.32-1.31 7.58-1.34l.02 18.81-5.95 5.72h19.62l-4.87-5.33v-20.69c3.61-.68 7.34-.8 10.89-1.84.12.28.19.44.23.54l1.73 4.07h.02c3.42 8.06 5.76 17.01 7.47 28.63l.21 1.44.67-.44c4.23-2.79 8.58-4.94 13-6.47l.67-.23c-3.54-2.87-7.06-7.01-10.57-12.39"/><path d="m14.98 102.36v2.24z"/><path d="m40.98 95.8c-2.66 1.67-5.54 2.55-10.96 2.63s-5.96.02-5.96.02v-22.79c2.05-.12 3.97-.18 5.39-.18 5.51 0 9.5.96 11.98 2.87s3.72 4.97 3.72 9.17c0 3.75-1.39 6.52-4.17 8.27zm7.19-21.23c-9.4-5.74-27.84-3.39-38.76-3.88l5.64 5.8v22.27c-4.15 0-7.49 1.23-9.56 5.09l.44.68c2.54-2.07 5.96-2.59 9.12-2.24v21.35l-5.65 5.33h18.78l-4.13-4.73v-22.02l5.74.06c6.95 0 12.01-.53 15.21-1.6 3.19-1.05 5.66-2.78 7.43-5.17 1.77-2.41 2.66-5.21 2.66-8.46 0-5.34-2.23-9.63-6.94-12.51"/><path d="m82.37 109.67c-.96-1.15-1.73-2.42-2.54-3.59-1.61-2.33-3.66-4.66-5.95-7.01l7.69-20.77 8.41 23.59c-1.78 1.61-7.09 7.22-7.62 7.78zm30.76 19.31-5.74-5.33-8.04-22.27c1.33-.91 3.44-1.36 6.32-1.36.39 0 1.02.03 1.91.09-1.64-2.72-2.85-5.79-3.64-9.24-.78 1.03-1.93 1.82-3 2.58l-1.9 1.41-1.81 1-7.45-19.72 4.83-5.38h-21.15l4.94 5.2-7.58 20.21c-1.91-1.36-3.63-3.04-5.32-4.66-.92 2.69-2.2 5.27-3.86 7.75 3.02.29 5.34 1.13 6.94 2.48-1.78 6.06-4.12 12.8-7.69 18.1-2.53 3.77-5.57 6.9-9.9 9.14h21.59c-.37-.38-3.07-3.94-3.72-5.57-.46-1.16-.87-2.52-.87-4.2s.4-3.69 1.23-6.16l1.5-4.62c.6-1.87 1.1-3.29 1.5-4.24l2.13 2.14 1.93 2.52c2.09 2.54 3.61 4.74 5.43 7.55l.72 1.12c2.35-3.95 5.64-7.91 9.25-10.91l6.05 16.98-6.18 5.39h21.59"/><path d="m326.59 128.98v-39.75c.04-6.66.23-8.33 1.15-11.01 1.11-3.42 2.42-4.68 7.79-7.46h-20.71c3.88 1.94 5.99 3.76 7.01 6.44q.83 2.22.83 11.56v29.04l-21.92-42.64 6.45-4.4h-22.89l6.08 5.05v36.16c0 10.91-1.83 14.41-9.14 17h22.47l-.47-.63c-4.07-1.2-6.29-2.96-7.68-5.92-1.29-2.78-1.57-5.83-1.57-15.91v-26.08l24.98 48.54h7.63"/><path d="m239.51 118.68c-2.13-4.25-3.15-10.08-3.15-17.66 0-8.32 1.29-15.17 3.7-19.98 2.22-4.25 6.47-6.84 11.28-6.84s9.43 2.77 11.47 7.12c2.04 4.26 2.87 9.9 2.87 18.96 0 16.74-4.99 25.53-14.52 25.53-4.9 0-9.53-2.87-11.65-7.12zm36.16-17.57c0-18.87-9.34-30.8-24.23-30.8-6.57 0-13.04 2.68-17.3 7.21-4.99 5.18-7.59 12.86-7.59 22.38s2.78 17.39 8.42 22.85c4.44 4.35 10.64 6.85 16.93 6.85 14.24 0 23.77-11.38 23.77-28.49"/><path d="m342.6 125.43c.81.02 1.39-.17 1.39-1.11s-1.05-.96-1.75-.96h-1.78v2.06h2.14zm2.59 4.19h-1.68l-1.62-3.11h-1.44v3.11h-1.44v-7.34h3.54c.61 0 1.44.02 1.99.36.66.43.86 1.14.86 1.9 0 1.33-.71 1.88-2.01 1.96l1.79 3.11zm2.12-3.71c0-3.05-2.44-5.5-5.49-5.5s-5.54 2.45-5.54 5.5 2.47 5.54 5.54 5.54 5.49-2.46 5.49-5.54m-12.29 0c0-3.74 3.04-6.78 6.8-6.78s6.78 3.04 6.78 6.78-3.05 6.81-6.78 6.81-6.8-3.04-6.8-6.81"/></g></svg>