<svg enable-background="new 0 0 87.3 37.2" viewBox="0 0 87.3 37.2" xmlns="http://www.w3.org/2000/svg"><path d="m79.9 25.4c-.2 0-.4-.2-.4-.4v-11.2h-3.8c-.2 0-.4-.2-.4-.4v-1.6c0-.2.2-.4.4-.4h10.2c.2 0 .4.2.4.4v1.6c0 .2-.2.4-.4.4h-3.8v11.2c0 .2-.2.4-.4.4zm-29.3-5.6-2-5.8-2 5.8zm4.5 5.1c.1.2 0 .5-.3.5h-1.8c-.3 0-.4-.1-.5-.4l-1-3h-5.6l-1 3c-.1.2-.2.4-.5.4h-1.7c-.2 0-.4-.2-.3-.5l4.6-13.1c.1-.2.2-.4.5-.4h2.3c.3 0 .4.1.5.4zm13.6-1.4c1.1 0 1.9-.5 2.5-1.5l-2.8-3c-1.1.6-1.8 1.2-1.8 2.5s.9 2 2.1 2m.8-10.2c-.9 0-1.4.6-1.4 1.4 0 .6.3 1.1 1 1.9 1.2-.7 1.8-1.1 1.8-1.9-.1-.8-.5-1.4-1.4-1.4m7.7 11.6c.2.2.1.5-.2.5h-2.2c-.3 0-.4-.1-.7-.3l-1.3-1.5c-.9 1.2-2.1 2.1-4.2 2.1-2.6 0-4.6-1.5-4.6-4.2 0-2 1.1-3.1 2.7-4-.8-.9-1.2-1.9-1.2-2.8 0-2.2 1.5-3.6 3.8-3.6s3.8 1.4 3.8 3.4c0 1.8-1.3 2.7-2.6 3.5l2 2.1 1.1-1.9c.1-.2.3-.3.6-.3h1.8c.3 0 .4.2.3.5l-2 3.4zm-17.4.5c.2 0 .4-.2.4-.4v-11.2h3.8c.2 0 .4-.2.4-.4v-1.6c0-.2-.2-.4-.4-.4h-10.2c-.2 0-.4.2-.4.4v1.6c0 .2.2.4.4.4h3.8v11.2c0 .2.2.4.4.4z" fill="#fff"/><path d="m8 32.2c3 2.3 6.7 3.7 10.7 3.7 4.4 0 8.4-1.6 11.5-4.3-1.4.9-5.3 2.9-11.5 2.9-5.3-.1-8.7-1.3-10.7-2.3 0-.1 0 0 0 0m11.9.9c4.3 0 9-1.2 11.9-3.5.8-.6 1.5-1.5 2.2-2.6.4-.6.8-1.4 1-2.2-2.6 3.9-10.2 6.3-18.1 6.3-5.6 0-11.5-1.8-13.9-5.2 2.1 4.6 8.8 7.2 16.9 7.2m-4.7-7.7c-8.9 0-13.2-4.2-13.9-7 0 1 .1 2.2.3 3 .1.4.4 1 .9 1.5 2.2 2.3 7.6 5.4 16.9 5.4 12.7 0 15.7-4.2 16.2-5.6.4-1 .7-2.8.7-4.3 0-.4 0-.7 0-1-.8 3.5-11.7 8-21.1 8m-12.2-14.5c-.5 1-1.1 2.7-1.2 3.6-.1.4 0 .6.1.9 1.1 2.3 6.5 5.9 19.1 5.9 7.7 0 13.7-1.9 14.7-5.4.2-.6.2-1.3 0-2.2-.3-1-.7-2.2-1.1-3 .2 4.5-12.5 7.5-18.9 7.5-6.9 0-12.7-2.8-12.7-6.2-.2-.4-.1-.8 0-1.1zm27.3-5.6c.1.1.1.2.1.4 0 1.9-5.9 5.4-15.4 5.4-6.9 0-8.2-2.6-8.2-4.2 0-.6.2-1.2.7-1.8-.9.7-1.8 1.6-2.5 2.5-.3.5-.6.9-.6 1.1 0 3.4 8.5 5.9 16.5 5.9 8.5 0 12.3-2.8 12.3-5.2 0-.9-.3-1.4-1.2-2.4-.5-.7-1.1-1.2-1.7-1.7zm-2.6-1.9c-2.6-1.6-5.7-2.5-8.9-2.5s-6.4.9-9.1 2.5c-.8.6-1.2.9-1.2 1.4 0 1.5 3.4 3.1 9.6 3.1s10.7-1.7 10.7-3.4c0-.4-.4-.7-1.1-1.1" fill="#4da7dd"/></svg>