<svg enable-background="new 0 0 185 100" viewBox="0 0 185 100" xmlns="http://www.w3.org/2000/svg"><path d="m182.5 34.4c-2.4-14-44.6-18.4-94.1-9.8-20.8 3.6-39.6 9-54.2 15 2.2 0 3.9.6 4.9 1.6.8.8 1.2 1.9 1.2 3.2v1.4h-4.8v-1.2c0-1-.6-1.7-1.7-1.7-.9 0-1.5.4-1.7 1.2 0 .2-.1.6 0 1 .5 2.1 7.7 3.4 8.5 7.4.1.5.2 1.6 0 3.1-.3 3.1-3.1 4.4-6.6 4.4-5 0-7-2.4-7-5.6v-1.5h5.2v1.9c0 1.1.8 1.7 1.8 1.7s1.6-.4 1.8-1.2c.1-.4.1-.9 0-1.4-1-2.4-7.7-3.5-8.5-7.5-.2-.9-.2-1.6 0-2.6.1-.5.2-1 .4-1.3-16.2 7.6-25.7 15.9-24.5 23.1 2.4 14 44.6 18.4 94.1 9.8 21.8-3.8 41.3-9.5 56.2-15.8-.2 0-.4 0-.6 0-3.4 0-6.4-1.3-6.7-4.7-.1-.6-.1-.9-.1-1.2v-8c0-.3 0-1 .1-1.3.4-3.3 3.1-4.7 6.7-4.7 2.8 0 6.3.8 6.7 4.7.1.5.1 1 0 1.2v.8h-4.9v-1.1s0-.5-.1-.7c-.1-.4-.4-1.3-1.8-1.3s-1.7.9-1.8 1.3c-.1.2-.1.5-.1.9v8.5.7c0 .1.3 1.3 1.9 1.3s1.8-1.2 1.9-1.3c0-.2.1-.5.1-.7v-2.7h-1.9v-2.9h6.8v5.1c0 .3 0 .6-.1 1.2-.1.9-.4 1.7-.8 2.3 15.8-7.3 24.9-15.5 23.7-22.6zm-128.3 24.8-2.5-16.9h-.1l-2.6 16.9h-5.2l3.5-19.1h8.5l3.5 19.1zm25.1 0-.1-16.5h-.1l-3.1 16.5h-4.9l-3.1-16.5-.1 16.5h-4.9l.4-19.1h7.8l2.3 14.2h.1l2.3-14.2h7.8l.4 19.1zm23-3.7c-.5 3.7-4.1 4.3-6.7 4.3-4.2 0-6.9-1.8-6.9-5.5v-1.5h5.1v1.9c0 1 .7 1.6 1.8 1.6 1 0 1.6-.4 1.8-1.2.1-.4.1-.9 0-1.3-.9-2.4-7.6-3.5-8.4-7.4-.2-.9-.2-1.6-.1-2.5.6-3.5 3.9-4.2 6.6-4.2 2.4 0 4.2.5 5.2 1.6.8.8 1.2 1.9 1.2 3.2v1.4h-4.8v-1.2c0-1-.6-1.6-1.7-1.6-.9 0-1.5.4-1.7 1.2 0 .2-.1.6 0 1 .5 2.1 7.7 3.4 8.4 7.3.2.4.3 1.4.2 2.9zm17.8-1.7c0 .4 0 1.1-.1 1.2-.3 3.1-2.5 4.7-6.7 4.7s-6.4-1.6-6.7-4.7c0-.2-.1-.9-.1-1.2v-13.6h4.9v14.1.7c.1.3.4 1.3 1.8 1.3s1.7-1 1.8-1.3c0-.2 0-.4 0-.7v-14.1h4.9zm21.2 5.2h-6.9l-4.6-15.1h-.1l.3 15.1h-4.8v-18.8h7.1l4.2 14.5h.1l-.2-14.5h4.8z" fill="#fff"/></svg>