<svg viewBox="0 0 90.47 41.59" xmlns="http://www.w3.org/2000/svg"><g fill="#af9862"><path d="m22.07 31.08-.07.05s-.05-.05-.08-.05c-.01 0-.03 0-.06.04-.16.12-.54.46-1.31.46-1.08 0-1.79-.72-1.79-1.67 0-.8.68-1.52 1.76-1.52.37 0 .67.08.89.16.17.06.28.12.36.15.02 0 .03.01.05.01.04 0 .06-.01.08-.04l.08.04-.34.61-.07-.04s.01-.04.01-.05 0-.03 0-.05c-.09-.14-.54-.38-1.07-.38-.61 0-1.23.35-1.23 1.17 0 .77.59 1.21 1.33 1.21.45 0 .86-.27.99-.45.02-.04.03-.07.03-.1s0-.04-.02-.06l.07-.05.4.56"/><path d="m28.35 31.33c0 .08 0 .14.1.14v.07h-.68v-.07c.11 0 .1-.06.1-.14v-1.19h-2.01v1.19c0 .08 0 .14.1.14v.07h-.68v-.07c.11 0 .1-.06.1-.14v-2.69c0-.08 0-.14-.1-.14v-.07h.68v.07c-.11 0-.1.06-.1.14v1.12h2.01v-1.12c0-.08 0-.14-.1-.14v-.07h.68v.07c-.11 0-.1.06-.1.14z"/><path d="m32.27 30.71-.2.47c-.03.07-.08.17-.08.22 0 .04.03.06.08.06v.07s-.66 0-.66 0v-.07c.1 0 .1-.02.21-.28l1.07-2.4c.06-.14.16-.37.16-.37h.5s.11.25.17.39l1.05 2.36c.12.28.14.29.22.29v.07h-.74v-.07c.06 0 .1-.03.1-.08 0-.04-.01-.06-.07-.2l-.21-.47h-1.6zm.19-.39h1.23l-.62-1.4-.62 1.4"/><path d="m50.97 30.71-.2.47c-.03.07-.08.17-.08.22 0 .04.04.06.08.06v.07s-.66 0-.66 0v-.07c.1 0 .1-.02.22-.28l1.07-2.4c.06-.14.16-.37.16-.37h.5s.11.25.17.39l1.05 2.36c.12.28.14.29.22.29v.07h-.74v-.07c.07 0 .1-.03.1-.08 0-.04 0-.06-.07-.2l-.21-.47h-1.61zm.19-.39h1.23l-.62-1.4z"/><path d="m37.76 31.54v-.07c.11 0 .11-.06.11-.14v-2.7c0-.07 0-.14-.11-.14v-.08h.7l1.03 2.11 1.07-2.11h.74v.08c-.09 0-.11.09-.11.14v2.7c0 .08 0 .14.12.14v.07h-.72v-.07c.12 0 .12-.06.12-.14v-2.36s-1.22 2.51-1.22 2.51l-1.21-2.51v2.36c0 .09.01.14.11.14v.07h-.62"/><path d="m44.84 28.63c0-.08 0-.14-.1-.14v-.07h1.76c.26 0 .44.02.54.04.44.11.64.41.64.79s-.17.69-.54.84c-.12.05-.35.09-.62.09h-1.19v1.14c0 .08 0 .14.1.14v.07h-.68v-.07c.11 0 .1-.06.1-.14v-2.69zm.48 1.15h1.26c.49 0 .6-.24.6-.51s-.11-.46-.6-.46h-1.26z"/><path d="m58.25 30.36c-.12 0-.19.01-.19.11h-.07v-.61h.07c0 .13.1.11.2.11h1.1s0 .09 0 .23v.51.29c-.54.45-1.02.57-1.5.57-.97 0-1.75-.65-1.75-1.59s.73-1.6 1.7-1.6 1.26.4 1.4.4c.02 0 .05 0 .07-.04l.07.05-.35.53-.07-.05s.01-.01.01-.03c0-.13-.48-.47-1.12-.47-.85 0-1.22.56-1.22 1.19 0 .77.59 1.2 1.19 1.2s.88-.16 1.13-.36v-.45h-.65"/><path d="m65.34 30.76h.01v-2.12c0-.08 0-.14-.1-.14v-.07h.61v.07c-.11 0-.1.06-.1.14v2.91h-.35s-.16-.21-.18-.23l-2.02-2.4v2.42c0 .08 0 .14.11.14v.07h-.63v-.07c.1 0 .11-.06.11-.14v-2.69c0-.08 0-.14-.11-.14v-.07h.69s.16.19.18.21l1.78 2.12"/><path d="m69.34 28.63c0-.08-.01-.14-.12-.14v-.07h2.36.3v.53h-.07c0-.1-.05-.13-.22-.13h-1.77v.94h1.15c.13 0 .23 0 .23-.13h.07v.66h-.07c0-.12-.06-.14-.22-.14h-1.16v1.01h1.89c.16 0 .23.01.23-.13h.07v.53h-2.79v-.07c.11 0 .12-.06.12-.14v-2.69"/><path d="m45.38 35.68c.12.37.56 1.72.56 1.72h1.8c-.32.23-1.46 1.06-1.46 1.06s.44 1.34.56 1.71c-.32-.23-1.46-1.06-1.46-1.06s-1.15.83-1.46 1.06c.12-.37.55-1.71.55-1.71s-1.14-.83-1.46-1.06h1.8l.36-1.11s.12-.36.2-.61"/><path d="m25.92 11.24h1.55v.28h-1.22v.39h1.05v.29h-1.05v.72h-.33z"/><path d="m29.2 11.2c.74 0 1 .43 1 .89 0 .35-.21.87-1 .87s-1-.52-1-.87c0-.46.26-.89 1-.89m.67.87c0-.4-.29-.59-.67-.59s-.67.19-.67.59c0 .48.36.61.67.61s.67-.13.67-.61"/><path d="m31.08 11.24h.35l1.13 1.21v-1.21h.31v1.68h-.3l-1.17-1.26v1.26h-.32z"/><path d="m33.86 11.24h.81c.53 0 .96.23.96.83 0 .57-.39.85-.94.85h-.82v-1.68zm.66 1.4c.56 0 .78-.17.78-.56s-.23-.55-.78-.55h-.33v1.12h.33"/><path d="m36.5 11.24h1.51v.28h-1.18v.39h1.01v.28h-1.01v.44h1.21v.28h-1.54v-1.68zm.75-.45h.33l-.37.33h-.2l.25-.33"/><path d="m52.84 11.24h1.44v.28h-1.13v.39h.97v.28h-.97v.45h1.16v.28h-1.47z"/><path d="m55.16 11.24h.33l1.08 1.21v-1.21h.3v1.68h-.29l-1.12-1.26v1.26h-.3z"/><path d="m58.83 11.44c.17-.03.32-.08.45-.24h.16v1.72h-.28v-1.29h-.33z"/><path d="m61.42 11.5h-1.03v-.26h1.4v.15l-.82 1.53h-.34z"/><path d="m63.28 11.24h.31v1.07h.21v.25h-.21v.36h-.28v-.36h-1.01v-.25zm.03.31-.69.76h.69z"/><path d="m65.01 11.91h.23c.24 0 .39-.05.39-.22 0-.16-.16-.22-.38-.22-.34 0-.42.16-.42.21h-.28c0-.12.08-.48.69-.48.43 0 .67.19.67.48 0 .23-.15.32-.23.35.08.04.27.14.27.41 0 .29-.24.53-.71.53-.62 0-.73-.36-.73-.53h.3c.02.13.15.27.41.27.25 0 .44-.08.44-.3 0-.11-.08-.23-.37-.23h-.3v-.26"/><path d="m51.22 9.21c-.15 0-.23.04-.38.18-.13.13-.31.32-.31.32l-.12-.13c-.04-.07-.09-.27 0-.34.03-.02 0-.04-.01-.04 0 0-.12-.01-.21.13-.07.1-.1.21-.1.21s-.14-.01-.24.09c-.14.14-.1.37-.1.37s-.14.11-.18.19c-.07.18 0 .32 0 .32.01.02.04.03.05 0 .04-.11.16-.18.27-.19.17 0 .23.04.23.08 0 .05-.22.3-.46.3-.19 0-.3-.06-.37-.18-.1-.17-.08-.3-.08-.3s.21.03.33-.25c.09-.22.03-.36-.05-.41-.11-.06-.28.03-.37.19-.13.27-.03.41-.03.41s-.2.31-.61.17c-.37-.13-.19-.83-.19-.83s.11-.03.15 0c.05.03.07.16.12.27.04.08.1.21.18.21.05 0 .15-.19.16-.34.15-.03.27-.13.22-.41 0 0 .18-.2.16-.32 0-.02-.1-.06-.24-.04s-.35.09-.35.09 0-.12.04-.16.25-.19.31-.28.13-.22.07-.26-.19-.07-.27-.07c0 0-.06-.09-.15-.12h-.01c-.1-.04-.19 0-.19 0-.07-.05-.18-.1-.26-.11-.08 0-.1.14-.12.25-.01.1.07.37.07.43s-.07.16-.07.16-.08-.21-.17-.33c-.09-.11-.19-.13-.22-.13-.05.01-.13.21-.12.39-.21.11-.19.34-.14.46-.07.11-.12.32-.06.39.03.04.2.02.34-.06.11-.06.2-.16.25-.16.06 0 .13.09.13.09s-.29.55-.65.55c-.3 0-.41-.13-.41-.13-.15-.12-.16-.28-.16-.28s.25-.08.27-.39c.02-.24-.12-.37-.24-.38-.15-.02-.32.13-.35.32-.05.31.15.43.15.43s-.1.37-.57.34c-.22-.02-.3-.04-.47-.17-.23-.17-.25-.63-.25-.63s.12-.06.19-.04c.07.01.13.14.24.23.12.1.25.2.39.19.07 0 .13-.29.08-.44.13-.14.14-.36.04-.51 0 0 .09-.31 0-.4-.02-.03-.12-.05-.28.03s-.39.28-.39.28-.04-.12 0-.17c.03-.05.18-.32.22-.43s.07-.27-.02-.28c-.09-.02-.24 0-.34.03-.05-.04-.13-.09-.22-.09s-.17.05-.22.09c-.1-.04-.25-.05-.34-.03s-.05.18-.02.28c.04.11.19.38.22.43s0 .17 0 .17-.23-.2-.39-.28-.25-.06-.28-.03c-.08.1 0 .4 0 .4-.1.15-.09.37.04.51-.05.15.01.44.08.44.14.01.26-.09.39-.19.11-.09.17-.22.24-.23.08-.02.19.04.19.04s-.01.46-.24.63c-.17.13-.25.16-.47.17-.46.04-.57-.34-.57-.34s.21-.12.16-.43c-.03-.19-.19-.34-.35-.32-.12.02-.26.14-.24.38.03.31.28.39.28.39s0 .16-.16.28c0 0-.11.13-.41.13-.36 0-.65-.55-.65-.55s.07-.08.13-.09c.06 0 .15.1.26.16.15.08.31.1.34.06.05-.08 0-.29-.06-.39.05-.12.07-.35-.14-.46.01-.18-.07-.38-.12-.39-.03 0-.12.02-.22.13-.09.11-.18.33-.18.33s-.07-.1-.06-.16c0-.06.09-.33.08-.43-.01-.11-.04-.26-.12-.25-.08 0-.19.06-.26.11 0 0-.1-.03-.2 0h-.02c-.09.04-.15.13-.15.13-.09 0-.21.03-.27.07s.01.17.07.26.26.24.3.28.04.16.04.16-.2-.08-.34-.09c-.14-.02-.24.02-.24.04-.02.13.15.32.15.32-.05.29.07.38.22.42.01.15.11.34.16.34.08 0 .15-.13.18-.21.05-.11.06-.24.12-.27.05-.03.16 0 .16 0s.18.69-.19.82c-.41.15-.61-.17-.61-.17s.11-.14-.03-.41c-.08-.16-.26-.25-.36-.19-.09.05-.15.19-.05.41.12.28.32.25.32.25s.02.13-.08.3c-.08.13-.18.19-.37.19-.25 0-.46-.25-.47-.3 0-.05.06-.08.23-.08.11 0 .22.08.27.19.01.03.04.02.05 0 0 0 .08-.14 0-.32-.03-.08-.18-.19-.18-.19s.04-.23-.1-.37c-.1-.1-.24-.09-.24-.09s-.02-.11-.1-.21c-.09-.14-.21-.13-.21-.13-.02 0-.04.02-.01.04.09.07.04.27 0 .34l-.12.13s-.18-.19-.3-.32c-.15-.15-.23-.18-.38-.18-.21 0-.28.17-.28.17s.15-.04.35.09c.11.08.39.35.39.35-.03.38.1.65.47.69l.24.32h9.36l.24-.31c.37-.04.49-.31.46-.69 0 0 .28-.27.39-.35.2-.14.35-.09.35-.09s-.06-.17-.28-.17m-10.68.9s-.05.08-.05.08.09.18.06.2c0 0-.16 0-.29-.14-.11-.11-.13-.47-.13-.47s.08.09.19.21c.08.09.06.07.06.07s.05-.05.12-.06.14.02.14.02-.07.06-.09.09m1.99-.68s-.19-.19-.19-.19-.07 0-.14 0c-.07.01-.18.05-.18.05s.04-.13.15-.19c.07-.04.12-.05.12-.05s-.03-.02-.07-.18c-.05-.21-.02-.46-.02-.46s.18.18.26.39c.06.15.06.19.06.19s.04-.02.12-.03c.13-.01.23.07.23.07s-.1.02-.18.06c-.06.03-.12.08-.12.08s.02.27-.04.27m2.85-.39c-.08 0-.13-.28-.13-.28s-.07-.03-.15-.04c-.09 0-.21 0-.21 0s.08-.11.22-.14c.09-.02.14-.01.14-.01s-.02 0 0-.17c.01-.22.13-.45.13-.45s.12.23.14.45c.01.17 0 .17 0 .17s.05 0 .14.01c.15.03.22.14.22.14s-.12 0-.21 0c-.08.01-.15.04-.15.04s-.05.28-.13.28m2.82.12s-.05-.04-.12-.08c-.06-.04-.17-.07-.17-.07s.09-.08.23-.07c.09 0 .12.03.12.03s0-.03.06-.18c.08-.21.26-.38.26-.38s.04.24-.02.46c-.04.16-.06.18-.06.18s.04 0 .12.05c.12.07.14.19.14.19s-.1-.03-.18-.05c-.07-.01-.14 0-.14 0s-.15.22-.19.19c-.05 0-.04-.27-.04-.27m2.31 1.08c-.13.14-.28.15-.29.15-.03-.02.06-.2.06-.2s-.03-.05-.06-.08c-.02-.03-.09-.09-.09-.09s.08-.03.16-.02c.07 0 .11.05.11.06 0 0 .02-.02.06-.07.11-.12.19-.21.19-.21s-.02.36-.13.47"/><path d="m50.03 13.16h-9.3c-.1 0-.18-.08-.18-.18s.08-.18.18-.18h9.3c.1 0 .18.08.18.18s-.08.18-.18.18z"/><path d="m50.03 11.37c.1 0 .18-.08.18-.18s-.08-.18-.18-.18h-9.3c-.1 0-.18.08-.18.18s.08.18.18.18z"/><path d="m45.69 7.42c.09 0 .22-.01.28 0 .12-.37.13-.88 0-1.24.13.05.31.08.56.08h.12c.35 0 .89-.02 1.17.39.21.32.11.7 0 .98-.12.31-.11.46-.11.49.04 0 .15.06.23.16 0-.25.03-.33.14-.61.11-.27.26-.74-.02-1.15-.37-.55-1.04-.52-1.46-.53h-.03c-.57 0-.83-.15-.83-.15h-.12c.2.56.26 1.16.07 1.57m-2.87.87c.08-.1.19-.15.23-.16 0-.03.02-.18-.11-.49-.11-.28-.22-.66 0-.98.28-.41.82-.39 1.17-.39h.12c.25 0 .43-.03.56-.08-.13.37-.12.87 0 1.24.06-.02.19-.01.28 0-.18-.41-.13-1.01.07-1.57h-.11s-.26.15-.83.15h-.03c-.43.01-1.09-.02-1.46.53-.28.41-.13.88-.02 1.15.12.27.15.36.14.61"/><path d="m41.51 6.93h.02c0-.11.03-.21.1-.28-.63.06-1.01.28-1.26.53-.6.58-.41 1.46-.25 1.95.03.1.01.04.04.1.06-.16.13-.2.22-.23 0-.03-.01-.04-.04-.13-.07-.21-.1-.49-.1-.66.01-.75.58-1.2 1.27-1.28m8.88.25c-.26-.25-.63-.46-1.26-.53.07.08.11.17.11.28h.02c.69.08 1.26.53 1.27 1.28 0 .18-.03.46-.09.66-.03.1-.03.1-.04.13.09.03.17.08.22.23.02-.06 0 0 .03-.1.16-.5.34-1.37-.25-1.95"/><path d="m39.77 8.03c0 .18-.15.33-.33.33s-.33-.15-.33-.33.15-.33.33-.33.33.15.33.33m.1.76c0-.16-.13-.3-.3-.3-.16 0-.29.13-.29.3s.13.29.29.29.3-.13.3-.29m.13-1.53c0-.17-.13-.3-.3-.3s-.3.13-.3.3.13.3.3.3.3-.13.3-.3m.49-.54c0-.16-.13-.28-.28-.28s-.28.12-.28.28.13.28.28.28.28-.13.28-.28m.62-.31c0-.15-.12-.27-.27-.27s-.27.12-.27.27.12.27.27.27.27-.12.27-.27m.65-.15c0-.14-.12-.26-.26-.26s-.26.12-.26.26.12.26.26.26.26-.12.26-.26"/><path d="m51.48 8.08s0 0 0 0m-.3-.88s0 .02.01.02c0 0 .01 0 .01-.02 0 0 0-.02-.01-.02 0 0-.01 0-.01.02m-1.37-.9s0 .01 0 .01 0 0 0-.01 0 0 0 0m1.18 1.73c0 .18.14.33.33.33s.33-.15.33-.33-.15-.33-.33-.33-.33.15-.33.33m-.1.76c0 .16.13.3.3.3s.3-.13.3-.3-.13-.3-.3-.3-.3.13-.3.3m-.13-1.52c0 .17.13.3.3.3s.3-.13.3-.3-.13-.3-.3-.3-.3.13-.3.3m-.49-.54c0 .15.12.28.28.28s.28-.13.28-.28-.13-.28-.28-.28-.28.13-.28.28m-.62-.31c0 .15.12.27.27.27s.27-.12.27-.27-.12-.27-.27-.27-.27.12-.27.27m-.65-.15c0 .14.12.26.26.26s.26-.11.26-.26-.12-.26-.26-.26-.26.12-.26.26m1.6.35s0 0 .01 0 0 0 0 0z"/><path d="m44.51 5.83c.1 0 .18-.08.18-.18s-.08-.17-.18-.17-.18.08-.18.17.08.18.18.18m-2.25 2.11c.15-.05.23-.23.17-.39s-.23-.24-.38-.19-.23.23-.18.39c.06.16.23.24.38.18m.11-.99c0-.17-.14-.31-.31-.31s-.31.14-.31.31.14.31.31.31.31-.14.31-.31m.24-.65c0-.16-.13-.29-.29-.29s-.29.13-.29.29.13.29.29.29.29-.13.29-.29m.49-.44c0-.15-.12-.28-.28-.28s-.28.12-.28.28.12.28.28.28.28-.13.28-.28m.56-.17c0-.13-.11-.24-.24-.24s-.24.11-.24.24.11.24.24.24.24-.11.24-.24m.55-.04c0-.12-.1-.22-.22-.22s-.22.1-.22.22.1.21.22.21.22-.1.22-.21"/><path d="m46.07 5.65c0 .1.08.18.18.18s.18-.08.18-.18-.08-.17-.18-.17-.18.08-.18.17m2.44 2.28c.15.06.32-.03.38-.18.06-.16-.02-.33-.17-.39s-.32.03-.38.18c-.06.16.02.33.17.39m-.11-.98c0 .17.14.31.31.31s.31-.14.31-.31-.14-.31-.31-.31-.31.14-.31.31m-.24-.65c0 .16.13.29.29.29s.29-.13.29-.29-.13-.29-.29-.29-.29.13-.29.29m-.49-.44c0 .15.13.28.28.28s.28-.12.28-.28-.12-.28-.28-.28-.28.12-.28.28m-.56-.17c0 .13.11.24.24.24s.24-.11.24-.24-.11-.24-.24-.24-.24.11-.24.24m-.56-.04c0 .12.1.21.22.21s.22-.09.22-.21-.1-.22-.22-.22-.22.1-.22.22"/><path d="m45.61 6.57c0-.13-.1-.23-.23-.23s-.23.1-.23.23.1.23.23.23.23-.1.23-.23m.04.59c0-.15-.12-.27-.26-.27s-.26.12-.26.27.12.26.26.26.26-.12.26-.26m-.08-1.11c0-.1-.09-.19-.19-.19s-.19.08-.19.19.08.19.19.19.19-.08.19-.19"/><path d="m45.05 2.15h.66l-.15.57.5-.17v.67l-.5-.14v.6h-.36v-.6l-.5.14v-.67l.5.17z"/><path d="m45.2 3.69v.77c-.27.01-.54.04-.8.1.04-.44.37-.79.8-.87"/><path d="m45.56 3.69c.42.08.75.43.8.87-.26-.05-.53-.09-.8-.1z"/><path d="m46.34 4.88c-.1.43-.49.76-.96.76s-.86-.32-.96-.76c.31-.07.63-.1.96-.1s.65.04.96.1"/><path d="m40.8 12.63h9.16v-1.08h-9.16zm.89-.33h-.62v-.42h.62zm1 .06-.55-.27.55-.26.55.26zm1.25.02c-.16 0-.3-.13-.3-.28s.13-.28.3-.28.3.13.3.28-.13.28-.3.28m2.05-.07h-1.23v-.42h1.23zm.82.07c-.16 0-.3-.13-.3-.28s.14-.28.3-.28.3.13.3.28-.14.28-.3.28m1.26-.02-.55-.27.55-.26.55.26zm1.61-.06h-.62v-.42h.62z"/></g><path d="m14.22 24.04c-1.23 0-1.97-1.35-1.97-3.27s.74-3.27 1.97-3.27 1.96 1.35 1.96 3.27-.74 3.27-1.96 3.27m0-7.18c-1.91 0-3.46 1.75-3.46 3.9s1.55 3.9 3.46 3.9 3.46-1.74 3.46-3.9-1.55-3.9-3.46-3.9"/><path d="m29.96 17.01h-5.24c-.15 0-.21.05-.25.19-.01.05-.27 1.27-.3 1.41.07-.06.9-.77.96-.83.07-.06.12-.08.22-.08h1.34v6.05s-.7.63-.79.72h2.88l-.79-.72v-6.05h1.32c.11 0 .15 0 .25.08.04.03.83.68.94.77-.01-.06-.28-1.24-.3-1.36-.04-.15-.12-.19-.24-.19"/><path d="m8.96 17.73.76-.72c-.18 0-1.49 0-1.69 0-.25 0-.35.13-.43.31-.06.15-1.31 2.95-1.6 3.6-.11-.25-1.51-3.36-1.63-3.61-.09-.2-.16-.31-.44-.31h-1.75c.12.09.63.59.78.73-.01.2-.5 5.6-.54 6.04l-.8.72h2.4l-.78-.72c0-.11.42-4.66.43-4.86.06.15 1.92 4.24 1.95 4.33.05.12.22.13.28 0 .02-.06 1.78-4.08 1.88-4.33.02.21.39 4.66.4 4.85l-.79.73h2.87l-.79-.73c-.01-.17-.49-5.68-.52-6.03"/><path d="m22.28 23.79h-1.96v-2.85h1.55s.71.57.77.62v-1.96l-.77.62h-1.55s0-2.46 0-2.51h1.83c.12 0 .17.01.26.07.02.02.95.68.98.71 0-.03-.42-1.24-.45-1.31-.04-.13-.09-.17-.28-.17h-4.42s.74.66.79.71v6.05l-.79.72h4.81c.17 0 .24-.08.26-.17.01-.04.44-1.36.46-1.43-.02.01-1.09.77-1.17.82-.11.07-.18.09-.31.09m-2.17-7.22c.3 0 .55-.24.55-.53s-.25-.53-.55-.53-.55.24-.55.53.25.53.55.53m1.63 0c.3 0 .55-.24.55-.53s-.25-.53-.55-.53-.55.24-.55.53.24.53.55.53"/><path d="m49.94 17.01s.77.68.79.71v2.45h-2.63v-2.45s.63-.56.79-.71h-2.87s.67.59.79.7v6.06s-.63.57-.79.72h2.86s-.63-.57-.79-.71v-2.86h2.63v2.85s-.66.6-.79.72h2.86s-.69-.63-.78-.71c0 0 0-5.86 0-6.06 0 0 .69-.62.79-.71z"/><path d="m42.54 17.47c1.28 0 1.72 1.43 1.81 1.91.15-.31.88-1.87.94-2.02-.1.03-.53.14-.76.18-.57-.47-1.23-.71-2-.71-1.91 0-3.46 1.75-3.46 3.9s1.37 3.9 3.4 3.9c1.56 0 2.48-.94 2.5-1.85.01-.25-.05-.75-.56-.95-.08.94-.61 2.17-1.89 2.17s-1.95-1.34-1.95-3.26.74-3.27 1.97-3.27"/><path d="m78.69 24.04c-1.22 0-2.01-1.35-2.01-3.27s.79-3.27 2.01-3.27 2.01 1.35 2.01 3.27-.79 3.27-2.01 3.27m0-7.18c-1.91 0-3.46 1.75-3.46 3.9s1.55 3.9 3.46 3.9 3.46-1.74 3.46-3.9-1.55-3.9-3.46-3.9"/><path d="m34.34 23.93c-1.07 0-1.4-.81-1.4-1.41 0-.51.21-.86.42-1.02.34.54 1.46 1.88 1.79 2.22-.15.08-.35.22-.81.22m1.91-.48c.32-.37.62-.83.62-1.48 0-.54-.24-.86-.46-1.04-.14-.11-.27-.07-.37.05-.03.03-.27.29-.43.47.39.14.62.51.62.87 0 .3-.06.55-.28.78-.4-.43-2.48-2.65-2.48-3.66 0-.43.28-.73.66-.73.47 0 .68.43.68.76 0 .52-.2.81-.62 1.1.05.07.13.2.19.28.39-.18 1.3-.53 1.3-1.38 0-.5-.5-1.14-1.51-1.14-.68 0-1.58.53-1.58 1.43 0 .58.39 1.12.55 1.37-.44.25-1.27.84-1.27 1.78 0 1 .87 1.71 1.99 1.71.88 0 1.26-.22 1.67-.5.14.14.23.24.48.46h1.51c.04-.05.23-.28.3-.38-.81.07-1.13-.28-1.56-.74"/><path d="m55.66 21.43.9-2.92.92 2.92zm1.75-4.43h-1.22l-2.15 6.76-.8.71h2.45l-.75-.7.54-1.78 1.11.27 1.08-.27.56 1.78-.72.7h2.91l-.81-.71-2.18-6.76z"/><path d="m65.59 17.72v3.73s-2.81-4.16-2.87-4.23c-.09-.12-.21-.2-.42-.2h-1.63l.79.71v6.04l-.79.72h2.41l-.79-.72v-4.9l3.81 5.68c.08.13.32.08.32-.08v-6.74l.79-.71h-2.41l.79.71z"/><path d="m86.72 17.01.79.71v3.73s-2.81-4.16-2.87-4.23c-.09-.12-.21-.2-.42-.2h-1.63l.79.71v6.04l-.79.72h2.41l-.79-.72v-4.9l3.81 5.68c.08.13.32.08.32-.08v-6.74l.79-.71h-2.41z"/><path d="m70.91 23.83c-.23 0-.66.02-.98-.01 0-.21 0-6.12 0-6.12.26-.03.83-.02.94-.02 1.1 0 2.14.86 2.14 3.08s-.96 3.07-2.1 3.07m.96-6.66c-.35-.11-.74-.15-1.16-.15h-2.88l.78.71v6.07l-.79.7h2.92c.33 0 .87-.04 1.28-.17 1.64-.53 2.44-2.1 2.44-3.47 0-1.51-.86-3.18-2.59-3.69"/></svg>